<svg width="64" height="64" viewBox="0 0 64 64" fill="none" xmlns="http://www.w3.org/2000/svg">
<g clip-path="url(#clip0_1201_3298)">
<path d="M56.0999 26.8C54.6999 26.8 53.1999 26.8 51.7999 26.8C47.1999 26.8 42.4999 26.8 37.8999 26.8C37.4999 26.8 37.5999 26.9 37.4999 26.5C35.5999 20.8 33.7999 15 31.8999 9.29998C31.8999 9.19998 31.7999 9.19998 31.7999 9.09998C31.7999 9.19998 31.6999 9.19998 31.6999 9.29998C29.7999 15.1 27.9999 20.9 26.0999 26.6C26.0999 26.8 25.9999 26.8 25.7999 26.8C24.5999 26.8 23.2999 26.8 22.0999 26.8C17.2999 26.8 12.3999 26.8 7.5999 26.8H7.4999C7.4999 26.8 7.4999 26.8 7.3999 26.8C7.3999 26.8 7.3999 26.8 7.3999 26.9C7.3999 26.9 7.4999 26.9 7.4999 27C9.0999 28.1 10.5999 29.3 12.1999 30.4C12.2999 30.5 12.3999 30.5 12.5999 30.5C15.2999 30.5 17.9999 30.5 20.6999 30.5C23.2999 30.5 25.7999 30.5 28.3999 30.5C28.4999 30.5 28.5999 30.5 28.6999 30.3C29.6999 27.2 30.6999 24.1 31.6999 21C31.6999 20.9 31.7999 20.9 31.7999 20.8C31.7999 20.9 31.8999 20.9 31.8999 21C32.8999 24.1 33.8999 27.2 34.8999 30.2C34.8999 30.3 34.9999 30.4 35.0999 30.4C38.2999 30.4 41.5999 30.4 44.7999 30.4C44.8999 30.4 44.8999 30.4 44.9999 30.4C44.8999 30.4 44.8999 30.5 44.7999 30.5C42.1999 32.4 39.5999 34.3 36.9999 36.2C36.7999 36.3 36.7999 36.4 36.8999 36.6C37.8999 39.7 38.8999 42.8 39.8999 45.9C39.8999 46 39.8999 46 39.8999 46.1C39.7999 46.1 39.7999 46 39.6999 46C37.0999 44.1 34.4999 42.2 31.8999 40.3C31.7999 40.2 31.6999 40.2 31.5999 40.3C27.2999 43.4 22.9999 46.5 18.6999 49.6C18.5999 49.7 18.4999 49.8 18.4999 49.9C18.1999 50.7 17.9999 51.4 17.7999 52.2C17.3999 53.3 17.0999 54.5 16.6999 55.6C16.7999 55.6 16.7999 55.5 16.8999 55.5C21.7999 51.9 26.6999 48.4 31.5999 44.8C31.6999 44.7 31.7999 44.7 31.8999 44.8C36.2999 48 40.7999 51.3 45.1999 54.5C45.6999 54.9 46.1999 55.3 46.7999 55.6V55.5C44.8999 49.7 42.9999 43.9 41.1999 38.1C41.1999 38 41.1999 37.9 41.2999 37.8C45.9999 34.4 50.5999 31 55.2999 27.6C55.5999 27.4 55.7999 27.2 56.0999 27L56.1999 26.9C56.1999 26.8 56.1999 26.8 56.0999 26.8Z" fill="#FEFEFE"/>
<path d="M24.8999 42.3C24.9999 42.3 24.9999 42.2 24.9999 42.1C25.5999 40.3 26.1999 38.5 26.6999 36.7C26.6999 36.6 26.6999 36.5 26.5999 36.5C25.0999 35.4 23.4999 34.2 21.9999 33.1C21.8999 33.1 21.7999 33 21.6999 33C20.7999 33 19.7999 33 18.8999 33C17.9999 33 16.9999 33 16.0999 33C15.9999 33 15.9999 33 15.8999 33L15.9999 33.1C18.0999 34.6 20.1999 36.2 22.2999 37.7C22.3999 37.8 22.4999 37.9 22.3999 38.1C21.5999 40.6 20.7999 43 19.9999 45.5V45.6C19.9999 45.6 20.0999 45.6 20.0999 45.5C21.7999 44.4 23.2999 43.4 24.8999 42.3Z" fill="#FEFEFE"/>
</g>
<defs>
<clipPath id="clip0_1201_3298">
<rect width="64" height="64" fill="white"/>
</clipPath>
</defs>
</svg>
