<svg width="64" height="64" viewBox="0 0 64 64" fill="none" xmlns="http://www.w3.org/2000/svg">
<path fill-rule="evenodd" clip-rule="evenodd" d="M0.337402 3.89397C0.387399 3.90301 0.428477 3.90101 0.460165 3.91733C1.36786 4.38549 2.27414 4.85635 3.18159 5.32463C3.93119 5.71147 4.68302 6.0936 5.43216 6.48125C6.93582 7.25926 8.4376 8.04078 9.94115 8.81878C11.6788 9.71779 13.418 10.6137 15.156 11.5123C17.1441 12.5403 19.1311 13.5704 21.1193 14.5981C22.6336 15.3808 24.1493 16.1609 25.664 16.9429C27.6783 17.9828 29.6923 19.0233 31.7065 20.0635C31.7269 20.0741 31.7513 20.0796 31.7678 20.0943C32.0719 20.3617 32.352 20.2721 32.6796 20.0975C34.1992 19.2884 35.7322 18.5047 37.26 17.7112C38.6148 17.0077 39.9687 16.3028 41.3239 15.5999C42.4293 15.0266 43.5358 14.4555 44.6419 13.8835C46.1914 13.0823 47.7414 12.2825 49.29 11.4798C50.6708 10.764 52.0497 10.0444 53.4299 9.32756C54.5553 8.74308 55.6813 8.15967 56.8074 7.57649C59.1412 6.36788 61.4753 5.15986 63.8091 3.95101C63.8594 3.92496 63.9067 3.89315 64.0001 3.8374C63.9674 4.03457 63.9419 4.19771 63.9129 4.36037C63.7684 5.17018 63.6228 5.97988 63.4777 6.78969C63.295 7.80887 63.1099 8.82759 62.9305 9.84736C62.7341 10.9636 62.5467 12.0815 62.3488 13.1974C62.1288 14.438 61.8983 15.6768 61.6776 16.9173C61.456 18.1637 61.2431 19.4116 61.0228 20.6582C60.8254 21.7744 60.6215 22.8895 60.4238 24.0058C60.2473 25.003 60.0782 26.0014 59.9011 26.9985C59.6779 28.2562 59.4585 29.5146 59.2203 30.7694C59.0982 31.4125 58.9867 32.0639 58.7873 32.6849C58.2029 34.5039 57.0831 35.9346 55.528 37.0396C53.5401 38.4523 51.5625 39.8795 49.5806 41.3006C49.0989 41.6457 48.6152 41.9879 48.1385 42.3397C48.074 42.3874 48.012 42.4803 48.0048 42.5575C47.9133 43.531 47.8329 44.5055 47.7481 45.4795C47.6583 46.5111 47.5669 47.5424 47.4759 48.5737C47.4583 48.7743 47.4503 48.9766 47.4158 49.1741C47.4031 49.2468 47.34 49.3268 47.2771 49.3723C46.4007 50.0052 45.5205 50.6325 44.6412 51.2612C42.8026 52.5757 40.9635 53.8896 39.1253 55.2045C36.8427 56.8375 34.5597 58.4701 32.2805 60.1077C32.1519 60.2001 32.0817 60.1647 31.971 60.0844C30.8401 59.2633 29.7042 58.4487 28.5698 57.6324C27.0198 56.517 25.4696 55.4016 23.9196 54.2862C22.0291 52.9257 20.1385 51.5652 18.248 50.2047C17.8326 49.9058 17.4145 49.6104 17.0054 49.3031C16.938 49.2524 16.8768 49.152 16.8694 49.0696C16.7984 48.2681 16.74 47.4655 16.6769 46.6634C16.5971 45.6487 16.5157 44.6343 16.4364 43.6196C16.4108 43.2927 16.3972 42.9647 16.3608 42.639C16.3514 42.5553 16.2967 42.4507 16.2294 42.4033C14.6955 41.326 13.1566 40.256 11.6194 39.1833C10.6623 38.5155 9.70044 37.8542 8.75167 37.1747C7.31608 36.1463 6.31004 34.7896 5.70432 33.1316C5.45399 32.4463 5.33357 31.7323 5.20553 31.0191C5.04896 30.1469 4.89299 29.2747 4.73748 28.4023C4.57587 27.496 4.41661 26.5894 4.25336 25.6835C4.07602 24.6981 3.89411 23.7135 3.71654 22.7283C3.60211 22.094 3.49284 21.459 3.37935 20.8246C3.24872 20.0941 3.11528 19.3643 2.9843 18.6339C2.82082 17.722 2.66015 16.8096 2.4956 15.8979C2.33927 15.0319 2.17719 14.1668 2.02181 13.3005C1.88472 12.5359 1.75504 11.7699 1.6189 11.0052C1.49073 10.2856 1.35753 9.56698 1.22807 8.84754C1.06517 7.94137 0.904503 7.03486 0.741603 6.12858C0.610038 5.39388 0.476009 4.65895 0.337402 3.89397ZM32.1429 58.7402C33.2936 57.9162 34.4321 57.1001 35.5717 56.2852C36.9303 55.3136 38.2905 54.3437 39.6488 53.3717C40.9423 52.4462 42.2337 51.5183 43.5271 50.5926C44.4145 49.9577 45.3043 49.3263 46.1894 48.6881C46.2404 48.6514 46.2826 48.5718 46.2889 48.5082C46.3518 47.868 46.4065 47.2271 46.4633 46.5863C46.5261 45.8773 46.5902 45.1683 46.6511 44.4591C46.7238 43.6121 46.7913 42.7647 46.869 41.9183C46.8758 41.8439 46.9229 41.7509 46.9815 41.7071C47.3955 41.3981 47.817 41.0989 48.237 40.798C49.5347 39.8687 50.833 38.9404 52.1308 38.0111C52.9895 37.3961 53.8409 36.7703 54.7083 36.1678C55.6822 35.4914 56.483 34.6638 57.084 33.6367C57.7367 32.5214 57.9498 31.2821 58.1522 30.0362C58.2184 29.6289 58.2921 29.2227 58.3655 28.8165C58.4378 28.4159 58.5162 28.0165 58.5881 27.616C58.6682 27.17 58.7434 26.7233 58.8218 26.2771C58.8913 25.8816 58.9635 25.4867 59.0319 25.091C59.1014 24.69 59.1651 24.2878 59.2362 23.8871C59.3094 23.4749 59.3915 23.0644 59.4644 22.6522C59.5584 22.1215 59.6441 21.5891 59.739 21.0585C59.834 20.5282 59.9399 19.9998 60.0338 19.4692C60.1494 18.8141 60.2545 18.1571 60.3699 17.5019C60.4836 16.8583 60.6073 16.2164 60.7212 15.5728C60.8361 14.9237 60.9412 14.2727 61.0565 13.6235C61.171 12.9797 61.2965 12.3377 61.4104 11.6936C61.5043 11.1629 61.5834 10.6294 61.6777 10.0986C61.7931 9.4495 61.9194 8.80235 62.0376 8.1538C62.1437 7.57262 62.2464 6.99073 62.3481 6.40872C62.3689 6.2896 62.3791 6.1686 62.3958 6.03457C62.3546 6.04572 62.3316 6.04771 62.3126 6.05757C60.7144 6.88663 59.1166 7.71674 57.5184 8.5458C56.3867 9.13285 55.2545 9.71873 54.1226 10.3052C53.0158 10.8786 51.909 11.4516 50.8027 12.0257C49.4276 12.7396 48.0531 13.4544 46.6783 14.1688C45.3087 14.8805 43.9395 15.5934 42.5688 16.3034C41.5892 16.8109 40.6067 17.313 39.6272 17.8207C38.1709 18.5756 36.7163 19.3339 35.2604 20.0894C34.2808 20.5978 33.301 21.1054 32.3184 21.6078C32.2648 21.6351 32.1729 21.6361 32.1195 21.6087C30.776 20.9212 29.4352 20.2283 28.0942 19.5362C26.6107 18.7705 25.1266 18.0058 23.6438 17.2386C22.1006 16.44 20.5594 15.6376 19.0159 14.8393C17.7819 14.2011 16.5456 13.5672 15.3109 12.9303C14.0505 12.2802 12.7907 11.6293 11.531 10.978C9.79937 10.0827 8.06791 9.18695 6.33668 8.29076C5.08793 7.64433 3.83988 6.99636 2.5909 6.35004C2.38129 6.2416 2.16874 6.13867 1.91806 6.01344C1.95139 6.17153 1.97862 6.28678 1.99951 6.40297C2.07485 6.82055 2.14797 7.23848 2.22203 7.6563C2.29515 8.06848 2.36826 8.48066 2.44138 8.89284C2.51156 9.28812 2.58057 9.68352 2.65193 10.0786C2.7254 10.4849 2.80192 10.8906 2.87551 11.2969C2.95109 11.7143 3.02421 12.132 3.0992 12.5493C3.17126 12.9502 3.24532 13.3508 3.31691 13.7518C3.39038 14.1639 3.46092 14.5765 3.53486 14.9885C3.60786 15.3948 3.68508 15.8005 3.7575 16.2069C3.82897 16.6077 3.89587 17.0094 3.96675 17.4103C4.04163 17.8337 4.11921 18.2568 4.19503 18.6801C4.26591 19.0751 4.33446 19.4705 4.40675 19.8653C4.4801 20.2661 4.55968 20.6656 4.6315 21.0666C4.70532 21.4784 4.77011 21.8919 4.8444 22.3036C4.95848 22.9354 5.08018 23.5658 5.19332 24.1976C5.28839 24.7286 5.37183 25.2617 5.46737 25.7925C5.58227 26.4301 5.70831 27.0658 5.82298 27.7034C5.93752 28.3412 6.04034 28.9811 6.155 29.6189C6.26955 30.2563 6.40005 30.8909 6.50955 31.5291C6.60978 32.1132 6.77879 32.6747 7.01774 33.2157C7.53473 34.3861 8.2916 35.3734 9.3298 36.1224C10.5541 37.0055 11.7991 37.8603 13.0366 38.725C14.4902 39.7406 15.9458 40.7532 17.3986 41.7701C17.4433 41.8015 17.4865 41.8623 17.4937 41.9145C17.52 42.1016 17.5328 42.2905 17.5467 42.4791C17.5787 42.9203 17.6062 43.3618 17.6395 43.8028C17.6957 44.5476 17.7551 45.292 17.8128 46.0367C17.8765 46.8557 17.9382 47.6748 18.0063 48.4934C18.0103 48.541 18.0544 48.5977 18.0959 48.6278C19.0027 49.2847 19.9115 49.9388 20.8204 50.5926C22.121 51.5282 23.4222 52.4629 24.7227 53.3985C25.8087 54.1799 26.8944 54.9617 27.9795 55.7445C28.8644 56.3829 29.7472 57.0241 30.6324 57.662C31.131 58.0213 31.6324 58.376 32.1429 58.7402Z" fill="#FBF8F7"/>
<path fill-rule="evenodd" clip-rule="evenodd" d="M32.1431 58.7402C31.6326 58.376 31.1312 58.0212 30.6328 57.6621C29.7475 57.0242 28.8647 56.3831 27.9799 55.7446C26.8948 54.9618 25.8091 54.18 24.7231 53.3986C23.4226 52.4629 22.1214 51.5282 20.8208 50.5927C19.9118 49.9389 19.0031 49.2847 18.0963 48.6279C18.0548 48.5978 18.0107 48.5412 18.0067 48.4935C17.9385 47.6749 17.8767 46.8559 17.8132 46.0368C17.7555 45.2921 17.6961 44.5477 17.6399 43.8029C17.6067 43.3618 17.5792 42.9203 17.5471 42.4793C17.5333 42.2908 17.5204 42.1017 17.4941 41.9146C17.4867 41.8624 17.4437 41.8015 17.399 41.7703C15.9462 40.7533 14.4906 39.7407 13.037 38.7251C11.7994 37.8604 10.5544 37.0058 9.3302 36.1225C8.29212 35.3735 7.53513 34.3863 7.01814 33.2159C6.77919 32.6749 6.6103 32.1133 6.50996 31.5292C6.40046 30.891 6.26995 30.2564 6.1554 29.619C6.04074 28.9813 5.93793 28.3413 5.82338 27.7035C5.70871 27.0659 5.58278 26.4302 5.46777 25.7926C5.37212 25.2618 5.28867 24.7287 5.19372 24.1978C5.08059 23.5659 4.95888 22.9355 4.8448 22.3037C4.77051 21.892 4.70573 21.4786 4.6319 21.0667C4.56008 20.6657 4.4805 20.2661 4.40715 19.8654C4.33486 19.4707 4.26632 19.0753 4.19543 18.6803C4.11961 18.2569 4.04203 17.8339 3.96716 17.4104C3.89627 17.0095 3.82949 16.6078 3.7579 16.207C3.68537 15.8006 3.60814 15.3949 3.53526 14.9886C3.46132 14.5766 3.39078 14.164 3.31731 13.7519C3.24572 13.3509 3.17167 12.9503 3.0996 12.5494C3.02461 12.132 2.95149 11.7143 2.87591 11.297C2.80244 10.8907 2.7258 10.485 2.65233 10.0787C2.58097 9.68363 2.51196 9.28823 2.44178 8.89295C2.36866 8.48077 2.29543 8.0687 2.22243 7.65641C2.14837 7.23859 2.07525 6.82054 1.99991 6.40308C1.9789 6.28677 1.95167 6.17164 1.91846 6.01355C2.16915 6.13878 2.38169 6.24159 2.5913 6.35015C3.84029 6.99635 5.08821 7.64432 6.33708 8.29087C8.06831 9.18706 9.79978 10.0829 11.5314 10.9781C12.791 11.6294 14.0509 12.2803 15.3113 12.9304C16.5461 13.5672 17.7824 14.2012 19.0163 14.8394C20.5597 15.6377 22.1009 16.4401 23.6442 17.2387C25.127 18.0059 26.6111 18.7706 28.0947 19.5363C29.4358 20.2284 30.7764 20.9213 32.1199 21.6088C32.1733 21.6361 32.2652 21.6352 32.3188 21.6079C33.3014 21.1055 34.2814 20.598 35.2608 20.0896C36.7167 19.334 38.1713 18.5757 39.6276 17.8208C40.6073 17.3131 41.5897 16.811 42.5692 16.3035C43.9399 15.5934 45.3091 14.8806 46.6787 14.1689C48.0535 13.4546 49.428 12.7397 50.8031 12.0259C51.9094 11.4516 53.0162 10.8787 54.123 10.3053C55.2549 9.71884 56.3871 9.13296 57.5188 8.54591C59.1169 7.71685 60.7147 6.88674 62.313 6.05768C62.332 6.04782 62.355 6.04571 62.3962 6.03468C62.3794 6.16871 62.3693 6.28959 62.3485 6.40883C62.2468 6.99084 62.1441 7.57273 62.038 8.15391C61.9197 8.80246 61.7935 9.44972 61.6781 10.0987C61.5837 10.6295 61.5046 11.1629 61.4108 11.6937C61.2969 12.3378 61.1714 12.9798 61.0569 13.6236C60.9416 14.2728 60.8365 14.9238 60.7216 15.5729C60.6077 16.2164 60.484 16.8583 60.3704 17.502C60.2549 18.1572 60.1498 18.8142 60.0342 19.4693C59.9403 19.9999 59.8343 20.5281 59.7394 21.0586C59.6445 21.5892 59.5588 22.1216 59.4648 22.6523C59.3919 23.0645 59.3098 23.475 59.2366 23.8872C59.1655 24.288 59.1018 24.6901 59.0323 25.0911C58.9639 25.4868 58.8917 25.8817 58.8222 26.2772C58.7438 26.7234 58.6685 27.1701 58.5885 27.6161C58.5166 28.0168 58.4382 28.4162 58.3659 28.8166C58.2925 29.2227 58.2188 29.6289 58.1526 30.0364C57.9502 31.2822 57.7371 32.5215 57.0844 33.6368C56.4834 34.6639 55.6826 35.4915 54.7087 36.1679C53.8413 36.7703 52.9899 37.3961 52.1312 38.0112C50.8334 38.9405 49.5351 39.8688 48.2374 40.7981C47.8174 41.099 47.3959 41.3982 46.9819 41.7072C46.9233 41.751 46.8762 41.844 46.8694 41.9184C46.7917 42.7649 46.7242 43.6123 46.6515 44.4592C46.5906 45.1684 46.5266 45.8774 46.4637 46.5864C46.4069 47.2272 46.3522 47.8681 46.2893 48.5083C46.283 48.5719 46.2408 48.6515 46.1898 48.6883C45.3047 49.3264 44.4149 49.9577 43.5275 50.5927C42.2341 51.5184 40.9427 52.4464 39.6492 53.3718C38.2908 54.3438 36.9307 55.3137 35.5721 56.2853C34.4323 57.1001 33.2937 57.9162 32.1431 58.7402ZM28.5409 29.564C28.5266 29.4725 28.512 29.4074 28.5068 29.3414C28.4017 28.0177 28.299 26.6938 28.193 25.3702C28.1269 24.545 28.0276 23.721 28.0013 22.8947C27.9902 22.5467 27.833 22.4143 27.5659 22.2799C26.5462 21.7673 25.5339 21.2394 24.5201 20.7149C23.5526 20.2143 22.587 19.71 21.6198 19.2087C20.5917 18.6759 19.5628 18.1445 18.534 17.6129C18.3652 17.5257 18.1949 17.4417 18.0101 17.3485C18.0101 17.4052 18.008 17.4336 18.0104 17.4614C18.1018 18.4981 18.1936 19.5349 18.2855 20.5716C18.3902 21.7517 18.4952 22.9315 18.5998 24.1116C18.725 25.5263 18.8492 26.9411 18.9755 28.3558C19.1064 29.8218 19.241 31.2876 19.3703 32.7538C19.4845 34.0484 19.5921 35.3435 19.7053 36.6383C19.803 37.7554 19.9055 38.8717 20.0036 39.9887C20.0746 40.7964 20.1396 41.6047 20.2116 42.4122C20.284 43.2256 20.3632 44.0382 20.4363 44.8513C20.5023 45.5843 20.5619 46.318 20.6311 47.0507C20.6371 47.1148 20.6781 47.1955 20.729 47.2326C21.8508 48.046 22.9763 48.8539 24.1008 49.6635C26.1678 51.1518 28.2344 52.6406 30.3014 54.1289C30.4711 54.2511 30.6432 54.3699 30.8599 54.5225C30.8599 54.2185 30.859 53.9677 30.86 53.7171C30.8645 52.5529 30.8712 51.3887 30.8741 50.2245C30.8764 49.2273 30.8688 48.2299 30.8766 47.2327C30.8813 46.6425 30.8257 46.0628 30.6819 45.4889C30.3491 44.1606 29.6848 43.0251 28.6508 42.1343C28.0735 41.637 27.4305 41.2147 26.8082 40.771C25.8582 40.0937 24.8997 39.428 23.9476 38.7532C23.8942 38.7155 23.8409 38.6429 23.8334 38.5809C23.7881 38.2099 23.755 37.8375 23.7199 37.4654C23.6392 36.6066 23.5593 35.7476 23.4799 34.8888C23.4537 34.6056 23.4304 34.3221 23.4026 34.0011C23.7048 34.1799 23.9742 34.339 24.2435 34.4988C26.8545 36.0477 29.4655 37.5966 32.0757 39.1467C32.1728 39.2043 32.2516 39.2086 32.3546 39.146C33.1102 38.6871 33.8698 38.2349 34.6285 37.7812C36.6482 36.573 38.6679 35.3651 40.6881 34.1576C40.769 34.1091 40.8529 34.0657 40.9501 34.0118C40.9501 34.0881 40.9543 34.1389 40.9495 34.189C40.8716 34.9961 40.7908 35.803 40.7142 36.6104C40.6516 37.2687 40.5952 37.9277 40.53 38.5856C40.5247 38.639 40.4834 38.7042 40.4388 38.736C39.3535 39.511 38.2642 40.2804 37.1781 41.0546C36.4995 41.5382 35.797 41.9907 35.2374 42.6242C34.1301 43.8775 33.5381 45.3417 33.5184 47.0067C33.4894 49.4563 33.5107 51.9065 33.5113 54.3564C33.5113 54.3975 33.522 54.4385 33.5301 54.4967C33.5799 54.4659 33.6093 54.4502 33.6361 54.4309C34.2515 53.987 34.8662 53.5417 35.4822 53.0985C37.0456 51.9737 38.6096 50.8501 40.1735 49.7257C41.3216 48.9003 42.4706 48.0757 43.6153 47.2451C43.6741 47.2025 43.7214 47.1103 43.7292 47.0364C43.7859 46.4932 43.8328 45.949 43.8801 45.405C43.9785 44.2766 44.0732 43.1479 44.1733 42.0195C44.2891 40.7137 44.4102 39.4084 44.5265 38.1026C44.647 36.7506 44.7653 35.3985 44.8835 34.0462C44.9821 32.9176 45.0772 31.7887 45.177 30.6603C45.3074 29.1882 45.4422 27.7164 45.573 26.2445C45.6534 25.3396 45.7284 24.4342 45.8092 23.5294C45.9055 22.4468 46.0063 21.3647 46.1035 20.2823C46.1785 19.4464 46.251 18.6103 46.3243 17.7742C46.336 17.6402 46.3453 17.5059 46.3573 17.3498C46.3087 17.3711 46.2884 17.3786 46.2691 17.3885C44.9136 18.0887 43.5579 18.7887 42.2027 19.4897C41.0872 20.0667 39.9727 20.6456 38.857 21.2223C38.0776 21.6253 37.296 22.0239 36.5189 22.4312C36.4602 22.4619 36.3964 22.5436 36.3911 22.6064C36.2967 23.718 36.2115 24.8303 36.1235 25.9424C36.0411 26.9851 35.9579 28.0279 35.8742 29.0705C35.8618 29.2264 35.8446 29.3819 35.8283 29.5498C35.7816 29.5304 35.7644 29.5269 35.7513 29.5175C34.6035 28.6913 33.4552 27.8655 32.3094 27.0362C32.2186 26.9704 32.156 26.9509 32.0537 27.0257C31.1157 27.7104 30.1732 28.3888 29.2317 29.0687C29.0099 29.229 28.7867 29.3878 28.5409 29.564ZM48.2177 26.4557C48.2932 26.4149 48.3322 26.3955 48.3694 26.3732C49.4542 25.7259 50.5383 25.0776 51.6236 24.4312C53.3696 23.3911 55.1167 22.3526 56.8614 21.3103C56.9071 21.283 56.9521 21.2231 56.9618 21.1716C57.1712 20.058 57.3785 18.9439 57.5801 17.8287C57.7786 16.73 57.9678 15.6296 58.1659 14.531C58.3447 13.5404 58.5307 12.5512 58.7125 11.5612C58.7513 11.3496 58.7859 11.1373 58.8271 10.8983C58.7574 10.9263 58.7147 10.9394 58.6756 10.9596C58.1512 11.2314 57.6276 11.5046 57.1034 11.7767C55.3479 12.688 53.5921 13.5993 51.8363 14.5102C50.9811 14.9538 50.1244 15.3947 49.2717 15.8431C49.2113 15.8749 49.1449 15.9564 49.1384 16.0204C49.0672 16.7412 49.0069 17.4631 48.9438 18.1846C48.8678 19.0552 48.793 19.9261 48.7157 20.7966C48.6436 21.6098 48.568 22.4227 48.4953 23.236C48.4414 23.8374 48.3887 24.4391 48.3367 25.0408C48.297 25.4986 48.2595 25.9563 48.2177 26.4557ZM16.1202 26.4604C16.1202 26.3933 16.1222 26.3659 16.1199 26.3391C16.0815 25.8924 16.0431 25.4456 16.0036 24.999C15.9049 23.8822 15.8053 22.7656 15.7066 21.6488C15.6018 20.4635 15.4982 19.278 15.3933 18.0927C15.3324 17.4054 15.2723 16.7181 15.2044 16.0314C15.1983 15.9702 15.15 15.891 15.0977 15.8605C14.88 15.7333 14.6537 15.6205 14.4298 15.504C13.5245 15.0335 12.6188 14.5638 11.7135 14.0936C10.7264 13.5808 9.73945 13.068 8.75254 12.5549C7.96397 12.145 7.17588 11.734 6.38696 11.3246C6.1067 11.1792 5.82455 11.0373 5.51706 10.8805C5.54593 11.0551 5.56694 11.1963 5.59288 11.3367C5.7532 12.2078 5.91621 13.0784 6.07512 13.9497C6.21749 14.7304 6.35492 15.5121 6.49611 16.2931C6.64657 17.1252 6.79973 17.9567 6.94984 18.7888C7.08973 19.5642 7.22364 20.3408 7.37094 21.1148C7.38643 21.1961 7.45849 21.2896 7.5309 21.3335C8.30609 21.8039 9.08703 22.2649 9.86573 22.7294C11.6156 23.7732 13.3652 24.8176 15.1149 25.8616C15.4384 26.0547 15.7621 26.2472 16.1202 26.4604ZM56.3163 24.8825C56.2441 24.9222 56.2 24.9451 56.1571 24.9704C55.2317 25.5139 54.3062 26.0571 53.3812 26.6012C51.6596 27.6137 49.9424 28.6339 48.2122 29.6318C47.9608 29.7767 47.8832 29.944 47.864 30.211C47.8039 31.0426 47.7205 31.8727 47.6466 32.7034C47.5708 33.5568 47.497 34.4104 47.4192 35.2635C47.3449 36.0767 47.2655 36.8895 47.1911 37.7026C47.1753 37.8748 47.1706 38.0481 47.1594 38.245C47.2105 38.2174 47.2308 38.2089 47.2485 38.1964C49.255 36.7727 51.2596 35.3467 53.2677 33.9256C54.362 33.1511 55.0456 32.1183 55.2783 30.7922C55.4184 29.993 55.565 29.1952 55.7073 28.3964C55.8697 27.4844 56.0314 26.5724 56.1914 25.66C56.2347 25.4125 56.2712 25.1639 56.3163 24.8825ZM8.02383 24.8711C8.03838 24.959 8.04648 25.0126 8.05611 25.0659C8.12723 25.462 8.20034 25.8576 8.26971 26.2538C8.36395 26.7922 8.4542 27.3312 8.54868 27.8696C8.70677 28.7702 8.87941 29.6687 9.02259 30.5717C9.17681 31.5446 9.54439 32.4118 10.199 33.1538C10.6228 33.6341 11.1564 33.9768 11.6711 34.3433C13.3051 35.5061 14.9399 36.6678 16.5749 37.8291C16.7687 37.9667 16.9655 38.0999 17.1862 38.2525C17.1862 38.1854 17.1886 38.153 17.1858 38.1212C17.132 37.5143 17.0775 36.9075 17.0232 36.3006C16.9198 35.1444 16.8174 33.988 16.7127 32.8318C16.6255 31.8699 16.5381 30.9081 16.4424 29.947C16.4354 29.8767 16.3762 29.7894 16.3153 29.7506C16.0544 29.5837 15.7838 29.4319 15.5166 29.2747C13.3065 27.9738 11.0965 26.6728 8.88622 25.3723C8.61123 25.2105 8.33437 25.0515 8.02383 24.8711Z" fill="#060505"/>
<path fill-rule="evenodd" clip-rule="evenodd" d="M28.5407 29.5639C28.7866 29.3878 29.0095 29.229 29.2315 29.0687C30.173 28.3888 31.1156 27.7104 32.0535 27.0257C32.1559 26.951 32.2184 26.9704 32.3092 27.0362C33.455 27.8655 34.6033 28.6912 35.7511 29.5175C35.7642 29.5269 35.7814 29.5305 35.8281 29.5497C35.8445 29.3818 35.8615 29.2263 35.874 29.0704C35.9577 28.0278 36.0409 26.9851 36.1233 25.9423C36.2113 24.8302 36.2967 23.7179 36.3909 22.6064C36.3962 22.5436 36.46 22.4619 36.5187 22.4312C37.2958 22.0239 38.0774 21.6252 38.8568 21.2223C39.9725 20.6456 41.087 20.0667 42.2025 19.4897C43.5578 18.7887 44.9135 18.0887 46.2689 17.3885C46.2882 17.3787 46.3085 17.371 46.3571 17.3498C46.345 17.506 46.3357 17.6403 46.3241 17.7742C46.2508 18.6103 46.1783 19.4464 46.1033 20.2822C46.0061 21.3648 45.9053 22.4469 45.809 23.5293C45.7282 24.4342 45.6532 25.3396 45.5728 26.2444C45.442 27.7164 45.3072 29.1882 45.1769 30.6602C45.077 31.7887 44.9819 32.9176 44.8833 34.0462C44.7651 35.3983 44.6468 36.7506 44.5263 38.1026C44.41 39.4084 44.289 40.7137 44.1732 42.0195C44.073 43.1477 43.9783 44.2764 43.8799 45.405C43.8326 45.9491 43.7857 46.4932 43.7291 47.0363C43.7213 47.1103 43.6739 47.2025 43.6151 47.2451C42.4704 48.0757 41.3215 48.9003 40.1733 49.7257C38.6095 50.8501 37.0455 51.9737 35.482 53.0985C34.866 53.5416 34.2514 53.9868 33.6359 54.4308C33.609 54.4502 33.5797 54.4659 33.5299 54.4967C33.5218 54.4385 33.5111 54.3974 33.5111 54.3564C33.5104 51.9065 33.4891 49.4563 33.5182 47.0066C33.5379 45.3417 34.13 43.8775 35.2372 42.6242C35.7969 41.9906 36.4993 41.5382 37.1779 41.0546C38.264 40.2804 39.3533 39.511 40.4387 38.736C40.4832 38.7042 40.5246 38.639 40.5298 38.5856C40.5951 37.9276 40.6514 37.2686 40.714 36.6103C40.7906 35.8031 40.8714 34.9961 40.9493 34.189C40.9541 34.1389 40.9499 34.0881 40.9499 34.0118C40.8527 34.0657 40.7688 34.1092 40.6879 34.1576C38.6677 35.3651 36.648 36.5731 34.6283 37.7812C33.8696 38.2349 33.1099 38.6871 32.3544 39.146C32.2514 39.2085 32.1726 39.2043 32.0756 39.1467C29.4653 37.5965 26.8543 36.0477 24.2433 34.4987C23.9742 34.339 23.7046 34.18 23.4024 34.0011C23.4302 34.3221 23.4536 34.6055 23.4797 34.8887C23.5591 35.7476 23.639 36.6066 23.7197 37.4653C23.7547 37.8375 23.7879 38.2099 23.8332 38.5809C23.8407 38.6427 23.8941 38.7154 23.9474 38.7532C24.8994 39.428 25.8579 40.0937 26.808 40.771C27.4303 41.2146 28.0733 41.637 28.6506 42.1343C29.6846 43.0251 30.3489 44.1606 30.6817 45.4889C30.8255 46.0629 30.8811 46.6425 30.8764 47.2327C30.8686 48.2299 30.8762 49.2273 30.8739 50.2245C30.8711 51.3886 30.8644 52.5529 30.8598 53.717C30.8588 53.9678 30.8597 54.2185 30.8597 54.5225C30.643 54.3698 30.471 54.251 30.3012 54.1289C28.2341 52.6406 26.1675 51.1518 24.1006 49.6635C22.9761 48.854 21.8506 48.046 20.7288 47.2326C20.6779 47.1956 20.6369 47.1147 20.631 47.0507C20.5618 46.318 20.5021 45.5843 20.4361 44.8513C20.363 44.0381 20.2838 43.2254 20.2114 42.4122C20.1394 41.6045 20.0744 40.7962 20.0034 39.9887C19.9053 38.8717 19.8027 37.7553 19.7051 36.6383C19.5919 35.3436 19.4842 34.0484 19.3701 32.7538C19.2408 31.2876 19.1062 29.8218 18.9753 28.3558C18.8491 26.9411 18.725 25.5263 18.5996 24.1116C18.4951 22.9315 18.39 21.7516 18.2853 20.5716C18.1934 19.5349 18.1017 18.4982 18.0102 17.4614C18.0078 17.4335 18.0099 17.4052 18.0099 17.3485C18.1947 17.4417 18.365 17.5257 18.5338 17.6129C19.5627 18.1444 20.5915 18.6759 21.6196 19.2087C22.5868 19.71 23.5524 20.2142 24.5199 20.7149C25.5337 21.2394 26.546 21.7673 27.5657 22.2799C27.8329 22.4143 27.9901 22.5465 28.0012 22.8946C28.0274 23.7211 28.1267 24.545 28.1928 25.3702C28.2988 26.6938 28.4016 28.0178 28.5066 29.3414C28.5119 29.4074 28.5265 29.4725 28.5407 29.5639Z" fill="#FDFDFD"/>
<path fill-rule="evenodd" clip-rule="evenodd" d="M48.2178 26.4557C48.2596 25.9563 48.2972 25.4986 48.3368 25.0409C48.3887 24.4391 48.4415 23.8375 48.4953 23.2361C48.5681 22.4228 48.6437 21.6099 48.7157 20.7966C48.7931 19.9262 48.8679 19.0554 48.9439 18.1847C49.0069 17.4632 49.0673 16.7413 49.1385 16.0205C49.1449 15.9565 49.2114 15.875 49.2718 15.8432C50.1245 15.3948 50.9811 14.9539 51.8363 14.5103C53.5922 13.5994 55.348 12.6881 57.1035 11.7768C57.6278 11.5047 58.1514 11.2315 58.6757 10.9597C58.7148 10.9395 58.7575 10.9263 58.8272 10.8984C58.786 11.1374 58.7514 11.3497 58.7125 11.5613C58.5307 12.5513 58.3447 13.5405 58.166 14.5311C57.9679 15.6297 57.7787 16.7301 57.5802 17.8288C57.3786 18.9439 57.1714 20.0581 56.9618 21.1717C56.9522 21.2231 56.907 21.2831 56.8615 21.3103C55.1168 22.3527 53.3697 23.3912 51.6237 24.4313C50.5385 25.0777 49.4544 25.726 48.3695 26.3733C48.3322 26.3955 48.2931 26.4148 48.2178 26.4557Z" fill="#FDFDFD"/>
<path fill-rule="evenodd" clip-rule="evenodd" d="M16.1199 26.4604C15.7619 26.2471 15.4382 26.0547 15.1147 25.8616C13.365 24.8175 11.6154 23.7732 9.86552 22.7294C9.08681 22.2649 8.30588 21.8039 7.53069 21.3335C7.45828 21.2896 7.38621 21.1962 7.37072 21.1148C7.22343 20.3408 7.08952 19.5642 6.94962 18.7888C6.79951 17.9567 6.64635 17.1252 6.49589 16.2931C6.3547 15.5121 6.21727 14.7305 6.07491 13.9497C5.916 13.0784 5.75286 12.2078 5.59266 11.3367C5.56684 11.1963 5.54572 11.0551 5.51685 10.8805C5.82434 11.0373 6.10648 11.1792 6.38675 11.3246C7.17566 11.734 7.96376 12.145 8.75233 12.5549C9.73924 13.068 10.7261 13.5809 11.7133 14.0936C12.6186 14.5638 13.5243 15.0335 14.4296 15.504C14.6536 15.6205 14.8798 15.7332 15.0975 15.8605C15.1497 15.891 15.1979 15.9702 15.2042 16.0313C15.2722 16.718 15.3323 17.4054 15.3931 18.0927C15.498 19.2781 15.6017 20.4635 15.7064 21.6488C15.8051 22.7656 15.9046 23.8822 16.0034 24.999C16.0428 25.4456 16.0813 25.8924 16.1197 26.339C16.1219 26.3659 16.1199 26.3933 16.1199 26.4604Z" fill="#FDFDFD"/>
<path fill-rule="evenodd" clip-rule="evenodd" d="M56.316 24.8824C56.2709 25.1639 56.2346 25.4125 56.1911 25.66C56.0312 26.5724 55.8694 27.4845 55.707 28.3964C55.5648 29.1952 55.4182 29.993 55.278 30.7922C55.0454 32.1181 54.3618 33.1511 53.2675 33.9255C51.2594 35.3467 49.2547 36.7727 47.2483 38.1964C47.2307 38.2089 47.2102 38.2174 47.1592 38.245C47.1703 38.0481 47.175 37.8748 47.1909 37.7025C47.2654 36.8893 47.3447 36.0766 47.4189 35.2635C47.4967 34.4103 47.5705 33.5568 47.6464 32.7034C47.7203 31.8726 47.8036 31.0426 47.8637 30.211C47.883 29.944 47.9605 29.7769 48.2119 29.6318C49.9421 28.634 51.6594 27.6139 53.381 26.6012C54.306 26.0571 55.2316 25.5139 56.1569 24.9704C56.1996 24.9451 56.2437 24.9222 56.316 24.8824Z" fill="#FCFCFC"/>
<path fill-rule="evenodd" clip-rule="evenodd" d="M8.02368 24.8711C8.33423 25.0515 8.61109 25.2105 8.8863 25.3724C11.0966 26.6729 13.3066 27.974 15.5166 29.2747C15.7838 29.432 16.0545 29.5837 16.3154 29.7506C16.3763 29.7896 16.4355 29.8768 16.4425 29.9471C16.5382 30.908 16.6257 31.87 16.7128 32.8319C16.8175 33.9881 16.9198 35.1444 17.0232 36.3007C17.0775 36.9076 17.132 37.5143 17.1859 38.1212C17.1887 38.153 17.1863 38.1854 17.1863 38.2525C16.9656 38.0998 16.7688 37.9666 16.575 37.8291C14.9399 36.6677 13.3052 35.5061 11.6712 34.3433C11.1564 33.9769 10.6228 33.6342 10.1991 33.1538C9.54448 32.4118 9.1769 31.5446 9.02268 30.5717C8.8795 29.6687 8.70686 28.7703 8.54877 27.8696C8.45429 27.3314 8.36404 26.7922 8.26979 26.2539C8.20031 25.8577 8.12731 25.4619 8.05619 25.0659C8.04633 25.0126 8.03823 24.9589 8.02368 24.8711Z" fill="#FCFCFC"/>
</svg>
