<svg width="1025" height="1024" viewBox="0 0 1025 1024" fill="none" xmlns="http://www.w3.org/2000/svg">
<rect x="20.9902" width="1003.51" height="1024" fill="white"/>
<rect width="14.9927" height="1024" transform="matrix(-1 0 0 1 20.9902 0)" fill="url(#paint0_linear_551_4589)"/>
<ellipse cx="11.7459" cy="8.34489" rx="3.67168" ry="3.67168" fill="white"/>
<circle cx="19.5616" cy="14.7091" r="4.71198" fill="white"/>
<circle cx="19.5616" cy="14.7091" r="4.71198" fill="white"/>
<circle cx="7.01678" cy="14.709" r="2.69256" fill="white"/>
<circle cx="2.49014" cy="9.00259" r="1.83584" fill="white"/>
<ellipse cx="11.7459" cy="23.7659" rx="3.67168" ry="3.67168" fill="white"/>
<circle cx="19.5616" cy="30.1301" r="4.71198" fill="white"/>
<circle cx="19.5616" cy="30.1301" r="4.71198" fill="white"/>
<circle cx="7.01678" cy="30.1301" r="2.69256" fill="white"/>
<circle cx="2.49014" cy="24.4236" r="1.83584" fill="white"/>
<ellipse cx="11.7459" cy="39.1869" rx="3.67168" ry="3.67168" fill="white"/>
<circle cx="19.5616" cy="45.5511" r="4.71198" fill="white"/>
<circle cx="19.5616" cy="45.5511" r="4.71198" fill="white"/>
<circle cx="7.01678" cy="45.5511" r="2.69256" fill="white"/>
<circle cx="2.49014" cy="39.8446" r="1.83584" fill="white"/>
<ellipse cx="11.7459" cy="54.6081" rx="3.67168" ry="3.67168" fill="white"/>
<circle cx="19.5616" cy="60.9722" r="4.71198" fill="white"/>
<circle cx="19.5616" cy="60.9722" r="4.71198" fill="white"/>
<circle cx="7.01678" cy="60.9722" r="2.69256" fill="white"/>
<circle cx="2.49014" cy="55.2658" r="1.83584" fill="white"/>
<ellipse cx="11.7459" cy="70.0291" rx="3.67168" ry="3.67168" fill="white"/>
<circle cx="19.5616" cy="76.3933" r="4.71198" fill="white"/>
<circle cx="19.5616" cy="76.3933" r="4.71198" fill="white"/>
<circle cx="7.01678" cy="76.3932" r="2.69256" fill="white"/>
<circle cx="2.49014" cy="70.6868" r="1.83584" fill="white"/>
<ellipse cx="11.7459" cy="85.4501" rx="3.67168" ry="3.67168" fill="white"/>
<circle cx="19.5616" cy="91.8143" r="4.71198" fill="white"/>
<circle cx="19.5616" cy="91.8143" r="4.71198" fill="white"/>
<circle cx="7.01678" cy="91.8143" r="2.69256" fill="white"/>
<circle cx="2.49014" cy="86.1078" r="1.83584" fill="white"/>
<ellipse cx="11.7459" cy="100.871" rx="3.67168" ry="3.67168" fill="white"/>
<circle cx="19.5616" cy="107.235" r="4.71198" fill="white"/>
<circle cx="19.5616" cy="107.235" r="4.71198" fill="white"/>
<circle cx="7.01678" cy="107.235" r="2.69256" fill="white"/>
<circle cx="2.49014" cy="101.529" r="1.83584" fill="white"/>
<ellipse cx="11.7459" cy="116.292" rx="3.67168" ry="3.67168" fill="white"/>
<circle cx="19.5616" cy="122.656" r="4.71198" fill="white"/>
<circle cx="19.5616" cy="122.656" r="4.71198" fill="white"/>
<circle cx="7.01678" cy="122.656" r="2.69256" fill="white"/>
<circle cx="2.49014" cy="116.95" r="1.83584" fill="white"/>
<ellipse cx="11.7459" cy="131.713" rx="3.67168" ry="3.67168" fill="white"/>
<circle cx="19.5616" cy="138.077" r="4.71198" fill="white"/>
<circle cx="19.5616" cy="138.077" r="4.71198" fill="white"/>
<circle cx="7.01678" cy="138.077" r="2.69256" fill="white"/>
<circle cx="2.49014" cy="132.371" r="1.83584" fill="white"/>
<ellipse cx="11.7459" cy="147.134" rx="3.67168" ry="3.67168" fill="white"/>
<circle cx="19.5616" cy="153.498" r="4.71198" fill="white"/>
<circle cx="19.5616" cy="153.498" r="4.71198" fill="white"/>
<circle cx="7.01678" cy="153.498" r="2.69256" fill="white"/>
<circle cx="2.49014" cy="147.792" r="1.83584" fill="white"/>
<ellipse cx="11.7459" cy="162.555" rx="3.67168" ry="3.67168" fill="white"/>
<circle cx="19.5616" cy="168.92" r="4.71198" fill="white"/>
<circle cx="19.5616" cy="168.92" r="4.71198" fill="white"/>
<circle cx="7.01678" cy="168.919" r="2.69256" fill="white"/>
<circle cx="2.49014" cy="163.213" r="1.83584" fill="white"/>
<ellipse cx="11.7459" cy="177.976" rx="3.67168" ry="3.67168" fill="white"/>
<circle cx="19.5616" cy="184.341" r="4.71198" fill="white"/>
<circle cx="19.5616" cy="184.341" r="4.71198" fill="white"/>
<circle cx="7.01678" cy="184.341" r="2.69256" fill="white"/>
<circle cx="2.49014" cy="178.634" r="1.83584" fill="white"/>
<ellipse cx="11.7459" cy="193.397" rx="3.67168" ry="3.67168" fill="white"/>
<circle cx="19.5616" cy="199.762" r="4.71198" fill="white"/>
<circle cx="19.5616" cy="199.762" r="4.71198" fill="white"/>
<circle cx="7.01678" cy="199.762" r="2.69256" fill="white"/>
<circle cx="2.49014" cy="194.055" r="1.83584" fill="white"/>
<ellipse cx="11.7459" cy="208.818" rx="3.67168" ry="3.67168" fill="white"/>
<circle cx="19.5616" cy="215.183" r="4.71198" fill="white"/>
<circle cx="19.5616" cy="215.183" r="4.71198" fill="white"/>
<circle cx="7.01678" cy="215.183" r="2.69256" fill="white"/>
<circle cx="2.49014" cy="209.476" r="1.83584" fill="white"/>
<ellipse cx="11.7459" cy="224.239" rx="3.67168" ry="3.67168" fill="white"/>
<circle cx="19.5616" cy="230.604" r="4.71198" fill="white"/>
<circle cx="19.5616" cy="230.604" r="4.71198" fill="white"/>
<circle cx="7.01678" cy="230.604" r="2.69256" fill="white"/>
<circle cx="2.49014" cy="224.897" r="1.83584" fill="white"/>
<ellipse cx="11.7459" cy="239.66" rx="3.67168" ry="3.67168" fill="white"/>
<circle cx="19.5616" cy="246.025" r="4.71198" fill="white"/>
<circle cx="19.5616" cy="246.025" r="4.71198" fill="white"/>
<circle cx="7.01678" cy="246.025" r="2.69256" fill="white"/>
<circle cx="2.49014" cy="240.318" r="1.83584" fill="white"/>
<ellipse cx="11.7459" cy="255.081" rx="3.67168" ry="3.67168" fill="white"/>
<circle cx="19.5616" cy="261.446" r="4.71198" fill="white"/>
<circle cx="19.5616" cy="261.446" r="4.71198" fill="white"/>
<circle cx="7.01678" cy="261.446" r="2.69256" fill="white"/>
<circle cx="2.49014" cy="255.739" r="1.83584" fill="white"/>
<ellipse cx="11.7459" cy="270.503" rx="3.67168" ry="3.67168" fill="white"/>
<circle cx="19.5616" cy="276.867" r="4.71198" fill="white"/>
<circle cx="19.5616" cy="276.867" r="4.71198" fill="white"/>
<circle cx="7.01678" cy="276.867" r="2.69256" fill="white"/>
<circle cx="2.49014" cy="271.16" r="1.83584" fill="white"/>
<ellipse cx="11.7459" cy="285.924" rx="3.67168" ry="3.67168" fill="white"/>
<circle cx="19.5616" cy="292.288" r="4.71198" fill="white"/>
<circle cx="19.5616" cy="292.288" r="4.71198" fill="white"/>
<circle cx="7.01678" cy="292.288" r="2.69256" fill="white"/>
<circle cx="2.49014" cy="286.581" r="1.83584" fill="white"/>
<ellipse cx="11.7459" cy="301.345" rx="3.67168" ry="3.67168" fill="white"/>
<circle cx="19.5616" cy="307.709" r="4.71198" fill="white"/>
<circle cx="19.5616" cy="307.709" r="4.71198" fill="white"/>
<circle cx="7.01678" cy="307.709" r="2.69256" fill="white"/>
<circle cx="2.49014" cy="302.002" r="1.83584" fill="white"/>
<ellipse cx="11.7459" cy="316.766" rx="3.67168" ry="3.67168" fill="white"/>
<circle cx="19.5616" cy="323.13" r="4.71198" fill="white"/>
<circle cx="19.5616" cy="323.13" r="4.71198" fill="white"/>
<circle cx="7.01678" cy="323.13" r="2.69256" fill="white"/>
<circle cx="2.49014" cy="317.423" r="1.83584" fill="white"/>
<ellipse cx="11.7459" cy="332.187" rx="3.67168" ry="3.67168" fill="white"/>
<circle cx="19.5616" cy="338.551" r="4.71198" fill="white"/>
<circle cx="19.5616" cy="338.551" r="4.71198" fill="white"/>
<circle cx="7.01678" cy="338.551" r="2.69256" fill="white"/>
<circle cx="2.49014" cy="332.845" r="1.83584" fill="white"/>
<ellipse cx="11.7459" cy="347.608" rx="3.67168" ry="3.67168" fill="white"/>
<circle cx="19.5616" cy="353.972" r="4.71198" fill="white"/>
<circle cx="19.5616" cy="353.972" r="4.71198" fill="white"/>
<circle cx="7.01678" cy="353.972" r="2.69256" fill="white"/>
<circle cx="2.49014" cy="348.266" r="1.83584" fill="white"/>
<ellipse cx="11.7459" cy="363.029" rx="3.67168" ry="3.67168" fill="white"/>
<circle cx="19.5616" cy="369.393" r="4.71198" fill="white"/>
<circle cx="19.5616" cy="369.393" r="4.71198" fill="white"/>
<circle cx="7.01678" cy="369.393" r="2.69256" fill="white"/>
<circle cx="2.49014" cy="363.687" r="1.83584" fill="white"/>
<ellipse cx="11.7459" cy="378.45" rx="3.67168" ry="3.67168" fill="white"/>
<circle cx="19.5616" cy="384.814" r="4.71198" fill="white"/>
<circle cx="19.5616" cy="384.814" r="4.71198" fill="white"/>
<circle cx="7.01678" cy="384.814" r="2.69256" fill="white"/>
<circle cx="2.49014" cy="379.108" r="1.83584" fill="white"/>
<ellipse cx="11.7459" cy="393.871" rx="3.67168" ry="3.67168" fill="white"/>
<circle cx="19.5616" cy="400.235" r="4.71198" fill="white"/>
<circle cx="19.5616" cy="400.235" r="4.71198" fill="white"/>
<circle cx="7.01678" cy="400.235" r="2.69256" fill="white"/>
<circle cx="2.49014" cy="394.529" r="1.83584" fill="white"/>
<ellipse cx="11.7459" cy="409.292" rx="3.67168" ry="3.67168" fill="white"/>
<circle cx="19.5616" cy="415.656" r="4.71198" fill="white"/>
<circle cx="19.5616" cy="415.656" r="4.71198" fill="white"/>
<circle cx="7.01678" cy="415.656" r="2.69256" fill="white"/>
<circle cx="2.49014" cy="409.95" r="1.83584" fill="white"/>
<ellipse cx="11.7459" cy="424.713" rx="3.67168" ry="3.67168" fill="white"/>
<circle cx="19.5616" cy="431.077" r="4.71198" fill="white"/>
<circle cx="19.5616" cy="431.077" r="4.71198" fill="white"/>
<circle cx="7.01678" cy="431.077" r="2.69256" fill="white"/>
<circle cx="2.49014" cy="425.371" r="1.83584" fill="white"/>
<ellipse cx="11.7459" cy="440.134" rx="3.67168" ry="3.67168" fill="white"/>
<circle cx="19.5616" cy="446.498" r="4.71198" fill="white"/>
<circle cx="19.5616" cy="446.498" r="4.71198" fill="white"/>
<circle cx="7.01678" cy="446.498" r="2.69256" fill="white"/>
<circle cx="2.49014" cy="440.792" r="1.83584" fill="white"/>
<ellipse cx="11.7459" cy="455.555" rx="3.67168" ry="3.67168" fill="white"/>
<circle cx="19.5616" cy="461.919" r="4.71198" fill="white"/>
<circle cx="19.5616" cy="461.919" r="4.71198" fill="white"/>
<circle cx="7.01678" cy="461.919" r="2.69256" fill="white"/>
<circle cx="2.49014" cy="456.213" r="1.83584" fill="white"/>
<ellipse cx="11.7459" cy="470.976" rx="3.67168" ry="3.67168" fill="white"/>
<circle cx="19.5616" cy="477.34" r="4.71198" fill="white"/>
<circle cx="19.5616" cy="477.34" r="4.71198" fill="white"/>
<circle cx="7.01678" cy="477.34" r="2.69256" fill="white"/>
<circle cx="2.49014" cy="471.634" r="1.83584" fill="white"/>
<ellipse cx="11.7459" cy="486.397" rx="3.67168" ry="3.67168" fill="white"/>
<circle cx="19.5616" cy="492.761" r="4.71198" fill="white"/>
<circle cx="19.5616" cy="492.761" r="4.71198" fill="white"/>
<circle cx="7.01678" cy="492.761" r="2.69256" fill="white"/>
<circle cx="2.49014" cy="487.055" r="1.83584" fill="white"/>
<ellipse cx="11.7459" cy="501.818" rx="3.67168" ry="3.67168" fill="white"/>
<circle cx="19.5616" cy="508.182" r="4.71198" fill="white"/>
<circle cx="19.5616" cy="508.182" r="4.71198" fill="white"/>
<circle cx="7.01678" cy="508.182" r="2.69256" fill="white"/>
<circle cx="2.49014" cy="502.476" r="1.83584" fill="white"/>
<ellipse cx="11.7459" cy="517.239" rx="3.67168" ry="3.67168" fill="white"/>
<circle cx="19.5616" cy="523.604" r="4.71198" fill="white"/>
<circle cx="19.5616" cy="523.604" r="4.71198" fill="white"/>
<circle cx="7.01678" cy="523.604" r="2.69256" fill="white"/>
<circle cx="2.49014" cy="517.897" r="1.83584" fill="white"/>
<ellipse cx="11.7459" cy="532.66" rx="3.67168" ry="3.67168" fill="white"/>
<circle cx="19.5616" cy="539.025" r="4.71198" fill="white"/>
<circle cx="19.5616" cy="539.025" r="4.71198" fill="white"/>
<circle cx="7.01678" cy="539.025" r="2.69256" fill="white"/>
<circle cx="2.49014" cy="533.318" r="1.83584" fill="white"/>
<ellipse cx="11.7459" cy="548.081" rx="3.67168" ry="3.67168" fill="white"/>
<circle cx="19.5616" cy="554.446" r="4.71198" fill="white"/>
<circle cx="19.5616" cy="554.446" r="4.71198" fill="white"/>
<circle cx="7.01678" cy="554.446" r="2.69256" fill="white"/>
<circle cx="2.49014" cy="548.739" r="1.83584" fill="white"/>
<ellipse cx="11.7459" cy="563.503" rx="3.67168" ry="3.67168" fill="white"/>
<circle cx="19.5616" cy="569.867" r="4.71198" fill="white"/>
<circle cx="19.5616" cy="569.867" r="4.71198" fill="white"/>
<circle cx="7.01678" cy="569.867" r="2.69256" fill="white"/>
<circle cx="2.49014" cy="564.16" r="1.83584" fill="white"/>
<ellipse cx="11.7459" cy="578.924" rx="3.67168" ry="3.67168" fill="white"/>
<circle cx="19.5616" cy="585.288" r="4.71198" fill="white"/>
<circle cx="19.5616" cy="585.288" r="4.71198" fill="white"/>
<circle cx="7.01678" cy="585.288" r="2.69256" fill="white"/>
<circle cx="2.49014" cy="579.581" r="1.83584" fill="white"/>
<ellipse cx="11.7459" cy="594.345" rx="3.67168" ry="3.67168" fill="white"/>
<circle cx="19.5616" cy="600.709" r="4.71198" fill="white"/>
<circle cx="19.5616" cy="600.709" r="4.71198" fill="white"/>
<circle cx="7.01678" cy="600.709" r="2.69256" fill="white"/>
<circle cx="2.49014" cy="595.002" r="1.83584" fill="white"/>
<ellipse cx="11.7459" cy="609.766" rx="3.67168" ry="3.67168" fill="white"/>
<circle cx="19.5616" cy="616.13" r="4.71198" fill="white"/>
<circle cx="19.5616" cy="616.13" r="4.71198" fill="white"/>
<circle cx="7.01678" cy="616.13" r="2.69256" fill="white"/>
<circle cx="2.49014" cy="610.423" r="1.83584" fill="white"/>
<ellipse cx="11.7459" cy="625.187" rx="3.67168" ry="3.67168" fill="white"/>
<circle cx="19.5616" cy="631.551" r="4.71198" fill="white"/>
<circle cx="19.5616" cy="631.551" r="4.71198" fill="white"/>
<circle cx="7.01678" cy="631.551" r="2.69256" fill="white"/>
<circle cx="2.49014" cy="625.844" r="1.83584" fill="white"/>
<ellipse cx="11.7459" cy="640.608" rx="3.67168" ry="3.67168" fill="white"/>
<circle cx="19.5616" cy="646.972" r="4.71198" fill="white"/>
<circle cx="19.5616" cy="646.972" r="4.71198" fill="white"/>
<circle cx="7.01678" cy="646.972" r="2.69256" fill="white"/>
<circle cx="2.49014" cy="641.265" r="1.83584" fill="white"/>
<ellipse cx="11.7459" cy="656.029" rx="3.67168" ry="3.67168" fill="white"/>
<circle cx="19.5616" cy="662.393" r="4.71198" fill="white"/>
<circle cx="19.5616" cy="662.393" r="4.71198" fill="white"/>
<circle cx="7.01678" cy="662.393" r="2.69256" fill="white"/>
<circle cx="2.49014" cy="656.686" r="1.83584" fill="white"/>
<ellipse cx="11.7459" cy="671.45" rx="3.67168" ry="3.67168" fill="white"/>
<circle cx="19.5616" cy="677.814" r="4.71198" fill="white"/>
<circle cx="19.5616" cy="677.814" r="4.71198" fill="white"/>
<circle cx="7.01678" cy="677.814" r="2.69256" fill="white"/>
<circle cx="2.49014" cy="672.107" r="1.83584" fill="white"/>
<ellipse cx="11.7459" cy="686.871" rx="3.67168" ry="3.67168" fill="white"/>
<circle cx="19.5616" cy="693.235" r="4.71198" fill="white"/>
<circle cx="19.5616" cy="693.235" r="4.71198" fill="white"/>
<circle cx="7.01678" cy="693.235" r="2.69256" fill="white"/>
<circle cx="2.49014" cy="687.528" r="1.83584" fill="white"/>
<ellipse cx="11.7459" cy="702.292" rx="3.67168" ry="3.67168" fill="white"/>
<circle cx="19.5616" cy="708.656" r="4.71198" fill="white"/>
<circle cx="19.5616" cy="708.656" r="4.71198" fill="white"/>
<circle cx="7.01678" cy="708.656" r="2.69256" fill="white"/>
<circle cx="2.49014" cy="702.949" r="1.83584" fill="white"/>
<ellipse cx="11.7459" cy="717.713" rx="3.67168" ry="3.67168" fill="white"/>
<circle cx="19.5616" cy="724.077" r="4.71198" fill="white"/>
<circle cx="19.5616" cy="724.077" r="4.71198" fill="white"/>
<circle cx="7.01678" cy="724.077" r="2.69256" fill="white"/>
<circle cx="2.49014" cy="718.37" r="1.83584" fill="white"/>
<ellipse cx="11.7459" cy="733.134" rx="3.67168" ry="3.67168" fill="white"/>
<circle cx="19.5616" cy="739.498" r="4.71198" fill="white"/>
<circle cx="19.5616" cy="739.498" r="4.71198" fill="white"/>
<circle cx="7.01678" cy="739.498" r="2.69256" fill="white"/>
<circle cx="2.49014" cy="733.791" r="1.83584" fill="white"/>
<ellipse cx="11.7459" cy="748.555" rx="3.67168" ry="3.67168" fill="white"/>
<circle cx="19.5616" cy="754.919" r="4.71198" fill="white"/>
<circle cx="19.5616" cy="754.919" r="4.71198" fill="white"/>
<circle cx="7.01678" cy="754.919" r="2.69256" fill="white"/>
<circle cx="2.49014" cy="749.212" r="1.83584" fill="white"/>
<ellipse cx="11.7459" cy="763.976" rx="3.67168" ry="3.67168" fill="white"/>
<circle cx="19.5616" cy="770.34" r="4.71198" fill="white"/>
<circle cx="19.5616" cy="770.34" r="4.71198" fill="white"/>
<circle cx="7.01678" cy="770.34" r="2.69256" fill="white"/>
<circle cx="2.49014" cy="764.633" r="1.83584" fill="white"/>
<ellipse cx="11.7459" cy="779.397" rx="3.67168" ry="3.67168" fill="white"/>
<circle cx="19.5616" cy="785.761" r="4.71198" fill="white"/>
<circle cx="19.5616" cy="785.761" r="4.71198" fill="white"/>
<circle cx="7.01678" cy="785.761" r="2.69256" fill="white"/>
<circle cx="2.49014" cy="780.054" r="1.83584" fill="white"/>
<ellipse cx="11.7459" cy="794.818" rx="3.67168" ry="3.67168" fill="white"/>
<circle cx="19.5616" cy="801.182" r="4.71198" fill="white"/>
<circle cx="19.5616" cy="801.182" r="4.71198" fill="white"/>
<circle cx="7.01678" cy="801.182" r="2.69256" fill="white"/>
<circle cx="2.49014" cy="795.475" r="1.83584" fill="white"/>
<ellipse cx="11.7459" cy="810.239" rx="3.67168" ry="3.67168" fill="white"/>
<circle cx="19.5616" cy="816.603" r="4.71198" fill="white"/>
<circle cx="19.5616" cy="816.603" r="4.71198" fill="white"/>
<circle cx="7.01678" cy="816.603" r="2.69256" fill="white"/>
<circle cx="2.49014" cy="810.897" r="1.83584" fill="white"/>
<ellipse cx="11.7459" cy="825.66" rx="3.67168" ry="3.67168" fill="white"/>
<circle cx="19.5616" cy="832.024" r="4.71198" fill="white"/>
<circle cx="19.5616" cy="832.024" r="4.71198" fill="white"/>
<circle cx="7.01678" cy="832.024" r="2.69256" fill="white"/>
<circle cx="2.49014" cy="826.318" r="1.83584" fill="white"/>
<ellipse cx="11.7459" cy="841.081" rx="3.67168" ry="3.67168" fill="white"/>
<circle cx="19.5616" cy="847.445" r="4.71198" fill="white"/>
<circle cx="19.5616" cy="847.445" r="4.71198" fill="white"/>
<circle cx="7.01678" cy="847.445" r="2.69256" fill="white"/>
<circle cx="2.49014" cy="841.738" r="1.83584" fill="white"/>
<ellipse cx="11.7459" cy="856.502" rx="3.67168" ry="3.67168" fill="white"/>
<circle cx="19.5616" cy="862.866" r="4.71198" fill="white"/>
<circle cx="19.5616" cy="862.866" r="4.71198" fill="white"/>
<circle cx="7.01678" cy="862.866" r="2.69256" fill="white"/>
<circle cx="2.49014" cy="857.16" r="1.83584" fill="white"/>
<ellipse cx="11.7459" cy="871.923" rx="3.67168" ry="3.67168" fill="white"/>
<circle cx="19.5616" cy="878.287" r="4.71198" fill="white"/>
<circle cx="19.5616" cy="878.287" r="4.71198" fill="white"/>
<circle cx="7.01678" cy="878.287" r="2.69256" fill="white"/>
<circle cx="2.49014" cy="872.581" r="1.83584" fill="white"/>
<ellipse cx="11.7459" cy="887.344" rx="3.67168" ry="3.67168" fill="white"/>
<circle cx="19.5616" cy="893.708" r="4.71198" fill="white"/>
<circle cx="19.5616" cy="893.708" r="4.71198" fill="white"/>
<circle cx="7.01678" cy="893.708" r="2.69256" fill="white"/>
<circle cx="2.49014" cy="888.002" r="1.83584" fill="white"/>
<ellipse cx="11.7459" cy="902.765" rx="3.67168" ry="3.67168" fill="white"/>
<circle cx="19.5616" cy="909.129" r="4.71198" fill="white"/>
<circle cx="19.5616" cy="909.129" r="4.71198" fill="white"/>
<circle cx="7.01678" cy="909.129" r="2.69256" fill="white"/>
<circle cx="2.49014" cy="903.422" r="1.83584" fill="white"/>
<ellipse cx="11.7459" cy="918.186" rx="3.67168" ry="3.67168" fill="white"/>
<circle cx="19.5616" cy="924.55" r="4.71198" fill="white"/>
<circle cx="19.5616" cy="924.55" r="4.71198" fill="white"/>
<circle cx="7.01678" cy="924.55" r="2.69256" fill="white"/>
<circle cx="2.49014" cy="918.844" r="1.83584" fill="white"/>
<ellipse cx="11.7459" cy="933.607" rx="3.67168" ry="3.67168" fill="white"/>
<circle cx="19.5616" cy="939.971" r="4.71198" fill="white"/>
<circle cx="19.5616" cy="939.971" r="4.71198" fill="white"/>
<circle cx="7.01678" cy="939.971" r="2.69256" fill="white"/>
<circle cx="2.49014" cy="934.265" r="1.83584" fill="white"/>
<ellipse cx="11.7459" cy="949.028" rx="3.67168" ry="3.67168" fill="white"/>
<circle cx="19.5616" cy="955.392" r="4.71198" fill="white"/>
<circle cx="19.5616" cy="955.392" r="4.71198" fill="white"/>
<circle cx="7.01678" cy="955.392" r="2.69256" fill="white"/>
<circle cx="2.49014" cy="949.686" r="1.83584" fill="white"/>
<ellipse cx="11.7459" cy="964.449" rx="3.67168" ry="3.67168" fill="white"/>
<circle cx="19.5616" cy="970.813" r="4.71198" fill="white"/>
<circle cx="19.5616" cy="970.813" r="4.71198" fill="white"/>
<circle cx="7.01678" cy="970.813" r="2.69256" fill="white"/>
<circle cx="2.49014" cy="965.107" r="1.83584" fill="white"/>
<ellipse cx="11.7459" cy="979.87" rx="3.67168" ry="3.67168" fill="white"/>
<circle cx="19.5616" cy="986.234" r="4.71198" fill="white"/>
<circle cx="19.5616" cy="986.234" r="4.71198" fill="white"/>
<circle cx="7.01678" cy="986.234" r="2.69256" fill="white"/>
<circle cx="2.49014" cy="980.528" r="1.83584" fill="white"/>
<ellipse cx="11.7459" cy="995.291" rx="3.67168" ry="3.67168" fill="white"/>
<circle cx="19.5616" cy="1001.66" r="4.71198" fill="white"/>
<circle cx="19.5616" cy="1001.66" r="4.71198" fill="white"/>
<circle cx="7.01678" cy="1001.66" r="2.69256" fill="white"/>
<circle cx="2.49014" cy="995.949" r="1.83584" fill="white"/>
<ellipse cx="11.7459" cy="1010.71" rx="3.67168" ry="3.67168" fill="white"/>
<circle cx="19.5616" cy="1017.08" r="4.71198" fill="white"/>
<circle cx="19.5616" cy="1017.08" r="4.71198" fill="white"/>
<circle cx="7.01678" cy="1017.08" r="2.69256" fill="white"/>
<circle cx="2.49014" cy="1011.37" r="1.83584" fill="white"/>
<defs>
<linearGradient id="paint0_linear_551_4589" x1="14.9927" y1="490" x2="-3.98209e-06" y2="490" gradientUnits="userSpaceOnUse">
<stop offset="0.75" stop-color="white" stop-opacity="0"/>
<stop offset="1" stop-color="white"/>
</linearGradient>
</defs>
</svg>
