<svg width="75" height="76" viewBox="0 0 75 76" fill="none" xmlns="http://www.w3.org/2000/svg">
<path fill-rule="evenodd" clip-rule="evenodd" d="M72.5867 49.2266C74.9129 41.9341 74.9994 33.8883 72.3936 26.1822L44.6732 37.6644L72.5867 49.2266ZM70.3086 54.7773L42.3771 43.2077L53.9198 71.0742C61.2136 67.4252 66.8291 61.6246 70.3086 54.7773ZM31.2905 32.1211L20.1508 5.22746C13.219 8.85094 7.8533 14.4395 4.46167 21.0083L31.2905 32.1211ZM2.14763 26.5441L28.9944 37.6644L1.9582 48.8632C-0.353127 41.3686 -0.152542 33.5971 2.14763 26.5441ZM25.6738 2.8824C33.1733 0.384507 40.987 0.430508 48.1092 2.6038L36.8338 29.825L25.6738 2.8824ZM42.3771 32.1212L53.6888 4.81217C60.4831 8.15781 66.2812 13.5899 70.0234 20.6697L42.3771 32.1212ZM4.18016 54.4372L31.2905 43.2077L19.9232 70.6508C13.3032 67.1263 7.71295 61.5799 4.18016 54.4372ZM36.8338 45.5038L25.4301 73.0346C32.651 75.4905 40.6538 75.7355 48.3562 73.3214L36.8338 45.5038Z" fill="white"/>
</svg>
