<svg width="74" height="74" viewBox="0 0 74 74" fill="none" xmlns="http://www.w3.org/2000/svg">
<path fill-rule="evenodd" clip-rule="evenodd" d="M60.4579 8.38521C54.0735 3.1452 45.904 0 37 0C28.3515 0 20.396 2.96726 14.0961 7.93926L37.5 31.3431L60.4579 8.38521ZM66.0607 14.0961L43.1569 37L66.0607 59.9039C71.0327 53.604 74 45.6485 74 37C74 28.3515 71.0327 20.396 66.0607 14.0961ZM31.8432 37L8.38523 13.5421C3.1452 19.9265 0 28.096 0 37C0 45.904 3.1452 54.0735 8.38521 60.4579L31.8432 37ZM14.0961 66.0607L37.5 42.6568L60.4579 65.6148C54.0735 70.8548 45.904 74 37 74C28.3515 74 20.396 71.0327 14.0961 66.0607Z" fill="white"/>
</svg>
