<svg width="75" height="74" viewBox="0 0 75 74" fill="none" xmlns="http://www.w3.org/2000/svg">
<path fill-rule="evenodd" clip-rule="evenodd" d="M37.3302 0C42.798 0 47.9889 1.18607 52.6595 3.31495L37.8302 29L22.7978 2.96307C27.2591 1.05578 32.1714 0 37.3302 0ZM30.902 41H0.543886C1.7001 51.756 7.46566 61.1318 15.8258 67.1127L30.902 41ZM15.8258 6.8873L30.902 33H0.543894C1.70013 22.244 7.46569 12.8682 15.8258 6.8873ZM44.7584 41L59.5371 66.5975C67.5169 60.6007 72.9929 51.452 74.1165 41H44.7584ZM74.1165 33H44.7584L59.5371 7.4025C67.5169 13.3993 72.9929 22.548 74.1165 33ZM37.8302 45L22.7978 71.0369C27.2591 72.9442 32.1714 74 37.3302 74C42.798 74 47.9889 72.8139 52.6595 70.685L37.8302 45Z" fill="white"/>
</svg>
