<?xml version="1.0" encoding="utf-8"?>
<!-- Generator: Adobe Illustrator 27.0.0, SVG Export Plug-In . SVG Version: 6.00 Build 0)  -->
<svg version="1.1" id="Layer_1" xmlns="http://www.w3.org/2000/svg" xmlns:xlink="http://www.w3.org/1999/xlink" x="0px" y="0px"
	 width="32px" height="32px" viewBox="0 0 32 32" enable-background="new 0 0 32 32" xml:space="preserve">
<g id="Layer_3">
	<rect x="-0.5" y="-6.9" fill="#E5C00A" stroke="#000000" stroke-miterlimit="10" width="32.2" height="6"/>
	<text transform="matrix(1 0 0 1 4.65973 -4.75)" font-family="'MyriadPro-Regular'" font-size="2px">convert type to outlines</text>
	<text transform="matrix(1 0 0 1 4.65973 -2.3501)" font-family="'MyriadPro-Regular'" font-size="2px">before making svg</text>
</g>
<linearGradient id="SVGID_1_" gradientUnits="userSpaceOnUse" x1="16.04452" y1="2.31067" x2="16.04452" y2="29.41027">
	<stop  offset="0" style="stop-color:#D8EDF0"/>
	<stop  offset="0.35381" style="stop-color:#E8EEF1"/>
	<stop  offset="0.50558" style="stop-color:#F0EFF1"/>
	<stop  offset="0.51763" style="stop-color:#E1E1E3"/>
	<stop  offset="0.53432" style="stop-color:#C6C8C8"/>
	<stop  offset="0.59918" style="stop-color:#989896"/>
	<stop  offset="0.6237" style="stop-color:#858482"/>
	<stop  offset="0.64558" style="stop-color:#828082"/>
	<stop  offset="0.70498" style="stop-color:#807D82"/>
	<stop  offset="0.83587" style="stop-color:#94847A"/>
	<stop  offset="0.90048" style="stop-color:#937D72"/>
	<stop  offset="1" style="stop-color:#927B6F"/>
</linearGradient>
<polygon fill="url(#SVGID_1_)" points="16.04452,29.80355 2.19666,15.95569 16.04452,2.10783 29.89238,15.95569 "/>
<linearGradient id="SVGID_00000124128606216762996760000015720970995377587868_" gradientUnits="userSpaceOnUse" x1="16.04452" y1="3.6248" x2="16.04452" y2="21.06223">
	<stop  offset="0" style="stop-color:#FEFDFF"/>
	<stop  offset="0.11323" style="stop-color:#EFEFF0"/>
	<stop  offset="0.32954" style="stop-color:#C9CACB"/>
	<stop  offset="0.34278" style="stop-color:#C6C8C8"/>
	<stop  offset="0.72248" style="stop-color:#A99D96"/>
	<stop  offset="1" style="stop-color:#927B6F"/>
</linearGradient>
<path fill="url(#SVGID_00000124128606216762996760000015720970995377587868_)" d="M19.32478,8.69353
	c0.03409-0.07724,0.02219-0.17615-0.00476-0.23992c-0.51517-1.2189-1.03914-2.45009-1.52864-3.59901
	c-0.01611-0.03783-0.03703-0.07076-0.05551-0.09982c-0.00724-0.0114-0.01451-0.02278-0.02132-0.03437
	c-0.02111-0.03594-0.05945-0.05721-0.09992-0.05721c-0.00821,0-0.01651,0.00088-0.02477,0.00268l-0.04771,0.01041
	c-0.04892,0.01066-0.08549,0.05153-0.09064,0.10132l-0.35964,3.47301c-0.00821-0.0024-0.01617-0.00478-0.02405-0.00723
	c-0.37169-0.11539-0.70603-0.17147-1.02214-0.17147c-0.07628,0-0.15269,0.00333-0.22708,0.00991
	c-0.21057,0.0186-0.41967,0.05967-0.62187,0.09937c-0.06998,0.01374-0.14233,0.02795-0.21316,0.04089
	c-0.00262,0.00048-0.00521,0.00097-0.00781,0.00147c-0.03362-0.36049-0.07018-0.73437-0.11167-1.14188
	c-0.0715-0.70254-0.14835-1.44667-0.22836-2.21169c-0.00423-0.04043-0.01504-0.07685-0.0246-0.10898
	c-0.00358-0.01208-0.00721-0.02417-0.0103-0.03632c-0.01228-0.04819-0.05394-0.08318-0.10352-0.08696l-0.03719-0.00283
	C14.45719,4.6347,14.45426,4.6346,14.45136,4.6346c-0.04573,0-0.08756,0.02701-0.10614,0.0694
	c-0.01319,0.03009-0.02645,0.06016-0.03973,0.09023c-0.02821,0.06392-0.05739,0.13002-0.08541,0.19573
	c-0.12127,0.2845-0.24247,0.56905-0.36368,0.85359c-0.34769,0.81628-0.70722,1.66034-1.06298,2.48946
	c-0.04767,0.11112-0.08464,0.24825,0.00263,0.42266c0.15535,0.31046,0.2954,0.62945,0.42359,0.9279
	c0.00711,0.01657,0.00423,0.06163-0.00498,0.07777c-0.09362,0.1641-0.19523,0.32692-0.29349,0.48438
	c-0.03545,0.05681-0.07072,0.11333-0.10547,0.16965c-0.02154,0.0349-0.02303,0.07858-0.00393,0.11486
	c0.00277,0.00526,0.00473,0.00961,0.00637,0.01319c0.00671,0.01463,0.01685,0.03673,0.0396,0.05668
	c0.03659,0.03212,0.07938,0.06937,0.12396,0.10517c1.50685,1.20986,2.22699,2.83472,2.14039,4.82944l-0.00079,0.01774
	c-0.0117,0.26513,0.01849,0.31119,0.26921,0.41063c0.33656,0.13351,0.5055,0.20053,0.69003,0.20053c0.00002,0,0.00002,0,0.00002,0
	c0.18382,0,0.35188-0.06685,0.68669-0.20003l0.00643-0.00256c0.10416-0.04145,0.2085-0.11005,0.19244-0.30462
	c-0.05839-0.70818,0.00709-1.39598,0.19465-2.0443c0.2746-0.94918,0.74676-1.7574,1.40336-2.40219
	c0.14686-0.14423,0.29758-0.2798,0.45714-0.42334c0.07184-0.06463,0.14612-0.13146,0.21974-0.1989
	c0.041-0.03756,0.04956-0.09895,0.0204-0.14628c-0.03624-0.0588-0.07241-0.11813-0.10875-0.17771
	c-0.09167-0.15031-0.18646-0.30575-0.28498-0.45716c-0.02573-0.03954-0.02936-0.05556-0.00279-0.11056
	C19.00342,9.409,19.14956,9.09046,19.32478,8.69353z"/>
<polygon fill="#1CB2F4" points="13.63307,10.72941 14.93668,12.49621 16.99043,12.49621 18.45597,10.59484 17.46506,10.15452 
	14.04957,9.97439 "/>
<path fill="#231F20" d="M19.21873,8.64671c0.018-0.04077,0.01267-0.10505-0.00547-0.14797
	c-0.5074-1.20049-1.01768-2.39971-1.52849-3.59869c-0.01816-0.04263-0.04652-0.08072-0.07013-0.12093
	c-0.01594,0.00348-0.03188,0.00696-0.04781,0.01043c-0.12411,1.19857-0.24822,2.39715-0.37377,3.60958
	c-0.07024-0.01975-0.11524-0.03128-0.15958-0.04504c-0.39299-0.12199-0.79508-0.193-1.20466-0.1568
	c-0.27667,0.02446-0.55013,0.08871-0.82439,0.13883c-0.06949,0.0127-0.13115,0.03675-0.14131-0.07242
	c-0.03631-0.39027-0.07463-0.78035-0.11432-1.17027c-0.07505-0.73725-0.15126-1.47438-0.22833-2.2114
	c-0.00455-0.04357-0.02102-0.08584-0.03195-0.12871c-0.01237-0.00094-0.02475-0.00188-0.03712-0.00282
	c-0.0416,0.09495-0.08402,0.18954-0.12468,0.28491c-0.47519,1.11461-0.94901,2.22984-1.42677,3.3433
	c-0.04866,0.11341-0.05963,0.20638-0.00024,0.32508c0.15299,0.30575,0.29131,0.61944,0.42643,0.93404
	c0.02156,0.05019,0.01629,0.13345-0.01081,0.18095c-0.12828,0.22486-0.26845,0.44263-0.401,0.65745
	c0.01068,0.02029,0.01323,0.03094,0.01984,0.03674c0.03947,0.03463,0.07918,0.06906,0.12008,0.1019
	c1.56202,1.25416,2.27132,2.90486,2.18362,4.92487c-0.01008,0.23206-0.01588,0.2318,0.19535,0.31559
	c0.64929,0.25755,0.64873,0.25607,1.29759-0.00201c0.09133-0.03633,0.12908-0.07464,0.11978-0.18739
	c-0.05831-0.7069,0.00133-1.40344,0.19881-2.08604c0.27295-0.94346,0.73783-1.76954,1.43349-2.45269
	c0.21735-0.21344,0.44802-0.41267,0.67981-0.62502c-0.12835-0.20828-0.25605-0.42325-0.3922-0.63247
	c-0.05116-0.07862-0.05124-0.13884-0.01003-0.22417C18.91969,9.31584,19.07078,8.98191,19.21873,8.64671z M15.06896,12.07586
	c-0.00278,0.00204-0.00556,0.00409-0.00834,0.00613c-0.03268-0.16294-0.06081-0.32706-0.10055-0.48818
	c-0.0135-0.05475-0.04931-0.13951-0.08677-0.1468c-0.41134-0.08007-0.57031-0.42838-0.78481-0.76265
	c0.05176,0.02617,0.08268,0.03828,0.11,0.05617c0.25929,0.16975,0.51936,0.33833,0.77539,0.5131
	c0.04132,0.0282,0.08907,0.08416,0.09085,0.12908C15.07387,11.61344,15.06896,11.84475,15.06896,12.07586z M17.58758,11.29739
	c-0.0718,0.0811-0.2087,0.10617-0.31998,0.14494c-0.09155,0.0319-0.13778,0.08484-0.15304,0.18402
	c-0.02457,0.15964-0.062,0.31721-0.09399,0.47565c-0.00284-0.00192-0.00569-0.00384-0.00853-0.00576
	c0-0.23082-0.00266-0.46169,0.0028-0.69237c0.00084-0.03542,0.03098-0.08249,0.06125-0.10288
	c0.29573-0.19913,0.59438-0.39374,0.91303-0.57158C17.85737,10.92069,17.73996,11.12527,17.58758,11.29739z"/>
<g>
	<path fill="#231F20" d="M9.36202,20.51546l13.365,0l-6.6825,6.6825L9.36202,20.51546 M8.14934,20.01315l7.89518,7.89518
		l7.89518-7.89518L8.14934,20.01315L8.14934,20.01315z"/>
</g>
<g>
	<polygon fill="#231F20" points="12.24338,10.62323 12.08923,10.14898 7.10539,15.13281 5.79017,15.13281 12.24338,8.6796 
		12.24338,8.0512 4.71742,15.57716 14.0952,15.57716 14.0952,15.10592 7.7607,15.10592 	"/>
	<polygon fill="#231F20" points="15.174,5.74899 16.04453,4.87846 16.99133,5.82527 17.04396,5.24949 16.04453,4.25006 
		15.12138,5.17321 	"/>
	<polygon fill="#231F20" points="16.88119,7.03035 16.04452,6.19369 15.28414,6.95407 15.33677,7.52984 16.04452,6.82209 
		16.82856,7.60613 	"/>
	<polygon fill="#231F20" points="19.61705,7.82259 19.61705,8.45099 26.29887,15.13281 24.98365,15.13281 19.80277,9.95194 
		19.61705,10.39462 24.32834,15.10592 17.99384,15.10592 17.99384,15.57716 27.37162,15.57716 	"/>
</g>
<linearGradient id="SVGID_00000109743931583250081650000011307200574899327633_" gradientUnits="userSpaceOnUse" x1="15.90144" y1="29.06987" x2="16.05154" y2="19.53798">
	<stop  offset="0" style="stop-color:#E2EEF0"/>
	<stop  offset="0.50558" style="stop-color:#F0EFF1"/>
	<stop  offset="0.51763" style="stop-color:#E1E1E3"/>
	<stop  offset="0.53432" style="stop-color:#C6C8C8"/>
	<stop  offset="0.59918" style="stop-color:#989896"/>
	<stop  offset="0.6237" style="stop-color:#858482"/>
	<stop  offset="0.64558" style="stop-color:#828082"/>
	<stop  offset="0.70498" style="stop-color:#807D82"/>
	<stop  offset="0.83587" style="stop-color:#94847A"/>
	<stop  offset="0.90048" style="stop-color:#937D72"/>
	<stop  offset="1" style="stop-color:#927B6F"/>
</linearGradient>
<path opacity="0.62" fill="url(#SVGID_00000109743931583250081650000011307200574899327633_)" d="M16.04452,27.94931
	l-7.96514-7.96515h15.93027L16.04452,27.94931z M8.21931,20.04212l7.82522,7.82524l7.82522-7.82524H8.21931z"/>
<linearGradient id="SVGID_00000057826776381803520860000016015998382141041307_" gradientUnits="userSpaceOnUse" x1="16.15098" y1="15.45186" x2="15.9108" y2="26.81007">
	<stop  offset="0" style="stop-color:#E2EEF0"/>
	<stop  offset="0.50558" style="stop-color:#F0EFF1"/>
	<stop  offset="0.51763" style="stop-color:#E1E1E3"/>
	<stop  offset="0.53432" style="stop-color:#C6C8C8"/>
	<stop  offset="0.59918" style="stop-color:#989896"/>
	<stop  offset="0.6237" style="stop-color:#858482"/>
	<stop  offset="0.64558" style="stop-color:#828082"/>
	<stop  offset="0.70498" style="stop-color:#807D82"/>
	<stop  offset="0.83587" style="stop-color:#94847A"/>
	<stop  offset="0.84123" style="stop-color:#8F8076"/>
	<stop  offset="0.87204" style="stop-color:#7A6B61"/>
	<stop  offset="0.90589" style="stop-color:#6A5C52"/>
	<stop  offset="0.94476" style="stop-color:#61534A"/>
	<stop  offset="1" style="stop-color:#5E5047"/>
</linearGradient>
<path opacity="0.58" fill="url(#SVGID_00000057826776381803520860000016015998382141041307_)" d="M9.29206,20.48647l6.75246,6.75245
	l6.75245-6.75245H9.29206z M9.43198,20.54443h13.22508l-6.61254,6.61254L9.43198,20.54443z"/>
<path fill="#231F20" d="M16.04452,2.79088L29.20933,15.9557L16.04451,29.12051L2.8797,15.95569L16.04452,2.79088 M16.04452,2.10783
	L2.19665,15.95569l13.84786,13.84787L29.89238,15.9557L16.04452,2.10783L16.04452,2.10783z"/>
<linearGradient id="SVGID_00000127020115952226337190000008730090139715772837_" gradientUnits="userSpaceOnUse" x1="15.97422" y1="2.40132" x2="16.12597" y2="31.65847">
	<stop  offset="0" style="stop-color:#FFFFFF"/>
	<stop  offset="0.49762" style="stop-color:#F0EFF1"/>
	<stop  offset="0.50558" style="stop-color:#F0EFF1"/>
	<stop  offset="0.51763" style="stop-color:#E1E1E3"/>
	<stop  offset="0.53432" style="stop-color:#C6C8C8"/>
	<stop  offset="0.59918" style="stop-color:#989896"/>
	<stop  offset="0.6237" style="stop-color:#858482"/>
	<stop  offset="0.64558" style="stop-color:#828082"/>
	<stop  offset="0.70498" style="stop-color:#807D82"/>
	<stop  offset="0.83587" style="stop-color:#94847A"/>
	<stop  offset="0.84823" style="stop-color:#A08978"/>
	<stop  offset="0.87768" style="stop-color:#B59375"/>
	<stop  offset="0.91004" style="stop-color:#C59A73"/>
	<stop  offset="0.94721" style="stop-color:#CE9E71"/>
	<stop  offset="1" style="stop-color:#D19F71"/>
</linearGradient>
<path fill="url(#SVGID_00000127020115952226337190000008730090139715772837_)" d="M16.04452,3.01344L28.98677,15.9557
	L16.04451,28.89795L3.10227,15.95569L16.04452,3.01344 M16.04452,2.79088L2.8797,15.95569l13.16481,13.16482L29.20933,15.9557
	L16.04452,2.79088L16.04452,2.79088z"/>
<g>
	
		<linearGradient id="SVGID_00000078739687949197141190000000582386512947619739_" gradientUnits="userSpaceOnUse" x1="16.04452" y1="21.00736" x2="16.04452" y2="16.00855">
		<stop  offset="0" style="stop-color:#D8EDF0"/>
		<stop  offset="0.17509" style="stop-color:#E8EEF1"/>
		<stop  offset="0.2502" style="stop-color:#F0EFF1"/>
		<stop  offset="0.29513" style="stop-color:#E1E1E2"/>
		<stop  offset="0.32682" style="stop-color:#D4D5D5"/>
		<stop  offset="0.41301" style="stop-color:#CCCDCD"/>
		<stop  offset="0.50239" style="stop-color:#C6C8C8"/>
		<stop  offset="0.57653" style="stop-color:#989896"/>
		<stop  offset="0.60454" style="stop-color:#858482"/>
		<stop  offset="0.62081" style="stop-color:#8B8580"/>
		<stop  offset="0.70722" style="stop-color:#A48875"/>
		<stop  offset="0.79715" style="stop-color:#B68B6E"/>
		<stop  offset="0.892" style="stop-color:#C18C69"/>
		<stop  offset="1" style="stop-color:#C48D68"/>
	</linearGradient>
	<path fill="url(#SVGID_00000078739687949197141190000000582386512947619739_)" d="M7.42474,16.8396l1.2657,1.62538L8.14975,18.8629
		l-0.72502-0.96093L6.69972,18.8629l-0.54069-0.39792L7.42474,16.8396z M11.55069,17.66789l-1.33871-0.82777v1.89824h0.70712
		v-0.64661l1.3387,0.82777v-1.89824h-0.70711V17.66789z M15.38857,17.83823c0,0.2725-0.243,0.30192-0.34747,0.30192
		c-0.10446,0-0.34747-0.02942-0.34747-0.30192v-0.81695H13.9865v0.87636c0,0.5408,0.41395,0.89023,1.05459,0.89023
		s1.05459-0.34943,1.05459-0.89023v-0.87636h-0.70712V17.83823z M19.84841,18.21052c0,0.49095-0.67307,0.54774-1.17934,0.54774
		c-0.06698,0-0.14178,0.00157-0.22101,0.00325c-0.08709,0.00183-0.17714,0.00372-0.26589,0.00372
		c-0.09835,0-0.18016-0.0024-0.25006-0.00734l-0.10773-0.00762v-1.74088l0.10773-0.00762
		c0.22095-0.01564,0.51704-0.01564,0.71297-0.01564h0.03832c0.52397,0,1.1254,0.06286,1.1254,0.55308
		c0,0.09945-0.02751,0.22226-0.13486,0.32274C19.81358,17.96576,19.84841,18.10125,19.84841,18.21052z M21.49791,18.73836h0.70711
		v-1.71708h-0.70711V18.73836z M25.62851,17.70564l0.22706-0.52599l-0.10648-0.04592
		c-0.24212-0.10445-0.53974-0.16196-0.83804-0.16196c-0.63622,0-1.00113,0.23208-1.00113,0.63673
		c0,0.16279,0.0636,0.27983,0.16824,0.3648l-0.26242,0.55199l0.1053,0.04954c0.19435,0.09145,0.50944,0.21302,0.99992,0.21302
		c0.63183,0,1.00905-0.2373,1.00905-0.63477C25.93,17.93009,25.80541,17.7923,25.62851,17.70564z"/>
	<g>
		<g>
			<path fill="#231F20" d="M7.42474,17.70951l-0.74856,0.99214l-0.3525-0.25942l1.10106-1.41395l1.10106,1.41395l-0.3525,0.25942
				L7.42474,17.70951z"/>
		</g>
		<g>
			<path fill="#231F20" d="M10.3279,17.07283l1.3387,0.82777v-0.73866h0.47528v1.57436l-1.3387-0.82777v0.73866H10.3279V17.07283z"
				/>
		</g>
		<g>
			<path fill="#231F20" d="M14.5777,17.13719v0.70104c0,0.2614,0.18219,0.41784,0.4634,0.41784s0.46339-0.15644,0.46339-0.41784
				v-0.70104h0.47528v0.76045c0,0.52083-0.41983,0.77431-0.93867,0.77431c-0.51885,0-0.93868-0.25348-0.93868-0.77431v-0.76045
				H14.5777z"/>
		</g>
		<g>
			<path fill="#231F20" d="M17.9403,18.64224v-1.52485c0.22377-0.01584,0.52924-0.01535,0.74311-0.01535
				c0.80401,0,1.00948,0.18368,1.00948,0.43716c0,0.17426-0.10496,0.27526-0.25943,0.33269
				c0.17625,0.05545,0.29903,0.15645,0.29903,0.33863c0,0.26339-0.25942,0.43182-1.06343,0.43182
				C18.45518,18.64235,18.16408,18.65808,17.9403,18.64224z M19.21761,17.60059c0-0.07724-0.10429-0.12101-0.48648-0.12101
				c-0.11486,0-0.23238-0.00177-0.31555,0.00417v0.22576c0.08317,0.00198,0.18021,0.00198,0.29903,0.00198
				C19.11662,17.71149,19.21761,17.67188,19.21761,17.60059z M19.25722,18.15904c0-0.07129-0.101-0.1109-0.54261-0.1109
				c-0.11882,0-0.21586,0-0.29903,0.00198v0.22576c0.08317,0.00595,0.19574,0.00211,0.31061,0.00211
				C19.148,18.27798,19.25722,18.23627,19.25722,18.15904z"/>
		</g>
		<g>
			<path fill="#231F20" d="M21.61382,17.13719h0.47528v1.48525h-0.47528V17.13719z"/>
		</g>
		<g>
			<path fill="#231F20" d="M24.14268,18.10755c0.19408,0.0911,0.45943,0.16833,0.80203,0.16833
				c0.18417,0,0.39409-0.02376,0.39409-0.101c0-0.06139-0.13268-0.07129-0.31685-0.08317
				c-0.68123-0.04357-0.99611-0.15843-0.99611-0.4832c0-0.38022,0.41191-0.52082,0.8852-0.52082
				c0.31091,0,0.59014,0.06535,0.79214,0.15248l-0.15645,0.3624c-0.16437-0.06734-0.40795-0.11882-0.66539-0.11882
				c-0.19605,0-0.38022,0.02376-0.38022,0.101c0,0.05545,0.09308,0.06931,0.25943,0.07921
				c0.5941,0.03366,1.05353,0.11486,1.05353,0.48914c0,0.34854-0.37229,0.51885-0.89312,0.51885
				c-0.4535,0-0.74856-0.10694-0.95056-0.202L24.14268,18.10755z"/>
		</g>
	</g>
	<g>
		<path fill="#231F20" d="M13.41521,21.30326c-0.04062-0.0304-0.10714-0.04709-0.15522-0.03749
			c-0.02289,0.00457-0.0364,0.08477-0.04372,0.13231c-0.0123,0.07989-0.00705,0.16322-0.02532,0.24132
			c-0.08203,0.35066-0.1471,0.7077-0.26269,1.04732c-0.09,0.26442-0.04982,0.44828,0.17271,0.61027
			c0.32848,0.23912,0.49291,0.55253,0.42103,0.97133c-0.0078,0.04543,0.04741,0.14179,0.08368,0.14734
			c0.12263,0.01875,0.09317-0.08854,0.09359-0.15679c0.00242-0.39527,0.00118-0.79056,0.00118-1.18584
			c0.00342,0,0.00953-0.77893,0.01052-1.1684C13.71159,21.65477,13.61405,21.45209,13.41521,21.30326z M13.42355,23.33703
			c-0.10655-0.11267-0.21374-0.22493-0.31742-0.34034c-0.01489-0.01657-0.01397-0.05603-0.00759-0.08172
			c0.10006-0.40337,0.20218-0.80623,0.30385-1.20921c0.00492-0.01952,0.03347-0.01669,0.0344,0.00342
			c0.01706,0.3695,0.02811,1.61142,0.02811,1.61142C13.46489,23.34226,13.43843,23.35277,13.42355,23.33703z"/>
		<path fill="#231F20" d="M14.47106,21.24034c0.02103,0.01178,0.04735,0.00738,0.0632-0.01077
			c0.02413-0.02764,0.0609-0.06993,0.09402-0.10874c0.01969-0.02307,0.05504-0.02389,0.07577-0.00175
			c0.05291,0.05649,0.10085,0.10768,0.15057,0.16077c0.01994,0.02129,0.05375,0.02146,0.0739,0.00037
			c0.0524-0.05483,0.0987-0.10327,0.1459-0.15266c0.02001-0.02094,0.05347-0.02097,0.07349-0.00003
			c0.04943,0.0517,0.09864,0.10316,0.16283,0.17028c0.02316,0.02422,0.0631,0.01978,0.08037-0.00894
			c0.03502-0.05821,0.06811-0.11323,0.10202-0.16961c0.01743-0.02897,0.0578-0.03317,0.08081-0.0084
			c0.06206,0.06679,0.11295,0.12155,0.17607,0.18949c0.02244,0.02415,0.06165,0.02089,0.07976-0.00666
			c0.03896-0.05924,0.07487-0.11385,0.11158-0.16969c0.01837-0.02794,0.05832-0.03082,0.08053-0.00582
			c0.05575,0.06277,0.10442,0.11758,0.167,0.18805c0.02251,0.02535,0.06314,0.02198,0.08114-0.00674
			c0.03898-0.06217,0.07384-0.11776,0.10857-0.17316c0.01775-0.02831,0.05758-0.03202,0.08033-0.00754
			c0.05684,0.06114,0.10384,0.11169,0.15402,0.16566c0.02075,0.02232,0.05634,0.02149,0.07602-0.00178
			c0.04954-0.05856,0.11309-0.13368,0.15553-0.18384c0.02264-0.02676,0.06487-0.02312,0.08258,0.00712
			c0.03036,0.0518,0.07505,0.12808,0.11534,0.19683c0.01839,0.03138,0.06282,0.03385,0.08457,0.0047
			c0.05095-0.06828,0.1023-0.13709,0.13527-0.18127c0.0188-0.0252,0.05568-0.02736,0.0774-0.00463l0.17327,0.18127
			c0.0214,0.02239,0.05767,0.02059,0.07676-0.0038l0.12537-0.1602c0.01915-0.02447,0.05552-0.02625,0.07687-0.00368
			c0.03798,0.04015,0.09681,0.10261,0.15057,0.16085c0.02201,0.02384,0.0604,0.02124,0.079-0.00534
			c0.04191-0.05987,0.0802-0.11457,0.12016-0.17165c0.01929-0.02756,0.05956-0.0291,0.08091-0.00311
			c0.03564,0.04339,0.07109,0.08587,0.09402,0.11323c0.015,0.01789,0.04023,0.02322,0.06121,0.01298l0.05016-0.02449
			c0.02916-0.01424,0.03774-0.05173,0.01759-0.07716c-0.0505-0.06376-0.13976-0.17623-0.2064-0.25894
			c-0.01777-0.02206-0.05016-0.0253-0.07197-0.00722c-0.05815,0.04821-0.11625,0.09648-0.17525,0.14362
			c-0.00314,0.00251-0.00735,0.00368-0.01203,0.00424c-0.01508,0.0018-0.03002-0.00443-0.04057-0.01536
			c-0.05489-0.05687-0.11316-0.11724-0.14912-0.1545c-0.0193-0.02-0.05109-0.02078-0.07133-0.00173
			c-0.03534,0.03326-0.09331,0.08664-0.1594,0.14289c-0.01887,0.01606-0.04658,0.01625-0.06558,0.00036
			c-0.053-0.0443-0.12545-0.1039-0.16829-0.13905c-0.02029-0.01665-0.0498-0.01513-0.06826,0.00353
			c-0.03483,0.03521-0.09175,0.09179-0.14004,0.13517c-0.02025,0.0182-0.0512,0.01708-0.07028-0.00234
			c-0.05252-0.05343-0.09844-0.1047-0.12732-0.13781c-0.01809-0.02074-0.04926-0.02336-0.07051-0.00586
			c-0.04036,0.03324-0.10696,0.08866-0.17289,0.14609c-0.01912,0.01666-0.04755,0.01671-0.06674,0.00013
			c-0.05828-0.05036-0.11302-0.10008-0.14624-0.13062c-0.01875-0.01724-0.04727-0.01792-0.06682-0.0016
			c-0.03708,0.03094-0.09997,0.08283-0.16643,0.13501c-0.01925,0.01511-0.04653,0.0143-0.0649-0.00187
			c-0.04829-0.04251-0.1094-0.09759-0.14664-0.13129c-0.01922-0.01739-0.04831-0.01753-0.06769-0.00032
			c-0.03862,0.03428-0.10235,0.09075-0.14925,0.13192c-0.01846,0.0162-0.04585,0.01689-0.06508,0.00161
			c-0.05707-0.04535-0.12778-0.10224-0.16921-0.13564c-0.01993-0.01607-0.04854-0.01481-0.06699,0.00294
			c-0.03526,0.03394-0.09306,0.08924-0.13992,0.13258c-0.01956,0.01809-0.04975,0.01795-0.06918-0.00028
			c-0.05668-0.05318-0.1135-0.10386-0.14802-0.13429c-0.01902-0.01676-0.0474-0.01697-0.06662-0.00045
			c-0.03525,0.0303-0.09502,0.08199-0.1629,0.14206c-0.02013,0.01781-0.05055,0.0169-0.06961-0.00205
			c-0.03957-0.03936-0.09796-0.09314-0.13537-0.12719c-0.02023-0.01842-0.05128-0.01752-0.07041,0.00203
			c-0.06582,0.06727-0.20773,0.21527-0.25653,0.28972C14.37177,21.18123,14.43042,21.21759,14.47106,21.24034z"/>
		<path fill="#231F20" d="M14.65332,22.96376c-0.22087-0.00056-0.44174-0.00067-0.66261,0.00035
			c-0.11147,0.00051-0.1624,0.05985-0.15699,0.17718c0.0131,0.28416,0.02094,0.56876,0.00367,0.8527
			c-0.00886,0.14572,0.06336,0.1979,0.21996,0.1765c0.17149-0.02344,0.33855-0.01821,0.51655-0.00132
			c0.17253,0.01637,0.23396-0.03592,0.23129-0.16906c-0.0028-0.13944-0.00067-0.27897-0.00067-0.41846
			c0.00169,0,0.00337,0,0.00506,0c0-0.15111-0.00086-0.30223,0.00029-0.45333
			C14.81068,23.02179,14.76184,22.96404,14.65332,22.96376z M14.59702,23.96074h-0.47628
			c-0.03897,0-0.07056-0.03159-0.07056-0.07056v-0.66295c0-0.0294,0.02376-0.0533,0.05316-0.05345
			c0.14221-0.00071,0.27527-0.00354,0.40773,0.00401c0.0301,0.00171,0.08129,0.0523,0.08216,0.08157
			C14.60006,23.48954,14.59702,23.72003,14.59702,23.96074z"/>
		<path fill="#231F20" d="M18.60752,24.48075c0.00162-0.68594-0.04339-1.3483-0.07841-2.01857
			c-0.02426-0.28689,0.02115-0.6887-0.14613-0.92711c-0.06244,0.0262-0.02351,0.43063-0.04704,0.49705
			c-0.23263-1.00767-0.23586-0.27714-0.21574,0.19912c-0.15337,0.04305-0.43176,0.02368-0.57112,0.12122
			c-0.00587,0.06916,0.11398,0.24688,0.17624,0.28117c0.10069,0.04283,0.20898,0.06076,0.31428,0.08735
			c-0.12589,0.26768-0.11621,0.55107-0.13792,0.84988c-0.10919-0.23234-0.23893-0.72297-0.52728-0.69191
			c-0.08422,0.0484-0.19279-0.33031-0.2079-0.39443c0.07189-0.04572,0.30853-0.04811,0.19742-0.17743
			c-0.00473-0.00026-0.04263-0.01974-0.04605-0.01217c-0.00126,0.00064-0.11319,0.05752-0.17235,0.08156
			c0.03601-0.25562-0.13166-0.71734-0.42722-0.3904c-0.09856,0.15715,0.10427,0.3258,0.22285,0.44396
			c-0.08553,0.03278-0.20699,0.03854-0.26435,0.1317l0.0333-0.0024c0.01706,0.01421,0.02629,0.0641,0.05705,0.05367
			c0.07667-0.02327,0.15647-0.07718,0.22673-0.07538c0.88352,2.16446-0.26488,2.0311,1.53867,2.01327
			c0,0,0.031,0.01306,0.05812-0.02888H18.5878C18.59328,24.51129,18.60052,24.49611,18.60752,24.48075z M17.03222,22.34459
			c-0.06692-0.02777-0.2122-0.18572-0.1878-0.29612c0.06781-0.10417,0.15127,0.00531,0.15241,0.07982
			C17.01147,22.17269,17.04575,22.28814,17.03222,22.34459z M18.23787,24.33872c-0.61146,0.02159-0.60038,0.02777-0.68244-0.57935
			c-0.02809-0.2111-0.11678-0.41213-0.14867-0.62209c0.05447-0.01095,0.10987,0.01559,0.13516,0.06621l0.45816,0.91718
			l0.16709-0.03641c0.00529-0.14829,0.01405-0.30102-0.00901-0.44824c-0.04147-0.26119-0.17309-0.55793,0.05915-0.77185
			c0.05174-0.04454,0.03366-0.15418,0.03882-0.22822c-0.10152-0.02403-0.48537-0.07381-0.55008-0.22995
			c0.02538-0.02203,0.23599-0.04923,0.39049-0.05577l0.24796,0.03424c0.04623,0.57312,0.02737,1.17718,0.03381,1.83764
			C18.38734,24.27121,18.31913,24.35501,18.23787,24.33872z"/>
		<g>
			<path fill="#231F20" d="M16.79695,23.64561c-0.13184-0.46956-0.42031-0.83497-0.78266-1.1478
				c-0.15731-0.13581-0.28156-0.26964-0.32716-0.49905c-0.06976-0.35096-0.39812-0.4124-0.64882-0.16077
				c-0.05722,0.05743-0.15672,0.07169-0.23494,0.10958c-0.03981,0.01928-0.0784,0.04109-0.11692,0.06302
				c-0.03063,0.01744-0.03826,0.05818-0.01595,0.08546c0.03369,0.0412,0.06726,0.08283,0.10954,0.09559
				c0.16834,0.0508,0.2264,0.15752,0.26091,0.32236c0.03658,0.17475,0.11541,0.34279,0.19085,0.50683
				c0.17106,0.37197,0.358,0.73674,0.52457,1.11063c0.03818,0.0857,0.16798,0.22514,0.00135,0.28636
				c-0.11491,0.04222-0.27696,0.01638-0.35536,0.03547c-0.00633,0.00154-0.01173,0.00694-0.01843,0.01661
				c-0.02605,0.03758,0.00189,0.08905,0.04761,0.08867c0.10157-0.00086,0.38974,0.00539,0.47303,0.00886
				c0.1304,0.00542,0.27472-0.00886,0.34575-0.03332c0.06474-0.02229-0.03035-0.17845-0.04674-0.30009
				c-0.00399-0.02962-0.01035-0.05893-0.01774-0.09188c-0.00797-0.03554,0.01904-0.06934,0.05546-0.06934h0.57695
				c0.03584,0,0.06264-0.03278,0.05568-0.06793C16.84765,23.87212,16.82828,23.75718,16.79695,23.64561z M15.8139,22.57566
				c0.02929,0.02372,0.05884,0.04716,0.08781,0.07093c0.01003,0.00823,0.01679,0.01971,0.01963,0.03237
				c0.01231,0.05497,0.00808,0.11237-0.00578,0.16824c-0.01251,0.05045-0.07988,0.06022-0.10516,0.0148
				c-0.03172-0.057-0.05708-0.11752-0.07534-0.18083c-0.00458-0.0159-0.00875-0.03191-0.01248-0.04801
				C15.80027,22.58424,15.7362,22.62458,15.8139,22.57566z M15.93707,24.28317c-0.00112-0.0048-0.00115-0.00977-0.00172-0.01464
				c-0.00844-0.07183,0.09912-0.08969,0.11205-0.01854c0.00163,0.00895-0.00041,0.01838,0.00299,0.0262
				C16.11199,24.41782,15.97739,24.45561,15.93707,24.28317z M16.52415,23.91843c-0.18387-0.03169-0.36851-0.06049-0.54802-0.1085
				c-0.06885-0.01841-0.13168-0.10262-0.17368-0.17118c-0.28275-0.4615-0.58072-0.8519-0.65155-1.40492
				c-0.00369-0.02884-0.29528-0.13169-0.28765-0.16602c0.01994-0.08973,0.30861-0.07717,0.32402-0.0997
				c0.04633-0.06775,0.15327-0.04563,0.2258-0.00722c0.04574,0.02422,0.08238,0.04826,0.08191,0.07156
				c-0.00262,0.13032,0.0343,0.23119,0.09219,0.31613c0.00655,0.00961,0.0103,0.02086,0.0103,0.03249
				c0.00001,0.02887,0.0016,0.05634,0.00202,0.07611c0.00167,0.07691,0.01259,0.15431,0.03202,0.22874
				c0.03916,0.15002,0.1146,0.28675,0.21673,0.4029c0.02153,0.02449,0.06407,0.01668,0.07935-0.01023
				c0.03708-0.06528,0.06839-0.13744,0.08575-0.21171c0.0102-0.04366,0.06521-0.05825,0.09626-0.0259
				c0.22863,0.23819,0.40577,0.50752,0.51094,0.827c0.01204,0.03658,0.0221,0.0738,0.03177,0.11115
				C16.59692,23.83934,16.57956,23.85821,16.52415,23.91843z"/>
		</g>
	</g>
	<g opacity="0.47">
		
			<linearGradient id="SVGID_00000107588288362882804590000008056042523671230864_" gradientUnits="userSpaceOnUse" x1="13.93063" y1="28.03543" x2="13.7866" y2="19.41906">
			<stop  offset="0" style="stop-color:#E2EEF0"/>
			<stop  offset="0.50558" style="stop-color:#F0EFF1"/>
			<stop  offset="0.51763" style="stop-color:#E1E1E3"/>
			<stop  offset="0.53432" style="stop-color:#C6C8C8"/>
			<stop  offset="0.59918" style="stop-color:#989896"/>
			<stop  offset="0.6237" style="stop-color:#858482"/>
			<stop  offset="0.64558" style="stop-color:#828082"/>
			<stop  offset="0.70498" style="stop-color:#807D82"/>
			<stop  offset="0.83587" style="stop-color:#94847A"/>
			<stop  offset="0.90048" style="stop-color:#937D72"/>
			<stop  offset="1" style="stop-color:#927B6F"/>
		</linearGradient>
		<path fill="url(#SVGID_00000107588288362882804590000008056042523671230864_)" d="M14.82483,22.94901
			c-0.0409-0.04132-0.09854-0.06236-0.17133-0.06252c-0.10246-0.00027-0.20497-0.00043-0.30745-0.00043
			c-0.11858,0-0.23712,0.00023-0.35569,0.00077c-0.07511,0.00036-0.134,0.02243-0.17505,0.06562
			c-0.01461,0.01537-0.02632,0.03321-0.03554,0.05309c0.00029-0.01716,0.00059-0.03684,0.0009-0.05926
			c0.00108-0.0792,0.00219-0.18889,0.00323-0.31073c0.00212-0.2487,0.00387-0.54234,0.00435-0.73071
			c0.00071-0.27743-0.10921-0.50065-0.32673-0.66345c-0.04585-0.0343-0.11185-0.0556-0.17224-0.0556
			c-0.01549,0-0.03042,0.00142-0.04445,0.00421c-0.07139,0.0143-0.08915,0.09382-0.10493,0.19633
			c-0.0058,0.03769-0.008,0.07483-0.01012,0.11075c-0.00262,0.04445-0.0051,0.08641-0.01407,0.12473
			c-0.02083,0.08903-0.04085,0.17974-0.06021,0.26747c-0.05672,0.257-0.11537,0.52276-0.20038,0.77254
			c-0.10409,0.30585-0.04229,0.521,0.20038,0.69767c0.32546,0.23691,0.45314,0.52993,0.39034,0.89577
			c-0.00976,0.05688,0.0221,0.12609,0.05235,0.16805c0.02907,0.04034,0.06131,0.06347,0.09581,0.06875
			c0.01324,0.00202,0.02596,0.00306,0.0378,0.00306c0.00001,0,0.00001,0,0.00003,0c0.05595,0,0.08942-0.02304,0.10764-0.04236
			c0.04507-0.04779,0.04116-0.11454,0.03829-0.16329c-0.00061-0.01051-0.00127-0.02073-0.00122-0.03011
			c0.00028-0.0456,0.00043-0.09144,0.00062-0.13722c0.00949,0.02477,0.02262,0.04646,0.03973,0.06466
			c0.04096,0.04352,0.10103,0.0656,0.17856,0.0656c0.02219,0,0.04653-0.00179,0.07235-0.00534
			c0.07439-0.01015,0.15063-0.01509,0.2331-0.01509c0.07952,0,0.16395,0.00449,0.2657,0.01415
			c0.02275,0.00215,0.04422,0.00324,0.06381,0.00324c0.0863,0,0.14914-0.02132,0.19214-0.06518
			c0.04196-0.04283,0.06156-0.10352,0.0599-0.18559c-0.00192-0.09635-0.00147-0.19485-0.00104-0.29011
			c0.00008-0.01651,0.00015-0.03302,0.00023-0.04952h0.00523c0,0-0.00008-0.16824-0.00015-0.21372
			c-0.00019-0.10373-0.00038-0.21099,0.00043-0.3163C14.88773,23.05189,14.86677,22.99137,14.82483,22.94901z M13.69926,24.25886
			c-0.00042,0.06826,0.02904,0.17555-0.09359,0.15679c-0.03626-0.00555-0.09147-0.10191-0.08367-0.14734
			c0.07189-0.4188-0.09255-0.7322-0.42103-0.97133c-0.22252-0.16199-0.2627-0.34585-0.17271-0.61027
			c0.11559-0.33962,0.18066-0.69666,0.26269-1.04732c0.01827-0.0781,0.01302-0.16143,0.02532-0.24132
			c0.00732-0.04754,0.02083-0.12774,0.04372-0.13231c0.04807-0.00959,0.1146,0.0071,0.15522,0.03749
			c0.19885,0.14882,0.29638,0.3515,0.29575,0.60137c-0.00099,0.38946-0.0071,1.1684-0.01052,1.1684
			C13.70044,23.46831,13.70168,23.8636,13.69926,24.25886z M14.80958,23.58165c-0.00169,0-0.00338,0-0.00506,0
			c0,0.13949-0.00213,0.27903,0.00067,0.41846c0.00267,0.13314-0.05876,0.18543-0.23129,0.16906
			c-0.178-0.01689-0.34505-0.02212-0.51655,0.00132c-0.1566,0.0214-0.22883-0.03078-0.21996-0.1765
			c0.01727-0.28394,0.00943-0.56854-0.00367-0.8527c-0.00541-0.11733,0.04552-0.17667,0.15699-0.17718
			c0.22087-0.00102,0.44174-0.0009,0.66261-0.00035c0.10853,0.00027,0.15737,0.05803,0.15656,0.16455
			C14.80873,23.27942,14.80958,23.43053,14.80958,23.58165z"/>
		
			<linearGradient id="SVGID_00000049909817588820094770000011946855273605575067_" gradientUnits="userSpaceOnUse" x1="14.33802" y1="22.71448" x2="14.318" y2="23.93536">
			<stop  offset="0" style="stop-color:#E2EEF0"/>
			<stop  offset="0.50558" style="stop-color:#F0EFF1"/>
			<stop  offset="0.51763" style="stop-color:#E1E1E3"/>
			<stop  offset="0.53432" style="stop-color:#C6C8C8"/>
			<stop  offset="0.59918" style="stop-color:#989896"/>
			<stop  offset="0.6237" style="stop-color:#858482"/>
			<stop  offset="0.64558" style="stop-color:#828082"/>
			<stop  offset="0.70498" style="stop-color:#807D82"/>
			<stop  offset="0.83587" style="stop-color:#94847A"/>
			<stop  offset="0.90048" style="stop-color:#937D72"/>
			<stop  offset="1" style="stop-color:#927B6F"/>
		</linearGradient>
		<path fill="url(#SVGID_00000049909817588820094770000011946855273605575067_)" d="M14.51107,23.17778
			c-0.13246-0.00755-0.26551-0.00472-0.40773-0.00401c-0.0294,0.00014-0.05316,0.02405-0.05316,0.05345v0.66295
			c0,0.03897,0.03159,0.07056,0.07056,0.07056h0.47628c0-0.24071,0.00304-0.47119-0.00379-0.70139
			C14.59236,23.23009,14.54118,23.1795,14.51107,23.17778z M14.52009,23.79079c-0.00009,0.03075-0.00019,0.06164-0.00025,0.09267
			h-0.39239v-0.63254c0.01672-0.00011,0.0333-0.00025,0.04979-0.00038c0.03996-0.0003,0.07928-0.0006,0.11816-0.0006
			c0.08166,0,0.14478,0.00141,0.2031,0.00455c0.0057,0.00387,0.01349,0.01142,0.01777,0.01719
			C14.52115,23.44258,14.52064,23.61182,14.52009,23.79079z"/>
		
			<linearGradient id="SVGID_00000108281923020589272960000009618635280164421816_" gradientUnits="userSpaceOnUse" x1="12.66432" y1="20.62156" x2="13.73176" y2="23.67043">
			<stop  offset="0" style="stop-color:#E2EEF0"/>
			<stop  offset="0.25834" style="stop-color:#F0EFF1"/>
			<stop  offset="0.35269" style="stop-color:#E1E1E3"/>
			<stop  offset="0.48329" style="stop-color:#C6C8C8"/>
			<stop  offset="0.58519" style="stop-color:#989896"/>
			<stop  offset="0.6237" style="stop-color:#858482"/>
			<stop  offset="0.64558" style="stop-color:#828082"/>
			<stop  offset="0.70498" style="stop-color:#807D82"/>
			<stop  offset="0.83587" style="stop-color:#94847A"/>
			<stop  offset="0.90048" style="stop-color:#937D72"/>
			<stop  offset="1" style="stop-color:#927B6F"/>
		</linearGradient>
		<path fill="url(#SVGID_00000108281923020589272960000009618635280164421816_)" d="M13.40238,21.70576
			c-0.10166,0.40298-0.20379,0.80584-0.30384,1.20921c-0.00637,0.02569-0.0073,0.06515,0.00759,0.08172
			c0.10368,0.11541,0.21087,0.22767,0.31742,0.34034c0.01489,0.01574,0.04134,0.00523,0.04134-0.01644
			c0,0-0.01106-1.24191-0.02811-1.61142C13.43585,21.68907,13.4073,21.68625,13.40238,21.70576z M13.17144,22.95375
			c-0.00014-0.00547,0.00041-0.01341,0.00209-0.02017c0.06518-0.26276,0.13214-0.52889,0.19805-0.79008
			c0.00722,0.36362,0.01239,0.81895,0.01469,1.04173C13.31449,23.10929,13.24166,23.03165,13.17144,22.95375z"/>
		<g>
			<g>
				
					<linearGradient id="SVGID_00000132802939076433664480000000683339828539667132_" gradientUnits="userSpaceOnUse" x1="16.38877" y1="22.47976" x2="16.44214" y2="20.13807">
					<stop  offset="0" style="stop-color:#E2EEF0"/>
					<stop  offset="0.50558" style="stop-color:#F0EFF1"/>
					<stop  offset="0.51763" style="stop-color:#E1E1E3"/>
					<stop  offset="0.53432" style="stop-color:#C6C8C8"/>
					<stop  offset="0.59918" style="stop-color:#989896"/>
					<stop  offset="0.6237" style="stop-color:#858482"/>
					<stop  offset="0.64558" style="stop-color:#828082"/>
					<stop  offset="0.70498" style="stop-color:#807D82"/>
					<stop  offset="0.83587" style="stop-color:#94847A"/>
					<stop  offset="0.90048" style="stop-color:#937D72"/>
					<stop  offset="1" style="stop-color:#927B6F"/>
				</linearGradient>
				<path fill="url(#SVGID_00000132802939076433664480000000683339828539667132_)" d="M14.43327,21.30774
					c0.01919,0.01075,0.0409,0.01643,0.06283,0.01643c0,0,0,0,0.00002,0c0.03696,0,0.07209-0.01598,0.09635-0.04377
					c0.01968-0.02253,0.04771-0.05475,0.07535-0.08696l0.13039,0.1392c0.02413,0.02577,0.05822,0.04056,0.09354,0.04056
					c0.03483,0,0.0686-0.01443,0.09266-0.0396l0.12678-0.13267l0.14371,0.15026c0.02439,0.02553,0.05726,0.03958,0.09254,0.03958
					c0.04543,0,0.08652-0.02321,0.10992-0.06207l0.0839-0.13952l0.15214,0.16371c0.02415,0.02604,0.05837,0.04096,0.09386,0.04096
					c0.04332,0,0.08335-0.02156,0.10713-0.05771l0.09262-0.14088l0.14412,0.16225c0.02428,0.02738,0.0592,0.04307,0.09579,0.04307
					c0.04441,0,0.08501-0.02245,0.10862-0.06005l0.09026-0.14395l0.1306,0.14048c0.02415,0.02598,0.05834,0.04086,0.09381,0.04086
					c0.03777,0,0.07341-0.01653,0.09781-0.04535l0.13137-0.15527l0.09641,0.16454c0.02289,0.03907,0.06526,0.06334,0.11056,0.06334
					c0.04081,0,0.0782-0.01877,0.10263-0.05151l0.11648-0.15608l0.15167,0.15867c0.02404,0.02515,0.05777,0.03956,0.09256,0.03956
					c0.03968,0,0.07645-0.0179,0.1009-0.04915l0.10641-0.13599c0.03751,0.03975,0.08511,0.09047,0.12877,0.13776
					c0.02417,0.02619,0.05847,0.04121,0.09409,0.04121c0.04181,0,0.08105-0.02043,0.10501-0.05466l0.10018-0.14312
					c0.0279,0.03375,0.05407,0.06509,0.07237,0.08694c0.02438,0.02909,0.06015,0.04577,0.09813,0.04577
					c0.01936,0,0.03879-0.00451,0.0562-0.013l0.05015-0.02449c0.03507-0.01713,0.06013-0.04877,0.06877-0.08679
					c0.00862-0.03798-0.0003-0.07728-0.02449-0.10782c-0.08588-0.10839-0.15739-0.1981-0.20682-0.25944
					c-0.02443-0.03032-0.06079-0.04771-0.09975-0.04771c-0.02975,0-0.05877,0.01047-0.08171,0.02949l-0.01053,0.00873
					c-0.04332,0.0359-0.08782,0.07281-0.13241,0.10888l-0.12909-0.13375c-0.02402-0.0249-0.05762-0.03917-0.0922-0.03917
					c-0.03273,0-0.0639,0.01236-0.08773,0.03479c-0.03294,0.031-0.08279,0.07688-0.13967,0.12588
					c-0.05077-0.04228-0.11311-0.09354-0.15161-0.12514c-0.02285-0.01877-0.05169-0.02909-0.08122-0.02909
					c-0.03443,0-0.06675,0.01349-0.09103,0.03802c-0.02647,0.02677-0.07409,0.07432-0.1179,0.11486
					c-0.04354-0.04513-0.08133-0.08739-0.10654-0.11628c-0.02434-0.02792-0.05952-0.04394-0.09654-0.04394
					c-0.02956,0-0.05845,0.01038-0.08133,0.02922c-0.03977,0.03275-0.09786,0.08113-0.1572,0.13243
					c-0.05341-0.04658-0.10177-0.09065-0.12724-0.11407c-0.0237-0.02179-0.05447-0.03379-0.08664-0.03379
					c-0.0299,0-0.05903,0.01057-0.08201,0.02973c-0.03605,0.03011-0.08956,0.0742-0.14727,0.1199
					c-0.04624-0.04096-0.09967-0.08916-0.12929-0.11597c-0.0236-0.02138-0.05411-0.03315-0.08592-0.03315
					c-0.03132,0-0.06149,0.01147-0.08496,0.0323c-0.03413,0.03028-0.08792,0.07796-0.13231,0.11701
					c-0.05332-0.04249-0.11422-0.09148-0.15141-0.12146c-0.0227-0.0183-0.05122-0.02839-0.08033-0.02839
					c-0.03326,0-0.06479,0.01272-0.08875,0.03579c-0.03354,0.03228-0.07977,0.07648-0.12075,0.11473
					c-0.05013-0.04658-0.09848-0.08973-0.13169-0.11899c-0.02341-0.02066-0.05349-0.03204-0.08469-0.03204
					c-0.03056,0-0.06017,0.01098-0.08341,0.03094c-0.0347,0.02983-0.08679,0.0749-0.14527,0.12648
					c-0.03768-0.03656-0.0849-0.08007-0.12018-0.11222c-0.02364-0.02151-0.05424-0.03338-0.08618-0.03338
					c-0.0347,0-0.06718,0.01368-0.09149,0.03851c-0.07733,0.07901-0.21472,0.22325-0.26593,0.3014
					c-0.013,0.01981-0.017,0.04358-0.01128,0.06692C14.31552,21.22984,14.34888,21.26052,14.43327,21.30774z M14.38178,21.16596
					c0.0488-0.07445,0.1907-0.22245,0.25653-0.28972c0.01913-0.01955,0.05019-0.02044,0.07041-0.00203
					c0.0374,0.03405,0.0958,0.08783,0.13536,0.12719c0.01906,0.01896,0.04948,0.01987,0.06961,0.00205
					c0.06787-0.06006,0.12765-0.11176,0.1629-0.14206c0.01923-0.01652,0.0476-0.01632,0.06662,0.00044
					c0.03451,0.03043,0.09133,0.08112,0.14801,0.13429c0.01943,0.01823,0.04962,0.01837,0.06918,0.00028
					c0.04686-0.04334,0.10466-0.09865,0.13992-0.13258c0.01844-0.01775,0.04706-0.01901,0.06699-0.00294
					c0.04142,0.03339,0.11214,0.09029,0.16921,0.13564c0.01923,0.01528,0.04662,0.01459,0.06508-0.00161
					c0.0469-0.04117,0.11063-0.09764,0.14925-0.13192c0.01939-0.01721,0.04847-0.01707,0.06769,0.00033
					c0.03724,0.0337,0.09834,0.08878,0.14664,0.13129c0.01837,0.01617,0.04564,0.01698,0.0649,0.00187
					c0.06647-0.05218,0.12936-0.10407,0.16643-0.13502c0.01955-0.01632,0.04807-0.01564,0.06682,0.0016
					c0.03322,0.03054,0.08797,0.08026,0.14624,0.13062c0.01919,0.01658,0.04762,0.01653,0.06674-0.00013
					c0.06593-0.05743,0.13253-0.11285,0.17289-0.14609c0.02125-0.0175,0.05242-0.01488,0.07051,0.00586
					c0.02888,0.03311,0.0748,0.08437,0.12732,0.1378c0.01909,0.01942,0.05003,0.02054,0.07028,0.00234
					c0.04828-0.04338,0.10521-0.09996,0.14004-0.13517c0.01846-0.01866,0.04797-0.02019,0.06826-0.00353
					c0.04284,0.03516,0.11529,0.09475,0.16829,0.13906c0.019,0.01589,0.04671,0.01569,0.06558-0.00036
					c0.0661-0.05625,0.12406-0.10963,0.1594-0.14289c0.02024-0.01905,0.05203-0.01826,0.07133,0.00173
					c0.03596,0.03726,0.09422,0.09764,0.14911,0.1545c0.01055,0.01093,0.02549,0.01716,0.04057,0.01536
					c0.00469-0.00056,0.00889-0.00173,0.01204-0.00424c0.059-0.04714,0.1171-0.09541,0.17525-0.14362
					c0.02181-0.01808,0.0542-0.01483,0.07197,0.00722c0.06664,0.08271,0.1559,0.19518,0.2064,0.25894
					c0.02015,0.02544,0.01157,0.06293-0.01759,0.07716l-0.05016,0.02449c-0.02098,0.01024-0.04622,0.00492-0.06121-0.01298
					c-0.02293-0.02736-0.05838-0.06984-0.09402-0.11323c-0.02135-0.026-0.06162-0.02445-0.08091,0.00311
					c-0.03996,0.05708-0.07825,0.11178-0.12016,0.17165c-0.0186,0.02658-0.05699,0.02918-0.079,0.00534
					c-0.05376-0.05824-0.11259-0.1207-0.15057-0.16085c-0.02135-0.02258-0.05772-0.02079-0.07687,0.00368l-0.12537,0.1602
					c-0.01909,0.02439-0.05536,0.02618-0.07676,0.00379l-0.17327-0.18127c-0.02172-0.02273-0.0586-0.02057-0.0774,0.00463
					c-0.03297,0.04418-0.08432,0.11299-0.13527,0.18127c-0.02175,0.02915-0.06618,0.02668-0.08457-0.0047
					c-0.04029-0.06875-0.08499-0.14503-0.11534-0.19683c-0.01772-0.03024-0.05995-0.03388-0.08259-0.00712
					c-0.04243,0.05016-0.10598,0.12528-0.15552,0.18384c-0.01968,0.02327-0.05527,0.0241-0.07602,0.00178
					c-0.05017-0.05397-0.09718-0.10452-0.15402-0.16566c-0.02275-0.02447-0.06258-0.02077-0.08033,0.00754
					c-0.03473,0.0554-0.06959,0.11099-0.10857,0.17316c-0.01801,0.02872-0.05864,0.03209-0.08115,0.00674
					c-0.06258-0.07047-0.11126-0.12528-0.167-0.18805c-0.0222-0.02501-0.06215-0.02212-0.08052,0.00582
					c-0.03672,0.05584-0.07263,0.11045-0.11158,0.16969c-0.01812,0.02755-0.05733,0.03081-0.07977,0.00666
					c-0.06312-0.06793-0.11401-0.1227-0.17607-0.18948c-0.02302-0.02477-0.06338-0.02058-0.08081,0.0084
					c-0.03391,0.05638-0.06701,0.1114-0.10202,0.16961c-0.01727,0.02872-0.05722,0.03315-0.08038,0.00894
					c-0.06419-0.06713-0.1134-0.11859-0.16283-0.17028c-0.02002-0.02093-0.05348-0.02091-0.07349,0.00003
					c-0.04721,0.04939-0.0935,0.09784-0.1459,0.15266c-0.02016,0.02109-0.05396,0.02092-0.0739-0.00037
					c-0.04972-0.05309-0.09767-0.10428-0.15057-0.16077c-0.02073-0.02213-0.05609-0.02132-0.07578,0.00175
					c-0.03312,0.03882-0.06989,0.0811-0.09402,0.10874c-0.01585,0.01816-0.04217,0.02255-0.0632,0.01078
					C14.43042,21.21758,14.37177,21.18123,14.38178,21.16596z"/>
				
					<linearGradient id="SVGID_00000003827864323177892730000001125317768426275467_" gradientUnits="userSpaceOnUse" x1="16.92904" y1="21.67315" x2="16.94238" y2="22.40701">
					<stop  offset="0" style="stop-color:#E2EEF0"/>
					<stop  offset="0.50558" style="stop-color:#F0EFF1"/>
					<stop  offset="0.51763" style="stop-color:#E1E1E3"/>
					<stop  offset="0.53432" style="stop-color:#C6C8C8"/>
					<stop  offset="0.59918" style="stop-color:#989896"/>
					<stop  offset="0.6237" style="stop-color:#858482"/>
					<stop  offset="0.64558" style="stop-color:#828082"/>
					<stop  offset="0.70498" style="stop-color:#807D82"/>
					<stop  offset="0.83587" style="stop-color:#94847A"/>
					<stop  offset="0.90048" style="stop-color:#937D72"/>
					<stop  offset="1" style="stop-color:#927B6F"/>
				</linearGradient>
				<path fill="url(#SVGID_00000003827864323177892730000001125317768426275467_)" d="M16.84442,22.04847
					c-0.0244,0.1104,0.12088,0.26835,0.1878,0.29612c0.01353-0.05645-0.02075-0.1719-0.03539-0.2163
					C16.99569,22.05378,16.91224,21.9443,16.84442,22.04847z"/>
			</g>
			<g>
				<g>
					
						<linearGradient id="SVGID_00000097502538233102267480000005751089270823701678_" gradientUnits="userSpaceOnUse" x1="17.60026" y1="26.49653" x2="17.6136" y2="21.65303">
						<stop  offset="0" style="stop-color:#E2EEF0"/>
						<stop  offset="0.50558" style="stop-color:#F0EFF1"/>
						<stop  offset="0.51763" style="stop-color:#E1E1E3"/>
						<stop  offset="0.53432" style="stop-color:#C6C8C8"/>
						<stop  offset="0.59918" style="stop-color:#989896"/>
						<stop  offset="0.6237" style="stop-color:#858482"/>
						<stop  offset="0.64558" style="stop-color:#828082"/>
						<stop  offset="0.70498" style="stop-color:#807D82"/>
						<stop  offset="0.83587" style="stop-color:#94847A"/>
						<stop  offset="0.86158" style="stop-color:#85746B"/>
						<stop  offset="0.89918" style="stop-color:#75645B"/>
						<stop  offset="0.94185" style="stop-color:#6C5B52"/>
						<stop  offset="1" style="stop-color:#69584F"/>
					</linearGradient>
					<path fill="url(#SVGID_00000097502538233102267480000005751089270823701678_)" d="M18.68483,24.44473
						c0-0.55349-0.03009-1.09995-0.05919-1.62884c-0.00657-0.11911-0.01313-0.23831-0.01938-0.35775l-0.00017-0.00247
						c-0.00585-0.06935-0.00751-0.14625-0.00928-0.22766c-0.00545-0.2528-0.01166-0.53931-0.15058-0.73731l-0.03575-0.05098
						l-0.05741,0.02409c-0.03673,0.01541-0.05781,0.04811-0.06984,0.10001c-0.04192-0.09794-0.07701-0.11456-0.12094-0.11456
						c-0.02502,0-0.04873,0.01038-0.06677,0.02919c-0.02734,0.02853-0.07743,0.08079-0.05511,0.69084
						c-0.03975,0.00647-0.08541,0.01113-0.13278,0.01596c-0.13961,0.01424-0.29783,0.0304-0.40286,0.1039l-0.02962,0.02073
						l-0.00306,0.03604c-0.00904,0.10624,0.1342,0.31039,0.21595,0.35541l0.00343,0.00189l0.0036,0.00153
						c0.07856,0.03343,0.15952,0.05243,0.23802,0.07047c-0.05602,0.15063-0.07677,0.30296-0.08852,0.45997
						c-0.09556-0.21557-0.22723-0.43492-0.44427-0.43492c-0.00981,0-0.01981,0.00047-0.02975,0.00142
						c-0.03258-0.04085-0.08111-0.16727-0.11147-0.27011c0.00626-0.00181,0.01243-0.00353,0.01811-0.00513
						c0.07701-0.02162,0.16431-0.04613,0.18806-0.12467c0.01415-0.04677-0.00023-0.09556-0.04273-0.14503l-0.02145-0.02498
						l-0.02128-0.00117c-0.02047-0.00838-0.03796-0.01468-0.05783-0.01468c-0.01709,0-0.03302,0.00491-0.04622,0.01372
						c-0.00966,0.00485-0.02809,0.01409-0.04987,0.02473c-0.00851-0.12918-0.05021-0.27457-0.13084-0.36733
						c-0.05179-0.05962-0.11526-0.09113-0.18354-0.09113c-0.08324,0-0.16754,0.04655-0.25053,0.13835l-0.00455,0.00502
						l-0.0036,0.00575c-0.10488,0.16722,0.02234,0.32824,0.14075,0.44835c-0.06664,0.02111-0.13701,0.05385-0.18257,0.12786
						l-0.07905,0.12841l0.13828-0.00994c0.01579,0.02341,0.043,0.05202,0.08882,0.05202c0.01055,0,0.02109-0.0017,0.03143-0.00504
						c0.03194-0.00977,0.06241-0.02323,0.09186-0.03624c0.02139-0.00943,0.04319-0.01907,0.06328-0.02592
						c0.31555,0.79069,0.35132,1.25728,0.3729,1.53873c0.01468,0.19127,0.02353,0.30673,0.11301,0.38418
						c0.08688,0.0752,0.22516,0.08843,0.48354,0.08843c0.08567,0,0.1864-0.00159,0.30306-0.00341
						c0.09096-0.00143,0.19238-0.00302,0.3056-0.00417c0.006,0.00108,0.01291,0.00183,0.02055,0.00183
						c0.04356,0,0.08413-0.02411,0.11129-0.06613L18.68483,24.44473z M18.59067,24.52201
						c-0.02713,0.04195-0.05812,0.02888-0.05812,0.02888c-1.80356,0.01783-0.65515,0.15118-1.53868-2.01327
						c-0.07026-0.00179-0.15007,0.05211-0.22673,0.07538c-0.03076,0.01044-0.03999-0.03946-0.05705-0.05367l-0.03329,0.0024
						c0.05735-0.09316,0.17881-0.09891,0.26434-0.13169c-0.11857-0.11815-0.32141-0.28681-0.22285-0.44396
						c0.29557-0.32694,0.46323,0.13479,0.42722,0.3904c0.05916-0.02404,0.17108-0.08092,0.17234-0.08156
						c0.00342-0.00756,0.04131,0.01191,0.04605,0.01217c0.11111,0.12933-0.12552,0.13171-0.19742,0.17744
						c0.01511,0.06412,0.12368,0.44283,0.2079,0.39443c0.28835-0.03106,0.41809,0.45957,0.52728,0.69191
						c0.02171-0.29881,0.01203-0.5822,0.13792-0.84988c-0.10529-0.02659-0.21358-0.04452-0.31428-0.08735
						c-0.06227-0.03429-0.18211-0.21201-0.17624-0.28117c0.13935-0.09754,0.41775-0.07818,0.57112-0.12122
						c-0.02012-0.47626-0.01688-1.20679,0.21574-0.19912c0.02352-0.06643-0.0154-0.47086,0.04704-0.49706
						c0.16728,0.23841,0.12188,0.64022,0.14614,0.92711c0.03502,0.67026,0.08003,1.33262,0.07841,2.01856
						c-0.007,0.01536-0.01424,0.03054-0.01972,0.04126H18.59067z"/>
					
						<linearGradient id="SVGID_00000030460214629714182500000008019611410023823495_" gradientUnits="userSpaceOnUse" x1="17.58166" y1="21.1135" x2="18.29551" y2="25.1164">
						<stop  offset="0" style="stop-color:#E2EEF0"/>
						<stop  offset="0.12164" style="stop-color:#E2EEF0"/>
						<stop  offset="0.14166" style="stop-color:#E2EEF0"/>
						<stop  offset="0.23798" style="stop-color:#E1ECEE"/>
						<stop  offset="0.27418" style="stop-color:#DBE6E7"/>
						<stop  offset="0.30026" style="stop-color:#D2DBDB"/>
						<stop  offset="0.32147" style="stop-color:#C4CBCA"/>
						<stop  offset="0.33971" style="stop-color:#B3B6B4"/>
						<stop  offset="0.35592" style="stop-color:#9E9C98"/>
						<stop  offset="0.37063" style="stop-color:#847D78"/>
						<stop  offset="0.38374" style="stop-color:#685B53"/>
						<stop  offset="0.39385" style="stop-color:#4D3B31"/>
						<stop  offset="0.40272" style="stop-color:#6E5F57"/>
						<stop  offset="0.41377" style="stop-color:#908580"/>
						<stop  offset="0.42552" style="stop-color:#AEA6A3"/>
						<stop  offset="0.43789" style="stop-color:#C6C1BF"/>
						<stop  offset="0.45109" style="stop-color:#D9D5D5"/>
						<stop  offset="0.46552" style="stop-color:#E6E4E5"/>
						<stop  offset="0.48207" style="stop-color:#EEECEE"/>
						<stop  offset="0.50558" style="stop-color:#F0EFF1"/>
						<stop  offset="0.51763" style="stop-color:#E1E1E3"/>
						<stop  offset="0.53432" style="stop-color:#C6C8C8"/>
						<stop  offset="0.59918" style="stop-color:#989896"/>
						<stop  offset="0.6237" style="stop-color:#858482"/>
						<stop  offset="0.64558" style="stop-color:#828082"/>
						<stop  offset="0.70498" style="stop-color:#807D82"/>
						<stop  offset="0.83587" style="stop-color:#4D3B31"/>
						<stop  offset="0.85351" style="stop-color:#604C42"/>
						<stop  offset="0.88069" style="stop-color:#756055"/>
						<stop  offset="0.91057" style="stop-color:#856E63"/>
						<stop  offset="0.94487" style="stop-color:#8E766B"/>
						<stop  offset="0.99361" style="stop-color:#91796E"/>
					</linearGradient>
					<path fill="url(#SVGID_00000030460214629714182500000008019611410023823495_)" d="M18.34452,22.38447l-0.24796-0.03424
						c-0.1545,0.00654-0.36512,0.03374-0.3905,0.05577c0.06471,0.15615,0.44856,0.20593,0.55008,0.22995
						c-0.00515,0.07404,0.01292,0.18368-0.03882,0.22822c-0.23225,0.21392-0.10062,0.51066-0.05915,0.77185
						c0.02306,0.14722,0.0143,0.29995,0.00901,0.44824l-0.16709,0.03641l-0.45816-0.91717
						c-0.0253-0.05062-0.08069-0.07715-0.13517-0.06621c0.03189,0.20996,0.12058,0.41099,0.14867,0.62209
						c0.08205,0.60712,0.07098,0.60094,0.68244,0.57935c0.08126,0.01629,0.14946-0.06751,0.14046-0.11661
						C18.37189,23.56165,18.39075,22.9576,18.34452,22.38447z M18.20944,22.54753c-0.06926-0.01347-0.23944-0.04656-0.34564-0.09879
						c0.06473-0.00894,0.14748-0.01728,0.22914-0.021l0.17929,0.02475c0.00262,0.03638,0.005,0.07288,0.00717,0.10956
						l-0.00545-0.0013C18.25744,22.55685,18.23625,22.55274,18.20944,22.54753z M18.25861,24.26351
						c-0.00185,0-0.00366-0.00019-0.00553-0.00057l-0.00889-0.00177l-0.02836,0.001
						c-0.09107,0.00323-0.16971,0.00602-0.23431,0.00602c-0.17567,0-0.22448-0.02272-0.2531-0.06464
						c-0.04373-0.06405-0.06207-0.19997-0.09245-0.42512l-0.00394-0.02924c-0.01526-0.1148-0.04728-0.22576-0.07826-0.33307
						c-0.00364-0.01264-0.00726-0.02519-0.01083-0.03766l0.41486,0.83051l0.28445-0.06198l0.0037-0.10224
						c0.00521-0.13769,0.01058-0.28008-0.01147-0.42084c-0.00832-0.05249-0.02013-0.10629-0.03155-0.15831
						c-0.04724-0.21529-0.08805-0.40128,0.06598-0.54389c0.00945-0.0083,0.01751-0.0174,0.02438-0.02707
						c0.00685,0.25351,0.00658,0.51436,0.0063,0.78419c-0.00017,0.17614-0.00036,0.3583,0.00145,0.54404l0.00008,0.00664
						l0.00028,0.00162C18.29744,24.24223,18.27836,24.26351,18.25861,24.26351z"/>
				</g>
				
					<linearGradient id="SVGID_00000172424003231369751750000013064307654845200010_" gradientUnits="userSpaceOnUse" x1="16.83668" y1="20.11949" x2="15.24219" y2="24.26248">
					<stop  offset="0" style="stop-color:#E2EEF0"/>
					<stop  offset="0.50558" style="stop-color:#F0EFF1"/>
					<stop  offset="0.51763" style="stop-color:#E1E1E3"/>
					<stop  offset="0.53432" style="stop-color:#C6C8C8"/>
					<stop  offset="0.59918" style="stop-color:#989896"/>
					<stop  offset="0.6237" style="stop-color:#858482"/>
					<stop  offset="0.64558" style="stop-color:#828082"/>
					<stop  offset="0.70498" style="stop-color:#807D82"/>
					<stop  offset="0.83587" style="stop-color:#94847A"/>
					<stop  offset="0.90048" style="stop-color:#937D72"/>
					<stop  offset="1" style="stop-color:#927B6F"/>
				</linearGradient>
				<path fill="url(#SVGID_00000172424003231369751750000013064307654845200010_)" d="M16.10962,22.84097
					c-0.03105-0.03234-0.08606-0.01775-0.09626,0.0259c-0.01736,0.07427-0.04867,0.14643-0.08575,0.21171
					c-0.01528,0.02691-0.05782,0.03471-0.07935,0.01023c-0.10213-0.11615-0.17756-0.25288-0.21673-0.4029
					c-0.01943-0.07443-0.03036-0.15182-0.03202-0.22874c-0.00043-0.01976-0.00202-0.04724-0.00202-0.07611
					c0-0.01163-0.00375-0.02288-0.0103-0.03249c-0.05789-0.08494-0.09482-0.18581-0.09219-0.31613
					c0.00047-0.0233-0.03617-0.04734-0.08191-0.07156c-0.07253-0.03841-0.17947-0.06053-0.2258,0.00722
					c-0.01541,0.02253-0.30408,0.00997-0.32402,0.0997c-0.00763,0.03433,0.28396,0.13718,0.28765,0.16602
					c0.07084,0.55303,0.3688,0.94342,0.65155,1.40492c0.042,0.06855,0.10482,0.15277,0.17367,0.17118
					c0.17951,0.04801,0.36415,0.07681,0.54802,0.1085c0.05541-0.06023,0.07277-0.07909,0.12818-0.13932
					c-0.00967-0.03735-0.01974-0.07458-0.03178-0.11115C16.51539,23.34849,16.33825,23.07916,16.10962,22.84097z M16.49574,23.83516
					l-0.03034-0.00517c-0.15565-0.02649-0.3166-0.05388-0.46931-0.09473c-0.0123-0.00328-0.0579-0.02289-0.12773-0.13688
					c-0.04392-0.07169-0.08854-0.14218-0.13169-0.21036c-0.23214-0.36684-0.45139-0.71333-0.50912-1.16402
					c-0.00713-0.0556-0.05264-0.07664-0.17423-0.1329c-0.0114-0.00528-0.02485-0.01151-0.03875-0.01805
					c0.03645-0.00609,0.07522-0.01015,0.09645-0.01238c0.07643-0.00802,0.1148-0.01204,0.14005-0.04894
					c0.00168-0.00245,0.00681-0.00996,0.03079-0.00996c0.02711,0,0.06266,0.01025,0.09505,0.02741
					c0.02124,0.01124,0.0336,0.01898,0.04071,0.024c0.00134,0.12375,0.035,0.23338,0.10262,0.33434
					c0.00013,0.0176,0.00075,0.03454,0.0013,0.04951c0.0003,0.00798,0.00057,0.01536,0.00072,0.02181
					c0.00179,0.08279,0.0134,0.16576,0.03451,0.24661c0.04162,0.15937,0.12016,0.30553,0.23348,0.43443
					c0.0229,0.02604,0.05651,0.04098,0.09216,0.04098c0.04688,0,0.08994-0.02456,0.11239-0.06407
					c0.03741-0.06585,0.06565-0.1315,0.08424-0.19572c0.22263,0.23836,0.3759,0.49093,0.46812,0.77108
					c0.00713,0.02162,0.0136,0.04387,0.01962,0.06584L16.49574,23.83516z"/>
				
					<linearGradient id="SVGID_00000152243027461947724610000013305118502000057501_" gradientUnits="userSpaceOnUse" x1="15.84774" y1="27.90837" x2="15.71529" y2="19.98441">
					<stop  offset="0" style="stop-color:#E2EEF0"/>
					<stop  offset="0.28062" style="stop-color:#E2EEF0"/>
					<stop  offset="0.32682" style="stop-color:#E2EEF0"/>
					<stop  offset="0.37728" style="stop-color:#E1ECEE"/>
					<stop  offset="0.39684" style="stop-color:#DCE6E7"/>
					<stop  offset="0.41103" style="stop-color:#D5DBDB"/>
					<stop  offset="0.42264" style="stop-color:#CACCCA"/>
					<stop  offset="0.43266" style="stop-color:#BCB8B3"/>
					<stop  offset="0.44157" style="stop-color:#AB9F98"/>
					<stop  offset="0.4495" style="stop-color:#978378"/>
					<stop  offset="0.45132" style="stop-color:#927B6F"/>
					<stop  offset="0.45236" style="stop-color:#9B867B"/>
					<stop  offset="0.45558" style="stop-color:#B1A29A"/>
					<stop  offset="0.45922" style="stop-color:#C5BAB6"/>
					<stop  offset="0.46334" style="stop-color:#D5CECC"/>
					<stop  offset="0.46814" style="stop-color:#E1DDDD"/>
					<stop  offset="0.47409" style="stop-color:#EAE7E8"/>
					<stop  offset="0.48243" style="stop-color:#EFEDEF"/>
					<stop  offset="0.50558" style="stop-color:#F0EFF1"/>
					<stop  offset="0.51763" style="stop-color:#E1E1E3"/>
					<stop  offset="0.53432" style="stop-color:#C6C8C8"/>
					<stop  offset="0.59918" style="stop-color:#989896"/>
					<stop  offset="0.6237" style="stop-color:#858482"/>
					<stop  offset="0.64558" style="stop-color:#828082"/>
					<stop  offset="0.70498" style="stop-color:#807D82"/>
					<stop  offset="0.83587" style="stop-color:#94847A"/>
					<stop  offset="0.90048" style="stop-color:#937D72"/>
					<stop  offset="1" style="stop-color:#927B6F"/>
				</linearGradient>
				<path fill="url(#SVGID_00000152243027461947724610000013305118502000057501_)" d="M16.93349,23.90622
					c-0.01888-0.09824-0.03673-0.19103-0.06215-0.28149c-0.12195-0.43439-0.38579-0.82214-0.80653-1.1854
					c-0.16156-0.1395-0.26274-0.25876-0.30189-0.45563c-0.04611-0.23208-0.20004-0.37624-0.40169-0.37624
					c-0.13048,0-0.26461,0.06251-0.37767,0.17599c-0.02464,0.02475-0.07022,0.04053-0.11848,0.05722
					c-0.03145,0.01089-0.06398,0.02215-0.09539,0.03736c-0.04064,0.01968-0.07905,0.04126-0.1215,0.06541
					c-0.03443,0.01962-0.05832,0.05322-0.06556,0.09216c-0.00721,0.03889,0.00302,0.07875,0.02806,0.10937l0.00145,0.00177
					c0.03813,0.04662,0.08133,0.09947,0.14559,0.11888c0.12152,0.03668,0.17391,0.10335,0.20759,0.26421
					c0.03717,0.17757,0.1143,0.34513,0.18886,0.50718l0.00743,0.01611c0.07537,0.16395,0.15499,0.32887,0.23199,0.48837
					c0.09794,0.20293,0.19923,0.41275,0.29219,0.62143c0.00911,0.02043,0.02096,0.04081,0.03353,0.06237
					c0.0136,0.02338,0.04973,0.08545,0.04375,0.10152c-0.00079,0.00172-0.00855,0.00987-0.03198,0.01847
					c-0.05635,0.0207-0.1345,0.02147-0.20346,0.02215c-0.05554,0.00056-0.10352,0.00104-0.14358,0.01079
					c-0.03687,0.00898-0.05634,0.03713-0.06362,0.04766c-0.02832,0.04085-0.03153,0.09364-0.0084,0.13782
					c0.0233,0.04451,0.0689,0.07215,0.12016,0.07215l0.02051-0.00007c0.11688,0,0.37232,0.0057,0.44867,0.00887
					c0.01962,0.00083,0.03955,0.00123,0.05949,0.00123c0.12478,0,0.24532-0.01483,0.31464-0.03868
					c0.11348-0.03911,0.06903-0.17057,0.03962-0.25757c-0.0147-0.04345-0.0299-0.08839-0.03494-0.1259
					c-0.00332-0.02468-0.008-0.04854-0.01343-0.07364h0.55151c0.04026,0,0.078-0.01785,0.10354-0.04894
					c0.0256-0.03115,0.03577-0.07171,0.02794-0.11128C16.94405,23.96119,16.93871,23.93336,16.93349,23.90622z M16.81825,24.07281
					h-0.57695c-0.03643,0-0.06343,0.0338-0.05546,0.06934c0.00739,0.03295,0.01375,0.06226,0.01775,0.09188
					c0.01639,0.12165,0.11148,0.2778,0.04674,0.30009c-0.07104,0.02446-0.21535,0.03874-0.34575,0.03332
					c-0.08329-0.00347-0.37146-0.00972-0.47303-0.00886c-0.04573,0.00039-0.07366-0.05108-0.04762-0.08867
					c0.0067-0.00967,0.0121-0.01507,0.01843-0.01661c0.0784-0.01909,0.24046,0.00674,0.35536-0.03547
					c0.16663-0.06122,0.03683-0.20066-0.00135-0.28636c-0.16658-0.37389-0.35351-0.73866-0.52457-1.11063
					c-0.07544-0.16404-0.15427-0.33208-0.19085-0.50683c-0.03451-0.16484-0.09258-0.27156-0.26091-0.32236
					c-0.04228-0.01276-0.07584-0.05439-0.10954-0.09559c-0.02231-0.02728-0.01467-0.06802,0.01595-0.08546
					c0.03852-0.02194,0.07712-0.04374,0.11692-0.06302c0.07822-0.03789,0.17772-0.05215,0.23494-0.10958
					c0.2507-0.25163,0.57907-0.19019,0.64882,0.16077c0.0456,0.22941,0.16985,0.36324,0.32716,0.49905
					c0.36234,0.31283,0.65082,0.67824,0.78266,1.1478c0.03133,0.11158,0.0507,0.22651,0.07697,0.35927
					C16.88088,24.04003,16.85408,24.07281,16.81825,24.07281z"/>
			</g>
			
				<linearGradient id="SVGID_00000102539247288799659500000011941340176210266272_" gradientUnits="userSpaceOnUse" x1="15.68559" y1="22.11875" x2="15.9191" y2="23.03942">
				<stop  offset="0" style="stop-color:#E2EEF0"/>
				<stop  offset="0.50558" style="stop-color:#F0EFF1"/>
				<stop  offset="0.51763" style="stop-color:#E1E1E3"/>
				<stop  offset="0.53432" style="stop-color:#C6C8C8"/>
				<stop  offset="0.59918" style="stop-color:#989896"/>
				<stop  offset="0.6237" style="stop-color:#858482"/>
				<stop  offset="0.64558" style="stop-color:#828082"/>
				<stop  offset="0.70498" style="stop-color:#807D82"/>
				<stop  offset="0.83587" style="stop-color:#94847A"/>
				<stop  offset="0.90048" style="stop-color:#937D72"/>
				<stop  offset="1" style="stop-color:#927B6F"/>
			</linearGradient>
			<path fill="url(#SVGID_00000102539247288799659500000011941340176210266272_)" d="M15.8104,22.86201
				c0.02528,0.04542,0.09265,0.03564,0.10516-0.01481c0.01386-0.05587,0.01809-0.11328,0.00578-0.16824
				c-0.00284-0.01266-0.0096-0.02414-0.01963-0.03237c-0.02897-0.02377-0.05852-0.04721-0.08781-0.07093
				c-0.07769,0.04893-0.01362,0.00858-0.09132,0.0575c0.00373,0.0161,0.00789,0.03211,0.01248,0.04801
				C15.75331,22.74449,15.77867,22.80501,15.8104,22.86201z M15.84718,22.70184c0.00408,0.02113,0.00513,0.04394,0.00319,0.06826
				c-0.01426-0.03102-0.02649-0.06288-0.03656-0.0953C15.82497,22.68378,15.8361,22.69278,15.84718,22.70184z"/>
			
				<linearGradient id="SVGID_00000040543643455439500530000010473737665982773937_" gradientUnits="userSpaceOnUse" x1="15.95714" y1="24.02464" x2="16.01051" y2="24.36488">
				<stop  offset="0" style="stop-color:#E2EEF0"/>
				<stop  offset="0.50558" style="stop-color:#F0EFF1"/>
				<stop  offset="0.51763" style="stop-color:#E1E1E3"/>
				<stop  offset="0.53432" style="stop-color:#C6C8C8"/>
				<stop  offset="0.59918" style="stop-color:#989896"/>
				<stop  offset="0.6237" style="stop-color:#858482"/>
				<stop  offset="0.64558" style="stop-color:#828082"/>
				<stop  offset="0.70498" style="stop-color:#807D82"/>
				<stop  offset="0.83587" style="stop-color:#94847A"/>
				<stop  offset="0.90048" style="stop-color:#937D72"/>
				<stop  offset="1" style="stop-color:#927B6F"/>
			</linearGradient>
			<path fill="url(#SVGID_00000040543643455439500530000010473737665982773937_)" d="M16.0474,24.24999
				c-0.01293-0.07115-0.12049-0.05329-0.11205,0.01854c0.00057,0.00487,0.0006,0.00984,0.00172,0.01464
				c0.04033,0.17244,0.17492,0.13465,0.11332-0.00698C16.04699,24.26838,16.04902,24.25894,16.0474,24.24999z"/>
		</g>
	</g>
	
		<linearGradient id="SVGID_00000170272133782156386980000010211645660586955922_" gradientUnits="userSpaceOnUse" x1="16.06076" y1="16.0788" x2="16.06076" y2="19.68496">
		<stop  offset="0" style="stop-color:#D8EDF0"/>
		<stop  offset="0.35381" style="stop-color:#E8EEF1"/>
		<stop  offset="0.50558" style="stop-color:#F0EFF1"/>
		<stop  offset="0.51763" style="stop-color:#E1E1E3"/>
		<stop  offset="0.53432" style="stop-color:#C6C8C8"/>
		<stop  offset="0.59918" style="stop-color:#989896"/>
		<stop  offset="0.6237" style="stop-color:#858482"/>
		<stop  offset="0.64558" style="stop-color:#828082"/>
		<stop  offset="0.70498" style="stop-color:#807D82"/>
		<stop  offset="0.83587" style="stop-color:#94847A"/>
		<stop  offset="0.90048" style="stop-color:#937D72"/>
		<stop  offset="1" style="stop-color:#927B6F"/>
	</linearGradient>
	<path opacity="0.53" fill="url(#SVGID_00000170272133782156386980000010211645660586955922_)" d="M7.45522,17.00453
		l-0.03049-0.03915l-0.03049,0.03915l-1.10106,1.41396L6.2688,18.44981l0.03198,0.02353l0.3525,0.25942l0.03075,0.02263
		l0.023-0.03048l0.71772-0.95126l0.71772,0.95126l0.023,0.03048l0.03075-0.02263l0.3525-0.25942l0.03198-0.02353l-0.02439-0.03133
		L7.45522,17.00453z M8.1733,18.70165l-0.74857-0.99214l-0.74856,0.99214l-0.3525-0.25942l1.10106-1.41395l1.10106,1.41395
		L8.1733,18.70165z M11.6666,17.12331h-0.03864v0.03864v0.66934l-1.27974-0.79132l-0.05896-0.03646v0.06932v1.57436v0.03864h0.03864
		h0.47528h0.03864v-0.03864v-0.66934l1.27974,0.79132l0.05896,0.03646v-0.06932v-1.57436v-0.03864h-0.03864H11.6666z
		 M12.14188,18.73631l-1.3387-0.82777v0.73866H10.3279v-1.57436l1.3387,0.82777v-0.73866h0.47528V18.73631z M25.52373,17.74464
		c-0.20947-0.07896-0.50223-0.1046-0.76099-0.11926c-0.0695-0.00414-0.14003-0.00959-0.18442-0.02131
		c-0.02829-0.00747-0.03856-0.01565-0.03856-0.01933c0-0.01317,0.05797-0.06236,0.34159-0.06236
		c0.23026,0,0.47353,0.04334,0.65075,0.11594l0.03509,0.01438l0.01503-0.03482l0.15645-0.3624L25.75398,17.22l-0.03549-0.01531
		c-0.23267-0.10037-0.51942-0.15565-0.80744-0.15565c-0.58712,0-0.92384,0.20392-0.92384,0.55946
		c0,0.3795,0.39498,0.481,1.03228,0.52176c0.08743,0.00564,0.15327,0.0103,0.20432,0.01896
		c0.06786,0.01151,0.0762,0.02538,0.07652,0.02597c-0.00016,0.01566-0.08767,0.06204-0.35561,0.06204
		c-0.28852,0-0.55284-0.0554-0.78561-0.16466l-0.03481-0.01634l-0.01651,0.03473l-0.17229,0.3624l-0.01665,0.03503l0.0351,0.01652
		c0.18763,0.08829,0.49201,0.20567,0.96701,0.20567c0.58344,0,0.93176-0.20841,0.93176-0.55749
		C25.85272,17.9617,25.7451,17.82809,25.52373,17.74464z M24.92095,18.67195c-0.4535,0-0.74856-0.10694-0.95056-0.202
		l0.17229-0.3624c0.19408,0.0911,0.45943,0.16833,0.80203,0.16833c0.18417,0,0.39409-0.02376,0.39409-0.101
		c0-0.06139-0.13268-0.07129-0.31685-0.08317c-0.68123-0.04357-0.9961-0.15843-0.9961-0.4832
		c0-0.38022,0.4119-0.52082,0.8852-0.52082c0.31091,0,0.59014,0.06535,0.79214,0.15248l-0.15645,0.3624
		c-0.16437-0.06734-0.40795-0.11882-0.66539-0.11882c-0.19605,0-0.38022,0.02376-0.38022,0.101
		c0,0.05545,0.09308,0.06931,0.25943,0.07921c0.5941,0.03366,1.05353,0.11486,1.05353,0.48914
		C25.81408,18.50163,25.44178,18.67195,24.92095,18.67195z M19.53328,17.86869c0.13166-0.07341,0.19825-0.1839,0.19825-0.32949
		c0-0.32906-0.32325-0.4758-1.04812-0.4758h-0.0188h-0.0197c-0.19478,0-0.48914,0-0.70734,0.01545l-0.03591,0.00254v0.036v1.52485
		v0.036l0.03591,0.00254c0.0681,0.00482,0.14814,0.00717,0.2447,0.00717c0.08793,0,0.17755-0.00188,0.26422-0.00371
		c0.07961-0.00167,0.15481-0.00326,0.22257-0.00326c0.39258,0,0.67035-0.03945,0.84919-0.12059
		c0.1678-0.07614,0.25289-0.19385,0.25289-0.34986C19.77114,18.05596,19.69123,17.9413,19.53328,17.86869z M18.66907,18.64234
		c-0.14227,0-0.31873,0.00697-0.48679,0.00697c-0.0846,0-0.16704-0.00176-0.24197-0.00707v-1.52485
		c0.21066-0.01491,0.49372-0.01535,0.70461-0.01535c0.01313,0,0.02597,0,0.03851,0c0.80401,0,1.00948,0.18368,1.00948,0.43716
		c0,0.17426-0.10496,0.27526-0.25943,0.33269c0.17625,0.05545,0.29903,0.15645,0.29903,0.33863
		C19.7325,18.47391,19.47308,18.64234,18.66907,18.64234z M21.61382,17.09855h-0.03864v0.03864v1.48525v0.03864h0.03864h0.47528
		h0.03864v-0.03864v-1.48525v-0.03864H22.0891H21.61382z M22.0891,18.62244h-0.47528v-1.48525h0.47528V18.62244z M15.50449,17.09855
		h-0.03864v0.03864v0.70104c0,0.23744-0.15878,0.3792-0.42475,0.3792c-0.26597,0-0.42476-0.14176-0.42476-0.3792v-0.70104v-0.03864
		H14.5777h-0.47528h-0.03864v0.03864v0.76045c0,0.25763,0.10031,0.4697,0.2901,0.61328
		c0.17266,0.13062,0.41029,0.19967,0.68722,0.19967c0.27692,0,0.51456-0.06904,0.68721-0.19967
		c0.18978-0.14358,0.2901-0.35565,0.2901-0.61328v-0.76045v-0.03864h-0.03864H15.50449z M15.97977,17.89764
		c0,0.52083-0.41983,0.77431-0.93867,0.77431c-0.51885,0-0.93868-0.25348-0.93868-0.77431v-0.76045h0.47528v0.70104
		c0,0.2614,0.18219,0.41784,0.4634,0.41784s0.46339-0.15644,0.46339-0.41784v-0.70104h0.47528V17.89764z M18.71461,18.04814
		c-0.11882,0-0.21586,0-0.29903,0.00198v0.22576c0.03629,0.00259,0.07819,0.00332,0.12342,0.00332
		c0.05843,0,0.12244-0.00122,0.18718-0.00122c0.42181,0,0.53103-0.04171,0.53103-0.11894
		C19.25722,18.08775,19.15623,18.04814,18.71461,18.04814z M18.72619,18.23934c-0.03333,0-0.06646,0.00032-0.09875,0.00064
		c-0.03043,0.0003-0.06009,0.00058-0.08844,0.00058c-0.03371,0-0.06116-0.00041-0.08478-0.00131v-0.15126
		c0.07379-0.00122,0.15792-0.00122,0.26039-0.00122c0.33441,0,0.50397,0.02431,0.50397,0.07226
		C19.21858,18.21232,19.05292,18.23934,18.72619,18.23934z M19.21761,17.60059c0-0.07724-0.10429-0.12101-0.48648-0.12101
		c-0.04288,0-0.08615-0.00025-0.12784-0.00025c-0.06999,0-0.13559,0.0007-0.1877,0.00442v0.22576
		c0.08317,0.00198,0.18021,0.00198,0.29903,0.00198C19.11662,17.71149,19.21761,17.67188,19.21761,17.60059z M18.45422,17.52028
		c0.04589-0.00198,0.09825-0.00231,0.14906-0.00231c0.02067,0,0.04172,0.00006,0.06292,0.00012
		c0.02157,0.00006,0.0433,0.00013,0.06493,0.00013c0.29717,0,0.44784,0.02771,0.44784,0.08237
		c0,0.03296-0.08056,0.07226-0.46436,0.07226c-0.10247,0-0.1866,0-0.26039-0.00122V17.52028z"/>
</g>
<g>
	
		<rect x="10.837" y="12.1196" transform="matrix(0.70711 -0.70711 0.70711 0.70711 -6.73728 11.81635)" fill="#231F20" width="0.1159" height="3.84236"/>
	
		<rect x="19.27291" y="14.05444" transform="matrix(0.70711 -0.70711 0.70711 0.70711 -3.77136 19.1199)" fill="#231F20" width="3.84236" height="0.1159"/>
</g>
</svg>
