<svg width="45" height="64" viewBox="0 0 45 64" fill="none" xmlns="http://www.w3.org/2000/svg">
<rect x="38.9565" y="17.6232" width="5.56522" height="10.2029" fill="white"/>
<rect x="29.6812" y="17.6232" width="5.56522" height="10.2029" fill="white"/>
<rect x="9.27539" y="17.6232" width="5.56522" height="10.2029" fill="white"/>
<rect y="17.6232" width="5.56522" height="10.2029" fill="white"/>
<rect x="19.4783" y="17.6232" width="5.56522" height="10.2029" fill="white"/>
<path d="M44.5215 63.9995H28.7539C28.7539 63.9392 28.7539 58.4097 28.7539 53.7974C28.7539 49.1597 26.1848 47.2993 22.7246 47.3042C19.3949 47.3089 16.6953 49.1596 16.6953 53.3335C16.6953 57.4863 16.6953 63.9344 16.6953 63.9995H0V25.0435H44.5215V63.9995ZM7.41992 42.6665H12.9854V33.3911H7.41992V42.6665ZM30.6084 42.6665H36.1738V33.3911H30.6084V42.6665Z" fill="white"/>
<rect x="21.3334" width="1.85507" height="21.3333" fill="white"/>
<path d="M4.6377 6.95654L22.2609 0.927551V12.058L4.6377 6.95654Z" fill="white"/>
</svg>
