<svg width="780" height="761" viewBox="0 0 780 761" fill="none" xmlns="http://www.w3.org/2000/svg">
<g clip-path="url(#clip0_2261_14757)">
<path d="M629.09 760.11C612.94 756.36 598.879 749 587.789 736.39C576.969 724.1 572.819 709.75 575.309 693.75C578.049 676.21 595.48 664.03 613.14 666.71C618.68 667.55 624.069 667.08 629.369 665.16C633.809 663.55 636.52 660.55 637.7 655.99C635.99 654.87 635.249 656.6 634.129 656.92C629.959 658.08 626.5 657.31 624.21 653.41C622.22 650.01 623.309 645.95 626.809 643.28C633.209 638.39 642.82 641.16 646.52 648.96C650.11 656.53 647.549 665.53 640.229 671.13C637.169 673.47 632.719 674.39 630.599 677.06C628.399 679.83 631.749 684.13 631.369 688.02C630.659 695.28 626.219 700.92 619.119 702.63C613.429 704 607.999 700.99 606.559 695.65C605.109 690.31 608.44 685.47 614.58 683.99C615.34 683.81 616.289 684.07 616.809 682.78C615.079 680.5 612.51 680.2 609.84 680.17C598.1 680.05 588.229 689.34 587.129 701.16C585.559 717.9 592.489 731.06 604.489 741.78C615.849 751.93 629.019 758.21 644.719 757.81C634.369 755.95 624.729 752.36 616.109 746.24C607.589 740.19 600.739 732.87 597.729 722.54C603.449 730.85 610.089 738.21 619.239 742.7C635.689 750.77 652.23 753.38 668.34 741.85C676.6 735.94 679.259 726.53 675.559 717.52C674.339 714.55 672.629 711.99 669.499 710.76C668.179 712.15 669.39 713.12 669.59 714.15C670.46 718.47 668.43 722.62 664.71 723.97C660.3 725.57 655.83 723.76 653.77 719.53C650.3 712.43 653.61 703.46 661.53 700.64C665.8 699.12 666.62 697.16 666.03 693.04C665.21 687.28 666.199 681.73 670.469 677.24C674.279 673.24 680.229 671.7 685.119 673.61C689.549 675.35 692.179 678.47 692.299 683.41C692.399 687.39 690.9 690.43 686.76 691.1C682.46 691.8 679.79 689.61 678.89 685.33C678.76 684.73 678.579 684.14 678.299 683.08C675.399 685.24 674.99 687.94 675.2 690.78C675.58 695.75 677.249 700.51 680.729 703.9C695.499 718.3 692.79 745.86 665.84 755.08C662.71 756.15 659.4 756.74 656.14 757.36C654.1 757.75 652.249 758.26 651.059 760.12H629.059L629.09 760.11Z" fill="white"/>
<path d="M130.09 760.11C128.51 757.73 125.99 757.68 123.5 757.23C109.42 754.7 98.0301 748.46 92.8001 734.15C88.9201 723.52 91.7201 714.13 98.6701 705.8C101.74 702.12 103.89 698.09 105.29 693.61C106.51 689.71 105.96 686.09 102.97 683.15C101.81 683.28 102.04 684.07 101.91 684.66C100.8 689.71 97.7301 692.08 93.6701 691.06C89.4801 690.01 87.2201 685.11 88.8401 680.58C91.9801 671.78 104.19 669.97 110.6 677.41C114.41 681.84 115.88 687.16 114.86 692.8C114.11 696.93 114.7 699.03 119.12 700.53C126.56 703.06 130.05 710.92 127.7 717.9C125.97 723.02 121.49 725.66 116.9 724.26C112.54 722.93 110.36 718.52 111.56 713.41C111.74 712.65 111.92 711.88 112.24 710.53C106.82 712.5 105.21 716.55 104.35 720.99C102.72 729.46 105.4 736.41 112.19 741.76C119.76 747.72 128.58 750.19 137.94 749.43C156.37 747.93 171.49 740.22 181.49 724C181.89 723.35 182.16 722.43 183.22 722.45C180.99 737.43 159.03 753.63 135.5 758C156.24 757.45 172.75 748.72 185.13 732.02C191.74 723.1 194.81 713.14 193.91 702.01C193.02 691.11 186.45 683.31 175.88 680.71C170.93 679.49 167.73 680.07 163.64 682.93C164.14 684.52 165.56 683.79 166.55 684.01C171.94 685.23 175.14 689.77 174.25 695.08C173.39 700.24 168.64 703.62 163.24 702.93C154.07 701.75 147.35 692.84 149.92 683.71C151.48 678.16 150 676.27 145.22 673.99C137.39 670.25 132.31 664.01 132.94 654.59C133.5 646.21 139.92 640.36 147.75 640.92C150.73 641.13 153.22 642.35 155.23 644.5C157.81 647.26 158.15 650.51 156.47 653.74C154.68 657.19 151.45 657.91 147.89 657.14C146.51 656.84 145.22 656.07 143.44 655.32C143.92 660.94 147.41 663.53 151.67 665.21C156.55 667.14 161.7 667.55 166.91 666.79C187.8 663.71 205.75 678.73 206.34 699.87C206.85 718.24 198.86 732.62 185.13 744.19C175.5 752.31 164.18 757 152.12 760.12H130.12L130.09 760.11Z" fill="white"/>
<path d="M334.09 0.110098C328.46 2.0401 324.09 6.6801 317.86 7.4201C314.65 7.8001 316.87 9.8201 317.21 11.1501C317.6 12.6801 319.23 14.2701 317.73 15.7401C316.46 16.9901 314.55 16.3601 312.94 16.0601C309.52 15.4201 306.97 13.2401 304.41 11.0801C298.41 6.0101 291.51 2.8801 283.76 1.6501C282.62 1.4701 281.23 1.0501 280.32 1.4901C273.45 4.8601 266.58 2.5101 259.7 1.7901C258.23 1.6401 256.39 0.810098 255.4 2.0101C254.12 3.5801 256.36 4.4801 256.9 5.7501C258.8 10.2501 262.73 12.0201 267.08 12.9001C274.94 14.4901 282.92 14.8901 290.93 14.9001C292.93 14.9001 294.34 13.8101 295.94 12.9301C301.63 9.8001 308.06 13.4501 307.74 19.9001C307.6 22.8401 308.84 25.0001 309.78 27.4401C311.43 31.7201 312.04 36.0001 308.08 39.3701C306 41.1401 303.52 41.5601 303.08 37.8401C302.21 30.4801 297.28 27.0401 290.89 25.7901C281.18 23.8801 271.74 21.4201 262.99 16.6801C262.16 16.2301 261.19 15.4601 260.28 16.3601C259.45 17.1801 259.99 18.2601 260.22 19.2001C261.35 23.7001 263.95 27.4501 267.01 30.7201C272.35 36.4201 276.39 43.4701 284.8 45.9701C289.74 47.4401 290.83 54.2301 287.16 58.0601C285.11 60.2001 283.88 62.5001 282.86 65.1901C281.38 69.1201 278.75 72.0701 274.29 72.6801C272.57 72.9201 270.88 72.5301 269.92 70.9201C269.05 69.4501 270.25 68.4801 271.05 67.4201C274.7 62.5501 274.65 57.3101 271.51 52.4601C265.52 43.2001 260.46 33.6301 256.3 23.3401C254.72 19.4401 253.14 14.1201 248.81 11.2001C246.9 9.9101 245.27 8.1801 241.94 8.7401C247.74 18.2601 248.01 27.4501 240.2 35.7501C235.7 40.5301 230.09 41.1101 224.07 39.0901L224.13 39.1401C222.96 37.7401 221.63 36.4301 220.64 34.9101C218.12 31.0501 218.63 27.2401 221.56 23.8801C223.36 21.8001 225.88 21.3301 228.4 22.5501C232.18 24.3901 231.74 27.8201 231.15 31.2801C235.95 28.6901 238.1 24.4601 237.33 19.4301C236.33 12.8901 228.66 5.3501 222.12 4.5301C221.31 4.4301 220.23 4.2601 219.69 4.6701C215.88 7.5701 212.65 7.1501 208.92 4.1101C206.49 2.1301 203.49 3.4501 201.22 5.5401C199.4 7.2301 198.78 9.1801 200.61 11.2201C202.18 12.9801 203.99 13.1601 205.89 11.5901C206.7 10.9301 207.33 9.2401 208.65 10.3701C209.82 11.3701 209.16 12.8401 208.67 14.0901C206.83 18.8201 201.44 21.8301 196.09 21.0901C191.75 20.4901 187.86 18.4601 185.5 15.0201C181.15 8.6801 175.62 3.9001 169.09 0.100098H334.09V0.110098Z" fill="white"/>
<path d="M558.14 38.0901C551.84 41.1901 545.92 41.0501 540.63 35.9701C534.25 29.8401 533.61 22.6601 538.31 8.67011C534.85 8.46011 532.3 9.95011 530.71 12.5301C528.03 16.8801 525.36 21.3201 523.42 26.0301C520.3 33.6001 517.16 41.0701 512.29 47.7501C507.65 54.1201 504.7 60.6701 510.35 68.2901C512.57 71.2801 509.81 72.5601 507.27 72.5701C502.46 72.5701 499.73 69.3101 498.04 65.3201C496.93 62.7101 495.85 60.3201 493.84 58.1401C489.69 53.6601 491.49 47.0301 497.39 45.4501C500.71 44.5601 502.96 42.7501 505.16 40.4501C510.69 34.6701 516.32 28.9601 519.75 21.5701C520.5 19.9601 521.89 17.9601 520.38 16.4901C518.87 15.0101 517.39 17.0901 516.01 17.7501C508.29 21.4401 500.18 23.8101 491.78 25.3901C484.45 26.7701 478.54 29.8101 477.72 38.4901C477.43 41.5401 475.07 41.1401 473.25 39.7701C469.29 36.8001 469.21 32.6101 470.64 28.4601C471.78 25.1601 472.84 21.9801 473.19 18.4101C473.73 12.9101 479.19 10.7201 484.6 12.7201C496.63 17.1601 508.41 14.7501 519.93 10.4801C522.87 9.39011 523.7 5.94011 525.58 3.64011C527.09 1.79011 525.31 1.38011 523.87 1.53011C520.39 1.88011 516.91 2.29011 513.46 2.85011C509.78 3.45011 506.34 3.10011 502.66 2.17011C494.86 0.200108 488.02 3.77011 481.47 7.41011C478.59 9.01011 476.13 11.3701 473.5 13.4201C471.75 14.7801 469.79 15.6701 467.63 16.0701C466.02 16.3601 464.1 16.9901 462.96 15.4401C461.99 14.1201 462.85 12.4501 463.61 11.2101C465.43 8.25011 464.6 7.57011 461.31 7.04011C455.98 6.20011 451.92 2.23011 447.07 0.110107H612.07C605.31 3.86011 599.95 8.91011 595.22 15.1601C589.72 22.4301 580.86 23.1301 575 18.0701C572.61 16.0101 571.2 13.6001 572.25 10.3801C572.72 10.3101 572.93 10.2101 573.05 10.2801C575.21 11.5301 577.14 14.2601 579.96 11.4801C581.63 9.83011 581.72 7.96011 580.3 6.10011C578.23 3.37011 575.02 2.07011 572.42 3.90011C568.55 6.62011 565.7 7.16011 561.18 4.84011C556.68 2.52011 547.39 9.59011 544.39 16.4601C542.1 21.7001 543.95 28.1801 548.69 31.4601C548.9 31.6001 549.31 31.4601 550 31.4201C549.18 27.9401 548.63 24.3601 552.69 22.4701C555.04 21.3701 557.35 21.8401 559.11 23.6801C562.15 26.8501 561.91 30.6201 560.47 34.3701C559.95 35.7301 558.88 36.8801 558.06 38.1301L558.12 38.0801L558.14 38.0901Z" fill="white"/>
<path d="M526.09 760.11C522.43 751.58 515.13 749.04 506.72 748.51C500.9 748.14 495.07 748.07 489.25 747.77C487.56 747.68 486.49 748.71 485.21 749.46C479.59 752.76 473.6 750.03 473.11 743.67C472.86 740.43 472.02 737.54 470.84 734.58C469.28 730.65 469.21 726.59 472.54 723.45C474.4 721.7 477.09 720.82 477.58 724.65C478.51 731.98 483.34 735.46 489.71 736.75C499.73 738.78 509.52 741.24 518.49 746.32C519.2 746.72 519.99 747.37 520.76 746.74C521.71 745.95 521.18 744.89 520.87 743.96C518.34 736.28 513.06 730.43 507.63 724.81C504.27 721.34 501.25 717.62 495.76 716.41C491.13 715.39 490.04 708.48 493.57 704.7C495.71 702.41 496.92 699.9 498.09 697.14C499.72 693.27 502.34 690.34 506.92 690.03C508.29 689.94 509.61 690.24 510.5 691.41C511.55 692.79 510.68 693.86 509.86 694.97C505.95 700.23 506.45 705.79 509.78 710.85C515.68 719.8 519.84 729.53 524.53 739.05C527.27 744.61 528.62 754.06 539.03 754.25C538.15 752.45 537.31 750.81 536.53 749.13C532.92 741.37 535.16 731.49 541.61 725.88C545.99 722.06 550.94 721.97 556.19 723.18C557.19 723.85 558.19 724.53 559.19 725.2C559.95 727.04 560.97 728.82 561.4 730.73C562.17 734.21 561.4 737.44 558.38 739.64C556.36 741.11 553.97 741.4 551.83 739.85C548.76 737.63 548.74 734.58 550.31 731.19C544.79 733.36 541.83 739.52 543.85 744.97C546.4 751.84 551.65 757.71 558.55 757.6C564.36 757.5 569.74 756.91 575.39 758.92C577.79 759.78 580.01 757.37 581.14 754.98C581.88 753.42 581.14 752 579.81 751.06C578.11 749.85 576.37 750.04 574.77 751.37C574.16 751.88 573.57 752.41 572.89 753.01C570.83 746.68 577.37 740.26 584.58 741.39C589.37 742.14 593.56 744.53 596.25 748.48C599.31 752.97 603.12 756.58 607.09 760.13H526.09V760.11Z" fill="white"/>
<path d="M224.94 723.26C231.59 721.06 237.15 722.84 241.46 728.17C246.63 734.56 247.52 741.65 244.34 749.28C243.79 750.61 241.55 752.12 243.66 753.52C245.15 754.51 246.85 753.18 248.16 752.14C249.06 751.42 250.24 750.63 250.54 749.64C252.1 744.41 256.53 740.8 258.09 735.5C260.22 728.28 263.85 721.69 268.13 715.48C272.85 708.64 276.9 701.86 270 693.85C268.31 691.89 270.34 690.42 272.34 690.12C276.92 689.45 280.11 691.68 281.96 695.67C283.57 699.13 285.14 702.44 287.74 705.42C291.02 709.19 289.06 715.66 284.23 716.77C280.1 717.72 277.59 720.22 274.93 722.95C270.5 727.49 266.34 732.23 262.87 737.56C261.39 739.83 260.42 742.3 259.84 744.91C259.41 746.82 260.3 747.6 262 746.58C271.47 740.92 282.06 738.81 292.63 736.34C298.1 735.06 302.51 731.48 303.04 725.01C303.14 723.78 303.48 722.64 304.79 722.27C306.42 721.81 307.76 722.5 308.76 723.75C311.85 727.63 311.52 731.82 309.54 735.98C308.45 738.26 307.83 740.43 307.81 743.06C307.75 749.45 301.11 752.89 295.66 749.44C293.68 748.18 291.86 747.8 289.6 747.97C286.12 748.23 282.61 748.1 279.11 748.2C269.02 748.48 259.45 749.87 254.1 760.11H174.1C178.51 756.09 182.15 751.4 186.03 746.9C191.84 740.16 200.22 739.58 205.97 744.67C207.51 746.03 208.66 747.65 209.06 749.66C209.2 750.39 209.07 751.42 208.64 751.96C207.96 752.81 207.16 752.07 206.53 751.55C204.61 749.98 202.65 749.7 200.69 751.41C199.59 752.37 199.22 753.66 199.76 755.03C200.68 757.38 202.57 759.54 204.94 758.91C210.85 757.34 216.46 757 222.7 757.49C228.25 757.93 232.94 752.75 236.06 747.45C238.89 742.65 237.13 733.29 231.5 731.02C231.3 731.23 230.89 731.51 230.93 731.65C231.92 734.71 232.07 737.57 229.06 739.66C226.93 741.13 224.68 741.26 222.56 739.71C219.56 737.52 218.46 734.41 219.31 730.91C219.81 728.87 221.13 727.04 222.09 725.11C222.66 723.91 223.86 723.67 224.94 723.25V723.26Z" fill="white"/>
<path d="M118.09 0.110098C113.86 3.4701 108.71 5.0801 103.97 7.4801C102.1 8.4301 100.92 7.2001 99.5298 6.2201C94.4398 2.6101 91.7898 2.5901 87.0798 6.7801C84.9098 8.7101 83.4398 9.0601 81.1698 7.1701C78.0098 4.5401 74.3898 4.6601 70.8298 6.3701C64.4998 9.4201 59.1498 13.5601 56.8898 20.5601C54.4998 27.9701 57.8498 35.4901 64.5698 38.2401C64.6198 37.9401 64.8198 37.5501 64.6998 37.3501C62.6498 33.9601 62.4698 30.6801 65.5198 27.8201C67.6698 25.8101 70.3498 25.3601 72.9198 26.8101C76.7998 29.0001 78.3898 32.6201 77.8498 36.9401C76.6898 46.2301 65.6998 50.5901 56.6498 45.4701C47.9098 40.5201 43.5798 27.7801 47.3298 17.8501C48.8798 13.7401 51.2498 10.1501 54.5798 7.2201C57.4932 4.66676 57.3332 2.29343 54.0998 0.100098H118.1L118.09 0.110098Z" fill="white"/>
<path d="M727.09 0.110088C726.83 0.310088 726.59 0.570088 726.3 0.710088C723 2.37675 722.76 4.35675 725.58 6.65009C735.95 15.1001 737.89 29.3801 730.12 40.1701C725.78 46.2001 718.75 48.8101 711.64 47.0201C704.44 45.2101 700.74 36.6701 704.44 30.3101C706.41 26.9301 709.32 25.0201 713.19 26.5501C716.86 28.0001 718.49 30.9501 717.28 35.0201C717.05 35.7801 716.54 36.5701 717.25 37.3501C722.31 35.7901 725.79 29.1201 724.72 23.0101C723.37 15.2601 714.62 6.69009 706.79 5.36009C704.14 4.91009 701.77 5.50009 699.78 7.17009C697.64 8.98009 696.18 9.09009 693.95 6.88009C689.63 2.59009 686.37 2.65009 681.17 6.45009C679.7 7.52009 678.36 8.29009 676.64 7.37009C672.12 4.94009 667.08 3.50009 663.09 0.0900879C684.42 0.0900879 705.76 0.0900879 727.09 0.0900879V0.110088Z" fill="white"/>
<path d="M667.09 760.11C669.15 759.03 671.25 758.02 673.25 756.84C676.48 754.94 679.23 754.3 682.62 757.23C686.36 760.47 690.55 759.2 693.76 755.85C695.79 753.72 697.26 753.49 699.57 755.41C702.49 757.84 705.89 758.02 709.41 756.46C716.21 753.44 721.64 749.09 724.15 741.8C726.52 734.91 722.95 726.81 716.65 724.7C716.57 725 716.32 725.39 716.43 725.59C718.14 728.64 718.33 731.64 715.93 734.38C713.93 736.67 711.19 736.82 708.56 735.97C704.99 734.81 703.39 731.88 703.06 728.35C702.6 723.46 704.38 719.47 708.7 716.97C714.1 713.85 719.55 714.14 724.73 717.51C736.92 725.44 738.33 743.29 727.65 754.06C725.55 756.17 723.28 758.1 721.08 760.12H667.08L667.09 760.11Z" fill="white"/>
<path d="M453.09 760.11C454.54 758.45 456.31 757.04 458.38 756.52C462.66 755.43 466.01 754.33 462.74 748.85C461.72 747.14 463.43 746.15 465.17 746.21C468.05 746.3 470.94 746.91 473.05 748.86C478.36 753.79 484.6 757.13 491.09 760.12H453.09V760.11Z" fill="white"/>
<path d="M290.09 760.11C296.38 757.09 302.35 753.58 307.7 749.05C308.92 748.02 310.57 747.4 312.12 746.87C313.82 746.3 315.79 745.48 317.35 746.84C319.2 748.46 317.62 750.26 316.89 751.78C315.72 754.21 316.6 755.01 318.97 755.36C322.52 755.89 325.51 757.64 328.09 760.1H290.09V760.11Z" fill="white"/>
<path d="M167.04 421.14C148.9 421.68 142.05 409.21 150.32 390C145.41 389.85 142.74 392.54 140.64 396.31C134.43 407.44 130.78 419.87 123.11 430.25C120.8 433.38 119.15 436.81 119.14 440.83C119.14 443.71 119.37 446.5 121.47 448.77C122.38 449.75 123.41 450.84 122.5 452.28C121.61 453.69 120.1 454.05 118.54 453.89C114.04 453.41 111.32 450.58 109.82 446.61C108.75 443.78 107.5 441.34 105.29 439.09C101.36 435.08 102.79 428.29 108.12 426.94C113.1 425.68 116.22 422.51 119.31 419.13C124.35 413.61 129.67 408.22 132.18 400.9C132.6 399.68 133.42 398.17 132.12 397.21C131.03 396.4 129.99 397.7 129 398.21C121.23 402.19 113.07 404.89 104.44 406.35C96.7898 407.64 90.3898 410.45 89.1598 419.53C88.6798 423.06 85.9898 421.99 84.3198 420.47C80.9098 417.37 80.9898 413.35 82.4898 409.38C83.6598 406.27 84.7598 403.33 84.8798 399.85C85.0798 394.29 90.6798 391.68 95.9598 393.75C107.98 398.45 119.76 395.96 131.3 391.78C134.61 390.58 135.31 386.62 138.27 384.1C134.06 382.32 130.36 383.17 126.75 383.8C122.26 384.57 118.08 384.26 113.53 383.16C106.43 381.45 99.8698 384.85 93.7398 388.25C90.8598 389.85 88.3598 392.16 85.7398 394.21C83.8798 395.67 81.9098 396.9 79.5498 397.32C77.9498 397.61 76.1198 398.49 74.7798 397.12C73.3098 395.61 74.5798 393.91 75.3198 392.54C76.9698 389.5 76.0498 388.58 72.7898 388.23C67.4998 387.67 64.2898 382.74 59.0098 381.57C64.1098 379.07 68.0298 375.13 73.3898 374.26C76.3698 373.78 76.4598 372.59 75.3298 370.24C74.6598 368.85 73.4198 367.11 75.0398 365.67C76.3998 364.46 78.2198 364.99 79.8398 365.37C82.6798 366.03 84.9798 367.63 87.1298 369.55C92.8498 374.67 99.5498 377.86 107.02 379.49C109.85 380.11 112.58 380.26 115.32 378.96C118.32 377.53 121.47 377.91 124.64 378.43C128.88 379.13 133.09 380.35 137.85 379.56C135.08 373.48 131.17 369.49 124.45 368.22C116.85 366.79 109.15 367.46 101.55 366.5C99.7398 366.27 98.4698 367.48 97.0298 368.31C91.1798 371.7 85.2398 368.69 84.8698 362.01C84.7298 359.43 83.9798 357.18 83.0298 354.85C81.3998 350.87 80.7998 346.77 83.5798 342.97C84.4898 341.73 85.8098 340.87 87.4698 341.19C88.8498 341.46 89.1198 342.63 89.2798 343.85C90.1698 350.64 94.8198 354 100.83 355.39C111.07 357.75 121.38 359.72 130.47 365.44C130.95 365.74 131.93 365.9 132.28 365.62C133.19 364.9 132.84 363.76 132.56 362.83C130.89 357.26 127.42 352.76 123.71 348.48C120.66 344.96 117.34 341.67 114.21 338.21C112.99 336.86 111.47 336.48 109.79 336.22C106.47 335.72 104.45 333.62 103.5 330.52C102.58 327.49 103.48 324.78 105.89 322.9C107.89 321.34 108.65 319.39 109.34 317.09C110.81 312.15 115.03 308.73 118.93 308.9C120.3 308.96 121.62 309.17 122.43 310.44C123.37 311.91 122.32 312.87 121.52 313.96C117.91 318.86 118.2 324.14 121.13 328.97C126.74 338.24 132.25 347.43 136.01 357.75C137.2 361 139.89 364.23 141.52 367.73C142.41 369.65 144.25 371.08 146.25 372.05C147.29 372.55 148.53 373.36 149.51 372.51C150.72 371.45 149.37 370.4 148.9 369.44C146.43 364.48 145.5 359.4 147.26 353.97C149.76 346.29 156.54 338.64 168.12 342.13L168.06 342.08C169.84 344.43 172.65 346.07 173.11 349.34C173.6 352.83 173.12 356.06 170.07 358.3C168 359.82 165.64 359.91 163.51 358.48C160.28 356.3 160.78 353.16 161.9 349.92C156.15 351.89 153.39 358.98 156.13 365.01C158.57 370.37 162.78 373.96 168.24 376.31C172.41 378.1 175.18 374.28 178.47 374.26C181.55 374.24 183.6 378.9 187.73 377.96C190.03 377.43 191.74 376.28 192.59 374.13C193.18 372.65 193.02 371.07 191.66 370.04C189.77 368.62 187.91 369.16 186.17 370.5C185.52 371 184.81 371.68 183.99 371.01C183.09 370.29 183.33 369.24 183.52 368.23C184.47 363.18 191.03 359.2 196.85 360.33C201.84 361.29 205.72 364.14 208.57 368.24C211.77 372.85 215.63 376.66 220.62 379.24C223.31 380.63 224.1 381.77 220.77 383.37C215.53 385.88 211.68 389.84 208.41 394.67C202.7 403.11 192.07 404.87 186.12 398.66C185.11 397.61 184.36 396.26 183.68 394.95C183.14 393.91 182.8 392.59 183.76 391.67C185.19 390.29 185.68 392.16 186.48 392.73C188.61 394.25 190.62 394.21 192.13 392.05C193.61 389.95 193.05 387.91 191.07 386.34C187.88 383.82 184.48 383.67 181.57 386.48C179.29 388.68 177.47 388.76 175.11 386.86C173.12 385.26 170.86 385.25 168.51 386.24C163.28 388.43 158.89 391.6 156.38 396.84C153.48 402.9 155.27 408.85 160.82 412.21C160.94 412.11 161.17 412 161.16 411.91C161.01 408.58 160.53 405.1 164.58 403.51C167.02 402.55 169.23 403.16 170.95 405.05C173.73 408.09 173.94 411.64 172.45 415.3C171.89 416.66 170.89 417.85 170.09 419.11C169.07 419.78 168.06 420.46 167.04 421.13V421.14Z" fill="white"/>
<path d="M612.05 420.06C611.7 419.73 611.36 419.4 611.01 419.07C608.04 415.6 606.01 411.92 608.37 407.27C609.97 404.12 612.39 402.1 616.01 403.47C619.45 404.77 620.68 407.52 619.44 411.15C619.25 411.72 618.6 412.29 619.32 412.93C624.57 410.12 627.16 404.31 625.27 398.76C622.87 391.69 617.29 386.06 610.57 386.26C604.72 386.43 599.54 386.76 593.86 384.74C590.46 383.53 586.67 388.66 588.25 391.38C589.61 393.73 591.57 394.5 594.11 392.83C595.03 392.22 595.65 390.05 597.17 391.66C598.14 392.68 597.57 394.18 597.06 395.45C594.65 401.43 586.44 404.21 580.05 401.05C576.89 399.49 573.99 397.42 572.15 394.34C569.24 389.46 565.24 385.83 560.17 383.4C557.01 381.89 557.27 380.86 560.19 379.3C565.24 376.59 569.19 372.78 572.4 367.86C578.25 358.87 589.74 357.7 595.68 365.04C596.63 366.22 597.57 367.44 597.6 369.01C597.62 369.77 597.41 370.76 596.91 371.26C596.12 372.04 595.4 371.17 594.84 370.61C593.27 369.07 591.57 368.22 589.53 369.7C588.23 370.65 587.48 371.98 588.05 373.61C588.89 375.98 590.92 378.43 593.05 377.73C599.32 375.66 605.79 376.97 611.81 376.06C623.33 374.31 628.81 362.12 623.68 353.45C622.75 351.88 621.81 350.29 619.82 349.86C619.61 350.11 619.22 350.4 619.26 350.54C620.24 353.62 620.37 356.5 617.22 358.48C615.02 359.87 612.71 359.81 610.69 358.22C607.99 356.1 606.92 353.22 607.5 349.81C607.94 347.26 609.68 345.36 610.93 343.21C611.6 342.89 612.28 342.57 612.95 342.25C621.98 339.89 627.65 342.32 632.04 350.45C634.5 355 634.47 355.84 631.34 372.7C635.73 372.47 638.71 370.05 640.13 366.4C642.67 359.87 647.12 354.34 649.14 347.53C650.91 341.59 654.92 336.7 658.3 331.54C662.23 325.54 663.91 319.5 658.66 313.2C656.63 310.76 658.56 309.49 660.75 309.09C665.72 308.19 668.63 311.18 670.57 315.13C672.09 318.24 673.38 321.27 675.87 323.94C679.2 327.51 677.44 334.49 672.86 335.5C667.79 336.62 664.87 340 661.67 343.28C657.36 347.7 653.46 352.48 650.36 357.85C648.97 360.25 647.62 362.73 648.69 366.24C658.47 360.12 669.12 357.74 679.89 355.48C685.94 354.21 690.57 350.8 691.17 343.86C691.27 342.67 691.64 341.51 693 341.17C694.64 340.77 696.02 341.45 697.01 342.65C699.77 345.95 699.76 349.75 698.29 353.5C697.13 356.46 696.24 359.33 696 362.58C695.56 368.64 689.46 371.71 684.25 368.44C681.63 366.8 679.13 366.4 676.25 366.54C668.44 366.92 660.65 367.11 652.99 369.16C648.23 370.43 646.15 374.18 643.65 377.65C642.66 379.03 643.35 379.85 644.94 379.85C646.27 379.85 647.61 379.77 648.92 379.59C655.46 378.73 661.71 378.19 668.57 379.49C676.65 381.02 684.43 376.85 691.06 371.67C694.2 369.22 697.05 366.29 701.13 365.37C702.74 365.01 704.57 364.47 705.93 365.69C707.58 367.17 706.2 368.81 705.52 370.22C704.33 372.66 704.83 373.78 707.62 374.27C712.95 375.22 716.72 379.45 721.94 381.36C716.51 383.03 712.9 388.03 707.18 388.31C703.85 388.47 704.23 389.78 705.23 392.03C705.92 393.6 707.64 395.42 706.02 397.05C704.41 398.67 702.21 397.52 700.32 397.03C697.34 396.26 694.99 394.34 692.72 392.36C686.5 386.92 679.11 384.12 671.1 382.7C670.61 382.61 669.99 382.32 669.64 382.51C661.59 386.84 653.33 382.73 645.19 383.17C644.59 383.2 644.01 383.5 643.38 383.69C646.06 390.7 651.22 393.94 658.18 394.78C664.8 395.59 671.42 396.21 678.11 396.03C680.18 395.97 681.93 395.33 683.76 394.38C690.16 391.06 695.75 394.08 696.09 401.15C696.22 403.94 697.31 406.28 698.17 408.78C699.53 412.7 699.99 416.62 697 420.1C695.98 421.29 694.66 422.02 693.02 421.64C691.65 421.32 691.3 420.15 691.19 418.96C690.47 410.96 684.75 407.9 678.07 406.7C668.8 405.02 659.91 402.52 651.6 398.07C650.74 397.61 649.75 396.8 648.85 397.49C647.76 398.33 648.2 399.69 648.59 400.74C649.23 402.44 649.86 404.23 650.9 405.69C657.05 414.31 662.7 423.33 673.41 427.42C677.81 429.1 678.93 435.47 675.64 438.92C673.34 441.32 672.16 444.02 670.89 446.91C669.14 450.88 666.44 454.09 661.53 453.9C658.14 453.77 656.9 451.55 658.91 449.14C663.05 444.18 662.58 439.07 659.8 433.82C658.71 431.77 657.4 429.82 656.1 427.89C651.69 421.36 648.6 414.23 645.62 406.95C643.59 401.98 640.36 397.46 637.34 392.96C635.86 390.75 633.39 389.58 629.95 389.67C635.66 398.95 636.34 407.89 629.31 416.26C624.65 421.81 618.56 422.38 612 420.07L612.05 420.06Z" fill="white"/>
<path d="M427.23 161.87C424.3 162.92 421.54 164.74 418.15 163.67C414.49 162.51 411.58 160.64 412.35 156.29C413.1 152.06 416.26 151.36 419.99 152.06C420.58 152.17 421.19 152.18 421.97 152.25C418.66 145.71 410.72 143.67 404.49 147.74C400.53 150.33 397.67 153.94 395.6 158.29C393.68 162.33 396.52 165.14 397.27 168.55C398.02 171.97 392.43 174.05 393.64 178.27C394.42 180.99 395.86 183.22 398.97 183.47C400.8 183.61 402.15 182.57 402.67 180.74C403.36 178.28 401.4 176.82 400.12 175.11C405.16 173.2 410.31 176.86 411.18 182.86C412.15 189.63 409.43 195.16 404.1 198.91C399.21 202.35 395.01 206.14 392.29 211.47C390.72 214.56 389.67 213.61 388.4 211.22C385.78 206.28 382.16 202.33 377.34 199.3C372.93 196.53 370.35 192.21 369.39 187.08C368.46 182.09 371.86 176.09 376.33 174.47C377.44 174.06 378.72 173.6 379.68 174.36C381.12 175.52 379.5 176.34 379.02 177.25C377.73 179.68 377.84 181.87 380.51 183.12C383.2 184.38 385.03 182.75 386.18 180.53C387.7 177.6 387.18 174.74 385.25 172.09C384.32 170.81 382.99 169.85 383.69 167.73C386.59 158.99 384.11 152.42 376.43 147.76C369.97 143.84 363.71 145.15 358.98 151.46C360.07 152.89 361.44 151.74 362.6 151.75C365.69 151.76 367.8 153.02 368.43 156.08C369.03 159.01 367.91 161.36 365.25 162.77C360.15 165.47 355.96 163.33 352.03 160.08C351.77 159.48 351.5 158.87 351.24 158.27C349.23 151.48 350.68 145.68 356.43 141.36C364.81 135.07 373.39 135.75 382.33 141.73C382.13 137.85 381.15 134.69 378.44 133.42C373.27 130.99 369.23 126.78 363.63 125.04C356.13 122.71 349.17 119.14 342.76 114.49C336.23 109.75 329.59 106.57 321.92 112.78C319.5 114.74 318.29 112.14 318.07 110.11C317.6 105.71 320.13 102.87 323.77 100.99C326.98 99.3301 330.19 97.9201 333.06 95.4501C337.38 91.7401 343.93 94.2501 345.17 99.8901C345.8 102.74 347.18 104.66 349.18 106.5C355.3 112.14 361.11 118.16 368.73 121.88C370.35 122.67 372.33 124.11 373.83 122.87C375.8 121.26 373.51 119.56 372.81 118.09C369.35 110.83 366.92 103.31 365.55 95.3401C364.28 87.9001 361.95 80.8501 352.57 80.0401C351.32 79.9301 350.32 79.3401 350.15 77.9501C349.94 76.3001 350.67 74.9801 351.95 74.0601C355.76 71.3201 359.83 71.7201 363.81 73.5201C366.24 74.6201 368.51 75.3701 371.35 75.3501C377.32 75.3101 380.8 81.7301 377.62 86.7901C376.06 89.2701 375.83 91.5601 375.94 94.2901C376.27 102.26 375.7 110.3 378.24 118.07C379.26 121.19 380.64 123.96 383.71 125.47C385.26 126.23 386.39 128.81 388.3 127.56C389.65 126.67 388.96 124.41 388.75 122.81C387.84 115.95 387.44 109.44 388.77 102.26C390.19 94.5901 385.94 86.7401 380.77 80.2901C378.07 76.9201 375.07 73.7401 374.3 69.2201C373.56 64.8801 374.67 63.7401 378.64 65.4701C381.44 66.6901 382.81 66.5701 383.52 63.2701C384.61 58.1701 388.49 54.3801 390.54 49.3401C392.06 54.7901 396.94 58.4901 397.32 64.1701C397.55 67.5201 398.84 67.1601 401.09 66.0401C402.63 65.2701 404.42 63.6301 406.09 65.2601C407.78 66.9001 406.64 69.0501 406.09 70.9301C405.28 73.6901 403.63 75.9901 401.75 78.1601C396.73 83.9601 393.64 90.6801 392.16 98.2101C391.6 101.07 391.34 103.7 392.92 106.38C394.04 108.28 393.99 110.51 393.58 112.71C393.06 115.49 392.48 118.29 392.34 121.1C392.23 123.3 390.89 126.29 393.11 127.48C394.12 128.02 396.74 125.78 398.53 124.64C401.09 123 402.14 120.32 402.8 117.54C404.78 109.22 405.2 100.75 405.01 92.2201C404.97 90.2701 403.95 88.7801 403.16 87.1301C400.11 80.8401 403.79 74.9501 410.71 75.3301C412.91 75.4501 414.54 74.7401 416.34 73.9001C420.25 72.0701 424.24 71.1101 428.24 73.6701C429.87 74.7101 431.12 76.1201 430.65 78.2001C430.23 80.0601 428.5 79.9801 427.02 80.1701C421.55 80.8901 418.41 84.3801 416.94 89.3301C415.29 94.9101 414.19 100.65 412.63 106.25C411.33 110.9 409.64 115.44 407.3 119.7C406.84 120.54 405.9 121.51 406.53 122.43C407.31 123.57 408.71 123.14 409.76 122.77C411.48 122.16 413.17 121.43 414.75 120.51C422.05 116.28 427.55 109.91 433.74 104.36C435.12 103.12 434.91 101.31 435.44 99.7601C437.3 94.2901 443.07 91.8101 447.32 95.3701C450.49 98.0301 454.09 99.4301 457.58 101.26C460.97 103.04 463 105.87 462.85 109.66C462.76 111.98 461.48 115.13 458.53 112.71C451.44 106.9 445.18 109.48 438.98 113.84C433.36 117.79 427.6 121.82 421.03 123.5C414.91 125.07 410.69 129.67 404.87 131.61C401.24 132.82 399.04 136.35 398.35 141.63C408.42 135.22 417.8 135.07 426.21 142.91C431.04 147.41 431.15 153.18 429.08 159.12C428.46 160.04 427.84 160.95 427.22 161.87H427.23Z" fill="white"/>
<path d="M352.07 603.13C354.73 600.46 357.59 598.37 361.71 598.89C366.27 599.46 369.34 602.64 368.43 606.45C367.39 610.86 364.31 611.66 360.34 610.44C359.91 610.31 359.41 610.42 358.89 610.42C361.34 615.61 367.57 618.39 373.01 616.4C379.52 614.01 384.94 609.27 385.3 602.56C385.61 596.73 383.87 590.91 386.9 585.2C387.69 583.7 386.28 581.69 384.77 580.46C383.21 579.18 381.44 578.74 379.71 579.92C377.9 581.16 378.05 582.94 378.7 584.84C379.1 586.02 381.68 587.02 379.5 588.45C377.97 589.45 376.3 588.36 374.89 587.41C369.5 583.8 367.81 577.7 370.6 571.56C372.07 568.33 374.23 565.55 377.18 563.54C381.95 560.31 385.95 556.41 388.49 551.16C389.75 548.55 390.95 548.16 392.36 551.14C394.77 556.23 398.53 560.02 403.22 563.2C412.23 569.32 414.08 580.11 407.52 586.2C405.5 588.08 403.28 589.43 400.38 588.12C400.34 587.71 400.15 587.27 400.29 587.1C401.91 585.21 404.06 583.41 401.84 580.68C400.52 579.06 398.59 578.69 396.89 579.78C394.33 581.43 392.39 584.31 393.92 586.97C396.43 591.34 397.48 594.84 394.95 599.9C393.03 603.74 399.52 612.34 405.09 615.3C410.23 618.03 415.61 617.44 419.94 613.63C420.53 613.11 420.93 612.38 421.38 611.81C420.49 609.99 419.22 611.15 418.2 611.06C415.07 610.77 412.61 609.5 412.23 606.13C411.84 602.68 413.7 600.41 416.92 599.36C421.84 597.74 425.65 599.94 429.11 603.14L429.05 603.07C431.39 610.02 430.78 616.36 424.58 621.06C416.28 627.35 407.71 627.34 399.11 621.25C399.01 626.08 401.98 629.49 405.77 631.73C416.18 637.87 428.26 640.66 437.99 648.13C441.41 650.75 445.13 653.09 449.77 653.05C452.65 653.03 455.43 652.81 457.71 650.73C458.69 649.83 459.79 648.75 461.21 649.67C462.78 650.68 463.1 652.36 462.83 654.1C462.24 657.9 459.94 660.43 456.55 661.93C453.37 663.34 450.37 664.83 447.63 667.18C443.36 670.84 437.97 668.69 435.56 663.3C430.39 651.71 420.43 645.23 409.64 639.75C408.64 639.24 407.25 638.85 406.39 639.93C405.68 640.82 406.49 641.82 406.96 642.67C411.59 651.1 414.03 660.22 415.79 669.61C417.1 676.64 420.48 681.93 428.48 682.99C432.06 683.47 430.96 686.09 429.49 687.8C426.94 690.77 423.42 691.24 419.87 690.13C415.93 688.89 412.17 687.4 407.92 687.01C403.63 686.61 400.48 681.18 402.55 677.52C406.06 671.33 404.83 664.91 404.75 658.52C404.71 655.21 403.98 651.91 403.59 648.6C402.8 641.89 399.21 637.27 392.73 634.46C391.42 637.94 392.16 641.48 392.8 644.96C393.65 649.59 394.36 654.08 392.01 658.6C390.52 661.47 392.11 664.5 392.8 667.36C394.35 673.78 397.4 679.47 401.71 684.5C404 687.18 406.05 690.01 406.65 693.61C407.32 697.6 405.89 699.07 402.47 697.23C398.36 695.01 398.03 696.7 396.99 700.28C395.72 704.65 393.03 708.61 390.35 713.95C388.27 708.28 384.58 704.42 383.41 699.25C382.82 696.68 382.28 695.07 379.27 696.9C377.93 697.71 376.2 698.84 374.74 697.2C373.51 695.81 374.18 694.05 374.5 692.41C375.15 689.15 377.27 686.75 379.28 684.32C383.84 678.83 386.84 672.63 388.4 665.65C389.14 662.32 389.63 659.27 387.85 656.03C386.43 653.45 387.03 650.54 387.51 647.7C388.23 643.36 389.39 639.02 388.58 634.38C381.45 637.06 378.12 642.02 377.05 649.03C375.96 656.17 376.09 663.31 376 670.47C375.97 672.6 377.07 674.24 377.93 676.05C380.28 680.98 377.81 686.55 372.48 687.05C368.37 687.43 364.79 688.97 361 690.09C357.6 691.09 354.38 690.77 351.66 688.26C350.65 687.33 349.93 686.15 350.22 684.71C350.56 683.04 352 683.05 353.33 682.82C359.23 681.77 363.01 678.05 364.21 672.45C366.62 661.21 369.22 650.1 375.16 640.07C372.79 638.74 371.13 639.71 369.5 640.45C360.16 644.7 353.41 652.17 346.4 659.27C345.58 660.1 345.54 661.71 345.16 662.97C343.43 668.69 337.53 670.84 332.97 667C330.48 664.9 327.8 663.58 324.93 662.27C321.15 660.55 318.2 657.88 317.96 653.3C317.89 651.92 318.24 650.62 319.44 649.76C320.85 648.75 321.91 649.68 322.99 650.51C328.25 654.52 333.7 653.74 338.84 650.59C346.22 646.06 353.21 640.56 361.66 638.38C367.53 636.87 371.12 631.96 376.84 630.28C380.2 629.29 382.08 625.51 382.27 620.78C372.85 627.37 363.83 627.73 355.37 620.31C349.95 615.55 349.07 609.6 352.08 603.07L352.03 603.12L352.07 603.13Z" fill="white"/>
<path d="M311.36 542.86C306.67 548.63 307.63 558.1 313.05 564.51C319.71 572.38 328.5 574.63 338.29 573.42C351.52 571.78 362.08 565.01 370.52 555.02C380.35 543.37 386.54 530.19 385.92 513.53C381.91 536.21 372.03 553.55 350.99 562.76C351.36 560.79 353.13 560.25 354.53 559.31C371.48 547.95 381.56 522.86 375.8 503.99C373.56 496.64 370.1 490.08 363.28 485.94C356.49 481.82 349.61 482.43 342.85 486.04C340.79 487.14 339.03 488.7 338.54 491.21C339.88 492.48 340.71 491.04 341.68 490.78C345.85 489.62 350.18 491.42 351.76 495.07C353.5 499.09 352.06 503.75 348.37 506.01C341.2 510.41 331.2 506.8 328.46 498.28C327.26 494.54 325.66 493.73 322.08 494.17C316.17 494.88 310.35 494.43 305.64 490.1C301.49 486.29 299.91 481.54 301.33 476.06C302.46 471.68 305.32 468.78 309.9 467.98C314.69 467.15 318.49 469.44 319.17 473.39C319.81 477.18 317.48 480.07 312.79 481.33C312.35 481.45 311.95 481.71 311.23 482.04C313.08 484.68 315.62 485.13 318.3 484.99C323.84 484.7 328.63 482.47 332.71 478.81C346.94 466.02 367.03 468.32 377.82 484.11C379.5 486.57 380.94 489.25 382.11 492C392.39 516.27 390.61 539.39 374.93 560.91C364.89 574.69 351.81 583.8 334.44 585.76C311.7 588.33 291.54 571.56 294.83 546.45C295.47 541.58 295.05 536.78 293.69 532.1C292.25 527.14 289.23 523.65 283.87 522.58C282.89 524.11 284.41 524.75 284.81 525.69C286.61 529.85 285.45 533.89 281.72 536.06C278.12 538.15 273.75 537.08 271.24 533.29C268.18 528.68 268.1 523.86 271.03 519.17C274.5 513.62 279.82 511.61 286.06 512.36C294.1 513.32 299.44 518.37 302.54 525.39C304.43 529.67 306.05 530.94 310.93 529.51C319.79 526.92 328.12 532.05 330.48 540.49C332.2 546.65 329.49 552.08 323.92 553.63C318.31 555.19 313.49 551.87 311.98 545.4C311.83 544.78 311.69 544.15 311.38 542.85L311.36 542.86Z" fill="white"/>
<path d="M491.43 302.2C490.87 302.63 490.66 302.7 490.63 302.82C489.8 306.4 488.52 309.63 484.21 310.02C481.27 310.29 478.92 309.05 477.72 306.33C475.93 302.27 476.7 298.45 479.64 295.2C485.71 288.48 497.34 291.14 501.59 300.16C503.58 304.4 503.86 308.92 503.06 313.37C502.46 316.73 503.54 317.97 506.66 319.05C514.91 321.9 518.76 329.44 516.14 336.73C514.31 341.82 509.97 344.32 505.22 343C500.7 341.74 498.75 337.85 499.84 332.26C499.96 331.62 500.06 330.98 500.26 329.85C497.31 329.93 496.06 331.83 494.91 333.74C489.71 342.3 491.76 353.37 499.78 359.79C512.92 370.3 527.5 369.91 542.39 364.83C554.78 360.6 564.4 352.66 571.17 340.51C571.09 355.27 547.15 372.6 522.41 376.66C546.69 378.28 573.48 359.97 580.59 336.92C582.55 330.57 582.65 324.05 581.7 317.61C580.05 306.44 569.24 298.21 557.99 299.08C555.46 299.28 553.17 299.89 551.26 302.48C552.5 302.65 553.28 302.73 554.05 302.85C560.11 303.81 563.9 308.65 562.8 314.01C561.7 319.37 556.34 322.65 550.55 321.51C541.29 319.69 535.74 310.76 538.54 300.86C539.77 296.52 538.5 295.2 534.9 293.52C523.74 288.31 519.13 279.31 522.08 269.54C524.68 260.9 534.43 256.91 541.54 261.57C545.76 264.33 547.1 268.43 545.04 272.24C542.93 276.14 539.02 277.23 534.26 275.26C533.55 274.96 532.98 274.15 531.88 274.66C532.11 278.24 533.92 280.8 537.03 282.5C542.63 285.57 548.64 286.62 554.91 285.6C577.18 281.97 597.21 299.53 594.68 324.78C591.93 352.1 569.81 370.36 546.55 377.07C539 379.25 531.06 381.33 523.42 379.1C512.46 375.89 500.64 375.06 491.12 367.35C477.58 356.38 475.67 336.8 487.48 323.99C490.39 320.84 492.33 317.19 493.42 313.15C494.43 309.41 494.73 305.59 491.44 302.2H491.43Z" fill="white"/>
<path d="M209.72 420.56C217.79 401.29 233.4 391.39 254.4 386.36C246.68 385.71 240.85 387.57 235.26 390.02C216.14 398.38 202.5 411.62 198.76 432.97C196.05 448.46 204.16 460.83 218.25 463.52C222 464.24 225.51 463.81 228.69 461.33C227.91 459.43 226.09 460.06 224.84 459.6C220.1 457.89 217.35 453.47 218.24 448.65C219.08 444.08 223.04 440.93 227.93 440.91C237.81 440.87 245.26 450.45 242.51 460.81C241.18 465.82 242.58 467.49 246.78 469.54C257.94 474.99 262.4 485.08 258.43 494.37C255.06 502.27 246.17 505.45 239.49 501.16C235.35 498.5 233.85 494.24 235.75 490.49C237.7 486.63 241.72 485.39 246.45 487.19C247.05 487.42 247.65 487.67 248.81 488.13C248.86 484.17 246.87 481.93 244.13 480.28C238.8 477.08 232.87 475.98 226.83 476.84C201.62 480.44 183.22 461.45 186.43 436.13C189.63 410.88 212.71 391.05 236.5 384.87C253.44 380.47 268.98 384.88 283.81 391.69C299.56 398.92 305.05 415.21 298.74 430.81C297.59 433.64 295.9 436.06 293.84 438.28C290.49 441.9 288.32 446.15 287.06 450.92C286.03 454.83 287.17 458.02 289.67 460.91C291 460.31 290.63 459.35 290.74 458.6C291.34 454.38 293.95 452.49 298 452.69C301.72 452.87 304.31 456.31 304.18 460.45C303.94 468 295.64 473.16 288.05 470.47C281.07 468 276.45 460.45 277.63 451.9C278.29 447.15 278.06 444.59 272.66 442.91C265.71 440.75 262.43 432.2 264.89 425.63C266.83 420.47 271.25 418.03 275.85 419.58C280.2 421.05 282.21 425.45 280.88 430.6C280.68 431.37 280.4 432.12 279.94 433.56C283.94 432.55 285.55 429.91 286.83 427.13C291.17 417.72 288.73 408.38 280.01 401.92C267.45 392.59 253.62 392.71 239.55 397.47C227.02 401.7 216.88 409.22 209.75 420.57L209.72 420.56Z" fill="white"/>
<path d="M497.26 239.99C496.37 237.7 495.61 236.36 495.35 234.93C494.68 231.25 496.12 228.34 499.33 226.51C502.68 224.6 505.79 225.46 508.45 228.02C514.41 233.73 512.54 243.99 504.77 248.38C496.93 252.82 486.34 250.28 480.95 241.27C477.17 234.95 474.22 231.48 465.72 233.26C457.71 234.94 450.69 227.72 449.99 219.95C449.48 214.38 452.37 210.05 457.29 209.02C462.44 207.95 466.69 210.44 468.7 215.64C469.1 216.68 468.82 218.01 470.3 218.99C472.88 216.42 473.09 213.25 472.64 209.93C471.04 198.03 462.57 190.2 450.56 189.25C439.38 188.36 429.39 191.56 420.62 198.25C405.29 209.93 396.21 225.16 395.23 244.74C400.27 224.45 410.25 208.07 430.57 198.94C430.67 201.51 429.01 201.61 428.06 202.28C409.62 215.24 401.36 232.87 404.41 255.27C405.61 264.11 409.67 271.78 417.6 276.72C426.71 282.4 438 279.97 442.22 271.48C441.02 270.36 440.13 271.7 439.14 271.93C434.38 273.04 430.03 270.91 428.61 266.68C427.15 262.31 429.51 257.63 434.12 255.78C441.2 252.93 449.4 256.27 452.13 263.77C453.61 267.84 455.35 268.99 459.74 268.34C468.34 267.06 475.57 270.83 478.78 277.29C482.05 283.86 479.54 291.29 473.08 294.16C468.8 296.07 463.84 294.58 462.31 290.92C460.6 286.84 462.47 283.3 467.41 281.26C467.86 281.07 468.29 280.84 469.07 280.46C466.7 277.16 463.5 277.07 460.27 277.79C455.84 278.78 451.67 280.55 448.31 283.73C433.54 297.71 411.07 294.07 400.74 274.92C398.85 271.41 397.02 267.77 396.66 263.71C396.08 257.03 392.08 251.19 392.04 244.39C391.97 232.12 394.85 220.56 400.82 209.9C409.33 194.69 421.13 183.22 438.46 178.41C455.85 173.58 472.85 179.2 481.29 192.74C485.89 200.12 487.14 208.17 486.02 216.75C485.25 222.62 485.89 228.37 488.56 233.78C490.21 237.12 492.86 239.08 497.29 240.03L497.26 239.99Z" fill="white"/>
<path d="M350.39 199.93C364.35 201.8 379.45 221.93 385.82 246.71C385.62 228.6 377.97 213.84 364.78 201.84C355.17 193.1 343.9 188.29 330.59 189.24C317.38 190.19 307.79 200.2 308.18 212.74C308.29 216.24 308.44 216.59 311.48 219.79C311.78 218.36 311.95 217.09 312.31 215.87C313.89 210.51 318.55 207.81 323.95 209.09C328.7 210.21 331.7 215.07 330.85 220.28C329.26 230.06 320.59 235.82 310.33 233.02C305.82 231.79 304.4 233.07 302.67 236.83C298.16 246.66 290.18 251.52 281.48 250.19C275.56 249.29 271.23 246.13 269.48 240.27C268.03 235.43 269 230.97 273.02 227.58C276.08 224.99 279.46 224.76 282.61 227.28C285.66 229.71 286.65 232.91 284.88 236.63C284.46 237.51 283.89 238.33 283.14 239.61C287.7 239.75 290.21 237.37 292.01 234.13C295.22 228.34 295.62 222.07 294.67 215.67C291.73 196.01 306.67 177.82 326.52 176.95C350.72 175.89 372.57 190.83 382.83 215.72C387.18 226.28 391.11 237.36 388.11 248.74C384.95 260.73 383.88 273.74 373.91 283.21C361.95 294.57 345.18 295.29 332.86 284.21C329.4 281.1 325.49 279.08 321.12 277.86C317.57 276.87 314.29 277.39 311.46 280.04C311.82 280.48 311.99 280.88 312.21 280.92C315.8 281.54 318.55 283.14 319.13 287.05C319.57 289.96 318.49 292.3 315.9 293.81C312.46 295.81 309.15 295.18 306.01 293.13C298.99 288.55 299.06 277.65 306.15 272.06C310.76 268.42 316.1 267.32 321.72 268.38C325.32 269.06 327.03 268.33 328.3 264.59C330.97 256.72 338.47 253.14 345.85 255.55C350.99 257.22 353.43 261.47 352.09 266.42C350.89 270.86 346.59 272.98 341.32 271.73C340.55 271.55 339.82 270.9 338.97 271.48C341.07 277.13 349.2 280.88 356.34 279.49C364 278 369.32 273.14 372.58 266.54C381.09 249.29 377.65 232.84 367.97 217.22C364.26 211.23 359.46 206.12 353.23 202.54C352.15 201.92 350.72 201.5 350.38 199.95L350.39 199.93Z" fill="white"/>
<path d="M359.98 381.04C360.08 364.24 373.91 350.75 390.87 350.9C407.55 351.05 421.28 365.2 420.97 381.91C420.66 398.32 406.39 412.31 390.26 411.99C373.45 411.66 359.87 397.78 359.97 381.04H359.98Z" fill="white"/>
<path d="M229.13 302.26C227.11 299.48 224.54 299.17 221.9 299.09C209.5 298.68 199.11 308.79 198.4 322.05C197.72 334.74 202.3 345.64 210.59 354.9C223.42 369.23 239.22 377.47 258.92 376.92C259.75 376.9 260.58 376.96 261.41 377.06C261.69 377.09 261.94 377.37 262.73 377.85C256.65 380.11 250.84 380.28 244.94 379.27C219.14 374.83 198.97 362.56 189.16 337.24C183.83 323.47 184.43 309.63 194.03 297.49C201.79 287.67 212.45 284.13 224.65 285.54C229.74 286.13 234.62 285.92 239.47 284.57C245.24 282.96 247.95 279.91 248.9 274.44C248.76 274.39 248.56 274.25 248.49 274.3C244.82 276.57 241.03 277.55 237.48 274.33C234.92 272 234.22 268.94 235.62 265.65C237.21 261.92 242.38 259.16 246.8 259.58C254.91 260.34 261.02 268.46 259.69 276.79C258.25 285.85 252.17 291.03 244.32 294.37C241.51 295.57 241.09 296.55 242.01 299.45C245.24 309.68 240.66 318.7 231.3 321.32C225.2 323.03 219.8 320.16 218.37 314.46C216.97 308.84 220.51 304.03 226.92 302.83C227.52 302.72 228.1 302.53 229.12 302.25L229.13 302.26Z" fill="white"/>
<path d="M130.64 3.4201C135.85 1.0201 141.23 1.4901 146.33 2.1201C169.12 4.9301 187.53 15.4901 199.41 35.3601C207.48 48.8601 209.53 63.5701 202.13 78.3201C195.66 91.2301 181.39 98.2801 167.06 95.8201C161.58 94.8801 156.4 95.8201 151.35 97.5201C147.25 98.9001 144.26 101.71 143.41 106.24C144.89 107.47 145.63 105.97 146.58 105.64C150.74 104.19 154.73 105.47 156.52 108.93C158.44 112.63 157.31 117.09 153.84 119.57C145.75 125.35 134.4 119.71 133 109.21C131.92 101.12 136.05 93.1801 144.65 88.9501C149.56 86.5301 151.66 84.6701 149.94 78.4401C147.29 68.8601 154.77 60.0501 164.26 59.8401C169.94 59.7101 173.78 62.8701 174.3 68.0901C174.85 73.6401 171.7 77.5701 165.94 78.5001C165.15 78.6301 164.34 78.6601 162.93 78.7901C165.66 82.1901 168.93 82.9501 172.39 82.6101C184.45 81.4201 192.97 72.3701 193.94 60.1101C194.98 46.9801 190.27 35.8901 181.71 26.3301C169.09 12.2401 153.48 4.3701 134.26 4.3801C133.14 4.3801 131.92 4.6701 130.66 3.4401L130.64 3.4201Z" fill="white"/>
<path d="M81.4302 600.78C83.6502 599.23 83.9602 596.82 84.1002 594.33C84.8502 581.1 75.1402 570.99 60.8402 570.34C47.9802 569.75 37.0302 574.59 27.7002 583.09C14.0102 595.58 6.44025 611 6.34025 629.78C6.34025 630.61 6.30024 631.45 6.22024 632.27C6.19024 632.57 5.96024 632.86 5.74024 633.34C4.12024 632.51 4.25025 630.89 4.11025 629.59C1.06025 601.43 20.7502 566.47 51.4602 559.18C58.5402 557.5 65.6502 557.32 72.7202 559.19C90.1402 563.81 100.56 579.84 97.6602 597.67C96.7802 603.12 97.5302 608.36 99.5102 613.34C101.05 617.21 103.45 620.61 108.17 620.84C108.95 619.9 108.43 619.37 108.17 618.79C105.89 613.75 107.25 609.28 111.59 607.5C115.8 605.77 120.43 608.02 122.48 612.8C126.6 622.41 117.91 632.92 106.89 631.57C98.4302 630.53 93.0302 625.34 89.7902 617.91C88.1202 614.1 86.5502 612.94 82.1302 614.26C71.8502 617.33 62.1002 610.39 61.7802 600.47C61.5902 594.38 64.6802 590.47 70.0502 589.98C75.4302 589.49 79.3502 592.72 80.3702 598.47C80.5102 599.23 80.2002 600.17 81.4202 600.77L81.4302 600.78Z" fill="white"/>
<path d="M699.35 161.8C696.75 164.38 696.24 167.03 696.37 169.88C696.94 181.95 706 191.12 718.06 192.06C737.87 193.61 751.73 183.61 762.85 168.72C770.54 158.42 774.19 146.57 774.73 133.75C774.79 132.42 774.88 131.09 775.02 129.77C775.05 129.53 775.38 129.32 775.72 128.92C777.29 132.83 777.45 136.83 777.12 140.75C774.88 166.77 763.55 187.52 739.86 199.52C725.14 206.98 709.5 207.75 695.44 197.03C684.96 189.05 681.53 177.8 683.37 165.03C684.21 159.16 683.09 153.72 680.99 148.45C679.45 144.6 676.57 141.87 672.08 141.45C671.99 141.86 671.77 142.26 671.88 142.41C674.25 145.46 674.98 148.75 672.9 152.15C671.31 154.74 668.69 156.1 665.68 155.81C661.54 155.41 659.31 152.45 657.92 148.86C655.57 142.8 658.78 135.68 665.12 132.63C673.49 128.61 683.61 131.43 688.63 140.79C692.06 147.17 695.11 149.56 702.72 148.12C710.85 146.58 717.02 152.07 718.87 159.78C720.3 165.78 717.57 170.98 712.19 172.48C707.18 173.88 702.27 170.83 700.35 165.11C700.05 164.22 699.8 163.31 699.34 161.79L699.35 161.8Z" fill="white"/>
<path d="M775.07 633.08C774.71 629.29 774.34 625.5 773.99 621.71C771.83 597.84 751.24 574.82 728.4 570.76C712.18 567.87 699.48 575.71 696.63 590.38C695.78 594.77 696.28 596.78 699.21 600.49C700.66 599.72 700.12 598.16 700.51 597.01C702.17 592.08 706.37 589.29 711.22 590.05C716.1 590.82 719.56 595.3 719.29 600.5C718.78 610.48 708.33 617.53 698.23 614.23C694.34 612.96 692.94 613.67 691.35 617.38C686.72 628.15 677.38 633.42 668.13 631.13C659.4 628.97 654.71 619.53 658.67 612.11C661.09 607.58 665.46 605.73 669.44 607.55C673.56 609.44 674.86 613.53 672.92 618.53C672.7 619.11 672.5 619.7 672.13 620.74C676.12 620.78 678.38 618.73 679.98 615.96C682.97 610.78 684.78 604.93 683.52 599.17C678.52 576.39 697.08 552.14 727.89 558.98C754.26 564.83 768.17 583.91 775.15 608.75C777.4 616.75 778.31 624.98 775.06 633.05L775.07 633.08Z" fill="white"/>
<path d="M109.43 141.28C102.75 142.65 99.9704 146.57 98.6104 151.66C97.3604 156.35 96.9904 161.08 97.7804 166C100.89 185.45 85.8504 203.53 66.2404 204.39C41.0404 205.49 24.4804 192.37 12.6404 171.78C6.20037 160.58 3.22037 148.35 3.92037 135.34C4.03037 133.2 3.99037 131.01 5.83037 128.14C6.33037 133.61 6.69037 138.22 7.20037 142.81C9.57037 164.19 29.0704 186.93 49.4904 191.21C60.7704 193.58 71.9504 193.2 79.8904 182.75C85.1204 175.86 85.6304 166.86 81.3104 161.54C79.7804 162.38 80.5704 163.92 80.3004 165.09C79.1504 170.07 74.9604 173.28 70.1304 172.75C65.4504 172.24 62.0604 168.54 61.8104 163.68C61.2704 153.08 70.6604 145.41 81.7204 148.39C86.8104 149.76 88.3504 148.16 90.1004 144.09C92.8704 137.67 97.6604 133.15 104.63 131.41C114.2 129.03 123.26 135.47 123.39 144.65C123.46 149.35 122 153.22 117.41 155.22C114.34 156.55 111.47 155.99 109.19 153.52C105.81 149.86 106.57 145.96 109.46 141.27L109.43 141.28Z" fill="white"/>
<path d="M637.79 108.07C635.47 98.5801 626.44 93.8301 615.13 95.7001C609.22 96.6801 603.59 96.2201 597.89 94.4601C585.1 90.5301 575.91 78.7201 574.82 65.3501C573.49 48.9401 578.96 35.0401 590.28 23.6101C604.9 8.84011 622.69 1.15011 643.77 1.94011C647.05 2.06011 647.05 2.09011 650.63 3.89011C645.15 4.38011 639.94 4.24011 635.02 5.38011C612.39 10.6301 595.91 23.2601 588.3 45.8901C586.35 51.6901 586.58 57.8001 587.51 63.7301C589.17 74.2801 598.41 82.2001 609.13 82.5901C612.31 82.7101 615.39 81.9801 617.84 79.4101C616.62 78.0501 615.01 78.7501 613.68 78.4001C609.15 77.2101 605.96 72.9301 606.37 68.3701C606.77 63.8801 610.23 60.3901 614.81 59.8701C625.26 58.6701 633.63 68.5101 630.81 79.6901C629.57 84.6001 630.9 86.1801 634.99 88.1701C646.89 93.9701 651.2 105.06 645.9 114.81C643.03 120.09 637.04 122.94 631.62 121.52C627.51 120.44 624.22 118.28 623.35 113.8C622.76 110.73 624.08 108.19 626.62 106.47C630.36 103.93 633.89 104.96 637.81 108.07H637.79Z" fill="white"/>
<path d="M453.16 343.32C444.02 346.79 441.69 358.3 447.89 366.21C450.81 369.93 454.5 372.73 458.74 374.85C462.49 376.71 466.13 376.99 469.45 374.12C471.65 372.22 473.11 372.39 475.29 374.49C479.77 378.79 483.14 378.82 488.11 375.03C489.77 373.76 491.1 373.26 493.04 374.25C496.45 375.99 499.95 377.54 503.39 379.22C505.85 380.42 506.48 381.88 503.62 383.33C500.06 385.14 496.42 386.78 492.83 388.55C490.85 389.52 489.45 388.62 487.85 387.5C483.08 384.16 479.59 384.18 475.28 388.09C473.02 390.14 471.51 390 469.32 388.31C466.1 385.83 462.6 385.9 458.98 387.69C453.95 390.18 449.58 393.37 446.67 398.28C442.01 406.17 444.74 415.92 452.56 419.33C452.65 419.03 452.9 418.66 452.8 418.46C451.16 415.2 450.88 412.03 453.64 409.25C455.54 407.34 457.97 406.58 460.51 407.69C464.23 409.32 466.06 412.47 466.17 416.4C466.31 421.56 463.82 425.37 459.18 427.55C453.3 430.31 447.69 429.22 442.81 425.27C432.43 416.87 431.3 401.45 440.16 391.41C441.48 389.92 442.93 388.53 444.42 387.21C446.26 385.58 448.57 384.16 444.31 382.63C442.55 382 442.29 380.7 444.27 379.97C449.41 378.08 445.75 376.62 444.06 375.21C432.66 365.77 430.99 351.77 439.95 340.18C444.25 334.61 451.88 332.35 458.34 334.72C464.8 337.09 467.89 343.95 465.3 350.15C463.63 354.14 459.64 356.3 456.08 354.83C452.01 353.15 450.91 349.95 452.22 345.84C452.42 345.23 452.66 344.63 453.14 343.32H453.16Z" fill="white"/>
<path d="M352.34 444.44C356.46 442.04 359.79 441.71 362.63 444.76C364.64 446.92 364.88 449.62 363.72 452.23C362.1 455.88 358.72 457.01 355.11 457.19C345.87 457.63 339.97 446.71 344.35 437.41C349.22 427.06 363.56 422.22 374.42 427.28C378.57 429.21 382.05 432.01 384.81 435.66C386.24 437.56 387.52 439.65 389.01 435.66C389.81 433.51 391.04 433.56 391.9 435.66C393.49 439.57 394.73 437.31 396.2 435.56C403.33 427.08 412.06 422.93 423.18 426.35C434.41 429.8 440.47 439.99 437.04 449.17C434.45 456.12 426.82 459.35 420.83 455.91C417.35 453.91 415.12 450.96 416.87 446.81C418.56 442.78 421.91 441.81 425.98 443.14C426.72 443.38 427.34 444.17 428.26 443.64C425.3 436.08 416.07 432.98 408.36 437.16C402.25 440.47 398.24 445.64 395.94 452.21C394.74 455.65 395.88 458.46 397.92 461.02C399.47 462.95 399.34 464.19 397.55 466.05C393.27 470.5 393.02 474.05 396.55 478.92C398.04 480.97 398.34 482.72 397.2 484.86C396.65 485.89 396.28 487.02 395.65 487.99C393.82 490.81 393.63 496.2 390.2 496.04C387.09 495.89 386.64 490.6 384.93 487.64C382.92 484.17 382.12 480.98 385.36 477.31C388.34 473.94 387 469.89 384.16 466.91C381.95 464.6 381.24 462.86 383.5 460.22C385.88 457.43 385.95 454.2 384.43 450.86C381.28 443.95 376.92 438.21 369.33 435.9C362.38 433.79 354.72 437.42 352.33 444.44H352.34Z" fill="white"/>
<path d="M352.57 319.64C356 326.02 363.16 328.88 370.05 326.42C378.47 323.43 383.05 316.95 385.32 308.61C386.01 306.07 384.72 303.98 383.28 302.19C381.5 299.97 381.43 298.55 383.64 296.36C387.8 292.25 387.96 288.44 384.35 283.98C382.57 281.78 382.47 280.01 383.72 277.68C385.45 274.45 386.95 271.1 388.59 267.83C389.78 265.46 391.15 265.26 392.37 267.77C394.19 271.51 395.88 275.32 397.63 279.09C398.48 280.91 397.46 282.2 396.53 283.64C393.13 288.86 393.22 292.35 397.41 296.58C399.41 298.61 399.52 300.02 397.73 302C394.58 305.49 395.05 309.17 397.04 313.09C400.16 319.22 404.09 324.45 411.01 326.51C418.62 328.77 426.5 325.17 428.36 318.7C427.2 318.23 426.57 319.31 425.69 319.63C421.93 320.99 419.02 319.63 417.14 316.47C415.1 313.05 416.39 310 419.3 307.68C424.72 303.38 433.1 305.44 436.36 311.78C439.68 318.25 437.71 326.82 431.78 331.62C420.66 340.62 405.74 338.96 396.72 327.73C395.79 326.58 394.81 325.47 393.86 324.37C391.46 325.05 392.53 327.81 390.7 328.77C388.35 328.41 389.2 325.3 387.13 324.42C385.02 326.64 383 329.05 380.69 331.14C371.82 339.16 358.78 339.46 349.53 331.98C343.85 327.38 341.54 320.09 343.71 313.64C345.93 307.05 353.27 303.71 359.46 306.47C363.44 308.24 365.44 312.2 363.88 315.83C362.26 319.62 359.19 320.76 355.26 319.68C354.49 319.47 353.75 318.9 352.56 319.65L352.57 319.64Z" fill="white"/>
<path d="M338.79 381.67C333.15 383.4 333.86 385.05 337.39 388.11C348.23 397.5 349.56 411.07 341.23 422.05C336.85 427.82 329.59 430.27 323.06 428.18C318.07 426.58 314.81 422.15 314.82 416.9C314.82 412.99 315.95 409.61 319.78 407.84C322.45 406.61 325.02 407.08 327.17 409.11C329.66 411.45 329.72 414.35 327.54 419.17C333.3 418.3 338 410.43 336.35 404.01C333.96 394.73 327.35 389.56 318.67 386.62C316.07 385.74 313.64 386.58 311.67 388.26C309.33 390.25 307.65 390.13 305.3 387.97C301.13 384.15 297.23 384.09 292.75 387.53C290.87 388.98 289.36 389.2 287.33 388.15C284.23 386.55 281.04 385.11 277.89 383.59C274.54 381.97 274.97 380.45 278.02 378.98C281.02 377.54 284.05 376.15 286.99 374.58C289.15 373.42 290.79 373.55 292.85 375.14C297.73 378.9 301.14 378.76 305.71 374.47C307.76 372.55 309.07 372.41 311.13 374.14C314.27 376.77 317.74 376.68 321.43 375.11C326.32 373.03 330.39 369.94 333.43 365.65C339.21 357.48 336.66 347.26 327.88 342.92C326.93 343.79 328 344.31 328.27 344.92C330.1 349.22 328.96 353.07 325.35 354.68C321.57 356.36 317.45 354.47 315.63 350.2C313.69 345.66 314.91 340.31 318.65 336.98C322.77 333.31 330.23 332.76 335.54 335.74C347.05 342.18 350.08 359.62 341.49 370.23C340.24 371.77 338.78 373.17 337.33 374.53C333.35 378.24 333.33 378.22 338.78 381.65L338.79 381.67Z" fill="white"/>
<path d="M699.89 661.31C700.87 661.87 701.38 662.24 701.94 662.48C706.94 664.61 708.91 668.22 707.1 672.01C705.3 675.79 700.12 677.27 695.81 675.24C688.11 671.61 686.7 661.03 693.2 654.5C697.77 649.91 703.52 648.5 709.76 649.57C713.42 650.2 715.36 649.7 716.7 645.61C719.22 637.9 727.19 634.26 734.33 636.74C739.57 638.56 741.98 642.81 740.5 647.59C739.08 652.19 735.03 654.17 729.69 652.86C728.91 652.67 728.15 652.35 726.63 651.84C727.49 655.65 729.95 657.22 732.51 658.52C741.46 663.07 751.23 660.85 757.52 652.75C768.18 639.01 767.67 624.05 761.75 608.76C757.62 598.09 750.93 589.33 740.96 583.33C740.2 582.87 739.06 582.56 739.21 580.87C745.22 582.54 750.1 585.95 754.24 590.18C769.71 605.98 777.9 624.34 772.17 646.79C769.52 657.18 763.75 665.58 753.71 670.42C743.22 675.48 730.66 673.73 722.1 665.84C718.17 662.21 713.57 660.14 708.46 658.97C705.34 658.26 702.67 658.97 699.9 661.28L699.89 661.31Z" fill="white"/>
<path d="M677.84 78.9301C678.28 78.5301 678.67 78.3501 678.71 78.1101C679.33 74.4501 681.2 71.8801 685.01 71.3301C687.72 70.9401 689.99 72.1401 691.26 74.5701C693.01 77.9301 692.75 81.3701 690.76 84.5701C686.94 90.7001 678.6 91.7601 672.33 86.9501C666.7 82.6301 665.11 76.6101 666.01 70.0001C666.62 65.5701 665.91 63.3201 661.11 61.7601C654.26 59.5301 651.14 52.3301 652.87 45.5501C654.34 39.7901 658.81 36.8801 663.98 38.3301C668.55 39.6101 670.62 44.0201 669.24 49.5601C669.08 50.1901 668.69 50.8201 669.6 51.6501C672.2 51.2301 673.49 49.1001 674.65 46.9301C679.3 38.2101 677.3 27.8501 669.59 21.6501C656.5 11.1501 641.92 11.3101 627 16.5001C615.51 20.4901 606.15 27.5201 599.7 38.0601C599.29 38.7301 598.76 39.3301 598.19 40.1001C596.84 38.5001 597.98 37.3901 598.48 36.3601C609.01 14.6801 637.81 0.790078 661.15 6.09008C676.94 9.68008 688.07 20.6701 689.48 34.6001C690.39 43.5001 687.46 51.3601 681.53 58.0201C678.09 61.8801 675.94 66.2901 675.29 71.3801C674.93 74.2201 675.34 76.9401 677.84 78.9201V78.9301Z" fill="white"/>
<path d="M42.1401 181.59C38.7401 181.72 36.7501 179.72 34.5601 178.42C15.1701 166.94 3.25014 140.4 8.01014 118.63C10.6501 106.58 16.5301 96.6801 28.6001 91.5701C40.0701 86.7201 50.1501 89.7301 59.3001 97.0201C62.9001 99.8901 66.6301 102.22 71.0101 103.41C74.4701 104.35 77.9301 104.44 80.7201 101.55C80.5401 99.7001 78.9701 100.29 78.0401 99.9001C74.5401 98.4201 72.5901 95.8801 73.3901 92.0901C74.2301 88.0901 77.2101 86.3501 81.1501 86.5001C88.1001 86.7501 93.2401 94.1401 91.5301 101.23C89.6501 109.01 82.2901 114.02 72.6001 113.08C67.8101 112.62 65.3901 113.19 63.5601 118.26C61.0101 125.32 52.9901 128.17 46.1001 125.65C41.2001 123.86 38.9601 119.74 40.3101 115.04C41.5201 110.85 45.7601 108.58 50.6401 109.5C51.5601 109.67 52.4601 110.49 53.4401 109.67C50.2301 102.25 38.3701 99.3601 30.1201 104.22C20.3401 109.97 16.0301 119.31 15.4601 130.05C14.3701 150.5 22.1101 167.02 39.2101 178.81C39.8901 179.28 40.5901 179.74 41.2401 180.26C41.4801 180.45 41.6001 180.78 42.1401 181.6V181.59Z" fill="white"/>
<path d="M81.9496 661.97C78.4896 658.93 75.4796 658.11 71.9896 658.98C67.3996 660.13 63.2096 661.98 59.6296 665.19C45.6696 677.69 25.8696 675.67 15.1696 660.27C3.07962 642.85 4.89962 624.75 14.0096 606.82C19.2396 596.53 26.6896 588.1 37.0896 582.61C38.1196 582.07 39.1596 581.54 40.2296 581.08C40.6496 580.9 41.1596 580.93 42.1096 580.8C41.1596 583.09 39.1996 583.72 37.6896 584.74C20.9196 596.11 11.4296 620.31 16.4496 639.22C18.1996 645.79 21.3296 651.59 26.5896 656.08C32.9996 661.56 41.5796 662.44 48.9796 658.3C51.3296 656.98 53.3096 655.24 53.9796 652.4C52.6196 651.56 51.7796 652.81 50.7496 653.05C45.9696 654.16 41.6096 651.97 40.2896 647.71C38.9396 643.36 41.0596 639.06 45.4996 637.12C52.6096 634.01 61.4196 637.45 63.8496 645.14C65.3296 649.8 67.3996 650.29 71.6996 649.58C81.2696 647.99 89.2496 653.11 91.4696 661.51C92.7096 666.21 91.2596 670.18 87.9096 673.31C84.9396 676.08 81.2096 677.2 77.2896 675.38C74.5396 674.1 72.7896 671.82 73.2896 668.57C73.9496 664.28 76.9896 662.53 81.9496 661.98V661.97Z" fill="white"/>
<path d="M739.21 181.31C739.83 179.28 741.64 178.92 742.97 178.04C759.28 167.28 769.01 143.52 764.76 124.67C763.38 118.53 760.53 113.11 756.36 108.42C750.59 101.93 740.27 100.09 732.55 104.02C729.68 105.49 728.49 106.84 726.86 110.53C728.01 111.23 728.69 110.07 729.56 109.79C734.18 108.28 738.53 110.12 740.28 114.39C742 118.59 740.16 123.13 735.86 125.25C728.83 128.72 719.48 125.34 716.97 117.54C715.46 112.85 713.41 112.48 709.15 113.05C699.96 114.28 692.84 110.23 689.95 102.95C688.03 98.11 688.98 93.67 692.38 89.96C695.26 86.83 698.96 85.45 703.26 87.01C706.31 88.11 707.81 90.51 707.66 93.58C707.46 97.96 704.23 99.7 700 100.74C702.42 104.26 705.65 104.29 708.87 103.68C713.54 102.8 717.58 100.5 721.19 97.4C737 83.85 758.27 87.76 768.13 106.06C778.58 125.45 774.42 143.74 763.58 161.33C758.71 169.24 752.07 175.53 743.81 179.97C742.79 180.52 741.72 180.99 740.63 181.39C740.25 181.53 739.74 181.34 739.19 181.29L739.21 181.31Z" fill="white"/>
<path d="M112.38 51.85C112.18 51.08 112.04 50.48 111.86 49.89C110.16 44.18 112.23 39.58 117.07 38.31C122.02 37.01 126.79 40.3 128.08 45.89C129.63 52.6 125.87 59.97 118.93 62.23C114.75 63.59 114.16 65.52 114.82 69.5C116.43 79.35 111.13 87.84 102.77 89.72C96.8199 91.05 90.6999 87.65 88.8199 81.97C87.3599 77.54 89.3199 72.93 93.2199 71.63C96.8599 70.42 100.06 72.43 101.85 77.04C102.08 77.64 102.34 78.23 102.76 79.28C105.78 77.03 106.19 74.19 105.68 71.18C104.83 66.16 102.77 61.7 99.3199 57.85C86.5999 43.64 88.9199 23.32 104.8 12.72C121.85 1.33998 139.53 3.04998 156.98 11.76C166.65 16.58 174.76 23.46 180.39 32.92C181.66 35.04 183.03 37.12 183.64 40.97C180.45 36.97 178.24 33.63 175.48 30.84C160.83 15.95 143.38 9.49998 122.84 15.41C113.03 18.23 105.14 24.17 103.81 35.55C102.93 43.09 106.41 49.73 112.36 51.87L112.38 51.85Z" fill="white"/>
<path d="M209.42 341.13C215.9 351.72 224.79 359.4 236.26 364.02C246.58 368.18 257.23 369.66 268.05 366.65C277.43 364.04 285.02 358.85 288.19 349.02C289.93 343.62 288.64 338.44 285.88 333.67C284.77 331.74 283.32 329.82 280.79 329.56C280.09 330.69 280.76 331.4 280.93 332.18C282.12 337.47 280.03 341.72 275.59 343.02C270.88 344.4 266.49 341.84 264.75 336.69C262.3 329.45 265.92 321.76 273.79 319.17C277.77 317.86 278.34 316.02 277.82 312.34C276.87 305.62 278.01 299.37 283.69 294.74C288.3 290.98 293.41 290.42 298.56 293.22C302.65 295.44 305.06 300.42 303.91 304.57C303.03 307.74 300.97 309.97 297.58 310.05C292.56 310.17 290.98 306.5 290.2 301.77C286.87 304.47 286.15 307.46 286.91 310.9C287.97 315.69 289.97 320.01 293.28 323.72C305.33 337.25 303.7 356.11 289.52 367.37C279.52 375.31 267.91 377.74 255.61 376.03C238.35 373.63 224.23 365.4 213.82 351.22C211.67 348.29 209.58 345.26 209.42 341.13Z" fill="white"/>
<path d="M429.13 603.14C426.31 597.53 422.45 592.37 421.54 585.91C421.34 584.49 420.53 582.88 422.34 581.93C423.83 581.15 425.14 581.58 426.45 582.63C436.85 590.98 448.9 593.79 461.96 593C466.07 592.75 469.69 593.17 471.12 597.86C471.22 598.17 471.45 598.72 471.56 598.71C477.38 597.96 479.51 604.52 484.59 605.26C486.84 605.59 488.78 606.62 489.12 609.19C489.45 611.7 487.97 613.44 485.95 614.35C483.79 615.33 482.94 616.77 482.05 618.92C480.49 622.68 476.8 623.07 473.14 622.81C471.54 622.7 469.76 621.79 468.53 623.51C464.64 628.91 459.8 627.42 455.21 625.06C446.09 620.37 438.37 613.83 431.7 606.05C430.84 605.04 429.95 604.06 429.07 603.07L429.13 603.14Z" fill="white"/>
<path d="M352.11 603.08C344.85 611.15 337.18 618.74 327.53 624.01C322.17 626.93 316.89 629.34 311.89 623.33C310.74 621.95 309.09 622.82 307.63 622.87C303.34 623.01 299.56 622.06 298.09 617.4C297.42 615.28 295.46 615.02 294.03 613.98C292.47 612.85 291.28 611.46 291.5 609.41C291.75 607.12 293.38 605.7 295.43 605.44C298.33 605.07 300.31 603.81 301.79 601.34C302.48 600.18 303.87 599.43 305.2 599.48C308.28 599.61 309.76 598.18 311.06 595.46C312.38 592.7 315.46 592.87 318.17 593.01C328.67 593.58 338.83 592.36 348.1 586.95C350.79 585.38 353.27 583.45 355.82 581.69C357.42 583.16 355.62 584.26 355.79 585.64C357.52 585.62 357.19 583.13 359.3 583.05C359.76 590.84 354.85 596.63 352.06 603.14L352.11 603.09V603.08Z" fill="white"/>
<path d="M224.94 723.26C223.86 723.68 222.66 723.92 222.09 725.12C216.85 727.16 212.08 730.43 206.41 731.35C205.25 731.54 203.52 732.66 202.99 730.8C202.61 729.46 201.57 728.08 203.04 726.31C212.06 715.43 214.51 702.66 213.39 688.91C213.29 687.65 213.37 685.68 214.13 685.16C218.24 682.39 219.54 677.9 222 674.06C223.52 671.68 225.69 670.01 226.29 666.8C226.99 663.07 231.14 662.17 233.5 665.14C235.46 667.61 237.33 669.72 240.26 671.27C243.32 672.89 243.39 676.48 243.13 679.75C243 681.34 242.3 682.95 244.07 684.28C248.79 687.82 247.94 692.4 245.83 696.83C241.86 705.19 236.12 712.27 229.38 718.58C227.81 720.05 226.41 721.7 224.93 723.26H224.94Z" fill="white"/>
<path d="M612.98 342.23C612.31 342.55 611.63 342.87 610.96 343.19C606.02 345.54 601.52 348.88 595.99 349.91C594.41 350.2 592.82 350.91 591.51 349.05C590.13 347.09 590.98 345.74 592.2 344.2C600.05 334.27 602.32 322.69 601.9 310.39C601.76 306.24 601.51 302.26 606.51 300.56C608.04 300.04 607.98 298.5 608.14 297.18C608.33 295.67 608.6 294.01 609.82 293.11C612.48 291.16 614.12 288.82 614.55 285.46C614.77 283.78 616.11 282.46 617.99 282.3C620.22 282.11 621.99 283.24 622.91 285.1C624.01 287.33 625.45 288.68 627.82 289.59C630.9 290.78 631.44 293.78 631.31 296.72C631.17 299.81 631.58 302.3 634.05 304.76C637.38 308.07 636.04 312.19 634.14 315.91C629.78 324.47 623.79 331.77 616.75 338.26C615.41 339.49 614.23 340.9 612.98 342.23Z" fill="white"/>
<path d="M168.13 342.13C159.71 334.74 152.19 326.6 147.1 316.47C145.74 313.76 143.77 310.48 145.37 307.99C148.46 303.2 149.64 298.15 150.15 292.69C150.29 291.21 151.5 289.8 153.01 289.48C155.58 288.94 156.87 287.38 157.97 285.16C158.86 283.35 160.47 281.93 162.79 282.33C165.03 282.72 166.29 284.39 166.63 286.44C167.07 289.1 168.24 290.98 170.54 292.41C171.41 292.95 172.24 294.28 172.28 295.29C172.42 298.42 172.9 300.63 176.59 301.81C179.33 302.69 179.29 306.08 179.16 308.81C178.72 317.87 179.45 326.74 183.18 335.19C185.06 339.45 188.05 342.99 190.8 347.29C187.06 347.68 185.29 344.51 182.13 343.83C183.86 346.68 186.99 347.2 189.58 350.12C180.69 350.1 174.54 345.65 168.09 342.07L168.15 342.12L168.13 342.13Z" fill="white"/>
<path d="M41.0696 540.15C48.1696 531.89 56.0596 524.53 65.7496 519.38C70.7896 516.7 75.8896 514.65 80.4296 520.46C81.6596 522.04 83.5696 520.99 85.1596 520.99C89.4396 521.01 93.2196 521.77 94.4196 526.7C94.8996 528.68 96.8096 528.84 98.1096 529.77C99.8096 530.98 101.26 532.4 100.88 534.68C100.49 536.97 98.7496 538.18 96.6296 538.23C93.9396 538.29 92.9596 540.41 91.1896 541.63C87.0096 544.51 81.9196 545.98 78.7696 550.47C78.2796 551.17 76.2396 551 74.9496 550.89C61.4796 549.74 49.0096 552.42 38.5296 561.27C36.0896 563.33 35.4996 559.42 33.5596 560.77C33.1196 561.08 33.1196 558.85 33.2996 557.79C34.4196 551.24 38.0596 545.79 41.1196 540.08L41.0696 540.14V540.15Z" fill="white"/>
<path d="M351.25 158.26C351.52 158.86 351.78 159.47 352.04 160.07C354.77 165.38 358.24 170.37 359.21 176.42C359.4 177.59 361 179.42 358.55 180.1C357.16 180.48 355.96 181.47 354.16 179.99C343.41 171.18 330.81 168.56 317.22 169.59C315.94 169.69 313.93 169.82 313.43 169.11C310.48 164.98 305.83 163.6 301.91 161.01C299.68 159.54 298.14 157.48 295.11 156.85C290.85 155.97 290.22 151.81 293.83 149.05C295.97 147.41 297.68 145.77 298.95 143.27C300.56 140.09 303.99 139.74 307.26 139.96C309.64 140.12 311.33 139.82 313.33 137.87C317.04 134.26 321.66 135.45 325.83 137.62C333.89 141.8 340.77 147.51 346.93 154.16C348.28 155.62 349.81 156.9 351.26 158.27L351.25 158.26Z" fill="white"/>
<path d="M224.06 39.09C231.83 45.95 239.07 53.28 244.1 62.47C247.12 67.99 250.34 73.52 243.4 78.73C242.04 79.75 243.11 81.57 243.15 83.02C243.25 87.27 242.67 91.12 237.76 92.48C235.86 93 235.55 94.83 234.58 96.12C233.24 97.9 231.77 99.61 229.23 98.91C227.06 98.31 225.92 96.55 225.77 94.46C225.61 92.11 223.62 90.97 222.84 89.39C220.27 84.18 215.02 80.57 213.55 75.21C212.44 71.13 213.76 66.38 213.27 61.86C212.22 52.14 209.2 43.37 202.64 35.98C202.24 35.53 202.05 34.89 201.8 34.4C203.24 32.87 204.39 34.85 205.65 34.32C205.73 32.78 203.13 33.2 203.6 31.19C211.49 31.12 217.59 35.71 224.12 39.15L224.06 39.1V39.09Z" fill="white"/>
<path d="M740.12 222.07C732.92 230.46 724.96 237.96 715.13 243.24C710.04 245.97 705.03 247.92 700.39 242.27C698.93 240.49 696.62 241.49 694.68 241.41C690.97 241.25 687.61 240.65 686.71 236.24C686.26 234.01 684.12 233.88 682.68 232.87C680.96 231.65 679.62 230.15 680.05 227.88C680.47 225.65 682.1 224.34 684.24 224.19C686.81 224.02 687.98 222.24 689.79 220.9C693.82 217.9 698.42 215.7 702.24 212.23C703.26 211.3 705.77 211.89 707.59 211.95C720.09 212.38 731.87 210.15 741.74 201.92C743.98 200.05 745.78 201.63 747.5 201.84C748.87 202.01 747.72 204.44 747.42 205.81C746.11 211.76 742.68 216.77 740.06 222.14L740.11 222.07H740.12Z" fill="white"/>
<path d="M427.23 161.87C427.85 160.95 428.47 160.04 429.09 159.12C435.41 152.01 442.22 145.45 450.31 140.35C454.12 137.95 458.21 134.56 462.67 136.1C468.3 138.04 474.22 139.22 479.55 141.48C483.17 143.02 485.62 147.81 488.58 151.14C490.69 153.51 488.55 156.4 485.47 156.97C482.71 157.48 480.4 157.94 479.27 160.93C478.79 162.18 477.31 162.88 475.98 162.93C472.98 163.04 471.19 164.36 469.96 167.14C468.99 169.35 466.64 169.8 464.37 169.6C450.21 168.4 437.24 171.39 425.92 180.34C425.73 180.49 425.31 180.36 424.99 180.36C423.91 179.01 425.61 177.92 425.3 176.56C423.39 176.82 423.91 179.5 421.57 179.84C420.93 172.98 425.32 167.78 427.25 161.87H427.23Z" fill="white"/>
<path d="M167.04 421.14C168.06 420.47 169.07 419.79 170.09 419.12C176.14 416.41 181.69 412.2 189.04 412.49C188.29 415.22 185.12 414.82 184.36 417.14C186.6 417.31 187.87 414.56 190.69 415.42C188.86 418.11 187 420.56 185.43 423.19C180.02 432.24 178.53 442.17 179.14 452.52C179.39 456.75 179.18 460.64 174.23 462.18C172.83 462.62 172.69 463.72 172.76 464.98C172.84 466.34 172.69 467.87 171.68 468.72C168.82 471.12 167.22 474.01 166.12 477.63C165.07 481.09 160.9 481.28 158.58 478.07C156.92 475.77 155.32 473.99 152.59 472.68C149.27 471.08 149.03 467.35 149.42 463.88C149.6 462.25 150.22 460.6 148.43 459.37C143.87 456.23 144.5 451.92 146.35 447.78C149.86 439.94 155.14 433.3 161.17 427.24C163.16 425.24 165.09 423.18 167.05 421.15L167.04 421.14Z" fill="white"/>
<path d="M40.1297 221.14C37.1997 214.93 32.9097 209.19 33.1197 201.41C35.9497 202.47 35.6297 205.89 38.1497 206.87C38.0297 204.43 35.4397 202.99 35.9597 199.95C38.6797 201.83 41.0897 203.74 43.7197 205.27C52.7497 210.55 62.6097 212.48 72.9697 211.91C77.1597 211.68 81.0097 211.75 82.9597 216.43C83.5397 217.82 85.0197 217.96 86.3697 218.1C88.2797 218.3 90.1697 218.96 91.0097 220.64C92.3197 223.24 94.3897 223.93 96.9897 224.32C99.0597 224.63 100.72 225.84 100.98 228.18C101.21 230.27 100.07 231.78 98.3397 232.6C95.9497 233.73 94.6497 235.44 93.5497 237.89C92.0997 241.1 88.8397 241.94 85.4697 241.49C82.8097 241.14 80.9197 241.75 78.8697 243.77C75.1597 247.43 70.7697 245.93 66.8397 243.86C57.5997 239 49.7097 232.44 43.0897 224.36C42.1497 223.21 41.0797 222.16 40.0697 221.07L40.1197 221.13L40.1297 221.14Z" fill="white"/>
<path d="M559.2 725.19C558.2 724.52 557.2 723.84 556.2 723.17C548.31 716.39 541.59 708.61 536.39 699.58C533.32 694.24 531.21 688.95 536.93 683.83C538.47 682.45 537.84 680.38 537.83 678.59C537.79 674.61 538.72 671.24 543.07 670.02C545.16 669.43 545.52 667.45 546.62 666.05C547.78 664.58 549.06 663.17 551.16 663.52C553.18 663.86 554.61 665.32 554.8 667.18C555.12 670.28 556.53 672.33 559.09 673.98C560.53 674.91 560.9 676.71 561.09 678.41C561.22 679.57 561.16 681.02 562.41 681.45C567.9 683.33 567.4 687.74 567.27 692.16C566.91 704.68 569.48 716.33 577.68 726.26C578.07 726.73 578.26 727.38 578.77 728.42C574.09 728.34 571.92 724.67 567.49 722.37C570.6 726.62 574.39 728.21 578.49 731.26C570.29 731.68 564.98 727.72 559.2 725.19Z" fill="white"/>
<path d="M558.07 38.15C564.27 35.17 570.061 31.03 578.771 31.08C573.741 34.93 568.96 37.25 566.05 41.68C570.18 39.28 573.18 35.05 579.19 33.76C577.14 36.82 575.51 39.03 574.1 41.37C568.58 50.52 566.83 60.58 567.29 71.09C567.47 75.27 567.45 79.16 562.82 81.16C561.41 81.77 561.25 83.19 561.1 84.54C560.89 86.45 560.18 88.25 558.51 89.17C556.23 90.42 555.21 92.11 555 94.69C554.83 96.76 553.701 98.57 551.451 99.04C548.961 99.56 547.25 98.11 546.18 96.11C545.13 94.14 544.001 92.77 541.651 91.98C538.051 90.77 537.75 87.31 537.88 84.06C537.99 81.3 537.49 79.21 535.36 76.98C531.64 73.1 533.391 68.54 535.581 64.48C540.531 55.29 547.13 47.43 555.25 40.85C556.28 40.02 557.181 39.03 558.141 38.12L558.081 38.17L558.07 38.15Z" fill="white"/>
<path d="M594.08 299.28C592.56 296.85 593.4 294.55 592.48 291.72C592.24 294.52 592.06 296.6 591.86 298.95C589.43 298.24 589.19 296.2 588.39 294.72C583.27 285.2 577.12 276.64 567.23 271.48C565.84 270.76 564.24 269.77 564.73 268.17C565.68 265.1 564.09 263.09 562.99 260.53C561.76 257.67 560.98 255.17 558.13 253.2C555.06 251.09 556.1 247.36 559.87 245.94C562.08 245.11 563.96 244.16 565.73 242.47C568.7 239.65 572.27 240.53 575.43 242.39C577.68 243.72 579.55 244.29 582.35 243.51C586.67 242.3 589.93 245.18 591.68 248.65C599.71 264.55 600.43 281.13 595.39 298.08C595.28 298.46 594.72 298.7 594.08 299.27V299.28Z" fill="white"/>
<path d="M697.33 201.49C692.71 203.07 688.99 200.67 684.9 201.53C688.78 203.41 692.88 202.53 697.14 203.64C695.34 206.17 692.96 206.46 690.82 206.86C677.84 209.31 665 209.12 652.43 204.5C643.26 201.13 642.04 199.44 642.05 189.66C642.05 187.72 640.51 186.39 639.71 184.77C637.86 181.01 637.14 177.44 641.2 174.6C642.78 173.5 642.71 171.75 643.27 170.22C644.88 165.87 648.5 165.31 651.74 168.65C655.36 172.39 659.61 174.96 665.12 174.52C666.83 174.38 668 175.21 668.75 176.65C674.61 187.85 684.4 194.51 695.37 199.84C695.91 200.1 696.31 200.63 697.32 201.49H697.33Z" fill="white"/>
<path d="M203.36 83.0001C204.77 86.1301 202.59 89.0801 203.54 92.1201C205.3 89.0801 204.28 85.5501 205.87 81.5801C208.99 87.0701 209.52 92.4801 209.98 97.7501C210.96 108.87 209.24 119.67 204.82 129.97C201.9 136.79 199.4 138.18 191.84 137C189.83 136.69 188.84 138.15 187.44 138.91C183.48 141.04 179.62 142.19 176.35 137.83C175.2 136.29 173.44 136.41 171.93 135.83C167.62 134.19 166.99 130.42 170.46 127.33C174.44 123.77 176.63 119.4 176.3 113.97C176.2 112.27 176.78 111.02 178.27 110.27C189.1 104.83 195.47 95.3701 200.96 85.1101C201.41 84.2701 201.71 83.2201 203.37 83.0101L203.36 83.0001Z" fill="white"/>
<path d="M205.31 681.03C204.75 675.7 204.44 670.9 202.59 665.19C202.32 670.86 204.75 675.29 203.52 680.2C200.99 679.49 200.77 677.26 199.92 675.68C194.88 666.28 188.56 658.08 179.07 652.74C177.89 652.08 176.03 651.11 176.56 650.01C178.8 645.33 173.7 642.68 173.81 638.67C173.87 636.57 171.79 636.28 170.55 635.28C168.14 633.35 167.2 630.98 169.43 628.42C173.97 623.21 182.54 621.64 189.03 624.75C190.32 625.37 191.39 625.56 192.78 625.01C197.38 623.21 201.05 625.51 202.91 629.11C211.29 645.39 212.65 662.39 206.73 679.83C206.64 680.09 206.26 680.25 205.32 681.03H205.31Z" fill="white"/>
<path d="M84.5997 203.54C88.1997 202.44 92.3597 203.44 96.2497 201.47C92.1497 200.72 88.3097 203.07 84.4697 201.74C84.5897 199.67 86.2297 199.68 87.2897 199.08C97.1097 193.6 106.48 187.62 111.81 177.14C112.44 175.9 113.31 174.4 114.66 174.73C118.06 175.57 120.42 173.7 123.27 172.58C125.82 171.57 127.8 170.58 129.58 168.4C132.21 165.19 135.79 165.91 137.41 169.79C138.31 171.95 139.33 173.84 140.85 175.69C143.53 178.94 142.65 182.63 140.51 185.89C139.25 187.81 138.69 189.32 139.52 191.78C140.96 196.06 138.45 199.54 135 201.38C119.2 209.79 102.6 210.35 85.6397 205.41C84.9997 205.22 84.4797 204.78 84.5997 203.55V203.54Z" fill="white"/>
<path d="M472.63 176.45C481.4 173.01 490.62 172.52 499.92 173.2C506.75 173.69 513.37 175.29 519.7 178.04C526.49 180.98 528.21 183.83 527.21 191.4C526.97 193.17 528.15 194.12 528.83 195.4C531.09 199.64 532.35 203.81 527.57 207.31C526.33 208.21 526.47 209.64 526.05 210.87C524.41 215.65 520.91 216.29 517.45 212.69C513.86 208.95 509.62 206.39 504.13 206.81C502.44 206.94 501.23 206.19 500.46 204.74C494.74 193.94 485.39 187.25 474.77 181.97C474.06 181.61 473.23 181.3 473.06 179.93C476.29 178.24 479.76 180.92 483.68 179.44C479.57 178.82 476.08 178.3 472.6 177.77L472.64 176.45H472.63Z" fill="white"/>
<path d="M577.98 81.3799C582.38 89.8599 586.46 97.2699 592.7 103.19C594.88 105.26 597.1 107.29 599.75 108.72C602.8 110.35 604.43 111.79 604.45 116.19C604.46 119.51 606.24 124.26 609.93 127.06C614.21 130.32 613.55 134.07 608.6 135.96C608.29 136.08 607.86 136.02 607.65 136.22C602.22 141.33 596.58 142.23 590.58 137.16C590.37 136.98 589.87 136.9 589.62 137.02C586.71 138.4 583.94 138.54 581.14 136.6C577.64 134.16 576.1 130.54 574.72 126.74C570.02 113.84 569.88 100.7 572.52 87.3999C572.75 86.2699 573.16 85.1599 573.58 84.0799C573.8 83.4999 574.22 82.9899 574.93 81.8399C577.2 85.9899 575.46 90.4499 577.73 94.0699C578.57 90.1799 575.92 86.3499 577.98 81.3799Z" fill="white"/>
<path d="M577.341 679.68C576.361 674.69 578.57 669.95 578.66 663.86C576.33 669.78 576.77 675.04 575.54 679.97C573.36 680.02 573.361 678.35 573.091 677.24C569.391 661.94 569.831 646.89 576.191 632.3C578.951 625.97 582.081 624.33 589.001 625.4C590.751 625.67 591.811 624.73 593.081 624C597.271 621.62 601.38 620.1 604.8 625.21C605.68 626.53 607.151 626.24 608.401 626.56C610.441 627.08 612.161 628.08 612.681 630.27C613.231 632.55 611.771 633.93 610.261 635.36C606.581 638.86 604.221 643.06 604.441 648.3C604.521 650.17 604.11 651.59 602.41 652.46C591.62 657.95 585.321 667.44 579.881 677.7C579.501 678.41 578.97 679.06 578.43 679.66C578.29 679.82 577.831 679.68 577.341 679.68Z" fill="white"/>
<path d="M308.1 177.52C303.33 178.97 298.41 178.43 292.76 180.74C298.7 180.48 303.28 178.98 308.46 179.74C306.98 182.29 304.65 182.57 302.9 183.58C293.84 188.8 285.67 194.92 280.6 204.39C279.85 205.79 278.7 207.35 277.22 206.78C274.06 205.56 272.28 207.67 269.81 208.65C266.98 209.77 264.64 210.63 262.67 213.27C260.29 216.47 256.19 215.33 255.12 211.34C254.54 209.15 253.72 207.6 251.97 206.05C248.81 203.26 249.65 199.67 251.53 196.49C252.94 194.11 253.83 192.02 253.04 189.06C252.09 185.5 253.83 182.14 256.85 180.49C272.88 171.75 289.71 170.8 307.02 176.11C307.37 176.22 307.58 176.81 308.11 177.53L308.1 177.52Z" fill="white"/>
<path d="M83.7197 558.76C89.4797 554.56 95.4597 554.8 101.07 554.38C111.8 553.56 122.32 555.1 132.19 559.67C138.87 562.76 140.03 565.08 138.89 572.46C138.58 574.44 139.95 575.5 140.69 576.91C142.77 580.91 143.61 584.77 139.55 588.11C138.4 589.05 138.26 590.37 137.91 591.64C137.29 593.87 136.07 595.66 133.67 596.03C131.42 596.38 130.22 594.63 128.72 593.26C125.21 590.04 121.27 587.46 116.16 587.95C114.51 588.11 113.06 587.8 112.3 586.32C106.28 574.62 95.8197 567.98 84.1297 561.88C87.5597 559.79 90.9397 561.67 94.4997 560.58C90.8497 559.96 87.6997 559.42 83.7297 558.75L83.7197 558.76Z" fill="white"/>
<path d="M697.83 558.74C691.99 559.6 687.59 560.25 683.19 560.9C687.61 561.17 692 560.4 697.57 561.32C691.04 565.1 685.32 567.99 680.36 572.11C675.94 575.78 672.04 579.79 669.37 584.89C668.15 587.22 666.47 587.66 663.86 588.07C659.59 588.75 654.87 589.41 651.94 593.47C650.71 595.18 649.18 596.46 646.92 596.07C644.89 595.72 643.68 594.2 643.32 592.34C642.88 590.08 641.68 588.65 640.06 587.06C636.84 583.92 638.08 580.26 640.19 577.04C641.54 574.98 642.01 573.32 641.32 570.69C640.02 565.71 643.19 562.52 647.34 560.42C658.05 555 669.5 553.42 681.32 554.51C686.52 554.99 691.9 555.07 697.82 558.76L697.83 558.74Z" fill="white"/>
<path d="M189.57 299.43C187.84 294.44 190.06 290.42 189.16 286.21C188.4 290.43 187.65 294.64 186.89 298.86C182.96 291.78 182 284.13 182.26 276.46C182.55 267.81 184.04 259.28 187.74 251.28C190.67 244.95 193.62 243.1 200.46 244.15C202.62 244.48 203.8 243 205.42 242.31C209.38 240.63 213.39 239.09 216.26 244.03C217.22 245.68 218.88 245.21 220.23 245.61C222.09 246.17 223.67 246.98 224.08 249.05C224.47 251.03 223.72 252.7 222.17 253.89C217.7 257.3 216.26 262.04 216.17 267.35C216.14 269.02 215.64 270.32 214.2 271.09C203.1 277.02 196.39 286.78 190.92 297.63C190.71 298.06 190.35 298.41 189.57 299.43Z" fill="white"/>
<path d="M308.37 582.59C303.86 584.23 300 582.03 295.68 582.38C299.82 584.67 304.26 583.28 308.59 585.09C304.9 588.54 300.59 588.6 296.68 588.97C284.99 590.09 273.4 589.67 262.27 585.08C254.63 581.93 252.87 579.48 253.46 571.27C253.61 569.17 252.3 567.9 251.49 566.3C249.54 562.43 248.74 558.66 253.08 555.77C254.55 554.79 254.62 553.34 254.94 551.88C255.39 549.81 256.34 548.05 258.67 547.72C260.68 547.43 262.08 548.54 263.39 549.98C266.89 553.8 271.17 556.08 276.48 555.92C278.13 555.87 279.5 556.24 280.29 557.73C286.23 568.84 295.91 575.66 306.87 581.04C307.28 581.24 307.55 581.72 308.36 582.58L308.37 582.59Z" fill="white"/>
<path d="M186.89 463.53C187.89 469.1 188.88 474.59 189.87 480.08C190.4 474.58 188.04 469.31 189.14 463.73C191.29 463.93 191.37 465.74 191.98 466.92C197.14 476.81 203.46 485.63 213.49 491.19C214.66 491.84 216.41 492.78 215.97 493.99C214.34 498.44 218.82 501.18 218.69 505.11C218.62 507.27 220.66 507.53 221.88 508.54C225.46 511.51 224.91 515.56 220.55 516.92C218.44 517.58 216.79 518.31 215.22 520.06C212.4 523.21 208.83 522.31 205.66 520.39C203.35 518.99 201.52 517.89 198.41 518.96C194.72 520.23 191.31 517.98 189.63 514.74C181.2 498.45 179.88 481.51 185.81 464.09C185.88 463.88 186.35 463.8 186.89 463.53Z" fill="white"/>
<path d="M469.357 543.144C474.047 548.914 473.087 558.384 467.667 564.794C461.007 572.664 452.217 574.914 442.427 573.704C429.197 572.064 418.637 565.294 410.197 555.304C400.367 543.654 394.177 530.474 394.797 513.814C398.807 536.494 408.687 553.834 429.727 563.044C429.357 561.074 427.587 560.534 426.187 559.594C409.237 548.234 399.157 523.144 404.917 504.274C407.157 496.924 410.617 490.364 417.437 486.224C424.227 482.104 431.107 482.714 437.867 486.324C439.927 487.424 441.687 488.984 442.177 491.494C440.837 492.764 440.007 491.324 439.037 491.064C434.867 489.904 430.537 491.704 428.957 495.354C427.217 499.374 428.657 504.034 432.347 506.294C439.517 510.694 449.517 507.084 452.257 498.564C453.457 494.824 455.057 494.014 458.637 494.454C464.547 495.164 470.367 494.714 475.077 490.384C479.227 486.574 480.807 481.824 479.387 476.344C478.257 471.964 475.397 469.064 470.817 468.264C466.027 467.434 462.227 469.724 461.547 473.674C460.907 477.464 463.237 480.354 467.927 481.614C468.367 481.734 468.767 481.994 469.487 482.324C467.637 484.964 465.097 485.414 462.417 485.274C456.877 484.984 452.087 482.754 448.007 479.094C433.777 466.304 413.687 468.604 402.897 484.394C401.217 486.854 399.777 489.534 398.607 492.284C388.327 516.554 390.107 539.674 405.787 561.194C415.827 574.974 428.907 584.084 446.277 586.044C469.017 588.614 489.177 571.844 485.887 546.734C485.247 541.864 485.667 537.064 487.027 532.384C488.467 527.424 491.487 523.934 496.847 522.864C497.827 524.394 496.307 525.034 495.907 525.974C494.107 530.134 495.267 534.174 498.997 536.344C502.597 538.434 506.967 537.364 509.477 533.574C512.537 528.964 512.617 524.144 509.687 519.454C506.217 513.904 500.897 511.894 494.657 512.644C486.617 513.604 481.277 518.654 478.177 525.674C476.287 529.954 474.667 531.224 469.787 529.794C460.927 527.204 452.597 532.334 450.237 540.774C448.517 546.934 451.227 552.364 456.797 553.914C462.407 555.474 467.227 552.154 468.737 545.684C468.887 545.064 469.027 544.434 469.337 543.134L469.357 543.144Z" fill="white"/>
<path d="M570.995 420.844C562.925 401.574 547.315 391.674 526.315 386.644C534.035 385.994 539.865 387.854 545.455 390.304C564.575 398.664 578.215 411.904 581.955 433.254C584.665 448.744 576.555 461.114 562.465 463.804C558.715 464.524 555.205 464.094 552.025 461.614C552.805 459.714 554.625 460.344 555.875 459.884C560.615 458.174 563.365 453.754 562.475 448.934C561.635 444.364 557.675 441.214 552.785 441.194C542.905 441.154 535.455 450.734 538.205 461.094C539.535 466.104 538.135 467.774 533.935 469.824C522.775 475.274 518.315 485.364 522.285 494.654C525.655 502.554 534.545 505.734 541.225 501.444C545.365 498.784 546.865 494.524 544.965 490.774C543.015 486.914 538.995 485.674 534.265 487.474C533.665 487.704 533.065 487.954 531.905 488.414C531.855 484.454 533.845 482.214 536.585 480.564C541.915 477.364 547.845 476.264 553.885 477.124C579.095 480.724 597.495 461.734 594.285 436.414C591.085 411.164 568.005 391.334 544.215 385.154C527.275 380.754 511.735 385.164 496.905 391.974C481.155 399.204 475.665 415.494 481.975 431.094C483.125 433.924 484.815 436.344 486.875 438.564C490.225 442.184 492.395 446.434 493.655 451.204C494.685 455.114 493.545 458.304 491.045 461.194C489.715 460.594 490.085 459.634 489.975 458.884C489.375 454.664 486.765 452.774 482.715 452.974C478.995 453.154 476.405 456.594 476.535 460.734C476.775 468.284 485.075 473.444 492.665 470.754C499.645 468.284 504.265 460.734 503.085 452.184C502.425 447.434 502.655 444.874 508.055 443.194C515.005 441.034 518.285 432.484 515.825 425.914C513.885 420.754 509.465 418.314 504.865 419.864C500.515 421.334 498.505 425.734 499.835 430.884C500.035 431.654 500.315 432.404 500.775 433.844C496.775 432.834 495.165 430.194 493.885 427.414C489.545 418.004 491.985 408.664 500.705 402.204C513.265 392.874 527.095 392.994 541.165 397.754C553.695 401.984 563.835 409.504 570.965 420.854L570.995 420.844Z" fill="white"/>
<path d="M593.826 463.814C592.826 469.384 591.836 474.874 590.846 480.364C590.316 474.864 592.676 469.594 591.576 464.014C589.426 464.214 589.346 466.024 588.736 467.204C583.576 477.094 577.256 485.914 567.226 491.474C566.056 492.124 564.306 493.064 564.746 494.274C566.376 498.724 561.896 501.464 562.026 505.394C562.096 507.554 560.056 507.814 558.836 508.824C555.256 511.794 555.806 515.844 560.166 517.204C562.276 517.864 563.926 518.594 565.496 520.344C568.316 523.494 571.886 522.594 575.056 520.674C577.366 519.274 579.196 518.174 582.306 519.244C585.996 520.514 589.406 518.264 591.086 515.024C599.516 498.734 600.836 481.794 594.906 464.374C594.836 464.164 594.366 464.084 593.826 463.814Z" fill="white"/>
<path d="M472.604 585.648C481.604 581.278 489.145 576.758 495.085 570.068C496.735 568.208 498.514 566.368 499.754 564.238C501.584 561.078 503.114 559.268 507.664 559.168C510.754 559.098 515.494 557.578 518.074 554.078C519.414 552.258 520.935 550.678 523.425 551.128C525.895 551.578 526.874 553.478 527.364 555.748C527.564 556.698 527.664 558.038 528.304 558.478C534.094 562.448 532.205 566.898 529.295 571.448C528.555 572.598 527.965 573.658 528.585 575.138C530.575 579.898 528.374 583.728 524.564 585.748C508.594 594.218 491.835 594.818 474.715 589.618C474.475 589.548 474.345 589.108 473.965 588.538C477.745 586.138 482.515 588.198 486.305 585.718C482.065 585.008 478.035 587.548 472.625 585.658L472.604 585.648Z" fill="white"/>
<path d="M43.2998 603.09C50.5298 603.01 56.9198 609.58 56.8298 616.99C56.7498 623.79 50.5498 629.89 43.5098 630.09C36.1398 630.3 30.0398 624.41 29.9398 616.99C29.8398 609.21 35.6298 603.18 43.2898 603.09H43.2998Z" fill="white"/>
<path d="M244.88 409.1C252.43 409.23 258.29 415.41 258.16 423.1C258.05 430.02 251.79 436.14 244.86 436.1C237.53 436.07 230.98 429.46 231.16 422.3C231.34 415.24 237.85 408.97 244.88 409.1Z" fill="white"/>
<path d="M161.21 41.72C161.12 48.89 154.86 54.98 147.61 54.95C140.55 54.92 134.15 48.42 134.25 41.4C134.35 34.27 140.67 27.98 147.74 27.99C155.42 27.99 161.31 34 161.21 41.73V41.72Z" fill="white"/>
<path d="M445.13 235.53C445.1 242.63 438.62 249.02 431.61 248.85C424.03 248.68 417.97 242.42 418.15 234.96C418.33 227.79 424.57 221.91 431.93 221.97C439.16 222.03 445.15 228.19 445.12 235.53H445.13Z" fill="white"/>
<path d="M161.2 721.45C161.09 728.73 154.97 734.76 147.72 734.74C140.71 734.72 134.17 728.22 134.25 721.35C134.33 713.8 140.45 707.85 148.07 707.92C155.39 707.99 161.32 714.09 161.21 721.45H161.2Z" fill="white"/>
<path d="M549.33 422.41C549.39 430.21 543.54 436.2 535.97 436.1C528.61 436 522.84 430.04 522.85 422.54C522.86 415.09 528.74 409.12 536.09 409.11C543.48 409.1 549.28 414.92 549.34 422.4L549.33 422.41Z" fill="white"/>
<path d="M737.5 132.83C745.08 132.81 750.88 138.37 751.07 145.82C751.26 153.31 745.1 159.41 737.42 159.35C729.99 159.29 724.03 153.3 724.11 145.99C724.19 138.56 730.01 132.85 737.5 132.83Z" fill="white"/>
<path d="M737.73 630.12C730.63 630.21 724.33 624.09 724.1 616.91C723.88 609.73 730.43 603.04 737.65 603.09C744.57 603.13 751.06 609.66 751.09 616.6C751.11 623.58 744.73 630.04 737.72 630.12H737.73Z" fill="white"/>
<path d="M362.41 235.24C362.49 243.12 356.77 248.95 349.03 248.87C341.61 248.79 335.84 242.89 335.88 235.4C335.92 227.98 341.83 222.01 349.14 221.98C356.58 221.95 362.33 227.7 362.41 235.24Z" fill="white"/>
<path d="M244.27 353.37C236.91 353.17 230.98 347.01 231.19 339.76C231.4 332.39 237.41 326.71 244.89 326.81C252.54 326.91 258.47 333.1 258.16 340.65C257.86 348 251.78 353.57 244.27 353.37Z" fill="white"/>
<path d="M646.31 41.1099C646.37 48.8599 640.41 54.9999 632.93 54.8799C625.49 54.7599 619.84 48.9199 619.82 41.3499C619.8 33.8699 625.52 28.0599 632.97 27.9899C640.45 27.9199 646.25 33.6299 646.31 41.1099Z" fill="white"/>
<path d="M43.0899 132.83C50.9499 132.78 56.9299 138.6 56.8299 146.21C56.7299 153.63 50.8799 159.33 43.3099 159.35C35.8899 159.37 29.9999 153.56 29.9399 146.16C29.8799 138.68 35.5999 132.88 43.0799 132.83H43.0899Z" fill="white"/>
<path d="M362.41 527.53C362.26 535.12 356.47 540.89 349.07 540.82C341.77 540.75 335.63 534.18 335.9 526.73C336.18 519.26 342.05 513.76 349.59 513.93C357.1 514.1 362.57 519.9 362.41 527.53Z" fill="white"/>
<path d="M646.3 721.41C646.23 728.99 640.55 734.65 633.05 734.63C625.26 734.61 619.68 728.81 619.82 720.89C619.95 713.5 625.9 707.78 633.34 707.91C640.75 708.04 646.38 713.89 646.3 721.41Z" fill="white"/>
<path d="M549.31 340.16C549.26 347.75 543.66 353.37 536.13 353.37C528.66 353.37 522.88 347.66 522.84 340.2C522.8 332.34 528.5 326.69 536.35 326.8C544.01 326.91 549.36 332.42 549.31 340.15V340.16Z" fill="white"/>
<path d="M430.94 667.68C430.94 669.43 430.62 671.49 428.53 672.51C426.45 673.52 424.64 672.56 423.01 671.3C419.96 668.94 418.55 665.56 417.48 662.02C416.22 657.89 415.03 653.73 413.86 649.57C413.54 648.41 412.71 646.56 415.15 647.09C419.43 648.02 430.92 662.95 430.94 667.69V667.68Z" fill="white"/>
<path d="M104.57 421.9C102.48 421.78 100.67 421.45 99.71 419.57C98.75 417.69 99.53 415.99 100.57 414.44C102.52 411.53 105.49 409.94 108.65 408.89C113.37 407.32 118.19 406.05 122.98 404.66C123.77 404.43 124.67 404.17 125.16 405.09C125.33 405.42 125.2 406.17 124.92 406.44C119.56 411.79 115.4 418.53 107.79 421.25C106.71 421.64 105.52 421.71 104.58 421.89L104.57 421.9Z" fill="white"/>
<path d="M266.96 739.12C271.47 733.48 275.57 727.79 281.49 723.98C286.07 721.03 291.35 721.32 292.75 724.21C294.1 726.99 291.64 731.24 287.07 733.58C280.83 736.78 273.78 737.24 266.96 739.12Z" fill="white"/>
<path d="M367.34 115.92C360.82 111.4 354.48 106.87 351.04 99.6801C349.56 96.5901 348.32 92.4301 352.34 90.4301C356.22 88.5001 358.9 91.7601 360.78 94.7301C364.83 101.13 364.929 108.81 367.329 115.91L367.34 115.92Z" fill="white"/>
<path d="M413.67 115.89C415.64 108.83 415.97 101.34 419.93 95.08C421.83 92.06 424.6 88.24 428.72 90.54C432.86 92.85 431 97.13 429.41 100.36C426.02 107.24 419.94 111.6 413.67 115.89Z" fill="white"/>
<path d="M267.33 23.55C274.12 25.45 281.15 25.9101 287.29 29.2701C288.85 30.1201 290.22 31.45 291.41 32.8C292.89 34.46 293.88 36.48 292.53 38.69C291.34 40.64 289.35 40.8401 287.26 40.6101C284.38 40.2901 281.86 39.1301 279.53 37.4501C274.48 33.8401 271.29 28.56 267.33 23.55Z" fill="white"/>
<path d="M124.98 358.78C118.37 355.78 110.92 355.69 104.57 351.8C104.01 351.45 103.45 351.06 102.98 350.61C100.8 348.52 98.1299 346.25 99.9299 342.98C101.72 339.72 105.2 340.71 108.04 341.44C111.86 342.42 114.72 345.08 117.32 347.91C120.19 351.03 122.93 354.26 125.72 357.44C125.47 357.89 125.22 358.33 124.98 358.78Z" fill="white"/>
<path d="M513.94 739.28C506.98 737.52 499.94 736.59 493.55 733.38C492.96 733.08 492.39 732.72 491.89 732.3C489.29 730.1 486.4 727.57 488.55 723.97C490.55 720.62 494.23 721.74 497.1 722.95C504.7 726.18 509.01 732.96 513.94 739.27V739.28Z" fill="white"/>
<path d="M655.75 357.98C660.42 351.26 664.95 344.52 672.87 341.51C675.6 340.47 679.15 339.77 680.85 343.16C682.47 346.39 680.26 348.97 677.77 350.8C671.29 355.58 663.22 355.66 655.75 357.97V357.98Z" fill="white"/>
<path d="M493.54 40.63C491.39 40.52 489.39 40.59 488.39 38.68C487.27 36.52 487.9 34.44 489.32 32.62C491.46 29.87 494.55 28.48 497.71 27.43C501.97 26.01 506.34 24.92 510.67 23.71C511.45 23.49 512.31 23.08 513.03 23.75C513.6 24.29 513.45 25.03 512.96 25.52C507.83 30.68 503.73 37.02 496.66 39.97C495.61 40.41 494.4 40.47 493.55 40.64L493.54 40.63Z" fill="white"/>
<path d="M367.19 646.93C364.89 653.52 364.72 660.5 361.5 666.57C360.47 668.51 359.06 670.13 357.35 671.49C355.84 672.69 354.17 673.42 352.29 672.45C350.42 671.49 350.05 669.69 350.01 667.79C349.96 665.38 350.81 663.23 351.96 661.18C355.46 654.92 361.54 651.35 367.2 646.94L367.19 646.93Z" fill="white"/>
<path d="M654.7 403.46C662.88 407 671.09 406.98 677.71 411.82C680.37 413.76 682.74 416.54 680.84 419.83C679.09 422.87 675.61 422.08 672.68 421.19C668.39 419.89 658.38 410.29 654.69 403.47L654.7 403.46Z" fill="white"/>
<path d="M431.52 540.72C424.38 540.68 418.21 534.45 418.16 527.23C418.11 519.81 423.95 513.98 431.5 513.92C439.18 513.86 445.19 519.85 445.13 527.5C445.08 534.62 438.75 540.77 431.52 540.73V540.72Z" fill="white"/>
</g>
<defs>
<clipPath id="clip0_2261_14757">
<rect width="779.22" height="760.23" fill="white"/>
</clipPath>
</defs>
</svg>
