<svg width="703" height="476" viewBox="0 0 703 476" fill="none" xmlns="http://www.w3.org/2000/svg">
<path d="M351.5 362.182C346.7 362.182 341.75 369.015 339.875 372.432C339.542 372.973 338.4 373.532 336.5 371.432C335.375 369.556 333 350.432 332.625 349.432C332.25 348.431 323.125 330.682 321.625 330.182C320.125 329.682 320.875 330.807 321.625 332.557C322.225 333.957 325.042 350.057 326.375 357.932V388.682C326.125 391.307 325.625 396.807 325.625 397.807C325.625 399.057 336.875 442.556 337.625 444.557C338.225 446.157 339.375 445.807 339.875 445.432C342.667 432.098 348.425 405.057 349.125 403.557C349.825 402.057 350.25 400.807 351.5 400.807V462.682C350.875 463.14 349.525 464.157 349.125 464.557C348.625 465.057 345.375 474.807 344.5 475.432C343.624 476.057 329.375 475.307 328.875 474.807C328.375 474.305 326.5 455.057 326.375 453.807C326.25 452.556 304.876 377.183 305.125 376.307C305.375 375.432 309.5 357.307 309.75 353.307C310 349.307 308.125 338.557 307.125 333.807C306.125 329.057 302.625 324.932 298.625 316.182C294.625 307.432 277.625 294.182 272.625 289.182C267.625 284.182 266.25 276.557 265.375 268.557C264.5 260.557 276.5 215.932 277.625 213.432C278.75 210.932 277.25 210.432 276.5 207.557C275.75 204.682 269.125 199.307 267.5 196.932C265.875 194.557 267.5 195.057 267.5 192.557C267.5 190.057 299.5 137.557 305 134.557C309.4 132.157 338.167 128.89 352 127.557L351.5 362.182ZM282.75 243.557C281.946 242.759 280.748 244.391 280.25 245.307L278.75 253.057C277.584 259.89 275.379 274.329 282.75 283.807C291.5 295.056 308.75 301.057 309 299.557C309.249 298.054 300.25 277.057 300.75 275.557C301.251 274.056 305.5 270.556 305.5 268.307C305.498 266.505 290.333 251.056 282.75 243.557Z" fill="black"/>
<path d="M351.5 362.182C346.7 362.182 341.75 369.015 339.875 372.432C339.542 372.973 338.4 373.532 336.5 371.432C335.375 369.556 333 350.432 332.625 349.432C332.25 348.431 323.125 330.682 321.625 330.182C320.125 329.682 320.875 330.807 321.625 332.557C322.225 333.957 325.042 350.057 326.375 357.932V388.682C326.125 391.307 325.625 396.807 325.625 397.807C325.625 399.057 336.875 442.556 337.625 444.557C338.225 446.157 339.375 445.807 339.875 445.432C342.667 432.098 348.425 405.057 349.125 403.557C349.825 402.057 350.25 400.807 351.5 400.807V462.682C350.875 463.14 349.525 464.157 349.125 464.557C348.625 465.057 345.375 474.807 344.5 475.432C343.624 476.057 329.375 475.307 328.875 474.807C328.375 474.305 326.5 455.057 326.375 453.807C326.25 452.556 304.876 377.183 305.125 376.307C305.375 375.432 309.5 357.307 309.75 353.307C310 349.307 308.125 338.557 307.125 333.807C306.125 329.057 302.625 324.932 298.625 316.182C294.625 307.432 277.625 294.182 272.625 289.182C267.625 284.182 266.25 276.557 265.375 268.557C264.5 260.557 276.5 215.932 277.625 213.432C278.75 210.932 277.25 210.432 276.5 207.557C275.75 204.682 269.125 199.307 267.5 196.932C265.875 194.557 267.5 195.057 267.5 192.557C267.5 190.057 299.5 137.557 305 134.557C309.4 132.157 338.167 128.89 352 127.557L351.5 362.182ZM282.75 243.557C281.946 242.759 280.748 244.391 280.25 245.307L278.75 253.057C277.584 259.89 275.379 274.329 282.75 283.807C291.5 295.056 308.75 301.057 309 299.557C309.249 298.054 300.25 277.057 300.75 275.557C301.251 274.056 305.5 270.556 305.5 268.307C305.498 266.505 290.333 251.056 282.75 243.557Z" fill="black" fill-opacity="0.2"/>
<path d="M351.5 362.182C346.7 362.182 341.75 369.015 339.875 372.432C339.542 372.973 338.4 373.532 336.5 371.432C335.375 369.556 333 350.432 332.625 349.432C332.25 348.431 323.125 330.682 321.625 330.182C320.125 329.682 320.875 330.807 321.625 332.557C322.225 333.957 325.042 350.057 326.375 357.932V388.682C326.125 391.307 325.625 396.807 325.625 397.807C325.625 399.057 336.875 442.556 337.625 444.557C338.225 446.157 339.375 445.807 339.875 445.432C342.667 432.098 348.425 405.057 349.125 403.557C349.825 402.057 350.25 400.807 351.5 400.807V462.682C350.875 463.14 349.525 464.157 349.125 464.557C348.625 465.057 345.375 474.807 344.5 475.432C343.624 476.057 329.375 475.307 328.875 474.807C328.375 474.305 326.5 455.057 326.375 453.807C326.25 452.556 304.876 377.183 305.125 376.307C305.375 375.432 309.5 357.307 309.75 353.307C310 349.307 308.125 338.557 307.125 333.807C306.125 329.057 302.625 324.932 298.625 316.182C294.625 307.432 277.625 294.182 272.625 289.182C267.625 284.182 266.25 276.557 265.375 268.557C264.5 260.557 276.5 215.932 277.625 213.432C278.75 210.932 277.25 210.432 276.5 207.557C275.75 204.682 269.125 199.307 267.5 196.932C265.875 194.557 267.5 195.057 267.5 192.557C267.5 190.057 299.5 137.557 305 134.557C309.4 132.157 338.167 128.89 352 127.557L351.5 362.182ZM282.75 243.557C281.946 242.759 280.748 244.391 280.25 245.307L278.75 253.057C277.584 259.89 275.379 274.329 282.75 283.807C291.5 295.056 308.75 301.057 309 299.557C309.249 298.054 300.25 277.057 300.75 275.557C301.251 274.056 305.5 270.556 305.5 268.307C305.498 266.505 290.333 251.056 282.75 243.557Z" fill="black" fill-opacity="0.2"/>
<path d="M351.5 362.182C356.3 362.182 361.25 369.015 363.125 372.432C363.458 372.973 364.6 373.532 366.5 371.432C367.625 369.556 370 350.432 370.375 349.432C370.75 348.431 379.875 330.682 381.375 330.182C382.875 329.682 382.125 330.807 381.375 332.557C380.775 333.957 377.958 350.057 376.625 357.932V388.682C376.875 391.307 377.375 396.807 377.375 397.807C377.375 399.057 366.125 442.556 365.375 444.557C364.775 446.157 363.625 445.807 363.125 445.432C360.333 432.098 354.575 405.057 353.875 403.557C353.175 402.057 352.75 400.807 351.5 400.807V462.682C352.125 463.14 353.475 464.157 353.875 464.557C354.375 465.057 357.625 474.807 358.5 475.432C359.376 476.057 373.625 475.307 374.125 474.807C374.625 474.305 376.5 455.057 376.625 453.807C376.75 452.556 398.124 377.183 397.875 376.307C397.625 375.432 393.5 357.307 393.25 353.307C393 349.307 394.875 338.557 395.875 333.807C396.875 329.057 400.375 324.932 404.375 316.182C408.375 307.432 425.375 294.182 430.375 289.182C435.375 284.182 436.75 276.557 437.625 268.557C438.5 260.557 426.5 215.932 425.375 213.432C424.25 210.932 425.75 210.432 426.5 207.557C427.25 204.682 433.875 199.307 435.5 196.932C437.125 194.557 435.5 195.057 435.5 192.557C435.5 190.057 403.5 137.557 398 134.557C393.6 132.157 364.833 128.89 351 127.557L351.5 362.182ZM420.25 243.557C421.054 242.759 422.252 244.391 422.75 245.307L424.25 253.057C425.416 259.89 427.621 274.329 420.25 283.807C411.5 295.056 394.25 301.057 394 299.557C393.751 298.054 402.75 277.057 402.25 275.557C401.749 274.056 397.5 270.556 397.5 268.307C397.502 266.505 412.667 251.056 420.25 243.557Z" fill="black"/>
<path d="M351.5 362.182C356.3 362.182 361.25 369.015 363.125 372.432C363.458 372.973 364.6 373.532 366.5 371.432C367.625 369.556 370 350.432 370.375 349.432C370.75 348.431 379.875 330.682 381.375 330.182C382.875 329.682 382.125 330.807 381.375 332.557C380.775 333.957 377.958 350.057 376.625 357.932V388.682C376.875 391.307 377.375 396.807 377.375 397.807C377.375 399.057 366.125 442.556 365.375 444.557C364.775 446.157 363.625 445.807 363.125 445.432C360.333 432.098 354.575 405.057 353.875 403.557C353.175 402.057 352.75 400.807 351.5 400.807V462.682C352.125 463.14 353.475 464.157 353.875 464.557C354.375 465.057 357.625 474.807 358.5 475.432C359.376 476.057 373.625 475.307 374.125 474.807C374.625 474.305 376.5 455.057 376.625 453.807C376.75 452.556 398.124 377.183 397.875 376.307C397.625 375.432 393.5 357.307 393.25 353.307C393 349.307 394.875 338.557 395.875 333.807C396.875 329.057 400.375 324.932 404.375 316.182C408.375 307.432 425.375 294.182 430.375 289.182C435.375 284.182 436.75 276.557 437.625 268.557C438.5 260.557 426.5 215.932 425.375 213.432C424.25 210.932 425.75 210.432 426.5 207.557C427.25 204.682 433.875 199.307 435.5 196.932C437.125 194.557 435.5 195.057 435.5 192.557C435.5 190.057 403.5 137.557 398 134.557C393.6 132.157 364.833 128.89 351 127.557L351.5 362.182ZM420.25 243.557C421.054 242.759 422.252 244.391 422.75 245.307L424.25 253.057C425.416 259.89 427.621 274.329 420.25 283.807C411.5 295.056 394.25 301.057 394 299.557C393.751 298.054 402.75 277.057 402.25 275.557C401.749 274.056 397.5 270.556 397.5 268.307C397.502 266.505 412.667 251.056 420.25 243.557Z" fill="black" fill-opacity="0.2"/>
<path d="M351.5 362.182C356.3 362.182 361.25 369.015 363.125 372.432C363.458 372.973 364.6 373.532 366.5 371.432C367.625 369.556 370 350.432 370.375 349.432C370.75 348.431 379.875 330.682 381.375 330.182C382.875 329.682 382.125 330.807 381.375 332.557C380.775 333.957 377.958 350.057 376.625 357.932V388.682C376.875 391.307 377.375 396.807 377.375 397.807C377.375 399.057 366.125 442.556 365.375 444.557C364.775 446.157 363.625 445.807 363.125 445.432C360.333 432.098 354.575 405.057 353.875 403.557C353.175 402.057 352.75 400.807 351.5 400.807V462.682C352.125 463.14 353.475 464.157 353.875 464.557C354.375 465.057 357.625 474.807 358.5 475.432C359.376 476.057 373.625 475.307 374.125 474.807C374.625 474.305 376.5 455.057 376.625 453.807C376.75 452.556 398.124 377.183 397.875 376.307C397.625 375.432 393.5 357.307 393.25 353.307C393 349.307 394.875 338.557 395.875 333.807C396.875 329.057 400.375 324.932 404.375 316.182C408.375 307.432 425.375 294.182 430.375 289.182C435.375 284.182 436.75 276.557 437.625 268.557C438.5 260.557 426.5 215.932 425.375 213.432C424.25 210.932 425.75 210.432 426.5 207.557C427.25 204.682 433.875 199.307 435.5 196.932C437.125 194.557 435.5 195.057 435.5 192.557C435.5 190.057 403.5 137.557 398 134.557C393.6 132.157 364.833 128.89 351 127.557L351.5 362.182ZM420.25 243.557C421.054 242.759 422.252 244.391 422.75 245.307L424.25 253.057C425.416 259.89 427.621 274.329 420.25 283.807C411.5 295.056 394.25 301.057 394 299.557C393.751 298.054 402.75 277.057 402.25 275.557C401.749 274.056 397.5 270.556 397.5 268.307C397.502 266.505 412.667 251.056 420.25 243.557Z" fill="black" fill-opacity="0.2"/>
<path d="M34.8211 0.800541C30.0547 -0.258224 14.8213 -0.952056 4.07129 4.04696C11.8213 6.04785 21.2918 6.59614 27.0713 8.79785C37.5713 12.7979 41.3213 19.7976 44.5713 27.0479C47.766 34.1748 49.8017 58.5345 50.0713 65.0481C51.5713 101.298 57.9852 126.995 59.5711 130.801C64.5713 142.801 76.0711 166.301 88.0711 172.801C98.6848 178.55 262.071 196.607 278.071 196.607H296.57L305.57 198.36C307.904 193.527 312.37 182.76 311.57 178.36C310.57 172.86 308.07 134.36 305.57 134.36C303.07 134.36 290.958 145.551 276.321 145.551C261.684 145.551 269.321 146.551 229.821 143.051C190.321 139.551 94.9921 130.801 90.071 119.801C74.2422 84.4187 71.7323 35.7294 66.5711 24.3008C59.5711 8.80083 43.8211 2.7997 34.8211 0.800541Z" fill="black"/>
<path d="M668.179 0.800541C672.945 -0.258224 688.179 -0.952056 698.929 4.04696C691.179 6.04785 681.708 6.59614 675.929 8.79785C665.429 12.7979 661.679 19.7976 658.429 27.0479C655.234 34.1748 653.198 58.5345 652.929 65.0481C651.429 101.298 645.015 126.995 643.429 130.801C638.429 142.801 626.929 166.301 614.929 172.801C604.315 178.55 440.929 196.607 424.929 196.607H406.43L397.43 198.36C395.096 193.527 390.63 173.76 391.43 169.36C392.43 163.86 394.93 134.36 397.43 134.36C399.93 134.36 412.042 145.551 426.679 145.551C441.316 145.551 433.679 146.551 473.179 143.051C512.679 139.551 608.008 130.801 612.929 119.801C628.758 84.4187 631.268 35.7294 636.429 24.3008C643.429 8.80083 659.179 2.7997 668.179 0.800541Z" fill="black"/>
</svg>
