<svg width="32" height="32" viewBox="0 0 32 32" fill="none" xmlns="http://www.w3.org/2000/svg">
<path fill-rule="evenodd" clip-rule="evenodd" d="M1.65338 16C1.65338 15.9204 1.65403 15.841 1.65533 15.7617C1.66157 15.381 1.9788 15.085 2.35962 15.085V15.085C2.77818 15.085 3.1071 15.4401 3.10257 15.8586C3.10206 15.9057 3.10181 15.9528 3.10181 16C3.10181 23.0701 8.83327 28.8016 15.9034 28.8016C19.4044 28.8016 22.5772 27.3962 24.8883 25.1187C25.037 24.9722 25.2361 24.8864 25.4449 24.8864V24.8864C26.0896 24.8864 26.4343 25.6217 25.9784 26.0776C23.3997 28.6555 19.8377 30.25 15.9034 30.25C8.03332 30.25 1.65338 23.8701 1.65338 16ZM29.3501 15.085C29.7696 15.085 30.1038 14.7301 30.0546 14.3135C29.2204 7.23832 23.2028 1.75 15.9034 1.75C12.6399 1.75 9.63269 2.84703 7.23033 4.69243C6.67345 5.1202 7.00219 5.94578 7.70441 5.94578V5.94578C7.88183 5.94578 8.05355 5.8853 8.19513 5.77837C10.3393 4.15885 13.0092 3.19843 15.9034 3.19843C22.4353 3.19843 27.8246 8.09052 28.6073 14.4106C28.6542 14.7893 28.9685 15.085 29.3501 15.085V15.085Z" fill="white"/>
<path fill-rule="evenodd" clip-rule="evenodd" d="M4.57813 14C4.57813 12.8954 3.68269 12 2.57813 12C1.47356 12 0.578125 12.8954 0.578125 14C0.578125 15.1046 1.47356 16 2.57812 16C3.68269 16 4.57813 15.1046 4.57813 14ZM3.51966 14C3.51966 13.48 3.0981 13.0584 2.57809 13.0584C2.05807 13.0584 1.63652 13.48 1.63652 14C1.63652 14.52 2.05807 14.9416 2.57809 14.9416C3.0981 14.9416 3.51966 14.52 3.51966 14Z" fill="white"/>
<path fill-rule="evenodd" clip-rule="evenodd" d="M31.4219 16.3125C31.4219 15.2079 30.5264 14.3125 29.4219 14.3125C28.3173 14.3125 27.4219 15.2079 27.4219 16.3125C27.4219 17.4171 28.3173 18.3125 29.4219 18.3125C30.5264 18.3125 31.4219 17.4171 31.4219 16.3125ZM30.2988 16.3125C30.2988 15.8282 29.9062 15.4355 29.4218 15.4355C28.9375 15.4355 28.5448 15.8282 28.5448 16.3125C28.5448 16.7969 28.9375 17.1895 29.4218 17.1895C29.9062 17.1895 30.2988 16.7969 30.2988 16.3125Z" fill="white"/>
</svg>
