<svg width="33" height="32" viewBox="0 0 33 32" fill="none" xmlns="http://www.w3.org/2000/svg">
<path fill-rule="evenodd" clip-rule="evenodd" d="M18.736 6.06096C20.0676 6.37249 21.3231 6.94787 22.4284 7.75335C23.5336 8.55867 24.466 9.57758 25.1703 10.7498H21.9672C21.7159 9.98843 21.389 9.25408 20.9913 8.55792C20.4455 7.55996 19.673 6.70422 18.7361 6.05935L18.736 6.06096ZM25.6529 11.6532C26.2563 12.9369 26.586 14.3323 26.6209 15.7507C26.6559 17.1687 26.3955 18.5787 25.8561 19.8907H22.3518C22.643 18.6149 22.7884 17.31 22.7849 16.0012C22.7904 14.5344 22.6066 13.073 22.2383 11.6532H25.6529ZM25.4302 20.7939C24.7454 22.0792 23.7938 23.2033 22.6391 24.091C21.4845 24.9787 20.1536 25.6092 18.7353 25.9406C19.6723 25.2957 20.4447 24.44 20.9904 23.4421C21.4659 22.6059 21.8423 21.7173 22.1118 20.794L25.4302 20.7939ZM14.1045 25.9407C12.6863 25.6093 11.3554 24.9786 10.2008 24.091C9.04617 23.2034 8.09455 22.0792 7.40961 20.7939H10.7272C10.9967 21.7172 11.3731 22.6059 11.8485 23.442C12.3942 24.4401 13.1673 25.296 14.1045 25.9407ZM6.98444 19.8907C6.44491 18.5787 6.18429 17.1688 6.21915 15.7507C6.25403 14.3326 6.58356 12.9372 7.18692 11.6532H10.602C9.91298 14.3513 9.87417 17.1744 10.4889 19.8907H6.98444ZM7.66989 10.75C8.37416 9.57767 9.30669 8.55877 10.4118 7.75332C11.5171 6.94799 12.7728 6.37259 14.1045 6.06118C13.1673 6.70583 12.3948 7.56166 11.849 8.55975C11.4514 9.25601 11.1245 9.99026 10.8731 10.7516L7.66989 10.75ZM20.2115 9.01177C19.3257 7.48232 18.1555 6.47572 16.8715 6.28287V10.7501L21.0131 10.7499C20.7978 10.1479 20.5297 9.56644 20.2115 9.01177ZM16.8715 11.6534H21.3033C21.6942 13.0692 21.8887 14.5322 21.8815 16.001C21.886 17.3111 21.7324 18.617 21.4245 19.8906H16.8715V11.6534ZM16.8715 20.7941H21.1693C20.9301 21.5583 20.6094 22.2945 20.2128 22.9903C19.327 24.5197 18.1569 25.5263 16.8729 25.7192L16.873 20.7942L16.8715 20.7941ZM15.968 6.28268V10.7499H11.8267C12.042 10.1479 12.3103 9.56619 12.6285 9.01151C13.5152 7.48207 14.6841 6.47553 15.968 6.28268ZM11.5362 11.6534H15.968V19.8909H11.4157C11.1076 18.6175 10.9539 17.3116 10.9582 16.0013C10.9516 14.5324 11.1459 13.0695 11.5362 11.6534ZM11.6705 20.7941H15.968V25.7191C14.684 25.5262 13.5152 24.5196 12.6286 22.9902C12.2318 22.2944 11.9106 21.5581 11.6705 20.7941Z" fill="white"/>
</svg>
