<svg width="32" height="32" viewBox="0 0 32 32" fill="none" xmlns="http://www.w3.org/2000/svg">
<path d="M16 0C24.8366 0 32 7.16344 32 16C32 24.8366 24.8366 32 16 32C7.16344 32 0 24.8366 0 16C0 7.16344 7.16344 0 16 0ZM16 1.7998C8.15752 1.79981 1.79981 8.15752 1.7998 16C1.7998 23.8425 8.15752 30.2002 16 30.2002C23.8425 30.2002 30.2002 23.8425 30.2002 16C30.2002 8.15752 23.8425 1.7998 16 1.7998Z" fill="white"/>
<path d="M16 2.67676C23.3592 2.67677 29.3252 8.64273 29.3252 16.002C29.325 23.361 23.3591 29.3262 16 29.3262C8.64091 29.3262 2.67503 23.361 2.6748 16.002C2.6748 8.64273 8.64077 2.67676 16 2.67676ZM14.6055 24.9658C14.0691 24.6976 13.4558 26.2678 12.8428 26.2686C12.2296 26.2686 12.9958 25.7699 12.5742 25.2334C12.237 24.8047 11.871 25.7449 11.7305 26.2686C11.7177 26.5368 11.869 27.1198 12.5742 27.3037C13.2794 27.4874 14.2223 26.6901 14.6055 26.2686C14.4522 26.4474 14.191 26.9051 14.375 27.3037C14.4656 27.4999 14.5786 27.5421 14.6836 27.5156C14.7062 28.1011 15.1251 28.5681 15.6396 28.5684C16.1686 28.5684 16.5973 28.0751 16.5977 27.4668C16.6377 27.4319 16.6768 27.3797 16.7119 27.3037C16.8959 26.9051 16.6357 26.4474 16.4824 26.2686C16.8657 26.6901 17.8085 27.4876 18.5137 27.3037C19.2188 27.1198 19.3692 26.5368 19.3564 26.2686C19.2159 25.7449 18.8508 24.8049 18.5137 25.2334C18.0921 25.7699 18.8583 26.2686 18.2451 26.2686C17.632 26.2681 17.0189 24.6976 16.4824 24.9658C16.1092 25.1524 15.7356 25.1531 15.543 25.3301C15.3501 25.154 14.9781 25.152 14.6055 24.9658ZM10.5059 25.1406C10.1092 25.1409 9.78719 25.4626 9.78711 25.8594C9.78711 26.2562 10.1091 26.5779 10.5059 26.5781C10.9028 26.5781 11.2246 26.2563 11.2246 25.8594C11.2245 25.4625 10.9028 25.1406 10.5059 25.1406ZM21.4941 24.9531C21.0972 24.9531 20.7755 25.275 20.7754 25.6719C20.7754 26.0688 21.0972 26.3906 21.4941 26.3906C21.8909 26.3904 22.2129 26.0687 22.2129 25.6719C22.2128 25.2751 21.8908 24.9534 21.4941 24.9531ZM8.50586 23.3281C8.10915 23.3284 7.78719 23.6501 7.78711 24.0469C7.78711 24.4437 8.1091 24.7654 8.50586 24.7656C8.90281 24.7656 9.22461 24.4438 9.22461 24.0469C9.22453 23.65 8.90276 23.3281 8.50586 23.3281ZM23.4941 23.1406C23.0972 23.1406 22.7755 23.4625 22.7754 23.8594C22.7754 24.2563 23.0972 24.5781 23.4941 24.5781C23.8909 24.5779 24.2129 24.2562 24.2129 23.8594C24.2128 23.4626 23.8908 23.1409 23.4941 23.1406ZM17.6426 9.01953C17.2133 8.94693 16.9346 9.14206 16.7842 9.29785C16.7188 9.36787 16.6628 9.44799 16.6191 9.53613L16.5654 9.66113C16.565 9.66333 16.541 9.78596 16.541 9.79883L16.5684 10.3701C16.5684 10.3909 16.5777 10.4095 16.5898 10.4199L16.7842 10.5078L16.6777 10.6973C16.6753 10.7102 16.6629 10.7206 16.6484 10.7207C16.6484 10.7207 16.4202 10.7263 16.3086 10.7314C16.0975 10.7392 15.6316 11.0142 15.2871 11.8037C14.9599 12.5547 14.8979 12.6992 14.8945 12.707C14.8873 12.7226 14.872 12.7305 14.8574 12.7305H14.543C14.5237 12.7305 14.5039 12.7486 14.4941 12.7666L14.0039 14.25C13.9967 14.2682 14.0016 14.2969 14.0137 14.3125L14.3555 14.541C14.3561 14.5419 14.3698 14.5615 14.3652 14.5742L14.1855 15.1377C14.1855 15.1377 14.1787 15.1644 14.1738 15.1748L13.9385 15.3975C13.9385 15.3975 13.9263 15.4112 13.9238 15.4189C13.9237 15.4239 13.9213 15.4266 13.9189 15.4316L13.5938 16.3252C13.5889 16.3404 13.5771 16.3504 13.5605 16.3506H13.3779C13.3319 16.3507 13.2934 16.3902 13.291 16.4395L13.1816 17.7744C13.1816 17.7975 13.1767 17.8206 13.1719 17.8438L13.085 18.374C13.0845 18.3751 13.0745 18.3977 13.0674 18.4053L12.7646 18.6543C12.6264 18.7971 12.4389 19.0565 12.3467 19.2383L11.3359 21.5264C11.3117 21.5757 11.292 21.6593 11.292 21.7139L11.3643 21.8516C11.3642 21.9017 11.3479 22.1159 11.3262 22.1602L10.9883 22.8018C10.9812 22.8171 10.9812 22.8352 10.9883 22.8506L11.0059 22.8926L11.0566 23.002H12.085C12.148 23.0097 12.2183 22.9206 12.2207 22.8271L12.2764 22.0723L12.2627 21.958L14.2246 19.4883C14.2755 19.4208 14.3459 19.3035 14.3799 19.2256L15.3164 17.0156C15.3261 16.9923 15.3479 16.9717 15.3721 16.9639L15.4307 16.9434C15.467 16.9304 15.506 16.9426 15.5303 16.9736C15.6127 17.08 15.8037 17.4279 15.8984 17.5762C15.976 17.6982 16.3618 18.2926 16.5293 18.4902C16.5754 18.5447 16.7181 18.6053 16.7812 18.6494C16.8031 18.6624 16.808 18.6905 16.7959 18.7139L16.2354 19.7686L15.9883 21.0146C15.9786 21.0432 15.9736 21.0749 15.9688 21.1035L15.7461 21.9678C15.7461 22.0768 15.6681 22.1341 15.6631 22.2637L15.5811 22.8975C15.5811 22.9156 15.5953 22.9336 15.6123 22.9336L16.9971 22.9414C16.9971 22.9414 17.0941 22.942 17.1523 22.9395C17.162 22.9395 17.1822 22.9388 17.1943 22.9336C17.3785 22.9076 17.5045 22.8817 17.5918 22.8506C17.5965 22.8506 17.5989 22.8482 17.6035 22.8457C17.6641 22.8224 17.7033 22.799 17.7275 22.7705C17.7736 22.7186 17.8296 22.6534 17.8369 22.5703V22.5293C17.8369 22.5138 17.832 22.5006 17.8271 22.4902C17.8271 22.4877 17.8247 22.485 17.8223 22.4824C17.8223 22.4824 17.8227 22.4792 17.8203 22.4766C17.8131 22.4637 17.8052 22.4609 17.8027 22.4609C17.7981 22.4608 17.7956 22.4562 17.791 22.4561L17.1475 22.248C17.1065 22.235 17.0701 22.207 17.0459 22.1709L16.874 21.8975C16.8645 21.8793 16.8693 21.8563 16.8838 21.8408L17.2207 21.4854C17.2207 21.4854 17.2398 21.459 17.2471 21.4434L18.2832 18.8262C18.3317 18.66 18.3147 18.4727 18.2832 18.2754C18.2589 18.13 17.9101 17.5013 17.8203 17.3271C17.7403 17.174 17.2385 16.2379 17.1191 16.0137C17.1046 15.9877 17.0873 15.9664 17.0654 15.9482C17.0485 15.9353 17.0336 15.9227 17.0215 15.9072C17.0094 15.8917 17 15.8732 16.9951 15.8525L16.9561 15.2002C16.9538 15.1873 16.9612 15.1719 16.9756 15.1719L17.1553 15.1562C17.1721 15.1562 17.1866 15.1434 17.1963 15.1279L17.8203 13.8711C17.83 13.853 17.8275 13.832 17.8203 13.8164L17.6914 13.6475C17.6817 13.6319 17.6818 13.6113 17.6914 13.5957L17.8828 13.375C17.8901 13.3595 17.9097 13.3536 17.9219 13.3613L18.4316 13.668C18.4631 13.6861 18.4969 13.6963 18.5332 13.6963C18.6739 13.6962 18.9071 13.6062 19.0283 13.5283C19.0598 13.5075 19.0866 13.4761 19.1035 13.4424L19.3525 12.8193C19.3525 12.8193 19.3677 12.8115 19.3701 12.8193L19.4404 13.167C19.4453 13.1878 19.4625 13.2005 19.4844 13.1953L20.2188 13.0215C20.2382 13.0163 20.2509 12.9954 20.2461 12.9746L20.0732 12.1904C20.0733 12.1887 20.0735 12.1691 20.0781 12.1592L20.1484 12.04C20.1581 12.0245 20.1631 12.0087 20.168 11.9932L20.2559 11.5703C20.2559 11.5703 20.2676 11.5518 20.2773 11.5518H22.3105C22.3394 11.5541 22.3612 11.5309 22.3613 11.5V11.1309C22.362 11.1292 22.3664 11.1183 22.373 11.1182H23.1572C23.1715 11.1179 23.1807 11.1046 23.1807 11.0918V10.9258C23.1806 10.9104 23.1692 10.8997 23.1572 10.8994H22.373L22.3613 10.8896C22.3613 10.8896 22.3491 10.8845 22.3486 10.877V10.6299C22.3486 10.5858 22.32 10.5519 22.2861 10.5518C22.2668 10.5518 22.2475 10.565 22.2354 10.583C22.2305 10.5934 22.155 10.7082 22.1113 10.7783C22.1089 10.7808 22.1039 10.7832 22.1016 10.7832H18.5352C18.5208 10.783 18.5088 10.7697 18.5088 10.7568L18.502 10.6533C18.502 10.6351 18.5162 10.6224 18.5332 10.625L18.7148 10.6426C18.7293 10.6426 18.7441 10.6326 18.749 10.6172L18.8828 10.04C18.8851 10.0272 18.8773 10.0139 18.8652 10.0088L18.7422 9.95996C18.7422 9.95996 18.73 9.9492 18.7275 9.94141C18.7056 9.8397 18.5204 9.17009 17.6426 9.01953ZM6.75586 21.1406C6.35915 21.1409 6.03719 21.4626 6.03711 21.8594C6.03711 22.2562 6.3591 22.5779 6.75586 22.5781C7.15281 22.5781 7.47461 22.2563 7.47461 21.8594C7.47453 21.4625 7.15276 21.1406 6.75586 21.1406ZM25.2441 20.9531C24.8472 20.9531 24.5255 21.275 24.5254 21.6719C24.5254 22.0688 24.8472 22.3906 25.2441 22.3906C25.6409 22.3904 25.9629 22.0687 25.9629 21.6719C25.9628 21.2751 25.6408 20.9534 25.2441 20.9531ZM5.68262 12.1885C5.41427 12.1758 4.83245 12.3267 4.64844 13.0312C4.46453 13.7362 5.26096 14.679 5.68262 15.0625C5.50355 14.9092 5.04671 14.6494 4.64844 14.833C4.45198 14.9237 4.40889 15.0365 4.43555 15.1416C3.85008 15.1644 3.38379 15.5831 3.38379 16.0977C3.3838 16.6262 3.8757 17.0537 4.4834 17.0547C4.51833 17.0952 4.57155 17.1344 4.64844 17.1699C5.04671 17.3536 5.50355 17.0937 5.68262 16.9404C5.26096 17.3239 4.46453 18.2667 4.64844 18.9717C4.83245 19.6762 5.41427 19.8271 5.68262 19.8145C6.20629 19.674 7.1464 19.3089 6.71777 18.9717C6.18126 18.5501 5.68268 19.3161 5.68262 18.7031C5.68262 18.0901 7.25352 17.4769 6.98633 16.9404C6.79953 16.5668 6.79755 16.1934 6.62012 16.001C6.79707 15.8084 6.7997 15.4358 6.98633 15.0625C7.25352 14.5261 5.68262 13.9128 5.68262 13.2998C5.68268 12.6868 6.18126 13.4528 6.71777 13.0312C7.1464 12.694 6.20629 12.329 5.68262 12.1885ZM25.874 12.1885C25.3503 12.329 24.41 12.694 24.8389 13.0312C25.3754 13.4528 25.874 12.6868 25.874 13.2998C25.874 13.9129 24.3029 14.526 24.5703 15.0625C24.7567 15.4352 24.7584 15.8081 24.9346 16.001C24.7579 16.1937 24.7568 16.5674 24.5703 16.9404C24.3029 17.4769 25.874 18.0901 25.874 18.7031C25.874 19.3161 25.3754 18.5501 24.8389 18.9717C24.41 19.3089 25.3503 19.6739 25.874 19.8145C26.1425 19.827 26.7242 19.6761 26.9082 18.9717C27.0921 18.2668 26.2957 17.3239 25.874 16.9404C26.0532 17.0938 26.51 17.3537 26.9082 17.1699C27.1054 17.0789 27.1474 16.9657 27.1201 16.8604C27.7059 16.8379 28.1729 16.4201 28.1729 15.9053C28.1728 15.3765 27.6803 14.9479 27.0723 14.9473C27.0373 14.9071 26.9845 14.8682 26.9082 14.833C26.51 14.6493 26.0532 14.9092 25.874 15.0625C26.2957 14.679 27.0921 13.7362 26.9082 13.0312C26.7242 12.3268 26.1425 12.1759 25.874 12.1885ZM6.85645 10.0781C6.45954 10.0781 6.13778 10.4 6.1377 10.7969C6.1377 11.1938 6.45949 11.5156 6.85645 11.5156C7.25334 11.5156 7.5752 11.1938 7.5752 10.7969C7.57511 10.4 7.25329 10.0782 6.85645 10.0781ZM25.3438 9.89062C24.9468 9.89062 24.6251 10.2125 24.625 10.6094C24.625 11.0063 24.9468 11.3281 25.3438 11.3281C25.7407 11.3281 26.0625 11.0063 26.0625 10.6094C26.0624 10.2125 25.7407 9.89062 25.3438 9.89062ZM8.60645 7.89062C8.20954 7.89062 7.88778 8.21249 7.8877 8.60938C7.8877 9.00633 8.20949 9.32812 8.60645 9.32812C9.00334 9.32806 9.3252 9.00629 9.3252 8.60938C9.32511 8.21253 9.00329 7.89069 8.60645 7.89062ZM23.5938 7.70312C23.1968 7.70312 22.8751 8.02499 22.875 8.42188C22.875 8.81883 23.1968 9.14062 23.5938 9.14062C23.9907 9.14062 24.3125 8.81883 24.3125 8.42188C24.3124 8.02499 23.9907 7.70312 23.5938 7.70312ZM10.6064 6.07812C10.2095 6.07812 9.88778 6.39999 9.8877 6.79688C9.8877 7.19383 10.2095 7.51562 10.6064 7.51562C11.0033 7.51556 11.3252 7.19379 11.3252 6.79688C11.3251 6.40003 11.0033 6.07819 10.6064 6.07812ZM21.5938 5.89062C21.1968 5.89062 20.8751 6.21249 20.875 6.60938C20.875 7.00633 21.1968 7.32812 21.5938 7.32812C21.9907 7.32812 22.3125 7.00633 22.3125 6.60938C22.3124 6.21249 21.9907 5.89062 21.5938 5.89062ZM15.6348 3.55957C15.1063 3.55983 14.6776 4.05243 14.6768 4.66016C14.6366 4.69508 14.5977 4.74802 14.5625 4.82422C14.3785 5.2228 14.6397 5.68053 14.793 5.85938C14.4098 5.43785 13.4669 4.64051 12.7617 4.82422C12.0565 5.00817 11.9052 5.5911 11.918 5.85938C12.0585 6.38306 12.4245 7.32325 12.7617 6.89453C13.1833 6.35798 12.4171 5.85937 13.0303 5.85938C13.6433 5.86016 14.2566 7.43032 14.793 7.16211C15.1659 6.97574 15.5378 6.97341 15.7305 6.79688C15.9229 6.97431 16.2964 6.97536 16.6699 7.16211C17.2064 7.43034 17.8195 5.85985 18.4326 5.85938C19.0458 5.85938 18.2796 6.35798 18.7012 6.89453C19.0383 7.32298 19.4034 6.38306 19.5439 5.85938C19.5567 5.5911 19.4063 5.00817 18.7012 4.82422C17.996 4.64034 17.0532 5.43782 16.6699 5.85938C16.8232 5.68053 17.0834 5.2228 16.8994 4.82422C16.8087 4.62798 16.6959 4.58457 16.5908 4.61133C16.5678 4.02614 16.1492 3.55957 15.6348 3.55957Z" fill="white"/>
</svg>
