<svg width="32" height="34" viewBox="0 0 32 34" fill="none" xmlns="http://www.w3.org/2000/svg">
<path d="M28.6333 20.5337C28.4546 20.5337 28.2758 20.4662 28.1394 20.3314C27.8665 20.0618 27.8665 19.6251 28.1394 19.3555L30.2536 17.2668L28.1394 15.178C27.8665 14.9084 27.8665 14.4717 28.1394 14.2021C28.4122 13.9325 28.8543 13.9325 29.1272 14.2021L31.7353 16.7787C32.0081 17.0483 32.0081 17.4851 31.7353 17.7547L29.1272 20.3313C28.9908 20.466 28.812 20.5335 28.6332 20.5335L28.6333 20.5337Z" fill="white"/>
<path d="M31.2412 17.9569H25.6985C25.3127 17.9569 24.9999 17.6482 24.9999 17.2667C24.9999 16.8852 25.3127 16.5765 25.6985 16.5765H31.2412C31.6271 16.5765 31.9398 16.8852 31.9398 17.2667C31.9398 17.6482 31.6271 17.9569 31.2412 17.9569Z" fill="white"/>
<path d="M3.30661 14C3.48533 14 3.66412 14.0674 3.80058 14.2022C4.07345 14.4718 4.07345 14.9085 3.80058 15.1781L1.68636 17.2669L3.80057 19.3556C4.07345 19.6252 4.07345 20.062 3.80057 20.3316C3.5277 20.6012 3.08561 20.6012 2.81273 20.3316L0.204663 17.7549C-0.0682153 17.4853 -0.0682153 17.0486 0.204663 16.779L2.81273 14.2023C2.94918 14.0676 3.1279 14.0002 3.3067 14.0002L3.30661 14Z" fill="white"/>
<path d="M0.698704 16.5768L6.24141 16.5768C6.62724 16.5768 6.94 16.8855 6.94 17.267C6.94 17.6485 6.62724 17.9572 6.24141 17.9572L0.698704 17.9572C0.312878 17.9572 0.000114435 17.6485 0.000114468 17.267C0.000114502 16.8855 0.312878 16.5768 0.698704 16.5768Z" fill="white"/>
<path d="M19.5884 5.2667C19.5884 5.44327 19.5201 5.6199 19.3837 5.75472C19.1108 6.02431 18.6687 6.02431 18.3958 5.75472L16.2816 3.66597L14.1674 5.75472C13.8945 6.02431 13.4524 6.02431 13.1795 5.75472C12.9067 5.48512 12.9067 5.04836 13.1795 4.77877L15.7876 2.20212C16.0605 1.93253 16.5026 1.93253 16.7755 2.20212L19.3835 4.77877C19.5199 4.91357 19.5881 5.09014 19.5881 5.26679L19.5884 5.2667Z" fill="white"/>
<path d="M16.9803 2.69015L16.9803 8.16609C16.9803 8.54727 16.6679 8.85626 16.2818 8.85626C15.8956 8.85626 15.5832 8.54727 15.5832 8.16609L15.5832 2.69015C15.5832 2.30898 15.8956 1.99998 16.2817 1.99998C16.6679 1.99998 16.9803 2.30898 16.9803 2.69015Z" fill="white"/>
<path fill-rule="evenodd" clip-rule="evenodd" d="M10.5526 30.9899C9.30391 30.5403 8.27729 29.6545 7.69366 28.503C6.47515 26.1309 7.47847 23.3441 9.92933 22.2932C11.1099 21.7869 12.4654 21.7587 13.7142 22.2083C14.9725 22.6613 15.9896 23.5437 16.5861 24.6898C17.8046 27.0618 16.8013 29.8486 14.3504 30.8996C13.157 31.4113 11.8111 31.4429 10.5526 30.9899ZM10.9333 29.9325C9.98232 29.5901 9.21489 28.919 8.75859 28.0462C8.312 27.1769 8.24065 26.1997 8.56005 25.3125C8.88265 24.4165 9.55735 23.718 10.4556 23.3328C11.3666 22.9421 12.3825 22.9232 13.3336 23.2656C14.2941 23.6114 15.0649 24.2736 15.5083 25.1519C16.443 26.9561 15.6816 29.0709 13.8114 29.8652C12.9131 30.2504 11.8939 30.2782 10.9334 29.9324L10.9333 29.9325Z" fill="white"/>
<path fill-rule="evenodd" clip-rule="evenodd" d="M15.4401 22.6686L15.4191 22.6784C15.3409 22.7024 15.2689 22.6852 15.2129 22.6476C14.8109 22.3638 14.3818 22.131 13.9201 21.9648C13.443 21.7931 12.964 21.6989 12.4734 21.6613C12.4062 21.6545 12.3397 21.6219 12.2997 21.564C12.2548 21.4956 12.2461 21.423 12.2788 21.3565L12.5454 20.5919C12.6451 20.3149 12.8575 20.0871 13.1297 19.959C13.4018 19.831 13.7022 19.8175 13.9793 19.9172L15.1644 20.3439C15.4414 20.4436 15.6692 20.656 15.7973 20.9281C15.9204 21.1898 15.9388 21.5007 15.8391 21.7778L15.5676 22.5319C15.5455 22.5935 15.503 22.6391 15.4402 22.6686L15.4401 22.6686Z" fill="white"/>
<path fill-rule="evenodd" clip-rule="evenodd" d="M15.0874 20.3282C14.9791 20.3876 14.8634 20.3951 14.771 20.3618L14.2893 20.1786C14.1861 20.1513 14.1018 20.0717 14.0562 19.9569C14.0151 19.8536 14.0175 19.7265 14.0659 19.616L14.375 18.7335C14.4046 18.6752 14.4451 18.6111 14.4993 18.5814C14.5535 18.5517 14.6213 18.5564 14.6783 18.5671L14.863 18.6336L14.9241 18.4883C14.9492 18.4186 14.9942 18.3659 15.0484 18.3362C15.1134 18.3005 15.1767 18.2938 15.2382 18.316L15.469 18.3991C15.6845 18.4767 15.7848 18.7293 15.697 18.9731L15.3127 20.0648C15.2642 20.1753 15.185 20.2747 15.0875 20.3281L15.0874 20.3282ZM14.5111 19.7074L14.8959 19.8459L15.197 19.0097C15.0789 19.1444 14.892 19.2049 14.7489 19.1436L14.7226 19.144L14.5111 19.7074L14.5111 19.7074Z" fill="white"/>
<path fill-rule="evenodd" clip-rule="evenodd" d="M15.0592 19.1272C14.9617 19.1807 14.846 19.1882 14.7491 19.1434L14.2611 18.9776C14.0564 18.8941 13.9561 18.6415 14.0332 18.4035L14.4329 17.3174C14.5099 17.0794 14.759 16.9428 14.9745 17.0204L15.4516 17.1922C15.6671 17.2698 15.7674 17.5224 15.6795 17.7663L15.2798 18.8524C15.2467 18.9684 15.1675 19.0678 15.0592 19.1272ZM14.4938 18.5005L14.8631 18.6334L15.2189 17.6693L14.845 17.5249L14.4938 18.5005Z" fill="white"/>
<path fill-rule="evenodd" clip-rule="evenodd" d="M15.997 17.8019C15.8887 17.8613 15.7839 17.8629 15.6807 17.8355L15.199 17.6523C15.0958 17.625 15.0114 17.5455 14.9658 17.4306C14.9248 17.3273 14.9271 17.2002 14.9756 17.0897L15.3599 15.9981C15.4523 15.7656 15.7014 15.629 15.9014 15.7011L16.3786 15.8728C16.4863 15.9116 16.5599 15.9971 16.6009 16.1005C16.6419 16.2038 16.6505 16.3249 16.6065 16.4469L16.2222 17.5385C16.1737 17.649 16.0945 17.7484 15.997 17.8019ZM15.4208 17.1811L15.8055 17.3196L16.1459 16.35L15.7766 16.217L15.4208 17.1811Z" fill="white"/>
<path fill-rule="evenodd" clip-rule="evenodd" d="M15.5985 16.569C14.7499 16.2634 14.089 15.6585 13.7086 14.8512C13.3282 14.044 13.2827 13.1499 13.5878 12.3023C13.8879 11.4688 14.498 10.7948 15.3057 10.4153C16.1083 10.0499 17.0082 9.99092 17.8568 10.2964C18.6912 10.5969 19.3612 11.221 19.7467 12.0141C20.5205 13.6811 19.8033 15.673 18.1496 16.4501C17.3419 16.8296 16.4329 16.8694 15.5985 16.569ZM16.0715 15.2551C15.5765 15.0769 15.19 14.7303 14.9778 14.2549C14.7463 13.7885 14.7251 13.2703 14.9031 12.7758C15.0761 12.2954 15.4227 11.9096 15.9035 11.6837C16.3649 11.4669 16.8837 11.4461 17.3787 11.6243C17.8596 11.7975 18.246 12.1441 18.4775 12.6104C18.6898 13.0858 18.711 13.6041 18.538 14.0844C18.36 14.5789 18.0133 14.9648 17.5519 15.1816C17.0711 15.4075 16.5524 15.4282 16.0715 15.2551Z" fill="white"/>
<ellipse cx="12.1383" cy="26.6009" rx="3" ry="2.66667" transform="rotate(19.8002 12.1383 26.6009)" fill="white"/>
<path d="M17.6752 26.4841L17.7968 15.3205L25.5912 23.2865L22.3006 23.9074L22.9216 27.198L21.601 27.8404L20.3234 24.5427L17.6752 26.4841Z" fill="#6CB2FF"/>
<path d="M26.0339 23.2078L17.8575 14.1343C17.7856 14.0553 17.6849 14.0085 17.578 14.0047C17.4712 14.0009 17.3673 14.0402 17.2899 14.114C17.2126 14.1876 17.168 14.2894 17.1667 14.3963L17.0171 26.6089L17.0171 26.6088C17.016 26.7061 17.0506 26.8003 17.1144 26.8738C17.1781 26.9472 17.2666 26.9948 17.363 27.0073C17.4595 27.0198 17.5573 26.9966 17.6377 26.9419L20.1124 25.2736L21.1304 27.9753C21.1587 28.0491 21.2085 28.1128 21.2733 28.1581C21.3381 28.2035 21.415 28.2285 21.4941 28.2299C21.5433 28.23 21.5922 28.2217 21.6386 28.2054L23.6067 27.4631L23.6066 27.4632C23.7068 27.428 23.7888 27.3544 23.8342 27.2585C23.8797 27.1625 23.8849 27.0525 23.8486 26.9527L22.8213 24.2485L25.7903 23.8671L25.7902 23.8671C25.8863 23.8545 25.9745 23.8072 26.0382 23.7341C26.1018 23.6609 26.1365 23.567 26.1357 23.47C26.1349 23.3731 26.0987 23.2799 26.0339 23.2078L26.0339 23.2078ZM22.2215 23.5233C22.1013 23.5391 21.995 23.6088 21.9326 23.7126C21.8703 23.8165 21.8587 23.9431 21.9012 24.0565L22.9559 26.8603L21.7308 27.3198L20.6761 24.5208C20.6332 24.4064 20.5399 24.3182 20.4234 24.2816C20.3079 24.2457 20.1824 24.2644 20.0824 24.3323L17.8196 25.8587L17.9451 15.4238L24.9371 23.177L22.2215 23.5233Z" fill="black"/>
</svg>
