<svg width="33" height="33" viewBox="0 0 33 33" fill="none" xmlns="http://www.w3.org/2000/svg">
<path d="M29.723 21.368C28.5096 25.1309 25.7973 28.2265 22.2258 29.9232C18.6544 31.621 14.5411 31.7696 10.8569 30.3333C7.17412 28.8985 4.24567 26.0058 2.76361 22.3398L2.21482 23.5746C2.02902 23.9876 1.61599 24.2535 1.16295 24.2492C1.00575 24.2463 0.849957 24.212 0.705623 24.1463C0.428364 24.0233 0.211126 23.7961 0.101092 23.5131C-0.00752461 23.2287 -0.000378118 22.9143 0.122529 22.6371L1.88326 18.6814C2.00759 18.397 2.24199 18.1755 2.53352 18.0683C2.82507 17.9597 3.14662 17.9755 3.42675 18.1098L7.38236 19.8705C7.68534 19.9749 7.93116 20.2007 8.05979 20.4951C8.18842 20.7895 8.18699 21.1239 8.05693 21.4168C7.92545 21.7098 7.6782 21.9356 7.3738 22.0371C7.0694 22.1386 6.7364 22.1071 6.45627 21.9514L4.82131 21.2311C6.01467 24.3623 8.45557 26.8578 11.5599 28.1197C14.6655 29.3817 18.1541 29.2959 21.1938 27.8825C24.2322 26.4705 26.5476 23.8579 27.5851 20.671C27.6609 20.3637 27.8624 20.1022 28.1382 19.9478C28.4155 19.7934 28.7428 19.762 29.0443 19.8578C29.3459 19.9549 29.5931 20.1722 29.7289 20.458C29.8632 20.7453 29.8747 21.074 29.7575 21.3684L29.723 21.368ZM31.3694 9.15727C31.0921 9.03437 30.7777 9.02722 30.4933 9.13584C30.2104 9.24588 29.9831 9.4631 29.8602 9.74037L29.3114 10.9637C27.8265 7.29928 24.8969 4.40956 21.2124 2.97628C17.5281 1.54142 13.4152 1.69002 9.84341 3.38501C6.27196 5.08144 3.55785 8.17419 2.34013 11.9356C2.14433 12.5516 2.48447 13.209 3.10045 13.4048C3.71642 13.6006 4.37385 13.2604 4.56965 12.6445C5.59578 9.44892 7.90817 6.82659 10.9497 5.40733C13.991 3.98961 17.4865 3.90244 20.5936 5.17009C23.702 6.43776 26.1401 8.94277 27.3222 12.0843L25.6987 11.3526C25.4214 11.2297 25.107 11.2226 24.8226 11.3312C24.5396 11.4412 24.3124 11.6584 24.1895 11.9357C23.9322 12.5102 24.188 13.1848 24.7611 13.4449L28.7168 15.2056C28.8668 15.2642 29.0255 15.2957 29.1855 15.2971C29.3256 15.2971 29.4642 15.2728 29.5971 15.2285C29.8658 15.0927 30.0744 14.8598 30.1802 14.5768L31.9409 10.6212C32.1682 10.0595 31.9181 9.41638 31.3693 9.15772L31.3694 9.15727Z" fill="white"/>
</svg>
