<svg width="33" height="33" viewBox="0 0 33 33" fill="none" xmlns="http://www.w3.org/2000/svg">
<rect x="1.28699" y="17.0607" width="4.625" height="10.8768" fill="#D9D9D9"/>
<rect x="9.91199" y="9.73194" width="4.625" height="18.2056" fill="#D9D9D9"/>
<rect x="18.537" y="14.5596" width="4.625" height="13.3779" fill="#D9D9D9"/>
<rect x="27.162" y="7.8125" width="4.625" height="20.125" fill="#D9D9D9"/>
<rect width="30.5" height="2.5625" transform="matrix(1 0 0 -1 1.28699 32.625)" fill="#D9D9D9"/>
<circle cx="3.59973" cy="9.28125" r="1.90625" fill="#D9D9D9"/>
<circle cx="12.2245" cy="2.53125" r="1.90625" fill="#D9D9D9"/>
<circle cx="20.8495" cy="8.59375" r="1.90625" fill="#D9D9D9"/>
<circle cx="29.8807" cy="2.53125" r="1.90625" fill="#D9D9D9"/>
<rect width="5.04849" height="1.2495" transform="matrix(0.792612 -0.609726 -0.609726 -0.792612 6.34747 7.95658)" fill="#D9D9D9"/>
<rect width="5.04849" height="1.2495" transform="matrix(0.777095 0.629383 0.629383 -0.777095 14.4089 4.24113)" fill="#D9D9D9"/>
<rect width="5.04849" height="1.2495" transform="matrix(-0.835559 0.549401 0.549401 0.835559 27.3955 3.65452)" fill="#D9D9D9"/>
</svg>
