<svg width="41" height="41" viewBox="0 0 41 41" fill="none" xmlns="http://www.w3.org/2000/svg">
<rect x="5" y="17" width="9" height="7" rx="1" fill="white"/>
<rect x="16" y="17" width="9" height="7" rx="1" fill="white"/>
<rect x="22" y="17" width="14" height="7" rx="1" fill="white"/>
<path fill-rule="evenodd" clip-rule="evenodd" d="M5 0C2.23858 0 0 2.23858 0 5V36C0 38.7614 2.23858 41 5 41H36C38.7614 41 41 38.7614 41 36V5C41 2.23858 38.7614 0 36 0H5ZM5.74468 1.74468C3.53554 1.74468 1.74468 3.53554 1.74468 5.74468V35.2553C1.74468 37.4645 3.53554 39.2553 5.74468 39.2553H35.2553C37.4645 39.2553 39.2553 37.4645 39.2553 35.2553V5.74468C39.2553 3.53554 37.4645 1.74468 35.2553 1.74468H5.74468Z" fill="#8E8E8E"/>
</svg>
