<svg width="32" height="32" viewBox="0 0 32 32" fill="none" xmlns="http://www.w3.org/2000/svg">
<path d="M32 16C32 24.8366 24.8366 32 16 32C7.16344 32 0 24.8366 0 16C0 7.16344 7.16344 0 16 0C16.9704 0 17.9206 0.0863896 18.8434 0.251897C24 5 26 7.5 31.4959 12C31.825 13.2785 32 14.6188 32 16Z" fill="url(#paint0_linear_5487_1450)"/>
<g filter="url(#filter0_d_5487_1450)">
<path d="M16 3C23.1797 3 29 8.8203 29 16C29 23.1797 23.1797 29 16 29C8.8203 29 3 23.1797 3 16C3 8.8203 8.8203 3 16 3ZM16 4C9.37258 4 4 9.37258 4 16C4 22.6274 9.37258 28 16 28C22.6274 28 28 22.6274 28 16C28 9.37258 22.6274 4 16 4Z" fill="black" fill-opacity="0.24" shape-rendering="crispEdges"/>
</g>
<path d="M27.5 11.5C29.0689 11.8138 31 12 31.5 12L19 0.5C19 2 18.5847 2.5 19.5 4.5C20.4153 6.5 25 11 27.5 11.5Z" fill="url(#paint1_linear_5487_1450)"/>
<defs>
<filter id="filter0_d_5487_1450" x="2.3" y="2.3" width="27.4" height="27.4" filterUnits="userSpaceOnUse" color-interpolation-filters="sRGB">
<feFlood flood-opacity="0" result="BackgroundImageFix"/>
<feColorMatrix in="SourceAlpha" type="matrix" values="0 0 0 0 0 0 0 0 0 0 0 0 0 0 0 0 0 0 127 0" result="hardAlpha"/>
<feOffset/>
<feGaussianBlur stdDeviation="0.35"/>
<feComposite in2="hardAlpha" operator="out"/>
<feColorMatrix type="matrix" values="0 0 0 0 1 0 0 0 0 1 0 0 0 0 1 0 0 0 1 0"/>
<feBlend mode="normal" in2="BackgroundImageFix" result="effect1_dropShadow_5487_1450"/>
<feBlend mode="normal" in="SourceGraphic" in2="effect1_dropShadow_5487_1450" result="shape"/>
</filter>
<linearGradient id="paint0_linear_5487_1450" x1="3" y1="-2.59839e-07" x2="32" y2="35" gradientUnits="userSpaceOnUse">
<stop offset="0.221154" stop-color="#996510"/>
<stop offset="0.394093" stop-color="#F5DE2D"/>
<stop offset="0.538462" stop-color="#BE9017"/>
<stop offset="0.6875" stop-color="#BC7F1E"/>
<stop offset="0.880131" stop-color="#D5C14D"/>
</linearGradient>
<linearGradient id="paint1_linear_5487_1450" x1="21.5" y1="7.5" x2="24.5" y2="4" gradientUnits="userSpaceOnUse">
<stop offset="0.0817308" stop-color="#D9D9D9"/>
<stop offset="0.389423" stop-color="#F0F0F0"/>
<stop offset="1" stop-color="#626262"/>
</linearGradient>
</defs>
</svg>
