<svg width="32" height="32" viewBox="0 0 32 32" fill="none" xmlns="http://www.w3.org/2000/svg">
<path d="M32 16C32 24.8366 24.8366 32 16 32C7.16344 32 0 24.8366 0 16C0 7.16344 7.16344 0 16 0C16.9704 0 17.9206 0.0863896 18.8434 0.251897C24 5 26 7.5 31.4959 12C31.825 13.2785 32 14.6188 32 16Z" fill="white"/>
<path d="M32 16C32 24.8366 24.8366 32 16 32C7.16344 32 0 24.8366 0 16C0 7.16344 7.16344 0 16 0C16.9704 0 17.9206 0.0863896 18.8434 0.251897C24 5 26 7.5 31.4959 12C31.825 13.2785 32 14.6188 32 16Z" fill="url(#paint0_linear_5487_1445)"/>
<path d="M16 3C23.1797 3 29 8.8203 29 16C29 23.1797 23.1797 29 16 29C8.8203 29 3 23.1797 3 16C3 8.8203 8.8203 3 16 3ZM16 4C9.37258 4 4 9.37258 4 16C4 22.6274 9.37258 28 16 28C22.6274 28 28 22.6274 28 16C28 9.37258 22.6274 4 16 4Z" fill="black" fill-opacity="0.24"/>
<path d="M27.5 11.5C29.0689 11.8138 31 12 31.5 12L19 0.5C19 2 18.5847 2.5 19.5 4.5C20.4153 6.5 25 11 27.5 11.5Z" fill="url(#paint1_linear_5487_1445)"/>
<defs>
<linearGradient id="paint0_linear_5487_1445" x1="5.0965" y1="8.26214" x2="24.9035" y2="30.2379" gradientUnits="userSpaceOnUse">
<stop stop-color="white"/>
<stop offset="0.375" stop-color="#B4ABAB"/>
<stop offset="0.41174" stop-color="white"/>
<stop offset="0.548077" stop-color="#E4DBDB"/>
<stop offset="1" stop-color="white"/>
</linearGradient>
<linearGradient id="paint1_linear_5487_1445" x1="21.5" y1="7.5" x2="24.5" y2="4" gradientUnits="userSpaceOnUse">
<stop offset="0.0817308" stop-color="#D9D9D9"/>
<stop offset="0.389423" stop-color="#F0F0F0"/>
<stop offset="1" stop-color="#626262"/>
</linearGradient>
</defs>
</svg>
