<svg width="32" height="32" viewBox="0 0 32 32" fill="none" xmlns="http://www.w3.org/2000/svg">
<path d="M32 16C32 24.8366 24.8366 32 16 32C7.16344 32 0 24.8366 0 16C0 7.16344 7.16344 0 16 0C16.9704 0 17.9206 0.0863896 18.8434 0.251897C24 5 26 7.5 31.4959 12C31.825 13.2785 32 14.6188 32 16Z" fill="url(#paint0_linear_5487_1444)"/>
<path d="M16 3C23.1797 3 29 8.8203 29 16C29 23.1797 23.1797 29 16 29C8.8203 29 3 23.1797 3 16C3 8.8203 8.8203 3 16 3ZM16 4C9.37258 4 4 9.37258 4 16C4 22.6274 9.37258 28 16 28C22.6274 28 28 22.6274 28 16C28 9.37258 22.6274 4 16 4Z" fill="black" fill-opacity="0.24"/>
<path d="M31.5 12C31.5 12 31 13 29 13.5C24 13.5 20 11.5 18.5 7C17.9999 5.33333 18.5 2 19 0.5C19.5 0.500012 31.5 12 31.5 12Z" fill="url(#paint1_radial_5487_1444)" fill-opacity="0.33"/>
<path d="M27.5 11.5C29.0689 11.8138 31 12 31.5 12L19 0.5C19 2 18.5847 2.5 19.5 4.5C20.4153 6.5 25 11 27.5 11.5Z" fill="url(#paint2_linear_5487_1444)"/>
<defs>
<linearGradient id="paint0_linear_5487_1444" x1="4" y1="4" x2="26.5" y2="28.5" gradientUnits="userSpaceOnUse">
<stop stop-color="#87C1CA"/>
<stop offset="0.203217" stop-color="#69A1D0"/>
<stop offset="0.418269" stop-color="#EB8BE4"/>
<stop offset="0.613949" stop-color="#DEF6A7"/>
<stop offset="1" stop-color="#32BEB1"/>
</linearGradient>
<radialGradient id="paint1_radial_5487_1444" cx="0" cy="0" r="1" gradientUnits="userSpaceOnUse" gradientTransform="translate(24 8) rotate(46.4688) scale(13.7931 7.66735)">
<stop stop-color="#0A0909"/>
<stop offset="0.492444" stop-color="#706C6C" stop-opacity="0"/>
</radialGradient>
<linearGradient id="paint2_linear_5487_1444" x1="21.5" y1="7.5" x2="24.5" y2="4" gradientUnits="userSpaceOnUse">
<stop offset="0.0817308" stop-color="#D9D9D9"/>
<stop offset="0.389423" stop-color="#F0F0F0"/>
<stop offset="1" stop-color="#626262"/>
</linearGradient>
</defs>
</svg>
