<svg width="32" height="32" viewBox="0 0 32 32" fill="none" xmlns="http://www.w3.org/2000/svg">
<path d="M27.6369 10.1817H4.36436C4.328 10.1817 4.29466 10.1727 4.2583 10.1711L5.62042 29.297C5.728 30.8197 6.99616 32 8.52193 32H23.4671C24.9929 32 26.2595 30.8212 26.3686 29.2985L27.7398 10.1717C27.705 10.1732 27.6717 10.1823 27.6353 10.1823L27.6369 10.1817ZM10.6628 27.6346C10.6537 27.6361 10.6446 27.6361 10.6355 27.6361C10.2462 27.6361 9.92344 27.327 9.9098 26.9361L9.45527 14.5725C9.44012 14.171 9.75376 13.8347 10.1553 13.8195C10.5537 13.8044 10.8946 14.118 10.9083 14.5195L11.3628 26.883C11.378 27.2846 11.0643 27.6224 10.6628 27.6361L10.6628 27.6346ZM16.7279 26.9088C16.7279 27.3103 16.4022 27.6361 16.0006 27.6361C15.5991 27.6361 15.2734 27.3103 15.2734 26.9088V14.5453C15.2734 14.1437 15.5991 13.818 16.0006 13.818C16.4022 13.818 16.7279 14.1437 16.7279 14.5453V26.9088ZM22.0916 26.9361C22.078 27.3285 21.7552 27.6361 21.3658 27.6361C21.3567 27.6361 21.3477 27.6361 21.3386 27.6346C20.9371 27.6209 20.6234 27.283 20.6386 26.8815L21.0931 14.518C21.1067 14.1165 21.4477 13.7983 21.8461 13.818C22.2477 13.8331 22.5613 14.1695 22.5461 14.571L22.0916 26.9346L22.0916 26.9361Z" fill="white"/>
<path d="M27.6369 4.36361H21.4548V3.2727C21.4548 1.46818 19.9867 0 18.1821 0H13.8185C12.014 0 10.5458 1.46818 10.5458 3.2727V4.36361H4.36372C3.56068 4.36361 2.90918 5.01511 2.90918 5.81814V7.27268C2.90918 8.07571 3.56068 8.72721 4.36372 8.72721H27.6363C28.4393 8.72721 29.0908 8.07571 29.0908 7.27268V5.81814C29.0908 5.01511 28.4393 4.36361 27.6363 4.36361H27.6369ZM12.7276 3.2727C12.7276 2.67121 13.217 2.1818 13.8185 2.1818H18.1821C18.7836 2.1818 19.273 2.67121 19.273 3.2727V4.36361H12.7276V3.2727Z" fill="white"/>
</svg>
