<svg width="64" height="64" viewBox="0 0 64 64" fill="none" xmlns="http://www.w3.org/2000/svg">
<path d="M47.2777 0.0651025C50.0099 1.55336 52.4306 3.40703 54.0778 6.10214C55.6906 8.74054 55.7662 11.4671 54.2563 14.1721C53.7488 15.0807 53.048 15.8801 52.4509 16.7405C52.3487 16.8875 52.2654 17.0919 52.2731 17.2648C52.4761 21.7393 52.8023 26.2104 52.6959 30.6934C52.5965 34.8789 52.1814 39.0244 50.9668 43.0559C50.1009 45.9302 48.829 48.5854 46.9074 50.9256C43.3687 55.235 39.8721 59.5779 36.3573 63.9062C36.3363 63.9321 36.3069 63.951 36.2509 64C36.1774 63.8894 36.1088 63.7865 36.0402 63.6836C35.0349 62.1736 33.8337 60.8541 32.3314 59.8194C32.0808 59.6465 31.9002 59.6507 31.6503 59.8229C30.1767 60.8359 28.9951 62.1267 28.0011 63.6003C27.9296 63.7067 27.8603 63.8145 27.7889 63.9209C27.7763 63.9391 27.7567 63.9524 27.7252 63.9825C27.6846 63.9468 27.637 63.9153 27.6027 63.8733C24.1166 59.5821 20.6564 55.2686 17.1366 51.0047C14.627 47.9638 13.2438 44.4328 12.3904 40.6492C11.7597 37.854 11.4685 35.0147 11.3397 32.1565C11.3334 32.0192 11.339 31.8813 11.339 31.6769C11.4356 31.7826 11.5 31.8393 11.5483 31.9072C13.3964 34.5106 15.4048 36.9747 17.7954 39.1091C17.934 39.2323 17.99 39.4661 18.0467 39.66C18.4177 40.9215 18.6942 42.2172 19.1618 43.4409C19.88 45.3219 21.0995 46.9165 22.3546 48.472C24.0319 50.5504 25.719 52.6211 27.4011 54.6952C27.5026 54.8205 27.5957 54.9521 27.7378 55.1412C27.7567 54.9885 27.7749 54.9052 27.7756 54.8226C27.7798 52.8045 27.8183 50.7849 27.7735 48.7681C27.728 46.7324 27.0735 44.8816 25.8555 43.2407C25.4053 42.6345 24.8425 42.1535 24.1985 41.7552C23.6042 41.3877 23.0204 40.9992 22.4582 40.5848C20.5983 39.2141 19.4831 37.378 19.2073 35.0847C18.9945 33.3157 18.8811 31.5341 18.7775 29.7204C20.5549 33.5999 23.53 35.8561 27.7343 36.5379C27.7644 36.4259 27.7924 36.3629 27.7973 36.2978C27.9828 33.8274 27.6188 31.4592 26.4456 29.252C25.7246 27.8961 24.6731 26.8516 23.4068 25.9801C19.4005 23.222 15.3887 20.4681 11.8836 17.0604C10.9456 16.1482 10.1819 15.1087 9.59313 13.9459C8.21688 11.2284 8.38068 8.57114 9.96905 5.99363C11.1283 4.11266 12.7286 2.658 14.5234 1.40776C15.2368 0.911436 15.9865 0.467618 16.7194 0C16.7446 0.0273011 16.7698 0.0546021 16.7957 0.0819032C16.7124 0.197408 16.6298 0.312912 16.5465 0.427717C15.6904 1.60446 14.9112 2.82881 14.6333 4.28067C14.1972 6.56206 14.8412 8.60614 16.1839 10.436C17.3368 12.0069 18.9021 13.1115 20.578 14.0628C22.7515 15.297 25.0791 16.1426 27.4935 16.7636C27.6629 16.807 27.8337 16.8469 27.9982 16.9036C28.3735 17.0324 28.6129 17.2879 28.6451 17.6918C28.6913 18.2721 28.6745 18.8608 28.7627 19.4342C29.0742 21.4656 30.1935 22.9889 31.8414 24.1544C31.9142 24.2062 32.0955 24.195 32.1718 24.139C34.015 22.7782 35.2267 21.0526 35.2827 18.6725C35.289 18.4163 35.2883 18.1587 35.3135 17.9039C35.3814 17.2235 35.5921 17.0058 36.2516 16.821C37.205 16.5542 38.164 16.3008 39.0993 15.9795C41.6971 15.0863 44.1332 13.8878 46.2466 12.0944C48.0491 10.5648 49.1545 8.65724 49.452 6.30095C49.6277 4.90929 49.3246 3.60164 48.6589 2.38919C48.2283 1.60516 47.7103 0.868734 47.2315 0.111304C47.2469 0.0959037 47.2623 0.0812032 47.277 0.0658026L47.2777 0.0651025ZM36.1746 36.5477C40.4286 35.8652 43.4066 33.6272 45.1461 29.7239C45.1986 29.7526 45.2504 29.782 45.3029 29.8107C45.0831 31.8246 44.9333 33.8491 44.6211 35.8484C44.3474 37.602 43.4066 39.044 42.0303 40.1648C41.3366 40.7297 40.5973 41.2484 39.8385 41.7216C39.0188 42.2333 38.3405 42.8704 37.8196 43.674C36.7675 45.2988 36.2124 47.0824 36.2026 49.0208C36.1928 50.9102 36.2075 52.8003 36.2124 54.6896C36.2124 54.8135 36.2229 54.9367 36.2313 55.1391C36.3461 55.0018 36.4112 54.9283 36.4714 54.8506C37.1084 54.0316 37.7328 53.2021 38.3839 52.3935C39.8539 50.5679 41.3709 48.7793 42.8031 46.9249C44.0002 45.3751 44.9214 43.6635 45.4317 41.7517C46.5266 37.6496 46.9998 33.4662 47.06 29.2303C47.0915 27.0484 47.0544 24.8678 46.6855 22.7082C46.6316 22.3946 46.5259 22.0908 46.4307 21.7323C46.0891 22.0341 45.8307 22.3078 45.5297 22.5213C43.8847 23.6868 42.2214 24.8279 40.5812 25.9997C40.0142 26.4043 39.436 26.8201 38.9621 27.3242C36.5414 29.9003 36.0115 33.0644 36.1746 36.5463V36.5477Z" fill="#E11013"/>
</svg>
