<svg width="64" height="64" viewBox="0 0 64 64" fill="none" xmlns="http://www.w3.org/2000/svg">
<path d="M62.7848 16.9539L52.5686 13.9761L52.5745 10.0968L42.4126 7.05039L42.4185 3.29436L31.7329 0L21.136 3.28328L21.1354 7.01748L10.9368 10.0982L10.9416 14.0696L6.51715 15.3098L1 16.9684L1.00346 63.992L20.5286 63.9938L31.8884 55.0801L41.6645 63.9699L62.8222 64L62.7848 16.9539Z" fill="#231F20"/>
<path d="M60.4528 30.9248L42.5316 30.9133L3.34424 61.6431L19.7146 61.639L47.0939 40.155L47.0845 54.1591L34.4398 54.2173L42.5766 61.6161L60.4552 61.6431L60.4528 30.9248Z" fill="#D8FF00"/>
<path d="M9.69191 52.8123L9.7068 16.8618L7.17023 17.5728L3.35498 18.7195L3.3581 57.7084L9.69191 52.8123Z" fill="#D8FF00"/>
<path d="M13.3185 49.9868L19.6821 45.0491L19.6769 9.98382L19.6188 9.94641L13.2939 11.8481L13.3019 17.8568L13.3185 49.9868Z" fill="#D8FF00"/>
<path d="M29.8313 37.1945L29.7963 3.06543L23.4909 5.01912L23.4854 38.9529L23.4961 42.1174L29.8313 37.1945Z" fill="#D8FF00"/>
<path d="M40.033 29.7081L40.0531 9.79405L40.0607 5.02845L33.7363 3.06299L33.6777 3.10109L33.6788 34.6334L40.033 29.7081Z" fill="#D8FF00"/>
<path d="M50.2174 11.8721L50.1932 11.8329L43.8857 9.94818L43.8545 28.3868L50.1859 28.3865L50.2174 11.8721Z" fill="#D8FF00"/>
<path d="M60.4423 22.3761L60.4333 18.7216L54.0687 16.8666L54.0684 28.3574L60.4313 28.3781L60.4423 22.3761Z" fill="#D8FF00"/>
</svg>
