<svg width="64" height="64" viewBox="0 0 64 64" fill="none" xmlns="http://www.w3.org/2000/svg">
<path fill-rule="evenodd" clip-rule="evenodd" d="M32.6152 16.0001C32.6374 16.0001 32.6595 16.0001 32.6817 16.0001C32.7485 16.0146 32.8155 16.0416 32.8824 16.0416C37.8133 16.0435 42.7443 16.0435 47.6753 16.0416C47.7421 16.0416 47.8089 16.0146 47.8758 16.0001C47.8978 16.0001 47.92 16.0001 47.9421 16.0001C47.9465 16.0298 47.9433 16.0634 47.9565 16.0886C49.1186 18.3104 50.2818 20.5319 51.4453 22.753C53.3832 26.4518 55.3221 30.15 57.2592 33.8491C59.0913 37.3475 60.9224 40.8464 62.7519 44.3462C63.1527 45.1129 63.5443 45.8845 63.9402 46.6538C58.8999 46.6542 53.8598 46.6547 48.8195 46.6534C48.7492 46.6534 48.6791 46.6311 48.6088 46.6191C47.0204 43.5794 45.4331 40.5389 43.8432 37.5C41.905 33.7954 39.9645 30.0919 38.0249 26.388C36.5617 23.5938 35.0969 20.8003 33.6362 18.0047C33.289 17.3402 32.9552 16.6685 32.6152 16.0001Z" fill="#F26522"/>
<path fill-rule="evenodd" clip-rule="evenodd" d="M16.0579 16.0001C16.069 16.0001 16.0801 16.0001 16.0911 16.0001C16.1726 16.0146 16.254 16.0415 16.3354 16.0416C21.2607 16.0436 26.1858 16.0431 31.111 16.0462C31.1954 16.0462 31.2795 16.0883 31.3637 16.1107C30.878 17.0413 30.3932 17.9725 29.9062 18.9026C27.7999 22.9252 25.6922 26.9471 23.5862 30.9699C21.6311 34.7041 19.6779 38.4396 17.7233 42.1742C16.9429 43.6651 16.1611 45.1553 15.38 46.6458C15.3247 46.6488 15.2695 46.6546 15.2143 46.6546C10.2312 46.6549 5.24816 46.6551 0.265103 46.6517C0.206159 46.6516 0.147323 46.6042 0.0883789 46.5789C2.57969 41.8237 5.07165 37.0688 7.5622 32.3132C10.232 27.2152 12.9009 22.1169 15.5677 17.0174C15.7421 16.6841 15.895 16.3395 16.0579 16.0001Z" fill="#F26522"/>
<path fill-rule="evenodd" clip-rule="evenodd" d="M16.5898 46.7206C16.5939 46.696 16.598 46.6715 16.6021 46.647C16.6519 46.6496 16.7015 46.6546 16.7513 46.6546C22.8672 46.655 28.9831 46.6548 35.099 46.6545C35.1543 46.6545 35.2097 46.6503 35.265 46.6478C35.2682 46.6721 35.2715 46.6962 35.2748 46.7205C29.0464 46.7206 22.8182 46.7206 16.5898 46.7206Z" fill="#F9A670"/>
<path fill-rule="evenodd" clip-rule="evenodd" d="M0.0327148 46.7206C0.0513059 46.6733 0.069897 46.6261 0.088488 46.5789C0.147433 46.6041 0.206268 46.6516 0.265212 46.6517C5.24827 46.6551 10.2313 46.6549 15.2144 46.6545C15.2696 46.6545 15.3247 46.6487 15.3801 46.6458C15.3732 46.6707 15.3665 46.6955 15.3597 46.7206C10.2507 46.7206 5.14175 46.7206 0.0327148 46.7206Z" fill="#F9A670"/>
<path fill-rule="evenodd" clip-rule="evenodd" d="M63.94 46.6538C63.949 46.676 63.958 46.6983 63.9671 46.7205C58.8471 46.7205 53.7269 46.7205 48.6069 46.7205C48.6075 46.6866 48.6081 46.6529 48.6087 46.6191C48.679 46.631 48.7491 46.6534 48.8194 46.6534C53.8596 46.6547 58.8997 46.6542 63.94 46.6538Z" fill="#F9A670"/>
<path fill-rule="evenodd" clip-rule="evenodd" d="M31.4183 16.0001C31.4002 16.037 31.382 16.0738 31.3639 16.1108C31.2796 16.0883 31.1956 16.0463 31.1112 16.0463C26.186 16.0431 21.2608 16.0436 16.3356 16.0417C16.2541 16.0417 16.1728 16.0147 16.0913 16.0002C21.2003 16.0001 26.3094 16.0001 31.4183 16.0001Z" fill="#F9A66F"/>
<path fill-rule="evenodd" clip-rule="evenodd" d="M47.8757 16.0001C47.8088 16.0146 47.742 16.0416 47.6752 16.0416C42.7442 16.0435 37.8132 16.0435 32.8823 16.0416C32.8154 16.0416 32.7485 16.0144 32.6816 16.0001C37.7463 16.0001 42.8109 16.0001 47.8757 16.0001Z" fill="#F9A66F"/>
<path fill-rule="evenodd" clip-rule="evenodd" d="M35.2649 46.648C35.2096 46.6503 35.1543 46.6547 35.0989 46.6547C28.983 46.655 22.867 46.6552 16.7512 46.6548C16.7015 46.6548 16.6518 46.6498 16.6021 46.6472C17.1034 45.6827 17.5965 44.7138 18.108 43.7548C18.7968 42.464 19.4349 41.1399 20.2111 39.9032C21.5268 37.8072 23.5166 36.5832 25.8449 35.8711C27.9334 35.2325 30.0848 35.0368 32.2555 35.0263C35.2198 35.012 38.1844 35.0239 41.1487 35.0199C41.3312 35.0196 41.3929 35.0222 41.2844 35.2278C39.2888 39.0095 37.3007 42.7953 35.3107 46.5801C35.2981 46.6041 35.2803 46.6255 35.2649 46.648Z" fill="#F26622"/>
</svg>
