<svg width="65" height="65" viewBox="0 0 65 65" fill="none" xmlns="http://www.w3.org/2000/svg">
<path d="M0.27391 44.16C0.27391 44.128 0.27391 44.096 0.27391 44.064C0.367073 43.9546 0.461516 43.8464 0.553398 43.736C2.52551 41.3638 4.49729 38.9917 6.46876 36.6192C8.38932 34.3082 10.3096 31.9971 12.2285 29.6845C12.2871 29.6141 12.3406 29.5958 12.4331 29.6154C13.2408 29.7859 14.0502 29.9488 14.8589 30.1152C17.4258 30.6432 19.9927 31.1718 22.5597 31.6998C24.9128 32.184 27.2658 32.6675 29.6189 33.1514C32.4519 33.7341 35.2849 34.3168 38.1179 34.8992C38.4137 34.96 38.7098 35.0182 39.0386 35.0842C36.747 28.5558 34.466 22.0573 32.1692 15.5155C30.4472 20.3866 28.7398 25.2163 27.0277 30.0592C23.6815 29.271 20.3471 28.4861 17.0035 27.6986C17.0253 27.6259 17.0378 27.5747 17.0554 27.5251C17.841 25.3024 18.628 23.08 19.413 20.857C20.4848 17.8208 21.5544 14.784 22.6263 11.7478C23.6754 8.776 24.7271 5.80512 25.773 2.832C25.8143 2.71456 25.8754 2.64928 25.9869 2.60256C27.7003 1.88448 29.4128 1.16416 31.1243 0.4416C31.4617 0.30016 31.794 0.14784 32.1286 0C32.1711 0 32.214 0 32.2566 0C32.2755 0.00896 32.2934 0.02272 32.3133 0.02624C33.1953 0.17792 34.0773 0.32896 34.9596 0.47968C36.7976 0.7936 38.6356 1.1072 40.4732 1.42144C42.3108 1.736 44.1485 2.0512 45.9861 2.36608C46.5038 2.45472 47.0215 2.54368 47.568 2.63744C47.4998 2.70208 47.4524 2.74944 47.4021 2.79424C45.197 4.76704 42.9921 6.74048 40.7847 8.71072C40.6992 8.78688 40.688 8.84704 40.7258 8.9536C41.5214 11.2067 42.3124 13.4614 43.1039 15.7158C44.1155 18.5981 45.1269 21.4803 46.1385 24.3629C47.2222 27.4509 48.3059 30.5392 49.3899 33.6272C49.5042 33.9526 49.6205 34.2771 49.7383 34.6093C49.786 34.5907 49.8205 34.5795 49.8532 34.5645C51.6864 33.7347 53.5195 32.9046 55.3527 32.0749C58.1264 30.8189 60.9002 29.5626 63.6746 28.3082C63.8712 28.2192 64.0738 28.1446 64.2739 28.0634C64.264 28.1043 64.2576 28.1462 64.2435 28.1856C63.9435 29.0336 63.6435 29.8816 63.342 30.729C62.3553 33.5021 61.3692 36.2749 60.3777 39.0464C60.3409 39.1498 60.2689 39.2554 60.184 39.3242C54.3871 44.0182 48.587 48.7088 42.7843 53.3962C42.7293 53.4406 42.6275 53.4621 42.5574 53.4477C41.2899 53.1843 40.024 52.9133 38.7579 52.6448C35.9646 52.0525 33.1713 51.4618 30.378 50.8685C26.9908 50.1491 23.6046 49.4275 20.2175 48.7082C16.5332 47.9258 12.849 47.145 9.16376 46.3667C9.09205 46.3517 9.00305 46.3578 8.93613 46.3866C7.72406 46.9101 6.51486 47.4403 5.30278 47.9638C5.19938 48.0086 5.16 48.056 5.16288 48.1738C5.18849 49.1491 5.20642 50.1248 5.22595 51.1002C5.28453 54.0266 5.3428 56.9533 5.40107 59.8797C5.40267 59.9667 5.40107 60.0538 5.40107 60.1411C5.41708 60.1424 5.4334 60.1437 5.44941 60.145C6.7793 56.3866 8.10919 52.6282 9.44005 48.8678C12.8355 49.6483 16.208 50.4237 19.5858 51.2003C19.5717 51.2458 19.5647 51.271 19.5564 51.2957C19.1424 52.4986 18.7301 53.7018 18.3104 54.9027C18.2819 54.9837 18.2102 55.0656 18.1365 55.1126C17.1089 55.7706 16.077 56.4227 15.0465 57.0762C11.5629 59.2854 8.07974 61.4944 4.5959 63.7034C4.51714 63.7533 4.43582 63.7997 4.34746 63.8525C4.3321 63.7997 4.31929 63.7645 4.31193 63.7283C4.02155 62.3146 3.73214 60.9008 3.44145 59.4874C2.90136 56.8586 2.35999 54.2298 1.8199 51.601C1.38802 49.4989 0.957744 47.3962 0.524585 45.2941C0.446469 44.9149 0.357148 44.5382 0.272949 44.1603L0.27391 44.16Z" fill="#0FC5BA"/>
<path d="M60.0135 64.4448C59.9658 64.4141 59.9203 64.3786 59.8701 64.3533C56.9334 62.89 53.9963 61.4272 51.059 59.9655C49.8286 59.3533 48.5974 58.7424 47.3651 58.1341C47.2636 58.0839 47.2018 58.0205 47.1615 57.9101C46.8113 56.9501 46.4562 55.992 46.0961 55.0359C46.0503 54.9143 46.0592 54.842 46.1646 54.7536C48.8362 52.5127 51.5043 50.2676 54.173 48.0234C54.2127 47.9901 54.254 47.9584 54.3085 47.9149C54.4554 48.3376 54.5969 48.744 54.7384 49.1508C55.7754 52.1316 56.8127 55.1127 57.8496 58.0935C58.5664 60.1543 59.2832 62.2154 59.9994 64.2765C60.0186 64.3316 60.0305 64.3888 60.0458 64.4452H60.0138L60.0135 64.4448Z" fill="#0FC5BA"/>
</svg>
