<svg width="64" height="64" viewBox="0 0 64 64" fill="none" xmlns="http://www.w3.org/2000/svg">
<path d="M21.5907 63.9821C17.4034 63.9821 13.217 63.9892 9.02976 63.9732C8.49896 63.9714 7.95832 63.8887 7.43916 63.7704C5.82708 63.404 5.0018 62.3529 5.00001 60.5761C4.99911 59.5729 5.11547 58.5689 5.2014 57.5676C5.48426 54.2959 5.77606 51.0251 6.06786 47.7542C6.38115 44.2326 6.6998 40.7119 7.01219 37.1903C7.32459 33.6687 7.62892 30.1462 7.94042 26.6246C8.22327 23.4276 8.51239 20.2306 8.79613 17.0327C9.07899 13.8499 9.35826 10.6671 9.63932 7.48436C9.76374 6.0695 9.86936 4.65285 10.0153 3.24065C10.1701 1.74397 11.3803 0.55143 13.0971 0.206384C13.6628 0.0925542 14.2482 0.0258572 14.8246 0.0240786C20.65 0.00718202 26.4762 0.0125178 32.3024 6.76699e-05C36.0502 -0.00793597 39.6628 0.693717 43.0454 2.2731C46.7717 4.01256 49.5564 6.74358 50.9581 10.6591C52.3133 14.4449 52.3437 18.1466 49.7059 21.1765C49.0435 21.9368 48.5006 22.3951 47.8194 23.1395C47.3253 23.6793 47.4041 24.1115 48.0638 24.4334C50.3356 25.5432 51.5086 26.8772 53.3212 28.6531C55.8722 31.1529 57.4002 34.1898 58.0984 37.6563C58.5495 39.8982 58.776 42.157 58.571 44.4487C58.1932 48.6836 56.5203 52.351 53.6524 55.4769C50.2644 59.1692 46.0172 61.4574 41.2302 62.8242C38.4231 63.6255 35.5561 64.0087 32.6336 63.9998C28.9529 63.9883 25.2732 63.9972 21.5925 63.9972C21.5925 63.9918 21.5925 63.9874 21.5925 63.9821H21.5907ZM23.6539 24.6139C23.2368 24.8238 22.8806 24.9946 22.5315 25.1813C18.5125 27.3307 15.1702 30.1951 12.9449 34.2165C11.1341 37.49 10.3706 40.9876 10.9256 44.7031C11.5718 49.0304 13.7031 52.5538 17.2647 55.0785C22.9835 59.1319 29.3817 60.3715 36.2355 58.9291C40.8488 57.9589 44.7515 55.669 47.6982 51.957C51.0709 47.708 51.992 42.9005 50.6511 37.6892C49.8661 34.6363 47.9273 32.309 45.5634 30.2983C43.5986 28.6273 41.419 27.2622 39.2421 25.8918C38.2736 25.2827 37.3025 24.678 36.342 24.0555C35.6573 23.6117 35.6689 22.9759 36.3492 22.5445C36.5246 22.4334 36.7054 22.3293 36.8791 22.2155C38.6917 21.0247 40.5633 19.9122 42.3016 18.6228C45.0138 16.613 45.7075 13.6071 44.2717 10.5631C43.2638 8.42701 41.6392 6.83696 39.5715 5.72623C36.3143 3.97699 32.8126 3.2033 29.115 3.4114C27.0025 3.53056 24.8945 3.752 22.9065 4.54969C20.2418 5.61862 17.9987 7.22469 16.5441 9.7485C15.5175 11.5306 15.2892 13.3999 16.1763 15.3164C16.69 16.4271 17.4607 17.3635 18.4489 18.0723C20.6813 19.6739 22.9459 21.2302 25.2123 22.7847C28.7775 25.2293 32.3866 27.6135 35.915 30.1089C37.8932 31.5077 39.7264 33.1058 41.2024 35.0525C43.3372 37.8689 43.3802 41.4732 41.2328 44.2842C38.9745 47.2402 35.8184 48.5679 32.1977 48.969C30.5024 49.1567 28.8482 48.9094 27.195 48.5439C24.4891 47.9472 22.2289 46.6391 20.547 44.4452C18.9466 42.358 18.414 40.0503 19.3655 37.5158C19.6 36.8906 19.8668 36.7652 20.4978 36.9716C21.699 37.3646 22.8985 37.7648 24.0997 38.1597C24.5114 38.2948 24.9259 38.422 25.4065 38.575C23.8947 34.0049 23.1106 29.4303 23.6539 24.6139Z" fill="white"/>
<path d="M22.3958 62.1009C18.4804 62.1009 14.5659 62.1076 10.6504 62.0926C10.1541 62.0909 9.64856 62.0131 9.16311 61.9017C7.6557 61.5569 6.884 60.5676 6.88233 58.8953C6.88149 57.9512 6.9903 57.0062 7.07065 56.0638C7.33514 52.9845 7.60799 49.9061 7.88085 46.8276C8.1738 43.5132 8.47176 40.1996 8.76387 36.8851C9.05598 33.5706 9.34055 30.2553 9.63182 26.9409C9.89631 23.9319 10.1667 20.923 10.432 17.9132C10.6965 14.9176 10.9576 11.922 11.2204 8.92645C11.3368 7.59481 11.4355 6.26149 11.572 4.93236C11.7168 3.52372 12.8484 2.40132 14.4537 2.07657C14.9827 1.96943 15.5301 1.90666 16.0691 1.90499C21.5162 1.88908 26.9641 1.89411 32.412 1.88239C35.9165 1.87486 39.2946 2.53524 42.4575 4.02172C45.9419 5.65886 48.5458 8.22924 49.8565 11.9145C51.1237 15.4775 50.4214 18.7108 47.9549 21.5624C47.3355 22.278 46.6784 22.9602 46.0415 23.6607C45.5795 24.1688 45.6531 24.5756 46.27 24.8785C48.3943 25.9231 50.3712 27.1786 52.0661 28.85C54.4515 31.2028 55.8803 34.0611 56.5331 37.3237C56.955 39.4337 57.1667 41.5597 56.975 43.7166C56.6218 47.7023 55.0575 51.154 52.3758 54.096C49.2078 57.5712 45.2363 59.7247 40.7601 61.0112C38.1353 61.7653 35.4545 62.126 32.7217 62.1177C29.28 62.1068 25.8392 62.1152 22.3975 62.1152C22.3975 62.1101 22.3975 62.106 22.3975 62.1009H22.3958ZM24.3251 25.0485C23.9351 25.246 23.6019 25.4067 23.2755 25.5825C19.5175 27.6054 16.3922 30.3014 14.3114 34.0862C12.6182 37.1672 11.9042 40.459 12.4232 43.9559C13.0275 48.0287 15.0203 51.3448 18.3507 53.721C23.6982 57.536 29.681 58.7028 36.0898 57.3452C40.4036 56.432 44.0528 54.2768 46.8082 50.7832C49.9619 46.7841 50.8232 42.2594 49.5694 37.3546C48.8354 34.4813 47.0225 32.2909 44.812 30.3985C42.9748 28.8258 40.9367 27.541 38.9012 26.2512C37.9956 25.6779 37.0874 25.1087 36.1894 24.5228C35.5491 24.1052 35.5599 23.5067 36.1961 23.1008C36.3601 22.9962 36.5292 22.8982 36.6915 22.7911C38.3864 21.6704 40.1366 20.6233 41.762 19.4097C44.2981 17.5181 44.9467 14.6891 43.6042 11.8241C42.6618 9.81366 41.1426 8.31713 39.2092 7.27173C36.1634 5.62538 32.8891 4.89721 29.4315 5.09306C27.4563 5.20522 25.4852 5.41363 23.6262 6.1644C21.1345 7.17046 19.037 8.68205 17.6769 11.0574C16.7169 12.7347 16.5035 14.4941 17.3329 16.2978C17.8134 17.3432 18.534 18.2245 19.458 18.8916C21.5455 20.399 23.663 21.8637 25.7823 23.3268C29.116 25.6276 32.4907 27.8716 35.7901 30.2202C37.6399 31.5368 39.354 33.0408 40.7342 34.873C42.7304 37.5237 42.7706 40.916 40.7626 43.5617C38.6509 46.3439 35.6997 47.5935 32.3141 47.971C30.7289 48.1476 29.1821 47.9149 27.6362 47.5709C25.106 47.0093 22.9926 45.7781 21.4199 43.7132C19.9234 41.7488 19.4254 39.5768 20.3151 37.1914C20.5344 36.603 20.7838 36.485 21.3739 36.6792C22.4971 37.0491 23.6187 37.4258 24.7419 37.7974C25.1269 37.9246 25.5144 38.0443 25.9639 38.1883C24.5502 33.887 23.8162 29.5816 24.3243 25.0485H24.3251Z" fill="black"/>
<path d="M24.3257 25.0493C23.8176 29.5824 24.5516 33.8887 25.9653 38.1891C25.5158 38.046 25.1283 37.9263 24.7433 37.7982C23.6201 37.4266 22.4993 37.05 21.3753 36.68C20.7852 36.4858 20.5358 36.6039 20.3165 37.1923C19.4268 39.5777 19.9248 41.7505 21.4213 43.714C22.994 45.7789 25.1074 47.0093 27.6376 47.5717C29.1835 47.9149 30.7303 48.1475 32.3155 47.9718C35.7011 47.5943 38.6532 46.3447 40.764 43.5625C42.772 40.9177 42.7326 37.5245 40.7356 34.8738C39.3554 33.0416 37.6421 31.5376 35.7915 30.221C32.4921 27.8724 29.1174 25.6285 25.7837 23.3276C23.6644 21.8654 21.5469 20.3998 19.4594 18.8924C18.5362 18.2253 17.8156 17.3448 17.3343 16.2986C16.5049 14.4949 16.7183 12.7347 17.6783 11.0582C19.0384 8.68288 21.1351 7.17128 23.6276 6.16523C25.4865 5.41445 27.4576 5.20604 29.4329 5.09389C32.8905 4.89803 36.1656 5.62621 39.2106 7.27256C41.1449 8.31795 42.664 9.81448 43.6056 11.8249C44.9481 14.6899 44.2995 17.5189 41.7634 19.4105C40.1371 20.6233 38.3878 21.6712 36.6929 22.7919C36.5306 22.8991 36.3615 22.997 36.1974 23.1016C35.5605 23.5076 35.5505 24.106 36.1907 24.5237C37.088 25.1095 37.997 25.6787 38.9026 26.252C40.9381 27.541 42.9762 28.8266 44.8134 30.3993C47.0247 32.2917 48.8368 34.4821 49.5708 37.3555C50.8246 42.2602 49.9633 46.7849 46.8096 50.7841C44.0542 54.2785 40.4041 56.4329 36.0911 57.346C29.6824 58.7036 23.6996 57.5368 18.3521 53.7219C15.0209 51.3457 13.0289 48.0295 12.4246 43.9568C11.9056 40.4598 12.6196 37.168 14.3128 34.087C16.3927 30.3022 19.5188 27.6063 23.2769 25.5833C23.6025 25.4075 23.9365 25.2476 24.3265 25.0493H24.3257ZM30.5168 6.99719C30.0657 7.05578 29.299 7.10935 28.5524 7.26084C26.9303 7.58894 25.4355 8.21333 24.2486 9.41105C22.8777 10.7946 22.7906 12.4711 24.0068 13.9902C24.3257 14.3886 24.6939 14.7669 25.1015 15.0707C26.6416 16.2183 28.2093 17.3281 29.7619 18.4597C30.1728 18.7593 30.5729 18.7694 31.0031 18.5108C32.2184 17.7792 33.4613 17.0904 34.6482 16.3145C35.5287 15.7378 36.4067 15.1243 37.1633 14.3986C38.5151 13.1013 38.582 11.6533 37.4889 10.1267C37.2872 9.84461 37.0637 9.57427 36.8202 9.32735C35.173 7.65924 33.1039 7.07084 30.5185 6.99719H30.5168Z" fill="white"/>
<path d="M30.5169 6.99713C33.1024 7.07079 35.1714 7.65919 36.8186 9.3273C37.0622 9.57337 37.2856 9.84455 37.4874 10.1266C38.5805 11.6524 38.5135 13.1013 37.1618 14.3986C36.406 15.1243 35.528 15.7386 34.6466 16.3144C33.4606 17.0903 32.2177 17.7792 31.0016 18.5107C30.5722 18.7693 30.1713 18.7593 29.7603 18.4596C28.2077 17.328 26.64 16.2182 25.1 15.0707C24.6924 14.7669 24.3241 14.3885 24.0052 13.9901C22.7891 12.471 22.8769 10.7937 24.2471 9.411C25.4339 8.21327 26.9288 7.58888 28.5509 7.26078C29.2975 7.11012 30.0641 7.05572 30.5153 6.99713H30.5169Z" fill="black"/>
</svg>
