<svg width="65" height="64" viewBox="0 0 65 64" fill="none" xmlns="http://www.w3.org/2000/svg">
<path d="M64.4216 49.3513C63.5822 49.491 62.7414 49.6249 61.9033 49.7716C58.8096 50.3131 55.7158 50.8584 52.6227 51.4037C49.5502 51.9452 46.4776 52.4886 43.405 53.0313C40.4478 53.5536 37.4899 54.0752 34.5326 54.5961C34.5019 54.6013 34.4692 54.5968 34.416 54.5968V8.67915C44.413 6.91634 54.4176 5.15289 64.4216 3.38879V20.9291C63.3572 22.2068 62.2922 23.4839 61.2292 24.7629C60.5685 25.5582 59.9111 26.3553 59.2261 27.1832C59.2998 27.2396 59.3613 27.2812 59.4177 27.3299C60.6268 28.361 61.8334 29.3952 63.0452 30.4237C63.4982 30.8081 63.9621 31.1792 64.4209 31.5566V49.3526L64.4216 49.3513ZM43.1935 44.3108C47.3587 43.5765 51.4866 42.8486 55.6165 42.12C55.6242 42.0264 55.6338 41.9636 55.6338 41.9008C55.6345 39.6606 55.6383 37.4204 55.6248 35.1802C55.6242 35.038 55.5217 34.8573 55.4095 34.7612C53.1616 32.8273 50.9054 30.9036 48.6511 28.9774C48.143 28.5436 47.6368 28.1072 47.1209 27.6644C47.1927 27.5734 47.244 27.5068 47.2972 27.4421C50.0179 24.1561 52.74 20.8714 55.4537 17.5791C55.5569 17.4535 55.6236 17.2593 55.6261 17.0959C55.6415 16.0719 55.6345 15.0479 55.6332 14.0233C55.6332 13.9221 55.6236 13.8202 55.6178 13.6972C51.4571 14.4309 47.3298 15.1582 43.1929 15.8874V44.3108H43.1935Z" fill="#FE4655"/>
<path d="M0.421387 60.6106V14.6744C10.4203 12.9115 20.4082 11.1507 30.4327 9.38336V9.76848C30.4327 15.3799 30.4346 20.9906 30.4244 26.602C30.4244 26.7833 30.3456 26.9999 30.2302 27.1403C28.6545 29.062 27.066 30.9728 25.4813 32.8868C25.4141 32.9682 25.35 33.0515 25.2622 33.1624C25.5192 33.386 25.7639 33.6026 26.0119 33.8147C27.4063 35.0066 28.8 36.1997 30.2001 37.3852C30.3699 37.5287 30.4379 37.6742 30.4379 37.8991C30.4314 43.5957 30.4308 49.2923 30.4391 54.9883C30.4391 55.26 30.3622 55.3382 30.0963 55.3849C25.6787 56.1552 21.2643 56.9414 16.8486 57.72C12.2016 58.5395 7.55401 59.3553 2.90637 60.1729C2.08872 60.3171 1.27107 60.4613 0.422028 60.6112L0.421387 60.6106ZM9.19378 50.308C13.3794 49.5698 17.5061 48.8425 21.6309 48.1152C21.6392 48.0389 21.6482 47.9973 21.6482 47.9556C21.6488 45.6834 21.652 43.4112 21.6405 41.1396C21.6405 41.0165 21.5463 40.8608 21.4482 40.7762C19.2407 38.8776 17.0261 36.9873 14.8135 35.095C14.256 34.6183 13.6992 34.1402 13.1385 33.659C13.2327 33.5392 13.3025 33.4456 13.3775 33.3559C16.0714 30.1033 18.7672 26.8525 21.454 23.5941C21.5636 23.4608 21.636 23.2577 21.6411 23.0847C21.6622 22.4029 21.6501 21.7198 21.6501 21.0367C21.6501 20.6016 21.6501 20.1666 21.6501 19.693C20.9221 19.8186 20.2314 19.9346 19.5419 20.0563C16.2181 20.6433 12.8963 21.238 9.56993 21.8115C9.25658 21.8653 9.18738 21.9742 9.18738 22.276C9.19571 31.4925 9.19442 40.709 9.19442 49.9254V50.3073L9.19378 50.308Z" fill="#FE4655"/>
</svg>
