<svg width="64" height="64" viewBox="0 0 64 64" fill="none" xmlns="http://www.w3.org/2000/svg">
<g clip-path="url(#clip0_1547_6532)">
<path d="M31.8816 10.002C27.3506 10.016 23.0106 12.578 20.9406 16.947C18.0716 23.005 20.6556 30.243 26.7136 33.114C27.5986 33.533 28.5076 33.832 29.4256 34.026L32.7626 26.981C31.7926 27.152 30.7636 27.039 29.8066 26.586C27.3536 25.424 26.3076 22.493 27.4686 20.041C28.6316 17.588 31.5626 16.541 34.0146 17.703C36.4516 18.858 37.4976 21.757 36.3716 24.2L30.2596 37.099L16.6586 30.657C10.7476 28.28 3.93463 30.89 1.17163 36.724C-1.69837 42.782 0.885634 50.021 6.94263 52.891C13.0026 55.761 20.2396 53.177 23.1106 47.118C23.5296 46.233 23.8296 45.324 24.0216 44.407L16.9766 41.069C17.1486 42.038 17.0356 43.068 16.5816 44.026C15.4186 46.479 12.4886 47.525 10.0366 46.363C7.58263 45.2 6.53663 42.27 7.69863 39.817C8.85263 37.38 11.7526 36.335 14.1946 37.46L27.1746 43.609L27.1716 43.614L33.6826 46.698V46.697L47.3386 53.166C53.2496 55.543 60.0636 52.932 62.8256 47.099C63.6146 45.434 63.9916 43.681 63.9976 41.953V41.864C63.9806 37.336 61.4196 33 57.0536 30.931C50.9946 28.061 43.7566 30.645 40.8866 36.704C40.4686 37.588 40.1686 38.498 39.9766 39.415L47.0206 42.753C46.8486 41.783 46.9616 40.754 47.4166 39.796C48.5786 37.343 51.5086 36.296 53.9616 37.459C56.4146 38.621 57.4616 41.552 56.2996 44.004C55.1446 46.441 52.2456 47.487 49.8026 46.361L36.7946 40.198L36.7966 40.193L36.7696 40.18L43.1736 26.658C45.5506 20.747 42.9406 13.935 37.1066 11.172C35.4406 10.382 33.6846 10.005 31.9556 10H31.8816V10.002Z" fill="#1289CE"/>
<path d="M31.8816 10.002C27.3506 10.016 23.0106 12.578 20.9406 16.947C18.0716 23.005 20.6556 30.243 26.7136 33.114C27.5986 33.533 28.5076 33.832 29.4256 34.026L32.7626 26.981C31.7926 27.152 30.7636 27.039 29.8066 26.586C27.3536 25.424 26.3076 22.493 27.4686 20.041C28.6316 17.588 31.5626 16.541 34.0146 17.703C36.4516 18.858 37.4976 21.757 36.3716 24.2L30.2596 37.099L16.6586 30.657C10.7476 28.28 3.93463 30.89 1.17163 36.724C-1.69837 42.782 0.885634 50.021 6.94263 52.891C13.0026 55.761 20.2396 53.177 23.1106 47.118C23.5296 46.233 23.8296 45.324 24.0216 44.407L16.9766 41.069C17.1486 42.038 17.0356 43.068 16.5816 44.026C15.4186 46.479 12.4886 47.525 10.0366 46.363C7.58263 45.2 6.53663 42.27 7.69863 39.817C8.85263 37.38 11.7526 36.335 14.1946 37.46L27.1746 43.609L27.1716 43.614L33.6826 46.698V46.697L47.3386 53.166C53.2496 55.543 60.0636 52.932 62.8256 47.099C63.6146 45.434 63.9916 43.681 63.9976 41.953V41.864C63.9806 37.336 61.4196 33 57.0536 30.931C50.9946 28.061 43.7566 30.645 40.8866 36.704C40.4686 37.588 40.1686 38.498 39.9766 39.415L47.0206 42.753C46.8486 41.783 46.9616 40.754 47.4166 39.796C48.5786 37.343 51.5086 36.296 53.9616 37.459C56.4146 38.621 57.4616 41.552 56.2996 44.004C55.1446 46.441 52.2456 47.487 49.8026 46.361L36.7946 40.198L36.7966 40.193L36.7696 40.18L43.1736 26.658C45.5506 20.747 42.9406 13.935 37.1066 11.172C35.4406 10.382 33.6846 10.005 31.9556 10H31.8816V10.002Z" fill="url(#paint0_linear_1547_6532)"/>
</g>
<defs>
<linearGradient id="paint0_linear_1547_6532" x1="63.75" y1="42" x2="-0.249998" y2="41.5" gradientUnits="userSpaceOnUse">
<stop stop-color="#007ED5"/>
<stop offset="1" stop-color="#00A7EB"/>
</linearGradient>
<clipPath id="clip0_1547_6532">
<rect width="64" height="64" fill="white"/>
</clipPath>
</defs>
</svg>
