<svg width="1152" height="1474" viewBox="0 0 1152 1474" fill="none" xmlns="http://www.w3.org/2000/svg">
<path d="M983.73 1187.33C935.191 1187.33 912.539 1170.65 893.124 1156.35C876.944 1144.43 867.236 1139.67 847.82 1139.67C825.169 1139.67 815.461 1146.82 802.517 1156.35C783.101 1168.27 757.213 1187.33 711.91 1187.33C663.371 1187.33 640.719 1170.65 621.303 1156.35C605.124 1144.43 595.416 1139.67 576 1139.67C553.348 1139.67 543.64 1146.82 530.697 1156.35C511.281 1168.27 485.393 1187.33 440.09 1187.33C391.551 1187.33 368.899 1170.65 349.483 1156.35C333.303 1144.43 323.595 1139.67 304.18 1139.67C281.528 1139.67 271.82 1146.82 258.876 1156.35C239.461 1168.27 213.573 1187.33 168.27 1187.33C119.73 1187.33 97.0786 1170.65 77.6629 1156.35C61.4831 1144.43 51.7753 1139.67 32.3595 1139.67C12.9438 1139.67 0 1130.13 0 1115.83C0 1101.53 12.9438 1092 32.3595 1092C80.8989 1092 103.551 1108.68 122.966 1122.98C139.146 1134.9 148.854 1139.67 168.27 1139.67C187.685 1139.67 200.629 1132.52 213.573 1122.98C232.989 1111.07 258.876 1092 304.18 1092C349.483 1092 375.371 1108.68 394.787 1122.98C410.966 1134.9 420.674 1139.67 440.09 1139.67C462.742 1139.67 472.449 1132.52 485.393 1122.98C504.809 1111.07 530.697 1092 576 1092C624.539 1092 647.191 1108.68 666.607 1122.98C682.787 1134.9 692.494 1139.67 711.91 1139.67C734.562 1139.67 744.27 1132.52 757.213 1122.98C776.629 1111.07 802.517 1092 847.82 1092C896.36 1092 919.011 1108.68 938.427 1122.98C954.607 1134.9 964.315 1139.67 983.73 1139.67C1006.38 1139.67 1016.09 1132.52 1029.03 1122.98C1048.45 1111.07 1074.34 1092 1119.64 1092C1139.06 1092 1152 1101.53 1152 1115.83C1152 1130.13 1139.06 1139.67 1119.64 1139.67C1096.99 1139.67 1087.28 1146.82 1074.34 1156.35C1054.92 1170.65 1029.03 1187.33 983.73 1187.33Z" fill="white"/>
<path d="M983.73 1282.67C935.191 1282.67 912.539 1265.98 893.124 1251.68C876.944 1239.77 867.236 1235 847.82 1235C825.169 1235 815.461 1242.15 802.517 1251.68C783.101 1263.6 757.213 1282.67 711.91 1282.67C663.371 1282.67 640.719 1265.98 621.303 1251.68C605.124 1239.77 595.416 1235 576 1235C553.348 1235 543.64 1242.15 530.697 1251.68C511.281 1263.6 485.393 1282.67 440.09 1282.67C391.551 1282.67 368.899 1265.98 349.483 1251.68C333.303 1239.77 323.595 1235 304.18 1235C281.528 1235 271.82 1242.15 258.876 1251.68C239.461 1263.6 213.573 1282.67 168.27 1282.67C119.73 1282.67 97.0786 1265.98 77.6629 1251.68C61.4831 1239.77 51.7753 1235 32.3595 1235C12.9438 1235 0 1225.47 0 1211.17C0 1196.87 12.9438 1187.33 32.3595 1187.33C80.8989 1187.33 103.551 1204.02 122.966 1218.32C139.146 1230.23 148.854 1235 168.27 1235C187.685 1235 200.629 1227.85 213.573 1218.32C232.989 1206.4 258.876 1187.33 304.18 1187.33C349.483 1187.33 375.371 1204.02 394.787 1218.32C410.966 1230.23 420.674 1235 440.09 1235C462.742 1235 472.449 1227.85 485.393 1218.32C504.809 1206.4 530.697 1187.33 576 1187.33C624.539 1187.33 647.191 1204.02 666.607 1218.32C682.787 1230.23 692.494 1235 711.91 1235C734.562 1235 744.27 1227.85 757.213 1218.32C776.629 1206.4 802.517 1187.33 847.82 1187.33C896.36 1187.33 919.011 1204.02 938.427 1218.32C954.607 1230.23 964.315 1235 983.73 1235C1006.38 1235 1016.09 1227.85 1029.03 1218.32C1048.45 1206.4 1074.34 1187.33 1119.64 1187.33C1139.06 1187.33 1152 1196.87 1152 1211.17C1152 1225.47 1139.06 1235 1119.64 1235C1096.99 1235 1087.28 1242.15 1074.34 1251.68C1054.92 1265.98 1029.03 1282.67 983.73 1282.67Z" fill="white"/>
<path d="M983.73 1378C935.191 1378 912.539 1361.32 893.124 1347.02C876.944 1335.1 867.236 1330.33 847.82 1330.33C825.169 1330.33 815.461 1337.48 802.517 1347.02C783.101 1358.93 757.213 1378 711.91 1378C663.371 1378 640.719 1361.32 621.303 1347.02C605.124 1335.1 595.416 1330.33 576 1330.33C553.348 1330.33 543.64 1337.48 530.697 1347.02C511.281 1358.93 485.393 1378 440.09 1378C391.551 1378 368.899 1361.32 349.483 1347.02C333.303 1335.1 323.595 1330.33 304.18 1330.33C281.528 1330.33 271.82 1337.48 258.876 1347.02C239.461 1358.93 213.573 1378 168.27 1378C119.73 1378 97.0786 1361.32 77.6629 1347.02C61.4831 1335.1 51.7753 1330.33 32.3595 1330.33C12.9438 1330.33 0 1320.8 0 1306.5C0 1292.2 12.9438 1282.67 32.3595 1282.67C80.8989 1282.67 103.551 1299.35 122.966 1313.65C139.146 1325.57 148.854 1330.33 168.27 1330.33C187.685 1330.33 200.629 1323.18 213.573 1313.65C232.989 1301.73 258.876 1282.67 304.18 1282.67C349.483 1282.67 375.371 1299.35 394.787 1313.65C410.966 1325.57 420.674 1330.33 440.09 1330.33C462.742 1330.33 472.449 1323.18 485.393 1313.65C504.809 1301.73 530.697 1282.67 576 1282.67C624.539 1282.67 647.191 1299.35 666.607 1313.65C682.787 1325.57 692.494 1330.33 711.91 1330.33C734.562 1330.33 744.27 1323.18 757.213 1313.65C776.629 1301.73 802.517 1282.67 847.82 1282.67C896.36 1282.67 919.011 1299.35 938.427 1313.65C954.607 1325.57 964.315 1330.33 983.73 1330.33C1006.38 1330.33 1016.09 1323.18 1029.03 1313.65C1048.45 1301.73 1074.34 1282.67 1119.64 1282.67C1139.06 1282.67 1152 1292.2 1152 1306.5C1152 1320.8 1139.06 1330.33 1119.64 1330.33C1096.99 1330.33 1087.28 1337.48 1074.34 1347.02C1054.92 1361.32 1029.03 1378 983.73 1378Z" fill="white"/>
<path d="M983.73 1473.33C935.191 1473.33 912.539 1456.65 893.124 1442.35C876.944 1430.43 867.236 1425.67 847.82 1425.67C825.169 1425.67 815.461 1432.82 802.517 1442.35C783.101 1454.27 757.213 1473.33 711.91 1473.33C663.371 1473.33 640.719 1456.65 621.303 1442.35C605.124 1430.43 595.416 1425.67 576 1425.67C553.348 1425.67 543.64 1432.82 530.697 1442.35C511.281 1454.27 485.393 1473.33 440.09 1473.33C391.551 1473.33 368.899 1456.65 349.483 1442.35C333.303 1430.43 323.595 1425.67 304.18 1425.67C281.528 1425.67 271.82 1432.82 258.876 1442.35C239.461 1454.27 213.573 1473.33 168.27 1473.33C119.73 1473.33 97.0786 1456.65 77.6629 1442.35C61.4831 1430.43 51.7753 1425.67 32.3595 1425.67C12.9438 1425.67 0 1416.13 0 1401.83C0 1387.53 12.9438 1378 32.3595 1378C80.8989 1378 103.551 1394.68 122.966 1408.98C139.146 1420.9 148.854 1425.67 168.27 1425.67C187.685 1425.67 200.629 1418.52 213.573 1408.98C232.989 1397.07 258.876 1378 304.18 1378C349.483 1378 375.371 1394.68 394.787 1408.98C410.966 1420.9 420.674 1425.67 440.09 1425.67C462.742 1425.67 472.449 1418.52 485.393 1408.98C504.809 1397.07 530.697 1378 576 1378C624.539 1378 647.191 1394.68 666.607 1408.98C682.787 1420.9 692.494 1425.67 711.91 1425.67C734.562 1425.67 744.27 1418.52 757.213 1408.98C776.629 1397.07 802.517 1378 847.82 1378C896.36 1378 919.011 1394.68 938.427 1408.98C954.607 1420.9 964.315 1425.67 983.73 1425.67C1006.38 1425.67 1016.09 1418.52 1029.03 1408.98C1048.45 1397.07 1074.34 1378 1119.64 1378C1139.06 1378 1152 1387.53 1152 1401.83C1152 1416.13 1139.06 1425.67 1119.64 1425.67C1096.99 1425.67 1087.28 1432.82 1074.34 1442.35C1054.92 1456.65 1029.03 1473.33 983.73 1473.33Z" fill="white"/>
<path fill-rule="evenodd" clip-rule="evenodd" d="M802.185 515.005C885.623 492.648 935.139 406.884 912.782 323.446C900.389 277.196 868.514 241.369 828.353 222.428C893.886 226.187 952.529 271.269 970.446 338.138C992.803 421.576 943.288 507.34 859.85 529.697C822.662 539.661 785.012 535.349 752.719 520.119C768.957 521.05 785.617 519.445 802.185 515.005Z" fill="white"/>
<path d="M257.854 208.024L289.791 319.931L402.673 291.635L321.727 375.247L402.673 458.858L289.791 430.563L257.854 542.47L225.917 430.563L113.034 458.858L193.98 375.247L113.034 291.635L225.917 319.931L257.854 208.024Z" fill="white"/>
<path fill-rule="evenodd" clip-rule="evenodd" d="M573.5 0H587L605.471 3.49445C617.728 5.81329 630.297 5.9505 642.602 3.89978L666 0L651 20.5L666 40L638.965 44.1066C630.702 45.3617 622.298 45.3617 614.035 44.1066L587.732 40.1113L597.114 66.0905V97.5439L611.916 107.72V133.16L603.59 141.486V167.158H609.834L624.404 181.728V204.393L611.916 216.882V272.85L639.206 290.427V312.629L629.955 321.88V420.866L639.206 430.117V447.231H655.858V467.815H664.878L649.845 482.847V607.736H673.897L655.858 625.775V732.162H674.36L666.959 739.562H793.235L932 906.543V921.344L842.266 921.344L652.62 776.104V795.993L816.825 921.344H343.638L507.842 795.993V776.104L318.197 921.344L228.926 921.344V932.445H228V906.543L366.765 739.562H493.041L485.64 732.162H504.142V625.775L486.103 607.736H510.155V482.847L495.122 467.815H504.142V447.231H520.794V430.117L530.045 420.866V321.88L520.794 312.629V290.427L548.084 272.85V216.882L535.596 204.393V181.728L550.166 167.158H556.41V141.486L548.084 133.16V107.72L562.886 97.5439V66.0905L573.5 36.6974V0ZM240.026 932.445V956.035H228V982.401H242.802V1135L288.593 1139.44V1013.39C288.593 1001.64 298.119 992.114 309.87 992.114C321.621 992.114 331.147 1001.64 331.147 1013.39V1143.57L388.505 1149.14V1013.39C388.505 1001.64 398.03 992.114 409.782 992.114C421.533 992.114 431.059 1001.64 431.059 1013.39V1150.63L580 1135L726.166 1150.53V1013.39C726.166 1001.64 735.692 992.114 747.443 992.114C759.194 992.114 768.721 1001.64 768.721 1013.39V1143.57L826.076 1126.74V1013.39C826.076 1001.64 835.603 992.114 847.354 992.114C859.104 992.114 868.631 1001.64 868.631 1013.39V1131.88L917.198 1141V982.401H932V956.035H919.974V932.445H240.026ZM578.613 992.114C566.861 992.114 557.336 1001.64 557.336 1013.39V1100.81H578.613H599.89V1013.39C599.89 1001.64 590.364 992.114 578.613 992.114ZM507.842 1138.28V1004.14C507.842 992.389 500.801 986.564 492.115 986.564C483.43 986.564 476.389 992.389 476.389 1004.14V1138.28H507.842ZM680.837 1004.14V1138.28H649.383V1004.14C649.383 992.389 656.425 986.564 665.11 986.564C673.796 986.564 680.837 992.389 680.837 1004.14ZM599.89 839.473V795.993C599.89 784.242 590.363 774.716 578.612 774.716C566.861 774.716 557.335 784.242 557.335 795.993V839.473H599.89ZM599.89 681.281V724.761H557.335V681.281C557.335 669.53 566.861 660.004 578.612 660.004C590.363 660.004 599.89 669.53 599.89 681.281ZM590.044 574.201V529.003C590.044 522.288 585.129 516.845 578.414 516.845C571.699 516.845 566.256 522.288 566.256 529.003V574.201H590.044ZM635.373 529.003V574.201H611.584V529.003C611.584 522.288 617.028 516.845 623.743 516.845C630.458 516.845 635.373 522.288 635.373 529.003ZM544.714 574.201V529.003C544.714 522.288 539.799 516.845 533.084 516.845C526.369 516.845 520.926 522.288 520.926 529.003V574.201H544.714ZM559.746 353.234V406.527L537.809 417.628V353.234C537.809 346.52 542.326 342.001 549.041 342.001C555.757 342.001 559.746 346.52 559.746 353.234ZM590.969 391.725V338.433C590.969 331.718 586.979 327.2 580.264 327.2C573.549 327.2 569.03 331.718 569.03 338.433V402.826L590.969 391.725ZM621.265 325.25V378.543L599.327 389.644V325.25C599.327 318.535 603.846 314.017 610.561 314.017C617.275 314.017 621.265 318.535 621.265 325.25ZM604.93 246.135V212.442C604.93 209.013 602.893 206.706 599.463 206.706C596.034 206.706 593.727 209.013 593.727 212.442V251.804L604.93 246.135ZM585.073 220.43V255.723L573.972 261.341V220.43C573.972 217.032 576.259 214.746 579.656 214.746C583.055 214.746 585.073 217.032 585.073 220.43ZM565.43 266.423V233.557C565.43 229.882 563.246 227.41 559.571 227.41C555.896 227.41 553.424 229.882 553.424 233.557V272.498L565.43 266.423Z" fill="white"/>
</svg>
