<svg width="65" height="64" viewBox="0 0 65 64" fill="none" xmlns="http://www.w3.org/2000/svg">
<path d="M51.3665 45.1425C55.7784 40.7289 60.1687 36.3387 64.519 31.99C59.939 27.41 55.3424 22.8134 50.7574 18.2267C50.7574 18.2617 50.7574 18.3333 50.7574 18.4065C50.7674 19.5432 50.7807 20.6815 50.7857 21.8182C50.7924 23.2411 50.7957 24.6657 50.794 26.0886C50.794 26.2467 50.8357 26.3582 50.9488 26.4714C52.7312 28.2455 54.507 30.0262 56.286 31.8036C56.341 31.8585 56.3926 31.9151 56.4325 31.9567C54.745 33.6459 53.0707 35.3185 51.3998 36.991C48.2528 33.844 45.0924 30.6836 41.9037 27.4932C38.725 30.6819 35.5696 33.8473 32.4358 36.9894C30.7466 35.2985 29.0691 33.6226 27.3882 31.9401C27.4065 31.9201 27.4398 31.8802 27.4764 31.8419C28.7279 30.5904 29.9794 29.3389 31.2309 28.0874C34.6609 24.6574 38.0892 21.229 41.5159 17.7957C41.5858 17.7258 41.6374 17.606 41.6424 17.5078C41.6624 17.1167 41.6657 16.7239 41.6674 16.3312C41.6723 15.4125 41.6723 14.4955 41.679 13.5769C41.6873 12.4468 41.699 11.3152 41.709 10.1851C41.7106 9.96878 41.709 9.75077 41.709 9.54773C34.2232 17.0351 26.7408 24.5159 19.27 31.9883C23.6353 36.3536 28.0272 40.7472 32.4441 45.1641C35.5929 42.0137 38.7533 38.855 41.9303 35.678C45.084 38.8383 48.2394 42.0021 51.3699 45.1408L51.3665 45.1425Z" fill="white"/>
<path d="M0.568848 31.9601C0.623768 31.9151 0.68368 31.8768 0.733607 31.8269C11.2866 21.274 21.8395 10.721 32.3908 0.169752C32.4407 0.119825 32.4923 0.0715623 32.5672 0C32.5738 0.10984 32.5822 0.186395 32.5822 0.26295C32.5955 2.52465 32.6088 4.78635 32.6238 7.04805C32.6254 7.35427 32.6421 7.65883 32.6387 7.96505C32.6387 8.02829 32.5838 8.09486 32.5439 8.15145C32.5106 8.19971 32.459 8.23632 32.4174 8.27793C24.5805 16.1165 16.7419 23.9534 8.90336 31.7903C8.84844 31.8452 8.77022 31.8802 8.72196 31.9118C16.7136 39.9051 24.662 47.8535 32.6154 55.8069C37.4867 50.9357 42.3729 46.0495 47.294 41.1267C47.304 41.2315 47.3123 41.2865 47.3123 41.3397C47.3123 43.9209 47.314 46.5022 47.3074 49.0851C47.3074 49.1833 47.2558 49.3064 47.1875 49.3763C42.3646 54.2076 37.5383 59.0339 32.7103 63.8602C32.6737 63.8968 32.6338 63.9301 32.5555 63.9983C32.4989 63.9234 32.4557 63.8469 32.3958 63.787C21.8611 53.2507 11.3232 42.711 0.783535 32.1731C0.718629 32.1082 0.64041 32.0566 0.568848 31.9983C0.568848 31.985 0.568848 31.9717 0.568848 31.9584V31.9601Z" fill="#FF0707"/>
<path d="M51.3665 45.1425C48.2344 42.0038 45.079 38.8401 41.9269 35.6797C38.7499 38.8567 35.5911 42.0171 32.4407 45.1658C28.0238 40.7489 23.6319 36.357 19.2666 31.99C26.739 24.5176 34.2198 17.0369 41.7055 9.54944C41.7055 9.75248 41.7055 9.97049 41.7055 10.1868C41.6956 11.3169 41.6839 12.4485 41.6756 13.5786C41.6689 14.4972 41.6706 15.4142 41.6639 16.3329C41.6623 16.7256 41.6589 17.1184 41.639 17.5095C41.634 17.6094 41.5824 17.7275 41.5125 17.7974C38.0875 21.2307 34.6575 24.6607 31.2275 28.0891C29.976 29.3406 28.7245 30.5921 27.473 31.8436C27.4364 31.8802 27.4014 31.9218 27.3848 31.9418C29.0673 33.6243 30.7432 35.3002 32.4324 36.9911C35.5662 33.8473 38.7199 30.6836 41.9003 27.4949C45.0889 30.6836 48.2493 33.844 51.3964 36.9927C53.0673 35.3202 54.7415 33.6476 56.4291 31.9584C56.3891 31.9168 56.3375 31.8602 56.2826 31.8053C54.5052 30.0262 52.7278 28.2472 50.9454 26.4731C50.8322 26.3599 50.789 26.2484 50.7906 26.0903C50.7923 24.6674 50.7906 23.2428 50.7823 21.8199C50.7773 20.6832 50.764 19.5449 50.754 18.4082C50.754 18.3366 50.754 18.2651 50.754 18.2284C55.339 22.8134 59.9356 27.4101 64.5156 31.9917C60.167 36.3404 55.7767 40.7306 51.3631 45.1442L51.3665 45.1425Z" fill="#FF0707"/>
</svg>
