<svg width="65" height="64" viewBox="0 0 65 64" fill="none" xmlns="http://www.w3.org/2000/svg">
<g clip-path="url(#clip0_1667_4916)">
<path d="M59.1281 32.0807C60.108 32.4777 61.1199 32.8121 62.0562 33.295C62.6839 33.619 63.2398 34.1122 63.7598 34.604C64.2978 35.1125 64.244 35.744 63.7573 36.3128C62.9772 37.2235 61.923 37.6756 60.8368 38.0625C57.9138 39.1025 54.896 39.7648 51.8359 40.2387C49.8108 40.5525 47.7845 40.8676 45.7504 41.1084C44.1121 41.3018 42.4611 41.3966 40.8138 41.5158C38.3417 41.6938 35.8683 41.8539 33.3949 42.0217C33.3526 42.0243 33.3103 42.0255 33.2668 42.0255C28.1996 42.0678 23.1323 42.1575 18.0664 42.1319C15.4598 42.1178 12.8531 41.909 10.2478 41.7655C8.30211 41.6579 6.35643 41.5209 4.41203 41.3851C3.37706 41.3134 2.34466 41.2199 1.31098 41.1251C1.17648 41.1123 1.04839 41.0303 0.943359 40.8292C1.94886 40.8881 2.95437 40.9867 3.95987 41.0008C10.8754 41.0982 17.791 41.2301 24.7066 41.2352C27.2645 41.2378 29.825 40.947 32.3804 40.7536C34.2364 40.6127 36.0988 40.4872 37.9395 40.222C41.1597 39.7558 44.3837 39.2819 47.568 38.626C49.4445 38.2392 51.2544 37.5155 53.0771 36.8943C53.569 36.7265 54.0301 36.4191 54.449 36.1001C55.1842 35.5378 55.1445 34.5054 54.3132 34.0251C53.4742 33.5409 52.5507 33.2027 51.6643 32.8005C52.1318 32.0794 52.5994 31.3595 53.0554 30.655C53.5511 30.7665 54.0109 30.8702 54.5053 30.9817C54.4195 31.6938 54.8832 31.9859 55.5377 32.0755C55.343 32.3714 55.1932 32.5994 55.0433 32.8287C54.9075 32.9965 54.7718 33.163 54.5745 33.4064C55.329 33.4064 55.9438 33.4205 56.5548 33.3974C56.7418 33.391 56.9237 33.2809 57.1081 33.2181C57.6589 32.6238 58.0304 31.7105 59.1255 32.0819L59.1281 32.0807Z" fill="#D4D5D7"/>
<path d="M3.24766 31.3096C2.42661 30.8036 1.53511 30.3848 0.803714 29.7725C-0.163363 28.963 -0.0416781 28.0856 0.986882 27.3029C2.39074 26.2359 4.03798 25.6864 5.70827 25.3073C8.73631 24.6194 11.7836 23.9867 14.85 23.5102C17.6257 23.0785 20.4347 22.8236 23.2373 22.6072C26.3922 22.3638 29.5547 22.2037 32.7173 22.0897C36.314 21.9603 39.9146 21.8335 43.5114 21.8706C46.6572 21.9039 49.8006 22.1652 52.9439 22.3266C54.6206 22.4125 56.2973 22.488 57.9714 22.5956C59.7288 22.7096 61.4836 22.8569 63.2385 22.9953C63.3063 23.0004 63.3691 23.0619 63.6022 23.1887C63.2244 23.2105 63.0271 23.2386 62.8324 23.2297C60.4538 23.1118 58.0752 22.9658 55.6953 22.8736C53.5664 22.7916 51.4363 22.7263 49.3061 22.7301C45.7055 22.7378 42.1037 22.7391 38.5056 22.8697C35.6864 22.9722 32.8722 23.2386 30.0594 23.4807C28.0369 23.6549 26.0156 23.8637 24.0033 24.1365C19.5227 24.745 15.055 25.429 10.8857 27.3196C10.1081 27.6718 9.36138 28.0881 9.25891 29.0808C8.29312 29.0962 7.31835 29.0437 6.36281 29.1538C5.76719 29.223 5.20103 29.5381 4.62207 29.743C4.58364 29.7751 4.54393 29.8084 4.50422 29.8404C4.16607 30.2797 3.82791 30.7191 3.48975 31.1584C3.44877 31.202 3.40778 31.2455 3.36551 31.2891C3.32452 31.2942 3.28481 31.3006 3.24382 31.3096H3.24766Z" fill="#C4191F"/>
<path d="M55.0447 32.8274C55.1945 32.5994 55.3444 32.3714 55.5391 32.0743C54.8833 31.9833 54.4209 31.6925 54.5067 30.9804C54.0123 30.8689 53.5524 30.7652 53.0567 30.6537C52.6007 31.3582 52.1332 32.0781 51.6657 32.7992C51.2801 33.5831 50.5654 33.4781 49.8801 33.464C49.4792 33.4563 49.0783 33.4627 48.5954 33.4627C48.8976 32.9619 49.1679 32.5136 49.4395 32.0653C49.5099 32.055 49.5816 32.0448 49.6521 32.0345C49.6995 32.1754 49.7469 32.3163 49.7956 32.4572C49.8045 32.5367 49.8096 32.684 49.825 32.6852C50.3105 32.7185 50.8305 32.9312 51.1866 32.3548C51.4313 31.9577 51.7669 31.6157 52.0102 31.2186C52.4585 30.4872 53.0439 30.0812 53.9354 30.2426C54.5016 30.345 54.7449 29.9979 54.955 29.5061C53.4461 29.5061 52 29.5137 50.5538 29.5022C50.0633 29.4984 49.9224 29.8071 49.7866 30.2362H51.3813C51.2199 30.5154 51.1008 30.7178 50.9829 30.9214C50.8113 30.9176 50.6397 30.9138 50.4693 30.9086C49.4984 30.4834 48.8925 30.7716 48.3558 31.9141C48.3097 31.9564 48.2418 31.9884 48.2188 32.0409C47.6641 33.3039 46.683 33.6869 45.3739 33.4756C44.9589 33.4089 44.5195 33.4269 44.0994 33.473C43.3885 33.5511 42.8595 33.3974 42.7378 32.5674C41.7976 33.0336 40.9446 33.6805 39.8443 33.4551C39.6111 33.4077 39.4011 33.2501 39.223 33.1643C38.7914 33.2578 38.3213 33.4269 37.8448 33.4499C36.8892 33.496 35.9286 33.4576 34.9705 33.4653C34.3697 33.4704 33.8381 33.3385 33.4321 32.698C33.1298 33.6075 32.4112 33.4832 31.74 33.4615C30.6397 33.4256 29.5331 33.4358 28.443 33.3142C27.8167 33.2437 27.5477 32.7096 27.6143 32.0576C26.7843 32.0576 25.9491 32.1088 25.1242 32.0422C24.4505 31.9884 23.9868 32.1818 23.6781 32.78C23.5948 32.9401 23.4514 33.0695 23.3348 33.213C20.8998 33.2104 18.4648 33.2078 16.0298 33.2053C16.0273 33.1246 16.026 33.0439 16.0234 32.9632C16.0683 32.8774 16.1118 32.7928 16.1566 32.707C16.6062 32.0717 17.0264 31.4133 17.517 30.8126C17.7616 30.5128 18.0946 30.1452 18.6365 30.6179C18.1766 31.2955 17.7142 31.9782 17.2493 32.6635C18.014 32.8953 18.4776 32.6314 18.826 32.0089C19.0848 31.5478 19.4639 31.1571 19.738 30.7037C20.0839 30.1311 20.5296 30.2426 21.1227 30.4104C20.545 31.1994 20.016 31.9244 19.4665 32.6763C20.2466 32.8364 20.8345 32.7582 21.2546 32.0025C21.6017 31.3774 22.0949 30.8331 22.524 30.2541C22.7456 30.3438 22.9685 30.4321 23.1901 30.5218C22.6841 31.2391 22.1781 31.9551 21.6632 32.6852C22.4459 32.8466 23.0722 32.7531 23.4219 31.9667C23.4949 31.8014 23.6576 31.6746 23.778 31.5299L23.9586 31.4133C24.4889 31.4031 25.0205 31.3941 25.5507 31.38C26.1451 31.3634 26.7433 31.3736 27.3325 31.3096C27.7398 31.2647 28.4417 30.4014 28.3662 30.0658C28.2253 29.4369 27.6809 29.5253 27.2287 29.5125C26.5486 29.4932 25.8671 29.5112 25.1857 29.5112C24.4697 29.5112 23.8574 29.7545 23.3694 30.2874C23.3117 30.158 23.2541 30.0287 23.1952 29.8993C23.4949 29.6854 23.7946 29.4715 24.0944 29.2588C24.4261 29.2179 24.7579 29.1384 25.0883 29.1436C26.1271 29.1576 27.1941 29.0705 28.1932 29.2883C28.8004 29.4202 29.2858 29.8224 29.7956 29.1705C29.8405 29.1128 29.9967 29.1308 30.1018 29.132C30.7819 29.1346 31.4621 29.1423 32.141 29.1487C32.1474 29.1948 32.1525 29.2422 32.1589 29.2883C32.1038 29.3985 32.0475 29.5073 31.9924 29.6175C31.5223 30.2874 31.0509 30.9573 30.536 31.69C31.4954 31.69 32.3626 31.7169 33.2259 31.6733C33.4757 31.6605 33.7843 31.5055 33.947 31.3147C34.3249 30.8715 34.631 30.3668 34.9666 29.8878C35.5187 29.6252 36.0695 29.3626 36.6215 29.1C38.8119 29.1051 41.0022 29.1077 43.1925 29.1243C43.3501 29.1243 43.5896 29.1974 43.6473 29.3101C43.9034 29.8096 44.312 29.7725 44.6617 29.556C45.3662 29.1192 46.1207 29.0565 46.9033 29.1256C47.0929 29.1423 47.2709 29.2768 47.4477 29.3549C47.6577 29.2896 47.9331 29.1295 48.2085 29.1282C51.617 29.1115 55.0242 29.1167 58.5313 29.1167C58.2354 29.5035 57.9766 29.8429 57.7102 30.1939C58.4339 30.3783 58.4429 30.3847 58.8233 29.8788C59.2204 29.3511 59.6559 28.9873 60.3963 29.1013C60.9112 29.1807 61.4492 29.1167 62.1165 29.1167C61.4235 29.9954 60.8382 30.8087 60.1695 31.5478C59.9236 31.8194 59.4817 31.9116 59.1295 32.0858C58.0343 31.7143 57.6628 32.6276 57.112 33.2219C56.583 33.2181 56.0502 33.1758 55.5263 33.2219C55.1817 33.2527 55.1254 33.0593 55.046 32.8313L55.0447 32.8274ZM45.5737 31.0252C45.5532 31.0175 45.5327 31.0098 45.511 31.0021C45.5263 31.0149 45.543 31.0265 45.5584 31.0393C45.5584 31.0662 45.5584 31.0931 45.5584 31.1187C45.2932 31.2788 45.0281 31.4389 44.7527 31.6042C44.9269 31.9462 45.0793 32.242 45.2356 32.5482C45.5353 32.1447 45.8056 31.7809 46.0771 31.4159C46.2539 31.1648 46.4306 30.9138 46.6074 30.6614C46.6689 30.6153 46.7304 30.5692 46.7919 30.5231C46.7662 30.4975 46.7406 30.4731 46.715 30.4475C46.6702 30.5103 46.6253 30.5718 46.5805 30.6345C46.2449 30.7639 45.9093 30.8933 45.575 31.0226L45.5737 31.0252ZM40.8011 30.5C40.6474 30.5923 40.4783 30.7831 40.3425 30.7613C39.6086 30.6435 39.3844 31.1776 39.0821 31.6336C39.5112 31.69 39.9506 31.8667 40.3131 31.7668C40.86 31.6157 41.3557 31.2775 41.8591 30.9945C41.895 30.974 41.813 30.7472 41.7861 30.6166C41.6708 30.3412 41.5555 30.0645 41.4031 29.7007C41.1649 30.0171 40.9817 30.2592 40.7985 30.5013L40.8011 30.5ZM45.6659 32.7057C45.8286 33.0336 46.3845 33.0618 46.8623 32.7659C47.6103 31.7002 48.3571 30.6358 49.1052 29.5701C49.0757 29.515 49.045 29.4587 49.0155 29.4036C48.5979 29.5214 48.0228 29.5061 47.791 29.7814C47.016 30.6998 46.3653 31.7233 45.6659 32.7057ZM32.9313 32.1178C32.8403 32.0538 32.7519 31.9372 32.6597 31.9346C31.8528 31.9205 31.0445 31.9436 30.2388 31.9129C30.0569 31.9065 29.8802 31.7348 29.7021 31.6387C30.185 30.9573 30.6679 30.2772 31.2085 29.5137C30.5578 29.5304 29.9839 29.3331 29.5894 29.948C29.2128 30.5346 28.8017 31.0995 28.3969 31.6669C27.9371 32.3112 27.9537 32.3817 28.6928 32.7147C28.7056 32.7544 28.7197 32.8287 28.7325 32.8287C29.9532 32.8146 31.1726 32.7941 32.3933 32.7736C32.5726 32.5546 32.7519 32.3356 32.9326 32.1165L32.9313 32.1178ZM44.5593 32.7659C44.362 32.2318 44.1647 31.6977 43.9521 31.12C44.3838 30.9163 44.8206 30.7088 45.2573 30.5026C45.7441 30.2528 46.2308 30.003 46.7188 29.7533C46.6983 29.6815 46.6715 29.547 46.6574 29.5483C46.2219 29.5867 45.7595 29.5599 45.3598 29.7059C44.7706 29.9198 44.2262 30.2579 43.5845 30.5833C43.3834 29.67 42.8928 29.2409 41.9309 29.5932C42.1512 30.0876 42.3715 30.5794 42.6008 31.0931C41.6068 31.6029 40.6448 32.096 39.5804 32.6417C40.9791 33.0221 41.822 32.0678 42.8915 31.7015C43.058 32.0409 43.2233 32.3791 43.3885 32.7173C43.7625 33.1348 44.1571 33.0388 44.5593 32.7659ZM38.9156 30.7857C38.7568 30.6973 38.6031 30.5474 38.4366 30.5308C38.0395 30.4936 37.6347 30.5423 37.2364 30.5064C37.066 30.4911 36.9072 30.3502 36.7432 30.2669C36.984 30.2144 37.2248 30.1209 37.4669 30.1145C38.2765 30.0953 39.086 30.0901 39.8955 30.1145C40.3451 30.1273 40.5718 29.9147 40.7319 29.5048C39.957 29.5048 39.2333 29.5125 38.5083 29.5035C35.689 29.4663 35.862 29.588 34.4235 31.5901C34.2634 31.8129 34.1968 32.1024 34.0879 32.3599C34.3915 32.4803 34.6899 32.6904 34.9986 32.7057C35.9555 32.7544 36.9161 32.7019 37.873 32.7429C38.393 32.7659 38.7798 32.6263 39.0463 32.178C38.881 32.0935 38.7171 31.9423 38.5493 31.9372C37.7884 31.9103 37.025 31.9474 36.2642 31.9103C36.0733 31.9013 35.8914 31.7028 35.7057 31.5901C36.3192 31.5632 36.9366 31.4774 37.5438 31.526C38.2009 31.5798 38.6364 31.3634 38.9143 30.7831L38.9156 30.7857ZM55.7466 32.6673C56.4344 32.8569 56.9366 32.7365 57.2901 32.114C57.5424 31.6695 57.9485 31.4479 58.498 31.5145C58.7132 31.5401 59.0039 31.5299 59.1525 31.4056C59.7955 30.8676 60.4001 30.281 61.0175 29.7123C60.1926 29.4612 59.5393 29.3895 59.182 30.2336C59.0859 30.4603 58.7708 30.7127 58.5326 30.7383C57.8908 30.8074 57.2376 30.7626 56.487 30.7626C56.8187 30.3092 57.0915 29.9377 57.3593 29.5727C55.9042 29.1295 55.6454 30.3335 54.9204 31.2032C55.4802 31.3762 55.9259 31.5145 56.4152 31.6656C56.186 32.0089 55.9708 32.3317 55.7453 32.6686L55.7466 32.6673Z" fill="#181718"/>
<path d="M23.177 33.3743C23.6048 33.4871 24.0275 33.6561 24.463 33.7023C26.3152 33.8995 28.1699 34.0814 30.0259 34.2274C32.9246 34.4554 35.8259 34.6617 38.7271 34.8538C39.9158 34.9319 41.1083 34.9678 42.2982 34.9934C44.8741 35.0485 47.4513 35.0831 50.0284 35.1305C50.1591 35.133 50.2897 35.1702 50.4153 35.3085C49.9234 35.3316 49.4315 35.3738 48.9409 35.3751C43.5099 35.3802 38.0764 35.4328 32.6467 35.3559C29.7813 35.3149 26.9172 35.0741 24.0557 34.8666C21.7129 34.6975 19.374 34.4708 17.0389 34.2185C15.4673 34.0481 13.9059 33.7868 12.3393 33.5614C12.2599 33.5498 12.1882 33.4883 12.1113 33.4499C12.3534 33.4192 12.5955 33.3884 12.8363 33.359C13.0054 33.3449 13.1732 33.3321 13.3423 33.318C13.4704 33.286 13.5997 33.2539 13.7278 33.2206L13.7701 33.2309L13.8124 33.2219C14.0327 33.2911 14.253 33.4179 14.4733 33.4192C16.875 33.4333 19.2767 33.4307 21.6796 33.4256C22.1779 33.4256 22.6774 33.3936 23.1757 33.3769L23.177 33.3743Z" fill="#C11C21"/>
<path d="M13.3439 33.3155C13.1748 33.3296 13.007 33.3424 12.8379 33.3565C12.4754 33.1682 12.1168 33.0145 11.8081 33.4436C11.0242 33.4064 10.239 33.3782 9.45637 33.3219C9.33852 33.3129 9.22965 33.1746 9.11693 33.0964C9.05032 32.9261 8.98244 32.7557 8.91583 32.5854C8.77749 32.7096 8.63787 32.8326 8.49954 32.9568C8.27154 33.377 7.91929 33.4897 7.45176 33.4743C6.45266 33.4423 5.45357 33.4743 4.45319 33.4589C4.1842 33.4551 3.9088 33.4077 3.64878 33.336C2.63815 33.0529 2.45499 32.3779 3.15051 31.5453L3.36955 31.2904C3.41054 31.2468 3.45152 31.2033 3.49379 31.1597C3.63213 31.1636 3.76919 31.1674 3.90752 31.1712C3.80377 31.3288 3.71283 31.4966 3.59627 31.6439C3.10184 32.269 3.13258 32.3932 3.88447 32.7199C4.03305 32.7967 4.17907 32.9376 4.32894 32.9402C5.31907 32.9607 6.31049 32.9581 7.30062 32.9427C7.44024 32.9402 7.57729 32.8236 7.71563 32.7608C7.89239 32.5533 8.06916 32.3471 8.24592 32.1396C8.28307 32.0679 8.32021 31.9974 8.35864 31.9257C8.35864 31.8847 8.35864 31.8437 8.35864 31.8014C8.56742 31.7989 8.77749 31.7963 8.98628 31.7925C9.08106 31.8924 9.17585 31.991 9.27064 32.0909C9.47942 32.2997 9.68693 32.5085 9.89571 32.7186C10.0033 32.7954 10.1083 32.9376 10.2172 32.9402C11.1113 32.9581 12.0066 32.9581 12.9007 32.9402C13.0083 32.9376 13.112 32.7929 13.2171 32.7134C13.5693 32.4983 13.9907 32.3471 14.2584 32.0551C14.6863 31.5901 15.018 31.0355 15.378 30.5103C15.7084 30.0261 15.5573 29.6957 14.9886 29.5381C14.7221 29.4651 14.4762 29.3204 14.2213 29.2089C14.5287 29.173 14.8361 29.1359 15.1435 29.1C15.5381 29.3882 15.9326 29.6764 16.3245 29.9621C16.4654 29.7712 16.7024 29.4523 16.9381 29.1333C17.6182 29.1218 18.2997 29.1103 18.9798 29.1C19.1899 29.1026 19.4 29.1052 19.61 29.1077C20.499 29.1128 21.3879 29.118 22.2756 29.1244C22.2794 29.1628 22.2884 29.1999 22.3038 29.2345C22.3012 29.3716 22.2974 29.5086 22.2948 29.6457C22.1103 29.6009 21.9272 29.5189 21.7427 29.5176C20.3209 29.5061 18.8991 29.5022 17.4786 29.5215C17.3224 29.524 17.12 29.6431 17.0213 29.7725C16.2746 30.7473 15.5496 31.7374 14.8182 32.7237C14.8938 32.8031 14.9642 32.9427 15.0449 32.9504C15.3715 32.9786 15.7007 32.9658 16.0286 32.9671C16.0312 33.0478 16.0325 33.1285 16.0351 33.2092C15.296 33.2143 14.5582 33.2194 13.8191 33.2232L13.7768 33.2322L13.7346 33.222C13.6065 33.254 13.4771 33.286 13.349 33.3193L13.3439 33.3155Z" fill="#131213"/>
<path d="M18.9759 29.0962C18.2958 29.1077 17.6143 29.1192 16.9342 29.1295C16.336 29.118 15.7378 29.1077 15.1396 29.0962C14.8322 29.1321 14.5248 29.1692 14.2225 29.2038C13.8101 29.191 13.3912 29.1795 12.9736 29.1666C13.1017 29.0232 13.2234 28.872 13.3617 28.7401C13.395 28.7081 13.4847 28.7337 13.5488 28.7324C18.6518 28.6901 23.7549 28.6159 28.858 28.621C31.2956 28.6235 33.7344 28.7721 36.172 28.8695C36.3244 28.8759 36.4717 29.0168 36.6215 29.0936C36.0695 29.3562 35.5187 29.6188 34.9666 29.8814C33.9752 29.7917 32.9838 29.7021 31.9924 29.6124C32.0475 29.5022 32.1038 29.3934 32.1589 29.2832C32.1525 29.2371 32.1474 29.1897 32.141 29.1436C31.4608 29.1372 30.7807 29.1295 30.1018 29.1269C29.9967 29.1269 29.8418 29.1077 29.7956 29.1654C29.2859 29.8173 28.8004 29.4164 28.1932 29.2832C27.1954 29.0655 26.1272 29.1526 25.0884 29.1385C24.7579 29.1333 24.4261 29.2128 24.0944 29.2537C23.4872 29.2089 22.8801 29.1628 22.2717 29.118C21.3827 29.1128 20.4938 29.1077 19.6061 29.1013C19.396 29.0988 19.186 29.0962 18.9759 29.0936V29.0962Z" fill="#D4D5D7"/>
<path d="M12.9721 29.1679C13.3896 29.1794 13.8085 29.1922 14.2209 29.2051C14.4707 29.3178 14.7179 29.4625 14.9831 29.5355C15.5531 29.6931 15.7042 30.0248 15.3725 30.5077C15.0138 31.0329 14.6808 31.5875 14.2529 32.0525C13.9852 32.3445 13.5638 32.497 13.2116 32.7109C12.1049 32.7121 10.9969 32.7147 9.89021 32.716C9.68143 32.5072 9.47392 32.2984 9.26514 32.0884C9.54437 31.7054 9.82361 31.3224 10.1028 30.9381C10.6716 30.0274 11.4209 29.4266 12.5634 29.4868C12.5865 29.4868 12.6147 29.4049 12.6403 29.36C12.7505 29.2947 12.8606 29.2307 12.9708 29.1653L12.9721 29.1679ZM12.981 31.9372C13.3986 31.4197 13.8162 30.9022 14.2337 30.3848C13.5356 30.24 12.9874 30.2554 12.4405 30.2349C12.0114 30.2182 11.7116 30.3694 11.5515 30.7742C11.458 30.8984 11.3632 31.0239 11.2697 31.1482C11.2352 31.193 11.2019 31.2378 11.1673 31.2839C10.9546 31.5504 10.7433 31.8181 10.4666 32.1652C11.2428 32.1652 11.8782 32.1806 12.5122 32.155C12.671 32.1486 12.8247 32.0128 12.981 31.9372Z" fill="#F4F4F4"/>
<path d="M12.6432 29.3626C12.6175 29.4062 12.5894 29.4907 12.5663 29.4894C11.4237 29.4292 10.6731 30.03 10.1057 30.9407C9.97506 30.924 9.84312 30.9086 9.71247 30.892C9.71888 30.8638 9.7304 30.8382 9.74834 30.8151C9.62281 30.7178 9.49856 30.5397 9.36919 30.5359C8.46872 30.5116 7.56697 30.5141 6.6665 30.5359C6.54738 30.5385 6.43081 30.6973 6.31297 30.7844C6.09906 31.1238 5.88515 31.4633 5.67124 31.8027C5.67124 31.8424 5.67252 31.8821 5.67509 31.9218C5.41506 31.8296 5.15504 31.7374 4.89502 31.6464C5.08843 31.3723 5.30491 31.111 5.47014 30.8215C5.78909 30.2605 6.24252 30.053 6.88681 30.0991C7.58106 30.1491 8.28427 30.1516 8.97724 30.094C9.34101 30.0633 9.6907 29.857 10.0481 29.7302C10.0263 29.6623 10.0058 29.5957 9.98402 29.5278C9.78164 29.5125 9.58054 29.4971 9.37816 29.483C9.37816 29.3652 9.37816 29.2486 9.37816 29.1308C10.3657 29.1256 11.352 29.1128 12.3396 29.1256C12.4421 29.1269 12.542 29.2806 12.6419 29.3639L12.6432 29.3626Z" fill="#131213"/>
<path d="M13.814 33.2194C14.553 33.2143 15.2908 33.2092 16.0299 33.2053C18.4649 33.2079 20.8999 33.2104 23.3349 33.213C23.2824 33.2668 23.2311 33.3206 23.1786 33.3744C22.6803 33.3923 22.1808 33.4231 21.6825 33.4244C19.2808 33.4295 16.8779 33.432 14.4762 33.418C14.2559 33.4167 14.0356 33.2899 13.8152 33.2207L13.814 33.2194Z" fill="#0B1414"/>
<path d="M49.6522 32.0333C49.5818 32.0435 49.51 32.0538 49.4396 32.064C49.0784 32.0128 48.7172 31.9615 48.356 31.9116C48.8927 30.769 49.4985 30.4808 50.4694 30.9061C50.1979 31.2814 49.9251 31.658 49.6535 32.0333H49.6522Z" fill="#CFD0D2"/>
<path d="M9.3792 29.1295C9.3792 29.2473 9.3792 29.3639 9.3792 29.4817C8.31349 29.4856 7.24779 29.4894 6.18208 29.4933C5.87467 29.2909 5.60696 29.2896 5.41354 29.6495C5.25727 29.7328 5.10101 29.8173 4.94474 29.9006C4.83842 29.8481 4.73083 29.7956 4.62451 29.743C5.20348 29.5381 5.77091 29.223 6.36525 29.1538C7.3208 29.0437 8.29428 29.0962 9.26136 29.0808C9.30107 29.0975 9.34077 29.1128 9.38048 29.1295H9.3792Z" fill="#0E1011"/>
<path d="M8.49786 32.9555C8.6362 32.8313 8.77582 32.7083 8.91415 32.584C8.98076 32.7544 9.04865 32.9248 9.11526 33.0951C8.90903 33.049 8.70281 33.0016 8.49658 32.9555H8.49786Z" fill="#1B1B1B"/>
<path d="M11.8081 33.4435C12.1168 33.0144 12.4767 33.1681 12.8379 33.3564C12.5959 33.3872 12.3538 33.4179 12.113 33.4486C12.0118 33.4474 11.9106 33.4461 11.8081 33.4448V33.4435Z" fill="#1B1B1B"/>
<path d="M3.36942 31.2891L3.15039 31.544C3.18241 31.4658 3.21572 31.3877 3.24774 31.3096C3.28745 31.3019 3.32844 31.2955 3.36942 31.2891Z" fill="#0E1011"/>
<path d="M55.0447 32.8275C55.1241 33.0555 55.1804 33.2489 55.525 33.2181C56.0502 33.172 56.5818 33.213 57.1108 33.2181C56.9263 33.2809 56.7431 33.3898 56.5574 33.3975C55.9451 33.4205 55.3316 33.4064 54.5771 33.4064C54.7744 33.163 54.9102 32.9953 55.046 32.8287L55.0447 32.8275Z" fill="#0D0D0D"/>
<path d="M3.90592 31.17C3.76758 31.1661 3.63052 31.1623 3.49219 31.1584C3.83034 30.7191 4.1685 30.2797 4.50666 29.8404C4.51819 29.9954 4.52843 30.1517 4.53868 30.3066C4.32733 30.5948 4.11727 30.8818 3.90592 31.17Z" fill="#0E1011"/>
<path d="M4.53886 30.3066C4.52861 30.1516 4.51708 29.9954 4.50684 29.8404C4.54654 29.8071 4.58497 29.7751 4.62468 29.743C4.73099 29.7956 4.83859 29.8481 4.9449 29.9006C4.81041 30.0364 4.67463 30.1721 4.54014 30.3066H4.53886Z" fill="#131213"/>
<path d="M14.813 32.7186C15.5444 31.7323 16.2706 30.7421 17.0161 29.7674C17.1148 29.6393 17.3171 29.5189 17.4734 29.5163C18.8952 29.4971 20.317 29.5009 21.7375 29.5125C21.922 29.5138 22.1051 29.5957 22.2896 29.6406C22.3677 29.7392 22.4471 29.8365 22.5253 29.9352C22.5253 30.0415 22.5253 30.1465 22.5253 30.2528C22.0962 30.8331 21.603 31.3762 21.2559 32.0013C20.8358 32.757 20.2478 32.8351 19.4678 32.675C20.0186 31.9218 20.5476 31.1981 21.124 30.4091C20.5309 30.2413 20.0839 30.1299 19.7393 30.7024C19.4652 31.1559 19.0861 31.5478 18.8273 32.0077C18.4789 32.6302 18.0152 32.894 17.2505 32.6622C17.7155 31.9769 18.1779 31.2942 18.6377 30.6166C18.0946 30.144 17.7616 30.5116 17.5182 30.8113C17.0277 31.412 16.6075 32.0704 16.1579 32.7058C15.7096 32.7096 15.2613 32.7147 14.813 32.7186Z" fill="#F8F7F8"/>
<path d="M39.0472 32.1793C38.7808 32.6276 38.3952 32.7672 37.8739 32.7442C36.9171 32.7019 35.9551 32.7544 34.9996 32.707C34.6909 32.6917 34.3924 32.4816 34.0889 32.3612C34.199 32.1025 34.2656 31.813 34.4245 31.5914C35.8629 29.5893 35.69 29.4677 38.5092 29.5048C39.2329 29.515 39.9579 29.5061 40.7329 29.5061C40.5728 29.916 40.346 30.1286 39.8965 30.1158C39.0869 30.0927 38.2774 30.0966 37.4679 30.1158C37.2258 30.1209 36.985 30.2144 36.7442 30.2682C36.5802 30.3758 36.415 30.4834 36.251 30.591C36.2984 30.6563 36.3458 30.7217 36.3919 30.787H38.9153C38.6373 31.3659 38.2018 31.5837 37.5447 31.5299C36.9376 31.4799 36.3202 31.567 35.7066 31.5939C35.6234 31.7003 35.5401 31.8053 35.4569 31.9116C35.4133 31.9718 35.371 32.032 35.3275 32.0909C35.3762 32.1063 35.4236 32.1204 35.4722 32.1358C36.6635 32.1511 37.856 32.1665 39.0472 32.1819V32.1793Z" fill="#F0F0F0"/>
<path d="M23.7778 31.5286C23.6574 31.6734 23.4948 31.8002 23.4218 31.9654C23.0734 32.7519 22.4457 32.8454 21.6631 32.684C22.178 31.9539 22.684 31.2379 23.1899 30.5206C23.2488 30.4424 23.3078 30.3643 23.368 30.2861C23.856 29.7533 24.4683 29.5099 25.1843 29.5099C25.8657 29.5099 26.5471 29.492 27.2273 29.5112C27.6795 29.524 28.2238 29.4356 28.3647 30.0646C28.4403 30.4001 27.7384 31.2635 27.3311 31.3083C26.7418 31.3723 26.1437 31.3621 25.5493 31.3788C25.019 31.3941 24.4875 31.4018 23.9572 31.4121L23.7766 31.5286H23.7778ZM24.4196 30.7396C25.288 30.527 26.3601 31.2135 27.0377 30.1914C26.1501 30.3194 25.0959 29.6444 24.4196 30.7396Z" fill="#F1F1F1"/>
<path d="M55.7463 32.6673C55.9717 32.3304 56.1869 32.0064 56.4162 31.6644C55.9269 31.5132 55.4824 31.3749 54.9214 31.202C55.6464 30.3323 55.9051 29.1282 57.3602 29.5714C57.0925 29.9377 56.8197 30.3092 56.4879 30.7614C57.2372 30.7614 57.8918 30.8075 58.5335 30.737C58.7718 30.7114 59.0869 30.4591 59.1829 30.2323C59.539 29.3882 60.1923 29.46 61.0185 29.711C60.3998 30.2797 59.7965 30.8664 59.1535 31.4044C59.0049 31.5286 58.7141 31.5389 58.4989 31.5132C57.9494 31.4466 57.5434 31.6682 57.291 32.1127C56.9375 32.7352 56.4354 32.8569 55.7476 32.666L55.7463 32.6673Z" fill="#F0F0F0"/>
<path d="M45.257 30.5013C44.8202 30.7075 44.3834 30.915 43.9518 31.1187C44.1644 31.6964 44.3617 32.2305 44.5589 32.7647C44.1682 32.748 43.7776 32.7314 43.3882 32.716C43.2229 32.3778 43.0577 32.0397 42.8912 31.7002C41.8204 32.0666 40.9775 33.0208 39.5801 32.6404C40.6445 32.0948 41.6065 31.6016 42.6004 31.0918C42.3712 30.5782 42.1508 30.085 41.9305 29.5919C42.8925 29.2409 43.3843 29.6687 43.5842 30.582C44.2259 30.2567 44.7703 29.9198 45.3595 29.7046C45.7591 29.5599 46.2215 29.5855 46.657 29.547C46.6711 29.547 46.698 29.6803 46.7185 29.752C46.2318 30.0018 45.745 30.2515 45.257 30.5013Z" fill="#F4F4F4"/>
<path d="M50.983 30.9189C51.1008 30.7152 51.2199 30.5116 51.3813 30.2336H49.7866C49.9224 29.8045 50.0633 29.4958 50.5539 29.4997C52 29.5112 53.4461 29.5035 54.955 29.5035C54.745 29.9954 54.5016 30.3412 53.9354 30.24C53.0439 30.0786 52.4586 30.4847 52.0103 31.2161C51.7669 31.6144 51.4326 31.9551 51.1866 32.3522C50.8306 32.9286 50.3105 32.7173 49.825 32.6827C49.8097 32.6827 49.8058 32.5341 49.7956 32.4547C50.1914 31.9423 50.5872 31.43 50.983 30.9176V30.9189Z" fill="#EDEDED"/>
<path d="M28.6916 32.7147C27.9525 32.383 27.9372 32.3125 28.3957 31.6669C28.8005 31.0995 29.2117 30.5346 29.5883 29.948C29.9828 29.3331 30.5566 29.5304 31.2073 29.5137C30.6668 30.2759 30.1839 30.9573 29.701 31.6388C29.6203 31.7387 29.5409 31.8399 29.4602 31.9398C29.4602 32.0038 29.4602 32.0691 29.4602 32.1332C30.6168 32.1281 31.7735 32.1216 32.9301 32.1165C32.7508 32.3356 32.5715 32.5546 32.3909 32.7736C31.1574 32.7544 29.9238 32.7352 28.6903 32.7147H28.6916Z" fill="#F8F8F8"/>
<path d="M45.666 32.7058C46.3641 31.7233 47.0161 30.6999 47.791 29.7815C48.0229 29.5074 48.598 29.5215 49.0156 29.4036C49.045 29.4587 49.0758 29.5151 49.1052 29.5701C48.3572 30.6358 47.6104 31.7003 46.8624 32.766C46.464 32.7455 46.0644 32.725 45.666 32.7058Z" fill="#F7F7F7"/>
<path d="M28.6914 32.7147C29.9249 32.7339 31.1584 32.7531 32.3919 32.7736C31.1712 32.7941 29.9518 32.8146 28.7311 32.8287C28.7183 32.8287 28.7042 32.7544 28.6914 32.7147Z" fill="black"/>
<path d="M39.0474 32.1793C37.8562 32.1639 36.6636 32.1486 35.4724 32.1332C35.4673 32.0589 35.4622 31.9833 35.457 31.909C35.5403 31.8027 35.6235 31.6977 35.7068 31.5914C35.8925 31.7028 36.0744 31.9013 36.2653 31.9103C37.0248 31.9475 37.7883 31.9103 38.5504 31.9372C38.7182 31.9436 38.8821 32.0948 39.0474 32.178V32.1793Z" fill="black"/>
<path d="M29.4614 31.941C29.5421 31.8411 29.6215 31.7399 29.7022 31.64C29.8816 31.7361 30.057 31.9077 30.2389 31.9141C31.0446 31.9449 31.8529 31.9205 32.6598 31.9359C32.7508 31.9372 32.8404 32.055 32.9314 32.1191C31.7747 32.1242 30.6181 32.1306 29.4614 32.1357C29.4614 32.0717 29.4614 32.0064 29.4614 31.9423V31.941Z" fill="#030303"/>
<path d="M50.9827 30.9189C50.5869 31.4312 50.1911 31.9436 49.7953 32.456C49.7479 32.3151 49.7005 32.1742 49.6519 32.0333C49.9234 31.658 50.1962 31.2814 50.4678 30.9061C50.6394 30.9099 50.8111 30.9138 50.9814 30.9189H50.9827Z" fill="#0D0D0D"/>
<path d="M38.9157 30.7857H36.3924C36.345 30.7203 36.2976 30.655 36.2515 30.5897C36.4154 30.4821 36.5807 30.3745 36.7446 30.2669C36.9086 30.3502 37.0674 30.4911 37.2378 30.5064C37.6348 30.5423 38.0409 30.4923 38.438 30.5308C38.6045 30.5461 38.7582 30.696 38.917 30.7857H38.9157Z" fill="#080808"/>
<path d="M41.7874 30.6153C41.4582 30.5769 41.129 30.5385 40.7998 30.5C40.983 30.2579 41.1661 30.0158 41.4044 29.6995C41.5568 30.0632 41.6721 30.3399 41.7874 30.6153Z" fill="#CFD0D2"/>
<path d="M22.966 29.7405C23.0429 29.793 23.1184 29.8442 23.1953 29.8967C23.2529 30.0261 23.3106 30.1555 23.3695 30.2849C23.3106 30.363 23.2517 30.4411 23.1915 30.5193C22.9699 30.4296 22.747 30.3412 22.5254 30.2516C22.5254 30.1452 22.5254 30.0402 22.5254 29.9339L22.9647 29.7392L22.966 29.7405Z" fill="#131213"/>
<path d="M46.0759 31.4172C45.903 31.3185 45.73 31.2186 45.5571 31.12C45.5571 31.0931 45.5571 31.0662 45.5571 31.0406L45.5725 31.0265C45.9081 30.8971 46.2437 30.7677 46.578 30.6384L46.6036 30.6653C46.4269 30.9163 46.2501 31.1674 46.0733 31.4197L46.0759 31.4172Z" fill="#1B1B1B"/>
<path d="M14.813 32.7186C15.2613 32.7147 15.7096 32.7096 16.1579 32.7057C16.1131 32.7916 16.0695 32.8761 16.0247 32.9619C15.6968 32.9594 15.3663 32.9735 15.041 32.9453C14.959 32.9376 14.8886 32.798 14.8143 32.7186H14.813Z" fill="#1B1B1B"/>
<path d="M45.2573 30.5013C45.7441 30.2516 46.2308 30.0018 46.7188 29.752C46.2321 30.0018 45.7453 30.2516 45.2573 30.5013Z" fill="#1B1B1B"/>
<path d="M45.666 32.7057C46.0644 32.7262 46.464 32.7467 46.8624 32.766C46.3859 33.0618 45.8287 33.0337 45.666 32.7057Z" fill="#1B1B1B"/>
<path d="M43.3882 32.716C43.7789 32.7327 44.1695 32.7493 44.5589 32.7647C44.1567 33.0375 43.7609 33.1336 43.3882 32.716Z" fill="#1B1B1B"/>
<path d="M46.5791 30.6371C46.6239 30.5743 46.6688 30.5128 46.7136 30.4501C46.7392 30.4757 46.7648 30.5 46.7904 30.5256C46.729 30.5718 46.6675 30.6179 46.606 30.664L46.5804 30.6371H46.5791Z" fill="#1B1B1B"/>
<path d="M45.5581 31.0393C45.5428 31.0265 45.5261 31.0149 45.5107 31.0021C45.5312 31.0098 45.5517 31.0175 45.5735 31.0252L45.5581 31.0393Z" fill="#1B1B1B"/>
<path d="M13.3438 33.3154C13.4718 33.2834 13.6012 33.2514 13.7293 33.2181C13.6012 33.2501 13.4718 33.2821 13.3438 33.3154Z" fill="#1B1B1B"/>
<path d="M4.53869 30.3066C4.67319 30.1709 4.80896 30.0351 4.94346 29.9006C5.09973 29.8173 5.256 29.7328 5.41227 29.6495C5.66845 29.597 5.92462 29.5458 6.1808 29.4933C7.24651 29.4894 8.31222 29.4856 9.37792 29.4818C9.5803 29.4971 9.78141 29.5125 9.98379 29.5266C10.0056 29.5945 10.0261 29.6611 10.0478 29.729C9.69174 29.8558 9.34206 30.062 8.977 30.0927C8.28404 30.1517 7.58082 30.1478 6.88658 30.0979C6.24229 30.0517 5.78885 30.2593 5.46991 30.8203C5.30467 31.1111 5.0882 31.3711 4.89478 31.6452C4.81409 31.7438 4.73339 31.8424 4.65398 31.9424C4.65398 32.0077 4.65398 32.0717 4.65398 32.137C5.85033 32.137 7.04797 32.137 8.24433 32.1383C8.06757 32.3458 7.8908 32.5521 7.71404 32.7596C6.43698 32.7455 5.15993 32.7327 3.88288 32.7186C3.13227 32.3919 3.10153 32.2677 3.59467 31.6426C3.71124 31.4953 3.80346 31.3275 3.90593 31.17C4.11728 30.8818 4.32735 30.5949 4.53869 30.3066Z" fill="#F4F4F4"/>
<path d="M9.74799 30.8152C9.73006 30.8382 9.71853 30.8638 9.71213 30.892C9.46876 31.1917 9.22667 31.4928 8.9833 31.7925C8.77451 31.7951 8.56444 31.7976 8.35566 31.8015C7.46031 31.8015 6.56496 31.8015 5.6709 31.8015C5.88481 31.462 6.09872 31.1226 6.31263 30.7831C7.45775 30.7934 8.60287 30.8049 9.74799 30.8152Z" fill="#BD161C"/>
<path d="M3.88281 32.7186C5.15987 32.7327 6.43692 32.7455 7.71397 32.7596C7.57564 32.8236 7.43858 32.9389 7.29896 32.9414C6.30883 32.9568 5.31742 32.9594 4.32728 32.9389C4.17742 32.9363 4.0314 32.7954 3.88281 32.7186Z" fill="black"/>
<path d="M8.24465 32.1383C7.04829 32.1383 5.85065 32.1383 4.6543 32.137C4.6543 32.0717 4.6543 32.0076 4.6543 31.9423C4.73499 31.8437 4.81569 31.7451 4.89511 31.6451C5.15513 31.7374 5.41515 31.8296 5.67517 31.9205C6.56924 31.9205 7.4633 31.9231 8.35737 31.9244C8.32022 31.9961 8.28308 32.0666 8.24465 32.1383Z" fill="#030303"/>
<path d="M9.89307 32.7173C10.9998 32.716 12.1077 32.7134 13.2144 32.7122C13.1094 32.7916 13.0044 32.9363 12.898 32.9389C12.004 32.9568 11.1086 32.9568 10.2146 32.9389C10.1057 32.9363 10.0007 32.7941 9.89307 32.7173Z" fill="black"/>
<path d="M8.9834 31.7924C9.22677 31.4927 9.46886 31.1917 9.71223 30.892C9.84288 30.9086 9.97353 30.924 10.1055 30.9406C9.82623 31.3236 9.54699 31.7066 9.26776 32.0909C9.17297 31.991 9.07818 31.8923 8.9834 31.7924Z" fill="#1B1B1B"/>
<path d="M8.35596 31.9244C7.4619 31.9244 6.56783 31.9219 5.67376 31.9206C5.67248 31.8809 5.6712 31.8412 5.66992 31.8015C6.56527 31.8015 7.46062 31.8015 8.35468 31.8015C8.35468 31.8424 8.35468 31.8834 8.35468 31.9257L8.35596 31.9244Z" fill="#1B1B1B"/>
<path d="M22.9656 29.7404L22.5262 29.9351C22.4481 29.8365 22.3687 29.7392 22.2905 29.6405C22.2931 29.5035 22.2969 29.3664 22.2995 29.2294C22.5211 29.3997 22.744 29.5688 22.9656 29.7392V29.7404Z" fill="#181718"/>
<path d="M11.5529 30.7741C11.713 30.3694 12.0128 30.2182 12.4419 30.2349C12.9888 30.2554 13.537 30.24 14.2351 30.3847C13.8175 30.9022 13.4 31.4197 12.9824 31.9372H11.0918C11.1251 31.6528 11.1469 31.4684 11.1687 31.2839C11.2032 31.2391 11.2365 31.1943 11.2711 31.1482C11.3646 31.0239 11.4594 30.8984 11.5529 30.7741ZM12.1665 31.1533C11.9948 31.3262 11.8232 31.5004 11.6515 31.6733C12.1421 31.6797 12.675 32.0614 12.9171 31.4146C13.0541 31.216 13.1912 31.0188 13.327 30.8202L13.2002 30.6243C12.8556 30.801 12.511 30.9765 12.1665 31.1533Z" fill="#181718"/>
<path d="M11.1674 31.2839C11.1457 31.4684 11.1239 31.6528 11.0906 31.9372H12.9812C12.8249 32.0128 12.6712 32.1485 12.5124 32.1549C11.8783 32.1806 11.243 32.1652 10.4668 32.1652C10.7422 31.8181 10.9548 31.5516 11.1674 31.2839Z" fill="#222222"/>
<path d="M9.74835 30.8152C8.60323 30.8049 7.45811 30.7934 6.31299 30.7831C6.43083 30.696 6.54611 30.5372 6.66652 30.5346C7.56699 30.5129 8.46874 30.5116 9.36921 30.5346C9.4973 30.5385 9.62154 30.7165 9.74835 30.8139V30.8152Z" fill="#1B1B1B"/>
<path d="M6.18211 29.4932C5.92593 29.5458 5.66975 29.597 5.41357 29.6495C5.60699 29.2896 5.8747 29.2921 6.18211 29.4932Z" fill="#131213"/>
<path d="M35.457 31.9091C35.4621 31.9833 35.4673 32.0589 35.4724 32.1332C35.4237 32.1178 35.3763 32.1038 35.3276 32.0884C35.3712 32.0282 35.4135 31.968 35.457 31.9091Z" fill="#1B1B1B"/>
<path d="M24.4194 30.7408C25.097 29.6457 26.1499 30.322 27.0376 30.1926C26.3587 31.2135 25.2866 30.5282 24.4194 30.7408Z" fill="#131213"/>
<path d="M12.1668 31.1546C12.4166 31.2417 12.6676 31.3288 12.9174 31.4159C12.6753 32.0628 12.1424 31.6811 11.6519 31.6746C11.8235 31.5017 11.9951 31.3275 12.1668 31.1546Z" fill="#BD161C"/>
<path d="M15.1371 29.1053C15.1371 29.1053 11.9389 29.0773 11.6827 29.1494C11.4265 29.2214 11.6827 29.5577 11.6827 29.5577L15.1771 29.4456L15.1371 29.1053Z" fill="black"/>
</g>
<defs>
<clipPath id="clip0_1667_4916">
<rect width="64" height="20.2715" fill="white" transform="translate(0.142578 21.8643)"/>
</clipPath>
</defs>
</svg>
