<svg width="65" height="65" viewBox="0 0 65 65" fill="none" xmlns="http://www.w3.org/2000/svg">
<g clip-path="url(#clip0_1603_4780)">
<path d="M63.5101 26.122C63.105 24.0967 62.4974 22.0714 61.6873 20.1473C60.8772 18.2233 59.8645 16.4005 58.7506 14.679C57.6367 12.9575 56.3202 11.3372 54.8012 9.91948C53.3835 8.50176 51.7632 7.18531 50.0417 5.97012C48.3202 4.85619 46.4974 3.84353 44.5734 3.03341C42.6493 2.22328 40.624 1.61569 38.5987 1.21062C36.4721 0.805559 34.3455 0.603027 32.1177 0.603027C29.8898 0.603027 27.7632 0.805559 25.6367 1.21062C23.6113 1.61569 21.586 2.22328 19.662 3.03341C17.7379 3.84353 15.9151 4.85619 14.1936 5.97012C12.4721 7.18531 10.8519 8.50176 9.43413 9.91948C8.01641 11.3372 6.69995 12.9575 5.48476 14.679C4.37084 16.4005 3.35818 18.2233 2.54806 20.1473C1.73793 22.0714 1.13033 24.0967 0.725271 26.122C0.320207 28.2486 0.117676 30.3752 0.117676 32.603C0.117676 34.8309 0.320207 36.9575 0.725271 39.084C1.13033 41.1094 1.73793 43.1347 2.54806 45.0587C3.35818 46.9828 4.37084 48.8056 5.48476 50.5271C6.59869 52.2486 7.91514 53.8689 9.43413 55.2866C10.8519 56.7043 12.4721 58.0207 14.1936 59.2359C15.9151 60.3499 17.7379 61.3625 19.662 62.1726C21.586 62.9828 23.6113 63.5904 25.6367 63.9954C27.7632 64.4005 29.8898 64.603 32.1177 64.603C34.3455 64.603 36.4721 64.4005 38.5987 63.9954C40.624 63.5904 42.6493 62.9828 44.5734 62.1726C46.4974 61.3625 48.3202 60.3499 50.0417 59.2359C51.7632 58.122 53.3835 56.8056 54.8012 55.2866C56.2189 53.8689 57.5354 52.2486 58.7506 50.5271C59.8645 48.8056 60.8772 46.9828 61.6873 45.0587C62.4974 43.1347 63.105 41.1094 63.5101 39.084C63.9151 36.9575 64.1177 34.8309 64.1177 32.603C64.1177 30.3752 63.9151 28.2486 63.5101 26.122ZM3.05438 30.8815C3.05438 29.9701 3.15565 29.0587 3.25692 28.1473V28.0461C3.25692 27.9448 3.25692 27.8435 3.25692 27.7423V27.641C3.35818 26.7296 3.56071 25.8182 3.66198 24.9068C4.16831 22.4764 4.87717 20.2486 5.99109 18.0207C7.10502 15.5904 8.42147 13.4638 10.2443 11.4385C10.9531 10.6283 11.7632 9.81822 12.5734 9.10936C14.0924 7.69164 15.7126 6.57771 17.6367 5.56505C19.2569 4.65366 20.8772 3.9448 22.7 3.3372C23.9151 2.93214 25.1303 2.62834 26.3455 2.42581C27.662 2.22328 28.7759 2.02075 30.0924 1.91948C31.2063 1.91948 32.2189 1.91948 33.2316 1.91948C34.8519 2.02075 36.2696 2.22328 37.7886 2.52708C39.5101 2.83088 41.1303 3.3372 42.7506 3.9448C44.8772 4.75493 46.7 5.66632 48.5227 6.88151C49.4341 7.4891 50.4468 8.19796 51.1557 9.00809C52.067 9.81822 52.8772 10.6283 53.586 11.4385C55.105 13.2613 56.4215 15.084 57.4341 17.1094C58.5481 19.2359 59.3582 21.2613 59.8645 23.4891C60.2696 24.9068 60.4721 26.3245 60.6746 27.7423C60.6746 27.8435 60.6746 27.8435 60.6746 27.9448C60.6746 28.0461 60.6746 28.1473 60.6746 28.2486C60.6746 28.5524 60.7759 28.8562 60.7759 29.16C60.7759 30.1726 60.8772 31.084 60.8772 31.9954C60.8772 33.4132 60.7759 34.7296 60.5734 36.0461C60.3708 37.5651 60.067 38.9828 59.662 40.5018C58.9531 42.9321 58.0417 45.0587 56.9278 47.1853C55.9151 48.9068 54.7 50.5271 53.4848 51.9448C51.9658 53.5651 50.4468 54.8815 48.624 56.0967C46.7 57.4132 44.6746 58.5271 42.4468 59.2359C41.1303 59.7423 39.9151 60.0461 38.4974 60.3499C36.9784 60.6537 35.5607 60.8562 34.0417 60.9575C33.4341 60.9575 32.8265 61.0587 32.2189 61.0587C30.8012 61.0587 29.4848 60.9575 28.067 60.7549C26.6493 60.5524 25.3329 60.3499 24.0164 59.9448C22.2949 59.5397 20.7759 58.9321 19.1556 58.122C17.1303 57.2106 15.4088 56.0967 13.6873 54.7802C12.1683 53.5651 10.8519 52.2486 9.5354 50.6283C8.11768 48.9068 7.10502 47.1853 6.19363 45.2613C5.18097 43.5397 4.47211 41.717 3.96578 39.6916C3.56071 38.2739 3.25692 36.8562 3.15565 35.3372C3.05438 34.4258 3.05438 33.4132 2.95312 32.5018C3.05438 31.9954 3.05438 31.3878 3.05438 30.8815Z" fill="#01070C"/>
<path d="M37.8896 7.79297V9.51449C37.8896 9.51449 37.8896 9.51449 37.7884 9.61575L37.6871 9.71702C36.877 10.3246 36.0669 10.4259 34.9529 10.1221C33.9403 9.91955 33.1301 9.51449 32.5225 9.10942C32.32 9.00816 32.2187 8.90689 32.0162 8.90689C31.915 8.90689 31.7124 8.90689 31.6112 9.10942C30.6998 9.61575 29.7884 10.0208 28.877 10.1221C27.9656 10.2233 27.2567 10.1221 26.6491 9.71702C26.4466 9.51449 26.2441 9.31196 25.9403 9.10942L25.5352 8.80563L25.2314 9.31196C24.7251 10.1221 24.4213 11.0335 24.32 11.8436L24.2188 12.4512H24.8263C26.0415 12.5525 27.0542 12.8563 28.0669 13.5651C28.5732 13.9702 29.0795 14.274 29.6871 14.5778C29.9909 14.8816 30.396 14.9828 30.801 15.0841C30.9023 15.0841 31.1048 15.1854 31.2061 15.1854C31.5099 15.2866 31.7124 15.3879 32.0162 15.3879C32.6238 15.3879 33.1301 15.0841 33.6365 14.8816C33.9403 14.679 34.2441 14.5778 34.4466 14.4765C35.0542 14.1727 35.5605 13.8689 36.1681 13.4639C36.877 13.0588 37.3833 12.755 38.1934 12.5525C38.2947 12.5525 38.4972 12.4512 38.6998 12.4512C38.9023 12.4512 39.1048 12.3499 39.3074 12.3499L39.7124 12.2487V11.8436C39.7124 11.3373 39.1048 9.81829 38.801 9.31196L37.8896 7.79297Z" fill="#01070C"/>
<path d="M55.7121 28.8561C56.1171 29.3624 56.6235 29.7675 57.0285 30.2738C57.6361 30.8814 58.1425 31.3877 58.7501 31.9953L59.6614 32.9067V31.5903C59.6614 31.2865 59.6614 31.0839 59.5602 30.7801C59.5602 30.5776 59.5602 30.2738 59.5602 30.0713C59.5602 29.7675 59.5602 29.4637 59.4589 29.2612C59.4589 28.9574 59.4589 28.7548 59.4589 28.451V27.5396C59.3577 26.8308 59.2564 26.1219 59.0539 25.4131C58.5475 22.9827 57.6361 20.451 56.4209 18.0207C55.4083 15.9953 54.0918 13.97 52.1678 11.9447C51.2564 10.932 50.0412 9.81812 48.9273 9.008C48.826 8.90673 48.6235 8.80546 48.5222 8.7042C48.3197 8.60293 48.2184 8.4004 48.0159 8.29913C46.4969 7.28648 45.1804 6.47635 43.7627 5.86875C42.345 5.15989 40.7247 4.5523 39.1045 4.14724C38.902 4.04597 38.5982 4.04597 38.2944 3.9447C37.8893 3.84344 37.4842 3.74217 37.0792 3.53964C35.4589 2.83078 34.1425 2.32445 32.9273 2.02065C32.4209 1.81812 31.7121 1.51432 31.0032 1.91939L30.902 2.02065C29.6868 2.52698 28.4716 2.93205 27.3577 3.33711C26.9526 3.43837 26.5475 3.53964 26.1425 3.74217H25.8387C25.7374 3.74217 25.6361 3.84344 25.5349 3.84344C25.4336 3.84344 25.2311 3.9447 25.1298 3.9447C23.8133 4.2485 22.4969 4.75483 21.383 5.15989C19.864 5.86875 18.7501 6.47635 17.6361 7.08394C16.7247 7.59027 15.8133 8.19787 15.0032 8.80546C14.0918 9.51432 13.1804 10.3245 12.3703 11.1346C12.0665 11.4384 11.7627 11.7422 11.4589 12.046C11.2564 12.2485 11.0539 12.451 10.8513 12.6536C9.23107 14.5776 7.91461 16.6029 6.90195 18.7295C5.99056 20.7548 5.2817 22.8814 4.77537 25.1093C4.67411 25.6156 4.57284 26.1219 4.47157 26.6282C4.37031 27.1346 4.37031 27.5396 4.26904 28.046V28.1472C4.26904 28.3498 4.26904 28.451 4.26904 28.6536C4.26904 29.1599 4.26904 29.8688 4.37031 30.4763V32.7042L5.2817 31.7928C6.29436 30.6789 7.30702 29.6662 8.31968 28.6536C8.42094 28.7548 8.52221 28.8561 8.62347 28.9574C8.72474 29.0586 8.82601 29.1599 8.92727 29.2612C8.62347 29.7675 8.31968 30.0713 8.11714 30.3751C7.71208 30.7801 7.40828 31.1852 7.00322 31.5903C6.49689 31.9953 6.09183 32.5017 5.5855 32.9067C5.38297 33.1093 5.18044 33.4131 4.87664 33.6156C4.67411 33.8181 4.67411 34.1219 4.67411 34.4257V34.527C4.87664 35.3371 4.9779 36.046 5.07917 36.7548V36.9574C5.07917 37.0586 5.07917 37.0586 5.18044 37.1599C5.18044 37.2612 5.2817 37.3624 5.2817 37.565L5.5855 38.3751L6.19309 37.7675C7.50955 36.451 8.72474 35.2358 9.93993 33.9194C11.0539 32.8055 12.1678 31.5903 13.383 30.4763C13.4842 30.5776 13.5855 30.6789 13.6868 30.6789C13.383 30.8814 13.0792 31.0839 12.8766 31.2865C12.0665 32.0966 11.6614 32.9067 11.6614 33.8181L6.29436 39.1852C6.09183 39.3877 6.09183 39.6915 6.09183 39.8941V39.9953C6.49689 41.4131 7.20575 42.8308 7.71208 43.9447C8.82601 45.97 10.0412 47.7928 11.5602 49.5143C11.6614 49.6156 11.7627 49.7169 11.7627 49.9194C11.9652 51.6409 12.7754 53.3624 14.0918 54.6789C14.902 55.6915 15.9146 56.2991 17.1298 56.7042C18.6488 57.3118 20.269 57.5143 21.788 57.3118H22.1931C23.0032 57.5143 23.6108 57.7169 24.3197 57.9194C24.9273 58.1219 25.4336 58.2232 25.9399 58.4257C26.4463 58.527 26.9526 58.7295 27.5602 58.8308C28.8766 59.2358 30.3956 59.3371 32.3197 59.3371C33.4336 59.3371 34.4463 59.2358 35.5602 59.0333C36.269 58.932 36.9779 58.8308 37.5855 58.6283C37.8893 58.527 38.0918 58.527 38.3956 58.4257C39.0032 58.2232 39.5095 58.1219 40.0159 57.9194C40.5222 57.7169 41.0285 57.6156 41.6361 57.4131C41.9399 57.3118 42.1425 57.2105 42.345 57.2105C43.864 57.3118 45.0792 57.3118 46.1931 57.008C48.0159 56.6029 49.6361 55.6915 50.9526 54.0713C51.9652 52.9574 52.5728 51.6409 52.7754 50.2232C52.8766 49.8181 52.9779 49.5143 53.1804 49.3118C55.7121 46.3751 57.4336 43.2358 58.5475 39.8941V39.6915C58.5475 39.3877 58.4463 39.2865 58.345 39.0839L55.9146 36.6536C55.0032 35.6409 53.9906 34.6282 53.1804 33.8181L53.0792 33.7169C53.0792 33.6156 53.0792 33.4131 52.9779 33.3118V33.2105C52.7754 32.5017 52.3703 31.7928 51.6614 31.1852C51.3577 30.9827 51.0539 30.7801 50.7501 30.5776C50.8513 30.4763 50.8513 30.4763 50.9526 30.3751C53.383 32.9067 55.7121 35.2358 58.0412 37.6662L58.9526 38.5776V37.2612C59.0539 36.1472 59.2564 35.1346 59.4589 34.2232V34.1219C59.4589 33.8181 59.2564 33.6156 59.2564 33.5143C58.7501 33.008 58.2437 32.5017 57.8387 31.9953C57.3323 31.489 56.826 30.9827 56.3197 30.4763L55.1045 29.2612C55.2058 29.1599 55.307 29.0586 55.4083 28.9574C55.5095 29.0586 55.6108 28.9574 55.7121 28.8561ZM45.8893 36.1472C43.7627 37.6662 41.8387 39.5903 39.9146 41.9194L39.5095 42.3245L40.0159 42.6283C41.2311 43.3371 42.4463 43.8434 43.4589 43.9447C43.7627 43.9447 43.864 43.9447 44.1678 43.6409C45.4842 41.7169 46.1931 39.6915 46.5982 37.2612C46.6994 37.0586 46.6994 36.7548 46.6994 36.5523V35.7422C46.902 35.6409 47.0032 35.6409 47.2057 35.5396L47.5096 37.7675C47.6108 38.7802 47.5095 40.0966 47.307 41.3118C47.1045 42.2232 46.902 43.1346 46.5982 43.8434C46.1931 44.9574 45.2817 45.4637 44.0665 45.3624C43.0539 45.2612 42.1425 44.9574 40.9273 44.2485C40.1171 43.7422 39.307 43.2358 38.4969 42.7295C38.6994 42.527 38.8007 42.3245 38.902 42.1219C39.0032 42.0207 39.1045 41.9194 39.1045 41.8181C39.307 41.6156 39.6108 41.3118 39.8133 41.1093C40.3197 40.6029 40.826 40.0966 41.3323 39.5903C42.8513 38.0713 44.1678 36.9574 45.5855 36.2485C45.788 36.1472 45.9906 36.046 46.1931 35.9447L45.8893 36.1472ZM32.0159 50.8308C33.1298 52.1472 34.2437 53.4637 35.6614 54.4764C33.8387 54.9827 30.0918 54.9827 28.3703 54.4764C29.6868 53.4637 30.902 52.1472 32.0159 50.8308ZM35.6614 45.97C35.864 45.6662 36.0665 45.3624 36.3703 45.1599C36.4716 45.2612 36.5728 45.2612 36.6741 45.3624C38.6994 47.0839 40.6235 48.1979 42.6488 48.8055C43.7627 49.3118 44.9779 49.4131 46.2944 49.3118C48.0159 49.1093 49.2311 47.9953 49.7374 46.2738C49.7374 46.1726 49.7374 46.0713 49.8387 45.97C49.9399 46.5776 50.0412 47.1852 50.0412 47.7928C50.0412 49.1093 49.7374 50.2232 49.0285 51.0333C48.6235 51.5396 47.9146 52.046 47.2057 52.3498C45.6868 52.8561 44.269 52.8561 42.7501 52.3498C41.3323 51.9447 40.1171 51.2358 39.0032 50.527C37.6868 49.6156 36.3703 48.5017 35.3577 47.3877C35.2564 47.1852 35.1551 47.0839 35.0539 46.9827C35.0539 46.6789 35.3577 46.2738 35.6614 45.97ZM45.0792 32.8055C43.3577 33.5143 41.5349 34.527 39.8133 35.8434C37.8893 37.2612 36.269 38.9827 34.8513 40.6029C33.8387 41.9194 32.7247 43.2358 31.4083 44.7548C30.902 45.4637 30.2944 46.0713 29.6868 46.6789C29.383 46.9827 29.0792 47.2865 28.7754 47.5903C27.7627 48.6029 26.5475 49.6156 25.1298 50.7295C23.8133 51.6409 22.6994 52.2485 21.4842 52.5523C20.0665 52.9574 18.7501 53.0586 17.6361 52.8561C16.4209 52.5523 15.5095 51.9447 14.8007 50.7295C14.3956 50.0207 14.1931 49.2105 14.0918 48.0966C13.9906 47.2865 14.0918 46.3751 14.2944 45.565C14.2944 45.8688 14.3956 46.1726 14.4969 46.3751C14.902 47.8941 16.1171 48.9067 17.7374 49.2105C18.8513 49.3118 19.7627 49.2105 20.7754 48.9067C22.5982 48.2991 24.4209 47.489 26.1425 46.1726C27.3576 45.3624 28.5728 44.3498 29.9906 43.0333C30.2944 42.7295 30.4969 42.527 30.8007 42.2232C31.307 41.6156 31.9146 41.1093 32.5222 40.5017C34.0412 38.9827 35.4589 37.7675 37.2817 36.3498C38.6994 35.1346 40.4209 34.1219 42.1425 33.2105C43.864 32.4004 45.2817 31.8941 46.5982 31.7928C47.1045 31.6915 47.7121 31.7928 48.2184 31.8941C47.1045 32.0966 46.1931 32.2991 45.0792 32.8055ZM41.9399 12.451C40.826 12.5523 39.8133 12.5523 38.6994 12.8561C38.5982 12.8561 38.3956 12.8561 38.2944 12.8561L37.8893 12.9574V13.1599L35.7627 14.0713H38.1931C38.3956 14.0713 38.5982 13.97 38.6994 13.97C38.8007 13.97 38.902 13.8688 38.902 13.8688C39.4083 13.8688 40.0159 13.8688 40.6235 13.97C40.1171 13.97 39.5096 13.97 38.902 14.1726C37.788 14.3751 36.6741 14.7801 35.5602 15.2865C35.1551 15.489 34.6488 15.6915 34.1425 15.8941C33.6361 16.0966 33.1298 16.2991 32.7247 16.5017L32.2184 16.6029V17.2105L31.5096 16.9067C31.307 16.8055 31.1045 16.7042 30.902 16.5017L30.8007 16.4004C29.788 15.9953 28.7754 15.5903 27.864 15.0839C27.2564 14.7801 26.6488 14.4763 25.8387 14.2738C25.3323 14.1726 24.826 14.0713 24.3197 14.0713C24.826 14.0713 25.2311 14.0713 25.6361 14.0713H28.6741L25.9399 13.0586C24.6235 12.5523 23.2058 12.451 21.8893 12.451C22.0918 11.5396 22.4969 10.6282 23.307 9.51432C24.0159 8.60293 25.0285 7.69154 26.0412 6.98268C26.345 6.78015 26.6488 6.57762 26.9526 6.47635C27.2564 6.27382 27.5602 6.07129 27.864 5.86875C28.3703 5.56496 28.8766 5.26116 29.383 5.05863C29.8893 4.8561 30.2944 4.65356 30.8007 4.45103C31.2058 4.2485 31.6108 4.14724 32.0159 3.9447C32.2184 4.04597 32.5222 4.14724 32.7247 4.2485C33.2311 4.45103 33.6361 4.5523 34.0412 4.8561C34.345 4.95736 34.5475 5.15989 34.8513 5.26116C35.3577 5.56496 35.9652 5.86875 36.4716 6.07129C37.1804 6.47635 38.0918 7.08394 39.0032 7.89407C40.0159 8.80546 40.7247 9.61559 41.2311 10.6282C41.6361 11.2358 41.8387 11.7422 41.9399 12.2485C41.9399 12.2485 41.9399 12.3498 41.9399 12.451ZM19.5602 22.7801C18.9526 22.1726 18.5475 21.0586 18.5475 20.1472C18.6488 20.3498 18.8513 20.5523 19.0539 20.8561C19.2564 21.0586 19.4589 21.4637 19.5602 21.8688C19.5602 22.1726 19.5602 22.4763 19.5602 22.7801ZM17.4336 37.0586L17.7374 38.6789C18.0412 40.4004 18.7501 42.1219 19.7627 43.5396C19.9652 43.9447 20.269 44.046 20.5728 44.046H20.6741C21.788 43.8434 22.8007 43.2358 23.7121 42.7295L24.2184 42.2232L24.1171 41.9194C23.4083 40.7042 19.864 37.2612 18.345 36.2485C18.2437 36.1472 18.1425 36.1472 18.1425 36.1472L17.7374 35.9447C18.2437 36.2485 18.7501 36.5523 19.2564 36.8561L19.5602 37.0586C20.7754 37.97 22.1931 39.1852 23.5095 40.6029C24.1171 41.2105 24.826 41.9194 25.4336 42.6283C24.826 43.0333 24.2184 43.4384 23.7121 43.8434C22.8007 44.3498 21.8893 44.8561 21.0792 45.1599C20.3703 45.3624 19.7627 45.565 19.0539 45.4637C18.4463 45.3624 17.9399 45.0586 17.5349 44.451C17.3323 44.1472 17.2311 43.7422 17.1298 43.4384C17.0285 43.2358 17.0285 43.0333 16.9273 42.8308C16.5222 41.7169 16.4209 40.4004 16.3197 39.1852C16.3197 38.0713 16.3197 36.9574 16.5222 35.8434C16.5222 35.7422 16.5222 35.6409 16.5222 35.5396C16.6235 35.5396 16.7247 35.6409 16.826 35.6409C16.9273 35.7422 17.1298 35.7422 17.2311 35.8434V36.6536V36.8561L17.4336 37.0586ZM18.7501 29.565C18.8513 29.3624 19.0539 29.1599 19.1551 28.9574C19.3577 28.6536 19.6614 28.2485 19.864 27.9447L20.0665 27.8434C20.0665 27.8434 20.0665 27.8434 20.0665 27.7422C19.9652 27.9447 19.864 28.1472 19.6614 28.3498C19.5602 28.451 19.4589 28.6536 19.4589 28.7548C19.3577 28.9574 19.2564 29.1599 19.1551 29.3624C19.1551 29.4637 19.0539 29.565 19.0539 29.6662C18.9526 29.6662 18.8513 29.6662 18.7501 29.565ZM31.6108 36.3498L31.7121 36.451H31.8133C32.0159 36.5523 32.2184 36.451 32.4209 36.3498C33.1298 35.9447 33.7374 35.5396 34.4463 35.1346C34.9526 34.8308 35.3577 34.6282 35.864 34.3245C35.1551 34.8308 34.5475 35.3371 33.8387 35.8434C33.4336 36.1472 32.9273 36.5523 32.6235 36.7548C32.4209 36.8561 32.3197 36.9574 32.2184 37.0586C31.2058 36.2485 30.0918 35.4384 28.9779 34.6282C29.788 35.2358 30.6994 35.8434 31.6108 36.3498ZM44.269 28.7548C44.1678 28.5523 44.0665 28.3498 43.9652 28.1472V28.046C43.9652 28.046 43.9652 28.046 44.0665 28.1472C44.0665 28.2485 44.1678 28.2485 44.1678 28.3498C44.269 28.5523 44.4716 28.7548 44.4716 28.7548L45.1804 29.7675C45.0792 29.7675 44.9779 29.7675 44.8766 29.7675C44.6741 29.4637 44.4716 29.0586 44.269 28.7548ZM44.3703 22.6789C44.3703 22.1726 44.5728 21.565 44.7754 21.0586C44.8766 20.9574 44.9779 20.8561 44.9779 20.7548C45.0792 20.5523 45.1804 20.451 45.2817 20.3498C45.2817 20.2485 45.383 20.2485 45.383 20.1472C45.383 20.6536 45.2817 21.2612 45.0792 21.7675C44.8766 22.1726 44.6741 22.5776 44.3703 22.8814C44.3703 22.7801 44.3703 22.7801 44.3703 22.6789ZM43.4589 18.1219C43.0539 18.527 42.6488 19.0333 42.2437 19.7422C41.8387 20.6536 41.5349 21.565 41.5349 22.4763V22.5776C41.4336 22.5776 41.3323 22.5776 41.2311 22.5776C41.0285 22.5776 40.826 22.5776 40.5222 22.5776L40.9273 21.0586C41.0285 20.8561 41.0285 20.6536 41.0285 20.451C41.0285 20.3498 41.0285 20.1472 41.1298 19.9447C41.5349 19.2358 41.9399 18.527 42.4463 17.8181C42.6488 17.5143 42.8513 17.2105 43.0539 16.9067C43.2564 16.6029 43.5602 16.2991 43.7627 15.8941C43.864 15.7928 43.864 15.6915 43.9652 15.489C43.9652 15.3877 44.0665 15.2865 44.0665 15.1852L44.1678 15.0839V14.9827C44.1678 14.6789 43.9652 14.4763 43.6614 14.3751C43.5602 14.2738 43.3577 14.2738 43.2564 14.2738H43.3576C43.864 14.3751 44.269 14.4763 44.7754 14.5776C44.8766 15.7928 44.3703 16.9067 43.4589 18.1219ZM38.3956 17.008C38.3956 17.1093 38.3956 17.1093 38.3956 17.1093C38.3956 17.1093 38.3956 17.1093 38.2944 17.1093C37.6868 17.3118 37.0792 17.4131 36.5728 17.5143C36.5728 17.5143 36.4716 17.5143 36.4716 17.4131C37.0792 17.2105 37.6868 17.1093 38.3956 17.008ZM27.5602 17.4131C27.5602 17.5143 27.5602 17.5143 27.4589 17.5143H27.2564C26.7501 17.4131 26.2437 17.3118 25.8387 17.2105C25.8387 17.2105 25.8387 17.2105 25.8387 17.1093L25.7374 17.008C26.345 17.1093 27.0539 17.2105 27.5602 17.4131ZM19.7627 15.489L20.0665 16.0966C20.3703 16.6029 20.6741 17.1093 21.0792 17.5143C21.1804 17.7169 21.383 17.9194 21.4842 18.1219L21.788 18.527C22.1931 19.1346 22.5982 19.5396 22.8007 20.1472L22.902 20.2485C23.0032 20.3498 23.0032 20.5523 23.0032 20.7548C23.0032 20.8561 23.1045 21.0586 23.1045 21.1599L23.5095 22.3751L24.0159 21.1599C24.3197 20.5523 24.4209 19.8434 24.5222 19.1346C25.3323 19.3371 26.4463 19.5396 27.4589 19.5396C27.5602 19.5396 27.7627 19.5396 27.864 19.6409C28.1678 19.7422 28.3703 20.1472 28.269 20.451C28.269 20.5523 28.1678 20.7548 28.1678 20.8561C28.0665 20.9574 28.0665 21.1599 27.9652 21.2612L27.864 21.4637L28.0665 21.6662C28.1678 21.7675 28.269 21.7675 28.3703 21.8688L28.4716 21.97C28.6741 22.1726 28.8766 22.1726 28.9779 22.1726C29.0792 22.1726 29.2817 22.1726 29.4842 21.97L30.0918 21.3624C31.0032 20.2485 31.307 19.0333 30.902 17.8181C31.0032 17.7169 31.2058 17.7169 31.4083 17.6156L32.2184 17.3118L32.4209 17.4131C32.6235 17.5143 32.826 17.6156 33.0285 17.7169C33.0285 17.9194 32.9273 18.1219 32.9273 18.3245C32.826 20.1472 33.8387 21.1599 34.6488 21.7675L34.7501 21.8688H35.2564L35.3577 21.7675C35.4589 21.6662 35.5602 21.6662 35.6614 21.565C35.7627 21.565 35.7627 21.4637 35.864 21.4637L36.1678 21.3624V21.0586C36.1678 20.9574 36.1678 20.7548 36.0665 20.7548H35.9652C35.7627 20.5523 35.7627 20.3498 35.7627 20.1472C35.7627 19.9447 35.9652 19.7422 36.269 19.5396C37.2817 19.5396 38.2944 19.3371 39.2058 19.1346H39.4083H39.5095C39.5095 19.8434 39.8133 20.3498 40.0159 20.9574L40.6235 22.5776C39.1045 22.6789 37.788 22.8814 36.6741 23.3877C35.864 23.6915 35.0539 23.5903 34.345 22.8814C33.7374 22.2738 33.3323 21.6662 33.0285 20.9574C33.0285 20.7548 32.826 20.451 32.3197 20.451H31.5096C31.2058 20.451 30.902 20.7548 30.8007 21.0586C30.4969 21.7675 30.0918 22.4763 29.5855 22.9827C28.8766 23.5903 28.0665 23.6915 27.2564 23.3877C27.0539 23.2865 26.7501 23.2865 26.5475 23.1852C26.0412 22.9827 25.5349 22.8814 25.0285 22.7801C24.4209 22.6789 23.8133 22.5776 23.2058 22.5776C22.902 22.5776 22.5982 22.5776 22.2944 22.5776V22.3751C22.2944 21.1599 21.9906 19.9447 21.2817 18.932C21.0792 18.6282 20.7754 18.3245 20.5728 18.1219C19.7627 17.3118 19.2564 16.4004 18.9526 15.0839C18.8513 14.8814 18.8513 14.6789 18.8513 14.4763C19.1551 14.3751 19.5602 14.3751 19.864 14.2738C19.6614 14.3751 19.5602 14.4763 19.4589 14.5776C19.5602 15.0839 19.6614 15.2865 19.7627 15.489ZM17.7374 31.8941C19.3577 32.1979 20.7754 32.8055 22.0918 33.5143C23.9146 34.4257 25.5349 35.6409 27.0539 36.7548C27.9652 37.4637 28.8766 38.2738 29.6868 39.1852C29.383 39.489 29.0792 39.6915 28.8766 39.8941C28.6741 39.6915 28.4716 39.489 28.269 39.2865C27.1551 38.0713 25.8387 36.9574 24.2184 35.6409C22.8007 34.4257 21.1804 33.6156 20.0665 33.008C19.0539 32.6029 18.1425 32.2991 17.0285 32.0966C16.7247 32.0966 16.4209 31.9953 16.1171 31.9953H16.0159C16.5222 31.7928 17.1298 31.8941 17.7374 31.8941ZM14.902 29.4637C14.902 29.2612 15.0032 29.0586 15.0032 28.7548C15.0032 28.5523 15.0032 28.3498 15.1045 28.1472V27.6409C15.1045 27.4384 15.2058 27.2358 15.2058 27.0333C15.2058 26.8308 15.307 26.6282 15.307 26.4257C15.6108 25.5143 15.9146 24.5017 16.4209 23.5903C16.5222 23.8941 16.6235 24.1979 16.7247 24.5017C16.9273 25.1093 17.2311 25.6156 17.7374 26.2232C17.6361 26.3245 17.6361 26.3245 17.5349 26.4257C17.4336 26.6282 17.2311 26.7295 17.0285 26.932C16.9273 27.0333 16.826 27.2358 16.7247 27.3371C16.6235 27.4384 16.5222 27.6409 16.4209 27.7422L16.3197 27.8434V27.9447C16.1171 28.2485 15.9146 28.5523 15.8133 28.7548C15.6108 29.0586 15.4083 29.3624 15.2058 29.6662C15.1045 29.6662 14.902 29.7675 14.8007 29.8688C14.8007 29.7675 14.902 29.6662 14.902 29.4637ZM47.8133 27.9447L46.5982 26.4257C47.2058 25.6156 47.7121 24.7042 47.9146 23.6915C48.2184 24.2991 48.4209 25.008 48.6235 25.7169L49.2311 28.046V28.451C49.2311 28.7548 49.3323 29.0586 49.3323 29.3624C49.3323 29.565 49.3323 29.8688 49.4336 30.0713C49.3323 30.0713 49.2311 29.97 49.1298 29.97C48.6235 29.1599 48.2184 28.6536 47.8133 27.9447Z" fill="#01070C"/>
<path d="M41.2314 30.9826C40.9276 31.0839 40.6238 31.2864 40.4212 31.3877C39.4086 31.9953 38.4972 32.6029 37.5858 33.2105C35.8643 34.3244 34.244 35.5396 32.6238 36.856C32.4212 36.9573 32.32 37.1598 32.1174 37.2611C32.0162 37.3624 31.9149 37.3624 31.8136 37.2611C30.1934 35.9446 28.4719 34.6282 26.6491 33.413C25.3326 32.5016 24.1174 31.6915 22.6997 30.9826C22.6997 30.9826 22.6997 30.9826 22.6997 30.8813C22.801 30.8813 23.0035 30.9826 23.1048 30.9826C24.9276 31.6915 26.7503 32.6029 28.3706 33.5143C29.4845 34.2231 30.5984 34.8307 31.7124 35.5396C31.8136 35.6408 31.8136 35.6408 31.9149 35.5396C33.3326 34.7294 34.6491 33.8181 36.0668 33.1092C37.5858 32.1978 39.206 31.4889 40.8263 30.8813C41.1301 30.9826 41.1301 30.9826 41.2314 30.9826Z" fill="#F85F00"/>
<path d="M9.43412 29.1599C9.43412 29.0587 9.43412 29.1599 9.43412 29.1599V29.1599ZM61.586 31.8941C61.586 33.3118 61.4848 34.7295 61.2822 36.046C61.0797 37.565 60.7759 39.084 60.3708 40.603C59.662 43.0333 58.7506 45.2612 57.5354 47.3878C56.5227 49.1093 55.3075 50.8308 53.9911 52.2485C52.4721 53.8688 50.8518 55.2865 49.0291 56.5017C47.105 57.8182 44.9784 58.9321 42.7506 59.7422C41.4341 60.2485 40.1177 60.5523 38.6999 60.8561C37.181 61.1599 35.662 61.3625 34.143 61.4637C33.5354 61.4637 32.9278 61.565 32.3202 61.565C30.9025 61.565 29.4848 61.4637 28.067 61.2612C26.6493 61.0587 25.2316 60.8561 23.9151 60.4511C22.1936 60.046 20.5734 59.4384 18.9531 58.6283C16.9278 57.7169 15.105 56.603 13.3835 55.1852C11.8645 53.97 10.4468 52.5523 9.13032 50.9321C7.7126 49.2106 6.59868 47.3878 5.68728 45.4637C4.67463 43.8435 3.96576 41.9194 3.45944 39.8941C3.05437 38.4764 2.75057 36.9574 2.64931 35.4384C2.54804 34.527 2.54804 33.5144 2.44678 32.5017C2.44678 31.9954 2.44678 31.3878 2.44678 30.8814C2.44678 29.97 2.54804 29.0587 2.64931 28.046V27.9447C2.64931 27.8435 2.64931 27.7422 2.64931 27.6409V27.5397C2.75057 26.6283 2.95311 25.7169 3.05437 24.7042C3.5607 22.2738 4.26956 19.9447 5.38349 17.7169C6.49741 15.2865 7.91513 13.0587 9.73792 11.0333C10.4468 10.2232 11.2569 9.41309 12.067 8.70423C13.586 7.2865 15.3075 6.07131 17.2316 5.05866C18.8518 4.14726 20.5734 3.4384 22.3961 2.83081C23.6113 2.42574 24.8265 2.12195 26.143 1.91942C27.4594 1.71688 28.6746 1.51435 29.9911 1.41309C31.105 1.41309 32.1177 1.41309 33.2316 1.41309C34.8518 1.51435 36.3708 1.71688 37.8898 2.02068C39.6113 2.32448 41.3329 2.83081 42.9531 3.4384C45.0797 4.24853 47.0037 5.15992 48.8265 6.47638C49.7379 7.08397 50.7506 7.79283 51.5607 8.60296C52.4721 9.41309 53.2822 10.2232 54.0923 11.0333C55.6113 12.8561 57.0291 14.7802 58.0417 16.8055C59.1556 18.9321 59.9658 21.0587 60.5734 23.2865C60.9784 24.7042 61.181 26.2232 61.3835 27.6409C61.3835 27.6409 61.586 30.9827 61.586 31.8941ZM59.4594 31.1852C59.4594 31.1852 59.4594 30.1726 59.3582 29.6663C59.3582 29.1599 59.2569 28.5523 59.2569 28.046C59.2569 27.9447 59.2569 27.9447 59.2569 27.8435V27.7422C59.2569 27.6409 59.2569 27.5397 59.2569 27.3371C59.2569 27.3371 59.2569 27.3371 59.2569 27.2359C59.1556 26.527 59.0544 25.8181 58.8518 25.1093C58.3455 22.5776 57.4341 20.1473 56.2189 17.8182C55.105 15.6916 53.6873 13.6663 52.067 11.8435C51.0544 10.8308 50.0417 9.81815 48.9278 9.00802C48.624 8.80549 48.3202 8.50169 48.0164 8.29916C46.3961 7.48904 45.0797 6.67891 43.5607 5.97005C42.0417 5.26119 40.5227 4.75486 39.0037 4.24853C38.2949 4.046 37.586 3.94473 36.9784 3.64093C35.662 3.03334 34.2442 2.62828 32.8265 2.12195C32.3202 1.91942 31.8139 1.81815 31.3075 2.02068C31.2063 2.02068 31.2063 2.02068 31.105 2.12195C29.8898 2.52701 28.6746 2.93207 27.4594 3.4384C26.9531 3.64093 26.548 3.84347 26.0417 3.94473C25.8392 4.046 25.6367 4.046 25.3329 4.14726C24.0164 4.45106 22.8012 4.85612 21.586 5.36245C20.2696 5.86878 19.0544 6.47638 17.8392 7.2865C16.9278 7.79283 16.1177 8.40043 15.3075 9.00802C14.3961 9.71688 13.4848 10.4257 12.6746 11.3371C12.1683 11.8435 11.662 12.3498 11.2569 12.8561C9.73792 14.6789 8.42146 16.7042 7.4088 18.8308C6.49741 20.8561 5.68728 22.8814 5.28222 25.1093C5.07969 26.1219 4.97842 27.0333 4.77589 28.046C4.77589 28.7549 4.67463 29.565 4.57336 30.2738C4.57336 30.5776 4.57336 30.8814 4.57336 31.2865C5.78855 30.0713 6.90247 28.9574 8.0164 27.7422C8.42146 28.2485 8.92779 28.6536 9.33285 29.1599C8.52273 29.97 7.81387 30.7802 7.00374 31.5903C6.29488 32.2992 5.68728 33.008 4.97842 33.6156C4.87716 33.7169 4.77589 33.9194 4.87716 34.0207C4.97842 34.8308 5.07969 35.5397 5.28222 36.3498C5.28222 36.5523 5.38349 36.7549 5.48475 37.0587C8.0164 34.527 10.4468 31.9954 12.9784 29.4637C13.2822 29.7675 13.586 30.0713 13.9911 30.3751C13.9911 29.8688 13.9911 29.4637 14.0923 29.0587C14.0923 28.6536 14.1936 28.1473 14.2949 27.7422C14.2949 27.6409 14.2949 27.5397 14.2949 27.4384V27.3371C14.3961 26.9321 14.4974 26.4257 14.5987 26.0207C14.9025 24.8055 15.4088 23.5903 16.0164 22.4764C16.1177 22.1726 16.3202 21.97 16.4215 21.6663C16.4215 22.4764 16.624 23.1852 16.9278 23.9954C17.2316 24.7042 17.6367 25.4131 18.143 25.9194C17.8392 26.2232 17.5354 26.6283 17.2316 26.9321C17.0291 27.2359 16.8265 27.4384 16.624 27.7422V27.8435C16.2189 28.4511 15.8139 29.1599 15.4088 29.7675C15.4088 29.8688 15.3075 29.8688 15.2063 29.97C14.2949 30.2738 13.4848 30.6789 12.7759 31.3878C12.1683 31.9954 11.662 32.7042 11.662 33.7169C11.662 33.8182 11.662 33.8181 11.5607 33.9194C10.6493 34.8308 9.73792 35.8435 8.72526 36.7549C7.91513 37.565 7.00374 38.4764 6.19361 39.2865C6.09235 39.3878 6.09235 39.3878 6.09235 39.5903C6.49741 40.9068 7.10501 42.2232 7.7126 43.4384C8.72526 45.4637 10.0417 47.2865 11.4594 48.9068C11.662 49.1093 11.7632 49.3118 11.7632 49.6156C11.9658 51.3371 12.7759 52.8561 13.9911 54.0713C14.8012 54.8814 15.8139 55.489 16.8265 55.9954C18.2442 56.603 19.7632 56.7042 21.2822 56.603C21.4848 56.603 21.586 56.5017 21.7886 56.603C22.4974 56.8055 23.3075 57.008 24.0164 57.2106C25.1303 57.5144 26.143 57.8181 27.2569 58.1219C28.7759 58.527 30.2949 58.6283 31.9151 58.6283C33.0291 58.6283 34.143 58.527 35.1556 58.3245C36.067 58.1219 37.0797 57.9194 37.9911 57.7169C39.105 57.4131 40.1177 57.1093 41.2316 56.7042C41.5354 56.603 41.8392 56.5017 42.143 56.5017C43.3582 56.603 44.5734 56.603 45.7885 56.2992C47.5101 55.8941 49.0291 54.9827 50.2442 53.565C51.1556 52.5523 51.7632 51.2359 51.9658 49.9194C52.067 49.5144 52.1683 49.1093 52.4721 48.8055C54.8012 46.0713 56.624 43.0333 57.7379 39.5903C57.7379 39.489 57.7379 39.3878 57.6367 39.3878C56.8265 38.5776 56.0164 37.7675 55.2063 36.9574C54.2949 36.046 53.3835 35.1346 52.4721 34.1219C52.3708 34.0207 52.1683 33.8181 52.2696 33.6156C52.2696 33.5144 52.2696 33.3118 52.1683 33.2106C51.9658 32.5017 51.5607 31.8941 51.0544 31.3878C50.4468 30.7802 49.6366 30.3751 48.9278 30.1726C48.8265 30.1726 48.624 30.0713 48.5227 29.97C48.1177 29.2612 47.6113 28.6536 47.2063 27.9447C46.6999 27.3371 46.1936 26.7295 45.6873 26.1219C46.8012 24.9068 47.3075 23.489 47.4088 21.7675C47.5101 21.97 47.6113 22.0713 47.7126 22.2738C48.2189 23.1852 48.624 24.1979 48.9278 25.2106C49.2316 26.0207 49.3329 26.8308 49.5354 27.6409C49.5354 27.7422 49.5354 27.8435 49.5354 27.9447V28.046C49.6367 28.6536 49.6366 29.3625 49.7379 29.97C49.7379 30.1726 49.7379 30.2738 49.7379 30.4764C50.0417 30.1726 50.3455 29.7675 50.6493 29.4637C53.181 32.0966 55.7126 34.6283 58.143 37.1599C58.143 37.1599 58.143 37.1599 58.143 37.0587C58.3455 36.046 58.548 35.0333 58.6493 33.9194C58.6493 33.8181 58.6493 33.8182 58.548 33.7169C57.5354 32.7042 56.624 31.6916 55.6113 30.6789C55.2063 30.2738 54.8012 29.8688 54.3961 29.4637C54.2949 29.3625 54.1936 29.2612 54.0923 29.1599C54.4974 28.6536 55.0037 28.2485 55.4088 27.7422C57.0291 28.8561 58.2442 30.0713 59.4594 31.1852C59.4594 31.1852 59.3582 31.1852 59.4594 31.1852ZM18.548 14.2738C18.548 14.1726 18.548 14.0713 18.6493 14.0713C19.662 13.8688 20.7759 13.565 21.7886 13.4637C23.105 13.2612 24.4215 13.1599 25.7379 13.2612C25.7379 13.2612 25.7379 13.2612 25.8392 13.2612C24.4215 12.6536 22.9025 12.6536 21.3835 12.6536C21.3835 12.4511 21.4848 12.2485 21.4848 12.046C21.7886 10.8308 22.2949 9.81815 23.0037 8.90676C23.8139 7.8941 24.7253 7.08397 25.8392 6.27385C26.4468 5.86878 27.0544 5.46372 27.662 5.15992C28.1683 4.85612 28.6746 4.55233 29.2822 4.34979C30.1936 3.84347 31.0037 3.4384 31.9151 3.1346C32.0164 3.1346 32.0164 3.1346 32.1177 3.1346C32.8265 3.4384 33.6367 3.7422 34.3455 4.046C35.1556 4.45106 35.9658 4.95739 36.7759 5.36245C37.7885 5.86878 38.5987 6.57764 39.4088 7.2865C40.3202 8.09663 41.1303 9.00802 41.7379 10.1219C42.0417 10.6283 42.2442 11.2359 42.4468 11.8435C42.4468 12.046 42.548 12.3498 42.6493 12.6536C41.1303 12.6536 39.6113 12.7549 38.1936 13.3625C38.2949 13.3625 38.3961 13.3625 38.4974 13.3625C39.7126 13.3625 40.9278 13.3625 42.143 13.565C43.2569 13.7675 44.2696 13.97 45.3835 14.1726C45.586 14.1726 45.586 14.2738 45.586 14.4764C45.586 15.9954 44.9784 17.2106 43.9658 18.4257C43.5607 18.9321 43.1556 19.4384 42.8518 19.9447C42.3455 20.7549 42.2442 21.565 42.2442 22.4764C42.2442 22.6789 42.2442 22.9827 42.2442 23.1852C41.9404 23.1852 41.6367 23.084 41.4341 23.084C39.9151 22.9827 38.3961 23.2865 36.9784 23.8941C35.8645 24.4004 34.9531 24.1979 34.143 23.2865C33.5354 22.6789 33.0291 21.97 32.7253 21.1599C32.7253 21.0587 32.624 21.0587 32.5227 21.0587C32.2189 21.0587 31.9151 21.0587 31.7126 21.0587C31.6113 21.0587 31.5101 21.0587 31.5101 21.2612C31.2063 22.0713 30.6999 22.8814 30.0923 23.489C29.2822 24.2992 28.3708 24.5017 27.2569 23.9954C26.548 23.6916 25.8392 23.489 25.1303 23.3878C24.2189 23.2865 23.3075 23.1852 22.2949 23.2865C22.1936 23.2865 22.0923 23.2865 21.9911 23.3878C21.9911 23.084 21.9911 22.8814 21.9911 22.5776C21.8898 21.4637 21.586 20.4511 21.0797 19.4384C20.8772 19.1346 20.6746 18.9321 20.4721 18.7295C19.5607 17.8181 19.0544 16.8055 18.7506 15.489C18.548 14.8814 18.548 14.5776 18.548 14.2738ZM35.7632 15.8941C34.8518 16.2992 33.9404 16.7042 32.9278 17.1093C32.8265 17.1093 32.7253 17.2106 32.7253 17.2106C32.7253 17.2106 32.7253 17.2106 32.7253 17.3118C33.0291 17.4131 33.3329 17.5144 33.6367 17.7169C33.5354 18.0207 33.4341 18.4257 33.4341 18.7295C33.3329 20.046 33.9404 20.9574 34.9531 21.7675C34.9531 21.7675 35.0544 21.7675 35.1556 21.7675C35.3582 21.6663 35.4594 21.565 35.662 21.4637C35.662 21.3625 35.5607 21.3625 35.5607 21.2612C35.1556 20.5523 35.2569 19.7422 35.9658 19.3371C36.067 19.3371 36.067 19.2359 36.1683 19.2359C37.2822 19.2359 38.2949 19.0333 39.4088 18.8308C39.6113 18.8308 39.8139 18.7295 40.0164 18.7295C40.0164 19.6409 40.2189 20.3498 40.5227 21.1599C40.5227 21.1599 40.5227 21.1599 40.5227 21.0587C40.624 20.7549 40.624 20.4511 40.7253 20.1473C41.0291 19.3371 41.6366 18.6283 42.143 17.9194C42.548 17.3118 43.0544 16.7042 43.4594 16.0966C43.5607 15.8941 43.662 15.5903 43.7632 15.3878C43.662 15.3878 43.662 15.2865 43.662 15.2865C42.143 14.6789 40.624 14.5776 39.0037 14.8814C37.8898 14.8814 36.7759 15.3878 35.7632 15.8941ZM28.3708 13.1599C28.8772 13.4637 29.4848 13.8688 29.9911 14.1726C30.4974 14.3751 31.0037 14.5776 31.4088 14.7802C32.1177 14.9827 32.7253 14.7802 33.3329 14.4764C34.143 14.0713 34.9531 13.565 35.8645 13.0587C36.5734 12.6536 37.2822 12.3498 37.9911 12.1473C38.3961 12.046 38.6999 12.046 39.105 11.9447C39.105 11.5397 38.6999 10.1219 38.2949 9.71688C38.1936 9.81815 38.1936 9.91941 38.0923 9.91941C37.9911 10.0207 37.8898 10.0207 37.8898 10.1219C36.9784 10.8308 35.8645 11.0333 34.7506 10.7295C33.8392 10.527 32.9278 10.1219 32.1177 9.61562C32.0164 9.51435 31.9151 9.51435 31.8139 9.61562C30.9025 10.1219 29.9911 10.6283 28.8772 10.7295C27.9658 10.8308 27.0544 10.7295 26.2442 10.2232C25.9404 10.0207 25.7379 9.81815 25.5354 9.61562C25.1303 10.3245 24.8265 11.0333 24.7253 11.9447H24.8265C26.143 12.046 27.3582 12.4511 28.3708 13.1599ZM20.2696 15.2865C20.3708 15.489 20.3708 15.6916 20.5734 15.8941C21.0797 16.603 21.4848 17.2106 21.9911 17.9194C22.4974 18.6283 23.0037 19.2359 23.3075 20.046C23.4088 20.3498 23.5101 20.7549 23.6113 21.0587C24.0164 20.2485 24.2189 19.5397 24.1177 18.6283C24.2189 18.6283 24.2189 18.6283 24.2189 18.6283C25.3329 18.9321 26.4468 19.0333 27.662 19.1346C27.8645 19.1346 27.9658 19.1346 28.1683 19.2359C28.6746 19.5397 29.0797 20.046 28.8772 20.6536C28.7759 20.9574 28.6746 21.1599 28.5734 21.4637C28.6746 21.565 28.8772 21.6663 28.9784 21.7675C29.0797 21.8688 29.181 21.8688 29.2822 21.7675C29.4848 21.565 29.6873 21.3625 29.8898 21.1599C30.6999 20.1473 31.0037 19.1346 30.4974 17.8182C30.4974 17.7169 30.4974 17.7169 30.5987 17.6156C30.9025 17.5144 31.2063 17.4131 31.4088 17.3118C31.4088 17.3118 31.4088 17.3118 31.4088 17.2106C31.2063 17.1093 31.0037 17.008 30.8012 17.008C29.7885 16.603 28.7759 16.2992 27.8645 15.6916C27.2569 15.2865 26.6493 14.9827 25.9404 14.8814C25.0291 14.6789 24.0164 14.5776 23.0037 14.6789C22.0923 14.7802 21.2822 14.8814 20.4721 15.1852C20.2696 15.1852 20.1683 15.1852 20.2696 15.2865ZM36.9784 35.8435C35.2569 37.1599 33.7379 38.4764 32.2189 39.9954C31.3075 40.8055 30.4974 41.7169 29.6873 42.527C28.4721 43.6409 27.2569 44.6536 25.9404 45.565C24.3202 46.6789 22.5987 47.5903 20.6746 48.1979C19.7632 48.5017 18.8518 48.603 17.8392 48.5017C16.4215 48.2992 15.4088 47.489 15.0037 46.0713C14.6999 45.2612 14.6999 44.3498 14.6999 43.5397C14.6999 43.4384 14.6999 43.3371 14.6999 43.2359C14.6999 43.2359 14.6999 43.2359 14.6999 43.3371C14.5987 43.5397 14.4974 43.7422 14.3961 44.046C13.8898 45.2612 13.6873 46.5776 13.7886 47.8941C13.8898 48.9068 14.0923 49.8182 14.5987 50.7295C15.3075 51.9447 16.3202 52.7549 17.7379 53.0587C19.1556 53.3625 20.5734 53.1599 21.8898 52.7549C23.3075 52.3498 24.5227 51.6409 25.6367 50.8308C26.9531 49.8181 28.1683 48.8055 29.3835 47.5903C30.2949 46.5776 31.2063 45.6663 32.0164 44.6536C33.2316 43.2359 34.3455 41.9194 35.4594 40.5017C36.9784 38.7802 38.4974 37.1599 40.3202 35.8435C41.9404 34.6283 43.662 33.6156 45.4848 32.9068C46.4974 32.5017 47.4088 32.2992 48.5227 32.2992C49.1303 32.2992 49.7379 32.5017 50.2442 32.8055C50.4468 32.9068 50.548 33.1093 50.7506 33.2106V33.1093C50.4468 32.4004 49.9404 31.7928 49.2316 31.489C48.4215 31.1852 47.6113 31.084 46.8012 31.1852C45.181 31.2865 43.5607 31.8941 42.143 32.603C40.2189 33.5144 38.5987 34.6283 36.9784 35.8435ZM49.3329 43.2359C49.3329 43.3371 49.3329 43.3371 49.3329 43.2359C49.3329 44.1473 49.3329 45.0587 49.1303 45.8688C48.7253 47.2865 47.6113 48.2992 46.0923 48.5017C44.8772 48.603 43.7632 48.4004 42.7506 47.9954C40.624 47.2865 38.6999 46.0713 36.8772 44.5523C36.6746 44.4511 36.5734 44.2485 36.3708 44.046C36.3708 44.046 36.3708 44.046 36.2696 44.046C35.5607 44.8561 34.9531 45.7675 34.2442 46.5776C34.143 46.6789 34.143 46.7802 34.2442 46.7802C34.4468 46.9827 34.6493 47.1852 34.7506 47.3878C35.8645 48.603 37.181 49.7169 38.4974 50.6283C39.7126 51.4384 40.9278 52.1473 42.3455 52.5523C43.9658 53.0587 45.4848 53.0587 47.105 52.5523C47.9151 52.2485 48.7253 51.7422 49.2316 51.0333C50.0417 50.0207 50.3455 48.8055 50.3455 47.489C50.3455 45.97 50.0417 44.5523 49.3329 43.2359C49.4341 43.3371 49.5354 43.4384 49.3329 43.2359ZM23.9151 39.8941C24.624 40.7042 25.4341 41.4131 26.143 42.2232C26.143 42.2232 26.2442 42.3245 26.2442 42.4257C25.4341 42.9321 24.7253 43.4384 24.0164 43.9447C23.2063 44.4511 22.2949 44.9574 21.2822 45.2612C20.5734 45.4637 19.8645 45.6662 19.0544 45.565C18.2442 45.4637 17.6367 45.0587 17.1303 44.3498C16.8265 43.8435 16.624 43.2359 16.5227 42.6283C16.2189 41.3118 16.0164 40.0966 15.9151 38.7802C15.9151 37.6663 15.9151 36.5523 16.1177 35.4384C16.1177 35.1346 16.2189 34.8308 16.2189 34.527C16.5227 34.6283 16.8265 34.6283 17.1303 34.7295C18.143 35.1346 19.0544 35.6409 19.9658 36.3498C21.3835 37.4637 22.6999 38.6789 23.9151 39.8941ZM23.6113 42.2232C22.9025 41.008 19.0544 37.3625 17.7379 36.5523C17.7379 36.6536 17.7379 36.6536 17.7379 36.7549C17.8392 37.3625 17.9404 37.97 18.0417 38.5776C18.4468 40.2992 19.1556 41.9194 20.067 43.3371C20.1683 43.5397 20.2696 43.5397 20.4721 43.5397C21.4848 43.3371 22.4974 42.9321 23.4088 42.3245C23.6113 42.3245 23.6113 42.2232 23.6113 42.2232ZM40.7253 44.3498C39.8139 43.7422 38.9025 43.1346 37.8898 42.527L37.7885 42.4257C38.1936 42.0207 38.4974 41.6156 38.9025 41.2106C39.6113 40.4004 40.4215 39.6916 41.1303 38.9827C42.4468 37.6662 43.8645 36.5523 45.4848 35.5397C46.0923 35.1346 46.6999 34.8308 47.4088 34.7295C47.4088 34.7295 47.4088 34.7295 47.5101 34.7295C47.8139 34.6283 47.8139 34.6283 47.8139 34.9321C47.9151 35.7422 48.0164 36.5523 48.1177 37.4637C48.2189 38.6789 48.1177 39.9954 47.9151 41.2106C47.8139 42.1219 47.6113 43.0333 47.2063 43.8435C46.6999 45.1599 45.586 45.7675 44.1683 45.6663C42.8518 45.4637 41.7379 44.9574 40.7253 44.3498ZM40.3202 42.2232C41.3329 42.8308 42.3455 43.3371 43.4594 43.5397C43.5607 43.5397 43.662 43.5397 43.7632 43.4384C45.0797 41.5144 45.8898 39.3878 46.0923 37.1599C46.0923 36.9574 46.0923 36.8561 46.1936 36.6536C43.9658 38.1726 42.0417 40.0966 40.3202 42.2232ZM16.8265 32.2992C17.8392 32.5017 18.7506 32.8055 19.662 33.2106C21.0797 33.9194 22.4974 34.7295 23.7126 35.7422C25.1303 36.8561 26.548 38.0713 27.7632 39.3878C28.067 39.6916 28.3708 39.9954 28.7759 40.2992C29.2822 39.8941 29.8898 39.3878 30.4974 38.8814C30.3961 38.7802 30.3961 38.7802 30.2949 38.7802C29.3835 37.8688 28.3708 36.9574 27.3582 36.1473C25.7379 34.9321 24.1177 33.7169 22.2949 32.8055C20.8772 32.0966 19.4594 31.489 17.8392 31.1852C16.9278 31.084 16.0164 31.084 15.2063 31.489C14.4974 31.7928 13.9911 32.0966 13.586 32.8055C13.4848 32.9068 13.4848 33.1093 13.3835 33.3118C13.3835 33.3118 13.3835 33.3118 13.4848 33.3118C13.6873 33.1093 13.8898 33.008 14.0923 32.8055C14.8012 32.1979 15.8139 32.0966 16.8265 32.2992ZM32.0164 49.7169C30.5987 51.3371 29.181 53.0587 27.3582 54.2738C28.7759 55.2865 35.1556 55.2865 36.6746 54.2738C34.8518 53.0587 33.4341 51.4384 32.0164 49.7169ZM44.8772 19.7422C44.7759 19.9447 44.5734 20.1473 44.3708 20.4511C44.067 21.0587 43.8645 21.7675 43.8645 22.3751C43.8645 22.6789 43.8645 22.9827 44.067 23.3878C44.7759 22.9827 45.2822 22.3751 45.586 21.6663C45.9911 20.6536 45.9911 19.5397 45.7885 18.4257C45.4848 18.8308 45.181 19.3371 44.8772 19.7422ZM19.9658 23.3878C19.9658 23.2865 19.9658 23.2865 20.067 23.1852C20.1683 22.5776 20.1683 22.0713 20.067 21.4637C19.9658 20.9574 19.7632 20.4511 19.4594 20.1473C19.0544 19.6409 18.7506 19.1346 18.4468 18.527C18.4468 18.527 18.4468 18.4257 18.3455 18.4257C17.6367 19.9447 18.548 22.6789 19.9658 23.3878ZM19.4594 29.7675C19.662 29.4637 19.7632 29.0587 19.9658 28.7549C20.2696 28.2485 20.5734 27.8435 20.7759 27.3371L20.8772 27.2359C21.181 26.8308 21.4848 26.527 21.7886 26.1219C22.4974 25.3118 23.4088 25.008 24.5227 25.1093C25.1303 25.2106 25.7379 25.5144 26.143 25.9194C26.2442 26.0207 26.3455 26.1219 26.3455 26.3245C26.3455 26.3245 26.3455 26.3245 26.4468 26.3245C26.3455 26.2232 26.2442 26.0207 26.2442 25.9194C25.9404 25.4131 25.6367 25.1093 25.1303 24.8055C24.4215 24.4004 23.7126 24.1979 22.9025 24.5017C22.3961 24.7042 21.8898 25.008 21.4848 25.3118C21.0797 25.6156 20.7759 26.0207 20.3708 26.3245C20.1683 26.527 19.9658 26.8308 19.662 27.1346C19.662 27.1346 19.662 27.1346 19.5607 27.1346C19.0544 27.9447 18.4468 28.7549 17.9404 29.565V29.6663C18.3455 29.7675 18.7506 29.7675 19.1556 29.8688C19.4594 29.97 19.4594 29.8688 19.4594 29.7675ZM44.8772 27.9447C44.8772 27.9447 44.6746 27.7422 44.5734 27.5397C44.5734 27.5397 44.4721 27.3371 44.3708 27.2359C43.662 26.3245 42.9531 25.5144 42.0417 24.9068C41.4341 24.5017 40.7253 24.1979 40.0164 24.2992C39.105 24.5017 38.3961 25.008 37.8898 25.7169C37.8898 25.8181 37.7885 25.8182 37.7885 25.9194L37.8898 25.8181C38.1936 25.5144 38.4974 25.3118 38.8012 25.2106C39.9151 24.8055 41.3329 25.2106 42.2442 26.1219C42.6493 26.6283 43.0544 27.1346 43.4594 27.7422L43.5607 27.8435V27.9447C43.5607 27.9447 44.2696 29.1599 44.5734 29.8688C44.6746 29.97 44.7759 29.97 44.8772 29.97C45.181 29.97 45.4848 29.8688 45.7885 29.8688C45.8898 29.8688 45.9911 29.8688 46.0923 29.8688C45.8898 29.565 45.7885 29.2612 45.586 29.0587C45.2822 28.5523 44.8772 27.9447 44.8772 27.9447Z" fill="url(#paint0_linear_1603_4780)"/>
<path d="M36.5732 18.0206C36.1682 18.0206 35.7631 17.6156 35.8644 17.1093C35.8644 17.008 35.9656 17.008 35.9656 17.008C36.9783 16.7042 37.991 16.5017 39.0036 16.4004C39.2061 16.4004 39.2061 16.5017 39.2061 16.6029C39.1049 16.8055 39.0036 16.9067 38.9023 17.1093C38.8011 17.2105 38.8011 17.413 38.6998 17.5143C38.6998 17.6156 38.5985 17.6156 38.4973 17.6156C37.8897 17.7168 37.2821 17.9194 36.5732 18.0206Z" fill="#F8F8F9"/>
<path d="M27.4596 18.0206C26.852 17.9194 26.1431 17.8181 25.5355 17.6156C25.4343 17.6156 25.333 17.5143 25.333 17.413C25.2317 17.2105 25.0292 17.008 24.9279 16.8055C24.8267 16.7042 24.8267 16.6029 24.8267 16.4004C24.9279 16.4004 25.0292 16.4004 25.1305 16.4004C26.1431 16.5017 27.0545 16.7042 27.9659 17.008L28.0672 17.1093C28.1684 17.413 27.8646 17.9194 27.4596 18.0206C27.5608 18.0206 27.5608 18.0206 27.4596 18.0206Z" fill="#F8F8F9"/>
</g>
<defs>
<linearGradient id="paint0_linear_1603_4780" x1="32.0164" y1="60.4877" x2="32.0164" y2="2.04842" gradientUnits="userSpaceOnUse">
<stop stop-color="#FC9A48"/>
<stop offset="1" stop-color="#FCB346"/>
</linearGradient>
<clipPath id="clip0_1603_4780">
<rect width="64" height="64" fill="white" transform="translate(0.117676 0.603027)"/>
</clipPath>
</defs>
</svg>
