<svg width="64" height="64" viewBox="0 0 64 64" fill="none" xmlns="http://www.w3.org/2000/svg">
<path d="M63.4984 33.6215V35.114C63.4906 35.1617 63.479 35.2093 63.4755 35.2574C63.3974 36.3586 63.1813 37.4302 62.7945 38.4643C62.2762 39.8494 61.5107 41.0671 60.3649 42.0164C59.2137 42.9706 57.8834 43.4359 56.394 43.444C56.2228 43.445 56.0515 43.4252 55.8802 43.4151C55.8786 43.3999 55.8773 43.3843 55.8757 43.3691C55.9379 43.3412 55.9995 43.3123 56.0621 43.286C56.7144 43.0109 57.3321 42.6741 57.8892 42.2335C58.6533 41.6293 59.2633 40.9055 59.5285 39.9441C59.7853 39.0136 59.7143 38.1178 59.1259 37.3186C58.7614 36.8238 58.2756 36.5464 57.6398 36.6129C57.2308 36.6558 56.896 36.8573 56.6095 37.1382C55.9289 37.8066 55.5628 38.6457 55.3479 39.5603C55.1154 40.5496 55.1089 41.5641 55.0244 42.5699C54.9567 43.3749 54.8605 44.1776 54.5502 44.9284C53.7715 46.8125 52.3806 48.0497 50.4787 48.7086C50.061 48.8533 49.6113 48.9053 49.1765 49H48.112C48.0807 48.9929 48.0497 48.9828 48.0181 48.9789C46.7088 48.8228 45.5992 48.2544 44.6614 47.3326C44.6156 47.2875 44.5776 47.235 44.536 47.1856C44.6208 47.1792 44.6808 47.1996 44.7398 47.2226C45.765 47.6188 46.8156 47.8251 47.9136 47.6256C48.5852 47.5036 49.1871 47.2343 49.6523 46.7103C49.892 46.4404 50.0549 46.1282 50.0632 45.7629C50.0745 45.2616 49.811 44.9122 49.3865 44.686C48.7633 44.3541 48.0827 44.2896 47.4075 44.3983C45.5605 44.6964 43.7111 44.8814 41.838 44.7321C40.519 44.6273 39.2296 44.3814 37.9732 43.9651C36.0055 43.3133 34.2443 42.2783 32.6005 41.0265C30.9041 39.7349 29.3638 38.2631 27.8058 36.8125C26.5351 35.6295 25.2516 34.4618 23.8849 33.3905C21.5885 31.5904 19.0902 30.1722 16.3119 29.2588C14.969 28.8176 13.6197 28.6112 12.2178 28.8594C10.8662 29.0986 9.61138 29.5667 8.55205 30.4687C7.58724 31.2906 7.0437 32.3129 7.15273 33.6241C7.20563 34.2616 7.42885 34.819 7.88239 35.2772C8.53883 35.9403 9.33816 36.2765 10.2597 36.3342C10.663 36.3595 11.043 36.2914 11.4152 36.1117C12.1087 35.7765 12.8261 35.4981 13.5764 35.3148C14.6861 35.0436 15.7909 35.0202 16.8805 35.4073C18.0679 35.8291 18.9469 36.6421 19.6579 37.6613C19.674 37.6846 19.6795 37.7154 19.7047 37.7807C19.6095 37.7346 19.5476 37.707 19.4879 37.6759C18.8121 37.3232 18.1128 37.0347 17.3605 36.8926C16.7273 36.7729 16.099 36.7622 15.4867 37.002C14.3674 37.4406 13.929 38.6629 14.5187 39.7154C14.8164 40.2465 15.2845 40.5684 15.8525 40.7504C16.5538 40.9749 17.2631 40.9412 17.9725 40.7942C19.0711 40.5664 20.0698 40.0918 21.0262 39.5197C22.4378 38.6755 23.7046 37.6402 24.9094 36.524C24.9736 36.4647 25.041 36.4089 25.1071 36.3518C25.12 36.4186 25.1097 36.4643 25.0926 36.5075C24.3062 38.4805 23.2788 40.3075 21.8491 41.8876C20.7853 43.0634 19.5611 44.0316 18.1321 44.7221C15.6248 45.9336 13.0123 46.1724 10.3214 45.5141C7.64046 44.858 5.38633 43.4687 3.56315 41.3893C2.01157 39.6193 1.02966 37.5668 0.650641 35.2324C0.583869 34.8278 0.549031 34.4183 0.5 34.0108C0.5 33.5241 0.5 33.0374 0.5 32.5508C0.507419 32.5031 0.518387 32.4554 0.521612 32.4074C0.619029 31.0271 0.898377 29.6897 1.44998 28.4159C1.49385 28.3147 1.5161 28.1988 1.52417 28.0879C1.579 27.3196 1.42578 26.5698 1.31546 25.8164C1.22934 25.2272 1.15966 24.6366 1.24966 24.0406C1.42256 22.8985 1.98545 21.9774 2.83704 21.2231C4.16378 20.0476 6.02373 19.8639 7.5324 20.7555C7.58659 20.7873 7.63369 20.8311 7.71917 20.8957C7.63562 20.8957 7.60433 20.897 7.57304 20.8957C7.24079 20.8795 6.90758 20.8386 6.5763 20.8519C5.91857 20.8778 5.3031 21.055 4.77892 21.4781C4.50441 21.6997 4.29216 21.9693 4.20894 22.321C4.1512 22.5653 4.16023 22.8057 4.31248 23.0205C4.58925 23.4102 5.32955 23.5523 5.72954 23.2895C6.90758 22.5154 8.18109 21.9693 9.55428 21.6588C10.7014 21.3996 11.861 21.3655 13.0329 21.4047C14.8351 21.4648 16.5915 21.7623 18.3066 22.3139C20.5372 23.0312 22.5814 24.126 24.5191 25.4332C26.6716 26.8851 28.6412 28.57 30.6083 30.2595C32.0102 31.4635 33.4166 32.664 34.8488 33.8311C36.2339 34.9598 37.7065 35.9634 39.3148 36.7525C41.5119 37.8303 43.8063 38.2995 46.2466 37.8971C47.3182 37.7203 48.362 37.4565 49.3416 36.9734C49.4452 36.9225 49.5475 36.8511 49.6239 36.7654C49.8136 36.5519 50.0016 36.3346 50.1652 36.1013C50.5852 35.502 50.9568 34.8742 51.1068 34.1442C51.3761 32.8337 51.36 31.5219 51.0758 30.2166C50.9119 29.4636 50.6948 28.7326 50.1671 28.1323C49.2739 27.1161 48.1852 26.4354 46.8691 26.1282C46.8198 26.1168 46.7685 26.1149 46.6853 26.1045C46.7188 26.1888 46.7485 26.2398 46.7591 26.2949C46.7882 26.4461 46.8488 26.6061 46.8243 26.7498C46.7817 26.998 46.6824 27.2362 46.6111 27.4802C46.5824 27.5785 46.5288 27.6035 46.4308 27.5846C46.2198 27.5444 46.0079 27.4977 45.7943 27.4847C45.514 27.4675 45.2318 27.4805 44.925 27.4805C45.0163 27.6233 45.0989 27.7472 45.1756 27.8744C45.3627 28.1849 45.4498 28.5045 45.2918 28.8607C45.2266 29.0077 45.1889 29.168 45.1472 29.3247C45.1143 29.449 45.0501 29.4778 44.9234 29.4613C44.375 29.3909 43.8263 29.3176 43.2754 29.2741C42.4202 29.2066 41.5799 29.3146 40.7596 29.5622C40.6083 29.608 40.4483 29.678 40.3335 29.7828C39.9296 30.1508 39.5148 30.5054 39.3938 31.0956C39.3061 31.5239 39.2703 31.5229 38.849 31.4045C37.8042 31.1105 37.0484 30.4243 36.4236 29.5684C36.3871 29.5184 36.3839 29.4227 36.4007 29.3578C36.4575 29.1381 36.5349 28.9243 36.5946 28.7053C36.6284 28.5811 36.6936 28.5639 36.8091 28.5892C36.9816 28.6271 37.1587 28.668 37.3339 28.6674C37.9132 28.6648 38.179 28.4672 38.0481 27.865C38.0371 27.8147 38.0339 27.7625 38.0239 27.6865C38.2448 27.7238 38.4429 27.767 38.6432 27.7894C39.128 27.8432 39.599 27.8114 40.0251 27.5331C40.1303 27.4643 40.1674 27.3867 40.1277 27.2615C40.0341 26.9659 39.8851 26.7083 39.6471 26.5075C39.0126 25.9724 37.8016 25.9319 37.131 26.4254C37.091 26.4549 37.0362 26.5094 37.0404 26.5464C37.0784 26.8864 36.8875 27.1693 36.8204 27.4824C36.8142 27.5103 36.7875 27.5337 36.7633 27.5694C36.4246 27.3819 36.0865 27.2102 35.7259 27.2459C35.6226 27.5811 35.5323 27.8851 35.4314 28.1852C35.4204 28.218 35.3465 28.2449 35.3007 28.2469C35.1614 28.253 35.0207 28.253 34.8817 28.2413C34.7369 28.2293 34.6646 28.29 34.6294 28.4282C34.5869 28.5957 34.5298 28.7592 34.4778 28.9243C34.4107 29.1378 34.3978 29.1427 34.2024 29.0389C34.1833 29.0288 34.1643 29.0187 34.1459 29.0077C33.1334 28.3961 32.546 27.4805 32.2708 26.3443C32.255 26.279 32.2589 26.2021 32.2772 26.1373C32.3431 25.9033 32.4114 25.6691 32.4966 25.4419C32.5185 25.3835 32.6008 25.3222 32.6643 25.3105C32.8808 25.2713 33.103 25.2651 33.3192 25.2259C34.3882 25.0328 35.2069 24.4556 35.8178 23.5637C35.8572 23.5059 35.9068 23.4556 35.9688 23.3813C36.0143 23.6802 36.0539 23.942 36.0972 24.2249C36.1601 24.1925 36.1862 24.1844 36.2055 24.1681C36.5197 23.9053 36.8349 23.6441 37.1439 23.3752C37.1916 23.3336 37.2142 23.2584 37.2391 23.1948C37.3445 22.9238 37.4223 22.639 37.5545 22.3823C37.9455 21.6244 38.3616 20.8798 38.76 20.1257C38.9593 19.7487 39.1497 19.3659 39.2129 18.935C39.2171 18.9071 39.2413 18.8824 39.2722 18.8276C39.8312 19.4025 39.8132 20.1141 39.8083 20.8548C40.0819 20.7017 40.3354 20.5891 40.4661 20.3162C40.9767 19.2494 41.2341 18.1174 41.3306 16.9435C41.3364 16.8734 41.3525 16.8043 41.3699 16.6963C41.4777 16.7748 41.5548 16.8218 41.6209 16.8812C41.9641 17.1875 42.1544 17.5804 42.2486 18.0255C42.3812 18.6508 42.2876 19.262 42.138 19.8704C42.0986 20.0307 42.0644 20.1923 42.028 20.3532C42.0425 20.3607 42.057 20.3681 42.0712 20.3759C44.0631 19.0742 45.6221 17.3977 46.5208 15.1389C46.285 16.9448 45.7834 18.6488 44.7179 20.153C44.7779 20.1371 44.826 20.115 44.8714 20.0881C45.2418 19.8681 45.6166 19.6556 45.9804 19.4249C47.2898 18.5943 48.5291 17.6745 49.5629 16.5019C49.9671 16.0434 50.3329 15.5568 50.5968 15H50.6613C50.8152 15.4127 50.8329 15.8368 50.7319 16.2605C50.6597 16.5642 50.5323 16.8552 50.4671 17.1602C50.2755 18.0547 49.8155 18.7984 49.2294 19.4768C49.1923 19.5197 49.1578 19.5648 49.1033 19.6322C49.2152 19.6572 49.2965 19.6777 49.3787 19.6932C50.6919 19.9385 51.9787 20.2812 53.2309 20.7506C55.9202 21.7591 58.2908 23.2483 60.1743 25.4565C61.8697 27.4438 62.94 29.7299 63.3477 32.321C63.4155 32.7526 63.45 33.1893 63.5 33.6237L63.4984 33.6215ZM39.848 22.4466C39.8412 22.4297 39.8345 22.4125 39.8277 22.3956C39.6516 22.4196 39.4742 22.4365 39.3 22.4696C38.92 22.542 38.5377 22.615 38.2119 22.8434C38.02 22.9777 37.9716 23.1425 38.0529 23.3177C38.1439 23.514 38.3297 23.6026 38.5497 23.5329C38.6758 23.4926 38.8097 23.4417 38.9084 23.3576C39.1822 23.1253 39.4409 22.8749 39.7022 22.6279C39.758 22.5754 39.7996 22.5076 39.848 22.4469V22.4466ZM46.1914 23.9258C46.0979 24.112 45.9621 24.2642 45.9543 24.4225C45.9401 24.7155 45.8643 24.9712 45.7056 25.2087C45.6588 25.2791 45.6701 25.3261 45.7479 25.3608C45.8017 25.3848 45.8543 25.4118 45.905 25.4419C45.9792 25.4864 46.0311 25.4724 46.0792 25.3981C46.2488 25.1366 46.3695 24.8566 46.3866 24.5422C46.3982 24.3307 46.3508 24.1311 46.1917 23.9258H46.1914Z" fill="#8B7A50"/>
<path d="M63.4984 33.6215V35.114C63.4906 35.1617 63.479 35.2093 63.4755 35.2574C63.3974 36.3586 63.1813 37.4302 62.7945 38.4643C62.2762 39.8494 61.5107 41.0671 60.3649 42.0164C59.2137 42.9706 57.8834 43.4359 56.394 43.444C56.2228 43.445 56.0515 43.4252 55.8802 43.4151C55.8786 43.3999 55.8773 43.3843 55.8757 43.3691C55.9379 43.3412 55.9995 43.3123 56.0621 43.286C56.7144 43.0109 57.3321 42.6741 57.8892 42.2335C58.6533 41.6293 59.2633 40.9055 59.5285 39.9441C59.7853 39.0136 59.7143 38.1178 59.1259 37.3186C58.7614 36.8238 58.2756 36.5464 57.6398 36.6129C57.2308 36.6558 56.896 36.8573 56.6095 37.1382C55.9289 37.8066 55.5628 38.6457 55.3479 39.5603C55.1154 40.5496 55.1089 41.5641 55.0244 42.5699C54.9567 43.3749 54.8605 44.1776 54.5502 44.9284C53.7715 46.8125 52.3806 48.0497 50.4787 48.7086C50.061 48.8533 49.6113 48.9053 49.1765 49H48.112C48.0807 48.9929 48.0497 48.9828 48.0181 48.9789C46.7088 48.8228 45.5992 48.2544 44.6614 47.3326C44.6156 47.2875 44.5776 47.235 44.536 47.1856C44.6208 47.1792 44.6808 47.1996 44.7398 47.2226C45.765 47.6188 46.8156 47.8251 47.9136 47.6256C48.5852 47.5036 49.1871 47.2343 49.6523 46.7103C49.892 46.4404 50.0549 46.1282 50.0632 45.7629C50.0745 45.2616 49.811 44.9122 49.3865 44.686C48.7633 44.3541 48.0827 44.2896 47.4075 44.3983C45.5605 44.6964 43.7111 44.8814 41.838 44.7321C40.519 44.6273 39.2296 44.3814 37.9732 43.9651C36.0055 43.3133 34.2443 42.2783 32.6005 41.0265C30.9041 39.7349 29.3638 38.2631 27.8058 36.8125C26.5351 35.6295 25.2516 34.4618 23.8849 33.3905C21.5885 31.5904 19.0902 30.1722 16.3119 29.2588C14.969 28.8176 13.6197 28.6112 12.2178 28.8594C10.8662 29.0986 9.61138 29.5667 8.55205 30.4687C7.58724 31.2906 7.0437 32.3129 7.15273 33.6241C7.20563 34.2616 7.42885 34.819 7.88239 35.2772C8.53883 35.9403 9.33816 36.2765 10.2597 36.3342C10.663 36.3595 11.043 36.2914 11.4152 36.1117C12.1087 35.7765 12.8261 35.4981 13.5764 35.3148C14.6861 35.0436 15.7909 35.0202 16.8805 35.4073C18.0679 35.8291 18.9469 36.6421 19.6579 37.6613C19.674 37.6846 19.6795 37.7154 19.7047 37.7807C19.6095 37.7346 19.5476 37.707 19.4879 37.6759C18.8121 37.3232 18.1128 37.0347 17.3605 36.8926C16.7273 36.7729 16.099 36.7622 15.4867 37.002C14.3674 37.4406 13.929 38.6629 14.5187 39.7154C14.8164 40.2465 15.2845 40.5684 15.8525 40.7504C16.5538 40.9749 17.2631 40.9412 17.9725 40.7942C19.0711 40.5664 20.0698 40.0918 21.0262 39.5197C22.4378 38.6755 23.7046 37.6402 24.9094 36.524C24.9736 36.4647 25.041 36.4089 25.1071 36.3518C25.12 36.4186 25.1097 36.4643 25.0926 36.5075C24.3062 38.4805 23.2788 40.3075 21.8491 41.8876C20.7853 43.0634 19.5611 44.0316 18.1321 44.7221C15.6248 45.9336 13.0123 46.1724 10.3214 45.5141C7.64046 44.858 5.38633 43.4687 3.56315 41.3893C2.01157 39.6193 1.02966 37.5668 0.650641 35.2324C0.583869 34.8278 0.549031 34.4183 0.5 34.0108C0.5 33.5241 0.5 33.0374 0.5 32.5508C0.507419 32.5031 0.518387 32.4554 0.521612 32.4074C0.619029 31.0271 0.898377 29.6897 1.44998 28.4159C1.49385 28.3147 1.5161 28.1988 1.52417 28.0879C1.579 27.3196 1.42578 26.5698 1.31546 25.8164C1.22934 25.2272 1.15966 24.6366 1.24966 24.0406C1.42256 22.8985 1.98545 21.9774 2.83704 21.2231C4.16378 20.0476 6.02373 19.8639 7.5324 20.7555C7.58659 20.7873 7.63369 20.8311 7.71917 20.8957C7.63562 20.8957 7.60433 20.897 7.57304 20.8957C7.24079 20.8795 6.90758 20.8386 6.5763 20.8519C5.91857 20.8778 5.3031 21.055 4.77892 21.4781C4.50441 21.6997 4.29216 21.9693 4.20894 22.321C4.1512 22.5653 4.16023 22.8057 4.31248 23.0205C4.58925 23.4102 5.32955 23.5523 5.72954 23.2895C6.90758 22.5154 8.18109 21.9693 9.55428 21.6588C10.7014 21.3996 11.861 21.3655 13.0329 21.4047C14.8351 21.4648 16.5915 21.7623 18.3066 22.3139C20.5372 23.0312 22.5814 24.126 24.5191 25.4332C26.6716 26.8851 28.6412 28.57 30.6083 30.2595C32.0102 31.4635 33.4166 32.664 34.8488 33.8311C36.2339 34.9598 37.7065 35.9634 39.3148 36.7525C41.5119 37.8303 43.8063 38.2995 46.2466 37.8971C47.3182 37.7203 48.362 37.4565 49.3416 36.9734C49.4452 36.9225 49.5475 36.8511 49.6239 36.7654C49.8136 36.5519 50.0016 36.3346 50.1652 36.1013C50.5852 35.502 50.9568 34.8742 51.1068 34.1442C51.3761 32.8337 51.36 31.5219 51.0758 30.2166C50.9119 29.4636 50.6948 28.7326 50.1671 28.1323C49.2739 27.1161 48.1852 26.4354 46.8691 26.1282C46.8198 26.1168 46.7685 26.1149 46.6853 26.1045C46.7188 26.1888 46.7485 26.2398 46.7591 26.2949C46.7882 26.4461 46.8488 26.6061 46.8243 26.7498C46.7817 26.998 46.6824 27.2362 46.6111 27.4802C46.5824 27.5785 46.5288 27.6035 46.4308 27.5846C46.2198 27.5444 46.0079 27.4977 45.7943 27.4847C45.514 27.4675 45.2318 27.4805 44.925 27.4805C45.0163 27.6233 45.0989 27.7472 45.1756 27.8744C45.3627 28.1849 45.4498 28.5045 45.2918 28.8607C45.2266 29.0077 45.1889 29.168 45.1472 29.3247C45.1143 29.449 45.0501 29.4778 44.9234 29.4613C44.375 29.3909 43.8263 29.3176 43.2754 29.2741C42.4202 29.2066 41.5799 29.3146 40.7596 29.5622C40.6083 29.608 40.4483 29.678 40.3335 29.7828C39.9296 30.1508 39.5148 30.5054 39.3938 31.0956C39.3061 31.5239 39.2703 31.5229 38.849 31.4045C37.8042 31.1105 37.0484 30.4243 36.4236 29.5684C36.3871 29.5184 36.3839 29.4227 36.4007 29.3578C36.4575 29.1381 36.5349 28.9243 36.5946 28.7053C36.6284 28.5811 36.6936 28.5639 36.8091 28.5892C36.9816 28.6271 37.1587 28.668 37.3339 28.6674C37.9132 28.6648 38.179 28.4672 38.0481 27.865C38.0371 27.8147 38.0339 27.7625 38.0239 27.6865C38.2448 27.7238 38.4429 27.767 38.6432 27.7894C39.128 27.8432 39.599 27.8114 40.0251 27.5331C40.1303 27.4643 40.1674 27.3867 40.1277 27.2615C40.0341 26.9659 39.8851 26.7083 39.6471 26.5075C39.0126 25.9724 37.8016 25.9319 37.131 26.4254C37.091 26.4549 37.0362 26.5094 37.0404 26.5464C37.0784 26.8864 36.8875 27.1693 36.8204 27.4824C36.8142 27.5103 36.7875 27.5337 36.7633 27.5694C36.4246 27.3819 36.0865 27.2102 35.7259 27.2459C35.6226 27.5811 35.5323 27.8851 35.4314 28.1852C35.4204 28.218 35.3465 28.2449 35.3007 28.2469C35.1614 28.253 35.0207 28.253 34.8817 28.2413C34.7369 28.2293 34.6646 28.29 34.6294 28.4282C34.5869 28.5957 34.5298 28.7592 34.4778 28.9243C34.4107 29.1378 34.3978 29.1427 34.2024 29.0389C34.1833 29.0288 34.1643 29.0187 34.1459 29.0077C33.1334 28.3961 32.546 27.4805 32.2708 26.3443C32.255 26.279 32.2589 26.2021 32.2772 26.1373C32.3431 25.9033 32.4114 25.6691 32.4966 25.4419C32.5185 25.3835 32.6008 25.3222 32.6643 25.3105C32.8808 25.2713 33.103 25.2651 33.3192 25.2259C34.3882 25.0328 35.2069 24.4556 35.8178 23.5637C35.8572 23.5059 35.9068 23.4556 35.9688 23.3813C36.0143 23.6802 36.0539 23.942 36.0972 24.2249C36.1601 24.1925 36.1862 24.1844 36.2055 24.1681C36.5197 23.9053 36.8349 23.6441 37.1439 23.3752C37.1916 23.3336 37.2142 23.2584 37.2391 23.1948C37.3445 22.9238 37.4223 22.639 37.5545 22.3823C37.9455 21.6244 38.3616 20.8798 38.76 20.1257C38.9593 19.7487 39.1497 19.3659 39.2129 18.935C39.2171 18.9071 39.2413 18.8824 39.2722 18.8276C39.8312 19.4025 39.8132 20.1141 39.8083 20.8548C40.0819 20.7017 40.3354 20.5891 40.4661 20.3162C40.9767 19.2494 41.2341 18.1174 41.3306 16.9435C41.3364 16.8734 41.3525 16.8043 41.3699 16.6963C41.4777 16.7748 41.5548 16.8218 41.6209 16.8812C41.9641 17.1875 42.1544 17.5804 42.2486 18.0255C42.3812 18.6508 42.2876 19.262 42.138 19.8704C42.0986 20.0307 42.0644 20.1923 42.028 20.3532C42.0425 20.3607 42.057 20.3681 42.0712 20.3759C44.0631 19.0742 45.6221 17.3977 46.5208 15.1389C46.285 16.9448 45.7834 18.6488 44.7179 20.153C44.7779 20.1371 44.826 20.115 44.8714 20.0881C45.2418 19.8681 45.6166 19.6556 45.9804 19.4249C47.2898 18.5943 48.5291 17.6745 49.5629 16.5019C49.9671 16.0434 50.3329 15.5568 50.5968 15H50.6613C50.8152 15.4127 50.8329 15.8368 50.7319 16.2605C50.6597 16.5642 50.5323 16.8552 50.4671 17.1602C50.2755 18.0547 49.8155 18.7984 49.2294 19.4768C49.1923 19.5197 49.1578 19.5648 49.1033 19.6322C49.2152 19.6572 49.2965 19.6777 49.3787 19.6932C50.6919 19.9385 51.9787 20.2812 53.2309 20.7506C55.9202 21.7591 58.2908 23.2483 60.1743 25.4565C61.8697 27.4438 62.94 29.7299 63.3477 32.321C63.4155 32.7526 63.45 33.1893 63.5 33.6237L63.4984 33.6215ZM39.848 22.4466C39.8412 22.4297 39.8345 22.4125 39.8277 22.3956C39.6516 22.4196 39.4742 22.4365 39.3 22.4696C38.92 22.542 38.5377 22.615 38.2119 22.8434C38.02 22.9777 37.9716 23.1425 38.0529 23.3177C38.1439 23.514 38.3297 23.6026 38.5497 23.5329C38.6758 23.4926 38.8097 23.4417 38.9084 23.3576C39.1822 23.1253 39.4409 22.8749 39.7022 22.6279C39.758 22.5754 39.7996 22.5076 39.848 22.4469V22.4466ZM46.1914 23.9258C46.0979 24.112 45.9621 24.2642 45.9543 24.4225C45.9401 24.7155 45.8643 24.9712 45.7056 25.2087C45.6588 25.2791 45.6701 25.3261 45.7479 25.3608C45.8017 25.3848 45.8543 25.4118 45.905 25.4419C45.9792 25.4864 46.0311 25.4724 46.0792 25.3981C46.2488 25.1366 46.3695 24.8566 46.3866 24.5422C46.3982 24.3307 46.3508 24.1311 46.1917 23.9258H46.1914Z" fill="url(#paint0_radial_1560_8197)" fill-opacity="0.3"/>
<defs>
<radialGradient id="paint0_radial_1560_8197" cx="0" cy="0" r="1" gradientUnits="userSpaceOnUse" gradientTransform="translate(35.612 40.9078) rotate(-164.713) scale(56.9157 106.61)">
<stop stop-color="white"/>
<stop offset="1" stop-color="#8B7D5A" stop-opacity="0"/>
</radialGradient>
</defs>
</svg>
