<svg width="65" height="64" viewBox="0 0 65 64" fill="none" xmlns="http://www.w3.org/2000/svg">
<g clip-path="url(#clip0_1667_4920)">
<path d="M32.5367 64H32.4478C32.4434 63.9761 32.4272 63.9629 32.4063 63.9534C32.2119 63.8629 32.0172 63.7729 31.8227 63.6819C29.8384 62.7525 27.8881 61.7575 25.9864 60.6682C24.1547 59.6188 22.375 58.4885 20.665 57.2495C19.0744 56.0969 17.5547 54.8585 16.1285 53.5066C14.8745 52.3179 13.7048 51.0521 12.6434 49.6877C12.3753 49.343 12.1096 48.9965 11.8647 48.6347C11.8848 48.615 11.905 48.5953 11.9251 48.5756C11.9371 48.5803 11.948 48.5872 11.9573 48.5962C11.9617 48.621 11.9772 48.6317 12.0015 48.6307C12.0198 48.6432 12.0385 48.6553 12.0564 48.6685C12.9876 49.3567 13.9779 49.9472 15.015 50.4609C15.9646 50.931 16.9429 51.3324 17.9387 51.6917C18.9341 52.0507 19.9437 52.3665 20.9569 52.6709C21.9416 52.9667 22.9273 53.2593 23.9104 53.5605C24.816 53.8381 25.7121 54.1443 26.5922 54.4953C27.4319 54.83 28.2509 55.2083 29.0358 55.6576C30.0562 56.2416 30.9949 56.9338 31.8257 57.7688C31.857 57.8 31.8908 57.8289 31.9227 57.8583C31.9373 57.8498 31.9558 57.8454 31.96 57.8352C31.9681 57.8153 31.9707 57.7921 31.9711 57.7701C31.9781 57.3326 31.9549 56.8979 31.8806 56.4652C31.7179 55.5178 31.3329 54.6731 30.7292 53.9267C30.4301 53.5568 30.0914 53.2262 29.7252 52.9237C29.2905 52.5644 28.8252 52.2491 28.3421 51.9593C27.7448 51.6012 27.1261 51.2838 26.4976 50.9847C25.6756 50.5935 24.8399 50.2333 24.004 49.8736C23.0525 49.4641 22.1004 49.0557 21.1608 48.6196C20.1133 48.1333 19.0823 47.6145 18.0829 47.0346C16.9669 46.3869 15.8998 45.6684 14.8981 44.8533C13.1004 43.3903 11.5987 41.6701 10.4056 39.6818C9.62966 38.389 9.00487 37.026 8.50323 35.6055C8.16063 34.6349 7.87775 33.6469 7.64695 32.6439C7.51084 32.0524 7.38769 31.4586 7.28861 30.86C7.2356 30.5389 7.18074 30.2179 7.13166 29.8961C7.09485 29.6546 7.06314 29.4125 7.03443 29.1699C6.99624 28.8465 6.96013 28.5229 6.92888 28.1988C6.88836 27.7789 6.84785 27.359 6.8173 26.9381C6.78929 26.5543 6.7747 26.1693 6.75433 25.7851C6.75086 25.7186 6.74623 25.652 6.74415 25.5855C6.73419 25.2749 6.72493 24.964 6.71591 24.6531C6.71521 24.6311 6.71891 24.6091 6.72192 24.5871C6.72262 24.5813 6.72702 24.5728 6.73165 24.5714C6.74993 24.5658 6.75827 24.5749 6.76382 24.5922C6.77748 24.6343 6.79438 24.6755 6.80873 24.7174C6.91267 25.0182 7.01383 25.3196 7.12032 25.6193C7.5914 26.9448 8.1178 28.2474 8.725 29.5167C9.25904 30.6327 9.85166 31.7163 10.5283 32.7531C11.1811 33.7536 11.9054 34.6983 12.7233 35.5701C14.2539 37.2019 16.0447 38.4616 18.1022 39.3429C19.1316 39.7839 20.1937 40.1261 21.2761 40.4082C22.1856 40.6455 23.1049 40.8397 24.0262 41.0245C24.9038 41.2006 25.7832 41.3687 26.6587 41.5553C27.4043 41.7141 28.1455 41.8893 28.8789 42.0976C29.7625 42.349 30.6278 42.6507 31.4662 43.028C32.8899 43.6688 34.1749 44.5167 35.3071 45.5936C35.9689 46.223 36.5639 46.911 37.1039 47.6469C37.1521 47.7124 37.2019 47.777 37.2516 47.8413C37.2551 47.8457 37.2688 47.8488 37.2718 47.846C37.2803 47.8379 37.2919 47.8263 37.2914 47.8168C37.2898 47.7874 37.2857 47.7578 37.278 47.7293C37.0724 46.9642 36.8333 46.2103 36.5328 45.4767C36.1983 44.6593 35.7981 43.8769 35.3023 43.1444C34.6525 42.1845 33.8635 41.3597 32.9191 40.6856C32.2596 40.2147 31.5505 39.8334 30.8049 39.5179C30.0812 39.2117 29.3359 38.9702 28.5789 38.7623C27.7152 38.5251 26.8406 38.3341 25.9649 38.1489C25.1253 37.9714 24.2841 37.801 23.4475 37.6102C22.5961 37.4162 21.7504 37.2 20.9168 36.9394C19.9691 36.6433 19.0427 36.2921 18.1494 35.8574C16.6625 35.1342 15.3007 34.2219 14.0601 33.1305C12.0536 31.3651 10.5308 29.2512 9.50257 26.7828C9.09168 25.7967 8.77755 24.78 8.55069 23.7366C8.45161 23.2811 8.36989 22.8222 8.30924 22.3597C8.27359 22.0882 8.24119 21.8164 8.21526 21.5437C8.18285 21.2046 8.15484 20.8652 8.14604 20.5247C8.13655 20.1622 8.13864 19.7992 8.13609 19.4365C8.13308 18.9992 8.16179 18.5631 8.19767 18.1279C8.23401 17.6855 8.28748 17.2445 8.35253 16.8052C8.43911 16.219 8.55092 15.638 8.68865 15.0623C9.07547 13.4437 9.64285 11.8902 10.3894 10.4026C11.8073 7.578 13.7404 5.1601 16.1505 3.11998C17.4834 1.99194 18.9249 1.02362 20.4638 0.199288C20.5485 0.153916 20.6314 0.105535 20.7152 0.0585428C20.7356 0.0546074 20.7569 0.0527555 20.7763 0.0462738C20.8064 0.0360883 20.8293 0.0483572 20.8525 0.063867C20.8268 0.0904882 20.7995 0.115489 20.7759 0.143731C20.5951 0.359247 20.4131 0.574069 20.2351 0.7919C19.1418 2.12898 18.1309 3.52509 17.2271 4.99782C16.4127 6.32472 15.6912 7.69907 15.1002 9.14055C14.4405 10.7492 13.9485 12.4039 13.7259 14.1331C13.6747 14.5298 13.6351 14.9278 13.618 15.3269C13.5872 16.0378 13.6011 16.7475 13.687 17.4554C13.7485 17.9633 13.8374 18.4654 13.9654 18.9601C14.3164 20.318 14.9169 21.5539 15.7799 22.6611C16.403 23.4609 17.1308 24.1524 17.9447 24.7547C18.8837 25.4499 19.902 26.0041 20.977 26.4571C20.9974 26.4657 21.0182 26.4735 21.0393 26.4805C21.0446 26.4821 21.0571 26.4791 21.0573 26.477C21.0587 26.4647 21.0631 26.4474 21.0566 26.4402C21.0173 26.396 20.9763 26.3534 20.9344 26.3117C20.5976 25.9781 20.2719 25.6339 19.9596 25.2772C19.1721 24.3774 18.4758 23.4125 17.8936 22.3671C17.3695 21.4261 16.9498 20.4412 16.6496 19.4062C16.4803 18.8228 16.3505 18.2309 16.2623 17.6295C16.2107 17.2776 16.1683 16.9248 16.1479 16.5702C16.0931 15.6141 16.1218 14.6613 16.2662 13.7129C16.332 13.281 16.413 12.8522 16.5162 12.4279C16.7852 11.3235 17.1783 10.2647 17.6822 9.24634C18.4499 7.69583 19.4372 6.29763 20.6106 5.02884C21.7372 3.81029 23.0002 2.75284 24.3875 1.84309C25.4547 1.1433 26.5765 0.54467 27.7536 0.0511351C27.8006 0.0314585 27.8495 0.0159488 27.8981 -0.000255458C27.9011 -0.00118141 27.9131 0.0110875 27.912 0.0147913C27.9062 0.0353938 27.9013 0.0576168 27.8893 0.074747C27.6754 0.37684 27.4589 0.677081 27.2462 0.979869C26.3698 2.22875 25.5371 3.50541 24.7778 4.8293C24.2068 5.82517 23.6803 6.84349 23.2278 7.89908C22.8044 8.88684 22.4493 9.89752 22.2081 10.9466C22.0685 11.5536 21.968 12.167 21.9291 12.7884C21.8889 13.4321 21.9 14.0754 21.997 14.7157C22.0636 15.1558 22.1606 15.588 22.2967 16.0114C22.5826 16.9012 23.0213 17.7107 23.5838 18.455C24.0773 19.1078 24.6473 19.6877 25.2707 20.2159C26.2066 21.0092 27.2321 21.6694 28.306 22.2576C28.3252 22.2681 28.3467 22.2743 28.3675 22.2813C28.3729 22.2831 28.381 22.2806 28.3865 22.2776C28.4027 22.269 28.4074 22.2558 28.3992 22.2403C28.3655 22.1745 28.333 22.1083 28.2974 22.0437C27.3038 20.2506 26.3098 18.4578 25.316 16.6649C25.2839 16.6065 25.2519 16.5482 25.2207 16.4894C25.2061 16.4619 25.2049 16.4318 25.2158 16.4035C25.2716 16.2586 25.3279 16.1137 25.385 15.9692C25.9307 14.5928 26.526 13.2386 27.2031 11.9214C27.762 10.8341 28.3729 9.77761 29.0639 8.76832C29.6632 7.89306 30.3174 7.06201 31.0526 6.29625C31.6799 5.64275 32.3579 5.04806 33.1029 4.53114C33.9904 3.91515 34.9444 3.43203 35.9757 3.1061C36.6551 2.89127 37.3493 2.74821 38.0591 2.67691C38.5091 2.63177 38.96 2.6077 39.4119 2.61673C40.0045 2.62853 40.5943 2.67553 41.1811 2.76465C41.6865 2.8415 42.187 2.93989 42.6828 3.06234C43.5822 3.28411 44.46 3.57301 45.3206 3.91422C45.4324 3.95844 45.544 3.98089 45.6649 3.9839C46.0498 3.99362 46.4348 4.00427 46.8191 4.02881C47.2031 4.05335 47.5862 4.09108 47.9672 4.14803C48.3925 4.21169 48.8126 4.29618 49.2231 4.42489C49.5986 4.54248 49.9587 4.69527 50.2937 4.90477C50.843 5.2483 51.2502 5.71475 51.5169 6.30527C51.6949 6.6995 51.8039 7.11317 51.8669 7.53957C51.8938 7.72245 51.9144 7.90671 51.9299 8.09098C51.9757 8.63822 51.9658 9.18569 51.9329 9.73316C51.931 9.76256 51.9264 9.79219 51.9204 9.8209C51.9176 9.83479 51.9083 9.84729 51.9 9.86442C51.8806 9.85979 51.8586 9.8584 51.8405 9.84937C51.7877 9.82252 51.7368 9.79242 51.6847 9.76395C51.1384 9.46464 50.5734 9.20815 49.9782 9.02041C49.2728 8.79795 48.5534 8.68498 47.8122 8.7248C47.5971 8.73637 47.3853 8.76577 47.1744 8.80767C46.3299 8.97481 45.6035 9.36417 44.9887 9.96419C44.6255 10.3188 44.3303 10.7246 44.0917 11.1719C43.6518 11.9962 43.4335 12.881 43.3852 13.8092C43.3562 14.3657 43.3988 14.9183 43.5037 15.4665C43.6539 16.2517 43.9278 16.9899 44.3271 17.6818C44.7458 18.4078 45.2878 19.0307 45.919 19.5784C46.4359 20.027 47.004 20.4002 47.6073 20.7215C48.1108 20.9895 48.6298 21.2247 49.1596 21.4352C49.9159 21.7354 50.675 22.0289 51.4333 22.3245C52.2674 22.6498 53.0996 22.9799 53.9158 23.3484C54.5705 23.644 55.2129 23.964 55.8282 24.336C56.387 24.6739 56.9164 25.0522 57.3967 25.4964C58.0405 26.0913 58.5576 26.7791 58.9257 27.5763C59.2639 28.3088 59.456 29.0812 59.5526 29.8797C59.5838 30.1371 59.5966 30.3959 59.6132 30.6544C59.6484 31.1957 59.6211 31.7355 59.5841 32.2746C59.553 32.7249 59.4977 33.173 59.4306 33.6201C59.3382 34.2351 59.2216 34.8451 59.0866 35.4521C58.913 36.2322 58.7088 37.0044 58.484 37.7713C58.2905 38.4316 58.0856 39.0883 57.862 39.739C57.8368 39.7383 57.8115 39.7374 57.7863 39.7367C57.8037 39.6346 57.8203 39.5325 57.8386 39.4307C57.9065 39.0517 57.9509 38.6698 57.991 38.2873C58.0442 37.7788 58.053 37.2683 58.0488 36.7577C58.0454 36.3428 58.015 35.9301 57.9648 35.5183C57.9139 35.0993 57.8386 34.6851 57.7375 34.2754C57.3303 32.6281 56.5296 31.2008 55.342 29.9894C54.8168 29.4535 54.2378 28.9831 53.616 28.5646C52.8153 28.0257 51.9625 27.5847 51.0722 27.2148C49.7011 26.6451 48.2781 26.2506 46.8225 25.9689C46.4306 25.8929 46.0366 25.827 45.6426 25.7619C45.4019 25.7221 45.1597 25.6899 44.9176 25.6601C44.6093 25.6219 44.3007 25.5862 43.9914 25.5557C43.5791 25.5149 43.1669 25.474 42.7537 25.4446C42.3553 25.4161 41.9557 25.4022 41.5566 25.3821C41.4902 25.3788 41.4235 25.3767 41.3571 25.3733C40.6397 25.3369 39.9218 25.3399 39.2042 25.3466C39.1589 25.3307 39.1135 25.3311 39.0683 25.3476C38.9216 25.3492 38.7751 25.3506 38.6283 25.3522C38.4352 25.3344 38.2144 25.3402 38.0491 25.3677C38.2005 25.4337 38.2074 25.4351 38.4024 25.4334C38.4753 25.4459 38.5482 25.4591 38.6211 25.4709C39.0304 25.5362 39.4408 25.5943 39.8485 25.6675C40.5987 25.8022 41.3437 25.9624 42.0826 26.1501C43.3389 26.4696 44.5715 26.8622 45.7739 27.3481C47.0531 27.8648 48.2837 28.4773 49.4513 29.2139C50.4495 29.8438 51.3859 30.5544 52.2424 31.3679C52.9533 32.0429 53.5971 32.7763 54.1552 33.583C55.2883 35.2208 55.9995 37.0169 56.1923 39.0082C56.2316 39.4142 56.2495 39.8207 56.2425 40.2279C56.2349 40.687 56.2039 41.1444 56.1416 41.6002C56.0724 42.1069 55.9742 42.6072 55.8453 43.1016C55.5976 44.0498 55.2476 44.9598 54.8159 45.839C54.1501 47.1946 53.3139 48.4393 52.3623 49.6088C52.344 49.6312 52.3216 49.6504 52.2998 49.6696C52.2952 49.6738 52.2847 49.675 52.2785 49.6727C52.2739 49.671 52.2706 49.662 52.2695 49.656C52.26 49.6104 52.278 49.5692 52.2898 49.5266C52.4977 48.7756 52.6362 48.0117 52.6987 47.2355C52.7419 46.6969 52.7549 46.157 52.7237 45.6156C52.6917 45.0602 52.6292 44.5093 52.523 43.9639C52.3354 43.0009 52.0338 42.0745 51.6139 41.1872C50.7743 39.4142 49.568 37.9371 48.0173 36.7396C46.8042 35.803 45.4607 35.1134 44.0067 34.6349C43.2247 34.3777 42.4252 34.1941 41.6126 34.065C41.5543 34.0557 41.4948 34.0518 41.4358 34.0481C41.4242 34.0474 41.4085 34.0555 41.4008 34.0647C41.3897 34.0784 41.3957 34.0925 41.4094 34.1027C41.4684 34.1472 41.5263 34.1932 41.586 34.237C42.2182 34.7032 42.8273 35.1974 43.4083 35.7261C44.3146 36.5505 45.1435 37.4454 45.8711 38.4322C47.1404 40.1536 48.0325 42.046 48.4659 44.1468C48.5571 44.5892 48.6258 45.0348 48.674 45.4841C48.6992 45.7198 48.7131 45.9561 48.73 46.1925C48.7654 46.6881 48.7638 47.1842 48.7383 47.6798C48.717 48.0937 48.6828 48.5066 48.6291 48.9182C48.5784 49.3076 48.5133 49.694 48.4244 50.0761C48.1848 51.106 47.802 52.0806 47.2945 53.0077C46.8056 53.901 46.2172 54.7249 45.5542 55.4962C44.8088 56.3634 43.9833 57.1481 43.1032 57.8766C42.2293 58.5998 41.3099 59.26 40.3587 59.8769C39.1403 60.667 37.8778 61.3802 36.5882 62.0464C35.3321 62.6953 34.0531 63.296 32.7624 63.8724C32.6948 63.9025 32.6274 63.9333 32.5612 63.9659C32.5503 63.9713 32.5452 63.9886 32.5376 64.0004L32.5367 64Z" fill="#01BE6E"/>
</g>
<defs>
<clipPath id="clip0_1667_4920">
<rect width="52.9128" height="64" fill="white" transform="translate(6.71631)"/>
</clipPath>
</defs>
</svg>
