<svg width="65" height="64" viewBox="0 0 65 64" fill="none" xmlns="http://www.w3.org/2000/svg">
<path d="M6.0324 24.0294L0 16.9602H64L56.8365 24.0294H36.8542V38.3564H59.0987L50.3328 47.1222H41.2842L27.2401 59.2813V37.0368H16.7776L10.0854 28.648H27.2401V24.0294H6.0324Z" fill="#E4002B"/>
<path d="M15.6467 4L16.4932 6.60518H19.2324L17.0163 8.21527L17.8628 10.8204L15.6467 9.21036L13.4306 10.8204L14.2771 8.21527L12.061 6.60518H14.8002L15.6467 4Z" fill="white"/>
<path d="M48.1653 4L49.0117 6.60518H51.751L49.5349 8.21527L50.3814 10.8204L48.1653 9.21036L45.9492 10.8204L46.7956 8.21527L44.5795 6.60518H47.3188L48.1653 4Z" fill="white"/>
<path d="M26.4861 4L27.3325 6.60518H30.0718L27.8557 8.21527L28.7022 10.8204L26.4861 9.21036L24.27 10.8204L25.1164 8.21527L22.9003 6.60518H25.6396L26.4861 4Z" fill="white"/>
<path d="M37.3254 4L38.1719 6.60518H40.9111L38.695 8.21527L39.5415 10.8204L37.3254 9.21036L35.1093 10.8204L35.9558 8.21527L33.7397 6.60518H36.479L37.3254 4Z" fill="white"/>
</svg>
