<svg width="65" height="64" viewBox="0 0 65 64" fill="none" xmlns="http://www.w3.org/2000/svg">
<path d="M41.32 54.461C41.2798 55.1103 41.2423 55.7131 41.203 56.352C41.1527 56.3053 41.1276 56.288 41.1102 56.2651C39.0269 53.5402 36.9431 50.8157 34.8629 48.0889C34.6216 47.7727 34.6266 47.7621 34.347 48.0555C33.3485 49.1025 32.3536 50.1531 31.3574 51.2023C31.3236 51.2379 31.2966 51.2873 31.2555 51.3078C31.2075 51.3316 31.128 51.3567 31.0965 51.3339C31.0558 51.3042 31.0234 51.2238 31.0321 51.1726C31.0535 51.0437 31.102 50.9199 31.1358 50.7933C31.1591 50.7051 31.208 50.5908 31.0878 50.5543C31.0293 50.5365 30.9233 50.5895 30.8735 50.6429C30.3978 51.1506 29.9303 51.6666 29.4582 52.1784C27.7121 54.0726 25.971 55.9708 24.2135 57.8545C23.9288 58.1593 23.5938 58.4298 23.2442 58.6583C22.6698 59.034 22.0287 59.0541 21.3775 58.8777C21.2989 58.8566 21.223 58.8215 21.1508 58.7831C20.921 58.6611 20.8977 58.5637 21.0284 58.338C22.9755 54.9691 25.1462 51.742 27.2798 48.4915C28.7106 46.3122 30.1442 44.1342 31.5823 41.9599C31.7664 41.6816 31.7737 41.4266 31.6216 41.1314C30.4101 38.7757 29.206 36.4158 28.0005 34.0569C27.9712 33.9993 27.9452 33.9399 27.9077 33.86C28.0626 33.8801 28.1965 33.8979 28.33 33.9144C28.5086 33.9363 28.5785 33.8485 28.5114 33.6817C28.4725 33.5853 28.4218 33.4944 28.3802 33.3989C28.3153 33.2494 28.3208 33.106 28.451 32.994C28.5548 32.9049 28.5292 32.8258 28.4734 32.7216C28.1951 32.2007 27.921 31.677 27.6523 31.151C27.4777 30.8087 27.3831 30.4468 27.4224 30.0575C27.4302 29.9816 27.4233 29.9044 27.4233 29.8171C27.389 29.8239 27.3625 29.8239 27.3401 29.834C25.4227 30.6794 23.5061 31.5271 21.5868 32.3689C21.3885 32.4557 21.2427 32.5859 21.1572 32.776C20.8835 33.3843 20.5915 33.9861 20.3543 34.6085C19.3494 37.2421 18.4812 39.9236 17.6645 42.6202C15.8252 48.6939 14.0174 54.7777 12.1968 60.8573C12.0762 61.2608 11.9569 61.6652 11.834 62.0678C11.6251 62.7515 11.1595 63.0746 10.4402 63.0257C10.0655 63.0005 9.72137 62.8781 9.42981 62.6354C9.16888 62.4183 9.03727 62.1537 9.09485 61.7973C9.34939 60.2248 9.58884 58.6496 9.84384 57.0767C10.1066 55.4554 10.3808 53.8363 10.6513 52.2163C10.9401 50.4885 11.2294 48.7606 11.52 47.0333C11.8107 45.3054 12.1031 43.5785 12.3938 41.8507C12.6849 40.1233 12.9755 38.3955 13.2652 36.6681C13.4128 35.788 13.5581 34.9078 13.7044 34.0272C13.708 34.0062 13.7044 33.9847 13.7044 33.9738C10.0042 34.6295 6.30546 35.2848 2.60668 35.9406C2.59709 35.915 2.58795 35.889 2.57835 35.8634C3.15049 35.5055 3.72308 35.1473 4.29521 34.7895C3.14592 34.8283 2.01033 34.911 0.86377 34.8708C0.897129 34.8484 0.929117 34.8233 0.964305 34.8036C4.52325 32.8231 8.09361 30.8636 11.7545 29.0754C12.3641 28.7775 12.9814 28.496 13.5997 28.2163C14.197 27.9462 14.7189 27.5848 14.9551 26.9505C15.0972 26.5698 15.1754 26.1613 15.2435 25.7587C15.3984 24.8411 15.5295 23.9193 15.6694 22.999C15.6749 22.9624 15.6703 22.924 15.6703 22.8761C11.9363 24.0756 8.25447 25.4205 4.44602 26.414C4.3994 26.3267 4.35416 26.2417 4.29658 26.1334C4.69873 25.9319 5.09538 25.7331 5.49204 25.5343L5.4861 25.4909H4.57123C4.56894 25.4767 4.56666 25.4625 4.56437 25.4484C7.43328 23.7676 10.325 22.1248 13.1482 20.3668C13.1418 20.3513 13.1354 20.3362 13.129 20.3206C11.0539 20.901 8.97878 21.4809 6.90364 22.0613C6.89542 22.0471 6.88719 22.0325 6.87897 22.0183C7.37524 21.6349 7.87198 21.251 8.36826 20.8676C8.36323 20.8585 8.3582 20.8489 8.35363 20.8398C6.93654 21.1546 5.51946 21.4699 4.10191 21.7848C4.09414 21.767 4.08638 21.7487 4.07861 21.7309C4.16269 21.6655 4.24266 21.5947 4.33086 21.5362C5.53819 20.731 6.74461 19.924 7.95606 19.1243C10.9059 17.1766 13.9854 15.4461 17.0559 13.7009C17.5649 13.4111 18.0658 13.1054 18.5826 12.8308C18.8627 12.6818 19.0167 12.4615 19.1054 12.1718C19.4193 11.1464 19.7337 10.1214 20.0564 9.09864C20.0884 8.99673 20.1574 8.88934 20.2396 8.82262C21.8107 7.54994 23.3868 6.2832 24.962 5.01508C24.9917 4.99132 25.0233 4.96893 25.0557 4.94882C25.4976 4.67098 25.956 4.87571 26.008 5.39392C26.0679 5.99347 26.1031 6.59531 26.1378 7.19715C26.1689 7.73867 26.1849 8.2811 26.2077 8.82308C26.2087 8.84319 26.2128 8.86284 26.2173 8.89939C26.3325 8.84501 26.4358 8.79749 26.5377 8.74813C30.7455 6.70087 34.9511 4.64996 39.1621 2.60955C40.083 2.16354 41.0179 1.74724 41.9543 1.33413C43.896 0.477753 45.786 1.21212 46.8618 2.68176C47.396 3.41155 47.8228 4.21217 48.0828 5.08729C48.4191 6.22059 48.176 7.22137 47.3544 8.07089C47.2045 8.22581 47.0185 8.35513 46.8298 8.46207C45.8057 9.04197 44.7926 9.64427 43.7447 10.1785C39.0973 12.5461 34.4402 14.8949 29.7841 17.2465C28.1814 18.0559 26.5738 18.8542 24.9652 19.6516C24.808 19.7298 24.7313 19.8303 24.6915 20.0012C24.3981 21.2757 24.0938 22.5475 23.794 23.8206C23.783 23.8668 23.7771 23.9139 23.7638 23.9888C23.8996 23.9458 24.0143 23.9161 24.1239 23.8736C25.7252 23.2512 27.3241 22.6229 28.9272 22.0055C30.3772 21.4471 31.8231 20.8727 33.3252 20.4673C33.9521 20.2982 34.5947 20.1767 35.2367 20.0734C35.7284 19.9944 36.2215 20.0889 36.6995 20.2151C37.0212 20.3001 37.2438 20.534 37.4261 20.8023C37.7775 21.3191 37.9512 21.9018 37.9717 22.5173C37.9845 22.9021 37.9502 23.2956 37.8776 23.6739C37.7551 24.311 37.4142 24.821 36.8763 25.2007C36.0186 25.8067 35.0918 26.2906 34.1532 26.7512C33.269 27.1849 32.3728 27.5944 31.4822 28.0148C31.4237 28.0422 31.3657 28.071 31.2953 28.1053C31.3222 28.1491 31.3414 28.1861 31.3657 28.2195C33.019 30.546 34.6728 32.872 36.3271 35.1985C36.3494 35.2295 36.3718 35.2611 36.3951 35.2912C36.5103 35.4416 36.6067 35.4416 36.6908 35.2766C37.2474 34.1844 37.9836 33.2056 38.654 32.1861C39.9705 30.184 41.4393 28.2917 42.892 26.3888C46.6963 21.4069 50.5226 16.4418 54.3228 11.4576C55.4324 10.0021 56.6845 8.6933 58.0856 7.52115C58.1473 7.46951 58.2131 7.42336 58.3182 7.34339C58.2921 7.56045 58.2643 7.73044 58.2547 7.9009C58.2506 7.97493 58.2615 8.07501 58.3077 8.11842C58.341 8.14949 58.4521 8.12345 58.5147 8.09374C58.9634 7.87759 59.4067 7.65047 59.8568 7.43752C59.9226 7.40645 60.0145 7.43112 60.0945 7.43021C60.0835 7.51018 60.0963 7.60478 60.0574 7.66784C59.6635 8.30578 59.1545 8.85095 58.6449 9.39521C58.5485 9.49849 58.4507 9.6004 58.3534 9.70276C58.3607 9.7151 58.3675 9.72744 58.3749 9.74023C58.6431 9.62873 58.9113 9.51723 59.2152 9.39064C59.1001 9.58715 58.9986 9.76034 58.8972 9.93353C58.9063 9.94359 58.915 9.95364 58.9241 9.96369C59.7705 9.32347 60.6163 8.68324 61.4882 8.02337C61.517 8.18788 61.5431 8.3236 61.5641 8.46024C61.5833 8.58362 61.6528 8.63435 61.7716 8.60464C62.102 8.52102 62.4177 8.58271 62.7431 8.6572C62.9423 8.70289 63.1685 8.68598 63.3724 8.64531C63.796 8.56123 64.2118 8.43967 64.6327 8.34142C64.699 8.32589 64.8018 8.32634 64.8379 8.36564C64.874 8.40449 64.8685 8.50913 64.8447 8.57128C64.6213 9.16398 64.2909 9.70002 63.9468 10.2283C63.6479 10.6871 63.3573 11.1509 63.063 11.6129C63.0516 11.6307 63.0447 11.6518 63.0173 11.7107C63.2778 11.5905 63.5063 11.485 63.7352 11.3794C63.7453 11.3876 63.7553 11.3959 63.7654 11.4041C63.5675 11.7226 63.3692 12.0416 63.1713 12.3601C63.1795 12.3688 63.1873 12.377 63.1955 12.3857C63.7023 12.0247 64.2095 11.6637 64.7163 11.3022C64.7296 11.3109 64.7428 11.3191 64.7561 11.3278C64.7022 11.4621 64.6629 11.6042 64.592 11.729C64.0025 12.7668 63.4071 13.8009 62.8144 14.8364C62.3899 15.5781 61.8351 16.2206 61.2913 16.8737C59.9907 18.4361 58.7071 20.0131 57.4019 21.5718C54.1053 25.5092 50.8 29.4387 47.4997 33.3728C45.4922 35.766 43.4879 38.162 41.4804 40.5552C41.2693 40.8069 41.0472 41.0501 40.826 41.2932C40.4942 41.6583 40.4723 41.8361 40.7287 42.2578C41.9456 44.2608 43.1676 46.261 44.3813 48.2657C45.5836 50.2518 46.7918 52.2337 47.911 54.2691C48.352 55.071 48.3977 55.8634 48.0709 56.6983C47.9274 57.0653 47.7867 57.4332 47.6455 57.8006C47.528 58.1058 47.3251 58.3462 47.0788 58.5541C47.0075 58.614 46.939 58.6798 46.859 58.7264C46.5113 58.9288 46.2787 59.2332 46.0776 59.5723C45.8729 59.9173 45.4058 59.9488 45.1467 59.6299C44.8465 59.2602 44.5559 58.8818 44.2734 58.4975C43.3522 57.2431 42.4368 55.9841 41.5192 54.7269C41.463 54.6497 41.4041 54.5743 41.3214 54.4651L41.32 54.461Z" fill="black"/>
</svg>
