<svg width="64" height="64" viewBox="0 0 64 64" fill="none" xmlns="http://www.w3.org/2000/svg">
<g clip-path="url(#clip0_1656_4109)">
<path d="M30.8724 63.9874C37.786 64.2191 44.6996 61.1889 47.2922 59.6448L51.9012 63.9874L64 63.6979L44.6995 44.8799C43.2592 46.0379 42.395 46.9064 38.6501 48.6435C27.5884 52.8124 20.0218 44.7834 17.6213 40.2477C14.4526 33.589 13.5884 26.0618 11.86 13.6129C26.3785 13.8445 36.9217 16.9905 40.3785 18.5346C45.2757 21.1402 51.6131 27.7989 48.1563 39.3792C38.6501 30.1149 30.0081 25.7723 24.823 22.8772C36.0575 31.5625 46.716 42.5638 56.2222 51.8281C59.679 47.1959 62.8477 40.8267 62.8477 32.431C61.9835 9.84923 44.4115 -0.283714 30.8724 0.00603702C18.1975 0.00624973 -1.10296 10.7179 0.0493101 33.589C1.20158 56.4602 22.2304 63.6979 30.8724 63.9874Z" fill="#0B8A4D"/>
</g>
<defs>
<clipPath id="clip0_1656_4109">
<rect width="64" height="64" fill="white"/>
</clipPath>
</defs>
</svg>
