<svg width="64" height="64" viewBox="0 0 64 64" fill="none" xmlns="http://www.w3.org/2000/svg">
<path fill-rule="evenodd" clip-rule="evenodd" d="M14.5324 11.3921C13.8318 10.5556 13.2992 9.638 12.9572 8.61683C12.4139 6.99077 12.3601 5.35983 12.9308 3.72987C13.4214 2.32857 14.7162 1.69046 16.1272 2.14486C18.4676 2.8973 20.8266 3.57156 23.2451 4.03378C26.6556 4.68459 30.0005 4.48915 33.3122 3.44746C35.5432 2.74583 37.8376 2.43508 40.177 2.5631C41.723 2.64811 43.1809 3.12205 44.6487 3.5784C46.0852 4.02498 47.5392 4.41586 48.9913 4.80967C49.305 4.89469 49.6451 4.92498 49.9734 4.91423C53.2578 4.81456 56.248 5.824 59.0702 7.39045C60.0737 7.94745 61.0285 8.61878 61.9236 9.33898C63.2037 10.3689 63.534 11.738 63.0561 13.3074C63.0288 13.3983 63.0171 13.5136 63.0473 13.6005C63.4451 14.7468 63.2486 15.8833 62.9877 17.0139C62.6418 18.5246 62.0877 19.9455 61.1184 21.1797C60.9982 21.3331 60.9473 21.5442 60.8799 21.7328C60.3219 23.2933 59.4307 24.5793 57.8897 25.3161C57.5653 25.4715 57.2096 25.5624 56.8548 25.6875C57.8926 26.9881 58.52 28.5077 58.8659 30.1533C58.8952 30.2979 58.9783 30.4357 59.0535 30.5657C61.6216 34.9943 59.032 40.6249 53.9858 41.521C51.8272 41.9041 49.8396 41.4116 48.1168 40.0405C46.221 38.5318 44.0516 37.8028 41.6731 37.9894C37.951 38.2816 34.1761 40.7891 33.5849 45.2353C33.0787 49.0308 34.2836 52.1441 37.3676 54.4493C38.6223 55.3874 40.0861 55.8448 41.6633 55.9083C42.7705 55.9532 43.8669 55.8926 45.0357 55.4969C44.9243 55.9102 44.8568 56.2493 44.7405 56.5708C44.0203 58.578 42.6122 59.9656 40.7487 60.9203C38.9213 61.8555 36.9493 62.22 34.9207 62.3539C32.1992 62.5327 29.5285 62.2141 26.8891 61.5614C26.7933 61.5389 26.6243 61.578 26.5744 61.6493C25.9862 62.4916 25.1644 62.7027 24.1989 62.5747C21.6445 62.2376 19.1771 61.5956 16.8709 60.4141C13.9149 58.9004 11.5872 56.7076 9.86145 53.8757C9.71096 53.6285 9.59174 53.5024 9.24484 53.5503C8.61357 53.6382 8.05363 53.3852 7.58262 52.9523C5.88132 51.3848 4.65885 49.4881 3.76374 47.3715C2.42986 44.2151 1.99013 40.9112 2.17482 37.5096C2.18263 37.3836 2.20413 37.2575 2.21781 37.1305C2.27449 36.6106 2.3126 36.1601 1.83377 35.7155C1.25723 35.1819 1.18687 34.3542 1.10185 33.5998C0.721724 30.2207 1.43703 27.0087 2.724 23.9148C5.0126 18.4201 8.84907 14.3461 14.1504 11.6452C14.252 11.5934 14.3526 11.5416 14.4523 11.4849C14.4767 11.4742 14.4885 11.4487 14.5324 11.3921ZM61.1262 12.4943C61.2092 11.7116 61.0587 11.3217 60.5076 10.8478C59.4991 9.98002 58.3588 9.31748 57.1675 8.74191C54.9122 7.65038 52.5698 6.92823 50.0281 6.99371C49.561 7.00543 49.09 6.93898 48.6278 6.86765C46.8874 6.5999 45.2438 5.98622 43.5835 5.4341C42.3161 5.01293 41.034 4.65527 39.6865 4.62694C37.8063 4.58785 35.9624 4.8341 34.1624 5.37156C32.3956 5.89925 30.6083 6.32433 28.7663 6.46504C26.4406 6.64192 24.1402 6.41521 21.8839 5.87677C19.778 5.37449 17.7005 4.75006 15.6113 4.16961C15.1207 4.03378 14.9829 4.067 14.8657 4.55658C14.7465 5.04713 14.6302 5.5543 14.6263 6.05364C14.6048 9.66732 17.8881 12.5061 21.449 11.9784C21.6631 11.9471 21.8771 11.9266 22.1399 11.8953C22.0872 11.9862 22.0784 12.0272 22.052 12.0468C21.9611 12.1142 21.8692 12.1856 21.7676 12.2354C20.5833 12.8256 19.3451 12.939 18.064 12.6331C17.6575 12.5354 17.2803 12.5344 16.8797 12.7005C10.95 15.164 6.74321 19.3308 4.41162 25.3347C3.52237 27.6253 3.01716 30.0028 3.10999 32.4761C3.13345 33.1103 3.27123 33.7406 3.36504 34.4422C3.83996 33.3604 4.24159 32.3637 4.71162 31.4002C5.18067 30.4386 6.18035 29.2044 6.69337 28.8575C6.53605 29.1986 6.38849 29.5044 6.25266 29.8142C4.27774 34.2907 3.65527 38.9168 4.78198 43.7158C5.41618 46.4148 6.56732 48.8637 8.49435 50.9011C8.69467 51.1141 8.9165 51.3067 9.12757 51.5089C8.58034 49.4363 8.48067 47.3881 8.95168 45.3086C9.46959 47.9226 10.2426 50.4389 11.6282 52.7343C13.0217 55.0435 14.8764 56.8855 17.2285 58.2105C19.3129 59.3851 23.6409 60.6662 24.75 60.4405C23.0429 59.5014 21.8536 58.1167 21.1129 56.3353C21.9572 57.1073 22.8924 57.7347 23.9174 58.2252C26.9995 59.6959 30.2683 60.2978 33.663 60.2822C35.465 60.2744 37.2337 60.0516 38.9174 59.3617C39.6816 59.047 40.3871 58.6356 40.9695 58.0073C36.3083 57.2079 33.1725 54.6096 31.7966 50.1174C30.4051 45.5773 31.7653 41.7067 35.1494 38.4067C31.3266 38.8288 28.0744 37.6777 25.2543 35.2386C21.9855 32.4135 20.9937 28.3005 21.281 25.7823C21.3425 26.2074 21.3933 26.6481 21.4715 27.0839C21.9523 29.7839 23.0653 32.1634 25.1116 34.0367C27.6191 36.3331 30.6308 37.3239 33.9933 37.3484C35.3741 37.3581 36.7412 37.2057 38.034 36.7132C42.1539 35.1428 45.9425 35.6881 49.4252 38.3959C50.5783 39.292 51.8887 39.6682 53.3506 39.4787C57.1803 38.9822 59.1923 34.7119 57.1392 31.4422C56.9965 31.2135 56.8978 30.9428 56.8382 30.678C56.5822 29.5435 56.2304 28.451 55.5708 27.4787C55.4887 27.3595 55.3939 27.25 55.2581 27.0741C55.2063 27.2305 55.1702 27.3038 55.1565 27.381C54.9943 28.3689 54.8487 29.3588 54.6718 30.3438C54.5741 30.8862 54.7138 31.1305 55.2581 31.2311C55.3666 31.2516 55.475 31.2761 55.6734 31.3171C54.75 31.6865 54.3904 31.4823 54.3132 30.6448C54.3112 30.6194 54.3112 30.594 54.3073 30.5686C54.1363 29.352 53.7933 28.2096 52.8835 27.3214C52.7838 27.2256 52.6343 27.1836 52.5083 27.1171C52.4516 27.252 52.3685 27.3819 52.3451 27.5217C52.2513 28.0582 52.2122 28.6073 52.091 29.137C51.8975 29.9705 51.6542 30.7924 51.4236 31.6455C50.9575 31.5331 50.592 31.4383 50.2226 31.3552C48.7275 31.0181 47.2343 30.6663 45.7334 30.3556C44.6672 30.1337 43.5777 30.0233 42.5203 29.7653C41.5031 29.5171 40.7174 28.9425 40.5532 27.7982C40.5435 27.7269 40.566 27.6516 40.5738 27.5774C41.4044 29.2943 42.9562 29.6529 44.5969 29.8572C44.3233 29.5933 44.0096 29.3901 43.7115 29.1673C43.0901 28.7012 42.6327 28.1227 42.5751 27.3145C42.4979 26.2464 42.6464 25.2155 43.1008 24.2324C43.8562 22.5976 45.0904 21.4035 46.5689 20.4292C46.6705 20.3618 46.7604 20.2748 46.8562 20.1966C46.8356 20.1673 46.8132 20.138 46.7926 20.1096C44.4972 20.3725 42.6239 21.3927 41.2119 23.2709C41.3184 22.9552 41.4405 22.665 41.6028 22.3973C42.9132 20.2337 44.9321 19.3318 47.3682 19.1969C49.0011 19.1061 50.6066 19.3543 52.2151 19.6103C52.5845 19.6699 52.7223 19.8214 52.7096 20.1653C52.6715 21.2539 52.6285 22.3435 52.5972 23.4321C52.5933 23.5591 52.6119 23.7243 52.6891 23.8034C52.7399 23.8562 52.9275 23.8152 53.033 23.7692C53.7796 23.4419 54.4392 22.9787 54.8995 22.3083C55.3549 21.6438 55.7272 20.9227 56.163 20.181C56.5285 20.2152 56.976 20.2572 57.4246 20.2992C57.4265 20.3119 57.4265 20.3236 57.4285 20.3373C57.1588 20.3706 56.8861 20.4018 56.6291 20.4341C56.6291 21.3399 56.6272 22.2243 56.6311 23.1077C56.6311 23.2279 56.6516 23.3481 56.6633 23.4683C56.7913 23.4409 56.932 23.4399 57.0444 23.3833C57.9337 22.9337 58.4721 22.1745 58.8004 21.2676C59.0252 20.6442 59.2646 20.0618 59.6838 19.5155C60.6464 18.2627 60.9796 16.7471 61.1614 15.2119C61.2688 14.3031 60.8633 13.5888 60.1079 13.0728C59.7952 12.8579 59.462 12.6585 59.1864 12.4015C58.7242 11.9706 58.2952 11.5025 57.8633 11.0383C57.8115 10.9826 57.8281 10.8634 57.8115 10.7735C57.9044 10.7813 58.006 10.7657 58.0842 10.8018C58.2444 10.8771 58.389 10.9846 58.5444 11.0706C59.3868 11.5367 60.2272 11.9979 61.1262 12.4943Z" fill="white"/>
<path fill-rule="evenodd" clip-rule="evenodd" d="M61.1262 12.4943C60.2272 11.9979 59.3868 11.5367 58.5454 11.0715C58.3901 10.9855 58.2454 10.878 58.0852 10.8028C58.007 10.7656 57.9044 10.7823 57.8125 10.7744C57.8291 10.8643 57.8125 10.9836 57.8643 11.0393C58.2953 11.5025 58.7252 11.9715 59.1875 12.4024C59.463 12.6595 59.7962 12.8588 60.109 13.0738C60.8643 13.5897 61.2699 14.3041 61.1624 15.2129C60.9806 16.749 60.6484 18.2637 59.6848 19.5164C59.2647 20.0627 59.0262 20.6461 58.8015 21.2686C58.4731 22.1754 57.9347 22.9347 57.0454 23.3842C56.934 23.4409 56.7923 23.4428 56.6643 23.4692C56.6526 23.349 56.6321 23.2288 56.6321 23.1086C56.6282 22.2252 56.6301 21.3399 56.6301 20.435C56.8881 20.4037 57.1598 20.3715 57.4295 20.3383C57.4275 20.3246 57.4275 20.3129 57.4256 20.3002C56.977 20.2581 56.5295 20.2161 56.164 20.1819C55.7282 20.9236 55.3559 21.6448 54.9005 22.3093C54.4402 22.9796 53.7806 23.4428 53.034 23.7702C52.9295 23.8161 52.7409 23.8572 52.6901 23.8044C52.6129 23.7243 52.5943 23.5601 52.5982 23.433C52.6295 22.3445 52.6725 21.2549 52.7106 20.1663C52.7233 19.8223 52.5855 19.6708 52.2161 19.6112C50.6077 19.3552 49.0021 19.107 47.3692 19.1979C44.9331 19.3327 42.9132 20.2357 41.6038 22.3982C41.4416 22.665 41.3194 22.9562 41.2129 23.2718C42.6249 21.3936 44.4982 20.3734 46.7937 20.1106C46.8142 20.1399 46.8367 20.1682 46.8572 20.1975C46.7614 20.2757 46.6725 20.3627 46.5699 20.4301C45.0914 21.4044 43.8582 22.5985 43.1018 24.2334C42.6474 25.2155 42.4989 26.2474 42.5761 27.3155C42.6347 28.1236 43.0911 28.7021 43.7126 29.1682C44.0116 29.391 44.3243 29.5943 44.5979 29.8581C42.9562 29.6529 41.4044 29.2943 40.5748 27.5783C40.567 27.6516 40.5455 27.7278 40.5543 27.7992C40.7184 28.9435 41.5041 29.5181 42.5214 29.7663C43.5787 30.0242 44.6683 30.1347 45.7344 30.3565C47.2354 30.6672 48.7275 31.019 50.2236 31.3562C50.593 31.4392 50.9585 31.534 51.4246 31.6464C51.6542 30.7923 51.8976 29.9715 52.092 29.1379C52.2132 28.6083 52.2523 28.0591 52.3461 27.5226C52.3696 27.3819 52.4526 27.2529 52.5093 27.1181C52.6353 27.1845 52.7849 27.2265 52.8845 27.3223C53.7943 28.2115 54.1373 29.3539 54.3083 30.5695C54.3122 30.5949 54.3122 30.6203 54.3142 30.6457C54.3904 31.4832 54.75 31.6884 55.6744 31.318C55.4761 31.277 55.3686 31.2516 55.2591 31.2321C54.7148 31.1304 54.5761 30.8861 54.6728 30.3448C54.8497 29.3607 54.9953 28.3698 55.1575 27.3819C55.1712 27.3047 55.2073 27.2304 55.2591 27.0751C55.3959 27.25 55.4897 27.3604 55.5718 27.4796C56.2314 28.4519 56.5832 29.5444 56.8392 30.679C56.8989 30.9438 56.9976 31.2145 57.1402 31.4431C59.1933 34.7128 57.1813 38.9832 53.3516 39.4796C51.8897 39.6692 50.5793 39.2939 49.4262 38.3969C45.9435 35.6891 42.1549 35.1438 38.035 36.7141C36.7422 37.2076 35.3751 37.3601 33.9943 37.3493C30.6328 37.3249 27.6211 36.334 25.1126 34.0376C23.0663 32.1643 21.9543 29.7839 21.4725 27.0848C21.3944 26.649 21.3426 26.2083 21.282 25.7832C20.9947 28.3014 21.9875 32.4145 25.2553 35.2395C28.0755 37.6786 31.3276 38.8298 35.1504 38.4076C31.7663 41.7076 30.407 45.5773 31.7976 50.1183C33.1735 54.6105 36.3093 57.2089 40.9705 58.0082C40.3881 58.6366 39.6836 59.048 38.9184 59.3626C37.2347 60.0525 35.466 60.2753 33.664 60.2831C30.2693 60.2978 27.0015 59.6959 23.9185 58.2261C22.8934 57.7366 21.9582 57.1082 21.1139 56.3362C21.8546 58.1177 23.0439 59.5024 24.751 60.4415C23.6409 60.6672 19.3139 59.3861 17.2295 58.2115C14.8774 56.8854 13.0217 55.0444 11.6292 52.7353C10.2436 50.4398 9.47061 47.9236 8.95269 45.3096C8.48168 47.389 8.58136 49.4382 9.12859 51.5099C8.91653 51.3076 8.69569 51.1151 8.49536 50.9021C6.56833 48.8646 5.41817 46.4157 4.78299 43.7167C3.65628 38.9187 4.27876 34.2917 6.25367 29.8151C6.39048 29.5053 6.53706 29.1995 6.69439 28.8584C6.18136 29.2044 5.18169 30.4386 4.71263 31.4011C4.24358 32.3646 3.84097 33.3614 3.36606 34.4431C3.27225 33.7415 3.13544 33.1112 3.11101 32.477C3.01817 30.0047 3.52338 27.6262 4.41263 25.3356C6.74423 19.3318 10.9501 15.164 16.8807 12.7015C17.2813 12.5353 17.6585 12.5373 18.0651 12.634C19.3462 12.9399 20.5843 12.8266 21.7686 12.2363C21.8703 12.1865 21.9621 12.1152 22.053 12.0477C22.0784 12.0282 22.0882 11.9871 22.1409 11.8963C21.8781 11.9275 21.6641 11.9481 21.4501 11.9793C17.8882 12.507 14.6048 9.66825 14.6273 6.05458C14.6312 5.55425 14.7475 5.04807 14.8667 4.55751C14.984 4.06891 15.1217 4.03471 15.6123 4.17054C17.7015 4.75002 19.7791 5.37445 21.8849 5.87771C24.1413 6.41614 26.4416 6.64285 28.7673 6.46598C30.6103 6.32526 32.3976 5.90018 34.1634 5.37249C35.9644 4.83504 37.8074 4.58878 39.6875 4.62787C41.035 4.65523 42.3171 5.01386 43.5846 5.43504C45.2448 5.98617 46.8885 6.60083 48.6288 6.86858C49.0911 6.93992 49.5621 7.00735 50.0292 6.99464C52.5709 6.92917 54.9132 7.65132 57.1686 8.74285C58.3598 9.31842 59.5002 9.98193 60.5086 10.8487C61.0588 11.3217 61.2093 11.7116 61.1262 12.4943ZM38.0683 7.15686C38.3223 7.12656 38.4699 7.09432 38.6184 7.09432C39.107 7.09529 39.2253 7.28976 39.0015 7.71484C38.7836 8.1233 38.8021 8.54838 38.9311 8.96858C38.9575 9.05066 39.11 9.15034 39.1979 9.14643C40.0754 9.10441 40.91 9.31158 41.721 9.60473C42.021 9.71125 42.1442 9.63796 42.2595 9.36141C42.5868 8.5777 42.5878 8.54545 41.9008 8.05588C41.2627 7.6005 40.6344 7.11972 39.839 6.96337C39.2702 6.84904 38.7015 6.79529 38.0683 7.15686ZM42.5135 9.84024C43.4741 10.0279 44.2295 9.63796 44.9712 9.11516C44.3966 9.03698 43.864 8.96565 43.3324 8.89334C43.0784 9.18552 42.8096 9.49822 42.5135 9.84024Z" fill="black"/>
<path fill-rule="evenodd" clip-rule="evenodd" d="M38.0684 7.15698C38.7006 6.79541 39.2693 6.85014 39.839 6.96154C40.6345 7.11789 41.2628 7.59867 41.9009 8.05404C42.5879 8.54362 42.5869 8.57684 42.2596 9.35958C42.1442 9.63612 42.0211 9.70941 41.7211 9.6029C40.91 9.31072 40.0755 9.10258 39.198 9.14459C39.1091 9.1485 38.9576 9.04883 38.9312 8.96674C38.8022 8.54655 38.7846 8.12245 39.0016 7.713C39.2254 7.28694 39.1071 7.09346 38.6185 7.09248C38.47 7.09346 38.3224 7.12571 38.0684 7.15698Z" fill="white"/>
<path fill-rule="evenodd" clip-rule="evenodd" d="M42.5137 9.84021C42.8098 9.4982 43.0785 9.18647 43.3326 8.89331C43.8642 8.96562 44.3967 9.03696 44.9713 9.11513C44.2296 9.63793 43.4752 10.0278 42.5137 9.84021Z" fill="white"/>
</svg>
