<svg width="64" height="64" viewBox="0 0 64 64" fill="none" xmlns="http://www.w3.org/2000/svg">
<path d="M30.7511 3.15242L27.4004 3.37051L30.0373 5.51177L29.1253 8.88228L31.9803 6.99876L34.9146 8.88228L34.0026 5.51177L36.6594 3.37051L33.2492 3.15242L31.9803 0L30.7511 3.15242Z" fill="#EB1A39"/>
<rect x="15.1279" y="13.2441" width="33.7844" height="6.85998" fill="white"/>
<path d="M38.6814 23.4351H15.1275C15.1143 29.9117 15.0879 43.1743 15.0879 44.4115C15.0879 45.6487 16.0924 47.5705 16.5947 48.3768L21.9479 53.9282V40.2083H28.7285V33.6259H21.9479V30.0175H32.0197V64.0001C34.7955 61.1847 41.1479 54.7847 44.3518 51.7077C47.5558 48.6306 48.7269 45.7201 48.9119 44.6494V23.4351H42.1313V41.9134C42.1313 43.9436 39.9636 46.5396 38.8797 47.5838L38.6814 23.4351Z" fill="white"/>
</svg>
