<svg width="64" height="64" viewBox="0 0 64 64" fill="none" xmlns="http://www.w3.org/2000/svg">
<path d="M8.62548 17.3407C8.82578 17.3088 8.99988 17.278 9.17488 17.2539C9.70308 17.1814 10.2317 17.1109 10.7602 17.0409C11.2263 16.9791 11.6932 16.9229 12.1588 16.8571C12.7234 16.7774 13.2889 16.7013 13.8505 16.6037C14.4981 16.4911 15.1507 16.3905 15.7853 16.2239C16.7517 15.9702 17.6802 15.6054 18.5544 15.1117C18.674 15.0441 18.699 14.9952 18.6614 14.8485C18.5805 14.5329 18.5215 14.2064 18.502 13.8814C18.4694 13.3397 18.4556 12.7952 18.4682 12.2527C18.4904 11.291 18.6011 10.341 18.8607 9.40831C19.1093 8.51511 19.372 7.62931 19.7759 6.79191C20.3262 5.65101 21.0245 4.61121 21.8822 3.67661C22.6898 2.79661 23.6322 2.11121 24.7307 1.64131C24.7609 1.62841 24.7907 1.61391 24.8219 1.60361C24.9405 1.56411 25.0596 1.52601 25.1988 1.48071C25.3304 1.75531 25.46 2.03011 25.5931 2.30321C26.065 3.27131 26.5249 4.24551 27.1394 5.13631C27.8577 6.17761 28.718 7.06181 29.8622 7.63811C30.3809 7.89931 30.9296 8.07901 31.4802 8.26031C31.8369 8.37771 32.1344 8.23441 32.4444 8.14081C33.6284 7.78311 34.6694 7.18391 35.518 6.27141C36.1483 5.59361 36.6781 4.84321 37.1011 4.02131C37.5176 3.21191 37.9135 2.39191 38.3187 1.57661C38.333 1.54781 38.3492 1.52001 38.3687 1.48401C38.9281 1.64761 39.4337 1.91091 39.9237 2.20981C40.9262 2.82141 41.7273 3.64591 42.4332 4.57211C43.0482 5.37911 43.5613 6.24721 43.965 7.17711C44.3144 7.98191 44.5451 8.82571 44.7694 9.67311C45.008 10.5746 45.0578 11.4921 45.1029 12.4147C45.1438 13.2515 45.0875 14.0766 44.8897 14.8912C44.8659 14.9894 44.8981 15.046 44.992 15.0991C45.8134 15.5646 46.6858 15.904 47.5888 16.1707C48.41 16.4132 49.2491 16.561 50.0978 16.6689C50.8433 16.7637 51.5847 16.8904 52.3291 16.9941C52.9172 17.076 53.5074 17.1432 54.0964 17.2191C54.3644 17.2537 54.6317 17.2938 54.9396 17.337C54.7478 17.5911 54.5733 17.8181 54.4032 18.0484C53.8366 18.816 53.2503 19.5699 52.5558 20.225C52.0267 20.7241 51.4632 21.1884 50.8968 21.6457C50.4886 21.9752 50.049 22.2656 49.6282 22.5799C49.5875 22.6103 49.5525 22.6932 49.5633 22.7407C49.7527 23.5722 49.9311 24.4068 50.151 25.2304C50.3204 25.8647 50.516 26.4954 50.754 27.1067C50.9049 27.4943 51.1366 27.8551 51.3642 28.2071C51.7531 28.8085 52.1477 29.4081 52.5752 29.9822C53.2006 30.822 53.9404 31.5553 54.7808 32.183C55.96 33.0638 57.1415 33.9415 58.3218 34.8207C58.3393 34.8337 58.3547 34.8496 58.3885 34.8797C58.2002 35.1911 58.0139 35.5034 57.8236 35.8132C57.3289 36.6191 56.8353 37.4258 56.3357 38.2287C56.0094 38.7532 55.6795 39.2756 55.3401 39.7917C54.9558 40.3762 54.5747 40.9638 54.1638 41.5295C53.6692 42.2104 53.1528 42.8759 52.6314 43.5367C51.9224 44.4352 51.2065 45.3285 50.4809 46.2136C49.9076 46.9128 49.3153 47.5964 48.7313 48.2868C47.9302 49.2339 47.1044 50.1594 46.2126 51.0219C45.1465 52.0529 44.0696 53.0729 42.9876 54.0871C42.2915 54.7396 41.5815 55.3774 40.871 56.0142C39.7087 57.056 38.5162 58.0616 37.2649 58.9964C35.8707 60.0378 34.4817 61.086 33.0891 62.1295C32.6914 62.4276 32.2874 62.7173 31.891 63.017C31.8086 63.0793 31.7515 63.0738 31.6745 63.0165C30.959 62.4845 30.241 61.9558 29.5251 61.4243C28.8407 60.9161 28.1535 60.4116 27.4759 59.8946C26.6146 59.2374 25.7488 58.5851 24.909 57.9012C24.1359 57.2718 23.3853 56.6138 22.6415 55.9497C21.5742 54.9968 20.509 54.0409 19.4673 53.0604C18.4764 52.1278 17.4893 51.1882 16.5515 50.2031C15.6833 49.2912 14.8647 48.33 14.0565 47.3635C12.9394 46.0276 11.846 44.6717 10.7547 43.3145C9.83178 42.1668 8.96168 40.9798 8.18078 39.7295C7.46488 38.5835 6.74848 37.4378 6.03518 36.2902C5.76958 35.8629 5.51678 35.4277 5.24828 35.0024C5.17858 34.892 5.21238 34.8454 5.30068 34.7799C6.43978 33.9353 7.57708 33.0883 8.71428 32.2411C9.73878 31.4778 10.6106 30.5622 11.3392 29.5183C11.8174 28.8331 12.2616 28.1218 12.6821 27.3995C12.9985 26.8561 13.1604 26.2414 13.3186 25.6359C13.5176 24.8742 13.679 24.1026 13.8582 23.3356C13.9012 23.1514 13.9496 22.9684 13.9975 22.7854C14.022 22.6919 14.0088 22.6293 13.9173 22.565C12.746 21.742 11.5967 20.889 10.6233 19.8306C10.1793 19.3479 9.77768 18.8257 9.36568 18.3142C9.11588 18.005 8.88328 17.6814 8.62548 17.3407ZM47.2963 22.1219C46.9921 22.2282 46.7083 22.3269 46.4249 22.4266C45.9277 22.6014 45.4316 22.7796 44.9329 22.95C44.8023 22.9946 44.7369 23.0499 44.7552 23.2061C44.78 23.4182 44.7752 23.6341 44.7759 23.8485C44.7852 26.7791 44.703 29.7072 44.4953 32.6306C44.3887 34.1305 44.1571 35.6096 43.6675 37.0394C43.2557 38.2421 42.7681 39.412 42.1541 40.526C41.2581 42.1514 40.2156 43.6792 39.0552 45.1269C37.9976 46.4464 36.8484 47.6781 35.5468 48.762C34.5393 49.6011 33.4614 50.3338 32.3068 50.9596C31.9255 51.1663 31.62 51.1689 31.2375 50.9589C29.9937 50.2759 28.8423 49.4668 27.7716 48.5398C26.3363 47.2971 25.0795 45.8887 23.9424 44.3724C22.5976 42.5789 21.3863 40.7055 20.5186 38.626C20.0883 37.5948 19.6888 36.5514 19.4826 35.4526C19.3116 34.5416 19.1788 33.6196 19.0991 32.6964C18.998 31.5254 18.9504 30.3489 18.9109 29.1737C18.8437 27.1744 18.7366 25.1751 18.8331 23.1737C18.8393 23.0458 18.7878 23.0002 18.6828 22.9638C18.1745 22.7874 17.6678 22.6065 17.1604 22.4277C16.8775 22.328 16.5943 22.2293 16.2896 22.1226C16.2809 22.2426 16.271 22.334 16.2682 22.4256C16.2326 23.606 16.0839 24.7733 15.757 25.9069C15.5201 26.7284 15.2334 27.5376 14.9281 28.3367C14.395 29.7325 13.6056 30.979 12.5877 32.0705C11.4623 33.2773 10.1504 34.2694 8.82948 35.2481C8.62808 35.3973 8.42598 35.5454 8.22878 35.6905C11.5437 40.8181 15.2131 45.6349 19.5907 49.903C19.849 49.528 20.095 49.1647 20.3476 48.806C20.6006 48.4467 20.8512 48.085 21.1195 47.7371C21.3911 47.385 21.6798 47.0457 21.9672 46.7061C22.2459 46.3768 22.5326 46.0543 22.8378 45.7034C22.8407 45.7614 22.8443 45.773 22.8414 45.7826C22.5576 46.7292 22.2763 47.6766 21.9858 48.6211C21.9426 48.7616 21.9667 48.8458 22.0719 48.9492C23.9107 50.7564 25.8221 52.4841 27.7756 54.1657C27.8279 54.2107 27.8914 54.2427 27.9748 54.2972C27.2515 54.8269 26.5857 55.3145 25.9064 55.812C26.2948 56.1512 26.6614 56.4737 27.0305 56.7934C27.9753 57.612 29.0162 58.3006 30.0353 59.0189C30.1298 59.0855 30.1918 59.0729 30.2811 59.0111C30.7418 58.6923 31.2095 58.3837 31.67 58.0645C31.763 58 31.8244 58.0037 31.9159 58.0672C32.3808 58.3895 32.8526 58.702 33.3187 59.0227C33.3981 59.0773 33.454 59.0841 33.5367 59.0264C34.7079 58.2087 35.8921 57.4087 36.9538 56.4459C37.188 56.2335 37.4284 56.028 37.676 55.8105C36.9902 55.3085 36.3239 54.8208 35.6429 54.3222C35.7115 54.2568 35.7531 54.2142 35.7977 54.1751C36.0704 53.9362 36.3425 53.6965 36.6172 53.4599C38.3122 51.9997 39.9488 50.4764 41.5426 48.9068C41.5897 48.8604 41.6271 48.7594 41.6107 48.7C41.407 47.9645 41.1945 47.2313 40.9796 46.4989C40.9092 46.2589 40.8254 46.0228 40.7477 45.785C40.7666 45.7727 40.7855 45.7604 40.8044 45.7482C41.3616 46.4149 41.9402 47.0651 42.4701 47.7529C43.0048 48.4469 43.4911 49.1781 44.0006 49.8959C48.3751 45.6276 52.0454 40.8107 55.3512 35.695C55.3223 35.6696 55.2992 35.6467 55.2735 35.6271C54.5043 35.0414 53.723 34.4708 52.9683 33.8669C52.0151 33.1041 51.1101 32.2907 50.3553 31.3182C49.4553 30.1586 48.8254 28.8651 48.323 27.4946C47.7085 25.8182 47.3584 24.0953 47.3079 22.311C47.3061 22.2575 47.3013 22.204 47.2963 22.1219ZM36.7365 22.7833C36.7494 22.7532 36.7559 22.7176 36.7761 22.6937C37.5246 21.809 38.2767 20.9273 39.0234 20.0411C39.7629 19.1635 40.3859 18.2087 40.9067 17.1858C41.3587 16.298 41.7489 15.3843 42.0346 14.4302C42.2791 13.6138 42.4681 12.7859 42.4816 11.9243C42.4994 10.7841 42.3018 9.68211 41.9375 8.60741C41.6503 7.76011 41.2673 6.95871 40.7283 6.23981C40.4613 5.88371 40.1634 5.55621 39.7537 5.30221C39.1148 6.52111 38.2104 7.50711 37.1873 8.38621C37.3145 8.57031 37.4203 8.73061 37.5331 8.88571C38.2333 9.84861 38.507 10.9388 38.4908 12.1128C38.479 12.9685 38.2469 13.7836 38.0107 14.5969C37.9541 14.7918 37.9511 14.7876 37.7616 14.7151C36.7765 14.3383 35.8988 13.7696 35.0704 13.1351C34.0941 12.3873 33.158 11.5869 32.2051 10.8086C32.0662 10.6951 31.9308 10.5773 31.7908 10.4589C31.7333 10.5074 31.6877 10.5467 31.6413 10.5851C30.757 11.3175 29.8844 12.0647 28.9849 12.7779C28.1582 13.4334 27.2945 14.0404 26.3334 14.4913C26.1116 14.5954 25.8831 14.6853 25.6351 14.7914C25.3487 13.8619 25.0911 12.9548 25.0886 11.9985C25.0851 10.6448 25.5228 9.44571 26.4129 8.39661C25.361 7.50541 24.4676 6.50961 23.8253 5.30211C23.4728 5.52621 23.2118 5.79181 22.9773 6.08431C22.3645 6.84841 21.9496 7.71751 21.6361 8.63881C21.2938 9.64471 21.1079 10.6779 21.0963 11.7421C21.0874 12.5584 21.2465 13.3492 21.4597 14.1299C21.6742 14.9151 21.9674 15.6729 22.305 16.4137C22.8401 17.5879 23.4693 18.7063 24.2935 19.704C25.1367 20.7247 25.9939 21.7338 26.8445 22.7484C26.8686 22.7771 26.8867 22.8108 26.9075 22.8421C25.6585 22.0476 24.5028 21.1495 23.4967 20.0723C22.4944 18.9992 21.6332 17.8145 20.8208 16.5978C20.7836 16.6158 20.7681 16.6216 20.7544 16.6301C19.4724 17.4252 18.105 18.0132 16.6116 18.2611C15.6259 18.4247 14.6315 18.5364 13.6407 18.6693C13.4332 18.6971 13.2244 18.7158 12.9819 18.7425C13.0391 18.7968 13.0633 18.8246 13.0921 18.8464C14.0814 19.5953 15.1288 20.2475 16.2808 20.7164C17.6996 21.294 19.1266 21.8516 20.5454 22.4292C21.6893 22.8949 22.847 23.3338 23.9615 23.8628C25.5476 24.6156 27.0274 25.5548 28.4211 26.6276C29.5308 27.4817 30.5877 28.3875 31.4206 29.527C31.5361 29.685 31.662 29.8352 31.792 30.0003C31.8328 29.9482 31.8624 29.9107 31.8917 29.873C32.478 29.1172 33.0673 28.3634 33.799 27.7383C34.9323 26.7699 36.1153 25.869 37.3903 25.0919C38.5271 24.399 39.6928 23.7605 40.9277 23.2613C42.928 22.4526 44.9352 21.6608 46.942 20.868C48.2182 20.3639 49.3921 19.6833 50.4816 18.8528C50.5159 18.8267 50.5447 18.7933 50.5994 18.7409C50.5048 18.729 50.4508 18.7228 50.397 18.7154C49.1893 18.5505 47.9778 18.4083 46.7748 18.2141C45.4742 18.0042 44.2837 17.4807 43.1504 16.8214C43.0239 16.7478 42.8976 16.6739 42.7534 16.5898C41.1652 19.0655 39.2817 21.237 36.7365 22.7833ZM31.3888 49.8092C31.3888 49.6981 31.3888 49.6381 31.3888 49.5782C31.3932 44.719 31.3976 39.8599 31.4019 35.0007C31.4019 34.9677 31.4131 34.9286 31.3993 34.9032C31.3776 34.8632 31.3437 34.8089 31.3068 34.8015C31.1023 34.7606 30.894 34.7393 30.6896 34.6981C29.8285 34.5247 28.9592 34.382 28.11 34.1619C26.8678 33.84 25.6997 33.3114 24.545 32.7574C24.5051 32.7383 24.4619 32.726 24.4015 32.7036C24.412 32.7914 24.417 32.851 24.4265 32.9099C24.5179 33.4738 24.6122 34.0372 24.7016 34.6014C24.8546 35.5668 25.1567 36.4896 25.5 37.4004C25.5243 37.4649 25.581 37.5361 25.6414 37.5648C25.8493 37.6638 26.0629 37.7523 26.279 37.8322C26.7887 38.0208 27.3007 38.2031 27.8127 38.3854C27.8932 38.4141 27.9366 38.4498 27.9385 38.5473C27.9644 39.8607 27.9951 41.174 28.0236 42.4874C28.0244 42.5248 28.014 42.5625 28.0024 42.6474C27.6472 42.1748 27.3174 41.7438 26.9958 41.3067C26.3178 40.3852 25.6766 39.4401 25.1967 38.3964C24.5099 36.9028 24.0512 35.341 23.8767 33.706C23.7012 32.0618 23.5636 30.4135 23.4105 28.7668C23.4069 28.728 23.4165 28.6879 23.4214 28.6325C23.4753 28.6587 23.5104 28.6724 23.542 28.6917C25.0156 29.5885 26.3885 30.619 27.6516 31.7943C27.702 31.8412 27.7393 31.9218 27.7475 31.9908C27.7839 32.2962 27.8122 32.6029 27.833 32.9098C27.8405 33.0199 27.8841 33.0731 27.9861 33.1108C28.7926 33.4083 29.6162 33.6372 30.4708 33.7439C30.7852 33.7832 31.1004 33.8151 31.4233 33.8513C31.4296 33.8018 31.4376 33.7702 31.437 33.7386C31.4218 32.8648 31.4067 31.991 31.3873 31.1172C31.3861 31.0612 31.3603 30.9988 31.3278 30.9518C31.2187 30.7937 31.1062 30.6374 30.9865 30.4872C30.2911 29.6143 29.4726 28.8684 28.6057 28.1706C27.6545 27.405 26.68 26.6722 25.6241 26.0566C23.8588 25.0274 21.9884 24.2222 20.0853 23.4889C20.0423 23.4723 19.9962 23.464 19.9314 23.4464C19.9314 23.5251 19.931 23.579 19.9315 23.633C19.9388 24.4685 19.9306 25.3044 19.957 26.1393C20.0132 27.9136 20.079 29.6876 20.1573 31.461C20.205 32.5425 20.2874 33.6221 20.4948 34.6878C20.7804 36.1558 21.2358 37.57 21.8697 38.9232C22.8848 41.09 24.1996 43.0669 25.7365 44.8956C26.5893 45.9102 27.4925 46.8807 28.5351 47.7062C29.1894 48.2242 29.8667 48.7132 30.5373 49.2104C30.8048 49.4087 31.0818 49.594 31.3888 49.8092ZM43.8647 23.3372C43.794 23.3579 43.7515 23.3663 43.7121 23.3823C42.8013 23.7516 41.8851 24.1084 40.9822 24.4961C40.3016 24.7883 39.6173 25.083 38.9712 25.4422C37.6292 26.1884 36.3729 27.0646 35.2022 28.0629C34.181 28.9337 33.1818 29.8251 32.3055 30.8462C32.2072 30.9607 32.1565 31.0718 32.159 31.2281C32.1722 32.036 32.1728 32.8442 32.1787 33.6523C32.1792 33.715 32.1866 33.7776 32.1907 33.8384C32.2295 33.841 32.246 33.8445 32.2621 33.8429C33.4561 33.7236 34.6399 33.5559 35.7682 33.1172C35.8546 33.0836 35.8861 33.0427 35.8845 32.9508C35.8793 32.6485 35.8772 32.346 35.8868 32.0439C35.8889 31.9793 35.9284 31.8936 35.9792 31.8562C36.6027 31.3966 37.2324 30.9454 37.8576 30.4882C37.9402 30.4278 38.0171 30.3538 38.0798 30.273C38.7511 29.4087 39.2275 28.4282 39.7377 27.4686C39.9779 27.0168 40.1954 26.5529 40.4232 26.0945C40.4286 26.0969 40.434 26.0992 40.4394 26.1016C40.0784 27.2448 39.7173 28.388 39.3536 29.5397C39.8104 29.3057 40.2524 29.0794 40.7147 28.8426C40.7225 28.9127 40.7312 28.9488 40.7297 28.9845C40.6986 29.7406 40.5954 30.4778 40.2929 31.1852C40.0124 31.8412 39.6569 32.4336 39.0569 32.8344C38.6293 33.12 38.1738 33.3648 37.7249 33.6173C37.6003 33.6874 37.5065 33.7673 37.4387 33.8952C37.2639 34.225 37.0717 34.5457 36.8959 34.875C36.3879 35.8263 35.8005 36.7254 35.1339 37.5728C35.104 37.6108 35.062 37.6391 35.0256 37.6719C35.021 37.6649 35.0164 37.658 35.0119 37.651C35.5011 36.4804 35.9902 35.3099 36.4876 34.1197C36.4368 34.1238 36.4106 34.1225 36.3863 34.1284C35.0337 34.4576 33.6697 34.7183 32.277 34.8011C32.13 34.8098 32.1622 34.9035 32.1622 34.9851C32.1615 39.8666 32.1615 44.7482 32.1619 49.6297C32.1619 49.6814 32.1669 49.7331 32.1714 49.819C32.4695 49.6264 32.7396 49.451 33.0105 49.277C33.8617 48.7301 34.692 48.154 35.4587 47.4919C37.0042 46.1573 38.2926 44.5962 39.4459 42.9204C40.5058 41.3803 41.326 39.7095 42.0726 38.0008C42.0821 37.9791 42.0802 37.9525 42.0858 37.9127C42.0335 37.9307 41.9984 37.9422 41.9637 37.9549C41.3659 38.173 40.7749 38.4124 40.1687 38.6035C39.5197 38.8081 38.8571 38.9694 38.1988 39.1439C38.0731 39.1772 37.9961 39.2421 37.9285 39.3547C37.5504 39.9852 37.1936 40.6319 36.7682 41.2294C36.4226 41.7148 35.991 42.1389 35.5962 42.5891C35.5816 42.6057 35.5528 42.6098 35.5204 42.6244C35.5175 42.583 35.5133 42.5565 35.5141 42.5301C35.5509 41.2279 35.5894 39.9257 35.6227 38.6234C35.6255 38.5152 35.6718 38.4808 35.7657 38.4649C35.9498 38.4337 36.1333 38.3987 36.316 38.3603C37.2082 38.1729 38.1032 37.9974 38.9913 37.7922C40.1335 37.5284 41.2254 37.106 42.324 36.7041C42.5881 36.6075 42.7089 36.4669 42.7767 36.2008C43.2384 34.3903 43.5234 32.5531 43.6562 30.6906C43.8259 28.3097 43.8868 25.9255 43.8735 23.5391C43.873 23.4796 43.8684 23.4202 43.8647 23.3372ZM36.6723 33.2749C37.244 33.1413 37.752 32.9162 38.2398 32.6371C38.6368 32.4099 39.0055 32.146 39.2097 31.7273C39.4035 31.33 39.565 30.9157 39.7188 30.5008C39.7889 30.3118 39.8063 30.1033 39.855 29.8679C39.7665 29.9044 39.72 29.9184 39.6786 29.9416C39.425 30.0837 39.1761 30.2345 38.9186 30.3691C38.7651 30.4493 38.6803 30.5432 38.7268 30.7282C38.7462 30.8057 38.7334 30.8922 38.7297 30.9743C38.7055 31.5173 38.1273 31.8621 37.6953 31.5407C37.4299 31.3433 37.3099 31.4678 37.1362 31.5979C37.1011 31.6242 37.069 31.6569 37.0301 31.6754C36.7304 31.8183 36.629 32.0466 36.6657 32.3781C36.6978 32.6694 36.6723 32.967 36.6723 33.2749Z" fill="#191919"/>
<path d="M47.2962 22.1219C47.3012 22.2041 47.306 22.2575 47.3076 22.3111C47.3581 24.0954 47.7082 25.8183 48.3227 27.4947C48.8251 28.8653 49.455 30.1588 50.355 31.3183C51.1098 32.2908 52.0148 33.1042 52.968 33.867C53.7226 34.4709 54.5039 35.0415 55.2732 35.6272C55.2989 35.6467 55.322 35.6697 55.3509 35.6951C52.0451 40.8108 48.3748 45.6277 44.0003 49.896C43.4908 49.1782 43.0045 48.447 42.4698 47.753C41.9399 47.0652 41.3614 46.415 40.8041 45.7483C40.7852 45.7606 40.7663 45.7729 40.7474 45.7851C40.8251 46.023 40.9089 46.259 40.9793 46.499C41.1942 47.2314 41.4067 47.9645 41.6104 48.7001C41.6268 48.7595 41.5894 48.8605 41.5423 48.9069C39.9485 50.4765 38.3119 51.9999 36.6169 53.46C36.3422 53.6966 36.0701 53.9363 35.7974 54.1752C35.7528 54.2143 35.7112 54.2569 35.6426 54.3223C36.3236 54.8208 36.9899 55.3085 37.6757 55.8106C37.4281 56.0281 37.1877 56.2336 36.9535 56.446C35.8918 57.4089 34.7076 58.209 33.5364 59.0266C33.4537 59.0843 33.3978 59.0776 33.3184 59.0229C32.8523 58.7022 32.3806 58.3896 31.9156 58.0673C31.8241 58.0038 31.7627 58.0003 31.6697 58.0647C31.2092 58.3838 30.7415 58.6924 30.2808 59.0112C30.1916 59.073 30.1296 59.0857 30.035 59.0191C29.0159 58.3008 27.975 57.612 27.0302 56.7935C26.6612 56.4738 26.2945 56.1513 25.9061 55.8121C26.5854 55.3146 27.2512 54.827 27.9745 54.2973C27.8911 54.2428 27.8276 54.2109 27.7753 54.1658C25.8218 52.4842 23.9104 50.7565 22.0716 48.9493C21.9664 48.8459 21.9423 48.7616 21.9855 48.6212C22.276 47.6767 22.5573 46.7293 22.8411 45.7827C22.844 45.773 22.8404 45.7615 22.8375 45.7035C22.5323 46.0543 22.2456 46.3769 21.9669 46.7062C21.6795 47.0458 21.3908 47.3851 21.1192 47.7372C20.8509 48.085 20.6003 48.4467 20.3473 48.8061C20.0947 49.1648 19.8487 49.5281 19.5904 49.9031C15.2128 45.635 11.5434 40.8182 8.22852 35.6906C8.42572 35.5454 8.62792 35.3974 8.82922 35.2482C10.1501 34.2695 11.4619 33.2774 12.5874 32.0706C13.6054 30.9791 14.3947 29.7326 14.9278 28.3368C15.233 27.5377 15.5198 26.7284 15.7567 25.907C16.0836 24.7733 16.2323 23.606 16.2679 22.4257C16.2707 22.3341 16.2806 22.2428 16.2893 22.1227C16.5939 22.2294 16.8772 22.3281 17.1601 22.4278C17.6676 22.6066 18.1743 22.7875 18.6825 22.9639C18.7875 23.0003 18.8389 23.046 18.8328 23.1738C18.7363 25.1752 18.8434 27.1745 18.9106 29.1738C18.9501 30.349 18.9978 31.5255 19.0988 32.6965C19.1785 33.6197 19.3113 34.5418 19.4823 35.4527C19.6886 36.5515 20.088 37.5949 20.5183 38.6261C21.3861 40.7056 22.5973 42.579 23.9421 44.3725C25.0791 45.8889 26.336 47.2972 27.7713 48.5399C28.842 49.4669 29.9934 50.2761 31.2372 50.959C31.6197 51.169 31.9252 51.1664 32.3065 50.9597C33.4611 50.3339 34.539 49.6012 35.5465 48.7621C36.848 47.6782 37.9973 46.4465 39.0549 45.127C40.2153 43.6793 41.2578 42.1515 42.1538 40.5261C42.7679 39.4121 43.2554 38.2422 43.6672 37.0395C44.1568 35.6096 44.3884 34.1305 44.495 32.6307C44.7027 29.7073 44.7849 26.7792 44.7756 23.8486C44.7749 23.6343 44.7797 23.4183 44.7549 23.2062C44.7367 23.05 44.802 22.9947 44.9326 22.9501C45.4313 22.7798 45.9274 22.6015 46.4246 22.4267C46.7082 22.3269 46.992 22.2282 47.2962 22.1219ZM40.7493 45.7503C40.7528 45.747 40.7587 45.744 40.759 45.7404C40.7593 45.7369 40.754 45.7328 40.7511 45.729C40.7476 45.7323 40.7417 45.7353 40.7414 45.7389C40.7411 45.7425 40.7464 45.7465 40.7493 45.7503Z" fill="#EAEBEB"/>
<path d="M36.7362 22.7833C39.2814 21.237 41.1649 19.0655 42.7529 16.5895C42.8972 16.6737 43.0235 16.7476 43.1499 16.8211C44.2832 17.4804 45.4737 18.0039 46.7743 18.2138C47.9773 18.408 49.1887 18.5501 50.3965 18.7151C50.4503 18.7225 50.5043 18.7287 50.5989 18.7406C50.5442 18.793 50.5154 18.8263 50.4811 18.8525C49.3917 19.683 48.2177 20.3635 46.9415 20.8677C44.9347 21.6604 42.9276 22.4523 40.9272 23.261C39.6923 23.7602 38.5266 24.3987 37.3898 25.0916C36.1148 25.8687 34.9318 26.7696 33.7985 27.738C33.0669 28.3632 32.4776 29.117 31.8912 29.8727C31.8619 29.9104 31.8323 29.9479 31.7915 30C31.6615 29.8349 31.5356 29.6847 31.4201 29.5267C30.5871 28.3872 29.5302 27.4814 28.4206 26.6273C27.0269 25.5546 25.5471 24.6153 23.961 23.8625C22.8465 23.3336 21.6888 22.8946 20.5449 22.4289C19.1261 21.8513 17.6991 21.2937 16.2803 20.7161C15.1283 20.2472 14.0809 19.5949 13.0916 18.8461C13.0628 18.8243 13.0386 18.7965 12.9814 18.7422C13.2238 18.7155 13.4326 18.6969 13.6402 18.669C14.631 18.5361 15.6253 18.4244 16.6111 18.2608C18.1045 18.013 19.4719 17.4249 20.7539 16.6298C20.7676 16.6213 20.7831 16.6155 20.8203 16.5975C21.6327 17.8142 22.494 18.9989 23.4962 20.072C24.5024 21.1493 25.658 22.0473 26.907 22.8418C26.8861 22.8104 26.868 22.7768 26.844 22.7481C25.9934 21.7335 25.1362 20.7244 24.293 19.7037C23.4688 18.706 22.8396 17.5876 22.3045 16.4134C21.9669 15.6726 21.6737 14.9148 21.4592 14.1296C21.2459 13.3489 21.0869 12.5581 21.0958 11.7418C21.1074 10.6776 21.2933 9.64436 21.6356 8.63846C21.9491 7.71716 22.364 6.84806 22.9768 6.08396C23.2113 5.79156 23.4723 5.52596 23.8248 5.30176C24.4671 6.50926 25.3606 7.50506 26.4124 8.39626C25.5222 9.44536 25.0845 10.6445 25.0881 11.9982C25.0906 12.9545 25.3481 13.8615 25.6346 14.7911C25.8826 14.685 26.111 14.595 26.3329 14.491C27.294 14.0402 28.1577 13.4331 28.9844 12.7776C29.8839 12.0644 30.7565 11.3173 31.6408 10.5848C31.6872 10.5464 31.7328 10.5072 31.7903 10.4586C31.9303 10.577 32.0657 10.6948 32.2046 10.8083C33.1575 11.5867 34.0936 12.387 35.0699 13.1348C35.8983 13.7693 36.776 14.338 37.7611 14.7148C37.9506 14.7873 37.9537 14.7915 38.0102 14.5966C38.2463 13.7833 38.4785 12.9682 38.4903 12.1125C38.5065 10.9385 38.2328 9.84826 37.5326 8.88536C37.4198 8.73046 37.314 8.57026 37.1868 8.38606C38.2099 7.50696 39.1144 6.52096 39.7532 5.30206C40.1629 5.55606 40.4608 5.88356 40.7278 6.23966C41.2668 6.95856 41.6498 7.75996 41.937 8.60726C42.3013 9.68196 42.499 10.7841 42.4811 11.9242C42.4676 12.7858 42.2786 13.6137 42.0341 14.4301C41.7484 15.3842 41.3583 16.2979 40.9062 17.1857C40.3854 18.2086 39.7624 19.1634 39.0229 20.041C38.2762 20.9272 37.5241 21.8089 36.7756 22.6936C36.7555 22.7176 36.7491 22.7531 36.7362 22.7833Z" fill="#EAEBEB"/>
<path d="M31.3886 49.8092C31.0816 49.594 30.8046 49.4088 30.5372 49.2105C29.8666 48.7133 29.1893 48.2243 28.535 47.7063C27.4925 46.8808 26.5892 45.9103 25.7364 44.8957C24.1995 43.067 22.8847 41.0901 21.8696 38.9233C21.2357 37.5702 20.7803 36.1559 20.4947 34.6879C20.2874 33.6222 20.2049 32.5425 20.1572 31.4611C20.079 29.6877 20.0131 27.9136 19.9569 26.1394C19.9305 25.3045 19.9388 24.4686 19.9314 23.6331C19.9309 23.5791 19.9313 23.5252 19.9313 23.4465C19.9961 23.4641 20.0422 23.4724 20.0852 23.489C21.9883 24.2223 23.8587 25.0276 25.624 26.0567C26.6799 26.6723 27.6544 27.4051 28.6056 28.1707C29.4725 28.8685 30.291 29.6144 30.9864 30.4873C31.1061 30.6375 31.2186 30.7938 31.3277 30.9519C31.3601 30.9989 31.3859 31.0613 31.3872 31.1173C31.4066 31.991 31.4217 32.8648 31.4369 33.7387C31.4374 33.7702 31.4295 33.8019 31.4232 33.8514C31.1003 33.8152 30.7851 33.7833 30.4707 33.744C29.6161 33.6372 28.7925 33.4084 27.986 33.1109C27.884 33.0733 27.8404 33.02 27.8329 32.9099C27.8121 32.603 27.7838 32.2963 27.7474 31.9909C27.7392 31.9218 27.7018 31.8412 27.6515 31.7944C26.3884 30.6191 25.0155 29.5886 23.5419 28.6918C23.5102 28.6725 23.4752 28.6589 23.4213 28.6326C23.4164 28.688 23.4068 28.7281 23.4104 28.7669C23.5635 30.4135 23.7011 32.0618 23.8766 33.7061C24.0511 35.3411 24.5099 36.9028 25.1966 38.3965C25.6765 39.4402 26.3177 40.3853 26.9957 41.3068C27.3173 41.7439 27.6471 42.175 28.0023 42.6475C28.014 42.5626 28.0243 42.5249 28.0235 42.4875C27.995 41.1741 27.9643 39.8608 27.9384 38.5474C27.9365 38.4499 27.8931 38.4142 27.8126 38.3855C27.3006 38.2032 26.7886 38.0209 26.2789 37.8323C26.0628 37.7524 25.8492 37.6639 25.6413 37.5649C25.5809 37.5361 25.5242 37.465 25.4999 37.4005C25.1566 36.4897 24.8545 35.5669 24.7015 34.6015C24.6121 34.0373 24.5178 33.4739 24.4264 32.91C24.4169 32.8511 24.4119 32.7915 24.4014 32.7037C24.4618 32.7261 24.505 32.7383 24.5449 32.7575C25.6996 33.3115 26.8676 33.8401 28.1099 34.162C28.9591 34.3821 29.8284 34.5248 30.6895 34.6982C30.8939 34.7394 31.1023 34.7607 31.3067 34.8016C31.3436 34.809 31.3775 34.8632 31.3992 34.9033C31.413 34.9288 31.4018 34.9679 31.4018 35.0008C31.3974 39.86 31.393 44.7191 31.3887 49.5783C31.3886 49.6381 31.3886 49.698 31.3886 49.8092Z" fill="#EAEBEB"/>
<path d="M43.8647 23.3372C43.8684 23.4203 43.873 23.4797 43.8733 23.5391C43.8866 25.9255 43.8257 28.3097 43.656 30.6906C43.5232 32.5531 43.2382 34.3903 42.7765 36.2008C42.7086 36.4669 42.5879 36.6075 42.3238 36.7041C41.2252 37.106 40.1333 37.5284 38.9911 37.7922C38.103 37.9973 37.208 38.1729 36.3158 38.3603C36.1331 38.3987 35.9495 38.4337 35.7655 38.4649C35.6716 38.4808 35.6253 38.5152 35.6225 38.6234C35.5892 39.9257 35.5507 41.2279 35.5139 42.5301C35.5132 42.5565 35.5173 42.5829 35.5202 42.6244C35.5526 42.6099 35.5814 42.6057 35.596 42.5891C35.9908 42.139 36.4224 41.7148 36.768 41.2294C37.1934 40.6319 37.5503 39.9852 37.9283 39.3547C37.9958 39.2421 38.0729 39.1773 38.1986 39.1439C38.8568 38.9694 39.5195 38.8081 40.1685 38.6035C40.7748 38.4124 41.3657 38.1729 41.9635 37.9549C41.9982 37.9422 42.0333 37.9307 42.0856 37.9127C42.08 37.9525 42.0819 37.9791 42.0724 38.0008C41.3258 39.7095 40.5057 41.3803 39.4457 42.9204C38.2924 44.5961 37.004 46.1573 35.4585 47.4919C34.6918 48.154 33.8615 48.7301 33.0103 49.277C32.7394 49.451 32.4693 49.6264 32.1712 49.819C32.1667 49.7331 32.1617 49.6814 32.1617 49.6297C32.1613 44.7482 32.1613 39.8666 32.162 34.9851C32.162 34.9035 32.1298 34.8099 32.2768 34.8011C33.6694 34.7183 35.0335 34.4576 36.3861 34.1284C36.4105 34.1225 36.4366 34.1238 36.4874 34.1197C35.9901 35.3098 35.5009 36.4804 35.0117 37.651C35.0163 37.658 35.0209 37.6649 35.0254 37.6719C35.0618 37.6391 35.1039 37.6107 35.1337 37.5728C35.8003 36.7254 36.3877 35.8264 36.8957 34.875C37.0716 34.5457 37.2637 34.2251 37.4385 33.8952C37.5063 33.7673 37.6001 33.6874 37.7247 33.6173C38.1736 33.3648 38.6291 33.1201 39.0567 32.8344C39.6568 32.4336 40.0123 31.8412 40.2927 31.1852C40.5952 30.4778 40.6984 29.7406 40.7295 28.9845C40.731 28.9488 40.7222 28.9127 40.7145 28.8426C40.2522 29.0794 39.8102 29.3057 39.3534 29.5397C39.7171 28.3879 40.0782 27.2448 40.4392 26.1016C40.4338 26.0992 40.4284 26.0969 40.423 26.0945C40.1952 26.5529 39.9778 27.0168 39.7375 27.4686C39.2272 28.4282 38.7509 29.4087 38.0796 30.273C38.0169 30.3538 37.94 30.4278 37.8574 30.4882C37.2321 30.9454 36.6024 31.3965 35.979 31.8562C35.9283 31.8936 35.8887 31.9793 35.8866 32.0439C35.877 32.3459 35.8791 32.6485 35.8843 32.9508C35.8859 33.0427 35.8544 33.0836 35.768 33.1172C34.6397 33.5559 33.4559 33.7236 32.2619 33.8429C32.2459 33.8445 32.2293 33.841 32.1905 33.8384C32.1864 33.7776 32.1789 33.715 32.1785 33.6523C32.1726 32.8442 32.1719 32.0361 32.1588 31.2281C32.1563 31.0718 32.207 30.9607 32.3053 30.8462C33.1816 29.8251 34.1809 28.9337 35.202 28.0629C36.3728 27.0645 37.6291 26.1883 38.971 25.4422C39.6171 25.0829 40.3014 24.7883 40.982 24.4961C41.8849 24.1084 42.8011 23.7516 43.7119 23.3823C43.7515 23.3663 43.794 23.3578 43.8647 23.3372Z" fill="#EAEBEB"/>
<path d="M36.672 33.2749C36.672 32.967 36.6975 32.6694 36.6653 32.3781C36.6287 32.0466 36.7301 31.8183 37.0297 31.6754C37.0685 31.6569 37.1006 31.6241 37.1358 31.5979C37.3095 31.4678 37.4296 31.3433 37.6949 31.5407C38.1269 31.862 38.7051 31.5172 38.7293 30.9743C38.733 30.8921 38.7458 30.8056 38.7264 30.7282C38.6799 30.5432 38.7648 30.4492 38.9182 30.3691C39.1757 30.2346 39.4247 30.0838 39.6782 29.9416C39.7196 29.9184 39.7662 29.9045 39.8546 29.8679C39.8059 30.1033 39.7884 30.3118 39.7184 30.5008C39.5646 30.9157 39.4031 31.33 39.2093 31.7273C39.0051 32.146 38.6364 32.4099 38.2394 32.6371C37.7517 32.9162 37.2437 33.1413 36.672 33.2749Z" fill="#D21F27"/>
<path d="M40.7496 45.7503L40.7417 45.7389L40.7515 45.729L40.7593 45.7404L40.7496 45.7503Z" fill="#191919"/>
</svg>
