<svg width="64" height="64" viewBox="0 0 64 64" fill="none" xmlns="http://www.w3.org/2000/svg">
<path d="M51.3379 23.1653V25.8476C51.3304 25.8476 51.3573 25.5635 51.2751 26.3903C51.2751 30.6723 51.2751 40.093 51.2751 44.8116C51.2751 44.864 51.2063 44.9626 51.1615 45.0075L49.1087 47.0767L46.0287 50.1088L42.1713 53.9229L38.1256 57.9253L34.0454 61.9487L31.9746 64L30.1969 62.2612L24.0401 56.1416L19.3499 51.4724L14.2455 46.4144L12.7863 44.9522C12.7474 44.9133 12.6757 44.7743 12.6607 44.7503V27.2216C12.6532 27.25 12.7235 27.1543 12.7235 27.0706V22.793C12.7235 22.6301 12.7101 22.4208 12.734 22.2354C13.0405 19.9463 14.2351 17.5811 15.8722 15.9589L19.2243 12.6382L23.6648 8.22162L28.7661 3.16065L31.9388 0.0223999H32.0016L33.4548 1.50107L36.4136 4.46888L39.3874 7.42024L42.2207 10.2027L44.8013 12.7354L46.5326 14.4368L48.3611 16.2265C49.2612 17.1071 49.9474 18.1163 50.4244 19.2825C50.8954 20.4308 51.1869 21.6074 51.2796 22.8514C51.2886 22.9769 51.3005 23.107 51.3394 23.1653H51.3379ZM50.0925 44.0701L50.0805 23.3612C50.0805 21.283 49.0863 18.6426 47.5896 17.1714L35.9576 5.72926L31.9417 1.74179L16.5689 17.0219C15.0559 18.526 13.957 20.7627 13.9525 22.9141L13.9032 44.384L20.8704 51.272L31.9627 62.2776L49.922 44.5365C50.0401 44.4199 50.0626 44.2958 50.0925 44.0686V44.0701Z" fill="#A39D86"/>
<path d="M51.3377 44.8101H51.2749C51.2749 40.093 51.2749 30.6708 51.2749 26.3888C51.3571 25.562 51.3287 25.8445 51.3377 25.846V44.8086V44.8101Z" fill="#C9C4B1"/>
<path d="M19.6072 23.9024C19.522 24.5229 19.5205 25.0551 19.5205 25.6696V36.8187L19.507 41.4446C19.5295 41.6494 19.6012 41.8259 19.7507 41.9769L26.0227 48.2713L26.0302 34.452L23.0026 31.976C22.871 31.8475 22.892 31.5155 22.9039 31.3391L22.9234 28.6853L30.1642 31.1866L30.1582 44.6412L30.1194 51.4245C28.1368 51.7146 26.1498 51.9463 24.1524 52.1123L21.3042 49.3254L15.5823 43.5826C15.4941 43.4929 15.4224 43.312 15.4224 43.1879L15.4298 37.8145L15.4672 25.3377L19.4382 23.8815C19.501 23.859 19.6221 23.8934 19.6087 23.8994L19.6072 23.9024Z" fill="#FCFDFE"/>
<path d="M48.4721 23.6034C48.4856 23.868 48.5648 24.1357 48.5648 24.4496V43.3823C48.3047 43.6858 48.0625 43.9235 47.7844 44.1224C47.6932 44.1388 47.5691 44.1807 47.4689 44.2465C43.5173 46.8166 38.7165 49.0353 34.2939 50.6351C34.131 50.6949 34.0024 50.7248 33.8678 50.7398L33.8364 31.6621C33.8364 31.4423 33.8364 31.3122 33.9396 31.1403L41.0549 28.6853L41.0728 31.9103L37.96 34.4445V36.0263L37.9704 48.2579L44.4757 41.7332L44.4727 31.218L44.4652 24.6156C44.4234 24.2672 44.3441 23.9428 44.232 23.6139L43.7894 22.3011C45.1814 22.5613 46.53 23.0367 47.907 23.4823C48.1073 23.5466 48.2987 23.584 48.4751 23.6049L48.4721 23.6034Z" fill="#FCFDFE"/>
<path d="M47.7844 44.1224C47.7455 44.2076 47.6917 44.2988 47.599 44.393L36.3647 55.6512L33.8589 58.1884L33.8694 50.7413C34.0039 50.7263 34.131 50.6964 34.2955 50.6366C38.7195 49.0383 43.5188 46.8181 47.4704 44.248C47.5706 44.1822 47.6947 44.1403 47.7859 44.1239L47.7844 44.1224Z" fill="#E6E6E5"/>
<path d="M30.1194 51.4261L30.1358 58.1377L24.1523 52.1153C26.1498 51.9479 28.1368 51.7161 30.1194 51.4276V51.4261Z" fill="#E7E7E7"/>
<path d="M25.8778 13.7984L28.8157 20.3859L24.3184 20.4038L23.4138 18.1955C21.5689 19.4784 20.3429 21.6911 19.7179 23.7335C19.703 23.7813 19.6282 23.883 19.6088 23.9039C19.6222 23.8979 19.5011 23.862 19.4383 23.886L15.4673 25.3422C15.4733 23.255 15.6975 21.3293 16.8054 19.4873C17.9387 17.602 19.4428 15.8318 21.3311 14.688C21.2878 14.6985 21.4328 14.7508 21.4702 14.7418C22.9085 14.3964 24.432 14.0541 25.8778 13.7999V13.7984Z" fill="#E6E6E6"/>
<path d="M41.4614 13.4351C41.7425 13.8373 42.0221 14.22 42.4677 14.5146C43.9329 15.4819 45.2067 16.6601 46.2578 18.0759C47.4165 19.6353 48.3734 21.6896 48.4735 23.6034C48.2971 23.584 48.1057 23.5466 47.9054 23.4808C46.5284 23.0352 45.1813 22.5613 43.7878 22.2996C43.6279 21.8242 43.2945 21.3891 43.0313 20.9331C42.4123 19.8626 41.6274 18.964 40.5853 18.1911L39.6658 20.4053L35.167 20.3904L38.4293 13.1077C39.4356 13.2437 40.4507 13.3678 41.4614 13.4351Z" fill="#E6E6E6"/>
<path d="M25.878 13.7984C24.4322 14.0525 22.9087 14.3964 21.4704 14.7403C21.4315 14.7493 21.288 14.6969 21.3313 14.6865C21.6722 14.4368 21.9608 14.1916 22.203 13.8522L24.5025 10.6227C25.0766 11.7142 25.422 12.7742 25.878 13.7984Z" fill="#D6D6D5"/>
<path d="M41.4613 13.4351C40.4506 13.3678 39.4354 13.2437 38.4292 13.1077C38.788 12.3063 39.0243 11.4227 39.4848 10.6123L41.4613 13.4351Z" fill="#D6D6D5"/>
<path d="M50.0926 44.07C50.0642 44.2958 50.0403 44.4214 49.9222 44.538L31.9628 62.2791L20.8706 51.2735L13.9033 44.3855L13.9527 22.9156C13.9571 20.7626 15.0561 18.5259 16.5691 17.0234L31.9434 1.74176L35.9593 5.72924L47.5913 17.1714C49.0864 18.6426 50.0807 21.2829 50.0822 23.3612L50.0941 44.07H50.0926ZM27.3444 8.56099C27.3968 8.7733 27.4566 8.9856 27.5582 9.22632L31.9419 19.574C32.0002 19.5381 32.0092 19.4619 32.057 19.3677C33.6613 16.1263 34.983 12.7324 36.4422 9.38929C36.5633 9.11269 36.6575 8.88244 36.6829 8.57594L36.7293 8.47726C36.7427 8.45035 36.6725 8.38307 36.6396 8.35167L32.4054 4.36719C32.2828 4.25206 32.1572 4.16535 32.0017 4.08162C30.4333 5.27622 29.0205 6.93131 27.4999 8.25599C27.4222 8.32327 27.3549 8.49371 27.3444 8.56099ZM38.4292 13.1091L35.1669 20.3919L39.6657 20.4068L40.5852 18.1925C41.6258 18.9655 42.4122 19.8641 43.0312 20.9346C43.2943 21.3906 43.6277 21.8272 43.7877 22.3011L44.2303 23.6138C44.3409 23.9428 44.4217 24.2687 44.4635 24.6156L44.471 31.218L44.474 41.7332L37.9687 48.2579L37.9583 36.0263V34.4445L41.0711 31.9102L41.0532 28.6853L33.9379 31.1403C33.8362 31.3122 33.8347 31.4423 33.8347 31.6621L33.8661 50.7398L33.8557 58.1869L36.3615 55.6497L47.5958 44.3915C47.6885 44.2973 47.7423 44.2076 47.7812 44.1209C48.0593 43.922 48.3015 43.6843 48.5616 43.3808V24.4481C48.5616 24.1341 48.4839 23.865 48.4689 23.6019C48.3688 21.6881 47.4134 19.6338 46.2532 18.0744C45.2006 16.6585 43.9268 15.4804 42.4631 14.5131C42.0175 14.22 41.7394 13.8358 41.4568 13.4336L39.4803 10.6108C39.0198 11.4212 38.7836 12.3033 38.4247 13.1061L38.4292 13.1091ZM21.3296 14.6865C19.4427 15.8288 17.9386 17.6005 16.8038 19.4858C15.696 21.3278 15.4717 23.2535 15.4657 25.3407L15.4283 37.8175L15.4209 43.1909C15.4209 43.315 15.4926 43.4959 15.5808 43.5856L21.3027 49.3284L24.1509 52.1153L30.1343 58.1376L30.1179 51.426L30.1567 44.6427L30.1627 31.1881L22.9219 28.6868L22.9024 31.3406C22.8905 31.517 22.8695 31.8489 23.0011 31.9775L26.0287 34.4534L26.0212 48.2728L19.7492 41.9784C19.5982 41.8274 19.5265 41.6509 19.5055 41.4461L19.519 36.8202V25.6711C19.519 25.0566 19.522 24.5244 19.6072 23.9039C19.6266 23.883 19.7014 23.7813 19.7163 23.7334C20.3413 21.6911 21.5688 19.4783 23.4123 18.1955L24.3168 20.4038L28.8141 20.3859L25.8762 13.7984C25.4202 12.7742 25.0748 11.7142 24.5007 10.6228L22.2012 13.8522C21.959 14.1916 21.672 14.4383 21.3296 14.6865Z" fill="#1A1A1B"/>
<path d="M30.3823 10.7543C31.1747 9.6644 33.3023 8.98861 34.4356 9.00804C34.4236 9.11868 34.3892 9.27418 34.3354 9.39528L33.6776 10.8799C33.3785 11.5542 32.7536 11.2418 32.0628 11.6858L31.9836 11.7366C31.9088 11.7845 32.8328 12.5963 32.8313 12.698C32.8253 12.7518 32.8029 12.8954 32.779 12.9522L32.0045 14.7L32.0015 19.2915L32.0568 19.3662C32.0105 19.4604 32 19.5367 31.9417 19.5725L27.558 9.22484C27.4564 8.98562 27.3966 8.77182 27.3442 8.55951C27.869 8.68809 28.3804 8.84807 28.9365 9.0215L31.0207 12.5664C31.1224 12.2614 30.4137 11.1655 30.3808 10.7543H30.3823Z" fill="#958F7A"/>
<path d="M36.6812 8.57449C36.6558 8.88099 36.5616 9.11124 36.4405 9.38784C34.9813 12.7309 33.6596 16.1248 32.0553 19.3663L32 19.2915L32.003 14.7L32.7775 12.9522C32.8029 12.8954 32.8253 12.7519 32.8298 12.698C33.22 12.5949 33.5699 12.3811 33.9496 12.1314L32.0613 11.6843C32.752 11.2403 33.377 11.5528 33.676 10.8785L34.3339 9.39382C34.3877 9.27421 34.4221 9.11871 34.4341 9.00658C34.7929 9.01256 36.1908 8.56702 36.6812 8.573V8.57449Z" fill="#676355"/>
<path d="M32.0015 4.08163L31.9926 6.73995C31.1448 7.43369 30.3674 8.21115 29.5286 8.98861L30.1924 10.5525L30.3808 10.7543C30.4137 11.1655 31.1224 12.2614 31.0207 12.5664L28.9365 9.0215C28.3789 8.84807 27.869 8.68809 27.3442 8.55951C27.3547 8.49223 27.422 8.32179 27.4997 8.25451C29.0203 6.92983 30.4317 5.27474 32.0015 4.08014V4.08163Z" fill="#C9C4B1"/>
<path d="M36.6814 8.57443C36.191 8.56845 34.7945 9.014 34.4342 9.00802C34.3983 8.93326 34.3266 8.8301 34.2488 8.75833C33.4818 8.06908 32.7806 7.35143 31.9927 6.73992L32.0016 4.0816C32.1556 4.16533 32.2812 4.25205 32.4053 4.36717L36.6395 8.35166C36.6724 8.38306 36.7427 8.44884 36.7292 8.47725L36.6829 8.57593L36.6814 8.57443Z" fill="#A39D86"/>
<path d="M31.9928 6.73993C32.7807 7.35143 33.4819 8.06909 34.2489 8.75834C34.3281 8.8301 34.3999 8.93327 34.4343 9.00802C33.301 8.98859 31.1734 9.66438 30.381 10.7543L30.1926 10.5525L29.5288 8.98859C30.3676 8.21262 31.145 7.43366 31.9928 6.73993Z" fill="#B7B098"/>
<path d="M32.0627 11.6858L33.9511 12.1328C33.5698 12.3825 33.2214 12.5963 32.8312 12.6995C32.8312 12.5978 31.9072 11.786 31.9835 11.7381L32.0627 11.6873V11.6858Z" fill="#C9C4B1"/>
</svg>
