<svg width="64" height="65" viewBox="0 0 64 65" fill="none" xmlns="http://www.w3.org/2000/svg">
<g clip-path="url(#clip0_1603_2828)">
<path d="M39.1004 14.9465C38.7608 15.9776 38.4216 17.009 38.0799 18.0393C38.0501 18.1289 38.0673 18.1483 38.1582 18.1344C39.2193 17.9746 40.2812 17.8186 41.3426 17.66C42.6674 17.462 43.9917 17.2614 45.3165 17.0641C46.4508 16.8952 47.5858 16.7309 48.7198 16.5618C48.8512 16.5421 48.8172 16.6088 48.7929 16.6808C48.3907 17.8714 47.9897 19.0628 47.5862 20.2532C45.9139 25.189 44.2408 30.1245 42.568 35.06C42.5182 35.2062 42.4702 35.3532 42.4181 35.4987C42.3937 35.5664 42.4136 35.5782 42.4779 35.5686C43.1501 35.4664 43.8226 35.3658 44.4951 35.2651C45.2001 35.1597 45.905 35.0552 46.6098 34.9495C47.3106 34.8443 48.0111 34.7374 48.7119 34.6327C49.4127 34.5277 50.114 34.425 50.8148 34.3203C51.5116 34.2162 52.2082 34.1107 52.9048 34.006C53.6017 33.9013 54.2983 33.7971 54.9951 33.6929C55.6959 33.5882 56.397 33.484 57.0978 33.3791C57.7946 33.2747 58.4912 33.1702 59.1878 33.0645C59.929 32.9518 60.6699 32.8378 61.4106 32.7235C61.9167 32.6455 62.4225 32.5662 62.9286 32.4879C62.9441 32.4857 62.9603 32.4894 63 32.492C62.8439 32.6792 62.6997 32.8536 62.5539 33.0273C61.3793 34.4271 60.2039 35.8263 59.0298 37.2269C57.7835 38.713 56.5383 40.2001 55.293 41.6872C54.2931 42.8814 53.2938 44.0761 52.2941 45.2703C52.2567 45.3148 52.2176 45.3578 52.1799 45.4021C51.888 45.7444 51.887 45.7356 51.4543 45.7972C50.639 45.9133 49.8255 46.0404 49.0112 46.1632C48.209 46.2842 47.407 46.4058 46.6051 46.5273C45.7994 46.6497 44.9938 46.7725 44.1879 46.8945C43.4428 47.0073 42.6977 47.1193 41.9526 47.232C41.2036 47.3455 40.4548 47.4603 39.7057 47.5738C38.9606 47.6868 38.2155 47.7983 37.4704 47.911C36.7253 48.0235 35.9805 48.1368 35.2354 48.2495C34.4295 48.3716 33.6238 48.4936 32.8179 48.6157C32.0199 48.7365 31.2219 48.8571 30.4239 48.9779C29.5611 49.1085 28.6983 49.2388 27.8356 49.3705C26.9933 49.4988 26.1509 49.6279 25.3089 49.758C24.9162 49.8187 24.5241 49.8829 24.1315 49.9445C24.1042 49.9488 24.0756 49.945 24.0323 49.945C24.1325 49.6531 24.2287 49.3737 24.324 49.0941C24.8638 47.5091 25.4034 45.9238 25.9427 44.3388C25.9895 44.2014 25.9895 44.2044 25.8445 44.2261C25.0221 44.3484 24.1995 44.4687 23.3768 44.5905C22.6231 44.702 21.8696 44.8142 21.1159 44.9262C20.342 45.041 19.5681 45.1555 18.7942 45.2703C18.0405 45.3822 17.287 45.4945 16.5333 45.6067C15.8284 45.7117 15.1231 45.8151 14.4186 45.9226C13.758 46.0235 13.0953 46.105 12.4285 46.1441C11.6219 46.1911 10.8145 46.1974 10.0069 46.1549C9.1296 46.1086 8.26093 45.9976 7.40482 45.7955C6.2004 45.5114 5.06269 45.0654 4.05372 44.3184C2.84734 43.4253 2.05005 42.2271 1.56489 40.8001C1.26434 39.9165 1.09917 39.0054 1.04453 38.0725C1.0337 37.8885 1.02705 37.7045 1.01844 37.5206C1.00342 37.3197 1.01573 37.1184 1.01179 36.9173C1.00514 35.78 1.0908 34.6523 1.33031 33.5387C1.54594 32.5355 1.85633 31.5671 2.28611 30.6372C2.84291 29.4322 3.56265 28.3346 4.36092 27.2867C4.85987 26.6316 5.38441 25.9981 5.93235 25.3858C6.42219 24.8384 6.93566 24.3144 7.46537 23.8063C8.25896 23.045 9.09637 22.3393 9.97857 21.6883C10.8509 21.0442 11.7614 20.4634 12.7108 19.9457C13.7878 19.3583 14.9018 18.8608 16.0538 18.4485C17.5101 17.9276 19.0015 17.5561 20.5266 17.3253C21.4182 17.1904 22.3142 17.087 23.208 16.9685C24.1345 16.8456 25.0617 16.7263 25.9882 16.604C26.8579 16.4893 27.728 16.3773 28.5982 16.2645C29.3991 16.1606 30.1996 16.0539 31.0006 15.9497C31.8666 15.8369 32.7325 15.7242 33.598 15.6092C34.3825 15.505 35.1667 15.4008 35.9512 15.2966C36.7069 15.1962 37.4611 15.0814 38.2195 15.0039C38.4875 14.9765 38.758 14.976 39.0263 14.9465C39.051 14.9465 39.0756 14.9465 39.1002 14.9465L39.1004 14.9465Z" fill="#3594D1"/>
<path d="M11.116 44.7671C9.81999 44.7815 8.57398 44.6607 7.35258 44.3302C6.40465 44.074 5.51088 43.6945 4.72885 43.0754C3.88406 42.4065 3.31447 41.5349 2.94328 40.5197C2.66266 39.7521 2.49996 38.9578 2.45171 38.1412C2.3407 36.2554 2.56076 34.4081 3.11927 32.6079C3.48678 31.4236 4.0608 30.3409 4.75002 29.3211C5.51408 28.1909 6.37388 27.1402 7.2903 26.1363C8.58308 24.7204 10.0088 23.463 11.5861 22.3894C14.1515 20.6433 16.952 19.4929 19.9885 18.9481C21.0265 18.7618 22.0734 18.637 23.1176 18.4948C24.0318 18.3702 24.9467 18.2512 25.8614 18.1306C26.8576 17.9995 27.8537 17.8696 28.8499 17.7393C29.838 17.6099 30.826 17.4801 31.8141 17.3512C32.8184 17.2201 33.8229 17.09 34.8274 16.9594C35.5024 16.8715 36.1776 16.785 36.8525 16.6959C37.0256 16.673 37.0327 16.679 36.9749 16.8529C36.6556 17.8138 36.3361 18.7744 36.0168 19.7353C35.9669 19.886 35.9738 19.8941 36.1242 19.8719C37.9701 19.5974 39.8162 19.3233 41.6623 19.0487C43.281 18.8079 44.8997 18.5668 46.5186 18.3254C46.7279 18.2942 46.7293 18.294 46.6599 18.4991C45.7324 21.2367 44.8042 23.9744 43.8769 26.7123C43.312 28.3804 42.7491 30.0492 42.1842 31.7173C41.5749 33.5162 40.9645 35.3144 40.3545 37.1131C40.2908 37.3013 40.2541 37.3331 40.5029 37.2953C41.8858 37.0847 43.2694 36.88 44.6528 36.6739C46.0281 36.4688 47.4035 36.2645 48.7788 36.0593C50.0364 35.8719 51.294 35.6836 52.5518 35.4961C54.0001 35.2802 55.4485 35.0653 56.8968 34.8493C57.6961 34.73 58.4951 34.6097 59.2944 34.4897C59.3145 34.4867 59.3347 34.4811 59.3549 34.4794C59.3785 34.4771 59.4076 34.468 59.4214 34.4947C59.4352 34.5211 59.4123 34.5425 59.397 34.5609C59.2966 34.6827 59.1949 34.8035 59.0935 34.9243C58.1411 36.0609 57.1883 37.1972 56.2362 38.3342C55.3348 39.4106 54.4346 40.488 53.5334 41.5646C52.7576 42.4915 51.9807 43.4177 51.2056 44.3451C51.1591 44.401 51.1029 44.4239 51.036 44.4339C49.02 44.7382 47.0043 45.042 44.9886 45.3472C43.2488 45.6107 41.5092 45.8762 39.7697 46.1402C37.9814 46.4115 36.1928 46.6818 34.4043 46.9529C32.4861 47.2436 30.5678 47.5345 28.6493 47.8252C27.8503 47.9462 27.0513 48.0675 26.252 48.1868C26.0955 48.2102 26.0923 48.2049 26.146 48.0482C26.7631 46.2432 27.3804 44.4385 27.9985 42.6337C28.0487 42.4867 28.0467 42.4815 27.8995 42.5034C25.887 42.8018 23.8747 43.1011 21.8622 43.3988C19.9023 43.6887 17.9425 43.9774 15.9824 44.2661C15.1789 44.3843 14.376 44.5077 13.5713 44.6166C12.7452 44.7286 11.9145 44.7787 11.1162 44.7674L11.116 44.7671Z" fill="#FEFEFE"/>
<path d="M26.8496 32.6488C22.877 33.2379 18.9282 33.8236 15.0238 34.4027C15.1712 34.2358 15.3273 34.037 15.5052 33.8616C16.178 33.1979 16.8578 32.5418 17.535 31.8829C18.6131 30.834 19.6913 29.7853 20.7684 28.7353C20.8093 28.6955 20.8529 28.6719 20.9075 28.6638C21.9534 28.5108 22.9993 28.3588 24.0447 28.2043C25.0943 28.0493 26.1432 27.8905 27.1927 27.7352C28.2423 27.5799 29.2924 27.4284 30.3417 27.2731C31.5048 27.101 32.6674 26.9256 33.8302 26.7524C34.3449 26.6756 34.8596 26.6004 35.3743 26.5249C35.5195 26.5035 35.524 26.5095 35.475 26.654C34.4215 29.751 33.3677 32.8478 32.3142 35.9449C31.8265 37.3789 31.3379 38.8127 30.8557 40.2487C30.8185 40.3592 30.7597 40.3944 30.6585 40.409C29.2966 40.6083 27.9351 40.8104 26.5734 41.0108C25.2966 41.1985 24.0199 41.384 22.7431 41.5722C21.6327 41.7361 20.5228 41.9037 19.4124 42.0673C18.302 42.2309 17.1911 42.3902 16.0807 42.5543C15.3391 42.6637 14.5994 42.7868 13.8543 42.8691C13.4103 42.9182 12.9645 42.9449 12.518 42.964C11.6769 42.9997 10.8377 42.9733 10.0018 42.8759C8.98791 42.7579 8.00158 42.5309 7.06966 42.0894C5.86549 41.5189 5.06008 40.59 4.64261 39.3029C4.30637 38.2668 4.19904 37.2038 4.26329 36.1188C4.38907 33.9967 5.09577 32.0704 6.15816 30.2655C6.84812 29.0932 7.68257 28.0344 8.59776 27.0396C10.168 25.3325 11.9378 23.8866 13.9498 22.7576C15.6886 21.7819 17.5289 21.0893 19.4801 20.7141C20.2006 20.5754 20.9304 20.4971 21.6548 20.3834C22.4157 20.2638 23.178 20.1544 23.9396 20.0411C24.7012 19.9276 25.463 19.8149 26.2249 19.7014C27.0391 19.5801 27.8534 19.4585 28.6679 19.3374C29.4295 19.2239 30.1914 19.1109 30.9529 18.9977C31.6621 18.8922 32.371 18.7873 33.0802 18.6816C33.6028 18.6038 34.1258 18.5268 34.6479 18.446C34.7739 18.4264 34.7351 18.4954 34.7139 18.5578C34.2875 19.8186 33.8612 21.0795 33.4344 22.3401C33.2338 22.9328 33.0309 23.5247 32.8335 24.1187C32.8038 24.2083 32.7658 24.2485 32.6666 24.2626C31.6609 24.4053 30.6561 24.5566 29.6508 24.7036C28.5931 24.8583 27.5349 25.0103 26.4772 25.1654C25.4758 25.3121 24.4752 25.4623 23.4739 25.6091C22.5297 25.7475 21.5869 25.8995 20.6402 26.017C18.3407 26.3029 16.3114 27.2354 14.5115 28.6981C13.2626 29.7133 12.3481 30.9885 11.8332 32.5456C11.6579 33.0751 11.5247 33.6149 11.5213 34.1774C11.5137 35.3922 12.0559 36.2195 13.1528 36.6878C13.7069 36.9244 14.289 37.0334 14.883 37.0855C15.4356 37.1338 15.9894 37.1313 16.5401 37.0606C17.0804 36.9911 17.6185 36.9035 18.1575 36.8245C18.9317 36.711 19.7058 36.5982 20.48 36.4845C21.246 36.372 22.012 36.259 22.778 36.1465C23.5561 36.0322 24.3344 35.9187 25.1128 35.8045C25.3193 35.774 25.5251 35.7368 25.7326 35.7129C25.8069 35.7043 25.8364 35.6726 25.8588 35.6056C26.1535 34.723 26.4501 33.8412 26.7465 32.9591C26.7782 32.8647 26.81 32.7701 26.8508 32.6485L26.8496 32.6488Z" fill="#161D31"/>
<path d="M36.1704 23.8602C36.3302 23.3987 36.4828 22.9575 36.6354 22.5161C36.7499 22.1849 36.8658 21.8542 36.9771 21.5217C37.0005 21.4518 37.0285 21.4165 37.1083 21.4052C38.0692 21.2678 39.0295 21.1253 39.99 20.9834C40.8731 20.853 41.7563 20.7214 42.6398 20.5908C43.1626 20.5135 43.6857 20.4388 44.2082 20.3593C44.3116 20.3434 44.3242 20.3716 44.2917 20.4675C43.4991 22.7979 42.7082 25.1292 41.9173 27.4601C41.0031 30.1548 40.0894 32.8496 39.1757 35.5443C38.7617 36.7651 38.3476 37.9862 37.9343 39.2076C37.9203 39.2491 37.8937 39.2886 37.9063 39.3483C43.8442 38.3801 49.7801 37.4124 55.7525 36.4387C55.6324 36.5754 55.5359 36.6868 55.4376 36.7971C53.9612 38.4548 52.4843 40.1121 51.0079 41.7698C50.7236 42.0889 50.4388 42.4076 50.1572 42.7292C50.092 42.8039 50.025 42.8462 49.9219 42.8618C48.6301 43.0571 47.3393 43.2592 46.0482 43.4605C44.7815 43.6581 43.5153 43.8579 42.2486 44.055C41.0871 44.2357 39.925 44.4124 38.7634 44.5931C37.4401 44.7989 36.1173 45.0083 34.7937 45.2139C33.3651 45.4359 31.9359 45.6544 30.5072 45.8758C29.8879 45.9717 29.2693 46.0714 28.6503 46.1683C28.6106 46.1746 28.57 46.1736 28.5146 46.1768C28.6271 45.8451 28.735 45.5265 28.8435 45.2081C29.1709 44.2485 29.4997 43.2897 29.8249 42.3293C29.853 42.2467 29.8956 42.2105 29.9795 42.1979C30.6397 42.0995 31.2991 41.9948 31.9598 41.8987C32.0506 41.8853 32.0585 41.8234 32.0782 41.7628C32.3832 40.8301 32.6872 39.8972 32.9914 38.9642C34.6406 33.9064 36.2896 28.8486 37.9385 23.7908C37.954 23.7435 37.9671 23.6951 37.988 23.6237C37.3822 23.7024 36.7893 23.7797 36.1707 23.8602H36.1704Z" fill="#161D31"/>
</g>
<defs>
<clipPath id="clip0_1603_2828">
<rect width="62" height="35" fill="white" transform="translate(1 14.9465)"/>
</clipPath>
</defs>
</svg>
