<svg width="64" height="64" viewBox="0 0 64 64" fill="none" xmlns="http://www.w3.org/2000/svg">
<g clip-path="url(#clip0_1786_19669)">
<path d="M51.1301 19.8217L51.1472 17.0586C51.1671 16.5206 51.1856 16.0208 51.1329 15.4871C51.0248 14.0357 50.4545 12.6916 49.4175 11.6369L47.5542 13.3128C47.1473 13.6785 46.7277 13.9764 46.2455 14.2235C44.1859 15.185 42.314 14.2814 41.0864 12.5716C40.7621 12.1212 40.5175 11.6383 40.2771 11.1371C40.2131 11.0043 40.1491 10.8759 40.1789 10.7191C41.021 11.8275 42.2884 12.8539 43.7023 12.9584C44.8146 13.0417 45.8544 12.5306 46.4475 11.6058C47.0449 10.6725 47.1872 9.59809 46.7035 8.57729L46.2583 7.63838L45.8231 6.75594C45.7989 6.70794 45.7776 6.62463 45.7676 6.56251L47.2725 7.88122L52.1059 12.0153L53.6734 13.3778C53.8327 13.5161 53.8753 13.7124 53.8768 13.9213L53.8981 17.9114C53.8327 18.0935 53.7516 18.2389 53.6193 18.3829L51.3876 20.8086C52.6606 22.5862 53.5695 24.5558 54.1172 26.6962L54.6691 25.9182C55.1456 25.2462 55.568 24.5656 55.9066 23.8117C56.4969 22.4972 56.8368 21.1277 56.9108 19.6889C57.0103 17.7476 56.7145 15.7144 55.8354 13.9679L55.5652 13.43C55.1057 12.5179 54.1641 11.3983 53.4572 10.6415L52.9821 10.1332L52.497 9.61927L51.9949 9.08981L51.5426 8.60976L51.1856 8.2229L50.847 7.85299C50.1003 7.03832 49.4388 6.17706 48.9083 5.20285C48.1274 3.77118 47.4389 1.66181 47.5229 0C48.1174 1.9343 48.9823 3.43656 50.4857 4.8174C51.4046 5.66172 52.3434 6.44815 53.3121 7.23881C55.5908 9.09687 57.4385 10.9916 58.7229 13.6573C58.9534 14.1359 59.2009 14.5666 59.4939 15.0085C60.1823 16.0462 61.1993 16.8186 62.3928 17.1969C62.4525 17.2195 62.461 17.2266 62.4056 17.2506C61.6744 17.4581 61.0927 17.9128 60.7058 18.5552C60.4497 18.9788 60.262 19.4193 60.1197 19.8979L59.5764 21.7263C59.3829 22.3772 59.1838 22.997 58.9036 23.6183C58.2734 25.0118 57.3745 26.2274 56.2949 27.3104C55.4798 28.1279 54.7003 28.9482 53.9493 29.8193C53.6378 30.1822 53.4998 30.6043 53.2253 31.0096L52.1827 29.7897L51.8271 29.4028C51.2766 28.8042 50.7958 28.6249 50.7432 27.5659C50.6095 24.872 49.9011 21.7729 48.5427 19.3797C48.4986 19.4673 48.4801 19.552 48.4801 19.6607L48.473 25.9931C48.473 26.836 49.3763 26.8628 49.3464 26.8854L49.2909 26.9306C48.8201 27.3146 48.372 27.693 47.9439 28.125L46.6779 29.4C45.8401 30.2443 45.0066 31.0321 44.0721 31.7833L41.6782 33.7091C41.644 33.7373 41.553 33.6922 41.563 33.6682C41.5743 33.6399 41.6042 33.5722 41.627 33.5496L42.1689 32.989L42.6426 32.4793L43.2898 31.7339L44.7989 29.9054L45.0834 29.544C45.5699 28.9228 45.8658 28.1843 45.8658 27.3796L45.8686 16.9626C45.8686 16.3244 45.5699 15.7526 44.9938 15.5012C45.7961 15.4363 46.5471 15.2316 47.2398 14.8405C47.7874 14.5313 48.2767 14.1783 48.7262 13.742L48.9296 13.5458L48.9666 13.5881C48.8599 13.9538 48.6665 14.2602 48.6281 14.6386C48.5171 15.6989 48.5129 16.7465 48.4801 17.8281L51.1344 19.8245L51.1301 19.8217Z" fill="white"/>
<path d="M54.0717 23.9317C53.8725 23.5392 53.8882 23.2314 54.0603 22.8488C54.5795 21.6953 54.8654 20.474 54.9351 19.2103L54.8967 16.611L54.8327 14.4692C55.5268 15.5366 55.9066 16.7169 56.0702 17.9523C56.393 20.3907 55.8483 22.8573 54.598 24.9737L54.0702 23.9317H54.0717Z" fill="white"/>
<path d="M9.60847 23.8695C9.59283 24.0234 9.37093 24.1392 9.29981 24.2451C9.01817 24.1025 8.89585 23.8921 8.77494 23.6281C8.25861 22.4986 7.97981 21.3098 7.81339 20.0729C7.52749 17.9438 8.04667 15.7878 9.13054 13.9044L8.93141 16.6096C8.85317 17.6642 8.8802 18.6752 9.06654 19.7157C9.17606 20.3553 9.31119 20.9568 9.47477 21.5823C9.56722 21.9338 9.62412 22.2783 9.62981 22.6412C9.63692 23.0478 9.64972 23.4417 9.60705 23.8695H9.60847Z" fill="white"/>
<path d="M7.64694 6.53712L7.33544 8.57449L7.08794 6.59925C6.85324 5.51067 6.37246 5.00803 5.27863 4.75107L3.5376 4.51528L5.49199 4.12983C6.28001 3.93782 6.87315 3.36176 6.98979 2.55557L7.33259 0.197693L7.78776 2.78288C7.89018 3.36458 8.32544 3.77262 8.84888 4.00982C9.15186 4.11713 9.44487 4.19902 9.76207 4.2569L11.1375 4.50822C10.2258 4.67906 8.87591 4.69036 8.19031 5.3949C7.8916 5.70269 7.71522 6.0952 7.64694 6.53712Z" fill="white"/>
<path d="M56.5706 8.56315L56.2548 6.52013C56.1879 6.08385 56.0059 5.68428 55.6958 5.37649C55.0088 4.69172 53.6674 4.67477 52.7656 4.50817L54.1411 4.25544C54.4555 4.19755 54.757 4.12554 55.05 4.00412C55.592 3.77963 56.0215 3.34194 56.1239 2.75741L56.572 0.196228L56.9105 2.52869C57.0286 3.34759 57.6232 3.96882 58.4368 4.13119L60.367 4.51523L58.626 4.7609C58.1537 4.82726 57.7298 5.03904 57.3984 5.36943C57.0684 5.71252 56.9248 6.13891 56.8209 6.6006L56.572 8.56456L56.5706 8.56315Z" fill="white"/>
<path d="M59.5207 12.196C59.431 11.8232 59.3884 11.4689 59.3414 11.0975C59.2703 10.5299 58.8948 10.1148 58.3372 9.98072C57.9702 9.89318 57.6075 9.84659 57.2178 9.7774C58.0655 9.57691 59.0882 9.65739 59.276 8.57446L59.5207 7.16821L59.7283 8.6027C59.8507 9.10393 60.202 9.46537 60.7126 9.55997L61.8065 9.78305L60.6941 9.95107C60.1508 10.0767 59.7667 10.4579 59.6871 11.0142L59.5192 12.1974L59.5207 12.196Z" fill="white"/>
<path d="M4.39264 12.2581L4.21769 11.0142C4.13661 10.4396 3.72695 10.0344 3.1523 9.94401L2.11963 9.78305L3.24191 9.54868C3.73976 9.44419 4.10532 9.05733 4.1807 8.55187L4.38553 7.16821L4.62876 8.57305C4.81652 9.65739 5.83924 9.57833 6.68557 9.77882C5.85915 9.93836 4.75109 9.91436 4.58751 10.9874L4.39264 12.2595V12.2581Z" fill="white"/>
<path d="M13.7701 11.7978C13.6592 11.7456 13.4814 11.7484 13.4003 11.8077C13.3249 11.8613 13.2168 11.9898 13.2168 12.1296V18.8827L13.1955 23.7185C13.1926 24.3284 13.4572 24.8452 13.9053 25.2349L15.0347 26.1258L12.8242 28.0968L10.9054 26.3827C10.655 26.1596 10.3976 25.9818 10.0989 25.8335L9.38199 25.4057C9.33931 25.3803 9.29664 25.4989 9.32225 25.5497L12.2368 29.0639L10.6366 30.9333C10.1842 29.9322 9.57543 29.0893 8.77177 28.3707C6.05354 25.7333 5.05074 24.3792 4.11195 20.6914C3.86587 19.72 3.52449 18.7076 2.79622 17.9918C2.45342 17.6558 2.03807 17.4807 1.56299 17.3C3.15609 16.7945 4.16742 15.7003 4.90992 14.2475C5.80604 12.4939 6.54712 11.178 7.94535 9.75761C8.90406 8.7834 9.91255 7.89955 10.9822 7.04535C11.7162 6.45941 12.4316 5.88901 13.1329 5.26918C14.726 3.85869 15.8739 2.09382 16.4997 0.0366821C16.5268 0.869703 16.3845 1.69284 16.1768 2.51598C15.844 3.83469 15.2907 5.04328 14.5311 6.16997C13.9835 6.98182 13.3548 7.69624 12.7019 8.42901L9.71483 11.7724C8.90263 12.6817 8.28673 13.6996 7.87565 14.8532C6.70358 18.1471 6.90272 21.5766 8.62242 24.639C8.78457 24.9271 9.03634 25.225 9.3322 25.352C9.77457 25.3422 10.1828 24.9002 10.1871 24.4188L10.271 14.8856C10.271 14.7755 10.2482 14.6371 10.2198 14.5468L9.95237 13.6799L18.1682 6.77144L17.4627 8.12263C17.2337 8.56032 17.0858 9.01072 17.0033 9.495C16.8582 10.3393 17.0943 11.1342 17.6419 11.7865C18.1426 12.3823 18.7884 12.8186 19.5693 12.9443C20.7599 13.1349 21.8949 12.7155 22.7669 11.915C23.2206 11.4985 23.5435 11.0311 23.9446 10.5017C23.7042 11.3022 23.3174 12.0279 22.8423 12.6901C22.1296 13.6799 21.1169 14.3477 19.9249 14.6061C19.5409 14.6894 19.1753 14.7303 18.777 14.6724C17.585 14.4988 16.3916 13.6968 15.4784 12.9358C14.9465 12.4925 14.4102 12.1056 13.7701 11.8006V11.7978Z" fill="white"/>
<path d="M31.4679 64H31.4039C31.3669 62.574 30.9274 61.388 30.2304 60.13C29.4396 58.7054 28.4951 57.3965 27.4197 56.1639C26.4838 55.0909 25.4966 54.08 24.4057 53.1608L20.3717 49.7638C18.6321 48.2982 16.8427 46.916 15.022 45.5592C13.2212 44.2179 11.4603 43.2098 9.21145 42.7156C9.76761 42.5405 10.3067 42.4007 10.8387 42.1805C11.6793 41.8317 12.2767 41.1583 12.4773 40.273C12.5513 39.9469 12.5755 39.6377 12.5755 39.2903L12.5783 34.5082C11.126 34.5605 9.62395 34.8654 9.27972 36.5032C9.1389 37.1725 9.08059 37.8332 8.98813 38.5321L8.73209 36.8096C8.68373 36.4806 8.5799 36.1757 8.44477 35.8792C8.07779 35.0758 7.32106 34.8923 6.50175 34.7892C5.61844 34.6791 4.76214 34.6367 3.86745 34.5943C2.5887 34.5336 1.34409 34.5054 0.0568048 34.5223C-0.0128933 34.5125 -0.0171606 34.5068 0.0496928 34.48C0.271589 34.4532 0.483528 34.4687 0.708269 34.4532L3.99546 34.2089C4.89869 34.1425 6.79477 34.055 7.56714 33.7444C8.06498 33.5439 8.39498 33.1471 8.56567 32.6403C8.80179 31.9414 8.8658 31.2383 8.96821 30.4871L9.28257 32.3494C9.44615 33.3208 10.3124 33.9872 11.2626 34.1355L12.4844 34.3261C12.4531 33.5735 12.5541 32.8351 12.4304 32.0995C12.2568 31.7536 11.823 31.5898 11.4631 31.4486L12.8827 29.7572C13.3677 29.1783 13.8727 28.6601 14.4203 28.1448L15.4018 27.2214C15.4814 27.1466 15.5739 27.0011 15.5739 26.8783L15.581 20.2339C15.581 20.2099 15.5611 20.1676 15.5511 20.1774C14.9608 20.769 14.5213 21.7701 14.2084 22.5565C14.1899 22.6172 14.1785 22.6581 14.1614 22.5819L14.1671 19.9078C14.1671 19.8442 14.2183 19.7228 14.2567 19.6776C14.5554 19.3261 14.8314 18.9745 15.1728 18.6709C15.4388 18.4352 15.6023 18.1598 15.591 17.7913L15.5497 16.4161C15.5198 15.4349 15.527 15.3473 15.0817 14.4677L15.123 14.4352L16.1357 14.7769C16.6194 14.9393 17.1087 15.0254 17.6207 15.0607L18.8056 15.1426C18.3917 15.3855 18.1172 15.336 18.12 15.8796L18.1854 28.2676C18.1883 28.8747 18.4514 29.4282 18.8497 29.8744L21.558 32.9114C21.5893 32.9467 22.3872 33.911 22.0572 33.6653L20.1213 32.2252L18.1513 30.7512L16.1699 29.2531C16.0518 29.1642 15.8484 29.167 15.7104 29.191C15.3065 29.2616 14.9722 29.472 14.7119 29.7769L14.1643 30.4208C13.9851 30.6311 13.8243 30.8316 13.702 31.0801C13.6963 31.1013 13.6821 31.1338 13.6949 31.1338C13.7077 31.1338 13.7589 31.1295 13.7859 31.1168L15.261 30.3742L15.2581 42.8765C15.2581 43.0672 15.3392 43.2295 15.49 43.3298C16.2865 43.8578 17.0233 44.4296 17.7032 45.1059L19.7202 47.1094L22.6874 50.0589L25.7569 53.0013C26.5478 53.7595 27.3287 54.4838 28.0669 55.2928C28.8052 56.1018 29.5391 57.0407 30.1266 58.0135C30.1408 58.0291 30.1991 58.0474 30.2148 58.0361C30.2304 58.0248 30.2532 57.9669 30.2489 57.9429C30.1664 57.5603 30.1181 57.1254 30.01 56.7358C29.6529 55.4481 28.9986 54.2833 28.1139 53.2935L27.8137 52.9575C26.9987 52.0468 25.7754 51.1912 24.7854 50.4796L24.4825 50.2608L24.087 49.9826C24.1098 49.5859 24.2677 49.2936 24.2691 48.8362L24.2762 38.5985L24.2307 38.165L27.8209 35.2551L31.0839 39.0687L30.1124 40.8575L27.0442 36.996L27.03 48.8348C27.03 49.1454 27.1637 49.3459 27.3799 49.5351L28.9403 50.8961L28.9261 44.3407C28.9261 44.1501 28.3486 43.4851 28.1907 43.3411L28.175 48.8969C28.0072 48.654 27.8564 48.3604 27.855 48.0695L27.8379 39.5939L30.1038 42.3386C30.256 42.2101 30.367 42.0802 30.4793 41.9433C30.623 41.8035 30.7581 41.6623 30.8904 41.5169L31.2759 41.0919C31.3029 41.0623 31.3627 41.034 31.394 41.0467C31.421 41.0566 31.4708 41.1258 31.4708 41.1653L31.4651 64.0014L31.4679 64Z" fill="white"/>
<path d="M32.5803 64H32.4992L32.5561 40.2956C32.5561 39.81 32.2019 39.4386 31.7581 39.3553C31.5391 39.4471 32.1123 38.9205 32.0625 38.9685L32.7609 38.3147L33.4266 37.6879L34.1207 37.0327L34.8291 36.3593L35.2843 35.9357C35.2985 35.9258 35.3469 35.906 35.3426 35.9202C35.3397 35.9315 35.3298 35.9738 35.3255 35.9851C35.0965 36.6289 35.0467 37.2911 35.0467 37.9886L35.0396 51.6558C35.0396 52.0243 35.1136 52.3547 35.206 52.6921C35.2843 52.9787 35.4635 53.2202 35.701 53.3896C36.0524 53.6409 36.462 53.4913 36.3923 53.5506L36.3497 53.5887L36.1932 53.727L35.7266 54.1605C35.4521 54.4146 34.9784 54.9695 34.7566 55.2815C34.189 56.0849 33.7566 56.9899 33.6613 58.0164C34.3625 56.9179 35.115 55.9564 36.0125 55.0556L37.2813 53.7793L37.4847 53.5915C38.469 52.6879 39.4406 51.8069 40.4889 50.9753L42.2143 49.6071L47.7033 45.2952L48.3306 44.7685C48.4345 44.681 48.6421 44.5299 48.6123 44.3577C48.5099 43.7661 48.3662 43.2027 48.2069 42.6225C47.7289 40.8816 47.1045 39.3327 45.9524 37.8827L45.9566 42.9458C45.9566 43.2988 46.0277 43.632 46.16 43.9369C46.3293 44.3266 46.7233 44.4946 47.1244 44.3563C47.3549 44.2772 47.5625 44.1671 47.8058 44.0979C47.2169 44.7092 46.5668 45.2062 45.8542 45.6637L44.0278 46.8327L44.025 38.7228L44.0008 35.7846C43.9937 35.0151 43.4959 34.3106 42.8999 33.8969L46.1984 30.9856C45.7561 32.0106 45.9609 32.8818 46.3905 33.8503L48.4786 38.5548C48.5625 38.7426 48.6251 38.9148 48.7844 39.0659L48.7744 34.8457L48.8029 32.4723C48.8157 31.3583 48.049 30.7117 47.2894 29.969L49.7687 27.7721C49.8441 28.3298 50.0247 28.7985 50.3704 29.1911L51.1669 30.0975L52.4172 31.6111C51.8682 31.6831 51.4912 32.029 51.4685 32.5726L51.3988 34.2682C52.3902 34.4193 53.4214 34.1299 54.0743 33.383C54.4271 32.9806 54.6604 32.5443 54.7542 32.0191C54.8396 31.5419 54.8965 31.0703 54.9576 30.5832L54.9676 30.4999C54.969 30.4886 54.9861 30.4999 54.9904 30.5112C54.9946 30.5211 55.0074 30.5662 55.0089 30.579L55.2322 31.9541C55.2905 32.3099 55.3972 32.6347 55.5536 32.9524C55.9462 33.7473 56.7129 33.9562 57.5578 34.0056L63.9487 34.3812C64.017 34.4165 64.0198 34.4236 63.9444 34.4165L59.4695 34.6015C58.5421 34.6396 57.646 34.7554 56.7499 34.9375C56.0572 35.0787 55.565 35.5418 55.3687 36.2011C55.2507 36.5979 55.1767 36.989 55.1241 37.4012L54.9875 38.4771L54.8439 37.4761C54.7201 36.6134 54.639 35.906 53.989 35.2735C53.3389 34.641 52.2323 34.5464 51.3931 34.4687V39.2607C51.3917 39.6321 51.4286 39.9653 51.5197 40.3168C51.8682 41.6511 53.0047 42.3627 54.3218 42.566C54.5779 42.6055 54.8182 42.6338 55.0757 42.6888C54.1227 42.8582 53.2507 43.111 52.3959 43.5317C51.6818 43.8833 51.0048 44.2786 50.3604 44.7558C47.4886 46.8822 44.6651 49.0508 41.8885 51.3042C40.4249 52.4916 38.9939 53.727 37.6455 55.0401C35.8504 56.788 34.364 58.8169 33.2943 61.0703C32.8505 62.0036 32.5988 62.9948 32.5831 64.0028L32.5803 64Z" fill="white"/>
<path d="M31.9986 23.2427L31.5918 21.4962C31.4695 20.9724 31.3002 20.4754 31.0613 20.008C30.7455 19.391 30.2306 19.0197 29.5578 18.8715C29.0358 18.7557 28.528 18.671 27.9903 18.6272C27.6475 18.6004 27.3431 18.6554 27.0799 18.8898C26.6916 19.2343 26.4925 19.7059 26.4925 20.2368L26.4896 31.0547L26.4868 33.0201C26.4868 33.558 26.6433 34.0578 26.9292 34.5266L25.0388 36.6939C24.9833 36.6769 24.9164 36.6445 24.8937 36.6275C25.1014 36.2647 25.1568 35.8637 25.0345 35.4627C24.8738 34.9332 24.7372 34.408 24.5182 33.8955L23.8255 32.276C23.5211 31.563 23.9649 31.186 23.962 30.1624L23.9521 26.6454C23.9136 26.3136 23.7131 26.0976 23.4727 25.8985L22.1484 24.8071L22.1527 26.9278L22.1328 29.2348C22.1157 31.2468 23.0943 32.3678 23.5893 34.2569C22.6121 32.9057 21.6165 31.6633 20.5112 30.4617L20.1286 30.0466L19.6635 29.5482C19.4359 29.304 19.2154 29.0753 18.9722 28.8451C19.5099 28.8028 19.7687 28.2691 19.7702 27.8187V20.7775C19.773 20.1492 19.4843 19.9629 18.9238 19.7327L20.0618 19.1355C20.3903 18.9632 20.6976 18.798 21.0134 18.6046L22.6264 17.612C22.8895 17.4497 23.1143 17.2675 23.3646 17.0854C24.43 16.3103 25.2052 15.2485 25.5622 13.975C25.6191 13.7703 25.6447 13.5938 25.7372 13.382L25.8083 14.4014C25.8552 15.0636 25.9377 15.7088 26.1056 16.3498C26.2621 16.9456 26.5337 17.4737 26.9462 17.9184C27.3146 18.3152 27.7968 18.4917 28.3388 18.4394C29.6901 18.3081 31.0342 17.8605 31.4098 16.4077C31.6274 15.569 31.7085 14.7148 31.8308 13.8493C31.8934 13.4074 31.9218 12.9895 32.0171 12.556C32.1153 13.8917 32.276 15.1596 32.6089 16.4289C32.8051 17.1814 33.2532 17.7603 33.9857 18.061C34.5945 18.3109 35.2517 18.438 35.9188 18.4295C36.3711 18.4253 36.7509 18.2474 37.0411 17.91C37.7836 17.0473 38.0453 15.8429 38.1307 14.7191L38.2245 13.4949C38.6015 14.9421 39.3795 16.1959 40.5445 17.1136C41.7094 18.0314 43.3353 18.503 44.8402 18.2502C44.8814 18.2432 44.9284 18.2502 44.9212 18.2601C44.9141 18.2686 44.8928 18.2926 44.88 18.301C43.8843 19.0423 43.2841 19.6932 42.8303 20.8721C42.6881 21.2406 42.7549 21.6275 42.974 21.9409C43.3694 22.5071 43.9995 22.8036 44.7079 22.7697C43.5984 23.278 42.6525 24.0136 42.1205 25.1332C41.7322 25.9493 41.755 26.8543 41.5032 27.7099C41.3823 26.9503 41.4307 26.5635 41.2244 25.8025C41.0566 25.1812 40.4577 24.8028 39.8674 24.6461V31.3315C40.0481 31.21 40.1775 31.0999 40.3169 30.9743L40.6554 30.6651C40.819 30.5154 40.9641 30.3686 41.1206 30.2005C42.6667 28.5599 43.5643 26.6793 44.2399 24.5459C44.3822 25.89 43.9711 27.0831 45.1559 28.0672L44.1788 29.304L40.4236 33.3858L37.5631 36.4087C37.1577 36.8379 36.7879 37.2713 36.5461 37.798L36.071 38.8329L36.0639 35.8679C36.0639 35.7295 36.1421 35.6166 36.2033 35.5107L36.6243 34.7709C36.9017 34.2838 37.4891 34.0663 37.482 33.0723L37.391 20.0758C37.3882 19.7045 37.1961 19.3557 36.9785 19.0847C36.6471 18.6724 36.1051 18.51 35.5917 18.6258L34.1735 18.9449C33.7198 19.0465 33.3542 19.2527 33.0854 19.6395C32.3272 20.7267 32.212 21.9593 31.9929 23.2441L31.9986 23.2427ZM22.2295 23.2018L23.9876 24.6377V18.3491C23.1143 18.6258 22.1698 19.9671 22.1627 20.7606L22.1442 22.9773C22.157 23.038 22.1755 23.1566 22.2295 23.2003V23.2018ZM39.8703 18.4281V23.6606C40.7223 23.3839 41.4221 22.8304 41.846 22.0482C42.5615 20.7253 41.26 18.8122 39.8703 18.4281Z" fill="white"/>
<path d="M30.66 28.2281C30.576 27.1438 30.293 26.1357 29.9317 25.1361C29.788 24.8607 29.6984 24.5967 29.4296 24.3652L29.441 29.6781L29.431 32.2774C29.4282 32.9905 29.5946 33.671 29.8976 34.3176L31.2915 37.2982C31.3129 37.3448 31.2887 37.4859 31.2474 37.4676C31.1166 37.4125 31.0568 37.2897 30.9686 37.1923L30.512 36.6939L29.9132 36.0698L29.3158 35.4429L28.7354 34.8344L28.1707 34.2428L27.6089 33.654C27.4482 33.486 27.4282 33.342 27.4268 33.0596C27.4083 29.0498 27.3898 24.2339 27.3799 20.2198C27.3799 20.104 27.4098 20.0843 27.4268 20.073C27.4496 20.0589 27.5051 20.0716 27.5392 20.0942C28.7738 20.9342 29.7539 22.0454 30.5063 23.3316C31.1166 24.375 31.5419 25.4622 31.9529 26.6581C32.3612 25.6627 32.7168 24.7407 33.2032 23.8371L33.4379 23.4022L33.987 22.5311C34.6171 21.5301 35.4763 20.7126 36.4847 20.0433C36.5231 20.2128 36.5317 20.3638 36.5317 20.5573L36.5274 33.006C36.5274 33.1302 36.5175 33.318 36.435 33.4056L32.7609 37.3109C32.8092 37.0497 32.9173 36.8449 33.0098 36.6134L34.1819 33.7133C34.2686 33.5001 34.3426 33.2954 34.3426 33.0568L34.3341 24.3327C33.3739 25.89 33.2288 27.6704 33.0937 29.3619C33.0382 30.0466 33.071 30.706 33.1734 31.3851L33.4735 33.3646C33.4948 33.5058 33.4536 33.623 33.3881 33.7402C33.0325 34.3755 32.7282 35.0179 32.5134 35.7168L31.98 37.4521L31.7054 36.4736L31.5632 36.0373C31.3242 35.3031 30.953 34.3953 30.5263 33.7642C30.3954 33.5707 30.4082 33.4366 30.4708 33.2333C30.724 32.4172 30.7979 31.5687 30.7794 30.7074C30.761 29.8462 30.7254 29.0809 30.6585 28.2267L30.66 28.2281Z" fill="white"/>
<path d="M40.9683 48.6682C39.9982 49.8231 37.8447 51.9509 36.5503 52.8502L36.5674 40.0048C36.5674 39.3144 36.9372 38.6861 37.3184 38.1439C37.9684 37.2191 38.8048 36.4891 39.7137 35.8199C40.0068 35.6039 40.2898 35.4105 40.6027 35.2255L41.7791 34.5337C42.1176 34.3727 42.4078 34.1906 42.7762 33.9421L42.7164 43.3284L42.7861 45.8656C42.9725 46.0477 42.9796 46.275 42.8174 46.4685L40.9683 48.6696V48.6682ZM39.1576 48.8786C39.782 48.4832 40.2386 47.8281 40.2386 47.0756L40.25 36.547C39.7664 36.667 39.4165 37.0271 39.3155 37.5015C39.1846 38.1128 39.149 38.6974 39.1505 39.3327L39.159 48.8772L39.1576 48.8786Z" fill="white"/>
<path d="M20.9164 45.1991C21.5309 45.3262 22.0828 45.1031 22.4498 44.6301C22.8822 44.071 23.033 42.8977 23.2833 42.1932L23.2862 49.3092L21.575 47.6092L21.255 47.2817L19.5737 45.5916C19.4542 45.4716 19.3561 45.3671 19.2394 45.2471L17.9849 43.9694C18.0418 43.43 18.1797 42.9387 18.1811 42.3951L18.1968 34.6861C18.1968 34.1651 17.8753 33.7853 17.4187 33.5905L16.7218 33.294V43.2069C16.3292 43.1363 16.1243 42.854 16.1243 42.4572L16.1187 30.497L24.0699 36.1926L23.1198 37.1569C22.777 37.5043 22.5465 37.8869 22.3815 38.3754L22.107 37.572C21.9064 36.9847 21.5651 36.4764 21.063 36.1051L20.4926 35.6829L20.4869 38.8456C20.4869 38.9359 20.4954 39.0446 20.5424 39.0997C20.5822 39.1477 20.7059 39.1957 20.7856 39.1872L23.4242 38.9373C22.5849 39.9652 22.1625 41.1314 22.0473 42.4699L21.6732 41.4096C21.4712 40.8378 21.0999 40.6175 20.5196 40.41C20.5039 40.5624 20.4926 40.681 20.4926 40.8364V44.7021C20.4926 44.976 20.6718 45.1483 20.9207 45.1991H20.9164Z" fill="white"/>
</g>
<defs>
<clipPath id="clip0_1786_19669">
<rect width="64" height="64" fill="white"/>
</clipPath>
</defs>
</svg>
