<svg width="64" height="64" viewBox="0 0 64 64" fill="none" xmlns="http://www.w3.org/2000/svg">
<g clip-path="url(#clip0_1656_4099)">
<path d="M32.0872 19.9064L0.47998 3.57522L5.44078 31.2104C5.84078 33.4408 7.08558 35.384 8.94398 36.6808L16.364 41.8568L16.8808 48.5256L32.012 59.42L47.1536 48.5904L47.7552 41.7904L55.3296 36.364C57.1448 35.0632 58.3592 33.136 58.7496 30.9368L63.6 3.57202L32.088 19.9056L32.0872 19.9064ZM57.5848 30.7312C57.2488 32.6248 56.2032 34.284 54.6408 35.4032L46.6248 41.1456L46.0232 47.9456L32.0136 57.9648L18.016 47.8872L17.4984 41.2072L9.61998 35.7112C8.01998 34.5944 6.94878 32.9224 6.60398 31.0016L2.06718 5.72642L32.088 21.2376L62.0176 5.72402L57.5848 30.7312Z" fill="#FC0000"/>
<path d="M32.0882 21.2377L2.06738 5.72652L6.60418 31.0017C6.94898 32.9225 8.02018 34.5945 9.62018 35.7113L17.4986 41.2073L18.0162 47.8873L32.0138 57.9649L46.0234 47.9457L46.625 41.1457L54.641 35.4033C56.2042 34.2833 57.2498 32.6241 57.585 30.7313L62.0178 5.72412L32.0882 21.2377Z" fill="black"/>
<path d="M16.1329 25.9681L15.2065 15.5161L5.61768 10.5369L7.48008 20.8097L16.1329 25.9681Z" fill="white"/>
<path d="M17.1914 37.6656L16.4386 29.3136L8.10742 24.4128L9.14262 30.2944C9.35622 31.5096 10.0402 32.5912 11.0466 33.3048L17.1914 37.6656Z" fill="white"/>
<path d="M47.9634 25.9681L48.8906 15.5161L58.4786 10.5369L56.6162 20.8097L47.9634 25.9681Z" fill="white"/>
<path d="M46.9056 37.6656L47.6584 29.3136L55.9896 24.4128L54.9544 30.2944C54.7408 31.5096 54.0568 32.5912 53.0504 33.3048L46.9048 37.6664" fill="white"/>
<path d="M17.9998 16.9456L27.8662 22.048L28.4262 29.0792L32.0478 26.4656L35.6838 29.0792L36.2438 22.048L46.1102 16.9456L43.4966 46.5008L33.3814 53.7808L33.3886 46.4408C33.3902 44.2952 34.4318 42.284 36.1814 41.0432L40.3374 38.0976L40.7726 33.4312L32.0894 38.6184L23.3358 33.4312L23.771 38.0976L27.9462 41.0312C29.7198 42.2776 30.771 44.3128 30.7614 46.4808L30.7278 53.78L20.6126 46.5L17.999 16.9448L17.9998 16.9456Z" fill="white"/>
</g>
<defs>
<clipPath id="clip0_1656_4099">
<rect width="64" height="57" fill="white" transform="translate(0 3)"/>
</clipPath>
</defs>
</svg>
