<svg width="64" height="64" viewBox="0 0 64 64" fill="none" xmlns="http://www.w3.org/2000/svg">
<path d="M1.03451 63.9999C1.02401 63.9924 1.0015 64.0163 1.0015 63.9835C1.0015 63.9403 1.0015 63.8986 1.0015 63.8554C1.003 42.6214 1.003 21.3873 1 0.153273C1 0.0341395 1.02701 0.0058453 1.14854 0.0058453C21.3843 0.00882363 41.6187 0.00882363 61.8545 0.0103128C61.901 0.0103128 61.964 -0.0269164 62 0.0400962C61.9895 0.0415853 61.9775 0.0445637 61.967 0.0460529C61.9085 0.0445637 61.8485 0.0400962 61.7899 0.0400962C41.6037 0.0400962 21.4174 0.0400962 1.23256 0.0356287C1.07052 0.0356287 1.03451 0.0713687 1.03451 0.232199C1.03901 21.4171 1.03901 42.602 1.03901 63.7884C1.03901 63.8465 1.04201 63.9061 1.04351 63.9641C1.04201 63.9746 1.03901 63.9865 1.03751 63.9969L1.03451 63.9999Z" fill="white"/>
<path d="M61.9654 0.0475827C61.9759 0.0460935 61.9879 0.0431151 61.9984 0.041626V63.9687C61.9864 63.9687 61.9759 63.9687 61.9639 63.9687C61.9639 63.9046 61.9654 63.8406 61.9654 63.7766C61.9654 42.5976 61.9654 21.4201 61.9654 0.241175C61.9654 0.17714 61.9654 0.113106 61.9654 0.0490718V0.0475827Z" fill="#C34C39"/>
<path d="M61.9656 63.9672C61.9777 63.9672 61.9882 63.9672 62.0002 63.9672C61.9927 63.9776 62.0167 63.9999 61.9837 63.9999C61.9401 63.9999 61.8981 63.9999 61.8546 63.9999H1.03467C1.03617 63.9895 1.03917 63.9776 1.04067 63.9672C1.09918 63.9672 1.1592 63.9672 1.21772 63.9672C21.413 63.9672 41.6083 63.9672 61.8036 63.9672C61.8576 63.9672 61.9116 63.9672 61.9642 63.9672H61.9656Z" fill="#C65742"/>
<path d="M61.9657 63.9672C61.9117 63.9672 61.8577 63.9672 61.8051 63.9672C41.6098 63.9672 21.4146 63.9672 1.21925 63.9672C1.16074 63.9672 1.10072 63.9672 1.04221 63.9672C1.04071 63.9091 1.0377 63.8495 1.0377 63.7914C1.0377 42.6065 1.0377 21.4216 1.0332 0.235206C1.0332 0.0743753 1.07071 0.0386353 1.23126 0.0386353C21.4175 0.0431028 41.6038 0.0431028 61.7886 0.0431028C61.8472 0.0431028 61.9072 0.0460811 61.9657 0.0490594C61.9657 0.113094 61.9657 0.177128 61.9657 0.241162C61.9657 21.4201 61.9657 42.5976 61.9657 63.7765C61.9657 63.8406 61.9657 63.9046 61.9642 63.9686L61.9657 63.9672ZM58.4983 32.0156C58.4983 22.5817 58.4983 13.1478 58.4983 3.71539C58.4983 3.48308 58.5283 3.51138 58.2942 3.51138C40.438 3.51138 22.5834 3.51138 4.72717 3.50691C4.56813 3.50691 4.52462 3.53967 4.52462 3.70497C4.52912 22.5772 4.52912 41.4494 4.52912 60.3232C4.52912 60.554 4.49761 60.5257 4.73467 60.5257C22.5849 60.5257 40.435 60.5257 58.2852 60.5257C58.4273 60.5257 58.4983 60.4562 58.4983 60.3172C58.4983 50.8833 58.4983 41.4494 58.4983 32.017V32.0156Z" fill="#BA2225"/>
<path d="M35.9923 51.7232C35.9923 52.6286 35.9878 53.4968 35.9968 54.365C35.9983 54.5199 35.9593 54.5571 35.8047 54.5556C34.7574 54.5482 33.7102 54.5497 32.6629 54.5556C32.5384 54.5556 32.5009 54.5273 32.5009 54.3978C32.5054 51.7977 32.5054 49.1961 32.5009 46.596C32.5009 46.4754 32.5249 46.4352 32.6554 46.4367C33.8797 46.4426 35.104 46.4411 36.3284 46.4367C36.4379 46.4367 36.4814 46.4724 36.5249 46.5692C37.6202 49.0427 39.5032 50.5572 42.1889 51.0025C45.8333 51.6056 49.4013 49.278 50.363 45.7308C50.4005 45.5938 50.3765 45.5685 50.234 45.5685C44.3915 45.573 38.5489 45.5715 32.7064 45.5715C32.4738 45.5715 32.5009 45.5983 32.5009 45.3675C32.5009 44.7539 32.4904 44.1419 32.5069 43.5283C32.6374 38.5634 36.2653 34.2985 41.1746 33.326C41.8873 33.1846 42.6075 33.1146 43.3337 33.1146C46.8566 33.1146 50.3795 33.1146 53.9025 33.1101C54.0705 33.1101 54.1005 33.1563 54.1005 33.3126C54.096 35.8919 54.096 38.4711 54.1005 41.0504C54.1005 41.1888 54.075 41.238 53.9205 41.2365C52.8732 41.2291 51.8259 41.2291 50.7786 41.2365C50.6391 41.2365 50.6001 41.2082 50.6001 41.0638C50.6061 39.6252 50.6001 38.1852 50.6076 36.7467C50.6076 36.6052 50.5731 36.5694 50.4306 36.5709C48.1004 36.5754 45.7688 36.5799 43.4387 36.5724C39.8978 36.562 37.3591 38.8032 36.4334 41.3452C36.3569 41.5552 36.2968 41.7711 36.2278 41.9826C36.1993 42.0689 36.2128 42.1151 36.3179 42.1032C36.3554 42.0987 36.3929 42.1032 36.4304 42.1032C42.2459 42.1032 48.0614 42.1032 53.877 42.1032C54.102 42.1032 54.1035 42.1032 54.1005 42.334C54.0915 43.0637 54.132 43.7949 54.075 44.5231C53.8154 47.8588 52.3256 50.5334 49.6188 52.5125C47.5213 54.0463 45.1402 54.7001 42.543 54.5229C40.1123 54.3576 37.9818 53.4492 36.1468 51.8573C36.1033 51.82 36.0598 51.7843 35.9878 51.7232H35.9923Z" fill="#BB2225"/>
<path d="M11.7865 27.4513C11.728 27.3843 11.6905 27.3426 11.653 27.2994C10.1676 25.6181 9.27935 23.6703 9.00178 21.4499C8.95226 21.0538 8.92976 20.6547 8.92976 20.2541C8.92976 16.7203 8.92976 13.1865 8.92676 9.65272C8.92676 9.51572 8.95226 9.47551 9.0993 9.47551C10.1406 9.48296 11.1833 9.48296 12.2246 9.47551C12.3747 9.47551 12.4212 9.50231 12.4197 9.66314C12.4137 12.5358 12.4167 15.4084 12.4122 18.281C12.4122 18.4403 12.4557 18.4686 12.6072 18.4686C17.2855 18.4641 21.9622 18.4656 26.6404 18.4656C26.7694 18.4656 26.817 18.4036 26.7829 18.2795C26.0282 15.5111 23.6291 13.4188 20.7574 13.0168C20.0087 12.9125 19.257 12.9572 18.5053 12.9423C18.3357 12.9393 18.1092 13.0168 18.0131 12.9095C17.9291 12.8157 17.9861 12.5953 17.9861 12.4315C17.9861 11.4993 17.9891 10.5656 17.9831 9.63336C17.9831 9.50529 18.0176 9.47402 18.1437 9.477C18.8744 9.49189 19.6051 9.44722 20.3343 9.50231C24.1663 9.78824 27.0815 11.5752 29.0695 14.8276C30.0553 16.4418 30.5264 18.2184 30.5294 20.1067C30.5369 23.6613 30.5294 27.216 30.5294 30.7721C30.5294 30.8957 30.4934 30.9195 30.3764 30.9195C29.3126 30.9151 28.2503 30.9136 27.1865 30.9195C27.0485 30.9195 27.035 30.8689 27.035 30.7557C27.038 27.8727 27.035 24.9882 27.041 22.1051C27.041 21.9607 27.008 21.922 26.858 21.922C22.1752 21.9264 17.4925 21.925 12.8098 21.925C12.6252 21.925 12.6192 21.9265 12.6747 22.1022C13.6095 25.0537 15.6065 26.8169 18.6748 27.3753C18.9854 27.4319 19.3035 27.4528 19.6216 27.4483C19.7116 27.4483 19.7416 27.4736 19.7416 27.5644C19.7386 28.6411 19.7371 29.7178 19.7416 30.7944C19.7416 30.9344 19.6651 30.9166 19.5796 30.9166C18.2367 30.9166 16.8938 30.9166 15.5525 30.9166C13.4039 30.9166 11.2569 30.9151 9.10831 30.921C8.95677 30.921 8.92826 30.8764 8.92826 30.7364C8.93426 29.6969 8.93576 28.6575 8.92826 27.6181C8.92826 27.4691 8.97327 27.4468 9.1068 27.4483C9.95003 27.4542 10.7932 27.4513 11.6365 27.4513C11.677 27.4513 11.7175 27.4513 11.788 27.4513H11.7865Z" fill="#BA2225"/>
<path d="M51.2467 12.9453C55.0907 17.1522 54.9767 23.3069 51.3817 27.2979C49.3817 29.5197 46.8625 30.7378 43.8603 30.8942C40.867 31.0506 38.2563 30.0767 35.9892 28.0946V28.2718C35.9892 29.1027 35.9862 29.9352 35.9922 30.7661C35.9922 30.8823 35.9682 30.9195 35.8436 30.9195C34.7754 30.9151 33.7071 30.9151 32.6373 30.9195C32.5128 30.9195 32.4888 30.8823 32.4888 30.7661C32.4918 23.7209 32.4918 16.6756 32.4888 9.63037C32.4888 9.49486 32.5353 9.47699 32.6538 9.47699C33.7116 9.48146 34.7694 9.48146 35.8271 9.47699C35.9652 9.47699 35.9922 9.51869 35.9922 9.64675C35.9892 13.1537 35.9892 16.6607 35.9892 20.1662C35.9892 23.6479 38.4123 26.6009 41.8497 27.3098C45.7718 28.1184 49.6908 25.5362 50.468 21.6301C51.2602 17.6436 48.639 13.7971 44.6255 13.0644C44.2339 12.9929 43.8392 12.9497 43.4416 12.9512C43.3306 12.9512 43.2991 12.917 43.2991 12.8053C43.3036 11.745 43.3036 10.6847 43.2991 9.62442C43.2991 9.49933 43.3381 9.47848 43.4536 9.47848C46.9541 9.48146 50.456 9.48146 53.9564 9.47848C54.0764 9.47848 54.1079 9.50677 54.1064 9.6274C54.1019 10.6877 54.1019 11.748 54.1064 12.8083C54.1064 12.9229 54.0734 12.9482 53.9624 12.9482C53.1252 12.9438 52.2865 12.9453 51.4492 12.9453C51.3922 12.9453 51.3352 12.9453 51.2452 12.9453H51.2467Z" fill="#BB2225"/>
<path d="M12.4133 35.947C14.7524 33.8994 17.4471 32.9359 20.5304 33.1548C23.2056 33.3454 25.5057 34.4072 27.3902 36.3014C29.4052 38.3267 30.4615 40.7808 30.5185 43.6296C30.5756 46.4724 29.5958 48.9444 27.6828 51.0903H27.8718C28.7046 51.0903 29.5373 51.0933 30.3685 51.0873C30.496 51.0873 30.529 51.1201 30.5275 51.2467C30.523 52.3025 30.523 53.3568 30.5275 54.4127C30.5275 54.5348 30.4945 54.5616 30.3745 54.5616C26.8726 54.5586 23.3722 54.5586 19.8702 54.5616C19.7442 54.5616 19.7217 54.5243 19.7217 54.4082C19.7262 53.3524 19.7277 52.298 19.7217 51.2422C19.7217 51.1097 19.7652 51.0873 19.8837 51.0859C23.3902 51.0069 26.3444 48.4798 26.9341 45.0577C27.6123 41.1114 24.8936 37.3215 20.925 36.6856C17 36.0572 13.3345 38.5798 12.5468 42.4531C12.4523 42.9192 12.4118 43.3913 12.4118 43.8664C12.4118 47.3674 12.4118 50.8699 12.4163 54.371C12.4163 54.5258 12.3773 54.5631 12.2227 54.5616C11.1815 54.5541 10.1387 54.5541 9.09742 54.5616C8.95488 54.5616 8.92188 54.5288 8.92188 54.3873C8.92638 47.3525 8.92638 40.3162 8.92188 33.2813C8.92188 33.1488 8.95338 33.1146 9.08842 33.1146C10.1462 33.1205 11.204 33.1205 12.2618 33.1146C12.3818 33.1146 12.4148 33.1429 12.4133 33.2635C12.4073 34.0944 12.4103 34.9269 12.4103 35.7578C12.4103 35.81 12.4103 35.8621 12.4103 35.9455L12.4133 35.947Z" fill="#BB2225"/>
</svg>
