<svg width="64" height="64" viewBox="0 0 64 64" fill="none" xmlns="http://www.w3.org/2000/svg">
<path d="M4.1001 11.2C4.3001 10.9 4.5001 10.8 4.7001 10.9C4.7001 11 4.8001 11 4.8001 11C7.1001 12.5 9.4001 14 11.7001 15.6C12.0001 15.8 12.1001 15.8 12.4001 15.5C17.4001 10.5 22.3001 5.60001 27.3001 0.600012C27.5001 0.400012 27.7001 0.400012 27.8001 0.500012C27.9001 0.600012 28.0001 0.700012 28.0001 0.900012C28.0001 0.900012 28.0001 1.00001 28.0001 1.10001C28.0001 12.4 28.0001 23.8 28.0001 35.1C28.0001 35.3 28.0001 35.5 27.8001 35.6C27.6001 35.7 27.4001 35.6 27.3001 35.5C22.5001 32.3 17.6001 29.1 12.8001 25.8C12.6001 25.7 12.5001 25.6 12.3001 25.7C12.1001 25.8 12.1001 26 12.1001 26.2C12.1001 28.9 12.1001 31.5 12.1001 34.2C12.1001 34.4 12.2001 34.6 12.4001 34.7C16.4001 37.3 20.4001 40 24.3001 42.7C25.5001 43.5 26.6001 44.3 27.8001 45C28.0001 45.1 28.1001 45.3 28.1001 45.5C28.1001 51.2 28.1001 57 28.1001 62.7C28.1001 63.1 27.9001 63.2 27.6001 63.2C27.5001 63.2 27.4001 63.1 27.3001 63C25.8001 61.5 24.3001 60 22.8001 58.5C16.8001 52.5 11.0001 46.6 5.1001 40.8C4.8001 40.5 4.6001 40.3 4.3001 40C4.2001 39.9 4.2001 39.8 4.1001 39.7C4.1001 30.2 4.1001 20.7 4.1001 11.2Z" fill="#0CD564"/>
<path d="M36.3 63.1C36 62.9 36 62.7 36 62.4C36 56.8 36 51.1 36 45.5C36 45.2 36.1 45 36.4 44.8C41.5 41.4 46.6 38 51.7 34.6C51.9 34.5 52 34.3 52 34.1C52 31.4 52 28.8 52 26.1C52 25.9 52 25.8 51.8 25.7C51.6 25.6 51.5 25.7 51.3 25.8C46.5 29 41.6 32.3 36.8 35.5C36.7 35.6 36.5 35.7 36.3 35.6C36.2 35.5 36.1 35.4 36.1 35.3C36.1 35.2 36.1 35.1 36.1 35C36.1 23.7 36.1 12.4 36.1 1.20001C36.1 1.00001 36.1 0.700008 36.4 0.600008C36.7 0.500008 36.8 0.700008 37 0.800008C41.9 5.70001 46.9 10.7 51.8 15.6C52 15.8 52.2 15.9 52.5 15.7C54.8 14.2 57.1 12.7 59.4 11.1C59.8 10.9 59.9 10.9 60.2 11.3C60.2 20.8 60.2 30.3 60.2 39.8C60.1 39.9 60.1 40 60 40C52.4 47.6 44.8 55.2 37.1 62.8C37 62.9 36.8 63 36.7 63.1C36.4 63.1 36.3 63.1 36.3 63.1Z" fill="#0CD564"/>
</svg>
