<svg width="64" height="64" viewBox="0 0 64 64" fill="none" xmlns="http://www.w3.org/2000/svg">
<g clip-path="url(#clip0_1536_3681)">
<path d="M15.3406 62.6107C15.3437 62.6234 15.3473 62.6357 15.3513 62.648C15.4116 62.6623 15.4719 62.6885 15.5322 62.6885C26.1894 62.6905 36.8461 62.6905 47.5033 62.6885C47.5648 62.6885 47.6267 62.6647 47.6882 62.6524C47.6882 62.6524 47.6894 62.6524 47.6894 62.652C47.7017 62.5841 47.7247 62.5166 47.7247 62.4488C47.7267 60.4651 47.7263 58.4813 47.7263 56.498C47.7263 40.2321 47.7263 23.9662 47.7247 7.70037C47.7247 7.61982 47.7009 7.53886 47.6882 7.45831V7.45712C47.6195 7.44442 47.5509 7.4218 47.4822 7.42101C47.0263 7.41783 46.5699 7.41902 46.114 7.41942C44.4945 7.42101 42.8755 7.42299 41.256 7.42498L41.2537 7.42259C41.2568 6.98648 41.2596 6.55037 41.2628 6.11426C43.1795 6.11267 45.0965 6.11188 47.0132 6.1095C47.6739 6.10871 48.335 6.10394 48.9957 6.10077C49.0092 6.10394 49.0223 6.10672 49.0358 6.1099V63.9996H14.0402C14.0402 45.2258 14.0402 26.4524 14.0386 7.67855C14.0386 7.60553 14.0136 7.53212 14.0005 7.4591C14.0005 7.0095 14.0005 6.5599 14.0005 6.1099H21.7322C21.7322 6.54958 21.7322 6.98212 21.7322 7.41426C21.6465 7.41585 21.5608 7.41902 21.4751 7.41902C19.5076 7.41902 17.5402 7.41902 15.5727 7.42101C15.4989 7.42101 15.4251 7.44759 15.3513 7.46188C15.3473 7.47418 15.3437 7.48688 15.3406 7.49918C15.3303 7.56228 15.3112 7.62498 15.3112 7.68807C15.31 25.9325 15.31 44.177 15.3112 62.4214C15.3112 62.4845 15.3303 62.5472 15.3406 62.6103V62.6107Z" fill="#3590CE"/>
<path d="M37.5686 0C38.0111 0.104762 38.4174 0.278968 38.742 0.609524C39.1567 1.03175 39.4321 1.54246 39.6555 2.08254C39.9487 2.79206 40.1325 3.53254 40.2253 4.29286C40.2948 4.86429 40.3543 5.43889 40.3805 6.01389C40.4067 6.58413 40.423 7.15913 40.3765 7.72659C40.3214 8.39643 40.2194 9.06548 40.0892 9.725C39.9904 10.2254 39.6484 10.5421 39.1432 10.6587C38.8261 10.7321 38.4531 10.579 38.2904 10.2849C38.0861 9.91468 38.0011 9.51944 38.0726 9.08809C38.1376 8.69444 38.1618 8.29365 38.2015 7.89563C38.2297 7.61548 38.2864 7.33373 38.2734 7.05556C38.2491 6.55397 38.2301 6.04405 38.1206 5.55714C37.9896 4.97341 37.317 4.76944 36.7964 5.1254C36.3103 5.45754 35.946 5.90833 35.7432 6.45992C35.2928 7.68492 34.8638 8.91746 34.4329 10.1496C34.1714 10.8972 33.8241 11.5861 33.173 12.0766C32.6714 12.4544 32.1067 12.6821 31.4813 12.7357C30.0603 12.8575 28.9567 12.3103 28.2095 11.1C27.5781 10.0774 26.9876 9.02936 26.3702 7.99802C26.2349 7.77262 26.0626 7.56905 25.9035 7.35833C25.6364 7.00476 24.9511 7.05436 24.792 7.58333C24.6622 8.01508 24.6813 8.44524 24.7888 8.86667C25.0007 9.69682 25.2527 10.5167 25.465 11.3468C25.5503 11.6802 25.6011 12.0274 25.619 12.371C25.6452 12.8694 25.3337 13.1806 24.8245 13.2107C24.3694 13.2377 24.0666 12.9706 23.8702 12.6175C23.6634 12.2456 23.5031 11.8413 23.3718 11.4349C23.1511 10.7528 22.9198 10.0679 22.7845 9.36667C22.6126 8.47738 22.5214 7.57222 22.573 6.65873C22.648 5.33532 22.9265 4.07183 23.6265 2.92698C24.0087 2.30238 24.5198 1.82341 25.2436 1.6369C26.3305 1.35675 27.2678 1.62063 27.9499 2.53333C28.5507 3.3369 29.094 4.18333 29.6749 5.00238C29.896 5.31389 30.1321 5.61905 30.3956 5.89365C30.6936 6.20436 31.0749 6.41151 31.5111 6.42103C32.0888 6.43333 32.5634 6.17897 32.8285 5.66151C33.1408 5.05159 33.398 4.41349 33.6793 3.7877C34.0091 3.05317 34.3087 2.30357 34.6761 1.58849C35.1297 0.705159 35.8749 0.184524 36.8666 0.0349206C36.89 0.0313492 36.9114 0.0123016 36.9337 0.000396825C37.1452 0.000396825 37.3571 0.000396825 37.5686 0.000396825V0Z" fill="#3590CE"/>
<path d="M13.9999 7.45953C14.013 7.53255 14.038 7.60596 14.038 7.67898C14.0396 26.4528 14.0396 45.2262 14.0396 64C14.0265 63.9933 14.0023 63.9873 14.0015 63.9802C13.9983 63.9274 13.9999 63.8746 13.9999 63.8214C13.9999 45.0341 13.9999 26.2468 13.9999 7.45953Z" fill="#65ABDA"/>
<path d="M49.0357 6.1103C49.0222 6.10713 49.0091 6.10435 48.9956 6.10117C49.0091 6.09086 49.0222 6.08094 49.0357 6.07062V6.1103Z" fill="#D8E9F5"/>
<path d="M29.1167 25.6837C29.031 25.6814 28.9452 25.6766 28.8595 25.6766C25.7659 25.6758 22.6726 25.6754 19.579 25.675C19.5008 25.675 19.4222 25.675 19.3306 25.675V19.058C19.5278 19.2425 19.7417 19.4314 19.9429 19.633C20.3083 19.9996 20.6754 20.3615 21.1905 20.5147C21.252 20.533 21.3163 20.5425 21.3794 20.556C21.4421 20.5687 21.5048 20.5925 21.5675 20.5925C24.0353 20.5933 26.5028 20.5925 28.9706 20.5889C29.0306 20.5889 29.0905 20.5603 29.1504 20.5453V18.9294C30.7206 18.9294 32.2774 18.9294 33.8345 18.9294C33.8365 19.4032 33.8365 19.8766 33.8417 20.35C33.8425 20.4175 33.8675 20.4845 33.881 20.5516C33.8921 20.558 33.904 20.5615 33.9163 20.5627C34 20.5722 34.0833 20.5905 34.1671 20.5905C36.5881 20.5925 39.0091 20.5933 41.4306 20.5921C41.4937 20.5921 41.5564 20.5707 41.6195 20.5591C42.1663 20.4631 42.5806 20.1385 42.9623 19.7663C43.1984 19.5361 43.4151 19.2857 43.6405 19.0445C43.6544 19.0425 43.6687 19.0409 43.6825 19.0389C43.6861 19.0532 43.6901 19.0679 43.6937 19.0822C43.6893 19.1675 43.681 19.2528 43.6806 19.3381C43.6798 21.3111 43.6798 23.2841 43.6806 25.2572C43.6806 25.3822 43.6869 25.5072 43.6901 25.6322C43.6734 25.6488 43.6568 25.6655 43.6405 25.6822C42.5691 25.6814 41.498 25.6806 40.4266 25.6798C39.5147 25.6782 38.6028 25.6758 37.6909 25.675C36.5012 25.6742 35.3119 25.675 34.1222 25.675C34.0433 25.675 33.9643 25.6814 33.8853 25.6845C33.8841 25.8373 33.8825 25.9901 33.8814 26.1433C34.504 26.3972 35.1238 26.6591 35.7504 26.9032C38.3333 27.9095 40.9179 28.9107 43.5028 29.9111C43.6012 29.9492 43.6468 29.9917 43.6464 30.1072C43.6421 31.7072 43.6433 33.3076 43.6429 34.9076C43.6429 34.927 43.6381 34.9464 43.6318 34.9937C43.5433 34.9631 43.4599 34.9373 43.3786 34.9056C39.7099 33.4869 36.0417 32.0679 32.373 30.6484C32.1945 30.5794 32.0119 30.5191 31.8389 30.4381C31.6199 30.3353 31.4151 30.3437 31.1905 30.4314C29.3583 31.1464 27.5234 31.854 25.6897 32.5643C23.7079 33.3322 21.727 34.1008 19.7452 34.8679C19.6242 34.9147 19.4992 34.952 19.3599 34.9992C19.3599 34.8107 19.3599 34.646 19.3599 34.4814C19.3591 33.0397 19.3607 31.5984 19.354 30.1568C19.3532 30.0147 19.3972 29.9496 19.5286 29.8988C21.4623 29.1536 23.3937 28.4032 25.3258 27.6544C26.4643 27.2131 27.6028 26.7726 28.7413 26.3318C28.7536 26.327 28.7651 26.3207 28.7774 26.3155C29.2405 26.1143 29.1583 26.1913 29.1492 25.7103C29.1385 25.7008 29.1278 25.6913 29.1171 25.6822L29.1167 25.6837Z" fill="#3590CE"/>
<path d="M43.6001 42.9714C43.6001 44.4987 43.6001 46.0261 43.6001 47.5531C43.6001 47.8856 43.6001 47.8872 43.2866 48.0091C39.4057 49.5186 35.5251 51.0281 31.6418 52.5313C31.5449 52.569 31.4069 52.5618 31.3076 52.5237C29.2676 51.7436 27.2295 50.9583 25.1926 50.1694C23.3045 49.4384 21.4192 48.7011 19.5303 47.9722C19.3699 47.9103 19.3128 47.8253 19.3132 47.6511C19.3184 44.4841 19.3184 41.317 19.312 38.1499C19.312 37.9853 19.389 37.9396 19.5148 37.8912C22.8866 36.5841 26.2573 35.2741 29.6279 33.965C30.1632 33.7571 30.6949 33.54 31.2362 33.3495C31.3719 33.3019 31.5557 33.2976 31.6886 33.3484C35.5807 34.8464 39.4684 36.3563 43.3604 37.8551C43.6025 37.9484 43.5961 38.1285 43.5969 38.3095C43.6021 39.863 43.6001 41.417 43.6001 42.9706V42.9714ZM40.3521 44.0845C40.3636 44.042 40.385 43.9991 40.3854 43.9567C40.387 43.2662 40.387 42.5761 40.3842 41.8857C40.3842 41.8384 40.3569 41.7912 40.3418 41.744C40.0858 41.6416 39.8311 41.5368 39.5739 41.4372C36.9303 40.4138 34.2866 39.3904 31.6402 38.3737C31.5422 38.336 31.4045 38.3357 31.3065 38.3734C28.3953 39.4932 25.4866 40.6202 22.5775 41.746C22.5624 41.7995 22.5342 41.8527 22.5338 41.9063C22.5303 42.5833 22.5303 43.2607 22.5322 43.9376C22.5322 43.9868 22.5537 44.0356 22.5652 44.0849C23.4271 44.4285 24.2866 44.7793 25.1517 45.1142C27.1938 45.9043 29.239 46.6857 31.2811 47.4757C31.4144 47.5273 31.5255 47.5289 31.6576 47.4777C33.8759 46.6162 36.0965 45.7606 38.3152 44.8991C38.9969 44.6345 39.6731 44.3567 40.3521 44.0849V44.0845Z" fill="#3590CE"/>
<path d="M41.3824 54.0044C41.976 53.9563 42.4554 53.6714 42.8697 53.2674C43.1046 53.0381 43.3153 52.7841 43.5415 52.5456C43.5752 52.5099 43.6236 52.377 43.6843 52.5321C43.6828 52.6313 43.6796 52.7301 43.6792 52.8294C43.6768 54.9119 43.6752 56.994 43.6732 59.0766C43.5344 59.0782 43.3959 59.0817 43.257 59.0817C35.3653 59.0825 27.4732 59.0829 19.5816 59.0833C19.503 59.0833 19.424 59.0833 19.3296 59.0833V52.421C19.3903 52.4754 19.4363 52.5123 19.478 52.554C19.7955 52.8718 20.101 53.2024 20.4316 53.5051C20.7617 53.8075 21.1629 53.9714 21.6133 54.0048C21.6816 54.0131 21.7494 54.0214 21.8177 54.0298C22.2935 54.0298 22.7693 54.0305 23.2451 54.0309C23.9062 54.0325 24.5673 54.0337 25.2284 54.0353C25.3141 54.0373 25.3998 54.0413 25.4855 54.0413C29.0054 54.0413 32.5252 54.0417 36.0447 54.0413C36.5002 54.0413 36.9558 54.0373 37.4113 54.0349C37.953 54.0333 38.4951 54.0317 39.0367 54.0301C39.751 54.0301 40.4649 54.0301 41.1792 54.0301C41.247 54.0214 41.3149 54.0127 41.3824 54.004V54.0044Z" fill="#3590CE"/>
<path d="M47.6886 7.45831C47.7013 7.53887 47.7251 7.61982 47.7251 7.70038C47.7267 23.9662 47.7267 40.2321 47.7267 56.498C47.7267 58.4817 47.7267 60.4655 47.7251 62.4488C47.7251 62.5166 47.7021 62.5841 47.6898 62.652C47.689 62.5924 47.687 62.5329 47.687 62.4734C47.687 44.1877 47.687 25.902 47.687 7.61625C47.687 7.56347 47.6882 7.5103 47.6886 7.45752V7.45831Z" fill="#8CC0E3"/>
<path d="M15.3403 62.6107C15.33 62.5476 15.311 62.4849 15.311 62.4219C15.3098 44.1774 15.3098 25.933 15.311 7.68852C15.311 7.62543 15.3304 7.56273 15.3403 7.49963C15.3431 7.5786 15.3486 7.65797 15.3486 7.73694C15.3486 25.9492 15.3486 44.1611 15.3486 62.3734C15.3486 62.4524 15.3431 62.5318 15.3399 62.6107H15.3403Z" fill="#5AA4D6"/>
<path d="M47.688 62.6528C47.6265 62.6655 47.5646 62.6889 47.5031 62.6889C36.8459 62.6905 26.1892 62.6905 15.532 62.6889C15.4717 62.6889 15.4114 62.6623 15.3511 62.6484C15.4372 62.6492 15.5229 62.6508 15.609 62.6508C26.2094 62.6508 36.8098 62.6508 47.4102 62.6508C47.5027 62.6508 47.5955 62.652 47.688 62.6528Z" fill="#99C7E5"/>
<path d="M37.411 54.0349C36.9554 54.0369 36.4999 54.0408 36.0443 54.0412C32.5245 54.0416 29.0046 54.0412 25.4852 54.0412C25.3995 54.0412 25.3137 54.0373 25.228 54.0353C25.2288 54.025 25.2296 54.0147 25.2304 54.0043C28.536 54.0035 31.8419 54.0023 35.1475 54.002C35.901 54.002 36.655 54.0031 37.4086 54.0039C37.4094 54.0143 37.4102 54.0246 37.411 54.0349Z" fill="#ACD2EA"/>
<path d="M29.1494 20.5452C29.0895 20.5603 29.0296 20.5889 28.9697 20.5889C26.5018 20.5921 24.0344 20.5932 21.5665 20.5924C21.5038 20.5924 21.4411 20.5686 21.3784 20.5559C23.8828 20.5544 26.3871 20.5532 28.8919 20.5512C28.9776 20.5512 29.0637 20.5476 29.1494 20.5456V20.5452Z" fill="#93C4E4"/>
<path d="M41.6187 20.5599C41.5556 20.5714 41.4929 20.5925 41.4298 20.5929C39.0088 20.5941 36.5877 20.5929 34.1663 20.5913C34.0826 20.5913 33.9993 20.573 33.9155 20.5635C34.0405 20.5599 34.1655 20.5536 34.2909 20.5536C36.6874 20.5536 39.0838 20.5552 41.4802 20.556C41.5262 20.556 41.5723 20.5587 41.6187 20.5603V20.5599Z" fill="#83BBE0"/>
<path d="M43.6892 25.6333C43.686 25.5083 43.6797 25.3833 43.6797 25.2583C43.6789 23.2853 43.6793 21.3123 43.6797 19.3393C43.6797 19.2539 43.688 19.1686 43.6928 19.0833C43.7015 19.1476 43.7178 19.2115 43.7178 19.2758C43.7189 21.3178 43.7189 23.3603 43.7174 25.4024C43.7174 25.4793 43.6991 25.5563 43.6892 25.6333Z" fill="#B4D6EC"/>
<path d="M43.6733 59.0765C43.6753 56.994 43.6773 54.9119 43.6793 52.8293C43.6793 52.7301 43.6825 52.6313 43.6844 52.5321C43.696 52.6015 43.7174 52.671 43.7174 52.7404C43.719 54.7726 43.7194 56.8047 43.7166 58.8369C43.7166 58.917 43.6884 58.9968 43.6733 59.0769V59.0765Z" fill="#B4D6EC"/>
<path d="M41.2559 7.42499C42.8753 7.42301 44.4944 7.42102 46.1138 7.41943C46.5697 7.41904 47.0261 7.41785 47.4821 7.42102C47.5507 7.42142 47.6194 7.44443 47.688 7.45713C45.5999 7.45793 43.5118 7.45872 41.4241 7.45793C41.3682 7.45793 41.3122 7.4365 41.2563 7.42539L41.2559 7.42499Z" fill="#8ABFE3"/>
<path d="M15.3511 7.46229C15.4249 7.44801 15.4987 7.42182 15.5725 7.42142C17.54 7.41904 19.5074 7.41983 21.4749 7.41943C21.5606 7.41943 21.6463 7.41626 21.732 7.41467C21.6594 7.42975 21.5864 7.45753 21.5138 7.45753C19.4594 7.4607 17.4054 7.4615 15.3511 7.46229Z" fill="#8CC0E3"/>
<path d="M40.4253 25.6809C41.4967 25.6817 42.5678 25.6825 43.6392 25.6833C43.582 25.6928 43.5249 25.7103 43.4678 25.7103C42.5106 25.7119 41.5531 25.7119 40.5959 25.7103C40.5392 25.7103 40.4824 25.6912 40.4257 25.6809H40.4253Z" fill="#C8E0F1"/>
<path d="M25.2303 54.0044C25.2295 54.0147 25.2288 54.025 25.228 54.0353C24.5669 54.0338 23.9057 54.0326 23.2446 54.031C23.2946 54.0211 23.345 54.0024 23.395 54.0024C24.0069 54.0016 24.6184 54.0032 25.2303 54.0044Z" fill="#C3DEF0"/>
<path d="M33.8799 20.552C33.866 20.4849 33.8414 20.4174 33.8406 20.3504C33.8355 19.877 33.8351 19.4032 33.8335 18.9297C33.8486 18.9964 33.876 19.0627 33.8764 19.1294C33.8807 19.6036 33.8795 20.0778 33.8799 20.552Z" fill="#B2D5EC"/>
<path d="M37.4111 54.0349C37.4103 54.0245 37.4095 54.0142 37.4087 54.0039C37.9012 54.0027 38.394 54.0011 38.8865 54.0019C38.9365 54.0019 38.9865 54.0202 39.0369 54.0301C38.4952 54.0317 37.9531 54.0333 37.4115 54.0349H37.4111Z" fill="#C6E0F1"/>
<path d="M41.2629 6.11469C41.2597 6.5508 41.2569 6.98691 41.2537 7.42302C41.2418 7.28889 41.2232 7.15516 41.22 7.02064C41.2144 6.77778 41.2156 6.53492 41.2204 6.29246C41.2216 6.23294 41.2478 6.17421 41.2625 6.11508L41.2629 6.11469Z" fill="#8ABFE3"/>
<path d="M21.8176 54.0298C21.7498 54.0214 21.6815 54.0131 21.6133 54.0048C21.6811 54.0131 21.7494 54.0214 21.8176 54.0298Z" fill="#C3DEF0"/>
<path d="M41.3824 54.0044C41.3145 54.0131 41.2467 54.0219 41.1792 54.0306C41.2471 54.0219 41.3149 54.0131 41.3824 54.0044Z" fill="#C6E0F1"/>
<path d="M29.1167 25.6837C29.1274 25.6932 29.1381 25.7028 29.1488 25.7119C29.1381 25.7024 29.1274 25.6928 29.1167 25.6837Z" fill="#D2E6F4"/>
<path d="M22.5772 41.746C22.5732 42.5257 22.5689 43.3051 22.5649 44.0849C22.5534 44.0357 22.532 43.9868 22.532 43.9376C22.53 43.2607 22.5304 42.5833 22.5336 41.9063C22.5336 41.8527 22.5621 41.7995 22.5772 41.746Z" fill="#86BDE1"/>
<path d="M40.3516 44.0845C40.3481 43.3043 40.3445 42.5242 40.3413 41.744C40.356 41.7912 40.3834 41.8385 40.3838 41.8857C40.3869 42.5758 40.3869 43.2662 40.385 43.9567C40.385 43.9992 40.3635 44.042 40.3516 44.0845Z" fill="#85BCE1"/>
</g>
<defs>
<clipPath id="clip0_1536_3681">
<rect width="35.0357" height="64" fill="white" transform="translate(14)"/>
</clipPath>
</defs>
</svg>
