<svg width="64" height="64" viewBox="0 0 64 64" fill="none" xmlns="http://www.w3.org/2000/svg">
<g clip-path="url(#clip0_1536_3618)">
<path d="M31.8622 0.00112423C31.8997 0.00112423 31.9371 0.00112423 31.9746 0.00112423C31.999 0.0251077 32.0196 0.0550871 32.0481 0.0715758C32.6548 0.425333 33.257 0.788083 33.8712 1.12872C36.8983 2.80869 39.3938 5.0609 41.2712 7.98126C41.4856 8.31478 41.4878 8.31253 41.8753 8.22672C42.9354 7.99213 44.0053 7.81675 45.0921 7.79726C45.8701 7.78302 46.6514 7.78415 47.4271 7.83774C48.2208 7.89245 49.022 7.9614 49.7974 8.12779C51.1809 8.42421 52.5472 8.80007 53.9218 9.13809C54.0619 9.17257 54.1283 9.24527 54.1635 9.38242C54.3014 9.91718 54.4483 10.4501 54.5933 10.9829C54.8965 12.0986 55.2143 13.2134 55.3439 14.3646C55.4848 15.6166 55.5901 16.8716 55.5148 18.1368C55.4455 19.2962 55.3049 20.4437 55.0449 21.575C55.0029 21.7579 55.0452 21.8351 55.1921 21.928C57.028 23.0954 58.6394 24.516 60.0098 26.2095C61.0437 27.487 61.9105 28.8724 62.7031 30.308C62.8961 30.6577 63.1247 30.9871 63.3372 31.3262V31.4012C63.278 31.4705 63.206 31.5331 63.161 31.6106C62.8182 32.202 62.4779 32.7952 62.1417 33.3907C60.307 36.6393 57.8389 39.2708 54.5918 41.1441C54.554 41.1658 54.521 41.195 54.4854 41.2209C54.4895 41.2348 54.4936 41.2483 54.4981 41.2621H58.7589C58.3441 41.6728 57.966 42.0446 57.5909 42.4193C54.5154 45.4892 51.4406 48.5599 48.3621 51.6271C48.3036 51.6856 48.2017 51.7358 48.1223 51.7328C46.9755 51.6923 45.8288 51.6496 44.6829 51.5867C44.4809 51.5754 44.3415 51.6144 44.2021 51.7542C40.6057 55.3539 37.0059 58.9507 33.408 62.5494C32.9276 63.0302 32.4524 63.5162 31.975 64H31.8626C31.8596 63.9948 31.8573 63.9884 31.8528 63.9843C27.7711 59.8996 23.6891 55.8152 19.6081 51.7302C19.4833 51.6054 19.3424 51.5743 19.1678 51.5829C18.0218 51.6402 16.8751 51.6908 15.7284 51.7328C15.6381 51.7362 15.5219 51.6818 15.456 51.6163C12.0439 48.2129 8.63566 44.8053 5.22737 41.3978C5.1899 41.3603 5.15542 41.3206 5.09322 41.2535H9.31057C9.23112 41.1516 9.13669 41.0875 9.0385 41.0294C7.17191 39.9217 5.53954 38.5374 4.12338 36.893C3.1232 35.7317 2.28977 34.4591 1.54441 33.1235C1.21201 32.5273 0.848885 31.949 0.5 31.3633C0.5 31.3382 0.5 31.3135 0.5 31.2884C0.525108 31.264 0.556961 31.2438 0.574199 31.2149C0.889357 30.6936 1.21876 30.1799 1.51368 29.647C2.42018 28.0105 3.46646 26.4774 4.76457 25.1216C5.94388 23.8898 7.25173 22.8166 8.68437 21.8939C8.77768 21.834 8.81778 21.7901 8.79155 21.6616C8.55434 20.5074 8.35385 19.3446 8.30926 18.1668C8.24218 16.392 8.34036 14.6236 8.76719 12.8908C9.06436 11.6852 9.39938 10.4894 9.72541 9.29099C9.74115 9.23253 9.82396 9.1677 9.8873 9.15083C10.8002 8.91137 11.7149 8.67866 12.6297 8.44594C13.8311 8.14053 15.0415 7.88495 16.2819 7.79876C18.1234 7.67098 19.9454 7.82537 21.7516 8.18812C22.3471 8.30766 22.346 8.31403 22.6836 7.79539C23.9386 5.86622 25.5081 4.23271 27.3357 2.8398C28.3733 2.04909 29.4886 1.38242 30.6248 0.747236C31.0452 0.512273 31.4503 0.249953 31.8626 0L31.8622 0.00112423ZM54.3359 31.3554C54.3044 31.4008 54.2815 31.4371 54.2549 31.4712C53.6475 32.2541 52.9583 32.9571 52.1702 33.5582C49.5129 35.5859 46.5195 36.4429 43.1951 36.0749C42.0638 35.9498 40.974 35.623 39.9229 35.1831C38.5206 34.5966 37.2555 33.801 36.2665 32.6318C35.6433 31.8951 35.0734 31.113 34.4846 30.3474C33.7666 29.4143 33.091 28.4459 32.3317 27.5477C30.5487 25.4371 28.3576 23.8636 25.8123 22.7922C23.8236 21.955 21.7501 21.4851 19.5871 21.4757C18.8092 21.4724 18.0304 21.5323 17.2532 21.5837C16.3153 21.6459 15.3979 21.837 14.4944 22.0918C12.0076 22.7926 9.80373 24.0146 7.85544 25.7058C6.0638 27.261 4.63603 29.0991 3.55677 31.2108C3.49831 31.3255 3.49869 31.4113 3.56202 31.5196C3.83183 31.9809 4.07916 32.4561 4.36359 32.908C5.85732 35.2805 7.74864 37.267 10.1511 38.7326C12.6413 40.2515 15.3469 41.0845 18.268 41.2247C19.7644 41.2962 21.2457 41.2055 22.7102 40.9069C24.7736 40.486 26.6904 39.6893 28.461 38.5509C29.0141 38.1952 29.5403 37.7976 30.0904 37.4113C28.9298 36.1533 27.9814 34.7941 27.176 33.3322C24.4033 35.3656 21.3615 36.4598 17.9019 36.0828C14.4445 35.7058 11.6647 34.0798 9.48107 31.3907C9.49569 31.3656 9.50581 31.3427 9.52042 31.3236C10.0222 30.6753 10.5742 30.0731 11.1955 29.5372C13.2352 27.7782 15.6077 26.8124 18.2871 26.612C19.4091 26.528 20.5311 26.5943 21.6325 26.8368C25.1243 27.6058 27.8288 29.5005 29.6587 32.579C30.8601 34.6003 32.3542 36.3478 34.2336 37.7575C37.0677 39.8838 40.2527 41.0706 43.7981 41.246C44.7694 41.294 45.7419 41.2696 46.7121 41.1493C47.8112 41.0129 48.8901 40.7926 49.939 40.4407C54.506 38.9084 57.8723 35.9644 60.1549 31.7448C60.3033 31.4705 60.31 31.255 60.1534 30.9736C58.874 28.6697 57.2783 26.6341 55.1749 25.0223C54.862 24.7828 54.5356 24.5606 54.1976 24.3178C53.556 25.949 52.7368 27.4401 51.7247 28.8297C52.7211 29.5499 53.589 30.3781 54.3355 31.3558L54.3359 31.3554ZM52.6008 43.8033C52.4843 43.8033 52.4247 43.8033 52.3647 43.8033C49.9855 43.8033 47.6066 43.813 45.2277 43.7988C44.3936 43.7939 43.5568 43.762 42.7263 43.6841C41.9679 43.6129 41.2086 43.4993 40.4633 43.3405C37.3226 42.67 34.518 41.2902 32.0289 39.2655C31.9398 39.1928 31.8854 39.1831 31.7932 39.2595C31.5392 39.4701 31.2802 39.6762 31.0145 39.8722C27.5242 42.4459 23.6051 43.7534 19.2738 43.7988C16.6701 43.8261 14.066 43.8036 11.4623 43.804H11.2712C11.3057 43.8887 11.3567 43.9258 11.4009 43.9696C12.9819 45.5499 14.5592 47.134 16.1444 48.7101C16.6825 49.2453 16.5094 49.2344 17.2866 49.1636C18.2905 49.0718 19.3016 49.0302 20.2969 48.8806C21.4166 48.7124 22.5341 48.4958 23.6313 48.2162C26.5776 47.4652 29.2577 46.1937 31.4635 44.0423C31.622 43.8876 31.7929 43.7455 32.002 43.5578C32.0732 43.6522 32.123 43.7433 32.1953 43.8104C32.6892 44.2683 33.1607 44.7562 33.6902 45.1696C35.4256 46.5235 37.3975 47.4147 39.4979 48.0348C41.9255 48.7517 44.4194 49.0523 46.9369 49.1995C47.1277 49.2108 47.2671 49.1463 47.4001 49.0129C48.8995 47.5102 50.4033 46.0116 51.9053 44.5111C52.1249 44.2915 52.3411 44.0686 52.6008 43.8044V43.8033ZM34.9295 26.6667C34.9295 26.5104 34.9429 26.398 34.9272 26.2897C34.8058 25.4416 34.7308 24.5831 34.5442 23.7493C33.8824 20.7967 32.5172 18.1971 30.4798 15.9603C28.696 14.0019 26.5719 12.522 24.1088 11.5376C22.3422 10.8316 20.5101 10.4373 18.6079 10.3354C17.444 10.2732 16.2849 10.2964 15.1423 10.5074C14.0777 10.7041 13.0295 10.9886 11.972 11.2254C11.8303 11.2573 11.7775 11.3345 11.7456 11.4566C11.6381 11.87 11.5268 12.2822 11.4189 12.6955C11.0509 14.1027 10.8084 15.5289 10.8485 16.9878C10.8714 17.822 10.9332 18.6558 10.9992 19.4877C11.0284 19.8565 11.112 20.2211 11.1674 20.5651C11.996 20.2773 12.7934 19.9644 13.6122 19.7257C14.434 19.4859 15.2776 19.3195 16.1118 19.1209C15.9176 18.0127 15.8787 16.5014 16.0758 15.5147C16.3216 15.49 16.569 15.4521 16.817 15.442C18.0788 15.3907 19.3297 15.4652 20.5611 15.7729C23.556 16.5216 25.9581 18.1357 27.7232 20.6779C27.8517 20.863 28.0046 20.9983 28.2066 21.1002C30.4363 22.2282 32.3482 23.7669 34.0155 25.6181C34.3152 25.9513 34.6049 26.2934 34.9291 26.6663L34.9295 26.6667ZM37.6437 29.8164C37.6606 29.8261 37.6774 29.8359 37.6943 29.8456C37.8802 29.6151 38.0717 29.3892 38.2508 29.1535C40.5157 26.1713 41.6823 22.7967 41.8221 19.0646C41.8794 17.5398 41.7014 16.0345 41.3417 14.5505C40.642 11.6616 39.2693 9.13472 37.2547 6.95672C35.7681 5.34982 34.0417 4.05546 32.0957 3.05265C31.9574 2.98145 31.8573 2.98932 31.7228 3.06015C29.4365 4.26682 27.4256 5.813 25.8041 7.84186C25.4785 8.2492 25.1614 8.66367 24.8275 9.09162C26.4651 9.73056 27.9705 10.5505 29.3709 11.5675C29.3953 11.5409 29.4132 11.5241 29.4279 11.5046C30.0541 10.658 30.7646 9.8902 31.5804 9.22353C31.9401 8.92974 31.8727 8.91849 32.2182 9.20217C33.7827 10.4875 34.9666 12.0566 35.7595 13.9187C36.3392 15.2797 36.657 16.6993 36.7072 18.1806C36.7346 18.9811 36.6919 19.7748 36.5502 20.5621C36.4813 20.9455 36.476 21.3064 36.6102 21.6916C37.0134 22.8492 37.2596 24.0472 37.363 25.2681C37.4507 26.305 37.4968 27.3457 37.5601 28.3845C37.5894 28.8619 37.616 29.3393 37.6437 29.8164ZM39.094 32.154C39.2188 32.2406 39.3312 32.3271 39.4518 32.4006C40.1556 32.8274 40.9366 33.0482 41.7292 33.2292C41.8487 33.2565 41.9963 33.2378 42.1118 33.1924C45.0374 32.0378 47.4571 30.2024 49.3713 27.7144C51.5084 24.9361 52.7406 21.8036 52.9628 18.2893C53.0359 17.1347 53.049 15.979 52.8309 14.8417C52.612 13.6995 52.3209 12.5711 52.0675 11.4353C52.0398 11.3105 51.9791 11.264 51.8626 11.2359C51.3518 11.1107 50.8448 10.9691 50.3332 10.8477C49.0299 10.5385 47.7108 10.311 46.3688 10.3174C45.5043 10.3215 44.6394 10.401 43.7764 10.4658C43.4147 10.4928 43.0572 10.5696 42.6772 10.6266C43.3758 12.2252 43.8566 13.8651 44.1298 15.5683C44.4573 15.5342 44.7713 15.5042 45.085 15.4686C45.951 15.3708 46.8152 15.4027 47.6767 15.5196C47.7179 15.5252 47.779 15.5908 47.7824 15.6328C47.8251 16.1293 47.8854 16.6262 47.8884 17.1235C47.894 18.1218 47.7767 19.1092 47.5253 20.0776C46.7826 22.9406 45.2375 25.2663 42.8421 27.0092C42.5052 27.2543 42.2414 27.5308 42.0398 27.8936C41.52 28.8286 40.9815 29.7534 40.3167 30.597C39.9124 31.11 39.5103 31.6249 39.0943 32.1555L39.094 32.154ZM41.1858 51.0631C41.1134 51.0455 41.019 51.02 40.9238 50.9991C39.2334 50.6273 37.577 50.1461 35.9952 49.4334C35.8337 49.3607 35.7396 49.382 35.6164 49.5068C34.6952 50.4399 33.7681 51.3674 32.8376 52.2912C32.5326 52.594 32.2122 52.8806 31.882 53.1909C31.8689 53.1756 31.8322 53.1253 31.7887 53.0819C30.6057 51.8984 29.4204 50.7173 28.2403 49.5308C28.1058 49.3955 27.9967 49.3637 27.8078 49.4484C26.4884 50.042 25.1112 50.4658 23.7082 50.8106C23.3447 50.8998 22.9804 50.9871 22.6323 51.071C25.7295 54.1701 28.8215 57.2648 31.9143 60.3594C34.9984 57.2666 38.0915 54.1649 41.1854 51.0624L41.1858 51.0631ZM16.1878 29.6249C16.2174 29.6579 16.2324 29.677 16.2497 29.6938C17.8288 31.2142 19.6497 32.3579 21.6831 33.1662C21.7876 33.2078 21.93 33.2014 22.0421 33.1707C22.7619 32.9713 23.4391 32.6648 24.0882 32.2983C24.5525 32.036 25.0067 31.7568 25.4706 31.4817C23.5474 29.4023 18.6113 28.419 16.1878 29.6249Z" fill="#0B0C0B"/>
<path d="M54.3359 31.3554C53.5895 30.3781 52.7219 29.5496 51.7251 28.8293C52.7373 27.4398 53.5565 25.9487 54.198 24.3174C54.5361 24.5606 54.8625 24.7825 55.1754 25.0219C57.2792 26.6337 58.8744 28.6693 60.1538 30.9732C60.3101 31.2546 60.3037 31.4701 60.1553 31.7444C57.8728 35.9644 54.5065 38.9084 49.9395 40.4403C48.8906 40.7922 47.8117 41.0126 46.7126 41.149C45.7424 41.2692 44.7699 41.294 43.7986 41.2456C40.2531 41.0703 37.0682 39.8835 34.234 37.7572C32.3547 36.347 30.8606 34.6 29.6592 32.5786C27.8293 29.5005 25.1248 27.6054 21.6329 26.8364C20.5316 26.594 19.4096 26.5273 18.2876 26.6116C15.6082 26.8121 13.2361 27.7781 11.196 29.5368C10.5747 30.0723 10.0227 30.6745 9.52088 31.3232C9.50627 31.3423 9.49615 31.3648 9.48153 31.3903C11.6652 34.0794 14.445 35.7054 17.9024 36.0824C21.362 36.4598 24.4038 35.3656 27.1765 33.3318C27.9814 34.7937 28.9299 36.1529 30.0909 37.4109C29.5407 37.7973 29.0146 38.1949 28.4615 38.5505C26.6908 39.689 24.774 40.4857 22.7107 40.9065C21.2462 41.2052 19.7648 41.2962 18.2685 41.2243C15.3474 41.0841 12.6417 40.2511 10.1516 38.7322C7.7491 37.2666 5.85815 35.2805 4.36405 32.9076C4.07962 32.4557 3.83229 31.9805 3.56248 31.5192C3.49915 31.4109 3.49877 31.3251 3.55723 31.2104C4.63649 29.0987 6.06426 27.2606 7.8559 25.7054C9.80419 24.0142 12.008 22.7922 14.4948 22.0914C15.3983 21.8366 16.3157 21.6455 17.2537 21.5833C18.0309 21.5316 18.8096 21.472 19.5876 21.4754C21.7506 21.4847 23.824 21.9547 25.8128 22.7918C28.3581 23.8632 30.5492 25.4368 32.3322 27.5473C33.0911 28.4456 33.7671 29.4139 34.4851 30.347C35.0738 31.1126 35.6438 31.8947 36.267 32.6314C37.2559 33.8006 38.5211 34.5962 39.9234 35.1827C40.9749 35.6223 42.0643 35.9494 43.1956 36.0746C46.5199 36.4422 49.5134 35.5855 52.1707 33.5578C52.9584 32.9567 53.6479 32.2537 54.2554 31.4709C54.2816 31.4368 54.3048 31.4004 54.3363 31.3551L54.3359 31.3554Z" fill="#FBC917"/>
<path d="M52.6006 43.8029C52.3409 44.0671 52.1247 44.2901 51.9051 44.5097C50.4031 46.0101 48.8993 47.5087 47.3999 49.0115C47.2665 49.1449 47.1275 49.2093 46.9367 49.1981C44.4192 49.0508 41.9253 48.7503 39.4977 48.0334C37.3977 47.4132 35.4254 46.522 33.69 45.1681C33.1604 44.7551 32.689 44.2672 32.1951 43.8089C32.1228 43.7418 32.0729 43.6508 32.0017 43.5563C31.7926 43.7441 31.6218 43.8861 31.4632 44.0409C29.2575 46.1923 26.5773 47.4638 23.6311 48.2147C22.5339 48.4943 21.4164 48.7109 20.2967 48.8792C19.3017 49.0287 18.2903 49.0703 17.2864 49.1621C16.5088 49.2333 16.6823 49.2438 16.1441 48.7087C14.559 47.1325 12.9817 45.5485 11.4007 43.9682C11.3568 43.9243 11.3058 43.8869 11.271 43.8025H11.4621C14.0658 43.8025 16.6699 43.8246 19.2736 43.7973C23.6049 43.7519 27.5243 42.4445 31.0143 39.8707C31.28 39.6747 31.5389 39.469 31.793 39.258C31.8852 39.1816 31.9392 39.1917 32.0287 39.264C34.5178 41.2888 37.3223 42.6686 40.4631 43.339C41.208 43.4979 41.9673 43.6114 42.7261 43.6826C43.5562 43.7606 44.393 43.7924 45.2275 43.7973C47.6064 43.8115 49.9856 43.8018 52.3645 43.8018C52.4245 43.8018 52.4844 43.8018 52.6006 43.8018V43.8029Z" fill="#FBC917"/>
<path d="M34.9291 26.6663C34.6046 26.2934 34.3153 25.9513 34.0155 25.6181C32.3483 23.7669 30.4363 22.2282 28.2066 21.1002C28.0046 20.9983 27.8517 20.863 27.7232 20.6779C25.9582 18.1356 23.5565 16.5216 20.5611 15.7729C19.3297 15.4652 18.0788 15.3906 16.8171 15.442C16.569 15.4521 16.3217 15.4899 16.0758 15.5147C15.8784 16.501 15.9177 18.0127 16.1118 19.1208C15.2776 19.3194 14.4341 19.4858 13.6123 19.7257C12.7935 19.9647 11.9964 20.2773 11.1675 20.5651C11.112 20.2211 11.0284 19.8564 10.9992 19.4877C10.9329 18.6554 10.8714 17.822 10.8486 16.9878C10.8085 15.5289 11.0509 14.1026 11.4189 12.6955C11.5268 12.2825 11.6381 11.8699 11.7457 11.4566C11.7776 11.3344 11.8304 11.2569 11.972 11.2254C13.0296 10.9885 14.0777 10.7041 15.1424 10.5074C16.2846 10.296 17.4437 10.2732 18.608 10.3354C20.5098 10.4369 22.3423 10.8315 24.1088 11.5375C26.572 12.522 28.696 14.0018 30.4798 15.9602C32.5173 18.1971 33.8825 20.7963 34.5443 23.7493C34.7309 24.5827 34.8058 25.4416 34.9273 26.2896C34.9426 26.3979 34.9295 26.5104 34.9295 26.6666L34.9291 26.6663Z" fill="#FAC917"/>
<path d="M37.6438 29.816C37.6161 29.3386 37.5895 28.8612 37.5603 28.3841C37.4969 27.3453 37.4512 26.3047 37.3631 25.2678C37.2597 24.0465 37.0135 22.8484 36.6103 21.6912C36.4761 21.3064 36.4814 20.9451 36.5503 20.5618C36.692 19.7744 36.7347 18.9807 36.7073 18.1803C36.6568 16.6989 36.339 15.2794 35.7596 13.9183C34.9667 12.0562 33.7832 10.4872 32.2183 9.20181C31.8728 8.91813 31.9402 8.92938 31.5805 9.22317C30.7647 9.88984 30.0538 10.6577 29.428 11.5042C29.4134 11.5237 29.3954 11.5406 29.371 11.5672C27.9706 10.5501 26.4653 9.7302 24.8276 9.09127C25.1615 8.66368 25.4786 8.24922 25.8042 7.8415C27.4254 5.81264 29.4366 4.26646 31.7229 3.05979C31.8571 2.98896 31.9575 2.98109 32.0958 3.05229C34.0418 4.0551 35.7682 5.34984 37.2548 6.95636C39.2698 9.13436 40.6421 11.6612 41.3418 14.5501C41.7012 16.0345 41.8792 17.5395 41.8222 19.0643C41.6824 22.7963 40.5159 26.1709 38.2509 29.1531C38.0718 29.3888 37.8803 29.6148 37.6944 29.8452C37.6776 29.8355 37.6607 29.8258 37.6438 29.816Z" fill="#FAC917"/>
<path d="M39.0941 32.1532C39.5105 31.6226 39.9122 31.1077 40.3165 30.5947C40.9813 29.7511 41.5198 28.8263 42.0396 27.8913C42.2412 27.5289 42.505 27.2523 42.8419 27.0069C45.2373 25.264 46.7823 22.9387 47.5251 20.0753C47.7762 19.1069 47.8938 18.1195 47.8882 17.1212C47.8852 16.6239 47.8249 16.127 47.7822 15.6305C47.7784 15.5885 47.7173 15.5229 47.6765 15.5173C46.8149 15.4007 45.9512 15.3689 45.0848 15.4663C44.7715 15.5016 44.4574 15.5319 44.1295 15.566C43.8564 13.8632 43.3752 12.2233 42.677 10.6243C43.057 10.5669 43.4149 10.4905 43.7762 10.4635C44.6396 10.3987 45.5041 10.3192 46.3686 10.3151C47.7106 10.3091 49.0293 10.5366 50.333 10.8454C50.8449 10.9668 51.3516 11.1084 51.8623 11.2336C51.9789 11.2621 52.0396 11.3082 52.0673 11.433C52.3203 12.5688 52.6118 13.6972 52.8307 14.8394C53.0484 15.9767 53.0353 17.1324 52.9626 18.287C52.7407 21.8013 51.5086 24.9338 49.3711 27.7122C47.4569 30.2001 45.0375 32.0359 42.1116 33.1901C41.9961 33.2359 41.8481 33.2542 41.7289 33.2269C40.936 33.0459 40.1554 32.8251 39.4516 32.3983C39.331 32.3252 39.2189 32.2387 39.0938 32.1517L39.0941 32.1532Z" fill="#FAC917"/>
<path d="M41.1859 51.0628C38.0921 54.1652 34.9989 57.267 31.9148 60.3597C28.8221 57.2647 25.7297 54.1705 22.6328 51.0714C22.9809 50.9871 23.3452 50.9001 23.7087 50.8109C25.1117 50.4662 26.4889 50.0423 27.8084 49.4487C27.9969 49.3637 28.1063 49.3959 28.2408 49.5312C29.4209 50.7176 30.6062 51.8988 31.7893 53.0822C31.8327 53.1257 31.8695 53.1759 31.8826 53.1913C32.2131 52.881 32.5335 52.5943 32.8382 52.2915C33.7687 51.3678 34.6958 50.4403 35.6169 49.5072C35.7402 49.3824 35.8342 49.3607 35.9958 49.4337C37.5775 50.1461 39.2335 50.6277 40.9244 50.9994C41.0195 51.0204 41.114 51.0459 41.1863 51.0635L41.1859 51.0628Z" fill="#FAC917"/>
<path d="M16.188 29.6249C18.6118 28.4186 23.5476 29.4023 25.4707 31.4817C25.0068 31.7564 24.5522 32.036 24.0883 32.2983C23.4393 32.6648 22.7625 32.9713 22.0422 33.1707C21.9305 33.2018 21.7881 33.2078 21.6832 33.1662C19.6499 32.3579 17.829 31.2142 16.2498 29.6939C16.2326 29.677 16.2172 29.6579 16.188 29.6249Z" fill="#FAC817"/>
</g>
<defs>
<clipPath id="clip0_1536_3618">
<rect width="64" height="64" fill="white"/>
</clipPath>
</defs>
</svg>
