<svg width="64" height="64" viewBox="0 0 64 64" fill="none" xmlns="http://www.w3.org/2000/svg">
<path d="M31.9862 0.0542114C31.9862 0.0363164 31.9862 0.0184214 31.9862 0H32.144C32.144 0.017895 32.144 0.0357901 32.144 0.0542114C32.0914 0.0542114 32.0388 0.0542114 31.9862 0.0542114Z" fill="#242424"/>
<path d="M31.9862 0.0542114C32.0388 0.0542114 32.0914 0.0542114 32.144 0.0542114C32.4206 0.160003 32.6946 0.274215 32.9744 0.370532C34.8778 1.02633 36.7833 1.67687 38.6872 2.33214C41.3195 3.23795 43.9507 4.14638 46.582 5.05429C48.5927 5.74799 50.6028 6.44326 52.6134 7.13749C55.0375 7.97487 57.4615 8.8133 59.8877 9.64437C60.0697 9.70648 60.127 9.79753 60.127 9.9849C60.1223 15.2908 60.1249 20.5961 60.1191 25.902C60.1181 26.9525 60.0933 28.0036 60.067 29.0542C60.0413 30.0773 60.0118 31.1005 59.9608 32.1226C59.9051 33.2479 59.8467 34.3737 59.7483 35.4958C59.5237 38.0548 59.2029 40.6001 58.5471 43.0912C57.9228 45.4623 57.0045 47.7045 55.6276 49.7456C54.7714 51.0145 53.7663 52.1572 52.6413 53.1882C51.0998 54.6014 49.3821 55.7799 47.5639 56.7999C45.8615 57.7546 44.1495 58.702 42.3876 59.5383C40.0094 60.6673 37.5832 61.6973 35.1686 62.7495C34.2225 63.1621 33.2532 63.5205 32.2949 63.9058C32.2397 63.9279 32.1913 63.9679 32.1398 63.9995C32.0893 63.9995 32.0393 63.9995 31.9888 63.9995C31.4487 63.7758 30.907 63.5547 30.3679 63.3284C28.6097 62.5889 26.8373 61.881 25.0985 61.0973C23.2388 60.2594 21.398 59.3768 19.5741 58.4641C17.7811 57.5667 16.0429 56.5672 14.3773 55.4467C12.84 54.4125 11.4168 53.2388 10.1672 51.8682C8.7892 50.3571 7.69314 48.6576 6.86216 46.7839C5.91179 44.6407 5.3138 42.3986 4.95354 40.0907C4.7642 38.8759 4.61483 37.6543 4.48177 36.4317C4.38184 35.5122 4.31978 34.5879 4.27139 33.6642C4.2025 32.3458 4.15779 31.0263 4.10993 29.7068C4.08469 29.0157 4.06207 28.3247 4.05944 27.6331C4.03946 21.7861 4.02526 15.9382 4.00001 10.0902C3.99896 9.81753 4.07312 9.69963 4.34082 9.60911C6.57184 8.85594 8.79656 8.08382 11.0229 7.31644C13.0835 6.60642 15.1436 5.89483 17.2042 5.18377C19.7692 4.29902 22.3347 3.41374 24.8997 2.52899C26.9682 1.81529 29.0378 1.10265 31.1058 0.386848C31.4024 0.284215 31.6932 0.165266 31.9862 0.0542114ZM48.0388 52.654C48.0872 52.624 48.1172 52.6072 48.1456 52.5877C51.8535 50.0503 54.307 46.6208 55.5014 42.2817C56.2209 39.6685 56.5848 37.0001 56.7389 34.3058C56.8835 31.7768 56.9793 29.2426 57.0019 26.7104C57.045 21.904 57.0176 17.0966 57.0297 12.2897C57.0303 12.0528 56.9545 11.9644 56.741 11.8907C50.2762 9.66121 43.8135 7.42486 37.3507 5.18903C36.1158 4.76166 34.8809 4.33323 33.6276 3.89901C32.6215 7.25959 32.5027 10.6144 33.4588 14.0523C35.4048 11.9739 37.3087 9.93964 39.2184 7.90013C39.2462 7.93329 39.2746 7.96434 39.2999 7.99855C40.651 9.80595 40.7399 12.0644 39.4708 13.9265C39.0259 14.5797 38.4557 15.1471 37.9356 15.7613C37.9072 15.7345 37.9288 15.7613 37.9561 15.7797C40.8482 17.7661 43.7414 19.7514 46.6293 21.7435C46.6998 21.7919 46.7556 21.9209 46.7508 22.0088C46.7119 22.7241 46.6293 23.4383 46.6172 24.1541C46.6093 24.6325 46.7103 25.1004 46.9402 25.5441C49.0529 29.6242 51.154 33.71 53.264 37.7917C53.3466 37.9517 53.3324 38.0475 53.2167 38.1791C52.8002 38.6533 52.3978 39.1396 51.9897 39.6207C51.3438 40.3822 50.698 41.1433 50.0411 41.9181C48.4312 41.0107 46.8302 40.1086 45.2288 39.2059C45.2193 39.217 45.2093 39.2275 45.1998 39.2385C45.964 40.467 46.7282 41.6959 47.5071 42.9475C46.4768 43.0512 45.4912 43.1354 44.5014 43.0028C44.0896 42.9475 44.0649 42.9212 43.9755 42.5312C43.9518 42.4291 43.925 42.3275 43.896 42.227C43.3375 40.2949 42.4613 38.4991 41.5346 36.7259C41.4888 36.639 41.3747 36.5701 41.2774 36.5306C39.7758 35.9153 38.2696 35.3106 36.7706 34.689C36.6055 34.6206 36.4372 34.4916 36.3373 34.3448C35.0876 32.5047 34.4686 30.4705 34.4807 28.2384C34.4486 28.3126 34.4144 28.3905 34.4055 28.4715C34.2898 29.4973 34.1315 30.5216 34.0752 31.5505C33.9858 33.1863 34.142 34.8043 34.6601 36.3722C35.329 38.3975 36.5639 39.9112 38.5788 40.7259C38.6761 40.7654 38.7639 40.8544 38.8313 40.9401C41.4368 44.2518 44.0391 47.566 46.642 50.8798C47.1064 51.4708 47.5718 52.0614 48.0388 52.6551V52.654ZM9.77165 11.0697C13.054 15.1455 16.9938 18.4161 21.2176 21.3146C22.0339 20.4693 22.827 19.6477 23.6201 18.8266C23.6706 18.8624 23.639 18.8208 23.6033 18.7829C20.758 15.8061 18.1887 12.6139 16.055 9.08226C15.9824 8.96225 15.9251 8.93594 15.7873 8.98646C15.173 9.20963 14.5524 9.417 13.9344 9.63068C12.5586 10.106 11.1833 10.5818 9.77165 11.0697ZM19.1407 24.0504C14.8932 22.3088 10.8409 20.2014 7.10146 17.4345C7.10146 17.5724 7.10146 17.6582 7.10146 17.7435C7.10304 19.8566 7.10777 21.9693 7.10094 24.0825C7.10041 24.2872 7.17352 24.362 7.35339 24.4283C10.0683 25.4299 12.8515 26.1878 15.6811 26.7804C16.2691 26.9036 16.8613 27.0052 17.4098 27.1083C17.9968 26.072 18.5637 25.0699 19.1407 24.0504ZM27.0823 5.08061C25.2332 5.72062 23.4171 6.34958 21.5826 6.98433C22.9222 10.4339 24.5962 13.676 26.5154 16.7534C27.6109 16.1597 28.688 15.5755 29.7678 14.9902C28.6007 11.7802 27.6893 8.48698 27.0823 5.08061ZM7.15511 30.15C7.25609 32.0068 7.35497 33.8216 7.45489 35.6653C8.07813 35.5795 8.64088 35.5043 9.20311 35.4248C11.1848 35.1443 13.145 34.7564 15.0878 34.2753C15.2346 34.239 15.2845 34.1774 15.3119 34.039C15.4618 33.2853 15.6138 32.5321 15.7815 31.7821C15.8778 31.3521 16.0056 30.9295 16.1234 30.4879C13.1234 30.5995 10.1624 30.4837 7.15511 30.15ZM14.9453 38.3996C12.7206 39.3317 10.5337 40.248 8.33742 41.1686C8.75606 42.9475 9.35248 44.6965 10.2455 46.3387C10.295 46.3213 10.3223 46.3176 10.3423 46.3034C11.9054 45.1992 13.4695 44.096 15.0263 42.9828C15.0957 42.9333 15.1388 42.7928 15.1325 42.6986C15.0778 41.8602 14.9926 41.0238 14.9511 40.1849C14.9216 39.5854 14.9453 38.9827 14.9453 38.3996ZM13.6525 50.7193C14.9237 51.9061 16.339 52.8888 17.8048 53.7688C17.2137 51.8572 16.622 49.9419 16.0335 48.0387C15.2603 48.9092 14.4662 49.8035 13.6525 50.7193ZM41.1275 22.5135C41.4341 23.3893 41.7123 24.2051 42.1746 24.943C42.3203 25.1757 42.5128 25.3425 42.7921 25.3899C43.3343 25.4825 43.8598 25.4046 44.4062 25.2478C44.048 24.8225 43.763 24.3536 43.3601 24.0341C42.6727 23.4899 41.9111 23.0393 41.1275 22.5135ZM51.1792 38.2306C51.1845 38.2006 51.1897 38.1712 51.195 38.1412C50.0953 37.9017 49.1933 37.318 48.3833 36.5606C48.5932 37.1459 48.8214 37.7075 49.0628 38.2633C49.0865 38.3175 49.1912 38.3706 49.2553 38.368C49.6477 38.3506 50.039 38.3175 50.4308 38.2885C50.6801 38.2701 50.9294 38.2501 51.1792 38.2306Z" fill="#081A38"/>
<path d="M48.0388 52.654C47.5713 52.0603 47.1058 51.4698 46.642 50.8787C44.0391 47.565 41.4368 44.2507 38.8313 40.9391C38.7639 40.8533 38.6766 40.7644 38.5788 40.7249C36.5639 39.9107 35.329 38.3964 34.6601 36.3711C34.142 34.8032 33.9858 33.1853 34.0752 31.5495C34.1315 30.52 34.2898 29.4963 34.4055 28.4705C34.4144 28.3899 34.4486 28.3115 34.4807 28.2373C34.4686 30.4695 35.0876 32.5037 36.3373 34.3437C36.4367 34.4906 36.6055 34.6195 36.7706 34.6879C38.2696 35.3095 39.7758 35.9143 41.2774 36.5295C41.3747 36.5695 41.4888 36.638 41.5346 36.7248C42.4613 38.498 43.338 40.2938 43.896 42.226C43.925 42.3265 43.9518 42.4281 43.9755 42.5302C44.0649 42.9202 44.0896 42.9465 44.5014 43.0018C45.4907 43.1344 46.4768 43.0502 47.5071 42.9465C46.7287 41.6949 45.964 40.4665 45.1998 39.2375C45.2093 39.2264 45.2193 39.2159 45.2288 39.2049C46.8297 40.1075 48.4312 41.0096 50.0411 41.917C50.698 41.1428 51.3438 40.3812 51.9897 39.6196C52.3978 39.1385 52.8002 38.6522 53.2167 38.178C53.3324 38.0464 53.3471 37.9506 53.264 37.7906C51.154 33.7095 49.0529 29.6231 46.9402 25.5431C46.7103 25.0994 46.6093 24.6315 46.6172 24.153C46.6293 23.4372 46.7119 22.7235 46.7508 22.0077C46.7556 21.9198 46.6993 21.7909 46.6293 21.7425C43.7409 19.7503 40.8482 17.7656 37.9561 15.7787C37.9288 15.7603 37.9072 15.7339 37.9356 15.7603C38.4557 15.1455 39.0259 14.5781 39.4708 13.9255C40.7399 12.0634 40.651 9.8049 39.2999 7.9975C39.2746 7.96382 39.2462 7.93276 39.2184 7.89908C37.3087 9.93911 35.4048 11.9728 33.4588 14.0513C32.5027 10.6133 32.621 7.25854 33.6276 3.89796C34.8809 4.33218 36.1153 4.7606 37.3507 5.18798C43.8135 7.42328 50.2762 9.65963 56.741 11.8897C56.9545 11.9634 57.0303 12.0518 57.0297 12.2886C57.0176 17.0955 57.045 21.9025 57.0019 26.7094C56.9793 29.2421 56.8835 31.7763 56.7389 34.3048C56.5848 36.999 56.2209 39.668 55.5014 42.2807C54.3064 46.6197 51.8535 50.0492 48.1456 52.5867C48.1172 52.6061 48.0872 52.623 48.0388 52.653V52.654Z" fill="#EBEBEB"/>
<path d="M9.77165 11.0697C11.1833 10.5818 12.5586 10.106 13.9344 9.63068C14.5524 9.417 15.173 9.20963 15.7873 8.98646C15.9251 8.93594 15.9824 8.96225 16.055 9.08226C18.1887 12.6139 20.758 15.8061 23.6033 18.7829C23.639 18.8208 23.6706 18.8624 23.6201 18.8266C22.827 19.6477 22.0339 20.4693 21.2176 21.3146C16.9938 18.4161 13.054 15.1455 9.77165 11.0697Z" fill="#EBEBEB"/>
<path d="M19.1407 24.0504C18.5637 25.0699 17.9968 26.072 17.4098 27.1083C16.8613 27.0052 16.2691 26.9036 15.6811 26.7804C12.8515 26.1878 10.0683 25.4299 7.35339 24.4283C7.17352 24.362 7.10041 24.2872 7.10094 24.0825C7.10777 21.9693 7.10304 19.8566 7.10146 17.7435C7.10146 17.6582 7.10146 17.5724 7.10146 17.4345C10.8409 20.2014 14.8932 22.3088 19.1407 24.0504Z" fill="#EBEBEB"/>
<path d="M27.0823 5.08061C27.6893 8.48698 28.6007 11.7802 29.7678 14.9902C28.688 15.5755 27.6109 16.1597 26.5154 16.7534C24.5962 13.676 22.9222 10.4339 21.5826 6.98433C23.4171 6.34958 25.2332 5.72062 27.0823 5.08061Z" fill="#EBEBEB"/>
<path d="M7.15511 30.15C10.1624 30.4837 13.1234 30.5995 16.1234 30.4879C16.0056 30.9295 15.8778 31.3521 15.7815 31.7821C15.6138 32.5321 15.4618 33.2853 15.3119 34.039C15.2845 34.1774 15.2346 34.239 15.0878 34.2753C13.145 34.7564 11.1848 35.1443 9.20311 35.4248C8.64088 35.5043 8.07813 35.5795 7.45489 35.6653C7.35497 33.8216 7.25609 32.0068 7.15511 30.15Z" fill="#EBEBEB"/>
<path d="M14.9453 38.3996C14.9453 38.9827 14.9216 39.5854 14.9511 40.1849C14.9926 41.0238 15.0778 41.8602 15.1325 42.6986C15.1388 42.7928 15.0957 42.9333 15.0263 42.9828C13.4695 44.096 11.9054 45.1992 10.3423 46.3034C10.3223 46.3176 10.295 46.3213 10.2455 46.3387C9.35248 44.6965 8.75606 42.9475 8.33742 41.1686C10.5337 40.248 12.7206 39.3317 14.9453 38.3996Z" fill="#EBEBEB"/>
<path d="M13.6525 50.7193C14.4662 49.8035 15.2603 48.9092 16.0335 48.0387C16.622 49.9419 17.2137 51.8572 17.8048 53.7688C16.339 52.8888 14.9237 51.9061 13.6525 50.7193Z" fill="#EBEBEB"/>
<path d="M41.1275 22.5135C41.9111 23.0393 42.6727 23.4899 43.3601 24.0341C43.763 24.3536 44.048 24.8225 44.4062 25.2478C43.8598 25.4046 43.3343 25.4825 42.7921 25.3899C42.5128 25.3425 42.3203 25.1757 42.1746 24.943C41.7123 24.2051 41.4341 23.3893 41.1275 22.5135Z" fill="#EBEBEB"/>
<path d="M51.1792 38.2306C50.9294 38.2501 50.6801 38.2701 50.4308 38.2885C50.039 38.3175 49.6477 38.3506 49.2553 38.368C49.1912 38.3706 49.0865 38.3175 49.0628 38.2633C48.8214 37.7075 48.5932 37.1459 48.3833 36.5606C49.1933 37.318 50.0953 37.9017 51.195 38.1412C51.1897 38.1712 51.1845 38.2006 51.1792 38.2306Z" fill="#E6E6E7"/>
</svg>
