<svg width="64" height="64" viewBox="0 0 64 64" fill="none" xmlns="http://www.w3.org/2000/svg">
<path d="M22.3675 44.8601C21.8421 44.8004 18.9666 44.8004 18.6338 44.6298C18.0209 43.8929 20.9316 42.5969 20.6965 41.6808C20.5924 41.2757 20.5446 40.8562 20.4446 40.4501C20.376 40.1716 20.2838 39.8944 20.163 39.6347C19.9688 39.2176 19.9934 39.0415 20.3528 38.7528C20.3623 38.7664 20.3914 38.6826 20.4006 38.6962C20.4357 38.7494 20.4098 38.5616 20.4446 38.6149C20.4879 38.5613 20.4922 38.5979 20.5065 38.5375C20.5188 38.486 20.5757 38.6739 20.5552 38.6149C20.7112 38.5077 20.7842 38.5152 20.8692 38.6705C21.0866 39.0688 21.3139 39.4634 21.5061 39.8736C21.8562 40.6207 22.4252 41.1443 23.131 41.5392C23.1481 41.5487 23.1713 41.5477 23.2235 41.5576C23.0078 41.0702 23.0358 40.5764 23.0488 40.0845C23.0498 40.0415 23.0839 39.9992 23.1027 39.9566C23.1453 39.9777 23.2017 39.9876 23.229 40.0214C23.8658 40.8061 24.6628 41.4085 25.4724 41.9969C26.0556 42.4208 26.626 42.8648 27.2925 43.158C27.3857 43.199 27.4779 43.243 27.5704 43.2856C27.5864 43.287 27.6024 43.288 27.6185 43.2894C27.6639 43.3126 27.7089 43.3362 27.7543 43.3594C27.9137 43.4502 28.0731 43.5409 28.2328 43.6317C28.3352 43.6884 28.4376 43.745 28.54 43.8017C28.5745 43.8239 28.6089 43.8457 28.6431 43.8679L28.9823 44.0423C29.0963 44.1099 29.2107 44.1778 29.3247 44.2454C29.3588 44.2676 29.3933 44.2898 29.4274 44.3123C29.4615 44.3348 29.496 44.3573 29.5301 44.3799C29.6783 44.4819 29.826 44.5836 29.9742 44.6857C30.065 44.7546 30.1554 44.8236 30.2462 44.8925C30.2581 44.9031 30.2701 44.9137 30.2817 44.9242C30.2919 44.927 30.3022 44.9283 30.3124 44.928C30.3134 44.9382 30.3127 44.9481 30.3107 44.958C30.1759 44.9693 30.0411 44.9806 29.9062 44.9922C28.7827 44.9898 27.6591 44.998 26.5355 44.9823C25.3611 44.9659 24.187 44.9273 23.0126 44.8959C22.7972 44.8901 22.5825 44.8727 22.3675 44.8604V44.8601Z" fill="#B47E2C"/>
<path d="M7.51065 18.8268C7.3342 18.6797 7.3342 18.6285 7.46253 18.4544C7.56629 18.3138 7.6755 18.1691 7.74001 18.0094C7.94275 17.5063 8.32774 17.2622 8.84208 17.1872C9.30831 17.1192 9.77521 17.0575 10.2414 16.9892C10.424 16.9626 10.5182 17.0544 10.6039 17.2035C11.1292 18.1196 11.636 19.0473 12.2022 19.9377C12.52 20.4374 12.9152 20.8947 13.3203 21.3296C13.6971 21.734 14.234 21.8914 14.7422 22.0733C14.8112 22.0978 14.9245 22.0603 14.9931 22.0149C15.2487 21.8446 15.4443 21.6152 15.5627 21.3306C15.5951 21.2528 15.5927 21.1541 15.5839 21.0671C15.5501 20.7401 15.5071 20.4142 15.4678 20.0879C15.4678 19.8364 15.4678 19.5852 15.4675 19.3336C15.5245 18.895 15.5777 18.4561 15.6402 18.0186C15.6723 17.794 15.7173 17.5711 15.7641 17.3489C15.8027 17.166 15.8661 17.1158 16.0402 17.1769C16.6767 17.4008 17.3293 17.5947 17.9358 17.8834C18.4877 18.1462 18.7205 18.6752 18.7833 19.277C18.816 19.5913 18.8689 19.9033 18.9143 20.2162C18.9573 20.5135 19.0338 20.8094 19.0403 21.1074C19.0539 21.7374 19.0321 22.3685 19.0222 22.9992C19.0215 23.0419 18.9993 23.0842 18.9874 23.1265C18.9874 22.3303 18.9874 21.5344 18.9874 20.7381C18.9543 20.8593 18.9642 20.9801 18.9645 21.1009C18.9655 21.5644 18.9611 22.0282 18.9642 22.4917C18.9655 22.7033 18.9799 22.9146 18.988 23.1262C18.9287 23.2207 18.8857 23.332 18.8072 23.4067C18.1955 23.99 17.8798 24.7068 17.8191 25.5433C17.817 25.5706 17.8041 25.5969 17.7962 25.6239C17.7914 25.5757 17.787 25.5273 17.7826 25.4792C17.7573 25.7884 17.757 26.0962 17.759 26.4041C17.759 26.4113 17.7843 26.4181 17.7979 26.4249C17.8921 26.5085 17.986 26.5921 18.0802 26.6761C18.1334 26.5758 18.2007 26.4802 18.2379 26.3744C18.4368 25.8092 18.7921 25.3628 19.2758 25.0208C19.386 24.943 19.5433 24.9341 19.673 24.8802C19.7434 24.8512 19.8048 24.7969 19.8649 24.7481C19.9481 24.6805 20.0188 24.5931 20.1103 24.5402C20.187 24.4959 20.3089 24.4457 20.3676 24.4774C20.4239 24.5078 20.4246 24.6409 20.4499 24.7286C20.4499 25.0119 20.4499 25.2952 20.4499 25.5785C20.3877 25.913 20.3321 26.2488 20.2621 26.5816C20.1502 27.1143 19.8055 27.5372 19.5737 28.0137C19.2788 28.6205 18.9877 29.2294 18.6949 29.8376C18.6836 29.8608 18.6706 29.883 18.6379 29.9431C18.4635 29.5625 18.2955 29.2171 18.146 28.8642C17.9116 28.3116 17.7245 27.7389 17.3658 27.244C17.1614 26.9621 16.9993 26.6502 16.7958 26.3676C16.602 26.0983 16.3399 25.9447 15.9876 26.0208C15.8658 26.0471 15.8006 25.9734 15.7422 25.8809C15.4412 25.4061 15.1228 24.9416 14.8385 24.4569C14.2453 23.4474 13.3511 22.7549 12.4118 22.1071C12.2439 21.991 12.0678 21.8852 11.8889 21.7873C11.7029 21.6855 11.5128 21.6593 11.3415 21.8265C11.3084 21.791 11.2756 21.7555 11.2425 21.7204L11.1725 21.6217C11.0821 21.5286 10.9913 21.4354 10.9008 21.3425C10.8667 21.3094 10.8326 21.2767 10.7984 21.2436C10.7182 21.177 10.6377 21.1105 10.5575 21.0436C10.5036 20.9965 10.4496 20.949 10.3957 20.9019C10.3128 20.8251 10.2298 20.748 10.1465 20.6712C10.0906 20.6241 10.0343 20.577 9.97829 20.5296C9.89842 20.462 9.81821 20.3944 9.73835 20.3272C9.66975 20.2712 9.60114 20.2149 9.53288 20.1589C9.44278 20.0886 9.35267 20.0183 9.26291 19.9476C9.20557 19.9029 9.14857 19.8582 9.09124 19.8135C9.00079 19.7439 8.91034 19.6742 8.82024 19.605C8.77382 19.5729 8.72706 19.5411 8.68065 19.5091C8.58986 19.4401 8.49907 19.3715 8.40828 19.3026C8.3192 19.2309 8.23012 19.1592 8.14104 19.0875C7.96152 18.9285 7.75878 18.8247 7.51236 18.8271L7.51065 18.8268Z" fill="#B47E2C"/>
<path d="M36.9005 5.68347C37.0121 5.77835 37.1295 5.86709 37.2346 5.96914C37.4694 6.19748 37.7012 6.42922 37.9282 6.66541C38.0797 6.82309 38.1766 7.00876 38.1155 7.23504C38.0548 7.45928 37.8828 7.55962 37.6664 7.59409C37.4937 7.6214 37.32 7.64256 37.1466 7.66645C37.0571 7.67874 36.9612 7.67635 36.8797 7.70843C36.7896 7.74393 36.7124 7.81185 36.6298 7.86577C36.424 7.8668 36.2186 7.86816 36.0128 7.86919C35.8988 7.86919 35.7851 7.86885 35.6711 7.8685C35.5462 7.8685 35.4209 7.8685 35.296 7.86816L34.6482 7.86987C34.5001 7.86987 34.3523 7.86953 34.2042 7.86919C34.1253 7.85792 34.0465 7.84666 33.9677 7.8354C33.8533 7.81355 33.739 7.79171 33.6246 7.76987C33.5769 7.7668 33.5287 7.76372 33.481 7.76065C33.5765 7.72789 33.67 7.68318 33.7683 7.6644C34.2503 7.57225 34.7349 7.49273 35.2165 7.39819C35.6356 7.31593 36.0503 7.21115 36.4698 7.13265C36.7353 7.08282 37.007 7.06678 37.2746 7.02616C37.3845 7.00944 37.5459 6.99818 37.5834 6.92958C37.6254 6.85278 37.5886 6.68486 37.5247 6.6067C37.2841 6.31352 37.0186 6.04116 36.7623 5.76095C36.8083 5.73535 36.8544 5.70941 36.9005 5.68381V5.68347Z" fill="#B47E2C"/>
<path d="M41.0698 9.61119C40.7378 9.62279 40.406 9.63405 40.0739 9.64566C39.9053 9.65556 39.7367 9.66545 39.5681 9.67535C39.3831 9.64259 39.1978 9.60948 39.0128 9.57672C38.9804 9.38183 38.9442 9.18729 38.9166 8.99138C38.8991 8.86885 38.9585 8.79035 39.0821 8.83745C39.7466 9.09036 40.4077 9.35214 41.0698 9.61085V9.61119Z" fill="#B47E2C"/>
<path d="M33.353 7.77467C33.3069 7.78525 33.2608 7.79583 33.2151 7.80641C33.0898 7.84156 32.9649 7.87672 32.8397 7.91187C32.7267 7.90709 32.6137 7.90231 32.5007 7.89754C32.3516 7.69753 32.5465 7.61425 32.6369 7.49548C32.7625 7.40469 32.8878 7.3139 33.0134 7.22278C33.1868 7.11049 33.3605 6.9982 33.5339 6.88625C33.6489 6.81799 33.7639 6.74973 33.8789 6.68147C34.0943 6.56815 34.3093 6.4545 34.5247 6.34119C34.7861 6.22753 35.0476 6.11354 35.309 5.99988C35.467 5.9422 35.625 5.88486 35.7831 5.82718C35.95 5.78213 36.1152 5.71148 36.2848 5.69885C36.4414 5.68725 36.6029 5.73776 36.7623 5.76097C37.0186 6.04118 37.2841 6.31354 37.5247 6.60672C37.5886 6.68454 37.6254 6.8528 37.5834 6.9296C37.5459 6.9982 37.3845 7.00946 37.2746 7.02618C37.007 7.0668 36.7353 7.08284 36.4698 7.13267C36.0503 7.21151 35.6353 7.31595 35.2165 7.39821C34.7349 7.49275 34.2506 7.57227 33.7683 7.66442C33.67 7.6832 33.5765 7.72791 33.481 7.76067C33.4383 7.76545 33.396 7.77023 33.3533 7.77467H33.353Z" fill="#0B0808"/>
<path d="M33.8218 39.8175L37.3031 45.0053L41.467 37.087L48.7027 31.4214L49.8631 35.8583L51.2966 31.4214L60.7848 22.4109L58.8735 19.8853L49.1122 11.8305L43.31 11.3527L36.5522 10.67L33.8218 11.3527C34.2086 13.1047 37.3304 17.6873 37.7127 18.1787C38.1905 18.7931 36.2109 23.2983 36.2109 23.6396C36.2109 23.9127 34.6182 29.7148 33.8218 32.5818V39.8175Z" fill="url(#paint0_linear_1728_20181)"/>
<path d="M27.6103 22.4437L19.2484 11.8633L16.4155 7.87002C16.8592 7.35806 17.7739 6.33415 17.8831 6.33415C18.0197 6.33415 21.1255 5.24197 21.5351 5.31023C21.8627 5.36484 27.2235 5.69704 29.8629 5.85632L36.3477 4.45697C36.5184 4.69588 36.8597 5.2761 36.8597 5.68567C36.8597 6.19762 36.3477 6.12936 36.0405 6.33415C35.7948 6.49797 33.9472 7.23988 32.9688 7.68357C33.9358 7.68357 35.8289 7.87002 36.3477 7.87002C36.9962 7.87002 37.0303 8.04067 37.7129 8.24545C38.259 8.40928 38.8051 9.20111 39.0099 9.57654C39.2602 9.58792 39.9655 9.60384 40.7847 9.57654C41.6038 9.54924 43.0828 9.81545 43.7199 9.95198L53.1399 14.2865C53.0944 14.571 52.8464 15.0784 52.2184 14.8326C51.4334 14.5255 49.1808 13.2626 48.2251 12.8531C47.4606 12.5254 43.6744 12.3297 41.8769 12.2728C42.4457 12.7165 43.8632 13.7405 44.9827 14.2865C46.1022 14.8326 47.6108 18.1547 48.2251 19.7474C48.373 21.2719 48.6552 24.1844 48.6006 23.6383C48.5459 23.0922 44.7779 19.4061 42.9008 17.6313L41.2966 16.7439L38.4297 14.8326L39.3512 16.7439L41.2966 19.0648L44.3001 22.0342L42.696 21.4198L41.0236 21.6246H39.7608L39.9655 26.1981L38.1225 25.7202L37.7129 27.3926L35.6992 32.0344C35.2214 33.2631 34.3955 36.2393 34.9142 38.3144C35.433 40.3895 36.8142 42.7058 37.4399 43.6046L36.8597 44.7992L30.2042 44.9698C29.4647 44.5034 27.9448 43.5432 27.781 43.434C27.6171 43.3247 26.484 42.41 25.9379 41.9664L22.5931 39.2359C22.5704 38.6785 22.5385 37.5294 22.5931 37.3929C22.6478 37.2563 24.2314 36.1073 25.0164 35.5498L26.4499 32.2392L26.7229 29.2698L28.054 24.3904L30.2042 25.7202L27.6103 22.4437Z" fill="url(#paint1_linear_1728_20181)"/>
<path d="M9.53806 22.5632C9.50393 22.4779 7.49023 18.9795 7.49023 18.8942V18.7065L8.2923 19.0307L11.3128 21.6588L11.9784 22.0513C12.6382 22.9671 13.9614 24.8261 13.975 24.9353C13.9921 25.0718 15.2379 28.3825 15.272 28.6384C15.3061 28.8944 14.3505 31.0617 14.1798 31.3518C14.0092 31.6419 12.7122 31.8296 12.5757 31.915C12.4665 31.9832 11.8134 31.6476 11.5006 31.4713C11.3527 31.3177 11.0535 30.9934 11.0398 30.9252C11.0227 30.8399 10.818 27.0343 10.7326 26.5394C10.6473 26.0445 9.57219 22.6486 9.53806 22.5632Z" fill="url(#paint2_linear_1728_20181)"/>
<path d="M2.0122 10.3274L1.6709 8.27959L5.08395 6.91437L8.22395 6.36829L10.2035 7.59698L8.63351 9.03046H7.13177L4.33307 11.2148L2.0122 10.3274Z" fill="#E9DE77" stroke="black"/>
<path d="M2.14648 13.6342V11.1768V10.8355L3.98953 11.6546L7.81214 9.4703L11.0887 6.94464H14.5017L20.5087 12.6103C23.6487 15.6593 30.1062 21.962 30.8161 22.7812C31.526 23.6003 31.1119 27.6277 30.8161 29.539C30.634 29.175 30.0925 28.01 29.3826 26.2625C28.6727 24.515 28.2677 24.6242 28.1539 24.8973V30.3581L25.4235 34.7951L22.9511 36.9334L18.3926 38.7542L15.3208 39.9829L12.3174 38.7542L11.0887 34.7951V33.2251L12.6587 33.6347L14.1604 33.2251L16.6861 33.6347L18.3926 32.2694L19.8261 29.539L20.9182 23.7368L19.8261 20.4603L18.9387 18.276L14.1604 13.6342C12.9317 13.2929 10.3651 12.6103 9.92823 12.6103C9.49136 12.6103 6.74272 14.1575 5.42301 14.9312L3.44344 14.3851L2.14648 14.9312V13.6342Z" fill="url(#paint3_linear_1728_20181)"/>
<path d="M19.012 44.7332C18.4727 44.7082 17.9338 44.6789 17.3945 44.6611C17.2262 44.6557 17.228 44.6001 17.2873 44.469C17.6771 43.6123 18.0628 42.7539 18.5737 41.959C18.7358 41.7068 18.7536 41.4563 18.5778 41.1945C18.5 41.0785 18.4744 40.928 18.3986 40.8102C18.3386 40.7163 18.2519 40.6095 18.1536 40.5754C17.7471 40.4337 17.3314 40.3174 16.8989 40.1856C16.8576 40.3423 16.8095 40.5198 16.7641 40.6979C16.6901 40.9884 16.589 41.0621 16.29 41.0317C16.2061 41.0232 16.1204 41.0085 16.0406 40.9819C15.2603 40.7242 14.4753 40.4798 13.7026 40.2006C11.8698 39.5382 10.7387 38.245 10.2913 36.349C10.152 35.7592 9.99434 35.1739 9.86635 34.5817C9.81277 34.3343 9.79946 34.0749 9.79331 33.8206C9.78376 33.3991 9.64723 33.0285 9.42778 32.6718C9.14586 32.2138 8.86872 31.7499 8.62946 31.2687C8.21444 30.4339 8.12843 29.5659 8.4728 28.6789C8.48304 28.6526 8.49362 28.6263 8.50489 28.6C8.69534 28.157 8.9148 28.0809 9.34859 28.3034C9.60935 28.4372 9.86123 28.5792 9.94895 28.8898C9.95031 28.8953 9.95304 28.9014 9.95714 28.9045C10.0462 28.9731 10.1353 29.0413 10.2244 29.1096C10.2445 29.0168 10.2821 28.9239 10.2824 28.8311C10.2868 27.4594 10.1664 26.0972 9.97898 24.7389C9.88171 24.0337 9.53051 23.461 9.10695 22.9248C8.61752 22.305 8.09942 21.7084 7.59702 21.0988C7.47073 20.9456 7.35776 20.7814 7.23762 20.6231C7.20349 20.578 7.1738 20.522 7.12806 20.494C7.03694 20.4384 6.93625 20.3985 6.83966 20.3524C6.80417 20.4671 6.71236 20.5995 6.74239 20.693C6.91646 21.2347 7.08916 21.7804 7.32193 22.2982C7.51579 22.7289 7.29769 23.1825 6.82157 23.1501C5.41199 23.0545 4.25257 22.5054 3.55597 21.2098C2.95971 20.1009 2.46994 18.9462 2.25867 17.6964C2.18734 17.2738 2.17198 16.8394 2.16242 16.41C2.15696 16.1537 2.11601 15.9598 1.87948 15.8035C1.74603 15.7154 1.64262 15.538 1.5904 15.3796C1.38015 14.7427 1.23032 14.0905 1.24431 13.414C1.25797 12.7611 1.28186 12.1085 1.30984 11.456C1.31667 11.2986 1.34739 11.1402 1.38357 10.9863C1.44807 10.7109 1.38152 10.4679 1.2153 10.2505C1.05967 10.0467 0.995162 9.82042 1.00028 9.56752C1.01086 9.05624 1.00472 8.54429 1.02997 8.03369C1.05591 7.50911 1.34978 7.15654 1.8433 7.01592C2.47608 6.83537 3.11808 6.68144 3.76348 6.55175C4.13448 6.477 4.48841 6.38895 4.82153 6.20021C5.45294 5.84218 6.13931 5.59302 6.85468 5.5292C7.69327 5.45411 8.50011 5.66777 9.22094 6.12C9.55849 6.33161 9.86294 6.36028 10.1978 6.12785C10.4708 5.93808 10.7964 5.87528 11.1193 5.86675C12.0504 5.84184 12.9818 5.83399 13.9132 5.82852C14.0818 5.8275 14.2552 5.85071 14.4187 5.89337C14.8078 5.99474 15.1576 5.83228 15.5149 5.74354C16.2918 5.55036 17.0699 5.37766 17.8747 5.36025C18.0655 5.35616 18.2246 5.28892 18.359 5.15035C18.7505 4.74727 19.1969 4.43805 19.7649 4.33463C20.1686 4.26125 20.5731 4.26398 20.9673 4.36228C21.8072 4.5715 22.6445 4.54863 23.4865 4.38822C24.6926 4.15852 25.8971 4.20016 27.0971 4.43498C27.5924 4.53191 28.0838 4.64624 28.5784 4.74693C28.6654 4.76468 28.7664 4.77731 28.8473 4.75068C29.6576 4.48208 30.5006 4.40119 31.3409 4.30323C32.3065 4.1906 33.2713 4.07115 34.2382 3.97285C34.6673 3.92916 35.1011 3.92439 35.5328 3.91346C36.2775 3.89503 36.9332 4.15204 37.4929 4.62543C38.469 5.45138 39.4223 6.30396 40.3967 7.13197C40.6135 7.31593 40.8609 7.48931 41.1244 7.58863C42.7545 8.20537 44.4006 8.78047 46.0269 9.4071C47.2884 9.89346 48.5341 10.4221 49.7765 10.9559C51.1267 11.5362 52.313 12.3693 53.3619 13.3956C55.7595 15.7421 58.1528 18.093 60.5487 20.4415C61.0279 20.9111 61.5177 21.3702 61.9901 21.8466C62.3099 22.1692 62.6085 22.5132 62.9157 22.8484C63.0058 22.947 63.0416 23.0497 62.9321 23.1617C62.7413 23.3559 62.5522 23.5521 62.3621 23.747C62.2341 23.8784 62.087 23.9586 61.8941 23.9504C61.8259 23.9477 61.7488 23.9754 61.6877 24.0102C60.504 24.6866 59.3408 25.3948 58.2453 26.2102C56.7739 27.3055 55.3967 28.5079 54.111 29.8151C53.4834 30.4533 52.9537 31.1707 52.483 31.9305C51.6519 33.2715 50.8243 34.6148 50.0014 35.9609C49.4997 36.7814 49.1143 37.66 48.7461 38.546C48.7222 38.6033 48.6956 38.66 48.6703 38.7166C48.6348 38.6573 48.5996 38.5975 48.5642 38.5381C48.6256 38.1177 48.6863 37.6968 48.7491 37.2767C48.8331 36.7163 48.8065 36.1558 48.7662 35.5934C48.7061 34.7493 48.6597 33.9042 48.6078 33.0595C48.5938 32.8336 48.5819 32.6073 48.5672 32.3452C48.4242 32.4032 48.2973 32.4448 48.1788 32.5042C47.344 32.9244 46.6194 33.4858 45.9634 34.1537C44.9514 35.1838 43.9166 36.191 43.0579 37.3586C41.9019 38.931 40.7698 40.5204 39.8844 42.2669C39.4872 43.0502 39.1213 43.8495 38.7503 44.6458C38.6636 44.8318 38.5469 44.9062 38.3404 44.8994C38.04 44.8891 37.7383 44.9151 37.4373 44.9158C37.1878 44.9164 36.9383 44.9031 36.6891 44.896C36.7734 44.6567 36.856 44.4168 36.9427 44.1785C37.0175 43.9727 37.097 43.7686 37.1745 43.5639C37.2851 43.3744 37.4226 43.1959 37.5014 42.9942C38.0288 41.644 38.6192 40.3242 39.3158 39.0521C39.5472 38.6296 39.7537 38.1931 39.9718 37.763C40.0817 37.5569 40.1916 37.3511 40.3019 37.1449C40.4073 36.9524 40.5128 36.7599 40.6182 36.5678C40.6964 36.4534 40.7749 36.3391 40.8531 36.2251C40.979 36.0661 41.1046 35.9074 41.2305 35.7483C41.3674 35.5893 41.5039 35.4302 41.6408 35.2708C41.7118 35.1927 41.7831 35.1145 41.8541 35.0364C41.9903 34.8766 42.1265 34.7172 42.2626 34.5575C42.3746 34.4203 42.4869 34.2828 42.5988 34.1455C42.6558 34.0773 42.7125 34.009 42.7695 33.9408C42.8917 33.8036 43.0142 33.666 43.1364 33.5288C43.2661 33.3943 43.3958 33.2595 43.5255 33.125C43.6074 33.0462 43.6893 32.9674 43.7709 32.8885C43.8954 32.7745 44.02 32.6605 44.1443 32.5465C44.2354 32.467 44.3265 32.3878 44.4176 32.3083C44.5542 32.195 44.6907 32.0813 44.8276 31.968C44.8716 31.9329 44.9156 31.8974 44.9596 31.8622C45.0484 31.7929 45.1371 31.7237 45.2255 31.6544C45.2839 31.6093 45.3419 31.5646 45.4003 31.5196L45.5661 31.3796C45.648 31.3243 45.73 31.269 45.8115 31.2137C45.8559 31.1817 45.9003 31.1496 45.9446 31.1178C46.0245 31.0612 46.1044 31.0045 46.1842 30.9475C46.2859 30.8762 46.388 30.8049 46.4897 30.7335C46.5566 30.6874 46.6235 30.6417 46.6904 30.5956C46.7723 30.5397 46.8539 30.4837 46.9358 30.4277C47.0344 30.3588 47.1327 30.2898 47.2314 30.2209C47.3843 30.1202 47.5372 30.0192 47.6897 29.9185C47.7577 29.8728 47.8256 29.8267 47.8935 29.7809C47.9607 29.7352 48.028 29.6891 48.0949 29.6431C48.2092 29.5635 48.3235 29.4843 48.4379 29.4048C48.5177 29.3366 48.5973 29.2686 48.6771 29.2004L48.8116 29.1055C48.8792 29.068 48.9468 29.0308 49.0143 28.9932C49.0625 28.9601 49.1106 28.927 49.1587 28.8942C49.2362 28.8478 49.3133 28.8014 49.3908 28.755C49.4358 28.7321 49.4809 28.7089 49.5256 28.686C49.6079 28.6529 49.6901 28.6198 49.7727 28.5867C49.7806 28.6413 49.7922 28.6959 49.7959 28.7509C49.8154 29.0499 49.8386 29.3489 49.8495 29.6485C49.8717 30.254 49.9028 30.8595 49.9 31.4649C49.8976 32.0083 49.8543 32.5513 49.8311 33.0947C49.828 33.1653 49.8372 33.2367 49.841 33.3076C49.857 33.3152 49.8731 33.323 49.8888 33.3305C49.9386 33.264 50.0038 33.2035 50.0348 33.1291C50.0959 32.9837 50.1379 32.8302 50.1877 32.68C50.2277 32.5882 50.2679 32.496 50.3082 32.4042C50.386 32.2561 50.4642 32.108 50.542 31.9598C50.5983 31.8571 50.6543 31.7544 50.7106 31.6516C50.8267 31.4134 50.9427 31.1755 51.0584 30.9373C51.1144 30.812 51.1704 30.6864 51.2263 30.5612C51.3547 30.312 51.4826 30.0629 51.611 29.8137C51.7011 29.654 51.7912 29.4942 51.8816 29.3349C51.9509 29.2212 52.0202 29.1079 52.0895 28.9942C52.1461 28.9035 52.2025 28.8127 52.2591 28.7215C52.3977 28.5058 52.5363 28.2901 52.6752 28.0744C52.7397 27.971 52.8045 27.8676 52.869 27.7645C52.9264 27.6737 52.9837 27.5829 53.0407 27.4922C53.1301 27.3553 53.2195 27.2184 53.3093 27.0812C53.4359 26.8997 53.5622 26.7181 53.6888 26.5365C53.768 26.4341 53.8469 26.3314 53.9261 26.229C53.981 26.1604 54.0363 26.0914 54.0912 26.0228C54.1718 25.9321 54.2527 25.8416 54.3332 25.7508C54.479 25.6143 54.6247 25.4781 54.7704 25.3416C54.9121 25.2099 55.0534 25.0784 55.195 24.9467L55.5432 24.6644C55.6336 24.5846 55.724 24.5047 55.8145 24.4249C55.9602 24.2989 56.1063 24.173 56.252 24.047C56.3449 23.9682 56.4377 23.8893 56.5305 23.8105C56.6671 23.6972 56.8036 23.5835 56.9405 23.4702C57.0968 23.3436 57.2531 23.217 57.4094 23.0903C57.5108 23.0105 57.6125 22.9306 57.7139 22.8508C57.8627 22.7371 58.0111 22.6238 58.1599 22.5101C58.2517 22.4535 58.3432 22.3968 58.435 22.3405C58.505 22.3071 58.575 22.2736 58.6449 22.2398C58.9385 22.1654 59.174 22.0026 59.377 21.7801C59.4617 21.6872 59.449 21.6203 59.3709 21.5442C59.1272 21.3081 58.8832 21.0726 58.6391 20.8367C58.5705 20.7688 58.5016 20.7005 58.433 20.6326C58.318 20.5193 58.2029 20.4063 58.0876 20.293C57.933 20.1432 57.7787 19.9933 57.6241 19.8435C57.4162 19.6503 57.208 19.4572 57.0002 19.264C56.8326 19.1043 56.6654 18.9445 56.4978 18.7848C56.3947 18.6943 56.2913 18.6042 56.1882 18.5138C56.0954 18.435 56.0025 18.3561 55.9097 18.2773C55.7967 18.1858 55.6834 18.0947 55.5705 18.0032C55.4336 17.9083 55.2967 17.8134 55.1595 17.7182C55.0578 17.6312 54.9558 17.5441 54.8541 17.4571C54.8213 17.4332 54.7885 17.4097 54.7561 17.3858C54.6469 17.308 54.5377 17.2305 54.4285 17.1527C54.2977 17.0605 54.167 16.9684 54.036 16.8766C54.0022 16.8537 53.9684 16.8305 53.9346 16.8076C53.8325 16.7394 53.7305 16.6707 53.6284 16.6025C53.5452 16.5472 53.4615 16.4922 53.3783 16.437C53.2684 16.367 53.1585 16.297 53.0486 16.2271C52.9933 16.1922 52.938 16.1578 52.883 16.123C52.8264 16.0888 52.7697 16.0544 52.7131 16.0202C52.5598 15.9318 52.4062 15.8434 52.253 15.7547C52.2096 15.7308 52.1666 15.7069 52.1233 15.6827C52.0397 15.6386 51.956 15.5946 51.8724 15.5506C51.7738 15.4926 51.6751 15.4342 51.5765 15.3762C51.4751 15.3188 51.3738 15.2615 51.2721 15.2042C51.2038 15.1588 51.1352 15.1134 51.0669 15.068C50.984 14.94 51.0587 14.8949 51.1714 14.87C51.3123 14.8717 51.454 14.8833 51.5936 14.8721C51.7591 14.8584 51.9233 14.8246 52.0881 14.7994C52.3332 14.7861 52.5786 14.7728 52.8236 14.7591C52.8298 14.7383 52.8359 14.7175 52.8417 14.6966C51.2973 13.7495 49.6556 12.9925 47.9962 12.2703C47.758 12.1676 47.5201 12.0652 47.2819 11.9625C47.0368 11.8611 46.7921 11.7601 46.547 11.6587C46.4126 11.602 46.2781 11.5454 46.144 11.4887C46.0873 11.4659 46.0307 11.443 45.9743 11.4201C45.7409 11.3273 45.5074 11.2348 45.274 11.142C45.1576 11.0972 45.0415 11.0525 44.9252 11.0075C44.8354 10.9727 44.7456 10.9379 44.6559 10.903C44.4146 10.8116 44.1729 10.7198 43.9316 10.6283C43.7504 10.5614 43.5692 10.4945 43.3883 10.4276L42.9193 10.2515C42.7108 10.174 42.5022 10.0969 42.2937 10.0194C42.0995 9.96343 41.9056 9.90746 41.7114 9.85182C41.5189 9.7822 41.3261 9.71291 41.1336 9.64329C41.1124 9.63271 41.0909 9.62247 41.0698 9.61189C40.4077 9.35318 39.7465 9.0914 39.082 8.83849C38.9585 8.79139 38.8991 8.86955 38.9165 8.99242C38.9445 9.18799 38.9803 9.38253 39.0127 9.57776C39.0196 10.0191 39.2141 10.4085 39.354 10.8133C39.4513 11.2225 39.5489 11.6317 39.6462 12.0413C39.6363 12.0474 39.6268 12.0532 39.6169 12.0594C39.5558 12.0041 39.4947 11.9491 39.4336 11.8938C39.3175 11.6447 39.2015 11.3959 39.0858 11.1467C38.9387 10.873 38.7916 10.5996 38.6448 10.3259C38.5636 10.1901 38.4824 10.0546 38.4011 9.91872C38.296 9.76001 38.1912 9.60165 38.0861 9.44294C37.9431 9.25932 37.7997 9.0757 37.6567 8.89207C37.5455 8.75555 37.4342 8.61869 37.3229 8.48217C37.1253 8.30128 36.9277 8.12038 36.7301 7.93915C36.6966 7.91492 36.6632 7.89103 36.6294 7.8668C36.712 7.81287 36.7895 7.74495 36.8792 7.70945C36.9612 7.67703 37.0567 7.67976 37.1462 7.66747C37.3195 7.64358 37.4933 7.62242 37.666 7.59512C37.8823 7.56099 38.0547 7.4603 38.1151 7.23606C38.1762 7.00978 38.0793 6.82411 37.9277 6.66643C37.7008 6.43024 37.469 6.1985 37.2342 5.97017C37.1294 5.86812 37.012 5.77938 36.9001 5.68449C36.7666 5.52579 36.6345 5.36606 36.4994 5.20906C36.3444 5.02953 36.155 4.93158 35.9103 4.9756C35.6605 5.02134 35.4106 5.06673 35.1611 5.11247C34.9335 5.16878 34.7058 5.2251 34.4782 5.28141C34.2847 5.32681 34.0908 5.3722 33.8973 5.41759C33.7945 5.44046 33.6918 5.46333 33.5894 5.4862C33.4293 5.52647 33.2696 5.56674 33.1095 5.60736C33.0307 5.62988 32.9515 5.65241 32.8727 5.67494C32.6556 5.74388 32.4382 5.81282 32.2211 5.88211C32.1532 5.90532 32.0853 5.92819 32.0174 5.95139C31.8819 5.99952 31.7464 6.0473 31.6109 6.09542C31.4853 6.13979 31.3597 6.18416 31.2341 6.22819C31.0627 6.28382 30.8917 6.3398 30.7204 6.39543C30.6194 6.46676 30.5184 6.53776 30.4173 6.60909C30.3713 6.64185 30.3248 6.67428 30.2788 6.70704C30.2453 6.71967 30.2115 6.7323 30.1781 6.74493C29.9859 6.71046 29.7934 6.67564 29.6013 6.64117C29.5706 6.6282 29.5395 6.61489 29.5088 6.60192C29.4589 6.5811 29.4091 6.56062 29.3596 6.5398C29.1938 6.48144 29.0282 6.42308 28.8623 6.36437C28.8265 6.35345 28.791 6.34253 28.7552 6.33161C28.6736 6.30942 28.592 6.28724 28.5105 6.26505C28.3381 6.23161 28.1661 6.19816 27.9937 6.16437C27.8241 6.15174 27.6548 6.13911 27.4852 6.12682C27.4548 6.10771 27.4251 6.07358 27.3941 6.07222C26.7227 6.04355 26.0544 6.06232 25.3978 6.22546C25.2513 6.26266 25.1046 6.29987 24.9582 6.33673C24.696 6.40328 24.4339 6.46984 24.1718 6.53639C24.1605 6.53776 24.1496 6.53912 24.1383 6.54049C23.8196 6.57803 23.5342 6.47359 23.2574 6.33229C23.1192 6.26471 22.9806 6.19713 22.8424 6.1299C22.6496 6.03877 22.4571 5.9473 22.2642 5.85617C22.21 5.83228 22.1557 5.80839 22.1011 5.7845C22.0325 5.76197 21.9642 5.7391 21.8956 5.71658C21.5014 5.58517 21.1454 5.65924 20.8243 5.9176C20.6768 5.97563 20.5297 6.03331 20.3823 6.09133C20.2219 6.18041 20.0618 6.26915 19.9014 6.35823C19.8004 6.44082 19.6997 6.52376 19.5987 6.60636C19.555 6.65073 19.5021 6.68929 19.469 6.74049C19.3038 6.99681 19.1379 7.25313 18.9846 7.51662C18.9184 7.63027 18.843 7.69648 18.7126 7.65485C18.5904 7.6156 18.5942 7.52378 18.628 7.419C18.6427 7.37395 18.644 7.2818 18.6321 7.27839C18.573 7.26098 18.5068 7.26098 18.4444 7.26644C18.4099 7.26951 18.3792 7.30398 18.344 7.30979C17.9577 7.37532 17.6935 7.6057 17.5037 7.93335C17.4559 8.01595 17.4723 8.08045 17.5566 8.1511C17.7109 8.2808 17.8508 8.42892 17.9877 8.57807C18.229 8.84088 18.4631 9.11017 18.7003 9.37639C18.7696 9.4542 18.8201 9.46035 18.9021 9.3699C19.1635 9.08082 19.4393 8.8047 19.7096 8.52347C19.801 8.46681 19.8922 8.41015 19.9836 8.35384C20.1519 8.28421 20.3202 8.21424 20.4881 8.14462C20.7646 8.04325 21.0414 7.94222 21.3178 7.84086C21.6321 7.78181 21.9461 7.72277 22.2605 7.66372C22.4984 7.74427 22.7366 7.82516 22.9745 7.9057C23.0243 7.95144 23.0769 7.99444 23.123 8.04359C23.2503 8.17943 23.3858 8.31015 23.496 8.45896C23.5469 8.5279 23.5465 8.63541 23.5694 8.72518C23.4882 8.70982 23.4022 8.70709 23.3264 8.67739C22.868 8.49719 22.4018 8.37193 21.9018 8.418C21.6223 8.44394 21.3584 8.50333 21.1212 8.70231C21.1748 8.72484 21.2086 8.7419 21.2441 8.75351C21.6949 8.90197 22.0639 9.16717 22.3455 9.5467C22.5752 9.8566 22.8001 10.1706 23.01 10.4942C23.1544 10.717 23.2786 10.9546 23.3936 11.1945C23.4639 11.3409 23.4004 11.4228 23.237 11.4256C23.1353 11.4273 23.0332 11.4164 22.9315 11.4061C22.5148 11.3638 22.098 11.3198 21.6813 11.2761C21.6277 11.2658 21.5741 11.2553 21.5202 11.245C21.2455 11.2382 20.968 11.2061 20.6963 11.2324C20.4748 11.2539 20.3553 11.5327 20.5342 11.7095C20.6492 11.8232 20.7304 11.9706 20.827 12.1031C21.0417 12.4355 21.2564 12.7676 21.4711 13.1C21.61 13.3574 21.7489 13.6147 21.8881 13.8717C21.854 13.9294 21.8202 13.9871 21.7861 14.0448C21.5997 13.8864 21.4134 13.7277 21.227 13.5693C21.2007 13.5441 21.1748 13.5188 21.1485 13.4932C21.0222 13.3802 20.896 13.2673 20.7697 13.1543C20.6198 13.0188 20.4697 12.8833 20.3198 12.7478C20.1703 12.6123 20.0205 12.4765 19.871 12.341C19.6778 12.1703 19.4843 11.9997 19.2911 11.829C19.13 11.6816 18.9689 11.5345 18.8079 11.387C18.729 11.3184 18.6505 11.2498 18.5717 11.1812C18.4502 11.0774 18.3287 10.9734 18.2075 10.8696C18.1396 10.8126 18.0717 10.7556 18.0041 10.6986C17.8672 10.5853 17.7304 10.4716 17.5938 10.3583C17.4546 10.246 17.315 10.1334 17.1757 10.0211C16.9522 9.84841 16.729 9.67571 16.5054 9.50335C16.3692 9.40096 16.233 9.29857 16.0969 9.19652C16.0208 9.14157 15.945 9.08662 15.8689 9.03167C15.7597 8.95146 15.6508 8.8716 15.5416 8.79139C15.3945 8.68832 15.2477 8.58524 15.1006 8.48217C15.0337 8.43609 14.9668 8.39036 14.8999 8.34428C14.8177 8.28865 14.7357 8.23302 14.6535 8.17738C14.4938 8.07499 14.334 7.97294 14.1743 7.87055C14.0525 7.80058 13.9303 7.73062 13.8084 7.66065L13.332 7.42208L13.093 7.31934C13.0019 7.28555 12.9108 7.25142 12.8197 7.21763C12.7023 7.18589 12.5852 7.15415 12.4678 7.12207C12.262 7.11934 12.0562 7.11695 11.8507 7.11422C11.8289 7.11695 11.807 7.12002 11.7855 7.12275C11.6493 7.17941 11.5128 7.23606 11.3766 7.29272C11.2292 7.41935 11.0817 7.54563 10.9343 7.67225C10.809 7.77464 10.6841 7.87703 10.5589 7.97943C10.5012 8.02209 10.4435 8.06441 10.3858 8.10707C10.1981 8.15315 10.0879 8.00195 9.94451 7.93369C9.91311 7.90161 9.88444 7.86611 9.84963 7.83813C9.05575 7.20193 8.12604 6.8893 7.14172 6.71592C6.84956 6.66438 6.56286 6.7166 6.30518 6.87769C6.04135 7.04289 5.77889 7.20944 5.51642 7.37634C4.76931 7.85178 4.29182 8.51254 4.14506 9.39413C4.11537 9.57195 4.05223 9.7153 3.87338 9.76786C3.69283 9.82111 3.53822 9.75728 3.41501 9.61701C3.28771 9.47161 3.16176 9.32485 3.03377 9.18048C2.81636 8.93542 2.59759 8.69173 2.34605 8.41015C2.26686 8.66681 2.18836 8.88286 2.13512 9.10505C2.08392 9.31871 2.14809 9.51086 2.3143 9.66069C2.47881 9.80916 2.63854 9.96445 2.81363 10.0996C3.08702 10.3109 3.36279 10.5218 3.65461 10.7061C3.88567 10.8522 3.97885 10.8037 4.12868 10.5822C4.31947 10.301 4.50719 10.0136 4.72972 9.75831C5.56011 8.80572 6.64273 8.29206 7.85163 8.00775C8.23526 7.91765 8.53083 8.04735 8.75711 8.35725C8.86087 8.49923 8.95916 8.64531 9.05985 8.78934C9.13289 8.91562 9.21139 9.03884 9.2759 9.16921C9.30252 9.2228 9.29876 9.29174 9.30866 9.35352C9.23767 9.35898 9.16668 9.36444 9.09569 9.37024C8.99125 9.33611 8.88647 9.30198 8.78203 9.26785C8.7025 9.27058 8.62298 9.27331 8.54346 9.2757C8.38441 9.32041 8.22536 9.36512 8.06631 9.40983C7.92979 9.47775 7.79327 9.54533 7.65675 9.61325C7.50794 9.69073 7.35913 9.7682 7.21066 9.84602C7.06083 9.97128 6.91134 10.0969 6.7615 10.2221C6.58095 10.4488 6.4004 10.6754 6.21985 10.902C6.03726 11.2075 5.85466 11.5133 5.67172 11.8191C5.6055 11.9594 5.53895 12.1 5.47274 12.2403C5.32871 12.5102 5.12461 12.6887 4.79866 12.6799C4.69661 12.6563 4.59422 12.6328 4.49217 12.6096C4.40138 12.5751 4.3106 12.5406 4.21981 12.5061C4.06042 12.427 3.90137 12.3478 3.74198 12.2686C3.53856 12.143 3.33481 12.0171 3.13139 11.8915C3.03753 11.8188 2.94845 11.7382 2.8481 11.6754C2.70442 11.5853 2.66107 11.6051 2.64776 11.7758C2.61431 12.2041 2.57028 12.6331 2.56892 13.0618C2.56755 13.4632 2.70134 13.8366 2.9208 14.1898C3.01739 13.9949 3.10477 13.8181 3.19248 13.6413C3.25972 13.6854 3.33617 13.7198 3.39249 13.7751C3.50102 13.8813 3.59829 13.9994 3.7 14.1123C3.82526 14.1919 3.95018 14.2714 4.07544 14.3509C4.2908 14.3751 4.5065 14.3994 4.72187 14.4236C5.03348 14.5758 5.29765 14.4922 5.57922 14.1519L5.67069 14.0454C5.90176 13.842 6.13282 13.6386 6.36354 13.4352C6.52225 13.3324 6.68096 13.2301 6.83966 13.1273C7.07073 13.015 7.30145 12.9027 7.53251 12.7905C7.70009 12.7321 7.86767 12.6737 8.03525 12.6157C8.07211 12.6051 8.10897 12.5949 8.14584 12.5843C8.33424 12.5468 8.52298 12.5096 8.71138 12.4713C9.11207 12.3904 9.53358 12.401 9.90731 12.2014C9.92335 12.198 9.93939 12.1949 9.95543 12.1915C9.93086 12.1751 9.90663 12.1444 9.88205 12.144C9.56123 12.1399 9.24074 12.1403 8.91991 12.1392C8.76837 12.1266 8.61684 12.1157 8.46564 12.1007C8.43014 12.0969 8.39601 12.0788 8.3612 12.0672C8.38338 12.0331 8.39806 11.9819 8.42946 11.9679C8.50045 11.9362 8.57963 11.9229 8.65574 11.902C8.72059 11.8788 8.78578 11.856 8.85063 11.8328C8.88647 11.844 8.92401 11.8693 8.95746 11.8645C9.15439 11.8362 9.34996 11.8007 9.54621 11.7676C9.67829 11.7416 9.81072 11.7153 9.9428 11.6894C10.0111 11.6785 10.0793 11.6672 10.1476 11.6563C10.2387 11.645 10.3302 11.6338 10.4213 11.6225C10.4568 11.6355 10.4923 11.659 10.5278 11.6594C10.8445 11.6614 11.1616 11.6594 11.4787 11.6587C11.8084 11.7382 12.1384 11.8181 12.4681 11.8976C12.5364 11.9201 12.6046 11.943 12.6729 11.9655C12.7746 12.0014 12.876 12.0372 12.9777 12.073C13.0674 12.1099 13.1572 12.1464 13.247 12.1833C13.4077 12.2481 13.5688 12.313 13.7296 12.3782C13.8538 12.4369 13.9777 12.4959 14.1019 12.5546C14.2733 12.6454 14.445 12.7362 14.6163 12.8266C14.6955 12.8741 14.7747 12.9215 14.8538 12.9686C14.9224 13.0113 14.991 13.0539 15.0596 13.0963C15.2074 13.1993 15.3549 13.3028 15.5027 13.4058C15.6064 13.4806 15.7102 13.5557 15.8136 13.6304C15.904 13.6891 15.9948 13.7478 16.0853 13.8065C16.1982 13.8765 16.3115 13.9465 16.4245 14.0161C16.6515 14.1765 16.8788 14.3366 17.1058 14.497C17.2191 14.5888 17.3324 14.6806 17.4457 14.7728C17.572 14.8953 17.6983 15.0182 17.8246 15.1407C17.9256 15.2567 18.0266 15.3728 18.128 15.4888C18.2549 15.6663 18.3819 15.8441 18.5089 16.0216C18.5758 16.1161 18.6423 16.211 18.7092 16.3056C18.8795 16.5561 19.0502 16.8069 19.2205 17.0574C19.4253 17.3875 19.6301 17.7175 19.8348 18.0476C19.9833 18.2623 20.1321 18.4766 20.2806 18.6913C20.4164 18.8746 20.5523 19.0578 20.6878 19.2408C20.813 19.4111 20.9386 19.5811 21.0639 19.7514C21.1205 19.8312 21.1772 19.9111 21.2338 19.991C21.3369 20.1145 21.4403 20.2381 21.5434 20.3616C21.7328 20.579 21.9223 20.7964 22.112 21.0135C22.2185 21.2432 22.3438 21.4668 22.4267 21.7047C22.5356 22.0173 22.6107 22.3412 22.7004 22.6606C22.7567 22.9781 22.8131 23.2955 22.8694 23.6132C22.8769 23.7013 22.8844 23.7893 22.8922 23.8774C22.9192 24.3876 22.9462 24.8979 22.9731 25.4081C22.9509 25.4972 22.9288 25.5867 22.9066 25.6757C22.8724 25.7447 22.8387 25.8133 22.8045 25.8822C22.6916 26.0317 22.5786 26.1809 22.4656 26.3304C22.3499 26.4853 22.2346 26.6403 22.1188 26.7952L21.7448 27.3116C21.598 27.5188 21.4516 27.7259 21.3048 27.9331C21.212 28.0666 21.1195 28.2 21.0267 28.3331C20.9014 28.5147 20.7762 28.6966 20.6509 28.8782C20.5161 29.0741 20.3813 29.27 20.2465 29.4659C20.0973 29.6799 19.9482 29.8943 19.799 30.1083C19.7601 30.1758 19.7038 30.2386 19.6847 30.3113C19.5065 30.9854 19.3345 31.6608 19.1608 32.3363C19.0662 32.9957 18.9597 33.6534 18.8826 34.3145C18.8474 34.6183 18.843 34.9224 18.6734 35.191C18.5846 35.2879 18.4959 35.3845 18.4072 35.4814C18.259 35.5603 18.1109 35.6388 17.9628 35.7176C17.7355 35.7531 17.5085 35.7882 17.2812 35.8237C17.2013 35.8459 17.1218 35.8678 17.0419 35.89C16.8481 35.9821 16.6546 36.0739 16.4607 36.1661C16.3812 36.2002 16.3013 36.2347 16.2218 36.2688C16.0276 36.3313 15.8334 36.3937 15.6392 36.4562C15.4597 36.4698 15.2801 36.4831 15.1006 36.4968C15.0968 36.4289 15.0931 36.361 15.0897 36.2934C15.1842 36.207 15.2788 36.1207 15.3733 36.0343C15.5498 35.8708 15.7259 35.7074 15.9023 35.5435C15.9464 35.4992 15.9904 35.4548 16.0341 35.4104C16.3484 35.0927 16.6628 34.7749 16.9768 34.4572C17.0331 34.4019 17.089 34.3462 17.1454 34.2909C17.0624 34.2865 16.9788 34.2729 16.8972 34.2807C16.8518 34.2851 16.8095 34.3244 16.7658 34.3479C16.5191 34.4135 16.275 34.5118 16.0132 34.4183C15.8818 34.3937 15.7504 34.3691 15.619 34.3445C15.4586 34.2882 15.2979 34.2322 15.1375 34.1759C15.046 34.1305 14.9542 34.0848 14.8627 34.0394L14.6651 33.9346C14.4903 33.8561 14.3156 33.778 14.1412 33.6995C14.0869 33.6875 14.0327 33.6756 13.9784 33.6636C13.7473 33.5916 13.534 33.6623 13.3217 33.7435C13.2306 33.7882 13.1398 33.8326 13.0487 33.8773C12.9685 33.9196 12.8886 33.9616 12.8084 34.0039C12.7063 34.0619 12.6043 34.12 12.5022 34.178C12.4197 34.222 12.3371 34.266 12.2545 34.3101C12.2377 34.3046 12.2214 34.2991 12.2046 34.2937C12.2347 34.1217 12.2647 33.9496 12.2947 33.7773C12.3845 33.6551 12.4848 33.539 12.5623 33.4097C12.7961 33.0192 13.1272 32.8168 13.5893 32.8424C14.0344 32.867 14.4647 32.9459 14.874 33.1343C15.2272 33.2971 15.6054 33.4428 15.9907 33.3315C16.7658 33.1073 17.402 32.6718 17.8177 31.9578C17.8515 31.8994 17.8734 31.8339 17.9 31.7714C18.017 31.4998 18.0024 31.2376 17.8761 30.9673C17.5389 30.2451 17.2047 29.5212 16.8873 28.7905C16.6836 28.3215 16.5109 27.8386 16.3064 27.316C15.5678 28.8151 15.3965 30.3581 15.517 31.9718C15.4146 31.9383 15.3381 31.9196 15.2668 31.8885C14.9999 31.7731 14.7214 31.7496 14.4344 31.7622C14.0897 31.7772 13.7436 31.795 13.3992 31.7837C13.076 31.7731 12.7579 31.7117 12.4688 31.5499C12.4265 31.5052 12.3698 31.467 12.3456 31.4137C12.3231 31.3643 12.335 31.2994 12.3319 31.241C12.434 31.2434 12.5364 31.2458 12.6384 31.2482L12.6364 31.2472L12.9453 31.241C12.9569 31.2404 12.9685 31.2393 12.9804 31.2387C13.0599 31.2161 13.1395 31.1936 13.2193 31.1711C13.2989 31.1363 13.3784 31.1015 13.4579 31.0666L13.5965 30.9789C13.6753 30.9072 13.7538 30.8359 13.8327 30.7642C13.8569 30.7233 13.8815 30.6823 13.9057 30.6417C14.0023 30.37 14.1057 30.1007 14.1944 29.8267C14.3907 29.2198 14.4436 28.6123 14.2292 27.9922C14.162 27.7983 14.1685 27.5795 14.135 27.3734C14.0839 27.0567 14.0279 26.7406 13.974 26.4242C13.9279 26.2894 13.8818 26.1546 13.8357 26.0198C13.7787 25.8832 13.7221 25.7467 13.6651 25.6102C13.6074 25.4754 13.5501 25.3409 13.4924 25.2061C13.4149 25.0535 13.3378 24.9013 13.2603 24.7487C13.1804 24.5904 13.1006 24.4324 13.0207 24.274C12.9975 24.2293 12.9739 24.1846 12.9507 24.1399C12.8924 24.0286 12.8343 23.9177 12.776 23.8064C12.7309 23.7255 12.6862 23.6446 12.6412 23.5641C12.5954 23.4852 12.5497 23.4061 12.504 23.3272C12.4473 23.2357 12.3906 23.1443 12.3336 23.0531C12.3111 23.0187 12.2883 22.9845 12.2657 22.9501L12.1275 22.7497C12.0937 22.7037 12.0596 22.6579 12.0258 22.6118C11.9807 22.5542 11.9357 22.4968 11.8903 22.4391C11.8439 22.3838 11.7978 22.3286 11.7514 22.2733C11.7073 22.2245 11.6633 22.1757 11.6193 22.1272C11.5841 22.0951 11.549 22.063 11.5138 22.0313C11.4695 21.9832 11.4254 21.935 11.3811 21.8872C11.3678 21.8675 11.3544 21.8477 11.3415 21.8279C11.5128 21.661 11.7029 21.6869 11.8889 21.7886C12.0681 21.8866 12.2439 21.9924 12.4118 22.1084C13.3511 22.7562 14.2453 23.4487 14.8385 24.4583C15.1231 24.9426 15.4412 25.4071 15.7423 25.8822C15.801 25.9747 15.8658 26.0484 15.9877 26.0222C16.3395 25.946 16.602 26.0996 16.7959 26.3689C16.9993 26.6515 17.1617 26.9638 17.3658 27.2454C17.7246 27.7403 17.9116 28.313 18.1461 28.8656C18.2959 29.2185 18.4638 29.5639 18.6379 29.9444C18.6706 29.884 18.6836 29.8618 18.6949 29.839C18.9877 29.2311 19.2789 28.6222 19.5737 28.015C19.8051 27.5386 20.1502 27.1157 20.2622 26.5829C20.3321 26.2501 20.3878 25.9143 20.4499 25.5798C20.4499 25.2965 20.4499 25.0133 20.4499 24.73C20.4246 24.6419 20.4239 24.5092 20.3676 24.4788C20.3089 24.447 20.1871 24.4972 20.1103 24.5416C20.0191 24.5945 19.9485 24.6819 19.8649 24.7494C19.8045 24.7982 19.743 24.8525 19.6731 24.8815C19.543 24.9354 19.3857 24.944 19.2758 25.0221C18.7922 25.3641 18.4369 25.8105 18.2379 26.3757C18.2007 26.4816 18.1334 26.5771 18.0802 26.6775C17.986 26.5938 17.8921 26.5102 17.7979 26.4263C17.7976 26.1594 17.7969 25.8921 17.7966 25.6252C17.8044 25.5983 17.8174 25.572 17.8194 25.5447C17.8805 24.7081 18.1959 23.9914 18.8075 23.4081C18.8857 23.3334 18.929 23.2221 18.9884 23.1276H18.9881C19.0003 23.0852 19.0222 23.0429 19.0229 23.0006C19.0328 22.3699 19.0543 21.7391 19.041 21.1087C19.0345 20.8111 18.9584 20.5149 18.915 20.2176C18.8696 19.9046 18.8171 19.5927 18.784 19.2783C18.7212 18.6766 18.4884 18.1476 17.9365 17.8848C17.33 17.596 16.6774 17.4022 16.0409 17.1783C15.8672 17.1172 15.8037 17.1677 15.7648 17.3503C15.718 17.5725 15.673 17.7953 15.6409 18.0199C15.5781 18.4575 15.5252 18.8967 15.4682 19.335C15.4682 19.5865 15.4682 19.8377 15.4685 20.0893C15.5081 20.4155 15.5511 20.7415 15.5846 21.0685C15.5934 21.1552 15.5958 21.2541 15.5634 21.3319C15.445 21.6166 15.2494 21.846 14.9938 22.0163C14.9255 22.0617 14.8122 22.0995 14.7429 22.0746C14.2351 21.8927 13.6978 21.7354 13.321 21.3309C12.9159 20.8961 12.5207 20.4388 12.2029 19.9391C11.6367 19.049 11.1295 18.121 10.6046 17.2049C10.5189 17.0557 10.4247 16.9639 10.2421 16.9906C9.77591 17.0585 9.309 17.1202 8.84278 17.1885C8.32809 17.2636 7.94344 17.5076 7.74071 18.0107C7.6762 18.1708 7.56698 18.3152 7.46323 18.4558C7.33455 18.6298 7.3349 18.681 7.51135 18.8281C7.55094 18.893 7.58746 18.9599 7.63115 19.022C7.77142 19.2206 7.91477 19.4172 8.05675 19.6145C8.17177 19.7503 8.28714 19.8862 8.40216 20.022C8.4827 20.1125 8.56291 20.2033 8.64346 20.2937C8.67656 20.3285 8.70933 20.363 8.74244 20.3978L8.9834 20.6698C9.052 20.7493 9.12026 20.8289 9.18886 20.9084C9.26804 20.9995 9.34723 21.0906 9.42641 21.1821C9.51856 21.2951 9.61106 21.4084 9.70321 21.5214C9.76771 21.6026 9.83256 21.6842 9.89707 21.7654C9.96635 21.8559 10.0356 21.9466 10.1049 22.0371C10.1732 22.1282 10.2414 22.219 10.3097 22.3101C10.367 22.3897 10.424 22.4688 10.4814 22.5484C10.5739 22.6955 10.6667 22.8426 10.7592 22.9897C10.8281 23.1607 10.8968 23.3317 10.9657 23.5026C10.9753 23.5497 10.9869 23.5968 10.9937 23.6443C11.0186 23.8143 11.0421 23.9846 11.066 24.1549C11.1111 24.4283 11.1561 24.7016 11.2012 24.975C11.2343 25.1785 11.2677 25.3819 11.3009 25.5853C11.3507 25.8566 11.4002 26.128 11.45 26.3996C11.4841 26.5703 11.5186 26.7406 11.5527 26.9113C11.5978 27.173 11.6428 27.4348 11.6879 27.6966C11.6879 28.0615 11.6879 28.4263 11.6882 28.7912C11.505 29.5669 11.4773 30.3499 11.5777 31.1397C11.5886 31.225 11.5804 31.3127 11.5811 31.3994C11.52 31.3718 11.4548 31.3509 11.3981 31.3161C10.7264 30.9021 10.1298 30.3973 9.59638 29.8168C9.55611 29.7731 9.51617 29.7294 9.46429 29.6728C9.33187 29.9857 9.31617 30.282 9.38409 30.5796C9.51276 31.1455 9.79638 31.6421 10.1087 32.1223C10.4322 32.6203 10.8435 33.0291 11.3616 33.3278C11.4316 33.3681 11.4817 33.4421 11.5411 33.5005C11.4954 33.609 11.4497 33.7176 11.4036 33.8261C11.3503 34.0247 11.2974 34.2234 11.2442 34.422C11.2439 34.6599 11.2432 34.8978 11.2428 35.1357C11.2869 35.3309 11.3305 35.5258 11.3746 35.721C11.5435 36.0848 11.7125 36.4483 11.8814 36.8122C12.0766 37.0623 12.2715 37.3125 12.4668 37.563C12.5234 37.6207 12.5797 37.6784 12.6364 37.7361C12.7279 37.8146 12.8193 37.8931 12.9104 37.9719C13.0347 38.0647 13.1589 38.1579 13.2832 38.2508C13.5794 38.4101 13.876 38.5695 14.1723 38.7289C14.3095 38.7818 14.4467 38.8351 14.5839 38.888C14.6142 38.9009 14.6443 38.9163 14.6753 38.9269C15.1108 39.075 15.1416 39.0532 15.1614 38.5856C15.1631 38.4361 15.2781 38.4538 15.373 38.4415C15.6556 38.4685 15.9382 38.4955 16.2208 38.5224C16.4167 38.5453 16.6122 38.5815 16.8085 38.5866C16.9204 38.5893 17.0338 38.5416 17.1464 38.5166C17.2658 38.4791 17.2061 38.4252 17.159 38.3733C17.0686 38.2736 16.9672 38.1818 16.8897 38.0729C16.8406 38.0037 16.803 37.9019 16.9481 37.8723C17.1027 37.8839 17.2576 37.8955 17.4123 37.9071C17.5819 37.9545 17.7519 38.0019 17.9215 38.049C18.0686 38.0842 18.2143 38.1357 18.3638 38.1494C18.4805 38.1603 18.602 38.1245 18.7212 38.1095C18.7392 38.0965 18.7573 38.0832 18.7758 38.0702C18.9375 37.8774 19.099 37.6849 19.2608 37.492C19.4621 37.2067 19.6638 36.9217 19.8652 36.6364C20.0038 36.4094 20.142 36.1825 20.2806 35.9555C20.4202 35.7053 20.5635 35.4572 20.6963 35.2036C20.7335 35.1326 20.74 35.0459 20.7605 34.9664C20.7898 34.8971 20.8144 34.8251 20.8506 34.7592C20.8758 34.7135 20.9171 34.677 20.9509 34.636C20.9782 34.678 21.0055 34.7196 21.0325 34.7616C21.0086 35.08 20.985 35.3985 20.9611 35.7169C20.9598 35.7551 20.97 35.7988 20.9553 35.8313C20.8847 35.9865 20.9837 36.0459 21.0977 36.0999C21.1895 36.1422 21.2816 36.1845 21.3734 36.2265C21.499 36.2705 21.6246 36.3149 21.7502 36.3589C21.8185 36.3709 21.8868 36.3828 21.955 36.3944C22.1298 36.3859 22.3045 36.3777 22.4793 36.3691C22.6243 36.3456 22.7694 36.3224 22.9144 36.2988C23.0168 36.2879 23.1192 36.2767 23.2213 36.2657C23.2878 36.2534 23.3544 36.2408 23.4209 36.2285C23.5547 36.1603 23.6885 36.092 23.8223 36.0237C23.9046 35.9442 23.9868 35.8647 24.0691 35.7852C24.2401 35.6033 24.4114 35.4217 24.5824 35.2398C24.6732 35.1032 24.7636 34.9667 24.8544 34.8299C24.9121 34.6964 24.9602 34.5575 25.0309 34.4309C25.0821 34.3391 25.1629 34.2643 25.2305 34.1817C25.5275 34.0653 25.6346 33.7998 25.7398 33.5326C25.8329 33.3517 25.9264 33.1708 26.0196 32.9895C26.0729 32.9698 26.1264 32.9503 26.1797 32.9305C26.3097 33.1889 26.2224 33.4472 26.1797 33.7059C26.1684 33.7913 26.1572 33.8766 26.1462 33.9619C26.0223 34.2507 25.8988 34.5398 25.7749 34.8285C25.7408 34.8968 25.7066 34.9654 25.6729 35.0336C25.5926 35.1804 25.5128 35.3268 25.4326 35.4736C25.3636 35.5859 25.2947 35.6985 25.2261 35.8108C25.0005 36.1115 24.7745 36.4122 24.5489 36.7128C24.4227 36.8234 24.2967 36.9343 24.1704 37.0449C23.8964 37.1794 23.6223 37.3139 23.3482 37.4484C23.281 37.4897 23.211 37.5279 23.1469 37.5733C22.7199 37.874 22.6359 38.3221 22.9318 38.7542C23.0626 38.945 23.208 39.1255 23.3469 39.3109C23.4076 39.3996 23.4653 39.49 23.5291 39.5764C23.7411 39.8627 23.9551 40.1477 24.168 40.4331C24.2581 40.5256 24.3483 40.6177 24.4387 40.7102C24.7015 40.9126 24.9646 41.115 25.2275 41.317C25.2957 41.3624 25.364 41.4078 25.4322 41.4529C25.5131 41.5061 25.5937 41.5594 25.6746 41.6126C25.7213 41.642 25.7681 41.6713 25.8357 41.7136C25.78 41.3297 25.7425 40.9795 25.6759 40.6351C25.5957 40.2191 25.6548 39.8259 25.8107 39.4402C25.8415 39.4791 25.8841 39.5132 25.9005 39.5573C25.9872 39.7897 26.0671 40.0245 26.1493 40.2583C26.2517 40.5085 26.3541 40.7587 26.4565 41.0088C26.5353 41.2034 26.6142 41.3979 26.693 41.5921C26.7971 41.929 26.8937 42.2689 27.1272 42.5471C27.2087 42.6396 27.2896 42.7328 27.3719 42.8242C27.4906 42.9563 27.592 43.0952 27.5695 43.2874C27.477 43.2447 27.3848 43.2007 27.2917 43.1597C26.6251 42.8666 26.0548 42.4225 25.4715 41.9986C24.6619 41.4102 23.865 40.8082 23.2281 40.0232C23.2008 39.9897 23.1448 39.9795 23.1018 39.9583C23.083 40.001 23.0492 40.0433 23.0479 40.0863C23.0346 40.5781 23.0066 41.072 23.2226 41.5594C23.1704 41.5495 23.1472 41.5505 23.1301 41.5409C22.4243 41.146 21.8554 40.6225 21.5052 39.8754C21.3127 39.4648 21.0857 39.0706 20.8683 38.6723C20.7837 38.517 20.7103 38.5098 20.5543 38.6166C20.4867 38.6627 20.4192 38.7088 20.3516 38.7549C19.9922 39.0436 19.9676 39.2197 20.1618 39.6368C20.2826 39.8962 20.3751 40.1737 20.4434 40.4522C20.5434 40.8587 20.5912 41.2778 20.6953 41.6829C20.9308 42.599 21.3018 43.4516 21.9147 44.1884C22.0868 44.3953 22.2171 44.6366 22.3663 44.8622C21.8219 44.8383 21.2775 44.814 20.7328 44.7902C20.5127 44.4751 20.2973 44.1564 20.0703 43.8465C19.9625 43.699 19.9229 43.7086 19.8533 43.8792C19.7785 44.0622 19.7137 44.2488 19.643 44.4335C19.5901 44.5724 19.4864 44.6536 19.3434 44.6823C19.2331 44.7045 19.1215 44.7178 19.0102 44.7352L19.012 44.7332ZM16.0976 15.726C16.1102 15.7083 16.1228 15.6905 16.1354 15.6728C16.0542 15.6042 15.9754 15.5328 15.8914 15.468C15.5726 15.2212 15.2736 14.9393 14.9276 14.7393C14.2306 14.3369 13.5098 13.9761 12.7951 13.6055C11.9954 13.1908 11.1394 13.0911 10.2643 13.2396C9.0677 13.443 7.97109 13.9082 7.00076 14.6424C6.62566 14.9263 6.28368 15.2547 5.93213 15.5687C5.84442 15.6468 5.77923 15.6697 5.66455 15.6103C5.5369 15.5444 5.39048 15.5079 5.24816 15.4789C4.95498 15.4192 4.65838 15.3772 4.36452 15.3202C4.16554 15.2816 3.96895 15.2301 3.77133 15.1833C3.67713 15.1612 3.65017 15.2038 3.65973 15.2902C3.68669 15.5311 3.5843 15.7277 3.46075 15.925C3.38464 16.0465 3.30818 16.1902 3.29965 16.3281C3.26142 16.9653 3.30033 17.5994 3.44197 18.2254C3.65017 19.1435 4.16144 19.9104 4.68535 20.6623C4.93245 21.0173 5.27239 21.3077 5.57376 21.6241C5.6154 21.6681 5.67342 21.7152 5.72906 21.7224C5.79971 21.732 5.89493 21.7241 5.94305 21.6821C5.97821 21.6514 5.97309 21.5466 5.95261 21.4862C5.91643 21.3797 5.84851 21.2848 5.80483 21.1804C5.44646 20.3237 5.30925 19.4326 5.4171 18.51C5.46625 18.0878 5.49936 17.654 5.72564 17.2786C6.08743 16.6793 6.56969 16.196 7.18643 15.8567C8.03423 15.3902 8.95541 15.2294 9.90867 15.2649C10.2954 15.2792 10.6807 15.3711 11.063 15.4472C11.2551 15.4854 11.4288 15.5878 11.507 15.7837C11.6091 16.0407 11.7172 16.298 11.7858 16.5646C11.9968 17.3848 12.3295 18.1445 12.8248 18.8339C13.2197 19.3841 13.7067 19.835 14.2818 20.2466C14.2914 20.1162 14.3101 20.0111 14.3047 19.907C14.2702 19.2322 14.2043 18.5578 14.2002 17.8831C14.1955 17.1735 14.2477 16.4639 14.276 15.7543C14.2804 15.639 14.3275 15.5482 14.4566 15.5526C14.8136 15.5649 15.1716 15.5755 15.5272 15.6076C15.7194 15.625 15.9078 15.6844 16.0979 15.725L16.0976 15.726ZM19.6328 10.3416C20.0929 10.4761 20.5349 10.6061 20.9775 10.7341C21.3574 10.844 21.7376 10.9525 22.1185 11.0597C22.2868 11.1071 22.4352 11.0437 22.5264 10.8976C22.6161 10.7539 22.5458 10.6549 22.4458 10.5556C22.3571 10.4679 22.2789 10.3692 22.1909 10.2805C21.9048 9.99142 21.5792 9.77332 21.1632 9.72486C20.5468 9.65284 20.0396 9.85046 19.6328 10.3416Z" fill="#0B0808"/>
<path d="M16.0979 15.726C15.9078 15.6854 15.7194 15.6257 15.5273 15.6086C15.1716 15.5765 14.8139 15.5659 14.4566 15.5536C14.3276 15.5492 14.2805 15.64 14.276 15.7554C14.2477 16.4649 14.1955 17.1748 14.2003 17.8841C14.2047 18.5588 14.2706 19.2333 14.3047 19.908C14.3102 20.0121 14.2914 20.1172 14.2818 20.2476C13.7067 19.836 13.2197 19.3851 12.8248 18.8349C12.3296 18.1455 11.9965 17.3858 11.7859 16.5656C11.7173 16.2991 11.6091 16.0414 11.507 15.7847C11.4292 15.5888 11.2551 15.4864 11.063 15.4482C10.6811 15.3721 10.2954 15.2803 9.90869 15.2659C8.95543 15.2304 8.03459 15.3912 7.18645 15.8577C6.56971 16.197 6.08745 16.6803 5.72567 17.2796C5.49904 17.6551 5.46627 18.0889 5.41713 18.511C5.30961 19.4339 5.44682 20.3247 5.80485 21.1814C5.84853 21.2859 5.91645 21.3807 5.95263 21.4872C5.97311 21.5476 5.97823 21.6524 5.94308 21.6831C5.89495 21.7251 5.79973 21.7326 5.72908 21.7234C5.67345 21.7159 5.61542 21.6688 5.57378 21.6251C5.27241 21.3087 4.93247 21.0183 4.68537 20.6633C4.16147 19.9111 3.65019 19.1442 3.442 18.2264C3.30001 17.6004 3.2611 16.9666 3.29967 16.3291C3.30786 16.1912 3.38466 16.0475 3.46077 15.926C3.58432 15.7287 3.68671 15.5318 3.65975 15.2912C3.65019 15.2048 3.67715 15.1618 3.77135 15.1844C3.96863 15.2311 4.16522 15.2823 4.36454 15.3212C4.65841 15.3782 4.955 15.4202 5.24818 15.4799C5.3905 15.5089 5.53692 15.5455 5.66457 15.6113C5.77925 15.6704 5.84444 15.6478 5.93215 15.5697C6.2837 15.2557 6.62569 14.9274 7.00078 14.6434C7.97077 13.9092 9.06738 13.444 10.2643 13.2406C11.1394 13.0918 11.9954 13.1918 12.7951 13.6065C13.5098 13.9772 14.2306 14.3383 14.9276 14.7403C15.2737 14.9403 15.5726 15.2222 15.8914 15.469C15.9754 15.5338 16.0542 15.6055 16.1355 15.6738C16.1228 15.6915 16.1102 15.7093 16.0976 15.727L16.0979 15.726Z" fill="#FFFFFD"/>
<path d="M12.4683 31.5486C12.7571 31.7104 13.0755 31.7721 13.3987 31.7824C13.7434 31.7936 14.0892 31.7759 14.4339 31.7609C14.7209 31.7482 14.9995 31.7718 15.2664 31.8872C15.3377 31.9179 15.4145 31.937 15.5165 31.9704C15.396 30.3567 15.5674 28.814 16.306 27.3147C16.5107 27.8376 16.6831 28.3202 16.8869 28.7891C17.2046 29.5199 17.5388 30.2438 17.8756 30.966C18.0019 31.2363 18.0166 31.4984 17.8995 31.7701C17.8726 31.8325 17.8511 31.8981 17.8173 31.9564C17.4016 32.6708 16.7657 33.106 15.9903 33.3302C15.6049 33.4415 15.2268 33.2957 14.8735 33.1329C14.4643 32.9445 14.0339 32.8657 13.5888 32.8411C13.1267 32.8155 12.7956 33.0179 12.5619 33.4084C12.4844 33.5377 12.384 33.6537 12.2943 33.7759C12.181 33.708 12.0676 33.6401 11.9543 33.5718C11.8164 33.5469 11.6786 33.5217 11.541 33.4967C11.4816 33.4384 11.4315 33.3643 11.3615 33.324C10.8434 33.0254 10.4321 32.6165 10.1086 32.1186C9.79626 31.638 9.51264 31.1417 9.38397 30.5759C9.31639 30.2782 9.33175 29.982 9.46417 29.669C9.51605 29.7257 9.55633 29.7694 9.59626 29.813C10.1297 30.3936 10.7263 30.8984 11.398 31.3124C11.4547 31.3472 11.5199 31.3684 11.5806 31.3957C11.6031 31.4011 11.6263 31.4069 11.6492 31.4124C11.6949 31.4342 11.7407 31.4557 11.7864 31.4776C11.8205 31.4889 11.8547 31.5005 11.8888 31.5117C11.9455 31.5237 12.0021 31.5353 12.0588 31.5472C12.1953 31.5472 12.3315 31.5476 12.468 31.5479L12.4683 31.5486Z" fill="white"/>
<path d="M19.6328 10.3416C20.0393 9.85007 20.5465 9.65246 21.1632 9.72481C21.5793 9.77362 21.9049 9.99137 22.1909 10.2805C22.2786 10.3692 22.3571 10.4678 22.4458 10.5556C22.5462 10.6549 22.6162 10.7538 22.5264 10.8975C22.4349 11.044 22.2868 11.1071 22.1185 11.0597C21.738 10.9525 21.3574 10.844 20.9776 10.7341C20.5349 10.6061 20.0929 10.476 19.6328 10.3416Z" fill="#FBF7F6"/>
<path d="M34.9122 38.2439C34.8613 37.8702 34.791 37.4975 34.7633 37.122C34.6698 35.8558 34.7326 34.5902 34.8057 33.3253C34.8098 33.2574 34.8169 33.1888 34.8142 33.1212C34.7992 32.7301 34.8606 32.3536 35.0169 31.9936C35.1296 31.7659 35.2422 31.5383 35.3552 31.3103C35.5088 30.9823 35.662 30.6543 35.8156 30.3263L35.9193 30.156C36.0664 29.8635 36.2139 29.5713 36.361 29.2788C36.4951 29.0201 36.6289 28.7618 36.7631 28.503L37.0822 27.8692C37.1242 27.7546 37.1658 27.6399 37.2078 27.5249C37.2303 27.4436 37.2525 27.3624 37.275 27.2812C37.2856 27.2627 37.3016 27.2457 37.3057 27.2259C37.4061 26.7542 37.4081 26.2788 37.3409 25.8037C37.2422 25.106 37.0716 24.4289 36.7276 23.806C36.6689 23.6145 36.6061 23.4241 36.5535 23.2306C36.5217 23.1142 36.5675 23.0592 36.6931 23.1009C36.8528 23.1753 37.0129 23.2497 37.1726 23.3241C37.3095 23.4255 37.4463 23.5268 37.5832 23.6282C37.73 23.7456 37.8767 23.8634 38.0238 23.9808C38.0805 24.0265 38.1375 24.0719 38.1941 24.1176C38.3075 24.2088 38.4211 24.3002 38.5344 24.3914C38.6942 24.5159 38.8539 24.6402 39.0136 24.7647C39.2314 24.9333 39.4488 25.1019 39.6665 25.2709C39.6809 25.2624 39.6952 25.2542 39.7095 25.2456C39.6304 24.8613 39.5624 24.4739 39.4696 24.0931C39.3402 23.5623 39.1921 23.0364 39.0518 22.5084C38.9136 22.1674 38.7754 21.8268 38.6372 21.4858C38.5457 21.3268 38.4546 21.1674 38.3631 21.0083C38.2737 20.8602 38.1842 20.7117 38.0948 20.5636C38.0016 20.4025 37.9074 20.2425 37.8167 20.08C37.7996 20.0493 37.7972 20.01 37.7883 19.9745C37.8306 19.9643 37.873 19.9452 37.915 19.9465C37.9522 19.9479 37.9887 19.9718 38.0255 19.9855C38.1276 20.0428 38.2296 20.1005 38.332 20.1578C38.3767 20.182 38.4214 20.2063 38.4662 20.2305C38.8078 20.3681 39.1498 20.5059 39.4914 20.6435C39.6396 20.6889 39.7874 20.7346 39.9355 20.78C40.0041 20.7981 40.073 20.8162 40.1416 20.8339C40.2672 20.867 40.3928 20.9001 40.5181 20.9336C40.6659 20.9677 40.814 21.0015 40.9618 21.0356C41.1208 21.0701 41.2802 21.1046 41.4393 21.1391C41.5874 21.1732 41.7352 21.207 41.8833 21.2411C41.9857 21.2643 42.0881 21.2875 42.1905 21.3104C42.383 21.3589 42.5755 21.4073 42.768 21.4558C42.7451 21.5312 42.7219 21.607 42.699 21.6824C42.6424 21.7288 42.586 21.7749 42.5294 21.8213C42.3594 21.9152 42.1891 22.0087 42.0191 22.1026L41.712 22.2367C41.6208 22.2701 41.5301 22.3036 41.4389 22.337C41.3594 22.3609 41.2802 22.3845 41.2007 22.4084C40.9962 22.4548 40.7922 22.5015 40.5877 22.548C40.5433 22.5555 40.499 22.563 40.4546 22.5702C40.2604 22.6012 40.2191 22.6715 40.2932 22.8548C40.4686 23.2872 40.6461 23.7186 40.8229 24.1507C40.9478 24.7091 41.0724 25.2675 41.1973 25.8259C41.2724 26.3136 41.3614 26.7996 41.4191 27.289C41.4939 27.9215 41.5328 28.558 41.3625 29.1833C41.3287 29.3078 41.3437 29.4751 41.1744 29.5334C41.114 29.3959 41.0536 29.2587 40.9932 29.1212C40.959 29.0437 40.9249 28.9665 40.8904 28.8891L40.6177 28.3088C40.5164 28.1382 40.4147 27.9675 40.3133 27.7969C40.2017 27.6484 40.0901 27.5 39.9781 27.3511C39.7327 27.0914 39.4867 26.832 39.2426 26.5709C39.1805 26.5044 39.1409 26.5354 39.1198 26.5989C39.0931 26.6791 39.0727 26.7624 39.0607 26.846C38.973 27.4624 38.7754 28.0375 38.4334 28.5607C38.3993 28.6129 38.3597 28.6641 38.3375 28.7215C37.9887 29.6184 37.3992 30.3802 36.9375 31.2137C36.3002 32.3639 35.7009 33.5281 35.3569 34.8066C35.1644 35.521 35.0442 36.2455 35.0193 36.9855C35.0105 37.2466 34.9971 37.5077 34.9913 37.7688C34.99 37.8227 35.0122 37.877 35.0234 37.9312C34.9862 38.035 34.9494 38.1391 34.9122 38.2429V38.2439Z" fill="#0A0808"/>
<path d="M34.5194 12.1659C34.4849 12.1434 34.4508 12.1212 34.4163 12.0987C34.2914 12.0171 34.1668 11.9359 34.002 11.8283C34.1528 11.799 34.2641 11.7772 34.3753 11.7553C34.5337 11.815 34.6921 11.8751 34.8501 11.9348C34.9641 11.9799 35.0784 12.0249 35.1924 12.0697C35.2948 12.1144 35.3975 12.1594 35.4999 12.2041C35.601 12.2522 35.702 12.3004 35.803 12.3488C35.9744 12.4383 36.146 12.5273 36.3174 12.6168C36.4198 12.6744 36.5218 12.7321 36.6242 12.7898C36.8068 12.9 36.9897 13.0103 37.1723 13.1205C37.2976 13.1994 37.4225 13.2782 37.5478 13.3571C37.7065 13.4632 37.8652 13.5693 38.0235 13.6758C38.1263 13.7434 38.2287 13.8106 38.3314 13.8782C38.4106 13.9362 38.4898 13.9946 38.5689 14.0526C38.6945 14.1417 38.8205 14.2308 38.9461 14.3202C39.0826 14.4229 39.2188 14.5253 39.3553 14.6281C39.6045 14.8253 39.8536 15.0226 40.1028 15.2202C40.2393 15.3322 40.3758 15.4441 40.5123 15.5564C40.6956 15.7131 40.8786 15.8697 41.0618 16.0264C41.2434 16.1752 41.425 16.3244 41.6066 16.4732C41.6861 16.5414 41.7659 16.6093 41.8455 16.6776C42.0045 16.8141 42.1636 16.951 42.3226 17.0875C42.4496 17.2353 42.5765 17.3831 42.7035 17.5309C42.6295 17.5503 42.5503 17.5957 42.482 17.5834C42.3373 17.5571 42.198 17.5008 42.0567 17.4568C41.9305 17.4005 41.8045 17.3438 41.6782 17.2875C41.4066 17.1391 41.1349 16.9906 40.8635 16.8421C40.6137 16.7053 40.3454 16.6295 40.0536 16.6059C40.2656 16.8309 40.4772 17.0561 40.6891 17.281C40.9943 17.6271 41.299 17.9732 41.6042 18.3189C41.7991 18.5555 41.9936 18.7916 42.1885 19.0282C42.3581 19.2463 42.5277 19.464 42.6974 19.6821C42.7196 19.7248 42.7414 19.7674 42.7728 19.8285C42.6923 19.8081 42.6315 19.7924 42.5704 19.7767C42.2994 19.6538 42.0298 19.5289 41.7567 19.4104C41.7049 19.3879 41.6414 19.3927 41.5834 19.3848C41.5342 19.3459 41.4851 19.307 41.4359 19.2681C41.2987 19.177 41.1615 19.0859 41.0243 18.9947C40.8926 18.9135 40.7608 18.8323 40.6291 18.751C40.4823 18.6715 40.3359 18.5916 40.1891 18.5121C39.9355 18.3879 39.6816 18.264 39.428 18.1398C39.3266 18.0937 39.2253 18.0476 39.1239 18.0012C38.9666 17.9322 38.8096 17.8633 38.6522 17.7944C38.557 17.7524 38.4618 17.7107 38.3666 17.6688L38.0956 17.5575C37.9829 17.5063 37.8696 17.4575 37.7587 17.4032C37.7229 17.3855 37.6942 17.3534 37.6624 17.3278C37.6983 17.3042 37.731 17.2694 37.7703 17.2592C37.9409 17.2155 37.9785 17.1363 37.8805 16.9872C37.8095 16.879 37.7259 16.7786 37.6478 16.6749C37.5017 16.4807 37.3556 16.2865 37.2095 16.0923C37.0505 15.9104 36.8914 15.7281 36.732 15.5462C36.6778 15.4888 36.6259 15.4295 36.5692 15.3745C36.4256 15.2356 36.4324 15.1748 36.6187 15.0902C36.7266 15.0414 36.8416 15.009 36.9536 14.9697C37.0303 14.9428 37.0471 14.9021 36.9969 14.8311C36.8047 14.5584 36.6157 14.2837 36.4252 14.01C36.2863 13.8403 36.1474 13.6707 36.0085 13.5011C35.973 13.456 35.9375 13.411 35.902 13.3659C35.8703 13.3311 35.8385 13.2963 35.8068 13.2615C35.6914 13.1482 35.5757 13.0349 35.4603 12.9215C35.4276 12.8871 35.3945 12.8529 35.3617 12.8185C35.2392 12.7151 35.1167 12.6116 34.9941 12.5079C34.8358 12.3939 34.6771 12.2796 34.5187 12.1656L34.5194 12.1659Z" fill="#0B0808"/>
<path d="M21.7036 11.2829C22.1204 11.3262 22.5371 11.3706 22.9538 11.4129C23.0552 11.4232 23.1576 11.4341 23.2593 11.4324C23.4228 11.4297 23.4859 11.3477 23.416 11.2013C23.3009 10.9614 23.1767 10.7238 23.0323 10.501C22.8228 10.1774 22.5975 9.86341 22.3678 9.5535C22.0862 9.17397 21.7173 8.90878 21.2664 8.76031C21.2309 8.74871 21.1968 8.73164 21.1436 8.70912C21.3808 8.50979 21.6446 8.45041 21.9241 8.42481C22.4241 8.37873 22.8904 8.50365 23.3487 8.6842C23.4242 8.71389 23.5105 8.71697 23.5917 8.73198C23.5689 8.64222 23.5695 8.53471 23.5184 8.46577C23.4081 8.31662 23.273 8.18624 23.1453 8.0504C23.0992 8.00125 23.0463 7.95825 22.9968 7.91251C23.032 7.91217 23.0671 7.91183 23.1023 7.91115C23.1477 7.91115 23.1934 7.91115 23.2388 7.91115C23.4323 7.91115 23.6255 7.91115 23.819 7.91115C24.0692 7.88862 24.3194 7.86609 24.5696 7.84357C24.7402 7.91183 24.9105 7.98043 25.0812 8.04869C25.1829 8.12787 25.2856 8.20603 25.3863 8.28658C25.4911 8.37054 25.4754 8.46577 25.3464 8.50911C25.2996 8.52481 25.2426 8.51116 25.1965 8.52788C25.0624 8.57669 24.9208 8.6173 24.8027 8.69342C24.6979 8.76099 24.7109 8.87943 24.8112 8.9511C25.0215 9.10093 25.2406 9.2378 25.4563 9.37978C25.5245 9.42483 25.5931 9.47023 25.6614 9.51528C25.8546 9.60982 26.0495 9.70197 26.173 9.89105C26.2867 10.062 26.4 10.233 26.5136 10.404C26.5819 10.5064 26.6502 10.6085 26.7184 10.7109C26.8782 10.9604 27.0375 11.2102 27.1973 11.4597C27.2997 11.5849 27.4021 11.7102 27.5041 11.8358C27.5833 11.9048 27.6625 11.9737 27.7417 12.0426C27.9014 12.201 28.0611 12.3594 28.2208 12.5174C28.2205 12.5737 28.2198 12.63 28.2195 12.686C28.0949 12.6642 27.9707 12.642 27.8461 12.6201C27.7208 12.5747 27.5956 12.5293 27.4703 12.4839C27.2539 12.3703 27.0375 12.2566 26.8215 12.143C26.4802 11.9723 26.1389 11.8017 25.7979 11.631C25.7809 11.6174 25.7635 11.5911 25.7471 11.5918C25.6689 11.5945 25.5911 11.6041 25.5129 11.6116C25.5413 11.6604 25.5655 11.7119 25.5989 11.757C25.6382 11.8095 25.6853 11.8559 25.7293 11.9051C25.8088 12.0406 25.8972 12.1717 25.9665 12.3119C26.1406 12.6642 26.387 12.9403 26.7536 13.098C26.9693 13.2239 27.1853 13.3495 27.401 13.4754C27.5038 13.5318 27.6065 13.5881 27.7092 13.6444C27.8686 13.7236 28.028 13.8027 28.1874 13.8819C28.312 13.9516 28.4369 14.0208 28.5615 14.0905C28.5953 14.1133 28.6294 14.1359 28.6632 14.1587C28.7663 14.2372 28.869 14.3157 28.9721 14.3946C29.0745 14.4741 29.1768 14.5536 29.2792 14.6331C29.3584 14.6915 29.4376 14.7495 29.5168 14.8079C29.528 14.8188 29.5393 14.8297 29.5506 14.8403C29.769 15.0188 29.9564 15.2222 30.0622 15.4898C30.1646 15.8311 30.267 16.1724 30.3694 16.5137C30.4376 16.6844 30.5059 16.855 30.5741 17.0257C30.654 17.1619 30.7335 17.2984 30.8134 17.4346C30.8472 17.4847 30.8823 17.5342 30.9148 17.5851C30.9455 17.6329 30.9738 17.6824 31.0032 17.7308C30.9407 17.7551 30.8779 17.7793 30.8154 17.8032C30.7581 17.7592 30.7011 17.7151 30.6438 17.6708C30.5642 17.6138 30.4851 17.5568 30.4055 17.4998C30.281 17.4083 30.1564 17.3172 30.0318 17.2257C29.8939 17.0902 29.7557 16.9547 29.6178 16.8192C29.5396 16.7274 29.4611 16.6356 29.383 16.5438C29.2915 16.3963 29.2001 16.2489 29.1089 16.1014C28.984 15.9079 28.8591 15.7144 28.7338 15.5205C28.5744 15.327 28.4154 15.1338 28.256 14.9403C28.1082 14.8151 27.9601 14.6901 27.8123 14.5649C27.7328 14.5079 27.6533 14.4512 27.5737 14.3942C27.4601 14.326 27.3464 14.258 27.2328 14.1898C27.1297 14.1331 27.027 14.0765 26.9239 14.0198C26.8447 13.9857 26.7652 13.9512 26.686 13.9171C26.5495 13.8717 26.413 13.8263 26.2761 13.7809C26.06 13.7014 25.844 13.6215 25.628 13.542C25.457 13.4625 25.286 13.3829 25.115 13.3034C24.9962 13.1355 24.8812 12.9645 24.7573 12.8003C24.6907 12.7119 24.6098 12.6348 24.5351 12.5525C24.4443 12.4839 24.3532 12.4157 24.2624 12.3471C24.1371 12.2788 24.0122 12.2109 23.887 12.1426C23.7617 12.0972 23.6368 12.0515 23.5115 12.0061C23.4545 11.9833 23.3975 11.9607 23.3409 11.9379L22.863 11.7672C22.6583 11.6877 22.4535 11.6082 22.2487 11.5283C22.2258 11.517 22.2033 11.5054 22.1804 11.4942C22.0214 11.4239 21.8623 11.3532 21.7033 11.2829H21.7036Z" fill="#B47E2C"/>
<path d="M51.3188 48.0087C51.7347 47.991 52.147 48.0298 52.5444 48.1591C52.7133 48.2143 52.8729 48.2993 53.0366 48.371C53.1276 48.4279 53.219 48.4849 53.3101 48.5419C53.3783 48.5965 53.4475 48.6513 53.5161 48.7059L53.686 48.8885C53.7426 48.9645 53.7994 49.0408 53.856 49.1171C53.9017 49.2 53.9479 49.2832 53.9937 49.3661C54.0066 49.3916 54.0198 49.4168 54.0327 49.4423C54.0432 49.4677 54.0534 49.493 54.064 49.5184C54.0868 49.5864 54.1104 49.6546 54.1333 49.7225C54.1446 49.8385 54.1552 49.9552 54.1665 50.0712C54.176 50.1505 54.1853 50.2301 54.1948 50.3094C54.1976 50.3634 54.2009 50.4177 54.2036 50.4716C54.2217 50.5088 54.2547 50.5463 54.2554 50.5839C54.2622 51.0497 54.2647 51.5155 54.2681 51.9813C54.2701 52.324 54.272 52.667 54.272 53.0096C54.2719 53.0332 54.251 53.0571 54.2397 53.0809C54.238 53.1581 54.2359 53.2353 54.2339 53.3124V53.9608C54.2448 54.0519 54.2562 54.1431 54.2671 54.2343C54.2452 54.7121 54.2232 55.1907 54.2017 55.6688C54.0961 56.5744 53.6021 57.1951 52.7661 57.5155C51.8669 57.8601 50.9495 57.843 50.0591 57.4686C49.1817 57.0993 48.6795 56.2555 48.7036 55.2577C48.6988 55.2029 48.6947 55.1481 48.6899 55.0936C48.6838 54.8185 48.6775 54.5425 48.6714 54.2675C48.6707 54.1423 48.6701 54.0176 48.6694 53.8925V51.8798C48.6698 51.8228 48.6704 51.7659 48.6704 51.7089C48.6708 51.6635 48.6714 51.6175 48.6714 51.5721C48.6806 51.2381 48.6895 50.9039 48.6987 50.5702C48.711 50.4205 48.7232 50.2703 48.7358 50.121C48.7464 50.0465 48.7566 49.9724 48.7671 49.8983C48.7807 49.8536 48.7954 49.8083 48.8091 49.7635C48.8275 49.7084 48.8454 49.6527 48.8638 49.5975C48.8993 49.5006 48.9347 49.4034 48.9702 49.3065C48.9941 49.2628 49.0186 49.2193 49.0425 49.1757C49.1234 49.0648 49.2048 48.9545 49.2856 48.8436C49.3423 48.7867 49.3986 48.7294 49.4556 48.6727C49.5126 48.6273 49.5695 48.5814 49.6265 48.536C49.7176 48.4794 49.8088 48.4227 49.8999 48.3661C50.3377 48.1089 50.8224 48.0298 51.3188 48.0087ZM40.8237 48.0526C41.4207 47.9663 42.0155 47.9862 42.5991 48.1405C42.7976 48.193 42.9849 48.2891 43.1772 48.3651C43.257 48.4101 43.3367 48.4558 43.4165 48.5009C43.5302 48.5954 43.6446 48.6905 43.7583 48.785C43.7718 48.7992 43.7858 48.8138 43.7993 48.828C43.8419 48.8906 43.8847 48.9529 43.9272 49.0155C43.9627 49.1029 43.9982 49.1908 44.0337 49.2782C44.0456 49.3221 44.0573 49.3661 44.0688 49.41C44.0801 49.467 44.0918 49.524 44.103 49.5809C44.1146 49.6611 44.1266 49.7419 44.1382 49.8221C44.1498 49.9918 44.1617 50.162 44.1733 50.3319C44.1795 50.5356 44.1887 50.7389 44.188 50.9423C44.188 50.9702 44.1384 51.0223 44.1118 51.0223C43.3965 51.0247 42.6816 51.0218 41.9663 51.0184C41.9605 51.0184 41.9545 51.0003 41.9487 50.9911C41.948 50.8772 41.9475 50.7632 41.9468 50.6493C41.9382 50.433 41.9299 50.2162 41.9214 49.9999C41.9095 49.9321 41.8982 49.8636 41.8862 49.7958C41.8477 49.7402 41.8086 49.685 41.77 49.6298C41.6274 49.6294 41.4839 49.6298 41.3413 49.6298C41.1568 49.7786 41.1325 49.9948 41.0991 50.2069C41.0978 50.3772 41.0972 50.5474 41.0962 50.7177C41.13 50.8013 41.164 50.885 41.1978 50.9686C41.209 50.9887 41.2207 51.0085 41.2319 51.0282C41.311 51.1196 41.3908 51.2113 41.4702 51.3026C41.5499 51.3598 41.6297 51.4166 41.7095 51.4735C41.823 51.5421 41.9367 51.611 42.0503 51.6796C42.1294 51.7256 42.2085 51.7712 42.2876 51.8173C42.3564 51.8612 42.4249 51.9052 42.4937 51.9491C42.5618 51.9938 42.6305 52.0389 42.6987 52.0839C42.7669 52.1316 42.8356 52.1797 42.9038 52.2274C42.9744 52.2768 43.0445 52.3271 43.1147 52.3768C43.1601 52.4116 43.2061 52.4465 43.2515 52.4813C43.3633 52.5754 43.4756 52.6694 43.5874 52.7635C43.6437 52.8225 43.6991 52.8817 43.7554 52.9403C43.8035 52.9921 43.8518 53.0438 43.8999 53.0956C43.9452 53.1637 43.9904 53.2322 44.0356 53.3007C44.0582 53.3457 44.0815 53.3913 44.104 53.4364C44.1142 53.4612 44.1241 53.4859 44.1343 53.5106C44.1578 53.5772 44.1814 53.6443 44.2046 53.7108L44.2729 53.9823C44.2839 54.0406 44.2943 54.0997 44.3052 54.1581C44.3164 54.2383 44.3281 54.3191 44.3394 54.3993C44.351 54.5108 44.3757 54.6231 44.3716 54.7343C44.3542 55.2042 44.3481 55.6762 44.3003 56.1434C44.2459 56.6754 43.9289 57.0452 43.4751 57.3055C42.8103 57.687 42.0889 57.7843 41.3374 57.7294C40.8919 57.6966 40.4662 57.5923 40.063 57.3934C39.4043 57.0689 39.0521 56.5379 38.9771 55.8143C38.9682 55.7302 38.9595 55.6456 38.9507 55.5614C38.9374 55.1479 38.925 54.7343 38.9097 54.3212C38.9066 54.2397 38.9236 54.1966 39.019 54.1971C39.7221 54.2029 40.426 54.2042 41.1294 54.2069C41.1413 54.2634 41.1621 54.32 41.1636 54.3768C41.1745 54.8407 41.1824 55.3056 41.1909 55.7694C41.1948 55.9741 41.3123 56.0929 41.4819 56.1884C41.6105 56.2606 41.9144 56.1055 41.9722 55.951C42.0243 55.8102 42.0533 55.659 42.0806 55.5106C42.0959 55.428 42.0873 55.3407 42.0894 55.2557C42.0781 55.1303 42.0674 55.0052 42.0562 54.8798C42.0442 54.8118 42.0326 54.7436 42.021 54.6757C41.9985 54.6068 41.9761 54.5382 41.9536 54.4696C41.8823 54.3799 41.8111 54.2898 41.7397 54.2001C41.6377 54.1202 41.5351 54.0406 41.4331 53.9608C41.2879 53.8578 41.1428 53.7542 40.9976 53.6512L40.5874 53.3778C40.4916 53.312 40.3951 53.2463 40.2993 53.1805L40.0571 53.0106C39.979 52.9533 39.8999 52.8967 39.8218 52.8397C39.7463 52.7807 39.671 52.721 39.5952 52.662C39.5714 52.6413 39.5474 52.6212 39.5239 52.6005C39.469 52.5415 39.4138 52.4817 39.3589 52.4227C39.3254 52.3773 39.2917 52.3314 39.2583 52.286C39.2368 52.2516 39.2153 52.2169 39.1938 52.1825C39.17 52.1375 39.1464 52.0918 39.1226 52.0468C39.1117 52.024 39.1002 52.0012 39.0894 51.9784C39.0542 51.888 39.019 51.7973 38.9839 51.7069C38.9736 51.6724 38.9629 51.6379 38.9526 51.6034C38.9359 51.5143 38.9196 51.4249 38.9028 51.3358C38.8953 51.3003 38.8879 51.2648 38.8804 51.2294C38.8688 51.0704 38.8574 50.9118 38.8462 50.7528V50.6161H38.8472C38.8588 50.514 38.8707 50.4109 38.8823 50.3085C38.8816 50.2292 38.882 50.1495 38.8813 50.0702C38.8895 50.0143 38.8976 49.9581 38.9058 49.9022C38.9177 49.7985 38.9299 49.6945 38.9419 49.5907C38.9521 49.5447 38.9626 49.499 38.9731 49.453C38.9765 49.4313 38.9802 49.4093 38.9839 49.3876C39.0159 49.3064 39.0485 49.2246 39.0806 49.1434C39.1266 49.065 39.1722 48.9859 39.2183 48.9071C39.2868 48.8287 39.3558 48.7502 39.4243 48.6718L39.5933 48.5311C39.6617 48.4868 39.7308 48.4426 39.7993 48.3983C40.1113 48.1959 40.4619 48.1048 40.8237 48.0526ZM13.9126 48.203C14.0211 48.2024 14.0685 48.2215 13.9966 48.3309C13.9843 48.3766 13.9717 48.422 13.9595 48.4677C13.9407 48.5246 13.9216 48.5816 13.9028 48.6385C13.8892 48.6835 13.8755 48.7293 13.8618 48.7743C13.8158 48.9103 13.7701 49.0465 13.7241 49.1825C13.7146 49.2281 13.7053 49.2736 13.6958 49.3192C13.6374 49.5011 13.5784 49.6832 13.52 49.8651C13.5214 49.8766 13.5226 49.8878 13.5239 49.8993C13.4922 50.014 13.46 50.1293 13.4282 50.244C13.3945 50.3575 13.3604 50.4713 13.3267 50.5848C13.3024 50.664 13.2786 50.7436 13.2544 50.8231C13.2448 50.8573 13.2347 50.8915 13.2251 50.9257L13.0806 51.4022L13.0103 51.6395C13 51.6743 12.9902 51.7092 12.98 51.744C12.9565 51.8231 12.9332 51.9022 12.9097 51.9813C12.8994 52.0157 12.8886 52.0504 12.8784 52.0848C12.8654 52.1295 12.8523 52.1749 12.8394 52.2196C12.8291 52.254 12.8193 52.2887 12.8091 52.3231C12.7855 52.4026 12.7613 52.4819 12.7378 52.5614L12.7065 52.6649C12.6936 52.7098 12.6804 52.7548 12.6675 52.7997C12.6569 52.8341 12.6468 52.8688 12.6362 52.9032C12.6233 52.9481 12.6101 52.9931 12.5972 53.038C12.576 53.1065 12.5558 53.1755 12.5347 53.244C12.522 53.2894 12.5082 53.3347 12.4956 53.3798C12.4745 53.4486 12.4533 53.5173 12.4321 53.5858C12.4192 53.6308 12.4067 53.6766 12.394 53.7216C12.3709 53.801 12.3469 53.8804 12.3237 53.9598C12.3019 54.0399 12.2801 54.12 12.2583 54.2001V54.576C12.26 55.5305 12.2614 56.4849 12.2651 57.4393C12.2655 57.5216 12.2369 57.5455 12.1567 57.5448C11.4529 57.5393 10.7486 57.5381 10.0444 57.535C10.0362 57.4753 10.021 57.4151 10.021 57.3553C10.0172 56.2697 10.0146 55.1832 10.0122 54.0975C9.99998 54.052 9.98732 54.0063 9.9751 53.9608L9.90674 53.7216C9.89411 53.6769 9.88162 53.6315 9.86865 53.5868C9.85877 53.552 9.84826 53.5171 9.83838 53.4823C9.81557 53.403 9.79282 53.3233 9.77002 53.244C9.73418 53.1198 9.6978 52.9946 9.66162 52.87C9.63881 52.791 9.61607 52.7117 9.59326 52.6327C9.57041 52.5529 9.54678 52.4733 9.52393 52.3934C9.50142 52.3137 9.47904 52.2339 9.45654 52.1542C9.43368 52.0747 9.41071 51.9944 9.38818 51.9149C9.36533 51.8348 9.34268 51.7545 9.31982 51.6747C9.29701 51.5953 9.27428 51.5164 9.25146 51.4374C9.22863 51.358 9.20496 51.2785 9.18213 51.1991C9.15892 51.1189 9.136 51.0381 9.11279 50.9579C9.09236 50.8778 9.07171 50.7977 9.05127 50.7177C9.02572 50.639 9.0003 50.56 8.9751 50.4813C8.95769 50.424 8.94075 50.3658 8.92334 50.3085C8.90084 50.229 8.87782 50.1496 8.85498 50.0702C8.84308 50.0246 8.83075 49.979 8.81885 49.9335C8.80827 49.8993 8.7972 49.8641 8.78662 49.83C8.76382 49.7506 8.74107 49.671 8.71826 49.5917C8.70597 49.5463 8.6931 49.5003 8.68115 49.455C8.65832 49.3756 8.63562 49.2961 8.61279 49.2167C8.59027 49.1372 8.5673 49.0569 8.54443 48.9774C8.53389 48.9434 8.52372 48.9089 8.51318 48.8749C8.49032 48.7954 8.46768 48.7151 8.44482 48.6356C8.43259 48.5904 8.42093 48.5451 8.40869 48.4999C8.38582 48.4207 8.36222 48.3411 8.33936 48.2616C8.36377 48.2429 8.38882 48.2083 8.41357 48.2079C9.10642 48.2052 9.79983 48.2069 10.4927 48.2079C10.5018 48.208 10.5115 48.2177 10.521 48.2235C10.5329 48.2565 10.5449 48.2901 10.5571 48.3231C10.5807 48.4467 10.6049 48.5707 10.6284 48.6942C10.6509 48.8176 10.6733 48.9409 10.6958 49.0643L10.771 49.6229C10.7805 49.6884 10.7901 49.7547 10.7993 49.8202C10.8092 49.8808 10.8181 49.9412 10.8276 50.0018C10.8389 50.0701 10.8506 50.1387 10.8618 50.2069C10.873 50.275 10.8848 50.3429 10.896 50.411C10.9042 50.4168 10.906 50.4243 10.9019 50.4335V50.4344C10.9155 50.5053 10.9292 50.5765 10.9429 50.6473C10.9504 50.7165 10.9569 50.7862 10.9644 50.8553C10.9746 50.9236 10.9854 50.9922 10.9956 51.0604C11.0089 51.1607 11.0223 51.2609 11.0356 51.3612C11.0571 51.4175 11.0827 51.4731 11.0991 51.5311C11.1162 51.5908 11.1243 51.6531 11.1362 51.7137L11.2007 51.5341C11.2109 51.4641 11.2214 51.3931 11.2319 51.3231C11.2442 51.2454 11.2568 51.1674 11.269 51.0897C11.2803 51.0212 11.292 50.9531 11.3032 50.8846C11.3148 50.8168 11.3258 50.7484 11.3374 50.6805C11.3466 50.624 11.3565 50.5672 11.3657 50.5106C11.3784 50.4434 11.3902 50.3757 11.4028 50.3085C11.4168 50.2294 11.4308 50.1503 11.4448 50.0712L11.5063 49.7557L11.5737 49.4091C11.5765 49.391 11.5798 49.3725 11.5825 49.3544C11.5941 49.2975 11.6045 49.2404 11.6157 49.1835C11.6474 49.0331 11.6797 48.8827 11.7114 48.7323C11.7452 48.5717 11.7782 48.4111 11.812 48.2509C11.855 48.2355 11.8985 48.2069 11.9419 48.2069C12.5985 48.2038 13.256 48.2064 13.9126 48.203ZM37.7964 48.2001C37.9413 48.1984 37.989 48.2418 37.9683 48.3798C37.9587 48.4407 37.9609 48.5037 37.9575 48.5653V55.0165C37.9596 55.8216 37.9616 56.6274 37.9653 57.4325C37.9656 57.5064 37.9521 57.5448 37.8638 57.5448C37.115 57.5417 36.3661 57.5436 35.6177 57.5419C35.599 57.5415 35.5797 57.5193 35.561 57.5067L35.5601 57.5048C35.5604 56.6745 35.561 55.8445 35.561 55.0145C35.5607 54.9583 35.5601 54.9019 35.5601 54.8456V54.163C35.5604 54.0956 35.5607 54.0282 35.561 53.9608C35.5549 53.2178 35.5456 52.4743 35.5425 51.7313C35.538 50.7048 35.5379 49.6778 35.5376 48.6512C35.5376 48.5916 35.5509 48.5312 35.5581 48.4716C35.5595 48.4473 35.5607 48.4229 35.562 48.3983C35.505 48.2199 35.514 48.204 35.6899 48.204C36.392 48.2036 37.0943 48.2079 37.7964 48.2001ZM31.188 48.2069C31.2138 48.2073 31.2397 48.2413 31.2651 48.2596C31.2706 48.3381 31.2763 48.4165 31.2817 48.495C31.2879 48.5076 31.2941 48.5211 31.3003 48.5341C31.3057 48.6234 31.3114 48.7133 31.3169 48.8026C31.323 48.8834 31.3293 48.964 31.3354 49.0448C31.3378 49.063 31.3399 49.0813 31.3423 49.0995C31.3535 49.2056 31.3652 49.3118 31.3765 49.4178C31.3969 49.469 31.4286 49.5199 31.4351 49.5731C31.4545 49.7337 31.4644 49.8953 31.478 50.0565C31.5012 50.2732 31.5242 50.4902 31.5474 50.7069C31.5579 50.9256 31.5687 51.1444 31.5796 51.3632C31.6038 51.4724 31.637 51.5807 31.6489 51.6913C31.6591 51.7856 31.6449 51.8827 31.6411 51.9784C31.6438 52.0095 31.6465 52.0411 31.6489 52.0721C31.6718 52.1972 31.6944 52.323 31.7173 52.4481C31.7255 52.6103 31.7329 52.7722 31.7407 52.9344C31.7417 52.9914 31.7436 53.0484 31.7446 53.1053C31.7467 53.1361 31.7484 53.1674 31.7505 53.1981C31.7754 53.3342 31.8084 53.4692 31.8228 53.6063C31.8327 53.6995 31.8158 53.796 31.811 53.8905C31.8236 53.9133 31.8365 53.9361 31.8491 53.9589C31.8501 53.9785 31.8507 53.9978 31.8521 54.0175C31.8739 54.1358 31.8956 54.2546 31.9175 54.3729C31.9396 54.2796 31.9617 54.186 31.9839 54.0927L31.9829 54.0907C31.9938 53.941 32.0042 53.7912 32.0151 53.6415C32.0172 53.6108 32.0196 53.5804 32.022 53.5497C32.023 53.4934 32.0245 53.4364 32.0259 53.3798V53.3446L32.0825 52.7538C32.0945 52.6071 32.1073 52.4601 32.1196 52.3134C32.1306 52.1768 32.1416 52.0404 32.1528 51.9042C32.1637 51.7771 32.1751 51.6504 32.186 51.5233C32.198 51.3892 32.2102 51.2541 32.2222 51.12C32.244 50.8799 32.2658 50.6401 32.2876 50.4003L32.3228 50.0555C32.334 49.9325 32.3453 49.8094 32.3569 49.6864C32.3586 49.6663 32.3611 49.6454 32.3628 49.6249C32.3744 49.5342 32.386 49.4431 32.3979 49.3524V49.2499C32.4095 49.159 32.4206 49.0683 32.4321 48.9774C32.4325 48.9434 32.4321 48.9089 32.4321 48.8749C32.4431 48.7954 32.4544 48.7151 32.4653 48.6356C32.4657 48.602 32.4653 48.568 32.4653 48.5341C32.464 48.5115 32.4624 48.4882 32.4624 48.4657C32.4653 48.2911 32.551 48.204 32.7202 48.204C33.4346 48.204 34.1494 48.2036 34.8638 48.205C34.918 48.205 34.972 48.2189 35.0259 48.2264C35.0232 48.283 35.0198 48.3398 35.0171 48.3964C35.0055 48.4873 34.9945 48.5779 34.9829 48.6688L34.9214 48.9149C34.919 49.0036 34.9169 49.0925 34.9146 49.1815C34.903 49.2722 34.891 49.3633 34.8794 49.454C34.8685 49.5335 34.8581 49.6137 34.8472 49.6932C34.8352 49.7843 34.8236 49.875 34.812 49.9657C34.8011 50.0455 34.7897 50.1251 34.7788 50.205C34.7672 50.2961 34.7553 50.3873 34.7437 50.4784C34.7324 50.5577 34.7217 50.6374 34.7104 50.7167C34.7098 50.7283 34.7092 50.7402 34.7085 50.7518C34.6976 50.8309 34.6862 50.91 34.6753 50.9891C34.664 51.0689 34.6533 51.1486 34.6421 51.2284C34.6332 51.2861 34.6236 51.3439 34.6147 51.4012C34.612 51.435 34.6097 51.4691 34.6069 51.5028L34.5405 51.9794C34.5398 51.9913 34.5393 52.0036 34.5386 52.0155C34.5283 52.0834 34.5185 52.1517 34.5083 52.2196C34.5069 52.2427 34.5058 52.2659 34.5044 52.2889C34.4932 52.3683 34.4815 52.4479 34.4702 52.5272C34.4613 52.5832 34.4527 52.6399 34.4438 52.6962C34.4411 52.731 34.4388 52.7659 34.436 52.8007C34.4132 52.9136 34.3905 53.0266 34.3677 53.1395L34.3726 53.243C34.362 53.3225 34.3509 53.4019 34.3403 53.4813C34.3298 53.5611 34.3196 53.6408 34.3091 53.7206C34.2832 53.8683 34.2569 54.0162 34.231 54.1639C34.2194 54.2435 34.208 54.3237 34.1968 54.4032C34.1855 54.4823 34.1748 54.5614 34.1636 54.6405C34.1646 54.664 34.1655 54.6873 34.1665 54.7108C34.1464 54.8926 34.1261 55.0749 34.106 55.2567C34.0292 55.8632 33.954 56.4699 33.8745 57.076C33.8544 57.2299 33.8205 57.3822 33.7925 57.535C33.082 57.5378 32.3711 57.5425 31.6606 57.5428C31.1549 57.5432 30.6488 57.5381 30.1431 57.535C30.0919 57.2432 30.0371 56.9516 29.9907 56.6591C29.914 56.1746 29.8423 55.6891 29.77 55.204C29.7629 55.1542 29.7643 55.1025 29.7622 55.0516C29.754 55.0179 29.7463 54.9832 29.7378 54.9491L29.7046 54.7792C29.693 54.6997 29.681 54.6194 29.6694 54.5399C29.6684 54.5058 29.6675 54.4715 29.6665 54.4374C29.6549 54.3581 29.6439 54.2784 29.6323 54.1991C29.6067 54.0288 29.5808 53.8577 29.5552 53.6874C29.5456 53.6192 29.5354 53.5508 29.5259 53.4823C29.5167 53.4253 29.5068 53.3681 29.4976 53.3114L29.4526 53.0048C29.4452 52.9595 29.4377 52.9143 29.4302 52.869C29.4196 52.8124 29.4085 52.7557 29.3979 52.6991C29.3966 52.6759 29.396 52.6529 29.395 52.6298V52.6288C29.3926 52.6067 29.3896 52.5838 29.3872 52.5614C29.3784 52.5042 29.3691 52.4467 29.3599 52.3895C29.3496 52.3326 29.3392 52.2756 29.3286 52.2186C29.3262 52.1845 29.3242 52.1502 29.3218 52.1161C29.3129 52.0704 29.3033 52.0241 29.2944 51.9784C29.2829 51.8991 29.2709 51.8194 29.2593 51.7401C29.248 51.6722 29.2373 51.6033 29.2261 51.535C29.2145 51.4558 29.2025 51.377 29.1909 51.2977L29.1587 51.0917C29.1471 51.0122 29.1351 50.9319 29.1235 50.8524C29.1119 50.7726 29.101 50.6926 29.0894 50.6132C29.0788 50.5451 29.067 50.4771 29.0562 50.4091C29.0442 50.3295 29.0326 50.2493 29.021 50.1698C29.0094 50.0904 28.9984 50.0109 28.9868 49.9315L28.9546 49.7264C28.943 49.6469 28.931 49.5667 28.9194 49.4872C28.9055 49.3744 28.8914 49.2611 28.8774 49.1483C28.8652 49.0688 28.8526 48.9896 28.8403 48.91L28.8169 48.8046C28.8053 48.7252 28.7933 48.6457 28.7817 48.5663C28.7702 48.487 28.7591 48.4073 28.7476 48.328C28.721 48.2475 28.7295 48.2027 28.8345 48.203C29.6188 48.2061 30.4037 48.2042 31.188 48.2069ZM19.8237 48.1991C19.9411 48.1981 19.9809 48.2286 19.9761 48.3505C19.9652 48.6164 19.9703 48.883 19.9683 49.1493C19.97 49.8367 19.9712 50.525 19.9712 51.2128C19.9711 51.2315 19.9511 51.2501 19.9409 51.2684C19.9412 51.2786 19.9388 51.2886 19.9341 51.2977V52.1171C19.9344 52.3101 19.9351 52.5031 19.9351 52.6962C19.9463 52.8104 19.957 52.9247 19.9683 53.0389C19.9686 54.0607 19.9695 55.0826 19.9702 56.1044C19.9706 56.5303 19.9716 56.9558 19.9692 57.3817C19.9689 57.4332 19.9486 57.4855 19.938 57.537C19.2449 57.5356 18.551 57.5341 17.8579 57.5331C17.7112 57.0608 17.5628 56.5884 17.4185 56.1151C17.353 55.9 17.2959 55.6822 17.2349 55.4657C17.2008 55.3518 17.1671 55.2378 17.1333 55.1239C17.0992 55.009 17.0649 54.8941 17.0308 54.7792C16.9994 54.6652 16.9674 54.5513 16.936 54.4374C16.9149 54.3804 16.8937 54.3234 16.8726 54.2665C16.8596 54.2095 16.8471 54.1526 16.8345 54.0956C16.811 54.0162 16.7877 53.9367 16.7642 53.8573C16.7433 53.789 16.7215 53.7205 16.7007 53.6522C16.6758 53.5728 16.6513 53.4934 16.6265 53.4139C16.6145 53.3955 16.6023 53.3767 16.5903 53.3583C16.5815 53.3878 16.5728 53.4176 16.564 53.4471V54.1639C16.5636 54.2434 16.563 54.3228 16.563 54.4022V57.5077C16.5347 57.5197 16.5063 57.5419 16.478 57.5419C15.8467 57.5415 15.2151 57.5394 14.5835 57.537C14.5729 57.4971 14.5523 57.4571 14.5522 57.4169C14.5495 55.9175 14.5484 54.4182 14.5474 52.9188C14.5474 52.8907 14.5518 52.8629 14.5542 52.8348V50.2069C14.5535 49.8207 14.5536 49.4339 14.5532 49.0477V48.2616C14.5803 48.2432 14.6072 48.2082 14.6343 48.2079C15.2671 48.2055 15.8999 48.2065 16.5327 48.2079C16.5426 48.2079 16.5521 48.2184 16.562 48.2235C16.5848 48.2814 16.6079 48.3394 16.6304 48.3973C16.644 48.4386 16.6577 48.4801 16.6714 48.5214C16.7055 48.6274 16.7398 48.7337 16.7739 48.8397C16.7838 48.8716 16.7934 48.9041 16.8032 48.9364C16.8254 49.0053 16.8484 49.0755 16.8706 49.1444C16.8815 49.1784 16.8926 49.213 16.9038 49.2469C16.928 49.3227 16.9528 49.3988 16.9771 49.4745C16.9995 49.5442 17.022 49.6138 17.0444 49.6835L17.1772 50.0975C17.1997 50.166 17.2222 50.2348 17.2446 50.3036C17.2777 50.4073 17.3118 50.5114 17.3452 50.6151C17.3704 50.7164 17.3952 50.8182 17.4204 50.9198C17.4433 50.9883 17.4669 51.0567 17.4897 51.1249C17.5112 51.1681 17.5318 51.2115 17.5532 51.2548C17.5757 51.3236 17.5981 51.393 17.6206 51.4618C17.6448 51.5389 17.6696 51.6161 17.6938 51.6932C17.7269 51.7963 17.7604 51.8988 17.7935 52.0018C17.8047 52.0359 17.8154 52.0703 17.8267 52.1044C17.8488 52.174 17.8709 52.2444 17.8931 52.3143C17.9125 52.3245 17.9323 52.3344 17.9517 52.3446C17.954 52.3255 17.9571 52.3061 17.9595 52.287C17.9588 52.2302 17.9572 52.1738 17.9565 52.1171V48.9091C17.9569 48.8975 17.9575 48.8854 17.9575 48.8739L17.9634 48.2264C17.9991 48.2183 18.0351 48.2031 18.0708 48.203C18.655 48.2013 19.2396 48.2049 19.8237 48.1991ZM22.9966 48.2069C23.0119 48.2069 23.0275 48.2177 23.0425 48.2235C23.066 48.2791 23.0902 48.3349 23.1138 48.3905C23.125 48.4248 23.1358 48.4588 23.147 48.493C23.1695 48.562 23.1918 48.6321 23.2144 48.701C23.2255 48.7353 23.2373 48.7693 23.2485 48.8036C23.2819 48.9076 23.3147 49.0121 23.3481 49.1161C23.3618 49.1567 23.3755 49.1982 23.3892 49.2391C23.411 49.3083 23.4328 49.3773 23.4546 49.4462C23.4658 49.4812 23.4776 49.5157 23.4888 49.5507C23.511 49.6199 23.533 49.6904 23.5552 49.7596C23.5664 49.7937 23.5781 49.8278 23.5894 49.8622C23.6344 50.0103 23.6791 50.1594 23.7241 50.3075C23.7371 50.3381 23.7502 50.3687 23.7632 50.3993C23.7747 50.4342 23.7858 50.4689 23.7974 50.5038C23.8086 50.5727 23.8193 50.6419 23.8306 50.7108C23.864 50.7801 23.8977 50.8496 23.9312 50.9188C23.9533 51.0219 23.9754 51.1254 23.9976 51.2284C24.0447 51.339 24.0921 51.4499 24.1392 51.5604C24.1729 51.6659 24.2069 51.7714 24.2407 51.8768C24.2626 51.9447 24.2843 52.013 24.3062 52.0809C24.3174 52.1154 24.3281 52.15 24.3394 52.1844C24.3626 52.2408 24.3855 52.2971 24.4087 52.3534L24.4419 52.0487C24.4416 51.9123 24.4409 51.7759 24.4409 51.6395V48.2606C24.4788 48.2422 24.5179 48.2079 24.5562 48.2079C25.1492 48.2045 25.7424 48.2045 26.3354 48.2079C26.374 48.208 26.4122 48.2422 26.4507 48.2606V53.0731C26.4527 53.3966 26.4575 53.7203 26.4575 54.0438C26.4575 55.1514 26.4563 56.2595 26.4536 57.3671C26.4533 57.4236 26.4327 57.4805 26.4214 57.537C25.7548 57.5387 25.088 57.5419 24.4214 57.5419C24.3918 57.5418 24.3615 57.5215 24.3315 57.5106C24.12 56.8043 23.9083 56.0978 23.6968 55.3915C23.6736 55.312 23.6507 55.2317 23.6274 55.1522L23.5571 54.9139C23.5466 54.8799 23.5354 54.8457 23.5249 54.8114C23.5017 54.7322 23.4788 54.6526 23.4556 54.5731C23.4218 54.4595 23.3878 54.3459 23.354 54.2323C23.3308 54.1529 23.3078 54.0734 23.2847 53.994C23.2505 53.88 23.2163 53.7659 23.1821 53.6522C23.1716 53.6178 23.1611 53.5832 23.1509 53.5487C23.1383 53.5038 23.1263 53.4588 23.1138 53.4139C23.0925 53.4055 23.0706 53.397 23.0493 53.3885C23.0486 53.4085 23.0471 53.4281 23.0464 53.4481C23.0471 53.5164 23.0477 53.5849 23.0483 53.6532V54.7772C23.05 55.6619 23.0531 56.5469 23.0493 57.4315C23.0493 57.469 22.9881 57.5386 22.9546 57.5389C22.3252 57.543 21.6953 57.5387 21.0659 57.536C21.0561 57.501 21.0377 57.4656 21.0376 57.4305C21.0352 56.1599 21.0344 54.8887 21.0337 53.618C21.0338 53.5957 21.0388 53.573 21.0415 53.5507C21.0405 52.9139 21.0386 52.2772 21.0376 51.6405C21.0379 51.277 21.0386 50.9132 21.0386 50.5497H21.0356C21.0329 49.9925 21.0308 49.435 21.0298 48.8778C21.0298 48.8539 21.0482 48.8294 21.0581 48.8055C21.0612 48.7838 21.0638 48.7612 21.0669 48.7391V48.5692C21.0635 48.513 21.0605 48.4565 21.0571 48.4003C21.0107 48.2993 20.9744 48.2047 21.1489 48.205C21.7649 48.2063 22.3807 48.2059 22.9966 48.2069ZM60.5552 48.202C60.6528 48.2013 60.7023 48.2173 60.6948 48.33C60.6832 48.4988 60.6862 48.6692 60.6831 48.8387V53.8563C60.6828 54.1751 60.6821 54.4939 60.6821 54.8124C60.6838 55.6877 60.6878 56.563 60.6841 57.4384C60.6841 57.4734 60.6178 57.5374 60.5815 57.538C59.9222 57.5421 59.2624 57.539 58.603 57.537C58.5822 57.5066 58.5517 57.479 58.5415 57.4452C58.3224 56.7155 58.1049 55.9851 57.8882 55.2548C57.8818 55.2337 57.8827 55.2098 57.8804 55.1874C57.8562 55.108 57.8323 55.0285 57.8081 54.9491C57.7839 54.8704 57.76 54.7915 57.7358 54.7128C57.7164 54.6439 57.6973 54.5746 57.6782 54.5057C57.6677 54.4716 57.6572 54.4373 57.647 54.4032C57.6251 54.335 57.6034 54.2664 57.5815 54.1981C57.5583 54.1186 57.5354 54.0393 57.5122 53.9598C57.5013 53.9257 57.4899 53.8908 57.479 53.8563C57.4559 53.7767 57.4328 53.6973 57.4097 53.618C57.3987 53.5832 57.3874 53.548 57.3765 53.5135C57.3656 53.4793 57.3551 53.4453 57.3442 53.411C57.3408 53.3922 57.3379 53.3731 57.3345 53.3544C57.3266 53.351 57.3182 53.3483 57.3101 53.3466C57.3056 53.551 57.3018 53.7564 57.2974 53.9608C57.2991 55.0794 57.301 56.1977 57.3003 57.3163C57.3 57.3899 57.2787 57.4634 57.2671 57.537C56.6361 57.539 56.0055 57.5419 55.3745 57.5419C55.3458 57.5419 55.3163 57.5196 55.2876 57.5077C55.2873 56.6549 55.287 55.8013 55.2866 54.9481V52.5262C55.2863 52.4123 55.2856 52.2984 55.2856 52.1844V51.0253C55.2792 50.2257 55.2712 49.4264 55.2671 48.6268C55.2664 48.4941 55.2817 48.3602 55.2896 48.2274V48.2264C55.3096 48.2189 55.33 48.205 55.3501 48.205C55.9723 48.2039 56.5951 48.2032 57.2173 48.2059C57.2483 48.206 57.2791 48.2364 57.3101 48.2528C57.3203 48.2859 57.3307 48.3193 57.3413 48.3524C57.3635 48.4213 57.3856 48.4906 57.4077 48.5594C57.4415 48.6639 57.4755 48.7685 57.5093 48.8729C57.5314 48.9414 57.5535 49.0096 57.5757 49.078C57.6002 49.154 57.6254 49.2305 57.6499 49.3065L57.7163 49.5145C57.7384 49.5837 57.7606 49.6524 57.7827 49.7216C57.794 49.756 57.8056 49.7906 57.8169 49.8251C57.8524 49.9359 57.8875 50.0473 57.9233 50.1581C57.9342 50.1925 57.9456 50.2272 57.9565 50.2616C57.99 50.365 58.0237 50.4687 58.0571 50.5721L58.1245 50.7792C58.1357 50.8134 58.1465 50.8475 58.1577 50.8817C58.1689 50.9157 58.1807 50.9502 58.1919 50.9843C58.2274 51.0955 58.2628 51.207 58.2983 51.3182C58.3208 51.3874 58.3432 51.4561 58.3657 51.5253C58.377 51.5594 58.3886 51.5947 58.3999 51.6288C58.422 51.6975 58.4442 51.7661 58.4663 51.8348C58.4779 51.8692 58.4892 51.904 58.5005 51.9384C58.5353 52.051 58.5698 52.1636 58.605 52.2762C58.6166 52.2991 58.6285 52.3217 58.6401 52.3446C58.65 52.2791 58.6681 52.2138 58.6685 52.1483C58.6719 51.5345 58.672 50.921 58.6733 50.3075C58.6706 49.8522 58.6675 49.3966 58.6665 48.9413C58.6665 48.9174 58.6865 48.8939 58.6968 48.87C58.6998 48.8258 58.7025 48.7814 58.7056 48.7372V48.5663C58.7022 48.5105 58.6992 48.4541 58.6958 48.3983C58.6371 48.2807 58.6306 48.2008 58.8042 48.202C59.3877 48.2068 59.9717 48.2058 60.5552 48.202ZM47.5044 48.202C47.6289 48.2013 47.6906 48.228 47.6489 48.3632C47.6493 48.3746 47.6499 48.3859 47.6499 48.3973V48.7382C47.6496 49.0109 47.6493 49.2845 47.6489 49.5575V57.5087L47.6479 57.5077C47.6252 57.5193 47.6024 57.5408 47.5796 57.5409C46.8065 57.5399 46.0333 57.5368 45.2603 57.5341C45.2503 57.4932 45.231 57.4519 45.231 57.411C45.2265 54.4943 45.2246 51.577 45.2222 48.66C45.2222 48.6321 45.2279 48.6039 45.231 48.576C45.2402 48.4586 45.2491 48.3416 45.2583 48.2245C45.3017 48.2177 45.3448 48.205 45.3882 48.205C46.0937 48.2039 46.7993 48.2068 47.5044 48.202ZM6.58154 48.205C6.63035 48.2053 6.67956 48.2418 6.72803 48.2616C6.72803 48.8079 6.72705 49.355 6.72705 49.9012V54.3016C6.72842 54.7094 6.73412 55.1175 6.729 55.5253C6.72764 55.6437 6.76321 55.6806 6.88232 55.6786C7.25037 55.6718 7.61877 55.6759 7.98682 55.6776C8.04791 55.678 8.10932 55.6897 8.17041 55.6962C8.18063 55.7319 8.19962 55.7678 8.19971 55.8036C8.20175 56.3475 8.20175 56.8921 8.19971 57.4364C8.19971 57.4701 8.17751 57.5037 8.16553 57.537H8.16357C6.89051 57.5373 5.6173 57.538 4.34424 57.538C4.33126 57.5107 4.30713 57.4832 4.30713 57.4559C4.30645 56.3932 4.30869 55.3302 4.31006 54.2675V48.3641C4.31244 48.3192 4.31549 48.2743 4.31787 48.2294C4.36554 48.2208 4.41278 48.204 4.46045 48.204C5.1675 48.2023 5.87483 48.2012 6.58154 48.205ZM51.4194 49.2655C51.1433 49.2655 50.9195 49.4894 50.9194 49.7655V56.0311C50.9194 56.3073 51.1433 56.5311 51.4194 56.5311C51.6956 56.5311 51.9194 56.3073 51.9194 56.0311V49.7655C51.9194 49.4894 51.6955 49.2655 51.4194 49.2655Z" fill="url(#paint4_linear_1728_20181)"/>
<path d="M38 46L40 42L37 44.5H19.4997L17.4997 44L16.29 46H38Z" fill="black"/>
<defs>
<linearGradient id="paint0_linear_1728_20181" x1="35.2553" y1="13.537" x2="59.0783" y2="20.4314" gradientUnits="userSpaceOnUse">
<stop offset="0.336192" stop-color="#BB8C2D"/>
<stop offset="1" stop-color="#EAE07A"/>
</linearGradient>
<linearGradient id="paint1_linear_1728_20181" x1="48.6006" y1="23.0581" x2="18.3951" y2="7.49458" gradientUnits="userSpaceOnUse">
<stop stop-color="#F0ED8C"/>
<stop offset="1" stop-color="#B47E2C"/>
</linearGradient>
<linearGradient id="paint2_linear_1728_20181" x1="7.74621" y1="18.9113" x2="13.958" y2="30.1231" gradientUnits="userSpaceOnUse">
<stop stop-color="#EEE785"/>
<stop offset="1" stop-color="#B5832C"/>
</linearGradient>
<linearGradient id="paint3_linear_1728_20181" x1="33.3417" y1="30.4835" x2="2.14648" y2="9.04669" gradientUnits="userSpaceOnUse">
<stop offset="0.0835996" stop-color="#F0ED8C"/>
<stop offset="0.966526" stop-color="#BB8C2D"/>
</linearGradient>
<linearGradient id="paint4_linear_1728_20181" x1="32.9995" y1="58.0002" x2="32.9995" y2="48.0002" gradientUnits="userSpaceOnUse">
<stop stop-color="#B88624"/>
<stop offset="1" stop-color="#D2A648"/>
</linearGradient>
</defs>
</svg>
