<svg width="64" height="65" viewBox="0 0 64 65" fill="none" xmlns="http://www.w3.org/2000/svg">
<path d="M50.6531 1.00002C50.6824 1.02136 50.7118 1.05869 50.7438 1.06136C52.0901 1.16536 53.3885 1.48002 54.6575 1.92802C55.7746 2.32269 56.8436 2.82402 57.8514 3.44269C58.5046 3.84269 59.0138 4.39736 59.3977 5.06402C59.6803 5.55469 59.8642 6.07736 59.9469 6.63202C60.0669 7.45069 59.9762 8.25069 59.6003 8.99202C59.2751 9.63202 58.9045 10.248 58.5499 10.8694C58.2353 11.4187 57.9207 11.968 57.5928 12.5067C57.4622 12.7227 57.2889 12.9147 57.1236 13.128C57.3022 13.304 57.4915 13.4827 57.6701 13.672C58.2833 14.3307 58.7952 15.0587 59.0804 15.9227C59.2271 16.3627 59.3044 16.8214 59.2804 17.2854C59.2484 17.9307 59.0618 18.5387 58.7418 19.1014C58.4379 19.6374 58.126 20.1707 57.8141 20.712C57.9687 20.8854 58.1287 21.0534 58.2806 21.2294C58.9418 21.9867 59.4803 22.8134 59.7096 23.808C59.9469 24.8427 59.7896 25.8187 59.2617 26.7387C58.7605 27.608 58.262 28.4827 57.7607 29.352C57.3475 30.0694 56.9263 30.7867 56.513 31.504C56.0545 32.3014 55.5986 33.0987 55.14 33.896C54.7268 34.6134 54.3056 35.3307 53.8923 36.048C53.4338 36.8454 52.9779 37.6427 52.5193 38.44C52.1061 39.1574 51.6849 39.8747 51.2716 40.592C50.8131 41.3894 50.3572 42.1867 49.8986 42.984C49.4854 43.7014 49.0642 44.4187 48.6509 45.136C48.1924 45.9334 47.7365 46.7307 47.2779 47.528C46.8647 48.2454 46.4461 48.9627 46.0302 49.68C45.8036 50.0694 45.5876 50.4694 45.345 50.848C44.9078 51.528 44.3106 52.0267 43.5668 52.3467C43.4815 52.384 43.4522 52.424 43.4575 52.512C43.4921 53.3707 43.3348 54.2054 43.0656 55.0134C42.9136 55.4667 42.735 55.912 42.535 56.344C41.8685 57.784 41.0687 59.152 40.2156 60.488C39.7624 61.2 39.2585 61.8747 38.688 62.5014C38.0241 63.2294 37.259 63.816 36.3792 64.2507C35.6567 64.608 34.8889 64.8294 34.0864 64.936C34.0544 64.9414 34.0251 64.976 33.9957 64.9974H32.2362C32.1322 64.9654 32.0309 64.928 31.9242 64.904C31.3404 64.7707 30.7512 64.6667 30.178 64.504C29.0876 64.192 28.0452 63.7494 27.0214 63.2667C25.9816 62.776 24.9446 62.28 23.9181 61.76C22.9504 61.2694 22.0013 60.744 21.1161 60.1147C20.7536 59.8587 20.4176 59.5627 20.0764 59.2774C19.5938 58.8747 19.1913 58.3974 18.89 57.8534C18.7274 57.5627 18.5381 57.5094 18.2368 57.5014C17.501 57.4854 16.7865 57.3254 16.0987 57.0667C14.9416 56.6347 13.8832 56.0107 12.8541 55.3387C12.0783 54.8347 11.3078 54.3254 10.5507 53.7974C9.67087 53.184 8.79374 52.5707 7.94594 51.9147C7.33009 51.44 6.74356 50.9174 6.1837 50.3787C5.65849 49.872 5.25325 49.2667 4.904 48.6214C4.53609 47.944 4.26682 47.232 4.12552 46.4747C4.01621 45.8934 3.98155 45.3094 4.03487 44.7174C4.08553 44.1414 4.18151 43.576 4.37879 43.04C4.58408 42.4827 4.82135 41.9307 5.09862 41.4054C5.37056 40.8907 5.68248 40.392 6.03173 39.9254C6.33033 39.5254 6.70624 39.1814 7.04482 38.808C7.09548 38.752 7.14613 38.6827 7.16746 38.608C7.48739 37.4854 8.01259 36.464 8.70043 35.5254C8.98836 35.1334 9.29229 34.7414 9.64154 34.4054C10.0041 34.0587 10.4254 33.776 10.8306 33.48C10.9452 33.3947 11.0012 33.344 10.9959 33.176C10.9692 32.608 11.0625 32.0507 11.3078 31.5334C11.5131 31.1014 11.7477 30.6854 11.985 30.2694C12.3636 29.6027 12.7528 28.944 13.134 28.2827C13.5073 27.6347 13.8805 26.9814 14.2538 26.3334C14.6403 25.6614 15.0323 24.9894 15.4188 24.3174C16.04 23.2454 16.6612 22.176 17.2797 21.1014C17.8556 20.1014 18.4288 19.1014 19.0046 18.1014C19.5325 17.1867 20.0657 16.272 20.5963 15.3574C21.0548 14.56 21.5107 13.7627 21.9719 12.9654C22.3852 12.248 22.8037 11.5307 23.2196 10.8134C23.6782 10.016 24.1314 9.21602 24.5953 8.42136C24.9339 7.84269 25.2512 7.25069 25.6377 6.70669C26.2243 5.88002 27.0427 5.37069 28.0425 5.18936C28.4371 5.11736 28.8423 5.06136 29.2395 5.06936C29.8527 5.08002 30.4632 5.16802 31.0578 5.32536C31.2844 5.38669 31.2764 5.37869 31.3964 5.17602C31.7483 4.57602 32.0762 3.96002 32.4734 3.38936C33.0626 2.53869 33.9051 2.04536 34.9235 1.86136C35.7553 1.71202 36.5791 1.78402 37.3949 1.96802C38.408 2.19736 39.3705 2.58402 40.3249 2.98402C40.7355 3.15736 41.1434 3.34136 41.5539 3.51469C41.6019 3.53602 41.6792 3.52536 41.7272 3.49869C42.5484 3.07202 43.3642 2.63202 44.188 2.21069C44.9265 1.82936 45.6996 1.52536 46.5128 1.35202C47.086 1.22936 47.6698 1.15469 48.2457 1.05602C48.2777 1.05069 48.307 1.01602 48.3363 0.99469C49.1148 0.99469 49.8933 0.99469 50.6718 0.99469L50.6531 1.00002ZM49.0188 2.24536C48.467 2.29869 47.9098 2.32536 47.3632 2.41602C46.4808 2.56269 45.633 2.84269 44.8358 3.25336C43.8121 3.78136 42.7963 4.32269 41.7779 4.86136C41.6846 4.91202 41.6073 4.91469 41.514 4.86669C41.3647 4.78936 41.21 4.71469 41.0527 4.65069C39.4824 3.98669 37.9575 3.18402 36.2165 3.04802C35.862 3.02136 35.494 3.01869 35.1448 3.07202C34.273 3.20536 33.6412 3.69869 33.2039 4.45869C32.7774 5.20536 32.3455 5.94936 31.9136 6.69602C31.8869 6.74136 31.8602 6.78402 31.8549 6.79202C31.2017 6.64536 30.5779 6.46136 29.938 6.37336C29.4342 6.30402 28.9036 6.28802 28.3997 6.36002C27.4666 6.49336 26.7895 7.02669 26.3149 7.85069C22.4332 14.5867 18.5461 21.32 14.659 28.0534C13.9578 29.2694 13.2513 30.48 12.5635 31.7014C12.2249 32.2987 12.0916 32.944 12.2569 33.6267C12.2942 33.784 12.3422 33.9414 12.3876 34.104C11.7584 34.3014 11.2038 34.6107 10.7293 35.0507C9.46025 36.224 8.64978 37.672 8.22321 39.3387C8.20721 39.4027 8.16189 39.4694 8.11124 39.5174C7.90062 39.712 7.67134 39.888 7.47139 40.0934C6.73023 40.8614 6.21569 41.7787 5.78646 42.7467C5.35723 43.7094 5.12528 44.712 5.24525 45.776C5.30657 46.3227 5.44254 46.8507 5.64516 47.3627C6.13038 48.576 6.94085 49.5387 7.94061 50.3574C9.32695 51.4907 10.7986 52.5067 12.2782 53.5094C13.3633 54.248 14.4644 54.9627 15.6454 55.5467C16.6665 56.0507 17.7356 56.352 18.8847 56.2934C19.0686 56.2827 19.2499 56.2587 19.3939 56.2427C19.6125 56.6374 19.7991 57.0267 20.0337 57.384C20.5616 58.1867 21.2974 58.776 22.0892 59.2987C23.3103 60.1067 24.6193 60.7574 25.9283 61.4054C27.4026 62.1334 28.8956 62.824 30.4659 63.3254C31.1884 63.5547 31.9269 63.7254 32.6814 63.7787C33.0946 63.808 33.5159 63.7627 33.9318 63.7227C34.5716 63.6587 35.1768 63.4667 35.758 63.1947C36.7951 62.712 37.6215 61.9654 38.3067 61.064C39.6157 59.344 40.6688 57.4694 41.5673 55.5067C41.9512 54.6667 42.2125 53.784 42.2284 52.8534C42.2364 52.3947 42.1618 51.936 42.1245 51.4667C42.1405 51.464 42.1965 51.4507 42.2524 51.4427C43.2602 51.3174 43.9827 50.7894 44.4892 49.912C48.4296 43.0747 52.3754 36.24 56.3184 29.4054C56.9449 28.32 57.5688 27.232 58.2006 26.1467C58.5472 25.552 58.6592 24.9147 58.5472 24.2427C58.4326 23.5467 58.102 22.944 57.6621 22.4107C57.2355 21.896 56.7637 21.416 56.2971 20.904C56.2998 20.8987 56.3238 20.8507 56.3504 20.8054C56.7876 20.0454 57.2249 19.2854 57.6621 18.5254C57.8621 18.176 58.0007 17.8054 58.0353 17.4C58.094 16.6934 57.8887 16.056 57.5181 15.464C57.0463 14.7147 56.4144 14.1147 55.7426 13.552C55.5266 13.3707 55.3053 13.1947 55.0707 13C55.7666 12.744 56.2944 12.3227 56.6543 11.7067C57.2409 10.7014 57.8194 9.69069 58.3979 8.68269C58.7472 8.07469 58.8325 7.41336 58.7179 6.73602C58.5419 5.68269 57.9447 4.90136 57.0329 4.37602C55.4413 3.45869 53.7537 2.78669 51.9328 2.46669C51.2636 2.34936 50.5971 2.24002 49.9173 2.24536C49.616 2.24536 49.3174 2.24536 49.0162 2.24536H49.0188Z" fill="#E1E1E1"/>
<path d="M49.9198 2.2453C50.5997 2.23997 51.2662 2.3493 51.9354 2.46664C53.7563 2.78664 55.4439 3.45597 57.0355 4.37597C57.9473 4.9013 58.5445 5.68264 58.7204 6.73597C58.8324 7.4133 58.7471 8.07464 58.4005 8.68264C57.822 9.6933 57.2434 10.7013 56.6569 11.7066C56.297 12.3226 55.7691 12.744 55.0733 13C55.3079 13.192 55.5292 13.3706 55.7451 13.552C56.417 14.1146 57.0488 14.7146 57.5207 15.464C57.8939 16.056 58.0992 16.6933 58.0379 17.4C58.0032 17.8053 57.8673 18.176 57.6647 18.5253C57.2274 19.2853 56.7902 20.0453 56.353 20.8053C56.3263 20.8506 56.3023 20.896 56.2997 20.904C56.7662 21.416 57.2354 21.8933 57.6647 22.4106C58.1046 22.944 58.4351 23.5466 58.5498 24.2426C58.6591 24.9173 58.5498 25.552 58.2032 26.1466C57.5714 27.2293 56.9475 28.3173 56.321 29.4053C52.3779 36.24 48.4295 43.0746 44.4918 49.912C43.9853 50.7893 43.2628 51.3173 42.255 51.4426C42.199 51.4506 42.1404 51.464 42.127 51.4666C42.1644 51.936 42.239 52.3946 42.231 52.8533C42.2123 53.784 41.9537 54.6666 41.5698 55.5066C40.6714 57.4693 39.6183 59.344 38.3093 61.064C37.6241 61.9626 36.7976 62.712 35.7605 63.1946C35.1794 63.464 34.5742 63.6586 33.9343 63.7226C33.5184 63.7626 33.0972 63.808 32.6839 63.7786C31.9295 63.728 31.191 63.5573 30.4685 63.3253C28.8982 62.824 27.4052 62.136 25.9309 61.4053C24.6219 60.7573 23.3128 60.1066 22.0918 59.2986C21.3 58.776 20.5642 58.1893 20.0363 57.384C19.8017 57.0266 19.6151 56.6373 19.3964 56.2426C19.2525 56.256 19.0712 56.2826 18.8872 56.2933C17.7355 56.352 16.6691 56.0533 15.648 55.5466C14.4696 54.9626 13.3685 54.248 12.2808 53.5093C10.8012 52.504 9.32951 51.4906 7.94317 50.3573C6.94341 49.5386 6.13294 48.576 5.64772 47.3626C5.44243 46.8506 5.30647 46.3253 5.24781 45.776C5.13051 44.712 5.35979 43.7093 5.78902 42.7466C6.21825 41.7813 6.73279 40.864 7.47395 40.0933C7.6739 39.888 7.90318 39.712 8.1138 39.5173C8.16445 39.472 8.20711 39.4053 8.22577 39.3386C8.655 37.6693 9.46281 36.224 10.7318 35.0506C11.2064 34.6133 11.7609 34.3013 12.3901 34.104C12.3448 33.9413 12.2995 33.784 12.2595 33.6266C12.0942 32.9413 12.2275 32.2986 12.5661 31.7013C13.2566 30.48 13.9604 29.2666 14.6616 28.0533C18.5486 21.32 22.4357 14.5893 26.3175 7.85064C26.792 7.02664 27.4719 6.4933 28.4023 6.35997C28.9062 6.28797 29.4341 6.30397 29.9406 6.3733C30.5778 6.4613 31.2043 6.6453 31.8575 6.79197C31.8628 6.78397 31.8921 6.7413 31.9161 6.69597C32.3454 5.9493 32.7773 5.2053 33.2065 4.45864C33.6411 3.69864 34.2756 3.2053 35.1474 3.07197C35.4993 3.01864 35.8645 3.0213 36.2191 3.04797C37.96 3.18397 39.485 3.98664 41.0553 4.65064C41.2126 4.7173 41.3645 4.7893 41.5165 4.86664C41.6098 4.91464 41.6871 4.91197 41.7804 4.8613C42.7989 4.32264 43.8146 3.7813 44.8384 3.2533C45.6355 2.84264 46.4833 2.56264 47.3658 2.41597C47.9123 2.3253 48.4695 2.3013 49.0214 2.2453C49.3226 2.2453 49.6212 2.2453 49.9225 2.2453H49.9198ZM49.9518 4.8373C49.6426 4.8373 49.3306 4.8373 49.0214 4.8373C47.931 4.88264 46.8886 5.11197 45.8995 5.61864C45.9341 5.65864 45.9581 5.6853 45.9848 5.71197C46.6859 6.42664 47.3898 7.1413 48.0909 7.85597C48.1309 7.89864 48.1843 7.93597 48.2056 7.98664C48.2296 8.0453 48.2482 8.12797 48.2242 8.1733C48.1976 8.2213 48.1123 8.2613 48.0563 8.25864C47.971 8.2533 47.883 8.21864 47.8057 8.1733C46.8299 7.6133 45.8541 7.0533 44.8837 6.4853C44.7851 6.4293 44.7264 6.4293 44.6544 6.51464C44.5345 6.65597 44.4012 6.7893 44.2839 6.9333C44.1346 7.1173 44.1052 7.3013 44.2439 7.48797C44.3585 7.63997 44.5078 7.7813 44.6731 7.8773C46.0461 8.68264 47.4244 9.4773 48.8028 10.2746C48.8934 10.328 48.9841 10.392 49.0854 10.4213C49.3466 10.4986 49.5866 10.5093 49.8319 10.312C50.0425 10.144 50.2984 10.0133 50.557 9.9333C50.8663 9.8373 51.1942 9.8133 51.5221 9.7573C51.5141 9.6933 51.4928 9.61064 51.4928 9.52797C51.4795 8.9653 51.4715 8.40264 51.4581 7.83997C51.4528 7.6293 51.4341 7.41864 51.4261 7.2053C51.4208 7.0773 51.4821 7.01597 51.6154 7.00797C51.8154 6.99997 51.9274 7.10397 52.0073 7.27197C52.4819 8.2613 52.9644 9.24797 53.4283 10.24C53.5483 10.496 53.7589 10.5333 53.9829 10.5573C54.2015 10.5786 54.3668 10.488 54.4814 10.288C55.012 9.35731 55.5532 8.4293 56.0864 7.5013C56.2063 7.2933 56.2037 7.0773 56.049 6.8933C55.9424 6.7653 55.8064 6.65064 55.6625 6.57064C54.3988 5.85864 53.0764 5.3013 51.6368 5.05864C51.0769 4.9653 50.5144 4.90664 49.9518 4.83197V4.8373ZM29.1808 8.90397C29.1221 8.90397 29.0635 8.9093 29.0048 8.90397C28.7942 8.8853 28.6609 8.97864 28.5543 9.16264C24.0167 17.032 19.4764 24.8986 14.9308 32.7653C14.8082 32.976 14.7922 33.1733 14.9228 33.36C15.1095 33.632 15.2908 33.9173 15.5254 34.1386C16.1252 34.704 16.7517 35.2426 17.3729 35.784C17.5116 35.904 17.6689 36.0133 17.8368 36.0826C18.1274 36.2026 18.33 36.1226 18.474 35.8746C20.5775 32.232 22.681 28.5866 24.7845 24.944C25.3977 23.88 26.0082 22.816 26.6294 21.7573C26.6854 21.6613 26.7867 21.5546 26.8907 21.5253C27.3492 21.392 27.8478 21.864 27.7518 22.3333C27.4745 23.712 27.1893 25.088 26.9067 26.4666C26.6134 27.9013 26.3228 29.336 26.0322 30.7733C25.7176 32.3173 25.4057 33.8613 25.0938 35.408C24.7898 36.912 24.4886 38.4133 24.1713 39.9146C24.0993 40.256 24.1846 40.4746 24.5099 40.6746C26.5041 41.9013 28.5329 43.0746 30.5911 44.1893C30.8657 44.3386 31.1323 44.368 31.4336 44.096C32.3933 43.2266 33.3665 42.3733 34.3369 41.5146C36.2244 39.8453 38.1147 38.176 40.0022 36.5066C41.6818 35.0213 43.3614 33.5333 45.041 32.0453C45.161 31.9386 45.3049 31.8746 45.4516 31.928C45.6275 31.992 45.8062 32.0746 45.9475 32.192C46.1634 32.3706 46.1714 32.5573 46.0301 32.8026C45.3423 33.9946 44.6571 35.1866 43.9693 36.3786C41.9164 39.936 39.8636 43.4906 37.8107 47.048C37.6854 47.264 37.6908 47.432 37.864 47.6133C37.968 47.7226 38.1013 47.8106 38.2346 47.8773C38.4079 47.9653 38.5972 48.0266 38.7812 48.0933C39.6503 48.4133 40.5221 48.736 41.4472 48.864C41.9058 48.928 42.1084 48.8506 42.3057 48.5066C45.6595 42.696 49.0107 36.8826 52.3646 31.072C53.5376 29.0373 54.7107 27.0053 55.8864 24.9733C55.9957 24.7866 56.0011 24.608 55.8997 24.424C55.8304 24.2986 55.7584 24.1733 55.6705 24.0613C55.1799 23.4293 54.5774 22.912 53.9669 22.4026C52.8258 21.4506 51.6208 20.584 50.3971 19.744C49.9545 19.44 49.5093 19.1413 49.0587 18.8453C48.7441 18.64 48.4882 18.648 48.2429 18.864C47.1898 19.7946 46.1367 20.7306 45.0837 21.6613C44.0332 22.5893 42.9855 23.52 41.9351 24.448C40.7727 25.4746 39.613 26.504 38.4506 27.5306C37.7521 28.1493 37.0536 28.7653 36.3551 29.384C36.2351 29.4906 36.0911 29.5573 35.9472 29.504C35.7659 29.44 35.5819 29.352 35.438 29.2293C35.2247 29.0453 35.2193 28.88 35.3633 28.6346C36.2191 27.1493 37.0776 25.6613 37.936 24.176C39.5756 21.3333 41.2152 18.488 42.8602 15.648C42.9802 15.44 42.9642 15.2613 42.8175 15.0933C42.7402 15.0026 42.6416 14.9226 42.5376 14.8613C40.2075 13.536 37.8454 12.2746 35.4193 11.1333C33.9183 10.4266 32.404 9.75197 30.8204 9.2453C30.2872 9.07464 29.7486 8.9013 29.1781 8.9093L29.1808 8.90397ZM10.8411 41.304C10.6705 41.304 10.4812 41.2773 10.2999 41.3093C9.86005 41.384 9.5268 41.6533 9.24953 41.9866C8.72432 42.616 8.32975 43.3253 8.03648 44.088C7.83653 44.608 7.72456 45.152 7.84186 45.7066C7.96983 46.3093 8.2311 46.8613 8.60435 47.352C8.95893 47.8186 9.39883 48.1973 9.85738 48.5546C11.4117 49.7733 13.03 50.9013 14.6856 51.9733C15.4747 52.4826 16.2692 52.984 17.133 53.3653C17.7782 53.6506 18.442 53.7813 19.1432 53.6373C19.7217 53.52 20.1749 53.1973 20.5482 52.7573C21.0867 52.1226 21.4839 51.4026 21.7985 50.64C21.9745 50.2133 22.0705 49.7653 21.9638 49.304C21.9158 49.0933 21.8199 48.8906 21.7452 48.6826C22.2971 48.6773 22.7343 48.424 23.0996 48.024C23.5794 47.496 23.9287 46.8826 24.238 46.2453C24.4566 45.7893 24.5765 45.3173 24.5659 44.8026C24.5552 44.24 24.3819 43.752 24.038 43.3173C23.5635 42.7173 22.9689 42.248 22.3504 41.8106C20.9481 40.8186 19.5404 39.8346 18.1221 38.8666C17.213 38.248 16.2879 37.656 15.3574 37.0693C14.8935 36.7786 14.3816 36.584 13.8298 36.5253C13.2806 36.4666 12.806 36.6533 12.4034 37.0213C11.7609 37.6133 11.345 38.3573 10.9984 39.1466C10.8145 39.5653 10.6865 40.008 10.6892 40.4666C10.6892 40.7413 10.7825 41.0133 10.8385 41.304H10.8411ZM33.0679 61.1626C33.8943 61.1893 34.6248 60.9466 35.2753 60.4586C35.7046 60.136 36.0591 59.7386 36.3817 59.312C37.0669 58.408 37.6348 57.4266 38.1866 56.44C38.6479 55.616 39.0958 54.784 39.413 53.8906C39.6103 53.336 39.6929 52.768 39.5836 52.1893C39.4823 51.648 39.2051 51.192 38.8025 50.8106C38.3013 50.3386 37.7227 49.9786 37.1122 49.6773C35.254 48.7573 33.3931 47.8453 31.5216 46.9573C30.5511 46.496 29.578 46.0373 28.5036 45.8533C27.8798 45.7466 27.2719 45.7706 26.68 46.008C25.9949 46.2826 25.4963 46.792 25.0511 47.3546C24.3179 48.2773 23.7314 49.296 23.1529 50.32C22.6757 51.16 22.2091 52.0053 21.8865 52.92C21.6572 53.568 21.5559 54.2266 21.7266 54.912C21.9398 55.7573 22.4597 56.3706 23.1476 56.8666C23.966 57.456 24.8485 57.9306 25.7389 58.3893C27.3625 59.2293 29.0022 60.0453 30.7271 60.664C31.4842 60.936 32.2494 61.1893 33.0625 61.16L33.0679 61.1626ZM35.8379 5.60264C35.6246 5.54397 35.4833 5.68797 35.3553 5.92264C34.9687 6.62397 34.5582 7.31464 34.1583 8.01064C34.017 8.2533 34.0303 8.41597 34.2276 8.6133C34.3182 8.70397 34.4329 8.78664 34.5502 8.83997C37.7067 10.248 40.7594 11.864 43.756 13.584C46.9232 15.4026 50.0238 17.328 52.9911 19.464C53.1271 19.5626 53.2684 19.6666 53.4203 19.7333C53.6816 19.8453 53.9509 19.8186 54.1268 19.4933C54.5134 18.7786 54.9266 18.0773 55.3452 17.3813C55.4679 17.176 55.4652 17 55.3266 16.8266C55.1426 16.5946 54.9586 16.3573 54.748 16.1493C53.9269 15.3386 52.9991 14.656 52.058 13.9946C48.9654 11.816 45.7102 9.90397 42.3483 8.17064C40.7354 7.33864 39.1038 6.55197 37.3868 5.95197C36.9069 5.78397 36.4244 5.61597 35.8379 5.6053V5.60264Z" fill="#0F1017"/>
<path d="M29.1779 8.90399C29.7511 8.89599 30.287 9.06932 30.8202 9.23999C32.4038 9.74666 33.9181 10.4213 35.4191 11.128C37.8452 12.2693 40.2073 13.5307 42.5374 14.856C42.6414 14.9147 42.74 14.9973 42.8174 15.088C42.964 15.256 42.98 15.4347 42.86 15.6427C41.2151 18.4827 39.5755 21.328 37.9359 24.1707C37.0774 25.656 36.2216 27.144 35.3631 28.6293C35.2218 28.8773 35.2245 29.04 35.4378 29.224C35.5817 29.3467 35.7657 29.4347 35.947 29.4987C36.0936 29.552 36.2349 29.4853 36.3549 29.3787C37.0534 28.76 37.7519 28.144 38.4504 27.5253C39.6128 26.4987 40.7725 25.4693 41.9349 24.4427C42.9853 23.5147 44.0331 22.584 45.0835 21.656C46.1366 20.7227 47.1896 19.7893 48.2427 18.8587C48.488 18.6427 48.7439 18.6347 49.0585 18.84C49.5064 19.1333 49.9517 19.4347 50.3969 19.7387C51.6206 20.5787 52.8256 21.4453 53.9667 22.3973C54.5772 22.9067 55.1797 23.424 55.6703 24.056C55.7583 24.168 55.8303 24.2933 55.8996 24.4187C56.0009 24.6 55.9929 24.7787 55.8862 24.968C54.7105 27 53.5375 29.0347 52.3644 31.0667C49.0105 36.8773 45.6593 42.6907 42.3055 48.5013C42.1082 48.8453 41.9029 48.9227 41.447 48.8587C40.5192 48.7307 39.6501 48.4107 38.781 48.088C38.597 48.0213 38.4104 47.96 38.2344 47.872C38.0985 47.8053 37.9652 47.7173 37.8639 47.608C37.6906 47.4267 37.6852 47.2587 37.8105 47.0427C39.8634 43.4853 41.9162 39.9307 43.9691 36.3733C44.6569 35.1813 45.3448 33.9893 46.0299 32.7973C46.1712 32.552 46.1632 32.3653 45.9473 32.1867C45.806 32.0693 45.6247 31.984 45.4514 31.9227C45.3048 31.8693 45.1608 31.9333 45.0408 32.04C43.3612 33.528 41.6816 35.016 40.002 36.5013C38.1145 38.1707 36.2243 39.84 34.3367 41.5093C33.3663 42.368 32.3932 43.2213 31.4334 44.0907C31.1321 44.3627 30.8655 44.3333 30.5909 44.184C28.5328 43.0667 26.5039 41.896 24.5097 40.6693C24.1845 40.4693 24.0992 40.2507 24.1711 39.9093C24.4884 38.408 24.7897 36.904 25.0936 35.4027C25.4082 33.8587 25.7201 32.3147 26.032 30.768C26.3226 29.3333 26.6159 27.8987 26.9065 26.4613C27.1864 25.0827 27.4717 23.7067 27.7516 22.328C27.8476 21.8587 27.349 21.3867 26.8905 21.52C26.7892 21.5493 26.6879 21.656 26.6292 21.752C26.0107 22.8107 25.4002 23.8747 24.7843 24.9387C22.6808 28.584 20.5773 32.2267 18.4738 35.8693C18.3299 36.1173 18.1272 36.1973 17.8366 36.0773C17.6687 36.008 17.5087 35.8987 17.3728 35.7787C16.7489 35.2373 16.125 34.6987 15.5252 34.1333C15.2879 33.9093 15.1066 33.624 14.9227 33.3547C14.7947 33.1653 14.808 32.9707 14.9307 32.76C19.4762 24.896 24.0165 17.0267 28.5541 9.15732C28.6607 8.97332 28.794 8.88266 29.0046 8.89866C29.0633 8.90399 29.122 8.89866 29.1806 8.89866L29.1779 8.90399Z" fill="#D7DF24"/>
<path d="M10.8412 41.304C10.7852 41.0133 10.6946 40.7413 10.6919 40.4667C10.6919 40.008 10.8172 39.5653 11.0012 39.1467C11.3478 38.3573 11.7637 37.6133 12.4062 37.0213C12.8087 36.6533 13.2833 36.4667 13.8325 36.5253C14.3844 36.584 14.8962 36.776 15.3601 37.0693C16.2906 37.6533 17.2184 38.248 18.1248 38.8667C19.5431 39.8347 20.9508 40.8187 22.3531 41.8107C22.969 42.248 23.5635 42.72 24.0407 43.3173C24.3846 43.7493 24.5553 44.24 24.5686 44.8027C24.5793 45.32 24.4593 45.792 24.2407 46.2453C23.9314 46.8827 23.5822 47.496 23.1023 48.024C22.7397 48.424 22.2998 48.68 21.7479 48.6827C21.8226 48.8907 21.9159 49.0907 21.9666 49.304C22.0732 49.7653 21.9772 50.2133 21.8013 50.64C21.4867 51.4053 21.0894 52.1253 20.5509 52.7573C20.1777 53.1973 19.7244 53.52 19.1459 53.6373C18.4447 53.7813 17.7782 53.6507 17.1357 53.3653C16.2746 52.984 15.4774 52.4827 14.6883 51.9733C13.03 50.9013 11.4117 49.7733 9.86011 48.5547C9.40155 48.1947 8.96165 47.816 8.60707 47.352C8.23116 46.8587 7.97256 46.3093 7.84459 45.7067C7.72728 45.152 7.83925 44.608 8.03921 44.088C8.33247 43.3253 8.72704 42.616 9.25225 41.9867C9.52952 41.6533 9.86011 41.384 10.3027 41.3093C10.484 41.2773 10.6732 41.304 10.8439 41.304H10.8412ZM12.2835 44.2693C12.0942 44.2293 11.9529 44.336 11.841 44.4747C11.5904 44.7813 11.3824 45.112 11.2624 45.4933C11.2411 45.5653 11.2145 45.656 11.2384 45.72C11.2998 45.8827 11.3611 46.0533 11.4677 46.184C11.6517 46.408 11.8543 46.6267 12.0782 46.8107C13.4219 47.9173 14.8483 48.9093 16.3519 49.7867C16.6878 49.9813 17.0584 50.1227 17.4236 50.256C17.6929 50.3547 17.9542 50.2773 18.1115 50.0267C18.2954 49.736 18.4634 49.4347 18.602 49.12C18.7193 48.8533 18.6607 48.584 18.4501 48.368C18.3248 48.24 18.1995 48.1013 18.0528 48C16.9757 47.2427 15.8933 46.488 14.8083 45.7413C14.1657 45.2987 13.5126 44.872 12.8567 44.4453C12.6888 44.336 12.5075 44.24 12.2809 44.2693H12.2835ZM14.7523 40.0427C14.571 40.0747 14.435 40.12 14.339 40.2853C14.1737 40.5627 14.0324 40.8507 13.8911 41.1413C13.7952 41.336 13.8405 41.5307 13.9765 41.6853C14.1897 41.928 14.3977 42.1867 14.6563 42.3787C15.6507 43.1173 16.6478 43.8507 17.6689 44.5493C18.2634 44.9547 18.89 45.3173 19.5325 45.6453C20.1617 45.9653 20.4416 45.8453 20.7855 45.2213C21.1534 44.552 21.1028 44.232 20.4842 43.7787C19.3458 42.9493 18.1995 42.1307 17.0424 41.3307C16.4719 40.936 15.8693 40.5867 15.2722 40.232C15.1175 40.1413 14.9282 40.104 14.7549 40.0453L14.7523 40.0427Z" fill="#FEFEFE"/>
<path d="M33.0651 61.16C32.2547 61.1893 31.4868 60.936 30.7297 60.664C29.0048 60.0453 27.3678 59.2293 25.7415 58.3893C24.8511 57.928 23.966 57.4533 23.1502 56.8667C22.4623 56.3707 21.9425 55.7573 21.7292 54.912C21.5559 54.2267 21.6599 53.568 21.8891 52.92C22.2117 52.0053 22.6783 51.16 23.1555 50.32C23.734 49.2987 24.3206 48.28 25.0537 47.3547C25.5016 46.792 25.9975 46.2827 26.6827 46.008C27.2745 45.7707 27.8824 45.7467 28.5062 45.8533C29.5806 46.0373 30.5564 46.4987 31.5242 46.9573C33.3957 47.8453 35.2566 48.7573 37.1148 49.6773C37.7254 49.9787 38.3039 50.3387 38.8051 50.8107C39.2077 51.1893 39.4849 51.6453 39.5862 52.1893C39.6956 52.768 39.6129 53.336 39.4156 53.8907C39.0984 54.784 38.6505 55.616 38.1893 56.44C37.6374 57.4293 37.0695 58.408 36.3843 59.312C36.0618 59.7387 35.7072 60.136 35.2779 60.4587C34.6274 60.9467 33.8969 61.1893 33.0705 61.1627L33.0651 61.16ZM32.1694 57.96C32.6999 57.9547 32.9558 57.856 33.2331 57.5733C33.3717 57.4347 33.5104 57.2853 33.609 57.12C34.1822 56.1707 34.7527 55.2187 35.3019 54.256C35.4752 53.9493 35.5979 53.6107 35.7205 53.28C35.8858 52.8267 35.7445 52.4507 35.3659 52.1707C35.1313 51.9973 34.8914 51.824 34.6328 51.6933C33.4864 51.1173 32.34 50.544 31.1803 50C30.5591 49.7067 29.9192 49.4507 29.2714 49.2187C28.6875 49.0107 28.181 49.1813 27.7917 49.672C27.7117 49.7733 27.6211 49.864 27.5544 49.9733C27.0186 50.8587 26.4774 51.7413 25.9628 52.64C25.7735 52.9733 25.6402 53.3413 25.5016 53.7013C25.3123 54.1973 25.4563 54.616 25.8429 54.9573C26.0135 55.1093 26.1921 55.2587 26.3867 55.376C27.9464 56.3173 29.5913 57.0933 31.2949 57.736C31.6175 57.8587 31.9667 57.9147 32.1694 57.9653V57.96Z" fill="#FEFEFE"/>
<path d="M35.8352 5.59999C36.4217 5.61066 36.9043 5.77866 37.3842 5.94666C39.1011 6.54666 40.7327 7.33333 42.3457 8.16533C45.7075 9.89599 48.9601 11.8107 52.0553 13.9893C52.9965 14.6507 53.9216 15.336 54.7454 16.144C54.956 16.352 55.1399 16.5893 55.3239 16.8213C55.4625 16.9947 55.4652 17.1707 55.3426 17.376C54.924 18.072 54.5108 18.7733 54.1242 19.488C53.9482 19.8133 53.6763 19.84 53.4177 19.728C53.2631 19.6613 53.1244 19.5573 52.9885 19.4587C50.0238 17.32 46.9232 15.3947 43.7533 13.5787C40.7567 11.8587 37.7041 10.2453 34.5475 8.83466C34.4302 8.78133 34.3156 8.70133 34.2249 8.60799C34.0276 8.41066 34.017 8.25066 34.1556 8.00533C34.5555 7.30933 34.9661 6.62133 35.3527 5.91733C35.4806 5.68266 35.6246 5.53866 35.8352 5.59733V5.59999Z" fill="#D6DF24"/>
<path d="M49.9518 4.83734C50.5143 4.91201 51.0769 4.97067 51.6367 5.06401C53.0737 5.30667 54.3987 5.86401 55.6624 6.57601C55.8064 6.65867 55.9424 6.77334 56.049 6.89867C56.2036 7.08001 56.2063 7.29601 56.0863 7.50667C55.5505 8.43734 55.0119 9.36267 54.4814 10.2933C54.3668 10.4933 54.2015 10.584 53.9828 10.5627C53.7562 10.5387 53.5456 10.504 53.4283 10.2453C52.9644 9.25067 52.4819 8.26667 52.0073 7.27734C51.9273 7.10934 51.818 7.00534 51.6154 7.01334C51.4794 7.01867 51.4208 7.08001 51.4261 7.21067C51.4341 7.42134 51.4528 7.63201 51.4581 7.84534C51.4714 8.40801 51.4794 8.97068 51.4928 9.53334C51.4928 9.61601 51.5141 9.69868 51.5221 9.76268C51.1942 9.81868 50.8636 9.84268 50.557 9.93868C50.2984 10.0187 50.0424 10.1493 49.8318 10.3173C49.5866 10.512 49.3466 10.5013 49.0853 10.4267C48.9867 10.3973 48.8961 10.3333 48.8027 10.28C47.4244 9.48267 46.0461 8.68801 44.6731 7.88267C44.5104 7.78667 44.3585 7.64534 44.2438 7.49334C44.1052 7.30667 44.1345 7.12267 44.2838 6.93867C44.4011 6.79467 44.5344 6.66134 44.6544 6.52001C44.7264 6.43467 44.785 6.43467 44.8837 6.49067C45.8541 7.05867 46.8299 7.61867 47.8056 8.17867C47.8803 8.22134 47.9709 8.25601 48.0563 8.26401C48.1122 8.26667 48.1976 8.22667 48.2242 8.17867C48.2509 8.13334 48.2295 8.04801 48.2056 7.99201C48.1842 7.94134 48.1336 7.90134 48.0909 7.86134C47.3897 7.14667 46.6859 6.43201 45.9847 5.71734C45.9581 5.69067 45.9368 5.66401 45.8994 5.62401C46.8859 5.11734 47.931 4.88801 49.0214 4.84267C49.3306 4.84267 49.6425 4.84267 49.9518 4.84267V4.83734Z" fill="#FDFDFD"/>
<path d="M12.2809 44.2667C12.5075 44.24 12.6888 44.3333 12.8567 44.4427C13.5099 44.8693 14.1631 45.296 14.8083 45.7387C15.8933 46.4853 16.9758 47.24 18.0528 47.9973C18.1995 48.1013 18.3248 48.2373 18.4501 48.3653C18.6607 48.5813 18.7193 48.8507 18.602 49.1173C18.4661 49.432 18.2954 49.7333 18.1115 50.024C17.9542 50.272 17.6929 50.3493 17.4236 50.2533C17.0584 50.12 16.6852 49.9787 16.3519 49.784C14.8483 48.9067 13.4219 47.9173 12.0783 46.808C11.8543 46.624 11.6517 46.4053 11.4677 46.1813C11.3611 46.0507 11.2971 45.88 11.2385 45.7173C11.2145 45.6533 11.2385 45.5627 11.2624 45.4907C11.3798 45.1093 11.5904 44.7787 11.841 44.472C11.9556 44.3333 12.0943 44.2267 12.2835 44.2667H12.2809Z" fill="#101117"/>
<path d="M14.7523 40.04C14.9256 40.1014 15.1149 40.136 15.2695 40.2267C15.8667 40.5814 16.4692 40.9307 17.0397 41.3254C18.1995 42.1254 19.3432 42.944 20.4816 43.7734C21.1028 44.2267 21.1534 44.544 20.7828 45.216C20.4389 45.84 20.1617 45.96 19.5298 45.64C18.89 45.3147 18.2608 44.9494 17.6663 44.544C16.6452 43.8454 15.6454 43.112 14.6536 42.3734C14.3977 42.1814 14.1897 41.9227 13.9738 41.68C13.8378 41.5254 13.7925 41.3307 13.8885 41.136C14.0298 40.8454 14.1711 40.5574 14.3364 40.28C14.435 40.1147 14.5683 40.0694 14.7496 40.0374L14.7523 40.04Z" fill="#101118"/>
<path d="M32.1695 57.96C31.9669 57.9094 31.6203 57.8534 31.2951 57.7307C29.5915 57.088 27.9492 56.312 26.3869 55.3707C26.1923 55.2534 26.0137 55.104 25.843 54.952C25.4565 54.6107 25.3125 54.192 25.5018 53.696C25.6404 53.336 25.7737 52.968 25.963 52.6347C26.4776 51.736 27.0188 50.8534 27.5546 49.968C27.6213 49.8587 27.7119 49.768 27.7919 49.6667C28.1811 49.176 28.685 49.0027 29.2716 49.2134C29.9194 49.4454 30.5592 49.7014 31.1804 49.9947C32.3402 50.5414 33.4892 51.1147 34.6329 51.688C34.8916 51.8187 35.1315 51.992 35.3661 52.1654C35.7447 52.4454 35.886 52.824 35.7207 53.2747C35.5981 53.608 35.4781 53.9467 35.3021 54.2507C34.7529 55.2134 34.1824 56.1654 33.6092 57.1147C33.5079 57.28 33.3719 57.4294 33.2333 57.568C32.9533 57.8507 32.6974 57.9494 32.1695 57.9547V57.96Z" fill="#0F1017"/>
</svg>
