<svg width="65" height="64" viewBox="0 0 65 64" fill="none" xmlns="http://www.w3.org/2000/svg">
<g clip-path="url(#clip0_1668_5301)">
<path d="M64.5847 31.9944C64.5923 49.7076 50.1806 64.1038 32.3891 63.9997C14.7706 63.8966 0.47683 49.5355 0.586071 31.7917C0.694626 14.1756 15.0588 -0.116088 32.8054 0.00071084C50.3627 0.116136 64.5833 14.3921 64.585 31.994L64.5847 31.9944ZM63.967 32.005C63.9609 14.6992 49.9876 0.71078 32.7618 0.620432C15.3323 0.528711 1.27656 14.5916 1.20511 31.858C1.13331 49.2713 15.1959 63.326 32.4777 63.3806C49.8842 63.4356 63.9609 49.3476 63.967 32.005Z" fill="black"/>
<path d="M63.9673 32.0046C63.9611 49.3472 49.8841 63.4353 32.4779 63.3803C15.1962 63.3257 1.13355 49.271 1.20535 31.8576C1.27681 14.5916 15.3325 0.528694 32.7624 0.620072C49.9878 0.710419 63.9614 14.6985 63.9676 32.0046H63.9673ZM52.9645 31.9394C52.9951 20.7215 43.8566 11.527 32.6377 11.4886C21.3099 11.4497 12.1202 20.5511 12.0701 31.8209C12.0199 43.0978 21.1134 52.3644 32.5013 52.3768C43.7662 52.3892 52.948 43.2819 52.9645 31.9394ZM18.3319 50.3826C18.2127 50.1133 17.987 50.0288 17.7585 49.956C16.6225 49.5946 15.4864 49.6238 14.3552 49.9766C14.2439 50.0113 14.1673 50.0051 14.0831 49.9233C13.6537 49.5049 13.2161 49.0944 12.7904 48.6719C12.6448 48.5272 12.5252 48.3565 12.3937 48.1975C13.5386 48.777 14.7018 48.7158 15.8983 48.3981C15.7606 48.1538 15.5727 47.9889 15.3566 47.858C14.2669 47.1961 13.0975 46.9237 11.8292 47.1514C11.7052 47.1737 11.6101 47.1452 11.5427 47.0363C11.1786 46.4489 10.8141 45.8615 10.4507 45.2734C10.4308 45.2407 10.4211 45.2016 10.4036 45.1569C10.6956 45.3524 10.9601 45.5544 11.248 45.7155C11.5355 45.8766 11.8402 46.0123 12.1484 46.1298C12.451 46.2452 12.7647 46.3379 13.147 46.3534C12.9251 46.0662 12.7451 45.8086 12.5403 45.5722C11.8038 44.7216 10.9247 44.0957 9.80004 43.8618C9.73168 43.8477 9.65301 43.7756 9.62141 43.71C9.33113 43.1088 9.04978 42.5032 8.76671 41.8982C8.74747 41.857 8.73648 41.812 8.72171 41.7687C9.24078 42.1809 9.79248 42.5107 10.4022 42.7395C11.0068 42.9666 11.6303 43.1002 12.3002 43.1157C12.2769 43.072 12.2696 43.0514 12.2566 43.0349C11.2844 41.7989 10.0913 40.9456 8.46441 40.8381C8.40017 40.834 8.30364 40.7845 8.28303 40.7319C8.07485 40.2012 7.87732 39.666 7.6822 39.1301C7.65815 39.0638 7.6664 38.9858 7.65987 38.9133C8.20745 39.3984 8.79866 39.758 9.46716 39.9865C10.1295 40.2129 10.8086 40.32 11.5441 40.2661C11.0226 39.6849 10.4572 39.2208 9.78149 38.8999C9.09134 38.5722 8.37028 38.4121 7.60388 38.522C7.50563 38.5361 7.45925 38.5059 7.43383 38.409C7.22393 37.61 7.01061 36.8116 6.79831 36.0133C6.78937 35.9803 6.7825 35.9466 6.7746 35.9133C6.73338 35.7402 6.63857 35.6556 6.51627 35.6828C6.38607 35.712 6.32321 35.8253 6.36065 35.9968C6.44207 36.3698 6.51971 36.7443 6.61967 37.1129C6.78079 37.7058 6.95839 38.2946 7.13187 38.8948C6.56539 39.2706 6.11984 39.768 5.78902 40.3695C5.46061 40.9666 5.26171 41.6048 5.15762 42.317C6.21122 41.688 6.97144 40.8566 7.43761 39.7453C7.67361 40.3458 7.9048 40.9332 8.13394 41.5162C6.9127 42.5921 6.58085 43.9813 6.66674 45.5684C7.18683 45.1037 7.56093 44.5787 7.85499 43.9947C8.1518 43.4053 8.32322 42.7787 8.36307 42.0717C8.40189 42.1366 8.4146 42.1545 8.42387 42.1741C8.7303 42.8185 9.0381 43.4623 9.33903 44.1091C9.36204 44.1586 9.35071 44.2393 9.32735 44.2929C9.22223 44.5327 9.08241 44.7598 8.99928 45.0064C8.6372 46.0796 8.76534 47.1342 9.15696 48.1727C9.21742 48.3335 9.29025 48.4894 9.3751 48.6908C9.95566 47.4255 10.0986 46.1755 9.71244 44.8646C9.7382 44.8848 9.7492 44.89 9.75469 44.8986C10.2851 45.7656 10.8158 46.6327 11.3425 47.5018C11.3665 47.5413 11.3717 47.6121 11.3538 47.6543C11.0051 48.4709 10.9642 49.3153 11.1295 50.1755C11.2219 50.6564 11.3758 51.1185 11.6077 51.5977C12.0735 50.6334 12.2573 49.6557 12.1597 48.6701C12.6839 49.1734 13.2195 49.6863 13.752 50.2023C13.7791 50.2287 13.7949 50.282 13.7925 50.3211C13.7406 51.104 13.9423 51.8261 14.3174 52.5049C14.5843 52.9876 14.9261 53.4129 15.361 53.8227C15.4277 52.9278 15.2831 52.1082 14.976 51.3064C15.0412 51.3404 15.0917 51.3819 15.1405 51.4259C15.6482 51.8835 16.192 52.2888 16.8118 52.5846C16.9457 52.6485 17.0804 52.7131 17.2199 52.7615C17.3346 52.8014 17.4366 52.7667 17.4878 52.6444C17.5397 52.5204 17.483 52.4352 17.3779 52.374C17.3435 52.3541 17.3047 52.3424 17.2676 52.3273C16.2934 51.9326 15.5386 51.238 14.7606 50.4984C15.9869 50.9044 17.156 50.8663 18.3312 50.383L18.3319 50.3826ZM46.263 9.00177C46.0922 8.90352 45.9225 8.80424 45.7511 8.70771C45.1499 8.36968 44.5172 8.1165 43.8373 7.98734C43.7044 7.96226 43.6068 8.00555 43.5752 8.13952C43.544 8.27212 43.6096 8.35972 43.7391 8.39751C43.7662 8.40541 43.7951 8.40713 43.8232 8.41297C44.8586 8.62115 45.7363 9.15945 46.6371 9.74826C45.3557 9.5734 44.2162 9.83963 43.163 10.516C43.3121 10.7228 43.5203 10.8118 43.8885 10.8465C45.0476 10.9558 46.1376 10.7294 47.1647 10.1832C47.2252 10.1512 47.3348 10.1519 47.3932 10.1859C47.7721 10.4085 48.1527 10.6308 48.5141 10.8798C48.8356 11.1014 49.1328 11.358 49.4409 11.5992C48.8446 11.4205 48.251 11.3828 47.6494 11.4714C47.0479 11.56 46.4777 11.7493 45.9349 12.03C46.0593 12.2058 46.2417 12.3443 46.5495 12.4628C47.735 12.9183 48.9284 12.9661 50.1283 12.5157C50.2568 12.4673 50.3684 12.4638 50.4746 12.5817C50.712 12.8451 50.9648 13.0945 51.2032 13.357C51.454 13.6329 51.6958 13.9169 51.9415 14.1976C51.0266 13.7256 50.0768 13.4656 49.0418 13.5332C49.263 13.7655 49.4887 13.9839 49.7329 14.1791C50.6213 14.8888 51.6086 15.3495 52.7718 15.3556C52.8264 15.3556 52.8982 15.403 52.9325 15.4501C53.3441 16.0131 53.7505 16.58 54.1572 17.1464C54.1768 17.1739 54.1892 17.2069 54.2187 17.2643C53.0225 16.5824 51.7773 16.358 50.442 16.5813C50.7195 16.8239 50.9988 17.0585 51.3028 17.255C52.3272 17.9183 53.4341 18.2619 54.6691 18.0771C54.7141 18.0702 54.7896 18.1093 54.8147 18.1495C55.1211 18.6452 55.4221 19.1444 55.7199 19.6453C55.7505 19.6964 55.7512 19.7655 55.7773 19.8737C55.1445 19.4522 54.4963 19.2152 53.7999 19.1035C53.194 19.0063 52.0339 19.043 51.7147 19.2303C53.0153 20.1846 54.4063 20.6789 56.0576 20.1605C56.432 20.9764 56.8041 21.7844 57.1734 22.5937C57.2548 22.772 57.3489 22.8387 57.4798 22.7902C57.6052 22.7439 57.6461 22.6126 57.5698 22.4419C57.3235 21.8895 57.0785 21.3361 56.8188 20.7902C56.6526 20.4412 56.4612 20.1039 56.2812 19.761C57.3084 18.7356 57.621 17.467 57.5777 16.0674C57.3929 16.2134 57.2239 16.3663 57.0734 16.5357C56.4557 17.2313 56.0287 18.0286 55.8302 18.9702C55.4805 18.4127 55.1476 17.8823 54.8154 17.3529C55.9037 16.0458 55.8553 14.222 55.488 13.1138C54.6952 14.2406 54.3207 15.4608 54.4818 16.8407C54.4574 16.8191 54.4427 16.8101 54.4334 16.7974C54.003 16.2059 53.5711 15.6147 53.1462 15.0193C53.116 14.9767 53.1136 14.8922 53.1332 14.84C53.2709 14.4728 53.3461 14.0946 53.3582 13.7033C53.3929 12.5573 52.9823 11.559 52.3417 10.637C52.3269 10.6157 52.3042 10.6002 52.2743 10.5717C52.0772 11.2148 52.049 11.8579 52.0981 12.503C52.1472 13.1457 52.331 13.7572 52.6543 14.3707C52.6027 14.3316 52.5921 14.3257 52.5845 14.3175C51.9095 13.571 51.2338 12.8256 50.5639 12.0746C50.5241 12.03 50.5162 11.9406 50.5217 11.8747C50.544 11.6191 50.6031 11.3645 50.6027 11.1097C50.602 10.0131 50.2039 9.04849 49.5852 8.16254C49.5746 8.14742 49.5515 8.14055 49.5251 8.12406C49.264 9.1306 49.2661 10.122 49.5646 11.155C49.4784 11.087 49.432 11.0464 49.3815 11.0114C48.8758 10.6586 48.3739 10.3 47.86 9.95952C47.7199 9.86677 47.6316 9.79017 47.6013 9.60535C47.4299 8.56481 46.8686 7.74859 46.0799 7.07596C45.8909 6.91485 45.6855 6.77263 45.4876 6.62182C45.5409 7.49335 45.8329 8.2656 46.263 9.00246V9.00177ZM8.70385 29.982C8.80347 29.601 8.89966 29.2338 9.001 28.8469C7.77289 28.5268 6.55337 28.2087 5.33351 27.8909C5.40531 27.8473 5.46783 27.8432 5.53001 27.8356C6.26687 27.747 7.00408 27.6577 7.74094 27.5687C8.23974 27.5086 8.73923 27.4512 9.23734 27.3856C9.29506 27.378 9.3775 27.3368 9.39502 27.2904C9.44689 27.1547 9.47197 27.0084 9.50735 26.8672C8.39983 26.064 7.30432 25.2698 6.20881 24.4752C6.21465 24.4653 6.22084 24.4553 6.22668 24.4457C7.44414 24.7617 8.66125 25.0778 9.89554 25.3979C9.99585 25.0087 10.0913 24.6381 10.1889 24.2609C8.41391 23.8005 6.66673 23.3478 4.90788 22.8916C4.78146 23.3739 4.66604 23.8376 4.53584 24.2973C4.49668 24.435 4.52622 24.5086 4.64233 24.591C5.51317 25.2111 6.37886 25.839 7.24592 26.4646C7.29882 26.5027 7.35035 26.5426 7.42662 26.5996C7.10061 26.6401 6.81239 26.6769 6.52417 26.7112C5.6681 26.8136 4.81204 26.9177 3.95528 27.0142C3.85703 27.0252 3.81993 27.0603 3.79795 27.1516C3.71309 27.5007 3.62034 27.8476 3.53068 28.1956C3.49564 28.3313 3.45992 28.4667 3.42213 28.612C5.19404 29.0716 6.9419 29.5247 8.70453 29.982H8.70385ZM26.8537 9.95815C28.5233 9.95884 29.7991 8.76027 29.7988 7.19105C29.7984 5.54074 28.6071 4.29409 27.0282 4.29168C25.3614 4.28928 24.0626 5.48956 24.0791 7.05432C24.0983 8.84169 25.3638 9.98048 26.8537 9.95815ZM31.861 7.31162C32.1145 7.31162 32.3357 7.31746 32.5566 7.30922C32.6737 7.30475 32.7387 7.34048 32.794 7.45006C33.0159 7.88806 33.2495 8.32022 33.4807 8.7534C33.5717 8.92414 33.6298 9.1543 33.7737 9.24396C33.9177 9.33396 34.1499 9.28759 34.3436 9.29205C34.5855 9.29755 34.8273 9.29343 35.0935 9.29343C34.6947 8.59023 34.3082 7.90833 33.9142 7.21337C34.2639 7.10929 34.5628 6.95401 34.7686 6.67129C35.2014 6.07665 35.2437 5.42772 34.9458 4.77434C34.6432 4.10996 34.0595 3.84269 33.3632 3.81762C32.5631 3.78842 31.762 3.78945 30.9613 3.77742C30.9005 3.77639 30.8397 3.77742 30.7627 3.77742C30.7328 5.6067 30.7033 7.41502 30.6734 9.23434H31.8606V7.31197L31.861 7.31162ZM10.539 23.7054C11.1446 22.5539 11.7389 21.4233 12.3411 20.2787C12.0374 20.121 11.7458 19.9692 11.4383 19.8095C11.0196 20.6064 10.6042 21.3969 10.1848 22.1952C9.80794 21.9984 9.44999 21.8115 9.07829 21.6178C9.48812 20.8349 9.89176 20.0644 10.3002 19.2845C9.99104 19.1234 9.70076 18.9723 9.40361 18.8177C8.98966 19.6051 8.58705 20.3711 8.17859 21.1482C7.82682 20.9627 7.49085 20.7858 7.1463 20.6044C7.56677 19.8012 7.97832 19.0145 8.39536 18.2176C8.08825 18.0575 7.79762 17.9056 7.49841 17.7493C6.89655 18.8981 6.30397 20.0297 5.70349 21.1753C7.31531 22.0187 8.91718 22.8572 10.5383 23.7057L10.539 23.7054ZM20.9602 10.0368C21.1745 9.93617 21.3724 9.84891 21.5655 9.75203C21.9169 9.57546 22.2907 9.42878 22.6101 9.20583C23.1993 8.79463 23.4356 8.20101 23.2742 7.49575C23.112 6.78878 22.7001 6.28207 21.9626 6.10722C21.5462 6.00863 21.1447 6.08626 20.7613 6.26181C20.0244 6.59915 19.2893 6.94061 18.5534 7.28105C18.5136 7.29926 18.4768 7.32365 18.427 7.35147C19.1914 9.00486 19.9516 10.649 20.7146 12.2996C21.0804 12.1275 21.4246 11.9657 21.7733 11.8015C21.5002 11.2082 21.2353 10.6335 20.9602 10.0361V10.0368ZM19.6513 11.7232C18.9485 12.2316 18.2577 12.7314 17.5452 13.2471C17.5387 13.1636 17.5318 13.1193 17.5321 13.0746C17.5407 11.7527 17.5503 10.4312 17.5572 9.1093C17.5576 9.03235 17.5562 8.94063 17.517 8.88119C17.36 8.64313 17.1879 8.41503 17.0127 8.17147C15.9007 8.97773 14.7973 9.77746 13.6888 10.5813C13.8987 10.8688 14.0934 11.1358 14.2965 11.414C14.989 10.9125 15.6699 10.4195 16.3741 9.90971C16.3741 9.9846 16.3741 10.0183 16.3741 10.0523C16.3611 11.391 16.348 12.7301 16.336 14.0688C16.3353 14.131 16.3243 14.2076 16.3545 14.2526C16.5232 14.5016 16.7032 14.7428 16.8884 14.9991C18.0196 14.1794 19.1337 13.3718 20.2587 12.5566C20.0546 12.2759 19.8578 12.0056 19.652 11.7228L19.6513 11.7232ZM37.9166 9.85681C38.2141 8.40129 38.5072 6.96775 38.8019 5.52597C39.3272 5.63109 39.8328 5.73209 40.3519 5.83618C40.422 5.49196 40.4886 5.16458 40.558 4.82277C39.1272 4.53284 37.7126 4.24599 36.2863 3.95674C36.2152 4.30886 36.1492 4.63486 36.0819 4.96877C36.615 5.07973 37.1252 5.18554 37.6425 5.29306C37.3457 6.75064 37.0541 8.18246 36.761 9.62218C37.1602 9.70325 37.5274 9.7778 37.917 9.85647L37.9166 9.85681ZM10.6973 15.1588C11.0257 14.74 11.3459 14.3319 11.674 13.9139C11.4022 13.6995 11.1384 13.4913 10.8612 13.2728C9.96047 14.4151 9.06627 15.5494 8.16588 16.6913C8.44277 16.9091 8.70659 17.1166 8.97935 17.3313C9.31292 16.9098 9.6379 16.4996 9.96734 16.0832C11.1329 17.0022 12.282 17.908 13.4414 18.8222C13.687 18.5109 13.9254 18.209 14.17 17.8988C13.0041 16.9788 11.8557 16.0726 10.6973 15.1588ZM46.9421 52.9422C46.95 52.9385 46.9579 52.9343 46.9658 52.9306C47.3444 53.5499 47.7233 54.1693 48.1053 54.7938C48.3131 54.6657 48.5004 54.5503 48.6938 54.4307C48.1355 53.5166 47.5883 52.6207 47.0342 51.7134C46.7738 51.8732 46.5244 52.0219 46.2815 52.1803C46.2482 52.2019 46.2272 52.2765 46.2348 52.3208C46.3021 52.72 46.378 53.1178 46.4492 53.5166C46.4918 53.7557 46.5295 53.9958 46.5787 54.2889C45.9916 53.8447 45.4471 53.4328 44.9019 53.0202C44.625 53.191 44.3591 53.3548 44.0843 53.5242C44.6426 54.4383 45.1918 55.3373 45.7446 56.2421C45.95 56.1157 46.1379 56 46.3334 55.8797C45.9507 55.2511 45.5783 54.6393 45.2063 54.0278C45.2142 54.0213 45.2217 54.0147 45.2296 54.0079C45.849 54.474 46.4684 54.9402 47.084 55.4036C47.3647 55.2648 47.3612 55.2655 47.3056 54.9608C47.1826 54.2882 47.0634 53.6145 46.9425 52.9415L46.9421 52.9422ZM11.8035 12.3913C13.0762 13.7143 14.3308 15.0183 15.6149 16.3529C15.8832 16.0499 16.1326 15.7675 16.3951 15.4711C15.1707 14.1983 13.9162 12.8943 12.6523 11.5803C12.3652 11.8544 12.09 12.1179 11.8035 12.3913ZM49.7422 50.9082C49.8367 50.922 49.8848 50.9268 49.9318 50.9367C50.657 51.0893 51.3819 51.2435 52.1074 51.3936C52.1696 51.4063 52.2585 51.4173 52.2991 51.3847C52.4567 51.2576 52.6 51.1123 52.7546 50.968C52.0246 50.181 51.3107 49.4115 50.5886 48.633C50.4124 48.7979 50.2513 48.9484 50.0837 49.105C50.533 49.5953 50.971 50.0731 51.4437 50.5891C51.3351 50.5757 51.2798 50.5726 51.2266 50.5616C50.5399 50.4197 49.8538 50.2758 49.1671 50.1349C49.1084 50.1229 49.0242 50.1037 48.9882 50.1329C48.8171 50.2717 48.6591 50.4259 48.49 50.5808C49.2221 51.3703 49.937 52.1408 50.656 52.9161C50.8302 52.7547 50.993 52.6035 51.1634 52.4458C50.6951 51.9391 50.2348 51.441 49.7425 50.9082H49.7422ZM40.7167 57.0474C40.7284 57.2143 40.8796 57.348 40.7373 57.5108C40.477 57.809 39.9905 57.9409 39.6257 57.8069C39.2251 57.6602 38.951 57.2312 38.9586 56.7622C38.9654 56.3297 39.2076 55.9976 39.612 55.8512C39.9369 55.7337 40.2272 55.8052 40.4666 55.9804C40.6288 55.8237 40.7786 55.6791 40.9527 55.5111C40.7793 55.4208 40.6168 55.3112 40.4378 55.2473C39.8009 55.0199 38.9881 55.2882 38.5532 55.8543C38.1485 56.3813 38.1393 57.1865 38.546 57.7825C38.9246 58.3373 39.468 58.5489 40.1221 58.4692C40.7404 58.394 41.2093 58.0786 41.5106 57.5276C41.5261 57.4995 41.5415 57.4596 41.534 57.4318C41.4289 57.0546 41.3196 56.6784 41.2073 56.2875C40.951 56.3593 40.7105 56.4256 40.4704 56.494C40.2317 56.562 39.9933 56.6324 39.7394 56.7063C39.7975 56.9076 39.85 57.0893 39.9029 57.272C40.1856 57.1937 40.4423 57.123 40.7167 57.047V57.0474ZM52.9181 48.0992C53.0792 48.2304 53.2238 48.3483 53.3781 48.474C53.5612 48.2531 53.7378 48.0401 53.916 47.8254C54.004 47.8972 54.0799 47.9501 54.1438 48.0147C54.1754 48.0466 54.2043 48.1013 54.2022 48.1439C54.174 48.7399 53.5894 49.1868 53.0023 49.0659C52.2791 48.9168 51.9078 48.1061 52.2919 47.5142C52.4897 47.2091 52.779 47.0789 53.1514 47.0903C53.1922 46.8787 53.2317 46.6749 53.2764 46.4448C53.1689 46.4448 53.084 46.4407 52.9995 46.4455C52.0054 46.5028 51.2475 47.5887 51.5258 48.5554C51.7625 49.3778 52.6313 49.9137 53.4554 49.7464C54.2867 49.5774 54.9628 48.6622 54.858 47.8426C54.8498 47.7787 54.8285 47.6986 54.7838 47.6602C54.4949 47.4108 54.1974 47.1706 53.8937 46.9195C53.5677 47.3142 53.2513 47.6969 52.9188 48.0995L52.9181 48.0992ZM45.1609 56.5369C45.151 56.5067 45.151 56.4998 45.1472 56.4964C44.3856 55.7131 43.6243 54.9295 42.8586 54.1504C42.8274 54.1188 42.7428 54.1095 42.6975 54.1267C42.5058 54.1992 42.321 54.2906 42.13 54.3658C42.0403 54.4012 42.0139 54.4507 42.0177 54.5462C42.0493 55.4036 42.0747 56.261 42.1046 57.1185C42.1125 57.3493 42.129 57.5802 42.1427 57.8306C42.2392 57.789 42.3169 57.7557 42.3942 57.7224C42.8294 57.5366 42.826 57.5366 42.8102 57.067C42.8085 57.0137 42.86 56.9313 42.9088 56.9082C43.1455 56.7952 43.389 56.6966 43.6309 56.5946C43.7779 56.5328 43.938 56.4084 44.0702 56.4325C44.2004 56.4562 44.299 56.6362 44.4199 56.7379C44.4588 56.7705 44.5337 56.7969 44.5759 56.7815C44.7727 56.709 44.9641 56.6211 45.1613 56.5372L45.1609 56.5369ZM55.9394 45.541C55.7058 45.5039 55.5162 45.4743 55.3269 45.4437C54.7189 45.3455 54.1112 45.2448 53.5024 45.1511C53.4516 45.1432 53.3698 45.159 53.3444 45.194C53.2493 45.3263 53.172 45.4709 53.0827 45.6196C53.9957 46.1792 54.8944 46.7299 55.801 47.2857C55.8766 47.1586 55.9418 47.0487 56.0105 46.9329C55.2891 46.4898 54.5863 46.058 53.8834 45.6262C53.9442 45.5997 53.9933 45.6007 54.0414 45.609C54.8346 45.7402 55.6275 45.8742 56.4217 46.0006C56.4825 46.0102 56.5787 45.9869 56.6079 45.9443C56.6323 45.9085 56.6 45.8099 56.5639 45.7601C56.1016 45.1215 55.6337 44.4863 55.1672 43.8505C55.1259 43.7945 55.0858 43.7378 55.0452 43.6815C55.0538 43.6742 55.0621 43.667 55.0706 43.6595C55.7828 44.0954 56.4949 44.5313 57.2156 44.9728C57.2933 44.8426 57.3565 44.7368 57.4259 44.6207C56.5124 44.0607 55.6144 43.5104 54.7086 42.9552C54.6244 43.093 54.5567 43.2191 54.4743 43.3345C54.4121 43.4214 54.4303 43.4808 54.4894 43.5602C54.8037 43.9817 55.1122 44.4073 55.4224 44.8319C55.5863 45.0562 55.7494 45.2809 55.9391 45.5416L55.9394 45.541ZM26.3783 55.5843C26.2859 55.5524 26.2172 55.5379 26.1584 55.506C26.011 55.4259 25.9248 55.461 25.831 55.6063C25.4126 56.2542 24.9798 56.8931 24.5518 57.5352C24.527 57.5723 24.4978 57.6063 24.4504 57.6685C24.4995 56.8454 24.5435 56.0639 24.5937 55.2823C24.6136 54.9711 24.6194 54.9714 24.3264 54.8759C24.3168 54.8729 24.3044 54.878 24.2811 54.8808C23.7891 55.6035 23.2927 56.3328 22.7963 57.0625C22.7936 56.642 22.8218 56.2339 22.8499 55.8258C22.8795 55.3923 22.9107 54.9591 22.9355 54.5255C22.9382 54.4795 22.9142 54.405 22.8808 54.3892C22.7723 54.337 22.6534 54.3057 22.5298 54.2634C22.5236 54.3198 22.5191 54.3476 22.5177 54.3758C22.4648 55.3462 22.4112 56.317 22.3594 57.2875C22.3443 57.5699 22.3487 57.5627 22.6149 57.6626C22.7355 57.708 22.7932 57.6805 22.8619 57.5774C23.2773 56.9546 23.6998 56.3363 24.1206 55.7172C24.1512 55.6726 24.1856 55.6303 24.2409 55.5568C24.2409 55.6235 24.2422 55.6503 24.2409 55.6771C24.1931 56.4531 24.155 57.2298 24.0901 58.0044C24.0725 58.2136 24.2141 58.1944 24.3195 58.2487C24.4305 58.3054 24.5047 58.2971 24.584 58.1803C25.0828 57.4483 25.5906 56.7221 26.0952 55.9938C26.1856 55.8632 26.2759 55.7324 26.3786 55.584L26.3783 55.5843ZM57.5763 32.0359C58.6344 32.0174 59.6832 31.9991 60.732 31.9809V31.5759H59.4705C59.4705 31.4107 59.4764 31.2571 59.4685 31.1043C59.4637 31.0067 59.4966 30.95 59.5798 30.8968C59.9209 30.6776 60.2582 30.4522 60.5932 30.2238C60.6444 30.1888 60.7058 30.1311 60.7134 30.0768C60.7313 29.9504 60.7192 29.8198 60.7192 29.6477C60.2689 29.9559 59.8608 30.2348 59.4465 30.5186C59.43 30.477 59.4142 30.4468 59.4053 30.4141C59.2751 29.9548 58.9621 29.7274 58.4661 29.7329C58.0208 29.7381 57.6375 29.9985 57.5894 30.4437C57.5334 30.9607 57.5763 31.4883 57.5763 32.0356V32.0359ZM32.7816 59.4613C32.8905 59.4613 32.9805 59.4596 33.0709 59.4617C33.1691 59.4641 33.1962 59.4194 33.1901 59.3236C33.1695 59.0099 33.1567 58.6956 33.142 58.3816C33.1392 58.3219 33.1416 58.2617 33.1416 58.2009C33.3113 58.1886 33.4601 58.1841 33.6075 58.1649C33.7198 58.1504 33.7844 58.1934 33.8462 58.2841C34.075 58.619 34.3093 58.9502 34.5477 59.2786C34.5827 59.327 34.6483 59.3799 34.7023 59.383C34.8246 59.3895 34.9486 59.3662 35.1011 59.3524C34.794 58.9316 34.4996 58.5287 34.1949 58.1116C34.2354 58.1023 34.2557 58.0982 34.2756 58.0931C34.7662 57.9646 35.0008 57.6073 34.9558 57.057C34.9194 56.6125 34.5748 56.2669 34.1111 56.2401C33.838 56.2243 33.5628 56.2442 33.2887 56.2538C33.0791 56.261 32.8696 56.2772 32.6408 56.2906C32.6882 57.3538 32.7349 58.4022 32.782 59.4613H32.7816ZM26.7036 55.6183C26.5109 56.6719 26.3216 57.7066 26.1296 58.7564C26.2735 58.7791 26.3989 58.799 26.5312 58.82C26.6222 58.3349 26.7091 57.8718 26.7991 57.3916C27.4106 57.5036 28.0069 57.6125 28.6102 57.7228C28.5212 58.2112 28.4367 58.6747 28.3494 59.1522C28.4893 59.1783 28.6098 59.2006 28.749 59.2267C28.941 58.1786 29.1303 57.1443 29.323 56.092C29.1842 56.0687 29.0592 56.0474 28.9228 56.0247C28.8369 56.484 28.7548 56.9234 28.6723 57.3662C28.0547 57.2532 27.4628 57.1446 26.8644 57.035C26.9465 56.5719 27.0238 56.1367 27.1028 55.6915C26.9633 55.6657 26.8468 55.6444 26.7039 55.618L26.7036 55.6183ZM58.9892 41.1593C57.8635 41.1273 56.755 41.0947 55.646 41.0679C55.6052 41.0669 55.5512 41.115 55.5238 41.1541C55.4856 41.2094 55.4739 41.2826 55.4375 41.3396C55.3599 41.4616 55.3863 41.5464 55.4877 41.6488C56.2125 42.3798 56.9308 43.1177 57.6516 43.8529C57.6856 43.8876 57.724 43.9178 57.7632 43.9528C57.8986 43.6954 57.8685 43.4682 57.6732 43.2713C57.633 43.2307 57.5966 43.1847 57.5516 43.1507C57.4389 43.0652 57.4259 42.9769 57.4891 42.845C57.6443 42.521 57.7821 42.1885 57.9257 41.859C58.0655 41.5389 58.0645 41.5475 58.4176 41.5615C58.904 41.5808 58.7752 41.6708 58.9889 41.1586L58.9892 41.1593ZM30.29 57.9217C30.8469 57.9557 31.3848 57.9883 31.93 58.0216C31.9362 57.8859 31.9417 57.7746 31.9472 57.6564C31.3945 57.6204 30.8613 57.5853 30.311 57.5493C30.3312 57.2037 30.3498 56.8818 30.3694 56.5472C30.9352 56.5816 31.4814 56.6145 32.0465 56.6489C32.0551 56.5211 32.063 56.4064 32.0715 56.2806C31.3628 56.2367 30.6806 56.1944 29.9815 56.1511C29.9152 57.2164 29.85 58.2635 29.7833 59.3329C30.4845 59.3792 31.1718 59.4249 31.8785 59.472C31.886 59.3404 31.8926 59.2257 31.8994 59.103C31.3254 59.0677 30.7789 59.0343 30.2196 59C30.2433 58.6379 30.266 58.2916 30.29 57.9213V57.9217ZM60.1837 34.5361C59.823 34.5007 59.4743 34.4664 59.1146 34.431C59.1665 33.871 59.216 33.3344 59.2661 32.7924C59.1287 32.7776 59.0184 32.7659 58.9013 32.7532C58.8463 33.3186 58.7941 33.8566 58.7412 34.3997C58.4042 34.3671 58.0823 34.3355 57.7416 34.3025C57.7948 33.7346 57.8463 33.186 57.8985 32.6312C57.8027 32.6199 57.7285 32.6175 57.6577 32.6007C57.5578 32.5766 57.5248 32.6165 57.5162 32.7113C57.4722 33.2005 57.4238 33.6896 57.3784 34.1788C57.3633 34.341 57.3527 34.5035 57.3396 34.6732C58.408 34.7766 59.4516 34.8772 60.5121 34.9799C60.5808 34.2771 60.6474 33.5921 60.7155 32.8958C60.5822 32.881 60.4719 32.8686 60.3496 32.8552C60.2933 33.4268 60.2387 33.9765 60.1833 34.5361H60.1837ZM35.9276 56.4119C36.4927 56.3222 37.0396 56.2356 37.5954 56.1473C37.57 56.0113 37.5501 55.9031 37.5288 55.7894C36.8304 55.8986 36.1561 56.0044 35.4683 56.112C35.6332 57.168 35.7957 58.2078 35.9606 59.2611C36.6556 59.1525 37.3337 59.0467 38.0262 58.9385C38.0046 58.8069 37.9867 58.6966 37.9675 58.5798C37.4058 58.6654 36.8613 58.7485 36.3045 58.8334C36.2485 58.4658 36.1959 58.1209 36.1427 57.7708C36.7054 57.6802 37.2361 57.5943 37.7727 57.5077C37.7487 57.3744 37.7298 57.2707 37.7081 57.1518C37.1616 57.2373 36.6339 57.3201 36.0836 57.4064C36.0327 57.0807 35.9826 56.7616 35.928 56.4122L35.9276 56.4119ZM57.6265 27.0125C57.5756 27.086 57.5231 27.1468 57.4877 27.2162C57.2424 27.6951 57.241 28.1819 57.4636 28.6673C57.5567 28.8703 57.7086 29.0252 57.9168 29.1159C58.4132 29.3317 58.8872 29.0682 59.0188 28.49C59.092 28.1681 59.1267 27.8373 59.2009 27.5158C59.2579 27.2684 59.4142 27.1434 59.6224 27.1255C59.8254 27.108 60.0198 27.2313 60.1212 27.4495C60.2304 27.6845 60.2699 27.9369 60.2012 28.1843C60.137 28.4158 60.0274 28.635 59.9333 28.8703C59.9669 28.8909 60.0195 28.9242 60.0731 28.9569C60.1243 28.9878 60.1761 29.018 60.2235 29.0462C60.6801 28.5216 60.7309 27.6219 60.3465 27.0795C60.1377 26.7848 59.8429 26.6752 59.4935 26.7174C59.1693 26.7566 58.9477 26.9424 58.8381 27.2482C58.7828 27.4028 58.7491 27.5659 58.7151 27.7271C58.6636 27.9723 58.6416 28.2255 58.5695 28.4639C58.4637 28.8116 58.0878 28.8823 57.8669 28.5924C57.7694 28.4643 57.7141 28.2863 57.6904 28.1238C57.643 27.7964 57.7416 27.4938 57.9497 27.221C57.836 27.1482 57.7367 27.0843 57.6261 27.0129L57.6265 27.0125ZM47.4636 51.3277C48.1146 52.1782 48.7542 53.0137 49.4035 53.8615C49.5938 53.7169 49.769 53.5843 49.9524 53.4448C49.3015 52.5946 48.6608 51.7578 48.0129 50.9113C47.8305 51.0494 47.6587 51.1796 47.4636 51.3273V51.3277ZM57.3565 36.5942C58.2884 36.7858 59.2002 36.9731 60.1232 37.163C60.15 37.0153 60.172 36.8944 60.1961 36.7621C59.2682 36.5698 58.3568 36.3808 57.4362 36.1902C57.5038 35.8504 57.5667 35.5347 57.6323 35.2056C57.5035 35.1819 57.3953 35.162 57.2747 35.1397C57.1115 35.9366 56.9518 36.7158 56.7893 37.51C56.9192 37.5316 57.0329 37.5505 57.1514 37.5705C57.2218 37.2355 57.2871 36.925 57.3565 36.5948V36.5942ZM56.6557 39.207C57.5585 39.4942 58.4451 39.7762 59.341 40.061C59.386 39.9188 59.4231 39.8017 59.4637 39.6739C58.5612 39.3853 57.6749 39.1016 56.7828 38.8161C56.8869 38.4846 56.9834 38.1764 57.0837 37.857C56.9576 37.8181 56.8522 37.7859 56.7371 37.7505C56.4877 38.5292 56.2455 39.286 56.0002 40.0528C56.128 40.0913 56.2338 40.1232 56.3475 40.1572C56.453 39.8315 56.553 39.5241 56.6557 39.207Z" fill="#DDDDDD"/>
<path d="M52.9644 31.9393C52.948 43.2819 43.7662 52.3891 32.5013 52.3768C21.1134 52.3644 12.0199 43.0974 12.07 31.8208C12.1202 20.5511 21.3099 11.4497 32.6376 11.4885C43.8565 11.527 52.995 20.7215 52.9644 31.9393ZM39.6202 13.4377C34.3003 11.3168 26.8623 11.4659 20.775 15.9585C14.7732 20.3879 11.5214 27.9359 13.0886 35.8562C14.5475 43.2304 19.9076 48.431 25.5844 50.4935C25.5366 50.2167 25.4816 49.9494 25.4459 49.6797C25.3257 48.7745 25.2346 47.8645 25.0897 46.9631C24.953 46.1122 24.911 45.2572 24.8994 44.4008C24.875 42.61 24.8767 40.8192 24.8588 39.0283C24.8551 38.646 24.8128 38.2643 24.7881 37.882C24.7815 37.7813 24.7441 37.7205 24.6304 37.6965C24.2954 37.6257 24.0392 37.4378 23.8633 37.1407C23.5551 36.6199 23.4421 36.0599 23.5194 35.4615C23.6338 34.5773 23.9856 33.8201 24.7053 33.2609C24.7369 33.2362 24.7812 33.1863 24.7743 33.1602C24.6915 32.8497 24.6002 32.5419 24.5126 32.2372C24.2133 32.3395 23.9595 32.4436 23.696 32.5123C23.4267 32.5828 23.1501 32.6367 22.8732 32.6652C22.3775 32.7164 21.9024 32.6381 21.4892 32.3354C21.4284 32.2908 21.3624 32.199 21.3648 32.1317C21.3768 31.7964 21.3858 31.4574 21.4449 31.1286C21.5036 30.8036 21.6386 30.4986 21.8921 30.2423C21.9464 30.3918 21.9842 30.5295 22.046 30.6552C22.1051 30.7758 22.1889 30.8847 22.2618 30.9988C22.2858 30.9919 22.3102 30.9854 22.3343 30.9785C22.372 30.7995 22.4102 30.6209 22.46 30.3849C22.6208 30.5711 22.7582 30.7305 22.9 30.8947C23.314 30.7707 23.7118 30.5958 24.0639 30.3179C23.9296 30.3388 23.7949 30.3598 23.6462 30.3828C23.9835 29.6786 24.057 29.0427 23.8537 28.6834C23.7259 28.7469 23.6005 28.8153 23.47 28.872C23.3264 28.9345 23.1999 28.9246 23.0557 28.8277C22.8784 28.7085 22.6702 28.6339 22.472 28.548C22.3628 28.5006 22.3006 28.5264 22.2759 28.6662C22.2377 28.8826 22.1731 29.0967 21.9918 29.2561C21.875 28.9692 21.763 28.694 21.6455 28.4055C21.347 28.6322 21.3889 28.9318 21.372 29.2334C21.1412 29.0743 21.0395 28.8593 20.9863 28.6257C20.9492 28.4639 20.8729 28.3708 20.7283 28.2832C20.1377 27.9263 19.7022 27.4364 19.6836 26.7126C19.6637 25.9287 20.0605 25.3557 20.7461 25.0073C21.4133 24.6683 22.0529 24.7809 22.64 25.231C22.7011 25.278 22.7592 25.3285 22.819 25.3776C22.8351 25.3721 22.8516 25.3666 22.8678 25.3612V23.8737C22.8894 23.8617 22.911 23.8496 22.9327 23.8373C23.3198 24.142 23.707 24.4467 24.0959 24.7528C25.0828 24.2571 25.931 24.6981 26.7815 25.221C27.0921 24.3076 27.179 23.3642 27.303 22.3976C27.4178 22.4759 27.5232 22.5264 27.6005 22.605C27.7967 22.8039 27.9928 23.0056 28.167 23.2237C28.8142 24.0355 29.2055 24.9754 29.5291 25.952C29.807 26.7902 30.0389 27.647 30.4562 28.4337C30.4903 28.4975 30.5256 28.5608 30.5607 28.6247C30.9588 28.39 31.2347 28.4653 31.4545 28.8596C31.6363 29.1853 31.6892 29.5415 31.6524 29.905C31.5854 30.5721 31.2793 31.0723 30.6143 31.2997C30.5844 31.31 30.5566 31.3255 30.5274 31.3389C30.5809 31.6068 30.6256 31.8658 30.6874 32.1204C30.707 32.2011 30.7555 32.2928 30.8197 32.3413C31.5593 32.9029 31.6971 33.6982 31.6672 34.547C31.6459 35.1472 31.3924 35.6621 30.9753 36.0919C30.7867 36.286 30.7311 36.4729 30.8214 36.7539C31.0904 37.5924 31.3989 38.4138 31.7788 39.207C33.931 43.702 37.2443 47.0782 41.6312 49.419C41.7167 49.4647 41.7796 49.4647 41.8648 49.419C42.8184 48.9061 43.7253 48.3218 44.5821 47.6598C44.7418 47.5365 44.8988 47.41 45.0833 47.2641C45.0197 47.2534 44.9988 47.2476 44.9778 47.2469C44.0747 47.2108 43.1715 47.1768 42.2687 47.1383C41.7775 47.1174 41.2801 47.1297 40.7964 47.0552C39.4539 46.8487 38.2777 46.273 37.3257 45.2991C36.929 44.893 36.6037 44.4169 36.2519 43.9679C35.7706 43.3533 35.3786 42.6838 35.053 41.9751C34.3931 40.5388 34.0416 39.0239 33.8833 37.4564C33.772 36.3543 33.739 35.2502 33.8362 34.1496C33.9334 33.0472 34.0523 31.9428 34.245 30.8538C34.4477 29.7102 34.6758 28.5611 35.0248 27.456C35.5611 25.7586 36.323 24.1523 37.347 22.6827C37.3704 22.6494 37.3879 22.6119 37.4157 22.5635C36.9671 22.6583 36.5377 22.7483 36.1083 22.84C35.6789 22.9317 35.2502 23.0269 34.8204 23.1162C34.0485 23.2773 33.3079 22.7717 33.1409 21.9726C32.997 21.2849 33.4899 20.5514 34.2203 20.3972C35.0963 20.212 35.9764 20.0465 36.8541 19.8709C39.6394 19.3144 42.4244 18.7562 45.21 18.2024C45.3066 18.1832 45.366 18.1567 45.3856 18.054C45.4433 17.7517 45.5116 17.4511 45.5635 17.1478C45.5735 17.0901 45.5474 16.998 45.5044 16.9643C44.8833 16.4782 44.2578 15.9977 43.6284 15.5222C43.5807 15.4861 43.4896 15.4772 43.4288 15.4934C43.2378 15.5445 43.052 15.6136 42.8393 15.6837C42.8301 15.5397 42.8108 15.4154 42.8163 15.2921C42.828 15.0368 42.7291 14.8699 42.4604 14.8077C42.2712 15.1811 42.0836 15.5593 41.8867 15.932C41.8534 15.9952 41.7875 16.0636 41.7222 16.0839C40.7806 16.3769 39.8448 16.6947 38.8909 16.9403C37.8637 17.2045 36.8146 17.325 35.749 17.1698C34.582 16.9997 33.6208 16.4748 32.8881 15.5452C32.7823 15.4113 32.6878 15.2683 32.5882 15.1296C32.9118 15.2653 33.2082 15.424 33.5123 15.5658C33.8809 15.7379 34.2636 15.8685 34.6744 15.8987C35.3405 15.9475 35.9664 15.7775 36.5769 15.5411C37.7531 15.0859 38.6782 14.2646 39.6181 13.4374L39.6202 13.4377ZM47.6453 20.6957C47.5817 20.7043 47.5309 20.7084 47.4811 20.718C45.9864 21.01 44.4917 21.301 42.9984 21.5989C42.9046 21.6174 42.8064 21.6734 42.7363 21.7397C42.1629 22.279 41.6707 22.8885 41.2354 23.5425C40.0193 25.3694 39.2303 27.3797 38.6913 29.4965C38.2457 31.2458 37.9894 33.0214 37.9334 34.827C37.8723 36.7923 38.0623 38.7278 38.559 40.633C38.8555 41.7707 39.2725 42.8594 39.8307 43.8934C39.8644 43.9559 39.9317 44.027 39.9956 44.0414C40.1729 44.0823 40.3567 44.0947 40.5377 44.1194C41.4371 44.2414 42.3364 44.364 43.2361 44.4853C43.546 44.5272 43.8565 44.5667 44.1846 44.6096C44.1609 44.5516 44.1482 44.5148 44.1313 44.4794C42.9352 42.0019 42.3137 39.3818 42.2066 36.6384C42.1502 35.1898 42.2299 33.7459 42.4464 32.3117C42.7418 30.3522 43.2509 28.4491 43.9926 26.6109C44.6796 24.9084 45.524 23.2911 46.6621 21.8414C46.9682 21.4515 47.3073 21.088 47.646 20.6954L47.6453 20.6957ZM48.6707 43.4234C50.0431 41.477 51.0407 39.3891 51.6474 37.1166C52.2544 34.8439 52.4413 32.5302 52.2554 30.1898C52.0692 27.85 51.4581 25.6195 50.4406 23.4536C48.6755 26.7531 47.8157 30.2567 47.5735 33.9235C47.3612 37.142 47.6508 40.3083 48.6707 43.4227V43.4234ZM27.9162 39.0644C27.9162 39.1709 27.9138 39.2334 27.9162 39.2953C27.9574 40.2836 28.022 41.2719 28.0365 42.2606C28.0657 44.2685 28.1484 46.2723 28.3975 48.2658C28.5239 49.2788 28.6936 50.2864 28.8472 51.296C28.854 51.3414 28.886 51.4138 28.9173 51.42C29.1721 51.4705 29.4294 51.508 29.6624 51.5458C29.5229 50.4272 29.3583 49.3321 29.2567 48.2314C29.146 47.0311 29.0701 45.8264 29.0224 44.622C28.9623 43.1077 28.9468 41.5917 28.909 40.0768C28.9076 40.0249 28.8922 39.9576 28.8575 39.925C28.5579 39.6443 28.2522 39.3702 27.9159 39.0648L27.9162 39.0644ZM29.8997 32.0561C29.6524 31.0932 29.4092 30.1451 29.1656 29.1973C29.1825 29.1925 29.1989 29.1877 29.2158 29.1829C29.2532 29.2708 29.2893 29.3598 29.3288 29.4471C29.4827 29.7854 29.6297 30.13 29.9066 30.3907C30.1601 30.6295 30.415 30.6192 30.6795 30.3739C30.9303 30.141 30.9815 29.7768 30.797 29.5384C30.6452 29.3423 30.4329 29.3378 30.2776 29.5302C30.2357 29.5821 30.2014 29.6401 30.1512 29.7133C30.1093 29.6429 30.0705 29.5879 30.042 29.5278C29.8472 29.1149 29.6318 28.7098 29.4652 28.2856C28.9963 27.0912 28.5483 25.8881 28.0897 24.6896C28.0275 24.5274 27.9523 24.3701 27.8911 24.2289C27.7104 24.784 27.5311 25.3347 27.3394 25.9238C27.45 26.0166 27.5991 26.1413 27.7613 26.277C27.7091 26.2866 27.6716 26.2959 27.6335 26.3C27.3178 26.3344 27.0615 26.1997 26.8059 26.0331C26.4243 25.784 26.0361 25.5418 25.6355 25.3254C25.3525 25.1726 25.0368 25.1069 24.708 25.1317C24.348 25.1585 23.9856 25.4508 23.9203 25.7858C24.1333 25.5683 24.3889 25.4415 24.6792 25.467C24.9427 25.4896 25.212 25.5432 25.4586 25.6367C26.0148 25.8472 26.482 26.21 26.9468 26.5735C27.1072 26.6992 27.2175 26.8448 27.2779 27.0365C27.359 27.2938 27.4459 27.5491 27.5401 27.8345C27.6768 27.4972 27.6332 27.1784 27.6088 26.8541C27.685 26.9153 27.7561 26.9754 27.798 27.0516C27.9131 27.2612 28.0365 27.4697 28.1199 27.6927C28.594 28.9572 28.7994 30.2818 28.9798 31.6116C29.0162 31.8803 29.0402 32.1506 29.0742 32.4584C29.2993 32.1887 29.5734 32.0922 29.9008 32.0575L29.8997 32.0561ZM27.5349 51.1126C27.5349 51.0748 27.5373 51.0521 27.5349 51.0301C27.4202 50.0954 27.2742 49.1631 27.1979 48.2252C27.0993 47.0119 27.0306 45.7948 26.9952 44.578C26.9385 42.6227 26.92 40.6663 26.8843 38.7102C26.8836 38.6666 26.8839 38.6031 26.8575 38.5828C26.6256 38.4042 26.3879 38.2327 26.1268 38.0411C26.1268 38.1462 26.1261 38.2087 26.1268 38.2709C26.1481 39.7353 26.1546 41.2001 26.1958 42.6642C26.2319 43.9442 26.2903 45.2242 26.3707 46.5021C26.4552 47.8422 26.6465 49.1703 26.9148 50.487C27.02 51.003 27.0172 51.0033 27.5349 51.1133V51.1126ZM47.8428 19.3573C47.702 19.1921 47.5841 19.0375 47.4474 18.9022C47.3973 18.8527 47.2956 18.8159 47.2286 18.829C45.8583 19.0997 44.4893 19.3783 43.1207 19.6562C41.4055 20.0045 39.6906 20.3556 37.975 20.7029C36.8239 20.9358 35.672 21.1643 34.5205 21.3958C34.2976 21.4408 34.1777 21.5964 34.2185 21.7771C34.2605 21.9616 34.4216 22.0396 34.6535 21.9918C34.9101 21.9386 35.1674 21.8881 35.4247 21.8369C37.1694 21.4896 38.9146 21.1433 40.6593 20.7953C42.5886 20.4106 44.5175 20.0245 46.4464 19.6383C46.9033 19.547 47.3598 19.4542 47.8432 19.3567L47.8428 19.3573ZM24.765 34.5866C24.7352 34.6319 24.719 34.6625 24.6974 34.6889C24.3339 35.1352 24.3332 35.8995 24.7012 36.422C24.8949 36.6972 25.1471 36.8772 25.4985 36.8844C25.8932 36.8926 26.1958 36.6948 26.4724 36.445C26.9739 35.9916 27.2766 35.409 27.4992 34.7861C28.0794 33.1637 28.2779 31.4924 28.0804 29.7792C28.0444 29.4663 27.9578 29.1592 27.8946 28.8493C27.8801 28.8521 27.8661 28.8545 27.8516 28.8572C27.8516 28.8957 27.8499 28.9345 27.8516 28.973C27.921 30.2245 27.8108 31.4612 27.5349 32.6824C27.3848 33.3478 27.1725 33.9923 26.7654 34.5529C26.5321 34.8741 26.2436 35.1266 25.8509 35.2393C25.3552 35.3811 24.8997 35.2767 24.8021 34.6597C24.8004 34.6491 24.7922 34.6398 24.7644 34.5869L24.765 34.5866ZM22.3669 27.0479C22.5898 27.0688 22.7503 27.0036 22.8674 26.8438C23.0072 26.6525 23.202 26.6164 23.416 26.6504C23.4497 26.6559 23.5009 26.7329 23.4957 26.7696C23.4672 26.9719 23.3384 27.1039 23.1625 27.197C22.6455 27.4707 21.8021 27.3138 21.4294 26.8651C21.2679 26.6707 21.1666 26.4477 21.2209 26.1853C21.2642 25.9761 21.4864 25.8452 21.695 25.8964C21.9045 25.9479 22.0526 26.2018 21.9924 26.4062C21.9406 26.5827 21.809 26.6209 21.5304 26.534C21.5771 26.6947 21.6668 26.7992 21.8324 26.8201C22.001 26.8414 22.136 26.7607 22.2181 26.5958C22.4061 26.2189 22.2394 25.7816 21.8444 25.6147C21.1821 25.3347 20.3439 25.7225 20.1426 26.413C20.1075 26.5336 20.1031 26.6769 20.1316 26.7988C20.1879 27.042 20.4218 27.0953 20.5819 26.906C20.6534 26.8218 20.6936 26.7098 20.7413 26.6071C20.7894 26.5034 20.8289 26.3959 20.8722 26.29C20.9399 26.714 21.0175 26.9452 21.2243 27.1849C21.6836 27.7174 22.2814 27.9115 22.9622 27.8328C23.4177 27.7803 23.7832 27.5529 23.9832 27.1204C24.1776 26.6999 24.0038 26.3292 23.561 26.1918C23.2693 26.1011 22.9766 26.1197 22.6781 26.1808C22.7365 26.5212 22.6125 26.7967 22.3672 27.0475L22.3669 27.0479ZM21.7197 30.8847C21.6871 31.0262 21.6596 31.1238 21.6427 31.2227C21.6245 31.3296 21.6118 31.4378 21.6043 31.546C21.5864 31.8043 21.7039 31.9806 21.9612 32.03C22.1381 32.064 22.3284 32.0843 22.5046 32.0572C23.5593 31.8947 24.5174 31.479 25.4071 30.9015C25.5047 30.8383 25.5926 30.7243 25.6325 30.6147C25.7726 30.2296 25.8918 29.8366 26.0138 29.445C26.0292 29.3948 26.0306 29.3258 26.0079 29.2811C25.9018 29.0719 25.7472 28.9136 25.5098 28.8462C25.3559 29.219 25.2158 29.5865 25.054 29.9438C24.8908 30.3045 24.707 30.6559 24.3995 30.9256C24.6314 30.3948 24.8169 29.8559 24.8176 29.2681C24.4634 30.177 24.1099 31.0843 23.2528 31.7253C23.2728 31.5944 23.2855 31.5099 23.3003 31.4113C23.2432 31.4223 23.2051 31.4309 23.167 31.4368C22.8911 31.4773 22.6166 31.5354 22.3394 31.5518C22.0536 31.5687 21.8987 31.4388 21.8052 31.1657C21.7781 31.0867 21.7564 31.0056 21.7204 30.8851L21.7197 30.8847ZM28.6496 33.9273C28.6338 33.9273 28.618 33.9273 28.6022 33.927C28.6022 34.153 28.5758 34.3825 28.6077 34.6041C28.674 35.0651 28.9114 35.4165 29.3673 35.5763C29.8142 35.7329 30.2017 35.5993 30.5274 35.2798C30.8688 34.9449 31.0097 34.5189 30.9997 34.051C30.9873 33.4625 30.6009 32.9579 30.0842 32.815C29.7242 32.7154 29.3772 32.8851 29.2591 33.2382C29.1447 33.5807 29.2041 33.9064 29.4236 34.1929C29.4758 34.2609 29.5631 34.3093 29.6435 34.3471C29.7596 34.4017 29.8815 34.3743 29.9502 34.2719C30.0055 34.1894 30.0179 34.0778 30.0516 33.9716C29.9289 33.9716 29.852 33.9881 29.786 33.9682C29.6603 33.9301 29.5806 33.7404 29.605 33.5762C29.6297 33.4107 29.728 33.3138 29.885 33.3035C30.099 33.2894 30.2635 33.3777 30.3766 33.556C30.6466 33.9816 30.5621 34.5656 30.1862 34.9005C29.8527 35.1977 29.4188 35.1898 29.1155 34.8627C29.0011 34.7394 28.9104 34.5879 28.8358 34.4361C28.7568 34.2746 28.7101 34.0977 28.6493 33.9277L28.6496 33.9273ZM25.5122 26.0139C25.0608 25.6665 24.3463 25.7449 24.0509 26.1231C24.551 26.5662 25.1862 26.5188 25.5122 26.0139Z" fill="black"/>
<path d="M18.3322 50.3826C17.157 50.8659 15.988 50.9041 14.7616 50.498C15.5401 51.2376 16.2948 51.9319 17.2687 52.327C17.3058 52.3421 17.3446 52.3538 17.379 52.3737C17.4841 52.4348 17.5408 52.52 17.4889 52.644C17.438 52.7663 17.3357 52.801 17.2209 52.7612C17.0811 52.7127 16.9465 52.6482 16.8128 52.5843C16.1931 52.2885 15.6493 51.8831 15.1416 51.4255C15.0928 51.3816 15.0423 51.34 14.977 51.306C15.2845 52.1078 15.4288 52.9274 15.3621 53.8223C14.9272 53.4125 14.5854 52.9876 14.3185 52.5046C13.943 51.8258 13.7414 51.1037 13.7936 50.3208C13.7963 50.2816 13.7802 50.228 13.753 50.2019C13.2206 49.6859 12.685 49.173 12.1608 48.6698C12.2584 49.6554 12.0749 50.633 11.6087 51.5973C11.3769 51.1181 11.223 50.656 11.1306 50.1751C10.9653 49.3149 11.0062 48.4705 11.3549 47.654C11.3731 47.6117 11.3676 47.541 11.3435 47.5014C10.8169 46.632 10.2862 45.7653 9.75576 44.8982C9.75061 44.8896 9.73927 44.8845 9.71351 44.8642C10.0996 46.1754 9.95638 47.4252 9.37616 48.6904C9.29097 48.4891 9.21849 48.3331 9.15803 48.1724C8.76641 47.1342 8.63827 46.0796 9.00035 45.0061C9.08348 44.7594 9.2233 44.5323 9.32841 44.2926C9.35212 44.239 9.36311 44.1582 9.34009 44.1088C9.03917 43.4616 8.73137 42.8182 8.42494 42.1737C8.41567 42.1541 8.40295 42.1362 8.36414 42.0713C8.32394 42.778 8.15287 43.4049 7.85606 43.9944C7.562 44.5784 7.1879 45.1033 6.6678 45.5681C6.58158 43.981 6.91342 42.5918 8.135 41.5158C7.90587 40.9329 7.67468 40.3454 7.43868 39.745C6.97217 40.8563 6.21229 41.6876 5.15869 42.3166C5.26278 41.6045 5.46203 40.9662 5.79009 40.3692C6.12091 39.7676 6.56646 39.2699 7.13294 38.8944C6.95946 38.2942 6.78151 37.7054 6.62074 37.1125C6.52077 36.7443 6.44314 36.3695 6.36172 35.9964C6.32428 35.825 6.38714 35.7116 6.51734 35.6824C6.63929 35.6553 6.7341 35.7398 6.77567 35.9129C6.78357 35.9462 6.79079 35.9796 6.79937 36.0129C7.01167 36.8112 7.225 37.6096 7.4349 38.4086C7.46032 38.5055 7.50669 38.5357 7.60494 38.5217C8.37135 38.4117 9.09241 38.5718 9.78256 38.8995C10.4579 39.2204 11.0234 39.6845 11.5452 40.2657C10.8097 40.32 10.1305 40.2125 9.46823 39.9861C8.79973 39.7577 8.20818 39.3983 7.66094 38.9129C7.66746 38.9854 7.65922 39.0634 7.68327 39.1297C7.87839 39.6656 8.07557 40.2008 8.28409 40.7316C8.30471 40.7838 8.40124 40.8333 8.46548 40.8377C10.0928 40.9452 11.2858 41.7986 12.2577 43.0346C12.2707 43.0511 12.2779 43.072 12.3013 43.1153C11.6314 43.0998 11.0079 42.9662 10.4033 42.7391C9.79355 42.5104 9.24185 42.1802 8.72278 41.7683C8.73755 41.8116 8.74854 41.8566 8.76778 41.8978C9.05085 42.5028 9.33185 43.1084 9.62247 43.7096C9.65408 43.7752 9.73275 43.8474 9.80111 43.8614C10.9258 44.0957 11.8049 44.7213 12.5414 45.5719C12.7462 45.8082 12.9262 46.0658 13.1481 46.353C12.7657 46.3376 12.4518 46.2448 12.1495 46.1294C11.8413 46.0116 11.5366 45.8759 11.2491 45.7151C10.9612 45.554 10.6963 45.352 10.4047 45.1565C10.4225 45.2015 10.4318 45.2407 10.4517 45.273C10.8149 45.8611 11.1797 46.4482 11.5438 47.036C11.6115 47.1449 11.7063 47.1734 11.8303 47.151C13.0986 46.9233 14.268 47.1957 15.3576 47.8577C15.5737 47.9889 15.7616 48.1535 15.8994 48.3977C14.7029 48.7155 13.5397 48.7766 12.3947 48.1971C12.5263 48.3558 12.6458 48.5269 12.7915 48.6715C13.2171 49.094 13.6548 49.5042 14.0842 49.923C14.1684 50.0047 14.2446 50.0109 14.3563 49.9762C15.4878 49.6234 16.6235 49.5942 17.7596 49.9556C17.988 50.0284 18.2137 50.1126 18.3329 50.3823L18.3322 50.3826Z" fill="black"/>
<path d="M46.2626 9.00179C45.8325 8.26493 45.5405 7.49268 45.4872 6.62115C45.6851 6.77196 45.8902 6.91418 46.0795 7.0753C46.8686 7.74792 47.4295 8.56414 47.601 9.60468C47.6315 9.78916 47.7195 9.8661 47.8596 9.95886C48.3735 10.2989 48.8754 10.6579 49.3811 11.0107C49.4316 11.0458 49.478 11.0867 49.5642 11.1543C49.2657 10.121 49.264 9.12993 49.5247 8.1234C49.5512 8.13988 49.5742 8.14641 49.5848 8.16187C50.2035 9.04783 50.6017 10.0124 50.6023 11.109C50.6023 11.3639 50.5436 11.6184 50.5213 11.874C50.5154 11.94 50.5237 12.0296 50.5635 12.0739C51.2334 12.8249 51.9095 13.5704 52.5842 14.3168C52.5917 14.3251 52.602 14.3309 52.6539 14.3701C52.3306 13.7565 52.1468 13.1454 52.0977 12.5023C52.0486 11.8572 52.0764 11.2144 52.2739 10.571C52.3038 10.5995 52.3265 10.6153 52.3413 10.6363C52.982 11.5583 53.3925 12.5569 53.3578 13.7026C53.3457 14.0939 53.2709 14.4721 53.1328 14.8393C53.1132 14.8912 53.1156 14.9761 53.1458 15.0187C53.5708 15.6143 54.0026 16.2052 54.433 16.7968C54.4423 16.8095 54.4571 16.8187 54.4814 16.84C54.3207 15.4601 54.6951 14.2399 55.4876 13.1131C55.8549 14.221 55.9033 16.0451 54.815 17.3522C55.1472 17.8816 55.4801 18.412 55.8298 18.9696C56.0283 18.028 56.4553 17.231 57.073 16.535C57.2235 16.3656 57.3925 16.2128 57.5773 16.0668C57.6209 17.4663 57.308 18.7346 56.2808 19.7604C56.4608 20.1032 56.6522 20.4402 56.8185 20.7896C57.0782 21.3358 57.3231 21.8888 57.5694 22.4412C57.6457 22.612 57.6048 22.7432 57.4794 22.7896C57.3482 22.838 57.2541 22.7714 57.173 22.5931C56.804 21.7837 56.4316 20.9754 56.0572 20.1599C54.4059 20.6779 53.0149 20.1839 51.7143 19.2296C52.0335 19.0424 53.1936 19.0056 53.7996 19.1028C54.4959 19.2145 55.1441 19.4515 55.7769 19.873C55.7508 19.7648 55.7497 19.6958 55.7195 19.6446C55.4217 19.1437 55.1207 18.6446 54.8143 18.1489C54.7896 18.1087 54.714 18.0699 54.6687 18.0764C53.4337 18.2609 52.3269 17.9173 51.3025 17.2543C50.9988 17.0575 50.7191 16.8232 50.4416 16.5807C51.7769 16.3574 53.0221 16.5817 54.2183 17.2636C54.1888 17.2062 54.1764 17.1733 54.1568 17.1458C53.7501 16.5793 53.3437 16.0125 52.9321 15.4494C52.8978 15.4024 52.826 15.3553 52.7714 15.355C51.6082 15.3484 50.6209 14.8881 49.7325 14.1784C49.4883 13.9833 49.2626 13.7651 49.0414 13.5326C50.0764 13.4649 51.0266 13.7249 51.9411 14.1969C51.6954 13.9163 51.4536 13.6322 51.2028 13.3563C50.9641 13.0939 50.7112 12.8445 50.4742 12.581C50.3681 12.4632 50.2564 12.4666 50.1279 12.515C48.928 12.9654 47.7346 12.9176 46.5491 12.4621C46.2409 12.3436 46.0589 12.2055 45.9345 12.0293C46.4773 11.749 47.0472 11.5593 47.6491 11.4707C48.2506 11.3821 48.8442 11.4202 49.4405 11.5985C49.1327 11.3574 48.8352 11.1011 48.5137 10.8792C48.1523 10.6298 47.7717 10.4075 47.3928 10.1852C47.3344 10.1512 47.2248 10.1502 47.1643 10.1825C46.1372 10.7287 45.0472 10.9551 43.8881 10.8458C43.5199 10.8111 43.3113 10.7222 43.1626 10.5154C44.2158 9.83897 45.355 9.57273 46.6367 9.74759C45.7356 9.15878 44.8582 8.62048 43.8229 8.4123C43.795 8.40681 43.7658 8.40474 43.7387 8.39684C43.6092 8.35871 43.5436 8.27146 43.5748 8.13885C43.6064 8.00522 43.704 7.96159 43.8369 7.98667C44.5168 8.11584 45.1496 8.36902 45.7507 8.70705C45.9221 8.80358 46.0922 8.90286 46.2626 9.00111V9.00179Z" fill="black"/>
<path d="M8.70379 29.9819C6.94116 29.5247 5.1933 29.0716 3.42139 28.6119C3.45952 28.4666 3.4949 28.3309 3.52994 28.1956C3.61994 27.8479 3.71235 27.5006 3.7972 27.1516C3.81953 27.0606 3.85629 27.0255 3.95454 27.0142C4.81129 26.9177 5.66736 26.8136 6.52343 26.7112C6.81199 26.6765 7.09987 26.6398 7.42587 26.5996C7.34961 26.5425 7.29774 26.5027 7.24518 26.4646C6.37812 25.839 5.51243 25.2114 4.64159 24.591C4.52548 24.5085 4.49594 24.435 4.5351 24.2973C4.6653 23.8376 4.78072 23.3739 4.90714 22.8915C6.66599 23.3477 8.41317 23.8005 10.1882 24.2608C10.091 24.638 9.99545 25.0087 9.8948 25.3979C8.66051 25.0774 7.44305 24.7617 6.22594 24.4457C6.2201 24.4556 6.21391 24.4656 6.20807 24.4752C7.30358 25.2694 8.39908 26.064 9.50661 26.8672C9.47123 27.0084 9.44615 27.1547 9.39428 27.2904C9.37676 27.3364 9.29397 27.3777 9.2366 27.3856C8.73849 27.4512 8.239 27.5085 7.7402 27.5687C7.00334 27.6576 6.26647 27.7469 5.52926 27.8356C5.46709 27.8431 5.40456 27.8473 5.33277 27.8909C6.55229 28.209 7.77215 28.5267 9.00026 28.8469C8.89892 29.2337 8.80273 29.601 8.70311 29.9819H8.70379Z" fill="black"/>
<path d="M26.8534 9.95816C25.3636 9.98049 24.098 8.84204 24.0788 7.05433C24.0619 5.48957 25.3612 4.28929 27.0279 4.29169C28.6071 4.2941 29.7981 5.54075 29.7985 7.19105C29.7988 8.75994 28.523 9.95885 26.8534 9.95816ZM26.9311 8.90388C27.7057 8.9025 28.3478 8.43943 28.5226 7.72214C28.6779 7.08422 28.5632 6.48305 28.1633 5.95573C27.5178 5.10413 26.1344 5.16013 25.5456 6.05432C25.099 6.73279 25.2141 7.79978 25.8019 8.41916C26.1083 8.74207 26.4835 8.90869 26.9311 8.90422V8.90388Z" fill="black"/>
<path d="M31.8606 7.31164V9.23402H30.6733C30.7032 7.4147 30.7328 5.60638 30.7627 3.7771C30.8396 3.7771 30.9004 3.77641 30.9612 3.7771C31.762 3.78912 32.5631 3.78809 33.3632 3.81729C34.0591 3.84271 34.6431 4.10963 34.9458 4.77401C35.2436 5.4274 35.2014 6.07632 34.7685 6.67097C34.5627 6.95369 34.2639 7.10896 33.9142 7.21305C34.3082 7.90801 34.695 8.5899 35.0935 9.2931C34.8273 9.2931 34.5854 9.29723 34.3436 9.29173C34.1498 9.28761 33.9176 9.33364 33.7737 9.24364C33.6297 9.15398 33.572 8.92381 33.4806 8.75308C33.2494 8.31989 33.0162 7.88774 32.7939 7.44974C32.7386 7.3405 32.6734 7.30477 32.5566 7.30889C32.3357 7.31714 32.1141 7.3113 31.8609 7.3113L31.8606 7.31164ZM31.921 6.28622C32.38 6.28622 32.8376 6.30683 33.292 6.27969C33.6675 6.25736 33.92 5.95471 33.9265 5.59367C33.9334 5.20033 33.7036 4.88635 33.3212 4.84547C32.9307 4.80356 32.5346 4.81489 32.1409 4.80356C32.0749 4.8015 32.0086 4.80356 31.921 4.80356V6.28656V6.28622Z" fill="black"/>
<path d="M10.5389 23.7054C8.91779 22.8569 7.31593 22.0187 5.7041 21.175C6.30424 20.0293 6.89717 18.8974 7.49903 17.749C7.79824 17.9053 8.08886 18.0568 8.39597 18.2172C7.97893 19.0142 7.56705 19.8008 7.14691 20.604C7.49147 20.7857 7.82744 20.9627 8.17921 21.1478C8.58766 20.3711 8.99027 19.6047 9.40422 18.8173C9.70137 18.9719 9.99131 19.1231 10.3008 19.2842C9.89238 20.064 9.48873 20.8345 9.07891 21.6174C9.4506 21.8115 9.80856 21.998 10.1854 22.1949C10.6048 21.3965 11.0202 20.6064 11.4389 19.8091C11.7464 19.9688 12.038 20.1207 12.3417 20.2783C11.7399 21.423 11.1452 22.5535 10.5396 23.705L10.5389 23.7054Z" fill="black"/>
<path d="M20.9599 10.0368C21.2351 10.6342 21.4999 11.2089 21.773 11.8022C21.4244 11.9664 21.0802 12.1282 20.7143 12.3003C19.9513 10.6497 19.1911 9.00555 18.4268 7.35215C18.4766 7.32433 18.5137 7.29994 18.5532 7.28173C19.2887 6.9413 20.0238 6.59983 20.761 6.26249C21.1444 6.08695 21.546 6.00931 21.9623 6.1079C22.6999 6.28276 23.1118 6.78946 23.2739 7.49644C23.4357 8.2017 23.199 8.79531 22.6099 9.20651C22.2901 9.42946 21.9166 9.57614 21.5652 9.75272C21.3722 9.84959 21.1743 9.93719 20.9599 10.0375V10.0368ZM20.5473 9.11548C20.9692 8.91245 21.389 8.73347 21.7851 8.51259C22.1217 8.32468 22.2176 7.94611 22.064 7.6043C21.9074 7.25562 21.5467 7.06771 21.186 7.20135C20.7545 7.36109 20.3409 7.56858 19.9142 7.75752C20.1289 8.21853 20.3333 8.65721 20.547 9.11548H20.5473Z" fill="black"/>
<path d="M19.6513 11.7232C19.857 12.0059 20.0539 12.2763 20.2579 12.5569C19.1329 13.3721 18.0185 14.1797 16.8876 14.9994C16.7024 14.7431 16.5224 14.502 16.3538 14.2529C16.3232 14.2079 16.3345 14.131 16.3352 14.0691C16.3472 12.7304 16.3606 11.3913 16.3733 10.0526C16.3733 10.019 16.3733 9.98495 16.3733 9.91006C15.6691 10.4199 14.9886 10.9128 14.2957 11.4144C14.0927 11.1361 13.8979 10.8692 13.688 10.5817C14.7969 9.7778 15.9 8.97773 17.012 8.17181C17.1871 8.41572 17.3593 8.64348 17.5162 8.88154C17.5554 8.94097 17.5568 9.03269 17.5564 9.10964C17.5496 10.4315 17.54 11.7531 17.5314 13.075C17.5314 13.1193 17.5379 13.1639 17.5444 13.2474C18.2572 12.7318 18.9477 12.2323 19.6506 11.7235L19.6513 11.7232Z" fill="black"/>
<path d="M37.9167 9.85681C37.5271 9.7778 37.1599 9.70326 36.7607 9.62253C37.0537 8.18281 37.3454 6.75099 37.6422 5.29341C37.1252 5.18589 36.615 5.07974 36.0815 4.96912C36.1489 4.63487 36.2148 4.30886 36.2859 3.95709C37.7123 4.24634 39.1269 4.53319 40.5577 4.82312C40.4883 5.16493 40.4217 5.49197 40.3516 5.83653C39.8322 5.73278 39.3268 5.63144 38.8016 5.52632C38.5068 6.96844 38.2138 8.40198 37.9163 9.85716L37.9167 9.85681Z" fill="black"/>
<path d="M10.697 15.1592C11.8553 16.0729 13.0034 16.9792 14.1697 17.8991C13.9251 18.2093 13.6867 18.5113 13.4411 18.8225C12.2817 17.9084 11.1326 17.0025 9.96698 16.0836C9.63719 16.4999 9.31256 16.9101 8.979 17.3316C8.70624 17.1173 8.44241 16.9098 8.16553 16.6916C9.06625 15.5494 9.96011 14.4154 10.8608 13.2732C11.1381 13.492 11.4019 13.7002 11.6736 13.9142C11.3456 14.3326 11.0254 14.7404 10.697 15.1592Z" fill="black"/>
<path d="M46.9421 52.9426C47.063 53.6156 47.1819 54.2892 47.3052 54.9618C47.3609 55.2665 47.3647 55.2659 47.0837 55.4046C46.4677 54.9412 45.8483 54.4751 45.2293 54.0089C45.2214 54.0154 45.2138 54.0219 45.2059 54.0288C45.5783 54.6403 45.9504 55.2521 46.3331 55.8808C46.1379 56.001 45.95 56.1164 45.7443 56.2432C45.1915 55.3383 44.6422 54.439 44.084 53.5252C44.3588 53.3558 44.6247 53.192 44.9016 53.0212C45.4468 53.4338 45.9912 53.8457 46.5783 54.2899C46.5292 53.9969 46.4914 53.7567 46.4488 53.5176C46.3781 53.1188 46.3018 52.721 46.2345 52.3218C46.2269 52.2775 46.2482 52.203 46.2812 52.1813C46.5241 52.0226 46.7735 51.8742 47.0338 51.7145C47.588 52.6217 48.1348 53.5173 48.6934 54.4318C48.5 54.551 48.3128 54.6664 48.105 54.7949C47.723 54.1703 47.3444 53.551 46.9655 52.9316C46.9576 52.9354 46.9497 52.9395 46.9418 52.9433L46.9421 52.9426Z" fill="black"/>
<path d="M11.8032 12.3913C12.0897 12.1175 12.3649 11.8544 12.6521 11.5803C13.9159 12.8939 15.1705 14.1983 16.3948 15.471C16.1323 15.7678 15.8826 16.0499 15.6146 16.3529C14.3305 15.0183 13.076 13.7142 11.8032 12.3913Z" fill="black"/>
<path d="M49.7422 50.9082C50.2349 51.441 50.6952 51.9392 51.1631 52.4459C50.993 52.6035 50.8302 52.7547 50.6557 52.9161C49.9367 52.1408 49.2218 51.3703 48.4897 50.5809C48.6588 50.4263 48.8171 50.272 48.9879 50.1329C49.0236 50.1037 49.1077 50.1229 49.1668 50.135C49.8535 50.2758 50.5399 50.4197 51.2263 50.5616C51.2799 50.5726 51.3352 50.5757 51.4434 50.5891C50.9707 50.0735 50.5327 49.5956 50.0834 49.1051C50.251 48.9484 50.4121 48.7976 50.5883 48.6331C51.3104 49.4115 52.0243 50.181 52.7543 50.968C52.5994 51.1123 52.4564 51.2576 52.2988 51.3847C52.2582 51.4173 52.1693 51.4067 52.1071 51.3936C51.3816 51.2435 50.6567 51.0893 49.9315 50.9367C49.8845 50.9268 49.8364 50.9223 49.7419 50.9082H49.7422Z" fill="black"/>
<path d="M40.7166 57.0474C40.4421 57.1233 40.1855 57.1944 39.9028 57.2724C39.8498 57.0893 39.7973 56.9076 39.7392 56.7066C39.9931 56.6327 40.2312 56.5623 40.4703 56.4943C40.71 56.4259 40.9505 56.3596 41.2071 56.2878C41.3195 56.6788 41.4287 57.0549 41.5338 57.4321C41.5417 57.46 41.5259 57.4995 41.5105 57.528C41.2088 58.0793 40.7403 58.3943 40.1219 58.4696C39.4678 58.5493 38.9244 58.3377 38.5458 57.7829C38.1391 57.1869 38.1484 56.3816 38.553 55.8547C38.9879 55.2885 39.8004 55.0199 40.4376 55.2476C40.6166 55.3115 40.7791 55.4211 40.9526 55.5115C40.7784 55.6795 40.6286 55.8241 40.4665 55.9807C40.227 55.8055 39.9368 55.7341 39.6118 55.8516C39.2075 55.9979 38.9653 56.3301 38.9584 56.7626C38.9512 57.2315 39.225 57.6602 39.6255 57.8073C39.9907 57.9409 40.4768 57.809 40.7372 57.5111C40.8794 57.3483 40.7282 57.2147 40.7166 57.0477V57.0474Z" fill="black"/>
<path d="M52.918 48.0992C53.2505 47.697 53.5669 47.3139 53.8929 46.9192C54.1969 47.1703 54.4941 47.4105 54.783 47.6599C54.8276 47.6983 54.8493 47.7784 54.8572 47.8423C54.9623 48.6619 54.2859 49.5771 53.4545 49.7461C52.6304 49.9137 51.7616 49.3775 51.5249 48.5551C51.2467 47.5884 52.0045 46.5025 52.9987 46.4451C53.0832 46.4403 53.168 46.4445 53.2756 46.4445C53.2309 46.6746 53.1914 46.8783 53.1505 47.0899C52.7781 47.0786 52.4892 47.2088 52.291 47.5139C51.907 48.1057 52.2783 48.9165 53.0014 49.0656C53.5885 49.1865 54.1732 48.7396 54.2014 48.1435C54.2034 48.1009 54.1746 48.0463 54.143 48.0144C54.0791 47.9498 54.0032 47.8969 53.9152 47.8251C53.7369 48.0398 53.5603 48.2528 53.3772 48.4737C53.223 48.3483 53.0784 48.2301 52.9173 48.0989L52.918 48.0992Z" fill="black"/>
<path d="M45.1605 56.5369C44.9633 56.6211 44.7723 56.7087 44.5751 56.7812C44.5332 56.7966 44.458 56.7698 44.4192 56.7375C44.2983 56.6362 44.1997 56.4558 44.0695 56.4321C43.9372 56.4081 43.7768 56.5324 43.6301 56.5943C43.3883 56.6963 43.1447 56.7949 42.908 56.9079C42.8592 56.9313 42.8077 57.0134 42.8094 57.0666C42.8252 57.5362 42.8286 57.5362 42.3934 57.7221C42.3158 57.7551 42.2385 57.7887 42.1419 57.8303C42.1282 57.5795 42.112 57.349 42.1038 57.1182C42.0739 56.2607 42.0488 55.4033 42.0169 54.5458C42.0135 54.4507 42.0399 54.4009 42.1292 54.3655C42.3202 54.2902 42.505 54.1992 42.6967 54.1264C42.7424 54.1092 42.8269 54.1181 42.8578 54.1501C43.6236 54.9292 44.3848 55.7131 45.1464 56.496C45.1499 56.4995 45.1502 56.5063 45.1602 56.5366L45.1605 56.5369ZM42.6459 54.8275C42.6765 55.3425 42.705 55.8231 42.7349 56.3232C43.0653 56.1807 43.3645 56.0515 43.6768 55.9165C43.3487 55.5644 43.0368 55.2298 42.7246 54.8955C42.7098 54.8797 42.6916 54.8667 42.6459 54.8275Z" fill="black"/>
<path d="M55.9394 45.5409C55.7498 45.2802 55.5866 45.0555 55.4228 44.8312C55.1126 44.4066 54.8041 43.981 54.4898 43.5595C54.4307 43.4801 54.4125 43.4207 54.4746 43.3338C54.5571 43.2184 54.6248 43.0923 54.7089 42.9545C55.6145 43.5097 56.5128 44.06 57.4262 44.6199C57.3568 44.7361 57.2936 44.8422 57.216 44.9721C56.4953 44.531 55.7831 44.095 55.071 43.6588C55.0624 43.666 55.0542 43.6732 55.0456 43.6807C55.0861 43.7371 55.1263 43.7938 55.1675 43.8498C55.6337 44.4856 56.1016 45.1208 56.5643 45.7594C56.6004 45.8092 56.6327 45.9078 56.6083 45.9436C56.5791 45.9861 56.4829 46.0095 56.4221 45.9999C55.6282 45.8735 54.8353 45.7395 54.0418 45.6083C53.9937 45.6004 53.9449 45.5993 53.8838 45.6254C54.5866 46.0573 55.2895 46.4891 56.0109 46.9322C55.9422 47.0476 55.8769 47.1579 55.8013 47.285C54.8948 46.7292 53.9961 46.1785 53.083 45.6189C53.1723 45.4705 53.2496 45.3255 53.3448 45.1933C53.3699 45.1582 53.452 45.1424 53.5028 45.1503C54.1115 45.2445 54.7192 45.3448 55.3273 45.443C55.5166 45.4736 55.7062 45.5032 55.9398 45.5403L55.9394 45.5409Z" fill="black"/>
<path d="M26.3786 55.5839C26.2759 55.7323 26.1855 55.8632 26.0952 55.9938C25.5905 56.722 25.0828 57.4483 24.584 58.1803C24.5047 58.2968 24.4301 58.3054 24.3195 58.2487C24.214 58.1947 24.0725 58.214 24.09 58.0044C24.1546 57.2298 24.1927 56.4531 24.2408 55.677C24.2425 55.6502 24.2408 55.6234 24.2408 55.5568C24.1855 55.6303 24.1512 55.6726 24.1206 55.7172C23.6998 56.3366 23.2772 56.9546 22.8619 57.5774C22.7932 57.6805 22.7355 57.708 22.6149 57.6626C22.3487 57.5623 22.3442 57.5699 22.3593 57.2875C22.4112 56.3167 22.4648 55.3462 22.5177 54.3758C22.5191 54.3476 22.5235 54.3198 22.5297 54.2634C22.6537 54.3057 22.7723 54.3369 22.8808 54.3892C22.9141 54.4053 22.9378 54.4798 22.9354 54.5255C22.9107 54.9591 22.8798 55.3926 22.8499 55.8258C22.8221 56.2339 22.7936 56.642 22.7963 57.0625C23.2927 56.3332 23.7891 55.6035 24.281 54.8807C24.3044 54.878 24.3168 54.8728 24.3264 54.8759C24.6197 54.9718 24.6136 54.9714 24.5936 55.2823C24.5435 56.0635 24.4995 56.8454 24.4504 57.6685C24.4978 57.6063 24.527 57.5723 24.5517 57.5352C24.9798 56.8931 25.4123 56.2545 25.831 55.6063C25.9248 55.461 26.011 55.4256 26.1584 55.506C26.2171 55.5379 26.2858 55.552 26.3783 55.5843L26.3786 55.5839Z" fill="black"/>
<path d="M57.5763 32.0356C57.5763 31.4883 57.5333 30.9607 57.5893 30.4437C57.6374 29.9988 58.0208 29.7381 58.466 29.7329C58.9617 29.7274 59.275 29.9548 59.4052 30.4141C59.4145 30.4464 59.43 30.477 59.4464 30.5185C59.8607 30.2351 60.2688 29.9558 60.7192 29.6477C60.7192 29.8198 60.7312 29.9504 60.7134 30.0768C60.7058 30.131 60.6443 30.1888 60.5931 30.2238C60.2579 30.4519 59.9209 30.6776 59.5797 30.8968C59.4966 30.95 59.4636 31.007 59.4684 31.1043C59.4763 31.2571 59.4705 31.4107 59.4705 31.5759H60.7319V31.9809C59.6828 31.9991 58.634 32.0174 57.5763 32.0359V32.0356ZM57.9222 31.5934H59.1359C59.1208 31.2578 59.1208 30.949 59.0895 30.6432C59.0593 30.3502 58.7759 30.1389 58.4787 30.1572C58.1647 30.1764 57.9339 30.3956 57.9243 30.702C57.915 30.9991 57.9222 31.2966 57.9222 31.5938V31.5934Z" fill="black"/>
<path d="M32.7813 59.461C32.7343 58.4022 32.6875 57.3534 32.6401 56.2902C32.8693 56.2768 33.0785 56.2607 33.288 56.2535C33.5622 56.2438 33.8373 56.2239 34.1104 56.2397C34.5745 56.2665 34.9191 56.6121 34.9552 57.0566C35.0002 57.607 34.7655 57.9646 34.275 58.0927C34.2551 58.0979 34.2351 58.102 34.1942 58.1112C34.499 58.5286 34.7934 58.9316 35.1005 59.3521C34.9483 59.3658 34.8243 59.3892 34.7016 59.3826C34.6477 59.3795 34.5821 59.3266 34.5471 59.2782C34.309 58.9498 34.0744 58.6186 33.8456 58.2837C33.7837 58.193 33.7192 58.1497 33.6068 58.1645C33.4598 58.1837 33.3107 58.1882 33.141 58.2006C33.141 58.2614 33.1386 58.3215 33.1413 58.3813C33.1561 58.6952 33.1688 59.0096 33.1894 59.3232C33.1956 59.4191 33.1685 59.4637 33.0702 59.4613C32.9802 59.4589 32.8899 59.461 32.781 59.461H32.7813ZM33.1166 57.832C33.443 57.8124 33.7521 57.8131 34.0555 57.7705C34.3561 57.7282 34.5471 57.4685 34.5405 57.1741C34.534 56.8708 34.3461 56.6351 34.0307 56.6073C33.7157 56.5795 33.3962 56.6011 33.061 56.6011C33.0805 57.0384 33.0981 57.4235 33.1163 57.832H33.1166Z" fill="black"/>
<path d="M26.7033 55.618C26.8462 55.6444 26.9626 55.6657 27.1021 55.6915C27.0231 56.1364 26.9462 56.5716 26.8637 57.035C27.4625 57.1446 28.054 57.2532 28.6717 57.3662C28.7545 56.9234 28.8366 56.4844 28.9221 56.0247C29.0582 56.0477 29.1835 56.0687 29.3223 56.092C29.1296 57.1443 28.9403 58.1786 28.7483 59.2267C28.6092 59.2006 28.4889 59.1783 28.3488 59.1522C28.436 58.6743 28.5205 58.2109 28.6095 57.7228C28.0063 57.6125 27.4099 57.5033 26.7984 57.3916C26.7084 57.8715 26.6215 58.3346 26.5305 58.82C26.3982 58.799 26.2725 58.7791 26.1289 58.7564C26.3209 57.7066 26.5102 56.6719 26.7029 55.6183L26.7033 55.618Z" fill="black"/>
<path d="M58.989 41.1589C58.7754 41.6711 58.9042 41.5815 58.4177 41.5619C58.0646 41.5478 58.0653 41.5389 57.9258 41.8594C57.7822 42.1888 57.6445 42.5214 57.4892 42.8453C57.426 42.9772 57.439 43.0655 57.5517 43.1511C57.5967 43.1854 57.6331 43.2311 57.6733 43.2716C57.8687 43.4686 57.8987 43.6958 57.7633 43.9532C57.7238 43.9181 57.6857 43.8879 57.6517 43.8532C56.931 43.1181 56.2127 42.3802 55.4878 41.6492C55.3865 41.5468 55.36 41.4616 55.4377 41.34C55.4741 41.283 55.4854 41.2094 55.5239 41.1545C55.5514 41.115 55.605 41.0672 55.6462 41.0683C56.7547 41.095 57.8636 41.1273 58.9894 41.1596L58.989 41.1589ZM55.8791 41.4372C56.3068 41.8652 56.7269 42.2857 57.1491 42.7082C57.3147 42.328 57.4882 41.9295 57.6682 41.5162C57.046 41.4887 56.4555 41.4626 55.8791 41.4369V41.4372Z" fill="black"/>
<path d="M30.2894 57.9213C30.2654 58.2916 30.2427 58.6379 30.219 59C30.7783 59.0343 31.3245 59.068 31.8988 59.103C31.892 59.2253 31.8854 59.3404 31.8779 59.472C31.1712 59.4249 30.4835 59.3796 29.7827 59.3329C29.8494 58.2631 29.9146 57.2164 29.9809 56.1511C30.68 56.1944 31.3622 56.2367 32.0709 56.2806C32.0624 56.406 32.0545 56.5211 32.0459 56.6489C31.4808 56.6145 30.9346 56.5816 30.3688 56.5472C30.3492 56.8818 30.3306 57.2037 30.3104 57.5493C30.8607 57.5853 31.3939 57.62 31.9466 57.6565C31.9411 57.7746 31.9359 57.8859 31.9294 58.0216C31.3842 57.9883 30.8463 57.9557 30.2894 57.9217V57.9213Z" fill="black"/>
<path d="M60.1836 34.5361C60.2389 33.9765 60.2931 33.4268 60.3498 32.8552C60.4721 32.8689 60.5824 32.881 60.7157 32.8957C60.6477 33.5921 60.581 34.2771 60.5123 34.9799C59.4518 34.8775 58.4079 34.7765 57.3398 34.6731C57.3529 34.5034 57.3635 34.341 57.3787 34.1788C57.424 33.6896 57.4724 33.2008 57.5164 32.7113C57.525 32.6165 57.558 32.5769 57.6579 32.6007C57.7287 32.6175 57.8029 32.6195 57.8988 32.6312C57.8465 33.186 57.7954 33.7346 57.7418 34.3025C58.0826 34.3358 58.4044 34.3671 58.7414 34.3997C58.7943 33.8566 58.8465 33.3183 58.9015 32.7532C59.0187 32.7655 59.1289 32.7776 59.2663 32.7923C59.2162 33.3344 59.1667 33.871 59.1148 34.431C59.4745 34.4663 59.8232 34.5007 60.1839 34.5361H60.1836Z" fill="black"/>
<path d="M35.9274 56.4119C35.982 56.7612 36.0322 57.0804 36.083 57.406C36.6334 57.3198 37.161 57.237 37.7076 57.1515C37.7292 57.2707 37.7481 57.3741 37.7721 57.5074C37.2359 57.594 36.7048 57.6795 36.1421 57.7705C36.1954 58.1209 36.2479 58.4658 36.3039 58.833C36.8608 58.7482 37.4053 58.6651 37.9669 58.5795C37.9862 58.6963 38.004 58.8066 38.0257 58.9382C37.3331 59.0464 36.655 59.1522 35.96 59.2607C35.7955 58.2075 35.633 57.168 35.4678 56.1116C36.1555 56.0038 36.8302 55.8983 37.5282 55.7891C37.5495 55.9028 37.5695 56.011 37.5949 56.147C37.0394 56.235 36.4922 56.3219 35.9271 56.4115L35.9274 56.4119Z" fill="black"/>
<path d="M57.6263 27.0125C57.7373 27.0836 57.8366 27.1475 57.9499 27.2207C57.7418 27.4935 57.6432 27.7961 57.6906 28.1235C57.7139 28.2863 57.7696 28.4643 57.8672 28.5921C58.088 28.882 58.4639 28.8112 58.5697 28.4636C58.6422 28.2252 58.6641 27.972 58.7153 27.7267C58.749 27.5656 58.783 27.4024 58.8383 27.2479C58.9475 26.9425 59.1695 26.7566 59.4938 26.7171C59.8431 26.6749 60.1379 26.7844 60.3467 27.0792C60.7311 27.6216 60.68 28.5213 60.2237 29.0459C60.1763 29.0177 60.1245 28.9878 60.0733 28.9566C60.02 28.9243 59.9671 28.8909 59.9335 28.87C60.0276 28.6347 60.1368 28.4155 60.2014 28.184C60.2701 27.9366 60.2306 27.6841 60.1214 27.4492C60.02 27.2307 59.8253 27.1077 59.6226 27.1252C59.4141 27.1431 59.2581 27.2681 59.2011 27.5155C59.1269 27.837 59.0922 28.1678 59.019 28.4897C58.8874 29.0679 58.4134 29.3317 57.917 29.1156C57.7084 29.0249 57.5569 28.87 57.4639 28.667C57.2412 28.1812 57.2426 27.6948 57.4879 27.2159C57.5236 27.1465 57.5762 27.0854 57.6267 27.0122L57.6263 27.0125Z" fill="black"/>
<path d="M47.4634 51.3276C47.6582 51.1799 47.8303 51.0497 48.0127 50.9116C48.6606 51.7581 49.3012 52.5949 49.9522 53.4451C49.7688 53.5843 49.5936 53.7172 49.4033 53.8618C48.7544 53.014 48.1144 52.1782 47.4634 51.328V51.3276Z" fill="black"/>
<path d="M57.3562 36.5942C57.2868 36.9243 57.2216 37.2352 57.1511 37.5698C57.0326 37.5498 56.9189 37.531 56.7891 37.5093C56.9516 36.7151 57.1113 35.9363 57.2745 35.139C57.395 35.1613 57.5033 35.1812 57.6321 35.2049C57.5665 35.5337 57.5036 35.8497 57.4359 36.1895C58.3566 36.3801 59.268 36.5691 60.1958 36.7615C60.1718 36.8941 60.1498 37.015 60.123 37.1623C59.1999 36.9727 58.2882 36.7852 57.3562 36.5935V36.5942Z" fill="black"/>
<path d="M56.6554 39.2067C56.5527 39.5237 56.4531 39.8312 56.3473 40.1569C56.2336 40.1225 56.1278 40.0909 56 40.0524C56.2453 39.286 56.4875 38.5292 56.7369 37.7501C56.8519 37.7855 56.9574 37.8181 57.0835 37.8566C56.9832 38.1761 56.8866 38.4842 56.7826 38.8157C57.6743 39.1012 58.561 39.385 59.4634 39.6735C59.4229 39.8013 59.3858 39.9181 59.3408 40.0607C58.4452 39.7759 57.5582 39.4939 56.6554 39.2067Z" fill="black"/>
<path d="M39.6204 13.4377C38.6805 14.265 37.7557 15.0863 36.5791 15.5415C35.9683 15.7778 35.3424 15.9479 34.6767 15.8991C34.2658 15.8689 33.8831 15.7383 33.5145 15.5662C33.2105 15.4244 32.9144 15.2656 32.5904 15.13C32.6901 15.2687 32.7849 15.4113 32.8903 15.5456C33.6231 16.4752 34.5843 16.9998 35.7512 17.1702C36.8169 17.3254 37.866 17.2049 38.8931 16.9407C39.8474 16.6954 40.7829 16.3773 41.7245 16.0843C41.7897 16.064 41.8557 15.9956 41.889 15.9324C42.0862 15.5594 42.2734 15.1815 42.4627 14.8081C42.7313 14.8703 42.8303 15.0372 42.8186 15.2924C42.8131 15.4158 42.8323 15.5401 42.8416 15.6841C43.0539 15.614 43.2401 15.5446 43.4311 15.4938C43.4919 15.4776 43.5829 15.4865 43.6307 15.5226C44.26 15.998 44.8856 16.4786 45.5067 16.9647C45.5496 16.9984 45.5757 17.0908 45.5658 17.1482C45.5139 17.4515 45.4459 17.7521 45.3878 18.0544C45.3683 18.1568 45.3085 18.1836 45.2123 18.2028C42.4263 18.7566 39.6413 19.3145 36.8564 19.8713C35.9783 20.0469 35.0982 20.2124 34.2225 20.3976C33.4922 20.5518 32.9992 21.2853 33.1432 21.973C33.3101 22.772 34.0508 23.2774 34.8227 23.1166C35.2524 23.0269 35.6812 22.9318 36.1106 22.8404C36.5396 22.749 36.969 22.6587 37.418 22.5639C37.3902 22.6126 37.3727 22.6497 37.3493 22.6831C36.3249 24.1523 35.563 25.7587 35.0271 27.4564C34.6781 28.5615 34.4496 29.7106 34.2473 30.8542C34.0542 31.9428 33.9357 33.0476 33.8385 34.15C33.7413 35.2503 33.7742 36.3547 33.8855 37.4568C34.0439 39.0246 34.3953 40.5392 35.0552 41.9755C35.3809 42.6842 35.7729 43.3537 36.2542 43.9683C36.6059 44.4173 36.9312 44.8938 37.328 45.2995C38.2799 46.2734 39.4562 46.8495 40.7987 47.0556C41.2823 47.1298 41.7798 47.1178 42.271 47.1387C43.1738 47.1772 44.0769 47.2112 44.9801 47.2473C45.0014 47.248 45.0223 47.2538 45.0855 47.2644C44.9007 47.4104 44.7437 47.5369 44.5843 47.6602C43.7272 48.3218 42.8203 48.9062 41.867 49.4194C41.7818 49.4654 41.719 49.4651 41.6334 49.4194C37.2466 47.0786 33.9333 43.7024 31.7811 39.2074C31.4012 38.4142 31.0923 37.5928 30.8237 36.7543C30.7337 36.4733 30.7893 36.2864 30.9776 36.0923C31.3946 35.6625 31.6482 35.1479 31.6695 34.5474C31.6997 33.6986 31.5616 32.9033 30.822 32.3417C30.7577 32.2929 30.7093 32.2012 30.6897 32.1208C30.6279 31.8662 30.5832 31.6075 30.5296 31.3393C30.5588 31.3262 30.5867 31.3104 30.6165 31.3001C31.2816 31.0723 31.5877 30.5722 31.6547 29.9054C31.6911 29.5419 31.6385 29.186 31.4568 28.86C31.237 28.466 30.9611 28.3908 30.563 28.625C30.5279 28.5612 30.4925 28.4979 30.4585 28.434C30.0415 27.6474 29.8093 26.7906 29.5313 25.9524C29.2077 24.9758 28.8165 24.0359 28.1693 23.2241C27.9954 23.006 27.7989 22.8043 27.6028 22.6054C27.5255 22.5271 27.42 22.4763 27.3053 22.3979C27.1813 23.365 27.0944 24.308 26.7838 25.2214C25.9332 24.6985 25.0851 24.2578 24.0981 24.7532C23.7093 24.4471 23.3221 24.1424 22.9349 23.8377C22.9133 23.8497 22.8917 23.8617 22.87 23.8741V25.3615C22.8539 25.367 22.8374 25.3725 22.8212 25.378C22.7618 25.3289 22.7034 25.2784 22.6423 25.2313C22.0555 24.7813 21.4159 24.669 20.7484 25.0077C20.0627 25.356 19.6656 25.9291 19.6859 26.713C19.7044 27.4368 20.14 27.9263 20.7305 28.2836C20.8752 28.3708 20.9514 28.4639 20.9885 28.6261C21.0418 28.8597 21.1435 29.0747 21.3743 29.2338C21.3911 28.9322 21.3492 28.6326 21.6478 28.4059C21.7652 28.6944 21.8772 28.9696 21.994 29.2565C22.1754 29.0971 22.24 28.883 22.2781 28.6666C22.3029 28.5268 22.365 28.501 22.4743 28.5484C22.6725 28.6343 22.8807 28.7089 23.0579 28.8281C23.2022 28.9249 23.3286 28.9349 23.4722 28.8724C23.6028 28.8154 23.7282 28.747 23.8559 28.6838C24.0593 29.0431 23.9858 29.679 23.6485 30.3832C23.7972 30.3602 23.9315 30.3392 24.0662 30.3183C23.7141 30.5962 23.3163 30.7711 22.9023 30.8951C22.7604 30.7309 22.623 30.5715 22.4623 30.3853C22.4121 30.6213 22.3743 30.7999 22.3365 30.9789C22.3125 30.9858 22.2881 30.9923 22.264 30.9992C22.1912 30.8851 22.1074 30.7766 22.0483 30.6556C21.9868 30.5296 21.949 30.3921 21.8944 30.2427C21.6405 30.499 21.5055 30.804 21.4471 31.129C21.3877 31.4578 21.3791 31.7968 21.3671 32.1321C21.3647 32.1994 21.4306 32.2912 21.4915 32.3358C21.9047 32.6385 22.3795 32.7168 22.8755 32.6656C23.1524 32.6371 23.4289 32.5832 23.6983 32.5127C23.9614 32.444 24.2156 32.3403 24.5148 32.2376C24.6028 32.5419 24.6941 32.8501 24.7766 33.1606C24.7835 33.1867 24.7391 33.2365 24.7075 33.2613C23.9879 33.8205 23.6361 34.5777 23.5217 35.4619C23.4444 36.0603 23.5574 36.6206 23.8656 37.1411C24.0414 37.4382 24.2977 37.6261 24.6327 37.6969C24.7464 37.7209 24.7838 37.7817 24.7903 37.8824C24.8151 38.2644 24.857 38.6464 24.8611 39.0287C24.879 40.8195 24.8772 42.6107 24.9016 44.4012C24.9133 45.2576 24.9552 46.1129 25.092 46.9635C25.2369 47.8649 25.328 48.7746 25.4482 49.6801C25.4839 49.9498 25.5392 50.2171 25.5866 50.4939C19.9099 48.4314 14.5502 43.2308 13.0909 35.8566C11.5237 27.9359 14.7755 20.3883 20.7773 15.9589C26.8645 11.4662 34.3022 11.3172 39.6224 13.4381L39.6204 13.4377Z" fill="#DDDDDD"/>
<path d="M47.6454 20.6957C47.3067 21.0884 46.9676 21.4518 46.6615 21.8417C45.5234 23.2914 44.6794 24.9087 43.992 26.6113C43.25 28.4495 42.7408 30.3523 42.4458 32.3121C42.2297 33.7463 42.1496 35.1902 42.206 36.6388C42.3128 39.3822 42.9346 42.0023 44.1307 44.4798C44.1476 44.5148 44.1603 44.5519 44.184 44.61C43.8556 44.567 43.5454 44.5275 43.2355 44.4856C42.3362 44.364 41.4368 44.2414 40.5371 44.1198C40.3561 44.0954 40.1723 44.0827 39.995 44.0418C39.9311 44.027 39.8642 43.9563 39.8301 43.8937C39.2719 42.8597 38.8549 41.7711 38.5584 40.6333C38.0617 38.7281 37.872 36.7927 37.9328 34.8274C37.9888 33.0218 38.2451 31.2461 38.6907 29.4969C39.2297 27.3804 40.0184 25.3698 41.2348 23.5429C41.6704 22.8888 42.1623 22.2794 42.7357 21.7401C42.8061 21.6741 42.9044 21.6181 42.9978 21.5992C44.4911 21.3014 45.9861 21.0104 47.4805 20.7184C47.5303 20.7088 47.5811 20.7047 47.6447 20.6961L47.6454 20.6957Z" fill="#DDDDDD"/>
<path d="M48.6709 43.4235C47.6509 40.3091 47.3613 37.1424 47.5736 33.9243C47.8155 30.2575 48.6757 26.7539 50.4407 23.4543C51.4582 25.6199 52.0697 27.8504 52.2556 30.1905C52.4417 32.5309 52.2545 34.8442 51.6475 37.1174C51.0408 39.3894 50.0432 41.4777 48.6709 43.4242V43.4235Z" fill="#DDDDDD"/>
<path d="M27.9164 39.0644C28.2527 39.3698 28.5581 39.644 28.858 39.9246C28.8927 39.9573 28.9082 40.0246 28.9095 40.0765C28.947 41.5918 28.9628 43.1077 29.0229 44.6217C29.0707 45.8261 29.1466 47.0308 29.2572 48.2311C29.3585 49.3321 29.5234 50.4269 29.6629 51.5454C29.4296 51.5076 29.1723 51.4699 28.9178 51.4197C28.8869 51.4135 28.8549 51.341 28.8477 51.2957C28.6945 50.2861 28.5248 49.2785 28.398 48.2654C28.149 46.2723 28.0662 44.2682 28.037 42.2603C28.0226 41.2716 27.958 40.2833 27.9167 39.2949C27.914 39.2328 27.9167 39.1706 27.9167 39.0641L27.9164 39.0644Z" fill="#DDDDDD"/>
<path d="M29.8999 32.0558C29.5728 32.0908 29.2984 32.187 29.0734 32.4567C29.0394 32.1489 29.0153 31.8785 28.9789 31.6099C28.7989 30.2805 28.5931 28.9555 28.119 27.6909C28.0356 27.4683 27.9122 27.2595 27.7972 27.0499C27.7552 26.9737 27.6841 26.9135 27.6079 26.8524C27.6323 27.177 27.6759 27.4955 27.5392 27.8328C27.445 27.5474 27.3581 27.2921 27.2771 27.0348C27.2166 26.8431 27.1067 26.6971 26.9459 26.5717C26.4811 26.2079 26.0139 25.8455 25.4577 25.6349C25.2111 25.5415 24.9418 25.4879 24.6783 25.4652C24.388 25.4402 24.1324 25.5666 23.9194 25.784C23.9847 25.4494 24.3471 25.1571 24.7071 25.13C25.0362 25.1056 25.3516 25.1708 25.6347 25.3237C26.0352 25.5405 26.4234 25.7823 26.8051 26.0314C27.0606 26.1983 27.3169 26.3326 27.6326 26.2983C27.6707 26.2942 27.7082 26.2849 27.7604 26.2753C27.5986 26.1396 27.4492 26.0149 27.3386 25.9221C27.5302 25.333 27.7096 24.7823 27.8903 24.2272C27.9514 24.3684 28.027 24.5254 28.0888 24.6878C28.5474 25.8864 28.9954 27.0894 29.4643 28.2839C29.6309 28.7081 29.846 29.1131 30.0411 29.5261C30.0696 29.5862 30.1084 29.6415 30.1503 29.7116C30.2005 29.6387 30.2348 29.5807 30.2767 29.5285C30.432 29.3361 30.6443 29.3406 30.7961 29.5367C30.981 29.7755 30.9298 30.1393 30.6787 30.3722C30.4145 30.6175 30.1592 30.6278 29.9057 30.389C29.6285 30.1279 29.4815 29.7837 29.3279 29.4453C29.2884 29.3581 29.2523 29.2691 29.2149 29.1812C29.1981 29.186 29.1816 29.1908 29.1647 29.1956C29.4083 30.1437 29.6515 31.0915 29.8989 32.0544L29.8999 32.0558Z" fill="#DDDDDD"/>
<path d="M27.5355 51.1123C27.0178 51.0023 27.0206 51.002 26.9155 50.486C26.6468 49.1696 26.4555 47.8412 26.3713 46.5011C26.2909 45.2232 26.2325 43.9432 26.1965 42.6632C26.1552 41.1995 26.1487 39.7343 26.1274 38.2699C26.1264 38.2073 26.1274 38.1452 26.1274 38.04C26.3888 38.2321 26.6266 38.4031 26.8581 38.5818C26.8845 38.602 26.8842 38.6656 26.8849 38.7092C26.9206 40.6653 26.9392 42.6217 26.9958 44.577C27.0312 45.7938 27.0999 47.0109 27.1985 48.2242C27.2748 49.1621 27.4208 50.0944 27.5355 51.0291C27.5383 51.0511 27.5355 51.0738 27.5355 51.1116V51.1123Z" fill="#DDDDDD"/>
<path d="M47.8435 19.357C47.3601 19.4546 46.9036 19.5473 46.4467 19.6387C44.5178 20.0245 42.5889 20.4106 40.6596 20.7957C38.9149 21.1437 37.1701 21.49 35.425 21.8373C35.1677 21.8885 34.9104 21.939 34.6538 21.9922C34.4219 22.04 34.2608 21.962 34.2189 21.7775C34.178 21.5968 34.2979 21.4412 34.5208 21.3962C35.672 21.1643 36.8242 20.9362 37.9753 20.7033C39.6909 20.356 41.4058 20.0049 43.121 19.6566C44.49 19.3783 45.8586 19.1001 47.2289 18.8294C47.2959 18.816 47.3976 18.8531 47.4477 18.9025C47.5844 19.0379 47.7023 19.1925 47.8431 19.3577L47.8435 19.357Z" fill="#DDDDDD"/>
<path d="M24.7656 34.5862C24.7931 34.6388 24.8017 34.6484 24.8034 34.659C24.9006 35.276 25.3562 35.3808 25.8522 35.2386C26.2449 35.1262 26.5334 34.8737 26.7667 34.5522C27.1738 33.9916 27.3861 33.3471 27.5362 32.6817C27.812 31.4605 27.922 30.2238 27.8529 28.9723C27.8508 28.9338 27.8529 28.8954 27.8529 28.8565C27.8673 28.8538 27.8814 28.8514 27.8958 28.8486C27.9591 29.1585 28.0453 29.4656 28.0817 29.7786C28.2792 31.4917 28.0807 33.163 27.5004 34.7855C27.2778 35.4083 26.9752 35.9909 26.4736 36.4443C26.1971 36.6941 25.8945 36.892 25.4997 36.8837C25.1483 36.8765 24.8962 36.6965 24.7024 36.4213C24.3345 35.8988 24.3352 35.1345 24.6986 34.6882C24.7203 34.6618 24.7364 34.6312 24.7663 34.5859L24.7656 34.5862Z" fill="#DDDDDD"/>
<path d="M22.3675 27.0475C22.6124 26.7967 22.7368 26.5212 22.6784 26.1808C22.9769 26.1197 23.2696 26.1011 23.5613 26.1918C24.0041 26.3292 24.1779 26.6999 23.9834 27.1203C23.7835 27.5528 23.4177 27.7803 22.9625 27.8328C22.2816 27.9111 21.6842 27.7174 21.2246 27.1849C21.0178 26.9451 20.9401 26.714 20.8725 26.29C20.8292 26.3959 20.7897 26.5034 20.7416 26.6071C20.6942 26.7098 20.6536 26.8218 20.5822 26.906C20.4221 27.0953 20.1882 27.042 20.1318 26.7988C20.1037 26.6769 20.1078 26.5336 20.1428 26.413C20.3441 25.7225 21.1823 25.3347 21.8446 25.6147C22.24 25.7816 22.4067 26.2193 22.2184 26.5958C22.1363 26.7607 22.0013 26.8414 21.8326 26.8201C21.6667 26.7991 21.577 26.6947 21.5307 26.5339C21.8093 26.6209 21.9408 26.5824 21.9927 26.4062C22.0528 26.2018 21.9048 25.9479 21.6952 25.8964C21.4864 25.8452 21.2644 25.9761 21.2211 26.1853C21.1669 26.4477 21.2682 26.6707 21.4297 26.8651C21.8024 27.3138 22.6458 27.4707 23.1628 27.197C23.3386 27.1039 23.4675 26.9719 23.496 26.7696C23.5011 26.7325 23.4499 26.6556 23.4163 26.6504C23.2023 26.6164 23.0078 26.6525 22.8677 26.8438C22.7509 27.0035 22.5901 27.0688 22.3672 27.0479L22.3675 27.0475Z" fill="#DDDDDD"/>
<path d="M21.7204 30.884C21.7568 31.005 21.7785 31.0857 21.8053 31.1647C21.8987 31.4382 22.0536 31.5677 22.3395 31.5508C22.6167 31.5343 22.8915 31.4763 23.167 31.4357C23.2055 31.4303 23.2433 31.4213 23.3003 31.4103C23.2855 31.5086 23.2728 31.5934 23.2529 31.7243C24.11 31.0833 24.4638 30.176 24.8177 29.2671C24.817 29.8548 24.6315 30.3942 24.3996 30.9246C24.707 30.6553 24.8908 30.3035 25.054 29.9428C25.2158 29.5852 25.3563 29.2179 25.5099 28.8452C25.7469 28.9125 25.9018 29.0709 26.008 29.2801C26.0306 29.3248 26.0296 29.3942 26.0138 29.444C25.8922 29.8356 25.7727 30.2286 25.6325 30.6137C25.5926 30.7233 25.5047 30.8373 25.4071 30.9005C24.5174 31.478 23.5593 31.8937 22.5047 32.0562C22.3285 32.0833 22.1381 32.063 21.9612 32.029C21.7039 31.9795 21.5864 31.8033 21.6043 31.545C21.6119 31.4368 21.6246 31.3286 21.6428 31.2217C21.6596 31.1228 21.6868 31.0252 21.7197 30.8837L21.7204 30.884Z" fill="#DDDDDD"/>
<path d="M28.65 33.9267C28.7108 34.0967 28.7575 34.274 28.8365 34.4351C28.9107 34.5869 29.0017 34.7384 29.1161 34.8617C29.4195 35.1888 29.8533 35.1967 30.1869 34.8995C30.5631 34.5646 30.6472 33.9806 30.3772 33.555C30.2642 33.3767 30.0996 33.2884 29.8856 33.3025C29.729 33.3128 29.6304 33.4096 29.6057 33.5752C29.5813 33.7394 29.661 33.9291 29.7867 33.9672C29.8527 33.9871 29.9296 33.9706 30.0522 33.9706C30.0186 34.0768 30.0062 34.1884 29.9509 34.2709C29.8822 34.3732 29.7599 34.4007 29.6441 34.3461C29.5637 34.3083 29.4765 34.2599 29.4243 34.1919C29.2044 33.9054 29.1453 33.5797 29.2597 33.2372C29.3776 32.8841 29.7249 32.7144 30.0849 32.814C30.6015 32.9569 30.988 33.4615 31.0004 34.05C31.0103 34.5179 30.8695 34.9438 30.528 35.2788C30.2024 35.5983 29.8149 35.7319 29.3679 35.5752C28.9121 35.4155 28.6747 35.0641 28.6084 34.6031C28.5768 34.3818 28.6029 34.152 28.6029 33.926C28.6187 33.926 28.6345 33.926 28.6503 33.9263L28.65 33.9267Z" fill="#DDDDDD"/>
<path d="M25.5126 26.0132C25.1866 26.5181 24.5514 26.5656 24.0513 26.1224C24.3467 25.7442 25.0612 25.6659 25.5126 26.0132Z" fill="#DDDDDD"/>
<path d="M26.9311 8.90383C26.4831 8.9083 26.1083 8.74169 25.8019 8.41877C25.2141 7.79974 25.099 6.7324 25.5456 6.05394C26.1344 5.15974 27.5178 5.10409 28.1633 5.95534C28.5632 6.483 28.6779 7.08383 28.5226 7.72176C28.3481 8.43904 27.7057 8.90246 26.9311 8.90349V8.90383Z" fill="#DDDDDD"/>
<path d="M31.9214 6.2862V4.80319C32.009 4.80319 32.0749 4.80147 32.1412 4.80319C32.5349 4.81453 32.931 4.80319 33.3216 4.8451C33.7043 4.88633 33.9341 5.20031 33.9269 5.5933C33.9204 5.95435 33.6679 6.25665 33.2924 6.27933C32.8379 6.30646 32.3803 6.28585 31.9214 6.28585V6.2862Z" fill="#DDDDDD"/>
<path d="M20.5473 9.11549C20.3337 8.65723 20.1293 8.21855 19.9146 7.75753C20.3412 7.56859 20.7548 7.36145 21.1863 7.20136C21.547 7.06773 21.9077 7.25564 22.0643 7.60432C22.2179 7.94613 22.1221 8.32469 21.7854 8.5126C21.389 8.73349 20.9692 8.91247 20.5477 9.11549H20.5473Z" fill="#DDDDDD"/>
<path d="M42.646 54.8271C42.6917 54.8663 42.7099 54.8794 42.7247 54.8952C43.0369 55.2294 43.3489 55.564 43.6769 55.9161C43.3643 56.0511 43.0654 56.1803 42.735 56.3229C42.7051 55.8223 42.6766 55.3418 42.646 54.8271Z" fill="#DDDDDD"/>
<path d="M57.9221 31.5934C57.9221 31.2963 57.9149 30.9988 57.9242 30.7016C57.9338 30.3952 58.1646 30.1764 58.4786 30.1568C58.7758 30.1386 59.0592 30.3499 59.0894 30.6429C59.1207 30.9486 59.1207 31.2578 59.1358 31.5931H57.9221V31.5934Z" fill="#DDDDDD"/>
<path d="M33.1168 57.832C33.0986 57.4238 33.0811 57.0384 33.0615 56.6011C33.3968 56.6011 33.7163 56.5795 34.0313 56.6073C34.3463 56.6351 34.5342 56.8708 34.5411 57.1741C34.5476 57.4685 34.3563 57.7282 34.056 57.7705C33.7527 57.8131 33.4432 57.8124 33.1172 57.832H33.1168Z" fill="#DDDDDD"/>
<path d="M55.8789 41.4372C56.4553 41.4626 57.0459 41.4887 57.668 41.5166C57.488 41.9298 57.3145 42.328 57.1489 42.7086C56.7267 42.286 56.3066 41.8656 55.8789 41.4375V41.4372Z" fill="#DDDDDD"/>
</g>
<defs>
<clipPath id="clip0_1668_5301">
<rect width="63.9993" height="64" fill="white" transform="translate(0.585449)"/>
</clipPath>
</defs>
</svg>
