<svg width="68" height="64" viewBox="0 0 68 64" fill="none" xmlns="http://www.w3.org/2000/svg">
<ellipse cx="34" cy="39" rx="25.5" ry="24" fill="black"/>
<path d="M32.4062 13L31.3438 15L37.1875 16L38.25 15V13.5L38.7812 12L38.25 10L38.7812 8.5L36.125 4.5L34 0.5L30.2812 5V9L31.875 12L32.4062 13Z" fill="black"/>
<path d="M33.736 0H34.2229C34.864 0.133508 35.1894 0.545476 35.4101 1.10087C36.3089 3.3625 37.4547 5.50397 38.9771 7.45815C39.4417 8.05436 39.4327 8.62768 38.9592 9.22541C38.8902 9.31277 38.8931 9.37418 38.9487 9.46115C39.0598 9.63509 39.1617 9.81438 39.2639 9.99328C39.4725 10.3591 39.5187 10.7421 39.3597 11.1315C39.2948 11.2906 39.2948 11.4252 39.3585 11.5866C39.6068 12.216 39.356 12.8717 38.7511 13.2249C38.7008 13.2543 38.6509 13.2852 38.5835 13.326C38.6699 13.4305 38.7604 13.5175 38.8229 13.6197C38.9694 13.8593 39.1207 14.0992 39.2319 14.3537C39.2781 14.4593 39.3053 14.5162 39.4311 14.5413C40.9437 14.8419 42.4255 15.2428 43.8566 15.7948C50.0613 18.1888 54.7103 22.1872 57.7673 27.7995C59.3663 30.7351 60.2654 33.8642 60.5162 37.1557C60.5393 37.459 60.5677 37.7618 60.5937 38.0647V40.0097C60.5815 40.0776 60.562 40.1455 60.5588 40.2138C60.4951 41.6561 60.2926 43.0812 59.9485 44.4876C58.5735 50.109 55.5113 54.7601 50.7632 58.4011C46.4526 61.7067 41.4939 63.5377 35.9409 63.9294C35.6386 63.9508 35.3367 63.9764 35.0348 64H33.0065C32.5155 63.963 32.0246 63.9291 31.534 63.8886C30.06 63.7669 28.6058 63.5331 27.1775 63.1692C21.5445 61.7346 16.8796 58.895 13.2251 54.6151C9.79205 50.595 7.91181 45.9932 7.48334 40.8604C7.45859 40.564 7.43181 40.2676 7.40625 39.9708C7.40625 39.3227 7.40625 38.6743 7.40625 38.0262C7.41761 37.9648 7.43465 37.9033 7.43993 37.8416C7.48294 37.3289 7.52311 36.8162 7.56571 36.3035C7.67242 35.0291 7.91749 33.7749 8.2778 32.5455C10.1657 26.0986 14.1782 21.1355 20.2088 17.6254C23.357 15.7929 26.8063 14.7031 30.4746 14.2335C30.6503 14.211 30.7501 14.1408 30.824 13.992C30.9729 13.6922 31.2204 13.4797 31.5495 13.3607C31.7016 13.3058 31.8355 13.2555 31.8388 13.0678C31.8424 12.8401 31.8964 12.6108 31.6152 12.4689C31.4204 12.3709 31.2265 12.2564 31.0646 12.1164C29.9581 11.1586 29.3714 9.95399 29.1957 8.56283C29.0472 7.38796 29.2736 6.26153 29.7378 5.17363C30.4048 3.61006 31.3803 2.22158 32.4965 0.913577C32.8353 0.516486 33.1485 0.0968888 33.7352 0.000381452L33.736 0ZM17.6055 37.3525C17.565 37.38 17.5564 37.3827 17.5556 37.3869C17.3889 38.4851 17.2326 39.5844 17.0505 40.6803C16.9985 40.992 17.0468 41.2494 17.2477 41.5008C18.9011 43.566 20.897 45.2715 23.2519 46.6096C24.3925 47.2577 25.1208 48.2033 25.4235 49.4289C25.4965 49.7249 25.5395 50.0278 25.6223 50.3211C25.7083 50.6255 25.9518 50.7167 26.2471 50.5683C26.3648 50.5092 26.4821 50.4375 26.5762 50.3494C27.5764 49.4098 28.8192 48.8148 30.0376 48.185C30.0701 48.1682 30.107 48.1583 30.1703 48.1347C30.0713 48.4238 29.9788 48.6866 29.8916 48.951C29.7561 49.361 29.8364 49.5052 30.2803 49.6174C30.8593 49.7638 31.4411 49.8996 32.0213 50.0411C32.0518 50.0484 32.0781 50.0701 32.1163 50.0904C31.5616 50.164 31.0252 50.2227 30.4937 50.3078C29.3385 50.4928 28.2467 50.8426 27.2704 51.4689C26.0017 52.2826 25.2636 53.3987 25.1326 54.8467C25.1029 55.1747 25.1281 55.507 25.1281 55.8373C25.1066 55.8423 25.0855 55.8472 25.064 55.8522C24.9914 55.7198 24.8851 55.5943 24.8522 55.454C24.7556 55.0408 24.6392 54.6239 24.6197 54.2047C24.5803 53.3735 24.6071 52.5397 24.5933 51.7073C24.5848 51.1996 24.588 50.6885 24.5215 50.1861C24.3856 49.1611 23.9238 48.3479 22.9009 47.8116C20.7468 46.6821 18.8698 45.2162 17.2574 43.4573C17.0298 43.209 16.8062 42.9568 16.5599 42.6841C16.5124 42.8001 16.4727 42.8847 16.4423 42.9725C16.3217 43.3215 16.2102 43.6736 16.084 44.0211C15.9148 44.4864 15.7139 44.9415 15.3001 45.2665C15.1329 45.3977 15.1382 45.5011 15.2278 45.6678C16.2053 47.4759 17.444 49.1077 18.9421 50.5664C19.3738 50.9872 19.812 51.4022 20.238 51.8275C20.7764 52.3653 20.998 53.0329 21.1136 53.7779C20.9331 53.6566 20.7764 53.5581 20.6271 53.4502C19.1072 52.3531 17.8327 51.0344 16.7315 49.5689C15.8669 48.4181 15.0376 47.2436 14.1972 46.0767C14.069 45.8986 13.9234 45.7861 13.6828 45.7552C12.6749 45.6262 12.0383 45.0914 11.7534 44.1714C11.2637 42.5891 10.9131 40.9851 10.8458 39.333C10.7764 37.6344 10.8332 35.9431 11.133 34.2628C11.5092 32.1537 12.1981 30.1408 13.2291 28.2347C14.7495 25.423 16.8452 23.0485 19.4529 21.0741C22.5455 18.7323 26.0674 17.287 29.9776 16.6607C30.0993 16.6412 30.2608 16.5478 30.3042 16.4494C30.4235 16.1808 30.4896 15.8913 30.5854 15.5831C30.4604 15.5907 30.3797 15.5888 30.3018 15.6018C29.6911 15.704 29.0768 15.7898 28.4719 15.9165C22.7727 17.1074 18.0661 19.8199 14.3591 24.0643C11.0478 27.8555 9.2029 32.2045 8.75252 37.0828C8.6097 38.6315 8.63445 40.1787 8.81744 41.7251C9.00814 43.3379 9.36763 44.9137 9.92473 46.449C12.0302 52.2524 15.9456 56.6521 21.5977 59.6854C25.2105 61.6243 29.1275 62.5501 33.2727 62.6592C35.4905 62.7176 37.686 62.5352 39.8442 62.0435C45.51 60.7531 50.2013 58.004 53.8347 53.7035C57.3587 49.5323 59.1695 44.7737 59.2892 39.4486C59.3347 37.4201 59.0973 35.4186 58.5706 33.4507C56.8904 27.1758 53.1089 22.3268 47.3042 18.8773C44.5293 17.2283 41.4891 16.2045 38.2569 15.6807C37.9757 15.635 37.6913 15.6056 37.3638 15.5625C37.4502 15.8512 37.533 16.098 37.5959 16.349C37.647 16.5523 37.7789 16.6355 37.9891 16.6702C38.5202 16.7572 39.055 16.8346 39.5768 16.959C44.8852 18.2235 49.2206 20.883 52.5432 24.9851C55.308 28.3987 56.7939 32.2602 57.0961 36.5305C57.1931 37.9022 57.1724 39.2731 56.9878 40.6403C56.821 41.8754 56.5589 43.09 56.1572 44.2774C55.8765 45.1067 55.2979 45.6018 54.3724 45.7327C54.105 45.7704 53.8802 45.8829 53.7219 46.1091C53.0427 47.0788 52.3777 48.0584 51.6664 49.007C50.5222 50.5325 49.2547 51.9602 47.7201 53.1599C47.4446 53.375 47.1545 53.5738 46.8466 53.7985C46.8413 53.2122 47.2138 52.3558 47.6654 51.8836C47.8958 51.6425 48.1405 51.4136 48.3718 51.1733C49.0964 50.4196 49.8479 49.6864 50.5328 48.9018C51.4128 47.8936 52.131 46.7805 52.7473 45.6102C52.8188 45.4748 52.8151 45.389 52.6796 45.2886C52.3753 45.0636 52.1696 44.7626 52.0373 44.4247C51.8628 43.9791 51.7111 43.526 51.5475 43.0766C51.5033 42.9549 51.4538 42.8351 51.3962 42.6868C51.3134 42.7745 51.2558 42.8355 51.1986 42.8966C50.7969 43.3257 50.4102 43.7686 49.9907 44.1817C48.4927 45.6575 46.8007 46.9026 44.9067 47.9001C44.2729 48.2338 43.8538 48.7152 43.6306 49.3618C43.4391 49.9168 43.3539 50.4852 43.3518 51.0657C43.3486 52.0445 43.3543 53.0237 43.3482 54.0025C43.3454 54.4931 43.2886 54.979 43.1043 55.4425C43.0479 55.5848 42.9575 55.7149 42.8828 55.8507C42.8645 55.8442 42.8463 55.8381 42.8284 55.8316C42.8284 55.5295 42.8459 55.2266 42.8252 54.9256C42.7461 53.7599 42.2644 52.7647 41.3462 51.9721C40.1793 50.965 38.7559 50.4939 37.2218 50.2696C36.7609 50.2021 36.2967 50.1541 35.8342 50.0968C36.0163 50.0186 36.2022 49.9729 36.388 49.9267C36.8307 49.8169 37.2754 49.7127 37.7156 49.5949C38.123 49.4858 38.1883 49.3629 38.0698 48.9796C38.0378 48.8762 37.9972 48.7755 37.9627 48.6725C37.9043 48.4997 37.8479 48.3261 37.7797 48.1205C38.2581 48.367 38.7032 48.5909 39.143 48.8239C39.9399 49.2462 40.697 49.72 41.3466 50.3337C41.4493 50.431 41.5791 50.5096 41.7094 50.5729C41.9946 50.7121 42.2239 50.6191 42.3298 50.333C42.3541 50.2677 42.3691 50.1983 42.3805 50.13C42.4973 49.4442 42.6734 48.7778 43.0475 48.1682C43.5178 47.4015 44.2181 46.8728 45.0077 46.4177C47.2766 45.1097 49.1796 43.4245 50.764 41.4177C50.904 41.2399 50.9621 41.0511 50.9251 40.8291C50.7608 39.8396 50.6022 38.8494 50.4427 37.8591C50.4175 37.7023 50.4005 37.5448 50.3786 37.3758C50.3368 37.3975 50.3234 37.4014 50.3145 37.4098C50.2179 37.499 50.1209 37.5871 50.0268 37.6787C49.027 38.6487 47.9437 39.5276 46.778 40.3164C45.9219 40.8958 45.0268 41.4154 44.0773 41.8495C43.9175 41.9227 43.7832 42.0082 43.7994 42.2035C43.8497 42.8176 43.9114 43.4314 43.9426 44.0463C43.9633 44.4494 43.9966 44.8645 43.924 45.2574C43.7576 46.1561 43.2228 46.8747 42.4945 47.4541C41.7447 48.0504 40.8703 48.2552 39.9006 48.0603C38.9811 47.8753 38.2248 47.4084 37.533 46.8366C37.1999 46.5612 36.883 46.2682 36.5487 45.9749C36.1738 46.2671 35.7433 46.5677 35.667 47.1375C35.9827 47.0929 36.2776 47.0509 36.5791 47.0082C36.6988 47.3634 36.8148 47.6937 36.9207 48.0267C37.04 48.4024 36.937 48.5676 36.5268 48.666C35.8346 48.8319 35.1415 48.9937 34.4489 49.1569C34.1856 49.2191 33.9255 49.263 33.6512 49.1939C33.1436 49.0662 32.632 48.9536 32.1224 48.8327C31.8481 48.7675 31.5714 48.7091 31.3028 48.6279C31.0589 48.5543 30.9412 48.4154 30.9875 48.2445C31.0995 47.8295 31.2342 47.4198 31.3616 47.0006C31.6659 47.046 31.9422 47.0868 32.2189 47.128C32.2693 46.7351 31.8521 46.1927 31.3543 45.9989C31.0837 46.2415 30.813 46.4898 30.5363 46.7321C30.0644 47.1452 29.554 47.5075 28.9661 47.765C28.2183 48.0923 27.4469 48.2495 26.629 48.0332C25.122 47.635 23.908 46.0744 23.9608 44.5582C23.9871 43.8036 24.0723 43.0507 24.1462 42.2984C24.1665 42.0921 24.1072 41.962 23.9113 41.8651C23.4637 41.6431 23.0162 41.42 22.5812 41.1777C20.8966 40.2397 19.392 39.087 18.0267 37.771C17.8827 37.6321 17.7427 37.4887 17.6063 37.3529L17.6055 37.3525ZM17.2294 31.7608C17.2294 31.8268 17.2245 31.8589 17.2302 31.889C17.4359 32.9979 17.5313 34.1171 17.5905 35.2401C17.5966 35.3575 17.6558 35.491 17.7346 35.5845C18.5444 36.5419 19.4444 37.4185 20.4308 38.2169C22.1199 39.5836 24.0277 40.6098 26.0727 41.4222C26.1993 41.4726 26.3242 41.526 26.5003 41.5989C26.4196 41.6145 26.3956 41.624 26.3725 41.6233C25.9209 41.6065 25.4689 41.5954 25.0181 41.5664C24.879 41.5577 24.78 41.5687 24.7877 41.7152C24.7909 41.7766 24.8461 41.8426 24.8924 41.8945C25.303 42.3545 25.8045 42.7024 26.3851 42.9503C27.2883 43.3356 28.2459 43.5443 29.2156 43.7094C30.1111 43.862 30.9782 44.0829 31.7369 44.583C31.7832 44.6135 31.8412 44.6283 31.9175 44.6608C31.7568 43.8986 31.1879 43.4291 30.643 42.9282C31.3941 42.6658 32.0875 42.3625 32.6474 41.7694C32.5476 42.3415 32.376 42.8264 31.9524 43.2322C32.8385 43.9673 33.4471 44.8751 33.9823 45.8726C34.5049 44.8572 35.1188 43.962 35.9863 43.2437C35.6658 42.8111 35.3444 42.4041 35.3525 41.8079C35.9048 42.419 36.6298 42.6696 37.3529 42.9568C36.6878 43.3707 36.2521 43.9135 36.0334 44.6261C36.0906 44.6261 36.1129 44.6318 36.1299 44.6249C36.1669 44.61 36.2022 44.591 36.2354 44.5696C36.7702 44.2236 37.361 43.9967 37.9899 43.8601C38.7774 43.6888 39.5739 43.5523 40.3546 43.3577C41.1454 43.1605 41.9114 42.8874 42.5432 42.3709C42.7408 42.2096 42.9181 42.0242 43.0885 41.8369C43.1356 41.785 43.1421 41.6843 43.1303 41.6114C43.1267 41.5886 43.0009 41.5687 42.9327 41.5725C42.6832 41.5859 42.4349 41.6172 42.1857 41.6275C41.9431 41.6374 41.7 41.6298 41.457 41.6298C41.5373 41.5599 41.6221 41.5245 41.7078 41.4917C45.0592 40.2134 47.9145 38.3004 50.1733 35.6299C50.2792 35.5048 50.3461 35.3263 50.3656 35.1657C50.433 34.611 50.4679 34.0526 50.5222 33.4964C50.5766 32.9414 50.6395 32.3872 50.7016 31.8043C48.9037 31.5156 47.1018 31.5789 45.3047 31.8146C40.9543 32.3856 37.1987 34.1361 33.9831 36.9379C29.2136 32.8651 23.6447 31.136 17.2306 31.7612L17.2294 31.7608ZM47.8208 30.3537C47.807 30.3144 47.807 30.2972 47.7984 30.2919C47.6686 30.2125 47.5388 30.1324 47.4061 30.0561C44.5289 28.4002 42.0835 26.3045 40.1233 23.7183C38.7535 21.9106 37.6665 19.9621 36.8672 17.8733C36.8136 17.7329 36.7438 17.6093 36.5779 17.5872C36.304 17.5506 36.0277 17.5079 35.7526 17.509C34.4148 17.5128 33.0771 17.5281 31.7398 17.5441C31.306 17.5495 31.162 17.6566 31.0086 18.0434C28.9352 23.2728 25.3719 27.3398 20.2725 30.2091C20.221 30.2381 20.1788 30.2816 20.0928 30.3491C20.2157 30.359 20.2802 30.3666 20.3451 30.3689C21.7032 30.4212 23.0507 30.56 24.3803 30.8274C27.8985 31.5346 31.0244 33.0025 33.8005 35.1413C33.9413 35.25 34.0201 35.2427 34.1531 35.1401C36.0938 33.6433 38.2277 32.4577 40.5871 31.6399C42.516 30.9712 44.5066 30.5696 46.5568 30.4322C46.9727 30.4044 47.3886 30.3804 47.8212 30.3533L47.8208 30.3537ZM36.3377 16.3689C36.216 15.8806 36.0894 15.3889 35.9717 14.8957C35.9169 14.6668 35.7924 14.5177 35.5477 14.4338C35.062 14.2671 34.6729 13.6052 34.7808 13.1483C35.0567 13.3493 35.3274 13.5473 35.5988 13.7441C36.1364 14.1336 36.698 14.4849 37.3744 14.6218C37.5225 14.6519 37.6836 14.6264 37.9014 14.6264C36.8639 13.4176 35.9327 12.2267 35.8492 10.6799C36.132 11.0114 36.388 11.3795 36.7158 11.677C37.0583 11.9875 37.5026 12.1233 38.0349 12.0352C37.221 11.2105 36.4355 10.401 36.0565 9.32993C36.5872 9.93644 37.1614 10.4796 38.0029 10.6681L38.0503 10.6269C37.5383 9.77776 37.0262 8.92826 36.4988 8.05359C37.4409 8.45336 37.615 8.48196 37.9027 8.28437C36.2318 6.1471 34.9898 3.79468 33.9888 1.28397C33.8878 1.3881 33.8115 1.45944 33.7437 1.53725C32.8044 2.61638 31.9653 3.75692 31.3194 5.01724C30.7217 6.18334 30.374 7.39101 30.6093 8.69863C30.7753 9.62136 31.2119 10.4144 31.9081 11.0812C31.9682 11.1388 32.0465 11.18 32.1496 11.2524C32.1159 10.9122 32.0291 10.6192 32.1747 10.3042C32.2027 10.3927 32.2218 10.4529 32.2409 10.5128C32.3812 10.953 32.5387 11.3997 32.8706 11.7361C33.2102 12.0802 33.2771 12.4609 33.2439 12.89C33.2325 13.0357 33.2268 13.1822 33.2045 13.3264C33.1197 13.8658 32.847 14.2816 32.2887 14.4883C32.1183 14.5512 32.0315 14.6539 31.9921 14.816C31.8907 15.236 31.7795 15.6536 31.6752 16.0729C31.6497 16.1747 31.6351 16.2788 31.6176 16.3689H36.3377Z" fill="url(#paint0_linear_1668_5677)"/>
<path d="M36.6091 56.2375C34.8376 56.8039 33.0775 56.8428 31.3247 56.1528C31.3166 56.1707 31.3084 56.189 31.2999 56.2069C31.3466 56.2523 31.3953 56.2958 31.4395 56.3427C31.8047 56.7326 32.1861 57.1102 32.5273 57.518C32.7525 57.7873 32.8868 58.1115 32.9302 58.4606C32.9935 58.9686 32.7732 59.3707 32.2908 59.6091C31.7296 59.8864 31.1441 59.8544 30.5566 59.7087C29.4014 59.4226 28.6208 58.7203 28.0994 57.7343C27.5687 56.7307 27.4145 55.6672 27.5796 54.5682C27.6916 53.8225 28.1736 53.2926 28.835 52.8963C29.5625 52.4603 30.3716 52.2597 31.2196 52.1788C31.562 52.146 31.9065 52.1033 32.249 52.1094C32.4912 52.114 32.7505 52.154 32.97 52.2459C33.6484 52.5309 34.3122 52.5465 34.9792 52.2353C35.275 52.0972 35.5899 52.0888 35.9088 52.1018C37.0619 52.1483 38.1737 52.3394 39.167 52.9367C39.9866 53.43 40.4013 54.1387 40.4248 55.0508C40.4544 56.1924 40.2235 57.2708 39.5394 58.237C38.9316 59.0957 38.0877 59.6228 37.0043 59.7884C36.6229 59.8468 36.2383 59.8231 35.8666 59.693C35.1764 59.4516 34.8855 58.932 35.0551 58.2572C35.1647 57.822 35.4175 57.4703 35.7303 57.1476C36.024 56.8447 36.3166 56.5403 36.6095 56.2367L36.6091 56.2375ZM39.4279 54.9474C39.4238 54.8799 39.4279 54.8646 39.4218 54.8555C39.4039 54.8287 39.3832 54.804 39.3621 54.7792C39.1325 54.5106 38.8229 54.363 38.4784 54.2734C37.6235 54.051 36.8023 53.7531 36.0378 53.3254C35.7895 53.1866 35.5526 53.1931 35.2896 53.311C35.0438 53.4212 34.7808 53.5166 34.5143 53.5631C33.8841 53.6737 33.2572 53.6493 32.6892 53.3308C32.4032 53.1706 32.1617 53.198 31.8757 53.3373C31.3742 53.5814 30.8568 53.7988 30.3367 54.0067C29.8551 54.1994 29.3556 54.3538 28.8756 54.5499C28.7279 54.6106 28.6179 54.7532 28.4909 54.8585C28.5031 54.886 28.5153 54.9138 28.527 54.9413C30.3188 54.561 32.1248 54.3332 33.9637 54.3348C35.8066 54.3359 37.6182 54.5503 39.4275 54.9466L39.4279 54.9474Z" fill="url(#paint1_linear_1668_5677)"/>
<path d="M43.7625 39.6096C43.4845 39.4929 43.2459 39.3929 43.0074 39.2926C42.5489 39.1 42.1127 39.1312 41.6741 39.3677C40.779 39.8499 39.8778 40.3221 38.9722 40.7867C38.1875 41.1892 37.3585 41.4722 36.4505 41.4482C36.0967 41.439 35.7457 41.3536 35.3931 41.3063C35.2669 41.2891 35.2458 41.2205 35.2345 41.1106C34.9671 38.4969 37.1374 36.2177 39.6389 35.7008C40.2422 35.5761 40.8468 35.4937 41.4643 35.5971C42.4803 35.7676 43.0889 36.368 43.4233 37.248C43.7089 37.9999 43.7292 38.7876 43.7629 39.6092L43.7625 39.6096Z" fill="url(#paint2_linear_1668_5677)"/>
<path d="M24.201 39.5917C24.2111 38.6857 24.2586 37.8095 24.6432 36.9818C25.0867 36.0274 25.8872 35.5673 26.9682 35.5517C29.6737 35.5128 32.098 37.3857 32.6012 39.6531C32.7087 40.1375 32.6872 40.6483 32.7095 41.1476C32.7119 41.1979 32.6178 41.2807 32.5525 41.3002C31.969 41.4737 31.3738 41.4936 30.7716 41.3994C30.1322 41.2994 29.5414 41.0755 28.9774 40.7826C28.0568 40.3042 27.1349 39.8278 26.2187 39.3414C25.8248 39.1324 25.43 39.1064 25.0165 39.2686C24.7507 39.3727 24.4858 39.4787 24.2006 39.5917H24.201Z" fill="url(#paint3_linear_1668_5677)"/>
<path d="M33.9839 23.6489C35.9267 23.6496 37.4957 25.1239 37.5022 26.9549C37.5087 28.7783 35.9145 30.2785 33.9722 30.2774C32.0477 30.2762 30.4519 28.7733 30.4523 26.9629C30.4523 25.1281 32.0303 23.6481 33.9843 23.6489H33.9839ZM36.1458 26.9557C36.1466 25.8029 35.2069 24.9134 33.9839 24.9096C32.7655 24.9058 31.7897 25.8174 31.7905 26.9599C31.7909 28.0905 32.7553 28.9972 33.9673 29.0071C35.185 29.0174 36.145 28.1134 36.1458 26.9553V26.9557Z" fill="url(#paint4_linear_1668_5677)"/>
<defs>
<linearGradient id="paint0_linear_1668_5677" x1="34" y1="0" x2="34" y2="64" gradientUnits="userSpaceOnUse">
<stop stop-color="#EDBA56"/>
<stop offset="0.205" stop-color="#F6D686"/>
<stop offset="0.306996" stop-color="#F4D27F"/>
<stop offset="0.386002" stop-color="#F6D687"/>
<stop offset="0.66" stop-color="#EAB746"/>
<stop offset="0.720086" stop-color="#E8B33C"/>
<stop offset="0.835" stop-color="#EEC15B"/>
<stop offset="1" stop-color="#F7D787"/>
</linearGradient>
<linearGradient id="paint1_linear_1668_5677" x1="34" y1="0" x2="34" y2="64" gradientUnits="userSpaceOnUse">
<stop stop-color="#EDBA56"/>
<stop offset="0.205" stop-color="#F6D686"/>
<stop offset="0.306996" stop-color="#F4D27F"/>
<stop offset="0.386002" stop-color="#F6D687"/>
<stop offset="0.66" stop-color="#EAB746"/>
<stop offset="0.720086" stop-color="#E8B33C"/>
<stop offset="0.835" stop-color="#EEC15B"/>
<stop offset="1" stop-color="#F7D787"/>
</linearGradient>
<linearGradient id="paint2_linear_1668_5677" x1="34" y1="0" x2="34" y2="64" gradientUnits="userSpaceOnUse">
<stop stop-color="#EDBA56"/>
<stop offset="0.205" stop-color="#F6D686"/>
<stop offset="0.306996" stop-color="#F4D27F"/>
<stop offset="0.386002" stop-color="#F6D687"/>
<stop offset="0.66" stop-color="#EAB746"/>
<stop offset="0.720086" stop-color="#E8B33C"/>
<stop offset="0.835" stop-color="#EEC15B"/>
<stop offset="1" stop-color="#F7D787"/>
</linearGradient>
<linearGradient id="paint3_linear_1668_5677" x1="34" y1="0" x2="34" y2="64" gradientUnits="userSpaceOnUse">
<stop stop-color="#EDBA56"/>
<stop offset="0.205" stop-color="#F6D686"/>
<stop offset="0.306996" stop-color="#F4D27F"/>
<stop offset="0.386002" stop-color="#F6D687"/>
<stop offset="0.66" stop-color="#EAB746"/>
<stop offset="0.720086" stop-color="#E8B33C"/>
<stop offset="0.835" stop-color="#EEC15B"/>
<stop offset="1" stop-color="#F7D787"/>
</linearGradient>
<linearGradient id="paint4_linear_1668_5677" x1="34" y1="0" x2="34" y2="64" gradientUnits="userSpaceOnUse">
<stop stop-color="#EDBA56"/>
<stop offset="0.205" stop-color="#F6D686"/>
<stop offset="0.306996" stop-color="#F4D27F"/>
<stop offset="0.386002" stop-color="#F6D687"/>
<stop offset="0.66" stop-color="#EAB746"/>
<stop offset="0.720086" stop-color="#E8B33C"/>
<stop offset="0.835" stop-color="#EEC15B"/>
<stop offset="1" stop-color="#F7D787"/>
</linearGradient>
</defs>
</svg>
