<svg width="64" height="64" viewBox="0 0 64 64" fill="none" xmlns="http://www.w3.org/2000/svg">
<path d="M4.85449 34.4226C4.85449 24.0719 4.85449 13.7211 4.85449 3.37045C4.94129 3.35565 5.02809 3.32775 5.11499 3.32775C11.8319 3.32485 18.5489 3.32505 25.2658 3.31895C25.4717 3.31875 25.594 3.38835 25.7094 3.55365C27.8695 6.64595 30.0348 9.73465 32.1997 12.8236C32.2458 12.8893 32.2998 12.9494 32.3642 13.0296C32.4272 12.9462 32.4755 12.8863 32.5196 12.8234C34.6842 9.73425 36.8496 6.64565 39.0097 3.55335C39.1253 3.38795 39.2477 3.31845 39.4535 3.31885C42.9504 3.32585 46.4473 3.32525 49.9442 3.32575C53.1582 3.32615 56.3722 3.32545 59.5863 3.32775C59.6792 3.32785 59.772 3.35555 59.8649 3.37045C59.8649 13.7211 59.8649 24.0719 59.8649 34.4226C59.7804 34.5244 59.6965 34.6266 59.6114 34.728C52.426 43.2893 45.2404 51.8505 38.0556 60.4123C37.7126 60.8211 37.3765 61.2356 37.0372 61.6475C33.9189 61.6475 30.8005 61.6475 27.6822 61.6475C27.6444 61.5951 27.6099 61.54 27.5685 61.4907C22.9938 56.0394 18.4183 50.5889 13.8436 45.1376C10.8465 41.5664 7.85079 37.9942 4.85449 34.4226ZM32.3647 51.7383C32.4415 51.6533 32.5074 51.585 32.5683 51.5124C36.6571 46.6398 40.7448 41.7663 44.8372 36.8967C44.961 36.7494 44.983 36.6229 44.9339 36.4411C44.1102 33.3873 43.2931 30.3316 42.4748 27.2764C42.4007 26.9998 42.4043 26.9964 42.6954 26.9964C45.0249 26.9964 47.3545 26.9964 49.684 26.9964C49.9423 26.9964 49.9428 26.9961 49.9428 26.7385C49.9429 22.3338 49.9429 17.929 49.9428 13.5243C49.9428 13.2668 49.9424 13.2662 49.6814 13.2661C47.9779 13.2655 46.2744 13.2674 44.5709 13.2614C44.3943 13.2608 44.2862 13.3196 44.1852 13.4641C41.756 16.9414 39.3211 20.4149 36.8925 23.8926C36.7582 24.0849 36.6113 24.1672 36.3719 24.1666C33.7053 24.159 31.0387 24.1583 28.3721 24.1673C28.1115 24.1682 27.9553 24.0783 27.8094 23.8692C25.3816 20.3909 22.9464 16.9177 20.5164 13.4409C20.4267 13.3126 20.328 13.2619 20.1732 13.2623C18.4516 13.2668 16.7301 13.268 15.0085 13.2628C14.8275 13.2623 14.772 13.3155 14.7722 13.499C14.7768 17.9158 14.7758 22.3326 14.7759 26.7494C14.7759 26.9961 14.7767 26.9965 15.0276 26.9965C17.3571 26.9966 19.6867 26.9966 22.0162 26.9966C22.0704 26.9966 22.1333 26.9801 22.1763 27.0022C22.2212 27.0252 22.2649 27.0816 22.2759 27.1308C22.2864 27.1779 22.2547 27.2347 22.2407 27.287C21.4222 30.3422 20.6047 33.3978 19.7823 36.4519C19.7378 36.6172 19.7466 36.739 19.8656 36.8776C20.4534 37.5626 21.029 38.258 21.6093 38.9494C25.1336 43.1487 28.658 47.3479 32.183 51.5467C32.2356 51.6091 32.2955 51.6656 32.3647 51.7383Z" fill="#FF0000"/>
</svg>
