<svg width="64" height="64" viewBox="0 0 64 64" fill="none" xmlns="http://www.w3.org/2000/svg">
<g clip-path="url(#clip0_1575_2800)">
<path d="M0.0342413 59.3048C0.0230535 59.2991 0.00237316 59.294 0.00169511 59.2879C-0.00101707 59.2428 0.000339022 59.1977 0.000339022 59.1523C0.000339022 48.4463 0.000339022 37.7399 0.000339022 27.0339C0.059668 27.0211 0.12137 27.0139 0.178326 26.9939C2.79016 26.0816 5.40097 25.1676 8.0128 24.255C17.3498 20.9922 26.6865 17.7291 36.0239 14.4674C44.6764 11.4447 53.3293 8.42364 61.9818 5.40125C62.6446 5.1697 63.3047 4.93069 63.9661 4.69507C63.9773 4.70083 63.998 4.70592 63.9986 4.71202C64.0014 4.75711 64 4.8022 64 4.84763V36.4913C63.9746 36.5032 63.9502 36.5171 63.9241 36.5262C61.1963 37.4986 58.4685 38.4709 55.7404 39.4428C46.3437 42.7907 36.947 46.1385 27.5503 49.4867C19.0276 52.5233 10.505 55.56 1.9826 58.5976C1.33202 58.8295 0.683808 59.0689 0.0345803 59.3048H0.0342413ZM49.6265 38.2359C44.4048 31.7145 39.1934 25.2056 33.9799 18.6947C33.9246 18.7116 33.8765 18.7248 33.829 18.7411C32.8448 19.0852 31.862 19.4331 30.8758 19.7707C30.7453 19.8155 30.709 19.8728 30.7093 20.0077C30.7137 23.0521 30.7134 26.0969 30.71 29.1413C30.71 29.2678 30.7449 29.3647 30.8222 29.4627C31.862 30.7856 32.8987 32.1108 33.9358 33.4357C34.0148 33.5367 34.0928 33.6391 34.1809 33.753C34.1141 33.7795 34.064 33.8005 34.0131 33.8191C32.9655 34.2029 31.9183 34.588 30.8687 34.9674C30.7497 35.0105 30.709 35.0667 30.7093 35.1959C30.7141 37.2294 30.7127 39.2628 30.7127 41.2963V41.4736C30.7839 41.4502 30.8372 41.4339 30.8894 41.4156C33.2595 40.5789 35.6292 39.7422 37.999 38.9048C38.0977 38.8699 38.1719 38.8435 38.2631 38.9499C38.9496 39.7524 39.6487 40.544 40.3349 41.3468C40.4423 41.4726 40.5295 41.4831 40.6766 41.4302C42.9521 40.6145 45.23 39.8046 47.5072 38.9933C48.2066 38.7441 48.9057 38.4936 49.6265 38.2359ZM2.81592 54.9094C2.89491 54.885 2.94848 54.8704 3.00069 54.8518C5.97392 53.7926 8.94681 52.7322 11.9217 51.6778C12.0621 51.628 12.0933 51.5592 12.0933 51.4225C12.0902 43.129 12.0906 34.8359 12.0906 26.5424V26.3461C12.0109 26.3698 11.9577 26.383 11.9061 26.401C8.93189 27.4394 5.95798 28.4799 2.98204 29.5136C2.84033 29.5627 2.81355 29.6339 2.81355 29.7685C2.81626 38.079 2.81626 46.3891 2.81626 54.6995V54.9094H2.81592ZM51.8115 37.4514C51.8898 37.4274 51.9379 37.4145 51.985 37.3975C54.8677 36.3706 57.7501 35.3424 60.6345 34.3202C60.7674 34.2731 60.781 34.2012 60.7806 34.0832C60.7783 25.8975 60.7786 17.7122 60.7786 9.52648C60.7786 9.46715 60.7786 9.40748 60.7786 9.33425C60.7142 9.3529 60.6711 9.36341 60.6298 9.37799C57.741 10.3873 54.8525 11.3982 51.9616 12.4024C51.8189 12.4519 51.8098 12.5312 51.8098 12.6526C51.8115 20.8495 51.8115 29.0464 51.8115 37.2433V37.4518V37.4514ZM13.588 27.1007C13.5741 27.1062 13.5602 27.1119 13.5467 27.1173V27.2679C13.5467 32.0186 13.5463 36.7696 13.5504 41.5204C13.5504 41.6072 13.5843 41.7112 13.6382 41.7787C15.5367 44.1505 17.4403 46.5186 19.3395 48.89C19.4179 48.9877 19.4816 48.9792 19.5819 48.9436C21.9544 48.0961 24.3276 47.2515 26.7007 46.4064C27.3306 46.1819 27.9605 45.9572 28.6132 45.7246C23.597 39.5069 18.5927 33.3038 13.5884 27.1007H13.588ZM29.2024 20.365C29.1417 20.383 29.1041 20.3925 29.0678 20.4054C26.1258 21.4329 23.1844 22.4615 20.241 23.4857C20.1217 23.5271 20.0918 23.5854 20.0918 23.7041C20.0949 26.5905 20.0935 29.4769 20.0983 32.3634C20.0983 32.4498 20.1356 32.5529 20.1898 32.6207C23.1556 36.3225 26.1251 40.0212 29.0946 43.72C29.1227 43.7549 29.1563 43.7857 29.2024 43.8339V20.3647V20.365ZM50.1492 13.0506C50.098 13.0628 50.0699 13.0669 50.0438 13.0757C47.1184 14.0985 44.1933 15.1224 41.2665 16.1415C41.156 16.1801 41.1377 16.2378 41.138 16.3395C41.14 19.2313 41.139 22.1232 41.1434 25.0151C41.1434 25.0968 41.179 25.1934 41.2302 25.2578C44.1577 28.9677 47.0882 32.6749 50.0187 36.3825C50.054 36.4272 50.0919 36.4696 50.1496 36.5381V13.0506H50.1492Z" fill="#010100"/>
<path d="M49.6266 38.236C48.9058 38.4936 48.2068 38.7442 47.5074 38.9933C45.2302 39.805 42.9523 40.6145 40.6767 41.4302C40.5296 41.4831 40.4425 41.4726 40.335 41.3468C39.6488 40.544 38.9501 39.7521 38.2632 38.9499C38.172 38.8435 38.0978 38.8699 37.9991 38.9049C35.6294 39.7426 33.2596 40.5789 30.8895 41.4157C30.8373 41.434 30.7841 41.4502 30.7129 41.4736V41.2963C30.7129 39.2629 30.7142 37.2294 30.7095 35.1959C30.7095 35.0664 30.7498 35.0105 30.8688 34.9674C31.9181 34.5884 32.9653 34.2029 34.0132 33.8192C34.0641 33.8005 34.1143 33.7795 34.1811 33.7531C34.0929 33.6392 34.0153 33.5368 33.936 33.4357C32.8989 32.1108 31.8621 30.7856 30.8224 29.4627C30.7451 29.3644 30.7098 29.2678 30.7102 29.1413C30.7132 26.0969 30.7135 23.0522 30.7095 20.0077C30.7095 19.8728 30.7454 19.8155 30.8759 19.7708C31.8621 19.4331 32.845 19.0853 33.8292 18.7411C33.8763 18.7245 33.9248 18.7117 33.98 18.6947C39.1935 25.206 44.405 31.7145 49.6266 38.236Z" fill="#FEEC00"/>
<path d="M2.8157 54.9094V54.6995C2.8157 46.3891 2.8157 38.079 2.81299 29.7685C2.81299 29.6339 2.83977 29.5627 2.98148 29.5136C5.95742 28.4795 8.93133 27.4394 11.9056 26.401C11.9571 26.383 12.0107 26.3695 12.09 26.3461V26.5424C12.09 34.8359 12.09 43.129 12.0927 51.4226C12.0927 51.5592 12.0612 51.628 11.9212 51.6778C8.94625 52.7322 5.97336 53.7927 3.00013 54.8518C2.94792 54.8704 2.89435 54.885 2.81536 54.9094H2.8157Z" fill="#FEEC00"/>
<path d="M51.8113 37.4514V37.2429C51.8113 29.046 51.8113 20.8491 51.8096 12.6522C51.8096 12.5308 51.8187 12.4519 51.9615 12.402C54.8523 11.3978 57.7404 10.3869 60.6296 9.3776C60.6713 9.36302 60.7143 9.35251 60.7784 9.33386C60.7784 9.40743 60.7784 9.46676 60.7784 9.52609C60.7784 17.7118 60.7784 25.8971 60.7804 34.0828C60.7804 34.2008 60.7672 34.2727 60.6343 34.3198C57.7499 35.3423 54.8676 36.3702 51.9848 37.3971C51.9381 37.4137 51.8896 37.4266 51.8113 37.451V37.4514Z" fill="#FEEC00"/>
<path d="M13.5881 27.1007C18.5924 33.3038 23.5967 39.5069 28.6129 45.7246C27.9603 45.9571 27.3304 46.1819 26.7005 46.4063C24.3273 47.2515 21.9538 48.096 19.5817 48.9436C19.4817 48.9792 19.4176 48.988 19.3393 48.89C17.4404 46.5186 15.5368 44.1505 13.6379 41.7787C13.584 41.7112 13.5501 41.6075 13.5501 41.5204C13.5461 36.7696 13.5464 32.0186 13.5464 27.2678V27.1173C13.5603 27.1119 13.5742 27.1061 13.5878 27.1007H13.5881Z" fill="#FEEC00"/>
<path d="M29.2023 20.3647V43.8332C29.1562 43.7847 29.1227 43.7542 29.0945 43.7193C26.125 40.0206 23.1555 36.3218 20.1898 32.62C20.1355 32.5522 20.0982 32.4495 20.0982 32.3627C20.0935 29.4763 20.0952 26.5899 20.0918 23.7034C20.0918 23.5848 20.1216 23.5268 20.241 23.4851C23.184 22.4609 26.1257 21.4323 29.0678 20.4047C29.1044 20.3918 29.142 20.3823 29.2023 20.3644V20.3647Z" fill="#FEEC00"/>
<path d="M50.1493 13.0507V36.5381C50.0916 36.4697 50.0536 36.4269 50.0184 36.3825C47.0879 32.675 44.157 28.9678 41.2299 25.2578C41.1791 25.1934 41.1435 25.0968 41.1431 25.0151C41.1387 22.1232 41.1397 19.2314 41.1377 16.3395C41.1377 16.2381 41.1557 16.1802 41.2662 16.1415C44.193 15.1224 47.1181 14.0982 50.0435 13.0757C50.0696 13.0666 50.0974 13.0625 50.1489 13.0507H50.1493Z" fill="#FEEC00"/>
</g>
<defs>
<clipPath id="clip0_1575_2800">
<rect width="64" height="54.6098" fill="white" transform="translate(0 4.69507)"/>
</clipPath>
</defs>
</svg>
