<svg width="65" height="64" viewBox="0 0 65 64" fill="none" xmlns="http://www.w3.org/2000/svg">
<g clip-path="url(#clip0_1668_5360)">
<path d="M64.1588 32.0775C60.2061 36.0275 56.254 39.9779 52.2986 43.9251C52.1872 44.0363 52.1422 44.1463 52.1426 44.303C52.1472 46.7724 52.1457 49.2419 52.1457 51.7115C52.1457 51.787 52.1457 51.8624 52.1457 51.9631C52.0579 51.9668 51.9787 51.9734 51.8994 51.9734C49.7668 51.974 47.6342 51.9738 45.5016 51.9738C45.1496 51.9738 44.7976 51.9798 44.4458 51.9709C44.3035 51.9674 44.2026 52.0111 44.1019 52.1122C42.7287 53.4907 41.3515 54.8651 39.9754 56.2406C37.4328 58.7818 34.8902 61.3231 32.3478 63.8645C32.3038 63.9084 32.2626 63.9548 32.2204 64H32.1375C32.0944 63.9424 32.0575 63.8786 32.0072 63.8282C29.8271 61.6451 27.6463 59.463 25.4648 57.2813C23.747 55.5634 22.0272 53.8472 20.3121 52.1265C20.2006 52.0147 20.0894 51.9705 19.9323 51.9707C17.4608 51.9743 14.9892 51.9722 12.5177 51.9711C12.4365 51.9711 12.3555 51.9711 12.2531 51.9711C12.2531 51.8686 12.2531 51.7876 12.2531 51.7066C12.2531 49.2363 12.2519 46.766 12.256 44.2957C12.2562 44.1472 12.2177 44.0419 12.1098 43.9342C8.20139 40.0339 4.29654 36.1301 0.390867 32.2269C0.328503 32.1645 0.263447 32.105 0.199219 32.0437C4.177 28.068 8.15291 24.0931 12.1319 20.1212C12.2239 20.0294 12.2556 19.9392 12.2554 19.8131C12.2523 17.3359 12.2529 14.8586 12.2529 12.3815V12.1115C12.3429 12.1078 12.4222 12.1016 12.5016 12.1016C14.7522 12.1012 17.0029 12.1012 19.2534 12.101C19.502 12.101 19.7506 12.0941 19.9988 12.101C20.1126 12.1041 20.1983 12.0717 20.2698 11.9849C20.3135 11.9319 20.3664 11.8865 20.4153 11.8376C24.2816 7.97317 28.1479 4.10893 32.0132 0.243652C32.0714 0.185432 32.1165 0.113953 32.2058 0C32.2779 0.102143 32.3138 0.172379 32.3668 0.225212C36.2719 4.12882 40.179 8.03035 44.0824 11.9356C44.1993 12.0525 44.3136 12.102 44.479 12.1016C46.9437 12.0968 49.4082 12.0983 51.8728 12.0983H52.1453C52.1453 12.1952 52.1453 12.2752 52.1453 12.3552C52.1453 14.8255 52.147 17.2957 52.1416 19.766C52.1412 19.9314 52.1892 20.0449 52.3061 20.1616C56.19 24.0374 60.0704 27.917 63.9516 31.7957C64.0192 31.8633 64.0894 31.9283 64.1584 31.9944V32.0773L64.1588 32.0775ZM61.2503 32.035C61.1679 31.9509 61.107 31.8873 61.0446 31.8251C57.5245 28.3065 54.0048 24.7874 50.4808 21.2725C50.3569 21.149 50.3123 21.028 50.3127 20.8573C50.3177 18.6356 50.316 16.4138 50.316 14.1919C50.316 14.1115 50.316 14.0309 50.316 13.9358H50.0453C47.8223 13.9358 45.5994 13.9339 43.3765 13.9395C43.2108 13.9399 43.097 13.8915 42.9804 13.7748C39.4493 10.2394 35.9145 6.70767 32.3803 3.17534C32.3227 3.11795 32.2641 3.0616 32.1739 2.97313C32.1141 3.05041 32.0699 3.1223 32.0117 3.18052C28.4786 6.71389 24.9437 10.2458 21.4122 13.7806C21.3018 13.8913 21.193 13.9397 21.0345 13.9393C18.8048 13.9341 16.5748 13.9358 14.3451 13.9358H14.083V14.1799C14.083 16.4154 14.0818 18.651 14.0857 20.8865C14.0859 21.034 14.0497 21.1405 13.9411 21.2489C10.3988 24.7829 6.86027 28.3208 3.32173 31.8585C3.26061 31.9196 3.20633 31.9878 3.14977 32.0514C3.20944 32.1084 3.27491 32.1682 3.33768 32.2308C6.86711 35.7582 10.3961 39.2861 13.9278 42.811C14.0385 42.9214 14.0865 43.0302 14.0863 43.1883C14.0814 45.417 14.083 47.6457 14.083 49.8744V50.1363H16.0256C17.6961 50.1363 19.3669 50.138 21.0374 50.1334C21.1858 50.133 21.3022 50.1593 21.3996 50.2795C21.4988 50.4019 21.6111 50.5144 21.7234 50.6259C22.3552 51.2528 22.9912 51.8752 23.6209 52.5042C26.4189 55.2988 29.2155 58.095 32.0117 60.8918C32.0699 60.95 32.1145 61.0219 32.1746 61.0992C32.2645 61.0111 32.3229 60.955 32.3805 60.8974C35.9147 57.365 39.4495 53.8333 42.9806 50.2979C43.0972 50.1813 43.2108 50.1324 43.3765 50.1328C45.6063 50.1382 47.8362 50.1365 50.066 50.1361C50.1457 50.1361 50.2257 50.1311 50.3165 50.1282C50.3165 50.0306 50.3165 49.9556 50.3165 49.8806C50.3165 47.6588 50.3181 45.4371 50.3131 43.2152C50.3127 43.0447 50.3571 42.9235 50.481 42.8C54.0091 39.2812 57.5328 35.7577 61.057 32.2349C61.1146 32.1774 61.1706 32.1179 61.2507 32.0348L61.2503 32.035Z" fill="#FF1720"/>
<path d="M61.2499 32.035C61.1697 32.1179 61.1138 32.1773 61.0562 32.2351C57.5319 35.7579 54.0081 39.2812 50.4801 42.8002C50.3562 42.9239 50.3119 43.0449 50.3123 43.2154C50.3173 45.4373 50.3156 47.659 50.3156 49.8808C50.3156 49.9558 50.3156 50.0306 50.3156 50.1284C50.2249 50.1313 50.1449 50.1363 50.0651 50.1363C47.8354 50.1367 45.6054 50.1384 43.3757 50.133C43.2099 50.1326 43.0962 50.1815 42.9798 50.2981C39.4487 53.8335 35.9139 57.3652 32.3797 60.8976C32.3223 60.955 32.2636 61.0113 32.1737 61.0994C32.1136 61.0221 32.0691 60.9502 32.0109 60.892C29.2149 58.0952 26.4183 55.2992 23.62 52.5044C22.9904 51.8756 22.3543 51.253 21.7226 50.6261C21.6105 50.5148 21.498 50.4023 21.3988 50.2797C21.3014 50.1595 21.1852 50.1332 21.0366 50.1336C19.3661 50.1382 17.6953 50.1365 16.0248 50.1365H14.0822V49.8746C14.0822 47.6459 14.0805 45.4172 14.0855 43.1885C14.0859 43.0304 14.0376 42.9216 13.927 42.8112C10.3951 39.2863 6.86627 35.7584 3.33684 32.231C3.27407 32.1684 3.2086 32.1083 3.14893 32.0516C3.20528 31.988 3.25956 31.9198 3.32089 31.8587C6.85943 28.321 10.398 24.7831 13.9402 21.2491C14.0488 21.1407 14.0851 21.0342 14.0849 20.8867C14.0811 18.6512 14.0822 16.4156 14.0822 14.1801V13.936H14.3443C16.574 13.936 18.804 13.9343 21.0337 13.9395C21.1922 13.9399 21.301 13.8912 21.4114 13.7808C24.9431 10.2458 28.4777 6.71409 32.0109 3.18072C32.0691 3.1225 32.1134 3.05061 32.1731 2.97333C32.2634 3.0618 32.3221 3.11815 32.3795 3.17554C35.9137 6.70787 39.4485 10.2396 42.9796 13.775C43.0962 13.8919 43.2099 13.9401 43.3757 13.9397C45.5986 13.9343 47.8215 13.936 50.0444 13.936H50.3152C50.3152 14.0311 50.3152 14.1115 50.3152 14.1921C50.3152 16.4139 50.3169 18.6356 50.3119 20.8575C50.3115 21.0282 50.3562 21.1492 50.4799 21.2727C54.0038 24.7876 57.5234 28.3067 61.0438 31.8253C61.1061 31.8877 61.167 31.9511 61.2495 32.0352L61.2499 32.035ZM13.9879 26.447C13.985 26.4236 13.9821 26.4001 13.9794 26.3767C13.9533 26.3987 13.927 26.4207 13.9009 26.4426C13.8793 26.4592 13.8555 26.4735 13.8362 26.4926C12.0173 28.3102 10.1987 30.1281 8.38039 31.9463C8.35284 31.9739 8.33108 32.0074 8.30353 32.0423C8.35408 32.0957 8.39552 32.1411 8.43882 32.1846C10.2134 33.9587 11.9883 35.7329 13.7633 37.5064C13.8068 37.5499 13.8549 37.5886 13.9007 37.6297C13.9268 37.6516 13.9531 37.6736 13.9792 37.6956C13.9821 37.6721 13.985 37.6487 13.9877 37.6253C13.9904 37.5565 13.9952 37.488 13.9952 37.4192C13.9956 33.8305 13.9956 30.2418 13.9952 26.6529C13.9952 26.5841 13.9902 26.5155 13.9877 26.4468L13.9879 26.447ZM17.0522 47.3674C17.1164 47.3674 17.163 47.3674 17.2097 47.3674C20.206 47.3674 23.2021 47.3668 26.1985 47.3697C26.3122 47.3697 26.3905 47.3326 26.4688 47.2543C27.8845 45.8392 29.3017 44.4258 30.7211 43.0147C30.8057 42.9305 30.8432 42.8462 30.8428 42.7256C30.8386 41.6561 30.8405 40.5864 30.8399 39.5169C30.8399 39.4569 30.8328 39.397 30.828 39.318H28.1566C28.1566 39.2445 28.1566 39.1906 28.1566 39.1365C28.1582 37.3218 28.1599 35.5072 28.162 33.6925C28.162 33.6877 28.1686 33.6821 28.1734 33.6788C28.179 33.6749 28.186 33.6732 28.1988 33.6678C28.2419 33.7186 28.2867 33.7706 28.3308 33.8234C28.7065 34.2741 29.0827 34.7239 29.4573 35.1753C30.52 36.4562 31.5808 37.7386 32.6449 39.0184C33.126 39.5971 33.6139 40.17 34.0981 40.746C34.9639 41.7761 35.8196 42.8149 36.6979 43.8345C37.4141 44.6661 38.1894 45.4406 39.0685 46.1053C39.574 46.4873 40.1144 46.8099 40.7053 47.0372C40.9692 47.1387 41.2512 47.1932 41.5253 47.2678C41.5899 47.2854 41.6554 47.3092 41.7211 47.3113C42.3344 47.3308 42.9478 47.3567 43.5613 47.3602C44.7487 47.3668 45.9361 47.3602 47.1237 47.359C47.1966 47.359 47.2698 47.359 47.3377 47.359V16.7096H47.0783C44.2339 16.7096 41.3896 16.7096 38.5451 16.71C38.3796 16.71 38.1966 16.6715 38.0535 16.7293C37.9043 16.7894 37.7912 16.9419 37.6665 17.0587C36.3419 18.2993 35.0186 19.5414 33.693 20.7812C33.6091 20.8598 33.5532 20.9335 33.5544 21.0609C33.5613 21.8337 33.5575 22.6066 33.5586 23.3794C33.5586 23.4316 33.5689 23.4838 33.5764 23.5546H36.2294C36.2766 24.1549 36.2541 29.4367 36.2029 29.5836C36.1451 29.5195 36.0893 29.4584 36.0346 29.3967C35.6277 28.938 35.2223 28.4778 34.8139 28.0203C34.3409 27.4904 33.8627 26.9649 33.3918 26.4333C32.7795 25.7423 32.1733 25.046 31.5623 24.3538C30.9785 23.6922 30.394 23.0313 29.8066 22.3728C29.092 21.5719 28.382 20.7665 27.6552 19.9765C27.0386 19.3063 26.3737 18.6847 25.6509 18.128C24.9669 17.6013 24.2316 17.1665 23.3954 16.9319C23.0755 16.8422 22.7424 16.7798 22.4113 16.7531C21.9445 16.7152 21.4742 16.7127 21.0055 16.7113C19.7628 16.7073 18.5201 16.7119 17.2776 16.7131C17.2045 16.7131 17.1311 16.7131 17.0526 16.7131V47.3672L17.0522 47.3674ZM26.455 49.8002C28.3698 51.714 30.28 53.6235 32.1951 55.5374C32.252 55.4838 32.2929 55.4473 32.3316 55.4086C34.1476 53.5938 35.9634 51.7789 37.7792 49.9639C37.8084 49.9347 37.8517 49.9094 37.8629 49.8744C37.8772 49.829 37.8767 49.7721 37.8618 49.7267C37.8502 49.6915 37.8073 49.6664 37.7781 49.637C35.9623 47.822 34.1466 46.0071 32.3304 44.1925C32.2885 44.1507 32.2417 44.114 32.1897 44.0682C30.2763 45.9805 28.3733 47.8825 26.455 49.8V49.8002ZM26.4927 13.6635C28.4006 15.5705 30.3072 17.4762 32.205 19.3732C34.1006 17.4787 36.0079 15.5726 37.8881 13.6934C35.987 11.7933 34.0776 9.88487 32.1756 7.98393C30.2916 9.86685 28.389 11.7682 26.4927 13.6638V13.6635ZM50.2346 26.3633C50.2222 26.4285 50.2133 26.454 50.2133 26.4795C50.216 30.2031 50.2191 33.9266 50.2228 37.6502C50.2228 37.6558 50.2278 37.6628 50.2325 37.6663C50.2377 37.6701 50.2456 37.6705 50.269 37.6773C50.3156 37.6338 50.3709 37.5849 50.4229 37.5329C52.1894 35.7679 53.9555 34.0029 55.7215 32.2376C55.7557 32.2034 55.7891 32.1686 55.8239 32.1351C55.8912 32.07 55.8935 32.0052 55.8258 31.9391C55.7961 31.9101 55.7673 31.8804 55.7381 31.8512C53.9623 30.0763 52.1865 28.3013 50.4103 26.5265C50.3629 26.4793 50.3121 26.4354 50.2346 26.3637V26.3633Z" fill="white"/>
<path d="M17.0527 47.3674V16.7133C17.1312 16.7133 17.2045 16.7133 17.2777 16.7133C18.5204 16.7121 19.7631 16.7075 21.0056 16.7115C21.4744 16.7129 21.9448 16.7154 22.4113 16.7533C22.7424 16.7802 23.0754 16.8424 23.3955 16.9321C24.2317 17.1666 24.967 17.6015 25.6509 18.1282C26.3738 18.6849 27.0387 19.3065 27.6552 19.9767C28.382 20.7667 29.0921 21.5721 29.8067 22.373C30.394 23.0315 30.9787 23.6924 31.5624 24.354C32.1732 25.0462 32.7796 25.7425 33.3918 26.4335C33.863 26.9651 34.3409 27.4906 34.814 28.0205C35.2223 28.478 35.6278 28.938 36.0347 29.3969C36.0896 29.4586 36.1451 29.5197 36.2029 29.5838C36.2543 29.4369 36.2769 24.1551 36.2295 23.5548H33.5764C33.569 23.484 33.5586 23.4318 33.5586 23.3796C33.5576 22.6068 33.5613 21.8339 33.5545 21.0611C33.5534 20.9335 33.6092 20.86 33.6931 20.7814C35.0184 19.5416 36.3418 18.2995 37.6665 17.0589C37.7912 16.9423 37.9044 16.7898 38.0535 16.7295C38.1967 16.6717 38.3796 16.7102 38.5452 16.7102C41.3897 16.7098 44.2339 16.7098 47.0784 16.7098H47.3378V47.3589C47.2698 47.3589 47.1969 47.3589 47.1238 47.3589C45.9364 47.3602 44.7488 47.3668 43.5614 47.3602C42.9479 47.3569 42.3344 47.3308 41.7211 47.3113C41.6555 47.3092 41.59 47.2852 41.5254 47.2678C41.2512 47.1932 40.9691 47.1387 40.7053 47.0372C40.1144 46.8099 39.5741 46.4875 39.0685 46.1053C38.1894 45.4408 37.4141 44.6661 36.6979 43.8345C35.8198 42.8149 34.964 41.7761 34.0981 40.746C33.6139 40.17 33.126 39.5969 32.6449 39.0184C31.5808 37.7388 30.52 36.4564 29.4573 35.1753C29.0828 34.7239 28.7065 34.2739 28.3309 33.8234C28.287 33.7706 28.242 33.7186 28.1989 33.6678C28.1858 33.6732 28.1788 33.6749 28.1734 33.6788C28.1686 33.6821 28.162 33.6879 28.162 33.6925C28.1599 35.5072 28.1583 37.3218 28.1566 39.1365C28.1566 39.1906 28.1566 39.2445 28.1566 39.318H30.8281C30.8331 39.397 30.8399 39.4568 30.8399 39.5169C30.8405 40.5864 30.8387 41.6561 30.8428 42.7256C30.8432 42.8462 30.8057 42.9307 30.7212 43.0146C29.3018 44.4258 27.8846 45.8392 26.4689 47.2543C26.3906 47.3326 26.3123 47.3697 26.1985 47.3697C23.2022 47.3668 20.206 47.3674 17.2097 47.3674C17.1631 47.3674 17.1165 47.3674 17.0522 47.3674H17.0527Z" fill="#FF161F"/>
<path d="M26.4556 49.8002C28.3739 47.8827 30.2769 45.9808 32.1903 44.0684C32.2423 44.1142 32.2891 44.1509 32.331 44.1927C34.1472 46.0073 35.963 47.8222 37.7787 49.6372C37.808 49.6664 37.8508 49.6917 37.8624 49.7269C37.8772 49.7723 37.8778 49.8292 37.8635 49.8746C37.8523 49.9098 37.8092 49.9349 37.7798 49.9641C35.964 51.7791 34.1482 53.594 32.3322 55.4088C32.2935 55.4475 32.2527 55.484 32.1957 55.5377C30.2806 53.6237 28.3704 51.7144 26.4556 49.8004V49.8002Z" fill="#FF1720"/>
<path d="M26.4932 13.6638C28.3895 11.7684 30.2921 9.86686 32.1761 7.98395C34.0781 9.88489 35.9875 11.7933 37.8886 13.6934C36.0084 15.5726 34.1011 17.4787 32.2055 19.3732C30.3077 17.4764 28.4011 15.5707 26.4932 13.6636V13.6638Z" fill="#FF161F"/>
<path d="M50.2352 26.3635C50.3127 26.4352 50.3635 26.4791 50.4109 26.5264C52.1871 28.3011 53.9629 30.0761 55.7387 31.8511C55.7679 31.8803 55.7967 31.9101 55.8264 31.9389C55.8941 32.005 55.8918 32.0699 55.8245 32.1349C55.7897 32.1685 55.7563 32.2033 55.7221 32.2375C53.9561 34.0027 52.19 35.7679 50.4235 37.5327C50.3715 37.5847 50.3162 37.6334 50.2696 37.6772C50.246 37.6705 50.2383 37.6701 50.2331 37.6662C50.2284 37.6626 50.2234 37.6556 50.2234 37.65C50.2197 33.9264 50.2166 30.2029 50.2139 26.4793C50.2139 26.4538 50.223 26.4284 50.2352 26.3631V26.3635Z" fill="#FF1720"/>
<path d="M13.9009 37.6297C13.8549 37.5887 13.8068 37.5499 13.7635 37.5064C11.9883 35.7327 10.2136 33.9587 8.439 32.1846C8.3957 32.1413 8.35426 32.0957 8.30371 32.0423C8.33127 32.0075 8.35302 31.9739 8.38058 31.9463C10.1988 30.1281 12.0173 28.3102 13.8364 26.4926C13.8555 26.4735 13.8793 26.4592 13.9011 26.4426C13.9301 26.4441 13.9591 26.4455 13.9883 26.447C13.991 26.5158 13.9958 26.5843 13.9958 26.6531C13.9962 30.2418 13.9962 33.8305 13.9958 37.4194C13.9958 37.4882 13.9908 37.5567 13.9883 37.6255C13.9593 37.627 13.9303 37.6284 13.9013 37.6299L13.9009 37.6297Z" fill="#FF2223"/>
<path d="M13.9881 26.447C13.9591 26.4456 13.9301 26.4441 13.9009 26.4427L13.9794 26.3768C13.9823 26.4002 13.985 26.4236 13.9879 26.447H13.9881Z" fill="#FF3132"/>
<path d="M13.9009 37.6297C13.9299 37.6282 13.9589 37.6268 13.9881 37.6253C13.9852 37.6487 13.9823 37.6721 13.9796 37.6955C13.9535 37.6736 13.9272 37.6516 13.9011 37.6297H13.9009Z" fill="#FF3132"/>
</g>
<defs>
<clipPath id="clip0_1668_5360">
<rect width="63.9596" height="64" fill="white" transform="translate(0.199219)"/>
</clipPath>
</defs>
</svg>
