<svg width="64" height="64" viewBox="0 0 64 64" fill="none" xmlns="http://www.w3.org/2000/svg">
<path d="M10.9942 25.7886L0 48.0254L8.50964 44.3607L1.36651 59.0817L39.4425 42.9321C38.5108 44.7955 36.6101 48.7956 36.461 49.8888C36.3119 50.9821 37.5583 50.5928 38.2002 50.2615C45.8402 44.4228 61.5303 32.4224 63.1701 31.1304C64.8099 29.8384 63.6463 28.3559 62.8595 27.7762L53.9151 20.6952L58.5736 10.8191L47.89 14.9807L33.7901 4.91821L36.9579 12.9309C30.6637 15.4569 17.4665 20.7822 15.0316 21.8754C12.5967 22.9686 11.3255 24.9397 10.9942 25.7886Z" fill="black"/>
<path d="M13.4165 27.4035L6.33545 41.8761L14.9072 38.522L7.8883 52.9325C10.2486 51.8972 15.4041 49.628 17.1433 48.8329C18.8825 48.0379 21.1807 45.3131 22.1124 44.0501L35.7776 16.3472C29.6075 18.9146 17.0315 24.1239 16.0874 24.4221C15.1432 24.7202 13.9134 26.5339 13.4165 27.4035Z" fill="white"/>
<path d="M31.4917 36.8449L28.386 43.2427L46.2748 35.8511L49.3806 29.2049L40.9951 32.9938L48.8215 23.8009L52.6105 16.3472L35.7776 23.304L32.3613 30.2608L39.5665 27.4035L31.4917 36.8449Z" fill="white"/>
<path d="M60.6859 29.0262L54.3035 24.1581C53.6947 23.9469 53.496 24.3754 53.6979 24.7248C54.2725 25.3563 55.456 27.1271 55.5926 29.4378C55.7634 32.3261 53.7912 33.4752 53.5583 34.2982C53.372 34.9566 54 35.0291 54.3192 34.7796C56.193 33.3147 60.1192 30.4704 60.6859 30.0744C61.2527 29.6784 61.0198 29.3058 60.6859 29.0262Z" fill="white"/>
<path d="M19.2556 28.77L17.6406 32.3105L21.3675 30.8819L22.9824 27.4656L19.2556 28.77Z" fill="black"/>
</svg>
