<svg width="65" height="64" viewBox="0 0 65 64" fill="none" xmlns="http://www.w3.org/2000/svg">
<g clip-path="url(#clip0_1668_5370)">
<path d="M64.0384 37.2516C64.0517 37.1111 64.0653 36.9707 64.0786 36.8303C64.0803 36.7991 64.0819 36.768 64.0838 36.7369C64.0971 36.5962 64.1103 36.4558 64.1236 36.3151C64.1264 36.2683 64.1292 36.2217 64.132 36.1749C64.1456 36.0345 64.1594 35.894 64.173 35.7536C64.1741 35.7225 64.1756 35.6913 64.1767 35.6602C64.1903 35.5198 64.2041 35.3791 64.2177 35.2387C64.2205 35.1918 64.2233 35.1453 64.2263 35.0985C64.2551 34.7865 64.2839 34.4744 64.3127 34.1624C64.3153 34.1156 64.3179 34.0688 64.3204 34.022C64.3328 33.8973 64.3455 33.7723 64.3579 33.6475C64.3605 33.6007 64.3633 33.5541 64.3658 33.5073C64.3792 33.3669 64.3928 33.2264 64.4061 33.086C64.4077 33.0549 64.4094 33.0237 64.4113 32.9926C64.4246 32.8519 64.4377 32.7115 64.451 32.5708C64.4539 32.524 64.4567 32.4774 64.4595 32.4306C64.473 32.2902 64.4869 32.1498 64.5004 32.0093C64.5016 31.9782 64.503 31.9471 64.5042 31.9159C64.5178 31.7755 64.5316 31.6348 64.5451 31.4942C64.5479 31.4473 64.5508 31.4008 64.5538 31.3539C64.5671 31.2135 64.5805 31.0731 64.5941 30.9326C64.5959 30.9015 64.5976 30.8704 64.5994 30.8392C64.6121 30.6792 64.6249 30.5191 64.6383 30.3484C62.8892 30.1766 61.0518 30.333 59.2933 30.3309C58.9391 30.3304 58.3413 30.2106 58.0476 30.4158C57.7702 30.6096 57.5493 31.1077 57.3559 31.3848C56.878 32.0692 56.4022 32.7548 55.931 33.4436C55.9228 33.4589 55.9146 33.4741 55.9064 33.4893C55.9181 33.4919 55.9298 33.4947 55.9415 33.4972C56.4717 33.5005 57.0016 33.5045 57.5317 33.5068C58.2803 33.5101 59.0288 33.5122 59.7775 33.5148C59.7932 33.5277 59.8089 33.5408 59.8246 33.5537C59.826 33.6005 59.8274 33.6475 59.8288 33.6943C59.8276 33.7255 59.8262 33.7566 59.8251 33.7877L59.7841 34.2093C59.7813 34.2561 59.7785 34.3026 59.7754 34.3495C59.7467 34.6615 59.7179 34.9735 59.6891 35.2855C59.6865 35.3323 59.6839 35.3791 59.6813 35.4259C59.6638 35.5778 59.6465 35.7297 59.6275 35.8933C57.535 35.8933 55.4425 35.8933 53.35 35.8931C52.8402 35.8931 52.3302 35.8931 51.8204 35.8929C51.3537 35.8929 50.7629 35.9837 50.3299 35.7854C49.492 35.402 49.6912 34.4859 49.7581 33.7407C49.7607 33.6939 49.7632 33.647 49.7658 33.6002C49.7782 33.4755 49.7909 33.3505 49.8033 33.2257C49.8061 33.1789 49.8089 33.1323 49.8119 33.0855C49.8414 32.7735 49.8709 32.4618 49.9006 32.1498C49.9032 32.1029 49.9058 32.0561 49.9084 32.0093C49.9208 31.8846 49.9332 31.7598 49.9456 31.6351C49.9482 31.5882 49.9507 31.5414 49.9533 31.4944C49.9669 31.3539 49.9805 31.2137 49.9943 31.0733L49.9989 30.9797C50.028 30.652 50.057 30.3243 50.086 29.9966C50.0886 29.9498 50.0912 29.903 50.0937 29.8562C50.1061 29.7314 50.1188 29.6064 50.1312 29.4817C50.1342 29.4349 50.1375 29.3881 50.1405 29.3413C50.1759 29.2221 50.1953 29.0953 50.2492 28.985C50.5162 28.4375 50.9511 28.1494 51.5693 28.1497C55.0086 28.1506 58.4478 28.1501 61.8869 28.1499C62.0039 28.1499 62.1214 28.1408 62.2378 28.1487C62.3609 28.1571 62.4346 28.1136 62.502 28.0062C63.2145 26.8705 63.9328 25.7388 64.6488 24.6055C64.679 24.5575 64.6996 24.5037 64.7331 24.4351C64.6491 24.4351 64.5945 24.4351 64.5402 24.4351C59.9234 24.4351 55.3065 24.4351 50.6897 24.4358C50.6042 24.4358 50.5183 24.4428 50.4336 24.4531C49.8552 24.5236 49.304 24.6933 48.7898 24.9615C46.9363 25.9289 45.846 27.4351 45.6026 29.529C45.6009 29.5601 45.5993 29.5912 45.5974 29.6224C45.5841 29.7628 45.5705 29.9035 45.5572 30.0439C45.5544 30.0907 45.5516 30.1373 45.5487 30.1841C45.5352 30.3245 45.5214 30.465 45.5078 30.6054C45.5066 30.6366 45.5052 30.6677 45.504 30.6988C45.4905 30.8392 45.4767 30.9799 45.4631 31.1204C45.4603 31.1672 45.4575 31.214 45.4544 31.2608C45.4411 31.4012 45.4277 31.5414 45.4142 31.6819C45.4123 31.713 45.4106 31.7441 45.4088 31.7755C45.3954 31.9159 45.3819 32.0564 45.3685 32.1968C45.3659 32.2436 45.3634 32.2904 45.3608 32.3372L45.3233 32.7117C45.3208 32.7585 45.318 32.8051 45.3154 32.8519C45.3016 32.9924 45.288 33.1328 45.2742 33.273C45.2726 33.3041 45.2709 33.3353 45.269 33.3666C45.2557 33.5071 45.2421 33.6475 45.2288 33.7879C45.226 33.8348 45.2232 33.8816 45.2201 33.9284C45.2065 34.0688 45.1927 34.209 45.1792 34.3495C45.1778 34.3806 45.1766 34.412 45.1754 34.4431C45.1658 36.0417 45.5211 37.4812 46.8106 38.5366C48.2943 39.7509 50.0413 39.58 51.8462 39.5847C53.927 39.5901 56.0078 39.5915 58.0883 39.5936C59.1357 39.5948 60.1832 39.5957 61.2306 39.5966C61.7544 39.5971 62.278 39.5976 62.8018 39.598C63.0809 39.5983 63.6723 39.7366 63.8458 39.4972C63.8469 39.466 63.8483 39.4349 63.8495 39.4038C63.8631 39.2633 63.8769 39.1227 63.8905 38.9822C63.8933 38.9354 63.8961 38.8888 63.8991 38.842C63.9279 38.53 63.9567 38.218 63.9855 37.906C63.9881 37.8592 63.9906 37.8124 63.9932 37.7656C64.0056 37.6408 64.0183 37.5158 64.0307 37.3911L64.0386 37.2509L64.0384 37.2516ZM23.8873 37.6263C23.8848 37.6731 23.8819 37.7199 23.8794 37.7668C23.866 37.9072 23.8525 38.0476 23.8391 38.1878C23.8365 38.2346 23.834 38.2815 23.8312 38.3283C23.8188 38.453 23.8061 38.5778 23.7937 38.7025C23.7909 38.7493 23.7881 38.7962 23.785 38.843C23.7717 38.9834 23.7586 39.1236 23.7453 39.264C23.7436 39.2952 23.742 39.3263 23.7401 39.3577V39.5903H28.2334C28.2479 39.4611 28.2617 39.3389 28.2753 39.217C28.2779 39.1702 28.2807 39.1234 28.2832 39.0766C28.2966 38.9361 28.3102 38.7957 28.3235 38.6555C28.3261 38.6087 28.3286 38.5619 28.3315 38.515C28.3439 38.3903 28.3565 38.2655 28.3689 38.1408C28.3717 38.094 28.3745 38.0472 28.3776 38.0003C28.3909 37.8599 28.404 37.7197 28.4174 37.5793C28.419 37.5481 28.4206 37.517 28.4225 37.4856C28.4361 37.3452 28.4499 37.2048 28.4635 37.0643C28.466 37.0175 28.4686 36.9707 28.4712 36.9239C28.4848 36.7835 28.4986 36.6433 28.5121 36.5028C28.514 36.4717 28.5157 36.4403 28.5175 36.4092C28.5306 36.2688 28.5437 36.1283 28.5571 35.9879C28.5599 35.9411 28.5629 35.8943 28.5657 35.8475C28.5782 35.7227 28.5908 35.5979 28.6032 35.4732C28.6058 35.4264 28.6086 35.3796 28.6112 35.3328C28.6245 35.1923 28.6381 35.0519 28.6514 34.9117C28.654 34.8649 28.6566 34.8181 28.6594 34.7712C28.6715 34.6465 28.6837 34.5215 28.6959 34.3967C28.6987 34.3499 28.7015 34.3034 28.7045 34.2565C28.734 33.9445 28.7635 33.6328 28.7933 33.3208C28.7958 33.274 28.7984 33.2271 28.801 33.1803C28.8134 33.0556 28.8258 32.9308 28.8382 32.8061C28.8408 32.7593 28.8433 32.7124 28.8459 32.6654C28.8595 32.525 28.8731 32.3848 28.8869 32.2443C28.8885 32.2132 28.8899 32.1818 28.8916 32.1507C28.9206 31.823 28.9496 31.4953 28.9786 31.1676L28.9864 31.0272C28.9988 30.9024 29.0114 30.7775 29.0238 30.6527L29.0325 30.5125C29.062 30.2005 29.0914 29.8887 29.1212 29.5767C29.1237 29.5299 29.1263 29.4831 29.1289 29.4363C29.1413 29.3115 29.1537 29.1868 29.1661 29.062C29.1687 29.0152 29.1713 28.9684 29.1738 28.9214C29.1874 28.7809 29.201 28.6407 29.2148 28.5003C29.2164 28.4691 29.2178 28.4378 29.2195 28.4067C29.2232 28.3308 29.227 28.2547 29.2319 28.1513C31.3401 28.1513 33.448 28.1513 35.5562 28.1513C36.1154 28.1513 36.6746 28.1513 37.2337 28.1515C37.6197 28.1515 38.0373 28.1052 38.4008 28.2643C39.1371 28.5869 39.3052 29.4412 39.0042 30.13C38.6622 30.9125 38.0117 31.1445 37.223 31.1421C36.1624 31.1388 35.1017 31.1433 34.0411 31.1428C33.6947 31.1428 33.1 31.0148 32.787 31.1953C32.4469 31.3914 32.1855 32.0252 31.9638 32.3433C31.3878 33.1698 30.7273 33.9789 30.2339 34.8571C30.8237 34.8571 31.4138 34.8578 32.0036 34.8581C32.6187 34.8581 33.4117 34.7188 34.0091 34.8525C34.5509 34.9737 34.9186 35.5975 35.2824 35.9973C35.7493 36.5105 36.217 37.0234 36.6844 37.5362C37.152 38.049 37.6197 38.5616 38.0869 39.0747C38.2931 39.301 38.4347 39.5229 38.7338 39.6027C39.0257 39.6807 39.4594 39.6009 39.7632 39.6002C41.0618 39.598 42.5045 39.7757 43.7858 39.5735C43.0441 38.706 42.2487 37.8793 41.4791 37.0365C41.2533 36.7891 39.2385 34.8918 39.3869 34.6191C39.7901 34.4068 40.3229 34.3705 40.7496 34.172C41.1924 33.9661 41.6051 33.6995 41.9777 33.3842C42.7133 32.7621 43.3254 31.9527 43.6807 31.0546C44.2853 29.5259 44.1268 27.6123 43.1302 26.2793C41.962 24.7167 40.2159 24.436 38.3876 24.43C33.9433 24.4157 29.4987 24.3885 25.0544 24.3885C25.0387 24.5402 25.0253 24.6715 25.0118 24.8026C25.009 24.8494 25.0061 24.896 25.0031 24.9428C24.9743 25.2548 24.9455 25.5668 24.9167 25.8788C24.9142 25.9256 24.9116 25.9724 24.909 26.0192L24.8716 26.3937C24.869 26.4405 24.8662 26.4871 24.8636 26.5339C24.8503 26.6744 24.8367 26.8148 24.8233 26.9552C24.8217 26.9864 24.8201 27.0175 24.8182 27.0486C24.8049 27.1891 24.7913 27.3297 24.7779 27.4702C24.7751 27.517 24.7723 27.5636 24.7695 27.6104C24.7559 27.7508 24.7421 27.8913 24.7285 28.0317C24.7274 28.0628 24.726 28.0939 24.7248 28.1251C24.7112 28.2655 24.6974 28.4062 24.6838 28.5466C24.681 28.5934 24.678 28.6402 24.6752 28.6871C24.6618 28.8275 24.6485 28.9677 24.6349 29.1081C24.6331 29.1393 24.6314 29.1704 24.6295 29.2018C24.6164 29.3422 24.6033 29.4826 24.59 29.6231C24.5872 29.6699 24.5841 29.7167 24.5813 29.7635L24.5439 30.138C24.5413 30.1848 24.5385 30.2314 24.5359 30.2782C24.5228 30.4186 24.5097 30.5593 24.4964 30.6997C24.4947 30.7309 24.4931 30.7618 24.4914 30.7929C24.4767 30.949 24.462 31.1051 24.4472 31.2613L24.4428 31.3547C24.4292 31.4951 24.4154 31.6355 24.4018 31.776C24.4006 31.8071 24.3992 31.838 24.3981 31.8691C24.3679 32.1968 24.3377 32.5245 24.3075 32.8522C24.3056 32.8833 24.304 32.9144 24.3021 32.9458C24.289 33.0862 24.2759 33.2267 24.2625 33.3671C24.2597 33.4139 24.2567 33.4607 24.2539 33.5075C24.2415 33.6323 24.2288 33.7573 24.2164 33.882L24.2085 34.0222C24.1954 34.1627 24.1822 34.3034 24.1689 34.4438L24.164 34.5369C24.1492 34.6931 24.1345 34.8492 24.1198 35.0053C24.1184 35.0364 24.1167 35.0676 24.1153 35.0987C24.1017 35.2391 24.0879 35.3796 24.0743 35.52C24.0732 35.5511 24.0718 35.582 24.0706 35.6132C24.0402 35.9408 24.0095 36.2685 23.9791 36.5962C23.9772 36.6273 23.9756 36.6587 23.9737 36.6898C23.9606 36.8303 23.9475 36.9707 23.9341 37.1111C23.9313 37.158 23.9283 37.2048 23.9255 37.2516C23.9131 37.3763 23.9004 37.5011 23.888 37.6258L23.8873 37.6263ZM5.34853 38.4219C5.36211 38.2815 5.37592 38.1408 5.38949 38.0003C5.3923 37.9535 5.39511 37.907 5.39815 37.8601C5.42694 37.5481 5.45573 37.2361 5.48452 36.9241L5.49248 36.7837C5.50489 36.6589 5.51752 36.534 5.52993 36.4092C5.5325 36.3624 5.53531 36.3158 5.53789 36.269C5.55123 36.1286 5.56481 35.9881 5.57815 35.8477C5.57978 35.8166 5.58142 35.7854 5.5833 35.7543C5.59664 35.6139 5.61021 35.4732 5.62355 35.3328C5.62636 35.2859 5.62917 35.2394 5.63221 35.1925C5.64579 35.0521 5.6596 34.9117 5.67318 34.7712C5.67435 34.7401 5.67575 34.709 5.67692 34.6778C5.69073 34.5374 5.70431 34.3967 5.71811 34.2563C5.72069 34.2095 5.72326 34.1627 5.72561 34.1161C5.73918 33.9757 5.75299 33.8352 5.76657 33.6948L5.77195 33.6012C5.78506 33.4607 5.79816 33.3203 5.81151 33.1799C5.81431 33.133 5.81736 33.0862 5.82017 33.0394C5.83351 32.899 5.84708 32.7585 5.86042 32.6181C5.86183 32.587 5.86323 32.5559 5.86464 32.5247C5.87798 32.3843 5.89155 32.2436 5.9049 32.1032C5.90653 32.072 5.90817 32.0412 5.90981 32.01C5.93977 31.6823 5.96996 31.3547 5.99992 31.027C6.00109 30.9958 6.0025 30.9647 6.00367 30.9336C6.01842 30.8121 6.03316 30.6904 6.05189 30.5368C8.41754 32.7003 10.668 35.0079 12.9656 37.2439C13.5898 37.8515 14.2138 38.4596 14.8369 39.0684C15.0873 39.313 15.2676 39.5423 15.6196 39.6039C15.9815 39.6673 16.4051 39.6013 16.7728 39.6004C18.3509 39.5971 19.9291 39.5992 21.5072 39.5992C21.5177 39.493 21.5266 39.4014 21.5355 39.3101C21.5383 39.2633 21.5411 39.2168 21.5441 39.1699C21.5729 38.8579 21.6017 38.5459 21.6305 38.2339C21.6331 38.1871 21.6357 38.1403 21.6382 38.0935C21.6506 37.9687 21.6633 37.8438 21.6757 37.719C21.6783 37.6722 21.6811 37.6256 21.6836 37.5788C21.697 37.4384 21.7106 37.2979 21.7239 37.1575C21.7255 37.1264 21.7272 37.0952 21.7291 37.0641C21.7424 36.9234 21.7555 36.783 21.7688 36.6423C21.7717 36.5955 21.7745 36.5489 21.7773 36.5021C21.7908 36.3617 21.8047 36.2212 21.8182 36.0808C21.8194 36.0497 21.8208 36.0186 21.822 35.9874C21.8356 35.847 21.8494 35.7063 21.8629 35.5659C21.8657 35.5191 21.8686 35.4725 21.8716 35.4257C21.9004 35.1137 21.9292 34.8017 21.958 34.4897C21.9605 34.4429 21.9631 34.396 21.9657 34.3492L22.006 33.9279C22.0074 33.8968 22.0088 33.8657 22.0102 33.8345C22.0392 33.5225 22.0684 33.2105 22.0975 32.8985C22.1003 32.8517 22.1031 32.8049 22.1061 32.7581C22.1197 32.6176 22.1335 32.4774 22.1471 32.337C22.1485 32.3059 22.1497 32.2745 22.1511 32.2434C22.1649 32.1029 22.1785 31.9625 22.192 31.8221C22.1946 31.7753 22.1972 31.7284 22.1998 31.6816C22.2131 31.5412 22.2264 31.4008 22.24 31.2603C22.2419 31.2292 22.2435 31.1981 22.2454 31.1667C22.2585 31.0263 22.2716 30.8858 22.285 30.7454C22.2878 30.6986 22.2908 30.6518 22.2936 30.605L22.3341 30.1836C22.3355 30.1525 22.3369 30.1214 22.3383 30.0903C22.3517 29.9498 22.3652 29.8091 22.3786 29.6687C22.3802 29.6376 22.3819 29.6067 22.3837 29.5756C22.3985 29.4194 22.4132 29.2633 22.428 29.1072C22.4294 29.0761 22.431 29.0449 22.4324 29.0138C22.446 28.8734 22.4598 28.7329 22.4734 28.5925C22.4745 28.5614 22.4759 28.5305 22.4771 28.4993C22.5075 28.1717 22.5382 27.844 22.5686 27.5163C22.5705 27.4852 22.5721 27.4538 22.574 27.4227C22.5871 27.2822 22.6002 27.1418 22.6136 27.0016C22.6164 26.9548 22.6194 26.908 22.6222 26.8611C22.6346 26.7364 22.6473 26.6116 22.6597 26.4869C22.6623 26.4401 22.6651 26.3933 22.6676 26.3464C22.681 26.206 22.6946 26.0656 22.7079 25.9254C22.7105 25.8786 22.713 25.8317 22.7159 25.7849C22.7283 25.6602 22.7409 25.5354 22.7533 25.4107C22.7561 25.3639 22.7589 25.317 22.762 25.2702C22.7753 25.1298 22.7884 24.9896 22.8018 24.8492C22.8034 24.818 22.8053 24.7869 22.8069 24.7555C22.8156 24.6408 22.8242 24.5262 22.8338 24.4007H18.3237C18.305 24.5727 18.2872 24.7342 18.2696 24.896C18.2668 24.9428 18.264 24.9896 18.261 25.0364C18.2476 25.1768 18.2345 25.3173 18.2212 25.4575C18.2195 25.4886 18.2177 25.52 18.216 25.5511C18.2025 25.6915 18.1887 25.8317 18.1751 25.9722L18.1674 26.1126C18.1549 26.2374 18.1425 26.3621 18.1301 26.4869C18.1276 26.5337 18.125 26.5805 18.1224 26.6276C18.1088 26.768 18.0953 26.9082 18.0815 27.0486L18.0768 27.1423C18.0634 27.2827 18.0499 27.4229 18.0365 27.5633C18.0335 27.6101 18.0304 27.657 18.0274 27.704C18.0147 27.8444 18.0023 27.9849 17.9897 28.1255C17.9871 28.1724 17.9845 28.2192 17.982 28.266C17.9696 28.3907 17.9569 28.5157 17.9445 28.6405L17.9359 28.7807C17.9225 28.9211 17.9094 29.0616 17.8961 29.202C17.8944 29.2331 17.8928 29.2643 17.8909 29.2954C17.8614 29.6074 17.8319 29.9192 17.8022 30.2312C17.7996 30.278 17.7971 30.3248 17.7945 30.3718C17.7809 30.5123 17.7673 30.6525 17.7535 30.7929C17.7519 30.824 17.7505 30.8554 17.7488 30.8865C17.7355 31.027 17.7219 31.1672 17.7086 31.3076L17.6995 31.4483C17.6868 31.5887 17.6744 31.7291 17.6618 31.8698C17.6592 31.9166 17.6566 31.9634 17.6541 32.0103C17.6417 32.135 17.629 32.26 17.6166 32.3848C17.614 32.4316 17.6112 32.4781 17.6086 32.525C17.5953 32.6654 17.5817 32.8058 17.5684 32.9463C17.5667 32.9774 17.5651 33.0085 17.5632 33.0397C17.5499 33.1803 17.5368 33.3208 17.5234 33.4614C17.5206 33.5082 17.5178 33.5548 17.515 33.6016C17.5014 33.7421 17.4876 33.8825 17.4741 34.0229C17.4729 34.0541 17.4715 34.0852 17.4703 34.1163C17.4446 34.374 17.4188 34.6315 17.3903 34.918C16.1558 33.86 15.0316 32.6394 13.8653 31.5063C12.6578 30.333 11.4505 29.1594 10.2437 27.9851C9.637 27.3946 9.03031 26.804 8.42386 26.2133C7.88177 25.6848 7.32752 24.943 6.69743 24.5273C6.17992 24.1858 5.17416 24.3892 4.56747 24.3897C3.73328 24.3902 2.8923 24.3583 2.05927 24.4005C2.04851 24.5112 2.03891 24.6104 2.02931 24.7099C2.02791 24.741 2.02627 24.7722 2.02487 24.8033C2.01152 24.9437 1.99842 25.0844 1.98508 25.2248C1.98344 25.2557 1.9818 25.2869 1.98016 25.3178C1.96635 25.4584 1.95278 25.5991 1.93897 25.7398C1.93639 25.7863 1.93405 25.8329 1.93148 25.8797C1.90222 26.1917 1.87296 26.5037 1.84347 26.8157C1.84066 26.8626 1.83762 26.9094 1.83481 26.9562C1.8224 27.0809 1.80976 27.2057 1.79736 27.3304C1.79478 27.3773 1.79198 27.4241 1.7894 27.4709C1.77606 27.6113 1.76248 27.7518 1.74914 27.892C1.74657 27.9388 1.74399 27.9856 1.74118 28.0324C1.72901 28.1571 1.71684 28.2821 1.70467 28.4069C1.70186 28.4537 1.69905 28.5003 1.69601 28.5471C1.68267 28.6875 1.66956 28.828 1.65622 28.9684C1.65458 28.9995 1.65294 29.0307 1.65107 29.0618C1.62158 29.3738 1.59209 29.6856 1.56236 29.9976C1.55979 30.0444 1.55721 30.0912 1.55464 30.1382C1.54106 30.2787 1.52749 30.4189 1.51368 30.5593C1.51204 30.5904 1.51063 30.6218 1.509 30.6529C1.49565 30.7934 1.48208 30.9336 1.46874 31.074C1.46569 31.1208 1.46265 31.1676 1.45961 31.2147C1.44697 31.3551 1.43456 31.4956 1.42193 31.6362C1.41935 31.683 1.41678 31.7299 1.41397 31.7767C1.40156 31.9014 1.38892 32.0264 1.37652 32.1512L1.36786 32.2914C1.35452 32.4318 1.34141 32.5722 1.32807 32.7127C1.32643 32.7438 1.32479 32.7749 1.32292 32.8061C1.29343 33.1181 1.26393 33.4298 1.23421 33.7418C1.23163 33.7887 1.22906 33.8355 1.22648 33.8825C1.21291 34.0229 1.19933 34.1631 1.18552 34.3036L1.18084 34.3972C1.1675 34.5376 1.15393 34.6778 1.14058 34.8183C1.13754 34.8651 1.1345 34.9119 1.13146 34.959C1.11882 35.0994 1.10641 35.2398 1.09377 35.3805C1.0912 35.4273 1.08862 35.4741 1.08581 35.5209C1.07341 35.6457 1.06077 35.7707 1.04836 35.8954C1.04579 35.9422 1.04298 35.9888 1.04041 36.0356C1.02706 36.1761 1.01349 36.3165 1.00015 36.4569C0.998509 36.4881 0.99687 36.5192 0.994998 36.5503C0.981657 36.691 0.968549 36.8314 0.955208 36.9721C0.952399 37.0189 0.94959 37.0655 0.946781 37.1123C0.933206 37.2528 0.919396 37.3932 0.905821 37.5336C0.90465 37.5648 0.903246 37.5959 0.902076 37.627C0.8885 37.7675 0.874691 37.9081 0.861115 38.0486C0.858306 38.0954 0.855498 38.142 0.852455 38.1888C0.822261 38.5008 0.792067 38.8125 0.761873 39.1245C0.760469 39.1557 0.759065 39.1868 0.757894 39.2179C0.749234 39.3392 0.740574 39.4604 0.731445 39.5875C2.18192 39.7584 3.74826 39.5971 5.20973 39.5957C5.28885 39.5927 5.27551 39.5477 5.25397 39.4988C5.26731 39.3581 5.28089 39.2177 5.29423 39.077C5.29704 39.0302 5.29985 38.9836 5.30266 38.9368C5.31623 38.7964 5.33004 38.6559 5.34362 38.5155C5.34479 38.4844 5.34619 38.4533 5.34736 38.4221L5.34853 38.4219Z" fill="#F63D0A"/>
</g>
<defs>
<clipPath id="clip0_1668_5370">
<rect width="64" height="15.3418" fill="white" transform="translate(0.732422 24.3291)"/>
</clipPath>
</defs>
</svg>
