<svg width="64" height="64" viewBox="0 0 64 64" fill="none" xmlns="http://www.w3.org/2000/svg">
<path d="M37.4107 41.9596C36.3619 45.8585 35.317 49.7422 34.2746 53.6174H21.3482C23.1469 46.873 24.9375 40.1585 26.7358 33.4142C26.6008 33.4142 26.5025 33.4142 26.4045 33.4142C22.4394 33.4082 18.4743 33.4033 14.5092 33.3949C12.0863 33.3898 9.66335 33.3772 7.24015 33.3754C7.05102 33.3754 6.93586 33.324 6.8213 33.1652C4.60947 30.0982 2.39043 27.0367 0.173194 23.9739C0.122679 23.9039 0.0766742 23.8305 0 23.7156C14.0861 23.7373 28.1304 23.7586 42.2273 23.7803C41.4621 26.635 40.7068 29.4533 39.9433 32.3016C40.0555 32.3098 40.14 32.3212 40.2242 32.3215C41.9564 32.3251 43.689 32.3137 45.4209 32.3347C46.8197 32.3516 47.814 31.417 48.1315 30.2576C48.4851 28.9665 48.8207 27.6705 49.1644 26.377C49.3902 25.5276 49.6163 24.6778 49.8463 23.8122H62.7983C62.6335 24.4397 62.4759 25.048 62.3139 25.655C61.582 28.3955 60.8453 31.1347 60.1177 33.8763C59.7445 35.2826 59.0554 36.5247 58.1608 37.6559C56.8925 39.2601 55.3443 40.5136 53.4521 41.3188C52.3916 41.7702 51.2848 41.9897 50.1296 41.986C46.0045 41.9731 41.8791 41.968 37.7541 41.9599C37.6452 41.9599 37.5364 41.9599 37.4098 41.9599L37.4107 41.9596Z" fill="#F9F9F9"/>
<path d="M63.5999 20.7858C62.9544 20.7858 62.3242 20.7867 61.6942 20.7858C52.1623 20.7687 42.6303 20.751 33.0981 20.7344C28.9628 20.7272 24.8275 20.7236 20.6922 20.7152C17.1177 20.7083 13.5434 20.695 9.96891 20.6929C9.73558 20.6929 9.59396 20.6244 9.45474 20.4322C7.25525 17.3935 5.04703 14.3608 2.84092 11.3269C2.77657 11.2385 2.71463 11.1486 2.63916 11.0416C2.74921 10.9791 2.85806 11.0055 2.95909 11.0058C7.66478 11.0175 12.3708 11.0371 17.0765 11.0437C25.4171 11.0557 33.7578 11.0569 42.0984 11.0687C46.9845 11.0756 51.8706 11.1044 56.7567 11.1032C60.4503 11.1023 63.3618 13.8806 63.8988 17.2113C64.0988 18.4507 64.0035 19.6357 63.5996 20.7861L63.5999 20.7858Z" fill="#F8F9F9"/>
<path d="M9.25488 36.5422H22.7183C21.5098 41.0251 20.3074 45.486 19.1056 49.9448C19.0893 49.946 19.0794 49.9481 19.0695 49.9472C19.0602 49.9466 19.0484 49.946 19.0421 49.9403C19.0205 49.9202 18.9982 49.9 18.9811 49.8763C15.7472 45.4433 12.5137 41.01 9.25488 36.5422Z" fill="#FCFAF9"/>
<path d="M7.56432 32.2141C5.80261 29.7807 4.04873 27.3584 2.29785 24.9406C2.30687 24.9217 2.31018 24.9121 2.31559 24.9039C2.3204 24.8967 2.32792 24.8856 2.33423 24.8856C2.74467 24.8829 3.1551 24.879 3.56553 24.8796C15.9407 24.8967 28.316 24.9142 40.7261 24.9319C39.959 27.7932 39.2016 30.6184 38.44 33.4593C38.5088 33.4653 38.5569 33.4734 38.6047 33.4734C40.898 33.4767 43.1911 33.4773 45.4844 33.4833C46.3876 33.4857 47.1965 33.2193 47.8967 32.6483C48.5597 32.108 49.0087 31.4191 49.2315 30.5938C49.7183 28.7903 50.1946 26.9841 50.6757 25.1794C50.6937 25.112 50.7178 25.0462 50.7415 24.9716H61.2985C61.1755 25.434 61.0609 25.8655 60.9461 26.297C60.296 28.7394 59.6483 31.1828 58.995 33.6243C58.6747 34.8211 58.0842 35.8837 57.3274 36.8531C56.1493 38.3619 54.712 39.5457 52.9302 40.2839C52.0329 40.6555 51.102 40.8299 50.1281 40.8272C45.6819 40.814 41.2357 40.8125 36.7895 40.8068C36.7104 40.8068 36.631 40.8068 36.527 40.8068C35.4827 44.6895 34.4406 48.5641 33.3939 52.4564H22.8519C24.6461 45.7286 26.4373 39.0114 28.2345 32.2716C21.3167 32.2526 14.4391 32.2337 7.56462 32.215L7.56432 32.2141Z" fill="#020202"/>
<path d="M21.2061 37.6962C20.3402 40.9099 19.479 44.1062 18.6151 47.3112C18.4233 47.1632 11.8215 38.1518 11.5659 37.6962H21.2058H21.2061Z" fill="#EE2524"/>
<path d="M4.89844 12.1688C5.58369 12.1688 6.2034 12.1667 6.82311 12.1691C8.54542 12.1757 10.2677 12.1893 11.99 12.1911C21.9944 12.2022 31.9987 12.2079 42.0027 12.2211C46.9294 12.2278 51.8564 12.2494 56.7831 12.2587C59.8823 12.2644 62.2889 14.6143 62.7565 17.3412C62.8849 18.0899 62.8825 18.8332 62.7252 19.6131C62.6257 19.6191 62.5207 19.6312 62.4158 19.6306C59.6922 19.6216 56.9683 19.6053 54.2447 19.602C45.8428 19.5915 37.4408 19.5894 29.0388 19.5774C22.8603 19.5683 16.6816 19.5479 10.5032 19.5374C10.3158 19.5371 10.1965 19.4914 10.0813 19.332C8.41102 17.0206 6.7326 14.7153 5.0566 12.4079C5.01209 12.3465 4.97241 12.2813 4.89844 12.1688Z" fill="#020202"/>
</svg>
