<svg width="64" height="64" viewBox="0 0 64 64" fill="none" xmlns="http://www.w3.org/2000/svg">
<path d="M57.0879 23.5425C51.6978 32.1306 46.31 40.7203 40.9226 49.3103C37.9683 54.0202 31.8703 63.75 31.8703 63.75L5 20.8983C5 20.8983 11.0433 11.8687 11.9138 10.5781C11.1847 8.8641 10.4601 7.16082 9.73488 5.45657C10.9932 3.77276 12.2414 2.10258 13.5006 0.417466C14.8488 1.01885 16.1862 1.61504 17.5383 2.21805C18.0369 1.45772 18.5143 0.728862 18.992 0C27.5727 0 36.1535 0 44.7342 0C45.2178 0.73535 45.7011 1.47102 46.1918 2.2174C47.5573 1.60856 48.8947 1.01204 50.2279 0.41779C51.5005 2.12204 52.7477 3.79255 53.9907 5.45755C53.2557 7.18515 52.5315 8.88842 51.8151 10.5722C53.7331 13.4306 55.6219 16.25 57.5161 19.0656C57.915 19.6589 58.7832 20.8992 58.7832 20.8992C58.7832 20.8992 57.6304 22.6784 57.0879 23.5429V23.5425ZM31.866 61.2313C40.369 47.6758 48.8269 34.192 57.2892 20.7011C54.979 17.2617 52.6862 13.8477 50.4076 10.4551C51.1491 8.75089 51.8743 7.08427 52.6005 5.41538C51.663 4.16136 50.7456 2.93459 49.8312 1.71138C48.4671 2.31569 47.1232 2.91123 45.7532 3.51813C45.1765 2.66309 44.618 1.83464 44.0595 1.00685H19.6765C19.1073 1.84632 18.5468 2.67282 17.9753 3.51586C16.5995 2.90637 15.2562 2.31115 13.9022 1.71138C12.9734 2.95405 12.0567 4.18017 11.1332 5.4157C11.8669 7.10081 12.5931 8.76873 13.3261 10.4529C11.0336 13.8669 8.74003 17.2819 6.44326 20.7024C9.47339 25.5322 12.4895 30.3401 15.5115 35.157H23.6035C22.2507 37.3585 20.9266 39.5126 19.599 41.6733C23.6852 48.188 27.759 54.6828 31.8664 61.2313H31.866Z" fill="#78EC00"/>
<path d="M31.8665 61.2315C27.7591 54.6831 23.6853 48.1882 19.5991 41.6736C20.9267 39.5129 22.2508 37.3588 23.6036 35.1573H15.5116C12.4896 30.3404 9.47349 25.5325 6.44336 20.7026C8.74046 17.2821 11.0337 13.8672 13.3262 10.4532C12.5928 8.76902 11.867 7.10111 11.1333 5.416C12.0568 4.18047 12.9735 2.95434 13.9023 1.71168C15.2563 2.31176 16.5996 2.90666 17.9754 3.51615C18.5469 2.67311 19.1074 1.84661 19.6766 1.00714H44.0596C44.6178 1.83494 45.1766 2.66338 45.7533 3.51842C47.1229 2.91153 48.4672 2.31598 49.8313 1.71168C50.7457 2.93488 51.6631 4.16165 52.6006 5.41567C51.8744 7.08456 51.1492 8.75118 50.4077 10.4554C52.6863 13.848 54.9791 17.2617 57.2893 20.7013C48.827 34.1923 40.3691 47.6761 31.8661 61.2315H31.8665ZM17.3883 31.6054H29.7149C27.6643 34.9393 25.6375 38.2343 23.6179 41.5179C26.3803 45.9128 29.1265 50.2821 31.8919 54.6815C39.0577 43.323 46.1916 32.0148 53.3226 20.7121C49.674 15.2503 46.048 9.82258 42.4327 4.41045H21.5565C17.8842 9.84561 14.2113 15.2811 10.5416 20.7124C12.8286 24.3512 15.1032 27.9702 17.388 31.6057L17.3883 31.6054Z" fill="#231F20"/>
<path d="M17.3884 31.6055C15.1036 27.9699 12.829 24.3509 10.542 20.7121C14.2117 15.2811 17.8843 9.84532 21.5569 4.41016H42.4327C46.048 9.82229 49.6741 15.25 53.3226 20.7118C46.192 32.0145 39.0578 43.323 31.8919 54.6812C29.1266 50.2818 26.3804 45.9125 23.6179 41.5176C25.6376 38.234 27.6644 34.939 29.715 31.6051H17.3884V31.6055Z" fill="white"/>
<path d="M34.1807 15.1851C36.8327 18.4405 39.4708 21.6781 42.1326 24.9455C43.2802 22.5636 44.4095 20.2191 45.5431 17.8657C43.5899 15.5004 41.6477 13.1484 39.6971 10.786C37.8373 12.2694 36.0186 13.7196 34.181 15.1855L34.1807 15.1851Z" fill="white"/>
<path d="M21.7 24.9454C24.3703 21.6676 27.0051 18.4337 29.6516 15.1854C27.8173 13.7218 25.9871 12.2619 24.1359 10.7847C22.1807 13.1529 20.2389 15.5056 18.2905 17.8657C19.4254 20.2219 20.5538 22.5649 21.7004 24.9454H21.7Z" fill="white"/>
<path d="M31.5236 24.9422V27.0694H32.3599V24.9328H33.4524C34.3942 23.9029 35.3272 22.8821 36.2869 21.8325H27.5762C28.5433 22.8951 29.4763 23.9201 30.4064 24.9419H31.5236V24.9422Z" fill="white"/>
<path d="M34.1805 15.1851C36.0181 13.7196 37.8368 12.269 39.6966 10.7856C41.6472 13.148 43.5897 15.5001 45.5426 17.8654C44.409 20.2187 43.2797 22.5632 42.1321 24.9451C39.4703 21.6777 36.8322 18.4398 34.1802 15.1848L34.1805 15.1851ZM39.5849 12.571C38.3934 13.5373 37.2175 14.4906 36.0396 15.4456C36.9951 16.4741 38.4129 16.5543 39.3938 15.6681C40.286 14.862 40.384 13.4529 39.5849 12.571Z" fill="#323232"/>
<path d="M21.6999 24.9454C20.5533 22.5649 19.4249 20.2219 18.29 17.8657C20.2384 15.5056 22.1805 13.1529 24.1354 10.7847C25.9867 12.2615 27.8168 13.7218 29.6511 15.1854C27.0046 18.434 24.3702 21.6676 21.6995 24.9454H21.6999ZM27.7966 15.443C26.595 14.4705 25.4171 13.5172 24.2389 12.5638C23.4242 13.5707 23.5551 14.9201 24.5239 15.745C25.4747 16.5546 26.9235 16.4346 27.7966 15.443Z" fill="#323232"/>
<path d="M31.5236 24.9422H30.4064C29.4763 23.9201 28.5433 22.8954 27.5762 21.8328H36.2869C35.3272 22.8824 34.3939 23.9032 33.4524 24.9331H32.3599V27.0697H31.5236V24.9425V24.9422Z" fill="#323232"/>
<path d="M39.5849 12.571C40.384 13.4529 40.286 14.862 39.3937 15.6681C38.4132 16.5539 36.995 16.4741 36.0396 15.4456C37.2174 14.4906 38.393 13.5373 39.5849 12.571Z" fill="#E5E5E5"/>
<path d="M27.797 15.4433C26.9239 16.4353 25.4751 16.5549 24.5242 15.7453C23.5551 14.9201 23.4242 13.5711 24.2393 12.5642C25.4175 13.5175 26.5953 14.4709 27.797 15.4433Z" fill="#E5E5E5"/>
</svg>
