<svg width="64" height="64" viewBox="0 0 64 64" fill="none" xmlns="http://www.w3.org/2000/svg">
<path d="M14 45.3356C14.0615 45.0808 14.1582 44.8467 14.3457 44.6555C14.6197 44.374 14.9493 44.2214 15.3361 44.211C16.0305 44.1932 16.7263 44.1903 17.4222 44.1799C17.9906 44.1725 18.5605 44.1621 19.1289 44.1532C19.7149 44.1443 20.3009 44.1355 20.8869 44.1266C21.4553 44.1177 22.0252 44.1088 22.5936 44.1014C23.0858 44.094 23.5795 44.0777 24.0718 44.0821C24.4395 44.0851 24.7281 44.2614 24.9185 44.5785C24.9801 44.6807 25.0255 44.8081 25.0314 44.9252C25.0665 45.6438 25.0797 46.3639 25.1149 47.0825C25.1485 47.7774 24.6299 48.3374 23.978 48.453C23.5693 48.5256 23.1532 48.5612 22.7401 48.61C22.3387 48.6575 21.9373 48.6989 21.5374 48.7464C21.1286 48.7938 20.7199 48.8441 20.3097 48.893C19.8248 48.9508 19.3413 49.0086 18.8564 49.0649C18.3891 49.1197 17.9203 49.1746 17.453 49.2249C17.119 49.262 16.782 49.3286 16.4495 49.3183C15.6935 49.2946 15.0841 48.9716 14.7486 48.2589C14.608 47.9596 14.5479 47.6203 14.4571 47.2973C14.3033 46.755 14.1538 46.2113 14.0029 45.669C14.0029 45.5578 14.0029 45.4467 14.0029 45.3356H14ZM22.8309 45.4571C22.6083 45.4689 22.3856 45.4793 22.1629 45.4956C21.6047 45.5341 21.0466 45.5771 20.4884 45.6171C20.0768 45.6467 19.6651 45.6704 19.2534 45.7001C18.6909 45.7401 18.1283 45.7816 17.5658 45.8231C17.2464 45.8468 16.927 45.8631 16.6091 45.9001C16.2912 45.9371 16.0979 46.235 16.1682 46.5505C16.2151 46.758 16.2605 46.9654 16.3015 47.1743C16.3747 47.5403 16.5798 47.7151 16.9519 47.6885C17.3709 47.6603 17.7885 47.607 18.2074 47.564C19.0439 47.4795 19.8819 47.3936 20.7184 47.3092C21.5095 47.2306 22.3006 47.1521 23.0917 47.0751C23.3906 47.0454 23.6001 46.8054 23.5883 46.5031C23.5839 46.3802 23.5737 46.2557 23.5561 46.1342C23.5327 45.9727 23.5415 45.8023 23.4257 45.663C23.266 45.4704 23.058 45.4393 22.8309 45.4571Z" fill="white"/>
<path d="M48.9751 36.9139C48.9839 36.9139 48.9912 36.9139 49 36.9139V38.2711C48.9912 38.2711 48.9839 38.2711 48.9751 38.2711C48.9751 37.8192 48.9751 37.3658 48.9751 36.9139Z" fill="#FBF398"/>
<path d="M31.6929 4.02415C31.643 2.85661 31.4482 1.72018 30.9823 0.643021C30.9355 0.533378 30.8827 0.426699 30.8271 0.322984C30.7728 0.219268 30.7113 0.119997 30.6703 0.00146484C30.789 0.0992539 30.9091 0.19408 31.0234 0.294832C31.8511 1.02381 32.5455 1.86094 33.0494 2.85365C33.3996 3.5441 33.6398 4.27307 33.7585 5.03909C33.8068 5.34727 33.8215 5.66138 33.8391 5.97401C33.9299 7.59197 33.5402 9.09733 32.8062 10.5271C32.3594 11.3969 31.9785 12.2947 31.7764 13.2608C31.6826 13.7082 31.6328 14.1616 31.668 14.6165C31.7178 15.2655 31.9009 15.8818 32.1822 16.4686C32.6261 17.3916 33.2707 18.1562 33.9958 18.8585C34.9202 19.7534 35.9501 20.5179 36.9683 21.2958C37.6597 21.8262 38.3585 22.3478 38.9636 22.9834C39.2727 23.3064 39.5525 23.6516 39.6932 24.0887C39.7151 24.1583 39.7312 24.2309 39.7811 24.3095C39.8587 24.0428 39.9451 23.779 40.0111 23.5094C40.2835 22.4159 40.1209 21.3669 39.6785 20.3475C39.5305 20.0067 39.406 19.6556 39.2698 19.3089C39.2859 19.2985 39.3005 19.2881 39.3166 19.2778C39.6756 19.6497 40.0447 20.0097 40.389 20.3935C41.309 21.4188 42.0225 22.5715 42.3975 23.9124C42.5455 24.4384 42.6466 24.9792 42.7389 25.52C42.8019 25.8934 42.8238 26.2756 42.8458 26.6549C42.8868 27.335 42.7623 27.9973 42.5821 28.6463C42.3169 29.6034 42.0239 30.5532 41.7529 31.5088C41.6094 32.0155 41.4819 32.5282 41.4863 33.0601C41.4863 33.2216 41.5259 33.392 41.5888 33.5402C41.7324 33.8706 42.0401 34.0839 42.4664 33.8469C42.6671 33.7343 42.859 33.595 43.0275 33.4379C43.6735 32.8379 44.154 32.1059 44.5891 31.3444C45.159 30.3457 45.6234 29.2982 45.89 28.1736C45.975 27.8165 46.0058 27.4461 46.0615 27.0831C46.0688 27.0342 46.082 26.9853 46.0922 26.9364C46.0981 26.9424 46.1083 26.9483 46.1083 26.9542C46.1347 27.3335 46.1801 27.7113 46.183 28.0906C46.1889 28.7752 46.183 29.4612 46.1581 30.1457C46.1406 30.6095 46.0893 31.0717 46.0336 31.5325C45.9809 31.9607 45.915 32.3874 45.8344 32.8097C45.5516 34.2691 45.074 35.6634 44.4265 36.9998C43.5534 38.8045 42.3975 40.4076 41.0336 41.8611C40.1268 42.8272 39.1482 43.7132 38.0992 44.5162C36.9185 45.4215 35.7758 46.3757 34.6902 47.3951C33.6955 48.33 32.7535 49.3168 31.8643 50.354C31.019 51.3407 30.2264 52.3705 29.5012 53.4521C28.697 54.6537 27.9645 55.8968 27.4019 57.2362C27.3111 57.4526 27.2232 57.6704 27.1324 57.8867C27.1778 57.6141 27.21 57.3385 27.2701 57.0688C27.7345 54.9841 28.5783 53.0669 29.7825 51.3156C30.2235 50.6755 30.6732 50.0443 31.0365 49.3538C31.3544 48.7508 31.6299 48.1315 31.75 47.4529C31.8159 47.0795 31.8306 46.7046 31.7031 46.3416C31.498 45.7534 31.0424 45.4512 30.4725 45.3178C29.8426 45.1697 29.2581 45.34 28.7087 45.6512C28.108 45.9905 27.6099 46.4513 27.1763 46.9876C27.1485 47.0217 27.1192 47.0528 27.0899 47.0869C27.0767 47.0839 27.065 47.0795 27.0518 47.0765C27.0357 46.7624 27.0181 46.4483 27.002 46.1342C27.002 45.8779 27.002 45.6216 27.002 45.3638C27.0518 43.5043 27.6363 41.8137 28.5798 40.2343C29.2258 39.1527 29.9759 38.1466 30.7099 37.1272C31.5449 35.9656 32.3492 34.7848 33.0348 33.5239C33.99 31.7681 34.6873 29.9146 35.1224 27.9603C35.2513 27.3809 35.3509 26.7912 35.4154 26.2001C35.4974 25.4459 35.4828 24.6873 35.2513 23.9524C34.9525 23.0026 34.343 22.3152 33.4728 21.8603C32.3887 21.2928 31.2446 20.878 30.0755 20.5431C29.1379 20.2749 28.1857 20.0616 27.2393 19.8201C26.3369 19.5904 25.4491 19.3148 24.6302 18.8525C24.1892 18.6021 23.7849 18.3043 23.4963 17.8746C23.2692 17.5368 23.1491 17.162 23.1901 16.7545C23.234 16.3219 23.3966 15.9248 23.6237 15.5559C24.0119 14.9232 24.5144 14.3913 25.0535 13.892C25.9325 13.0785 26.8936 12.3718 27.8648 11.6784C28.6047 11.1494 29.2947 10.5686 29.866 9.85149C30.7333 8.761 31.2827 7.52382 31.5317 6.15032C31.5991 5.77843 31.6211 5.39913 31.6621 5.02427C31.6738 4.91463 31.6811 4.80498 31.6914 4.69534C31.6914 4.47309 31.6914 4.25085 31.6914 4.0286L31.6929 4.02415Z" fill="#426DB5"/>
<path d="M27.1335 57.8823C27.2229 57.666 27.3108 57.4481 27.403 57.2318C27.9671 55.8939 28.6981 54.6493 29.5024 53.4477C30.2261 52.3661 31.0201 51.3378 31.8654 50.3495C32.7546 49.3109 33.6966 48.3241 34.6914 47.3907C35.7769 46.3698 36.9196 45.4171 38.1004 44.5118C39.1493 43.7073 40.1294 42.8213 41.0347 41.8567C42.3986 40.4032 43.5545 38.8001 44.4277 36.9954C45.0752 35.659 45.5528 34.2647 45.8355 32.8053C45.9175 32.383 45.9835 31.9563 46.0347 31.5281C46.0904 31.0673 46.1417 30.605 46.1593 30.1413C46.1856 29.4568 46.19 28.7708 46.1842 28.0862C46.1812 27.7069 46.1358 27.3291 46.1095 26.9498C46.1095 26.9439 46.0992 26.938 46.0933 26.932C46.0933 26.8609 46.0933 26.7898 46.0933 26.7187C46.0992 26.7157 46.1051 26.7127 46.1109 26.7098C46.2003 26.8891 46.2897 27.0698 46.3776 27.2491C47.1657 28.873 47.8176 30.5487 48.2762 32.3001C48.5179 33.2202 48.7113 34.1506 48.8212 35.0974C48.8636 35.4649 48.89 35.8338 48.9222 36.2012C48.9427 36.4383 48.9574 36.6754 48.9735 36.9124V38.2696C48.9281 39.5824 48.7406 40.8729 48.4007 42.1412C47.907 43.9799 47.1291 45.6853 46.0626 47.2544C44.8173 49.0872 43.2996 50.64 41.4288 51.8268C41.3761 51.8608 41.3219 51.8919 41.2574 51.9305C41.2838 51.9438 41.3028 51.9601 41.3219 51.9616C41.7057 51.9749 42.0866 51.9497 42.4631 51.8742C43.7801 51.609 44.9712 51.0356 46.1197 50.357C46.3146 50.2414 46.505 50.1154 46.7204 50.0073C46.5988 50.2651 46.4845 50.5273 46.3541 50.7807C45.8311 51.7942 45.166 52.7083 44.4057 53.5514C42.5144 55.6494 40.2773 57.2896 37.8191 58.6364C37.6536 58.7268 37.4792 58.7979 37.3078 58.8765L37.3049 58.8735C37.4338 58.6646 37.5715 58.4616 37.6873 58.2468C37.8176 58.0067 37.8718 57.743 37.8294 57.4689C37.7752 57.1148 37.4968 56.8481 37.0939 56.7784C36.6295 56.6984 36.1695 56.7429 35.7242 56.8896C33.8197 57.5193 32.0485 58.4008 30.5147 59.724C29.6445 60.4737 28.9105 61.3404 28.411 62.3909C28.1692 62.8991 27.9964 63.4281 27.9451 63.9985C27.4719 63.0562 27.1877 62.0561 27.0632 61.0115C26.9386 59.967 26.9211 58.9209 27.1335 57.8808V57.8823Z" fill="#F6EB17"/>
<path d="M19.3895 37.4518C19.1859 37.4518 18.9808 37.4473 18.7772 37.4518C18.6014 37.4562 18.4622 37.5481 18.3567 37.6814C18.1633 37.9229 17.9788 38.1718 17.7927 38.4193C17.6755 38.5763 17.7238 38.6978 17.9187 38.7215C18.0725 38.7408 18.2293 38.7438 18.3846 38.7526C18.7039 38.7719 19.0233 38.7823 19.3427 38.8089C19.7646 38.843 20.1118 38.7038 20.4238 38.4163C21.023 37.8666 21.6295 37.3258 22.2404 36.7895C22.6814 36.4042 23.1956 36.1716 23.783 36.1761C24.1888 36.179 24.5946 36.2383 24.999 36.2872C25.5205 36.3509 26.0391 36.4309 26.5606 36.5035C26.9767 36.5628 27.3957 36.6028 27.8074 36.6857C28.5105 36.8265 28.8167 37.5866 28.4285 38.1926C28.0901 38.7215 27.7824 39.2757 27.4059 39.775C26.902 40.4432 26.1973 40.6951 25.3725 40.6092C25.0136 40.5706 24.6532 40.5351 24.2928 40.4995C24.013 40.4714 23.7318 40.4506 23.4519 40.4165C23.1736 40.3825 23.0857 40.1884 23.2263 39.9409C23.3846 39.6639 23.5413 39.3868 23.6966 39.1082C23.8372 38.8578 23.9017 38.8252 24.1874 38.8653C24.621 38.9245 25.0532 38.9838 25.4883 39.0371C25.7154 39.0653 25.9058 38.9927 26.0333 38.7912C26.1168 38.6593 26.2076 38.5289 26.2735 38.3867C26.3614 38.1985 26.3028 38.0696 26.1036 38.0192C25.9087 37.9689 25.708 37.9466 25.5073 37.917C25.0078 37.8444 24.5067 37.7836 24.0086 37.7022C23.6585 37.6444 23.3699 37.7555 23.1121 37.9792C22.5671 38.4489 22.0236 38.9201 21.4786 39.3898C21.3087 39.5364 21.1226 39.6668 20.9659 39.8254C20.667 40.1276 20.2964 40.2669 19.8935 40.3158C19.5023 40.3632 19.1068 40.3825 18.7127 40.3943C18.4358 40.4032 18.1575 40.381 17.8806 40.3721C17.3679 40.3558 16.8551 40.3425 16.3424 40.3188C16.0919 40.3069 15.8516 40.2565 15.6699 40.0506C15.4634 39.8165 15.418 39.4742 15.5791 39.2075C16.0552 38.4237 16.5196 37.631 17.0177 36.8621C17.4396 36.2101 18.0564 35.8619 18.8372 35.8708C19.3588 35.8768 19.8803 35.9182 20.4004 35.9494C20.5908 35.9612 20.6538 36.0842 20.5732 36.262C20.4414 36.5524 20.311 36.8428 20.1762 37.1317C20.0781 37.3436 19.9199 37.4636 19.6781 37.4532C19.5815 37.4488 19.4848 37.4532 19.3866 37.4532L19.3895 37.4518Z" fill="white"/>
<path d="M28.6397 35.7212C28.3863 35.6827 28.0171 35.6293 27.6464 35.5716C27.3637 35.5271 27.081 35.4841 26.8012 35.4308C26.5609 35.3849 26.4818 35.1922 26.6136 34.9833C26.8099 34.6707 27.0106 34.3596 27.2113 34.0499C27.2905 33.9269 27.3974 33.881 27.5468 33.9077C28.0259 33.9951 28.5079 34.0766 28.9884 34.1566C29.1612 34.1847 29.3239 34.1418 29.4367 34.0069C29.5627 33.8543 29.674 33.6884 29.7751 33.5165C29.8571 33.3772 29.8176 33.2587 29.6696 33.1935C29.5509 33.1431 29.422 33.1165 29.2946 33.0913C28.6924 32.9727 28.0889 32.8586 27.4868 32.7416C27.1645 32.6794 26.8876 32.789 26.6385 32.9816C26.1639 33.3491 25.6936 33.7239 25.2204 34.0914C24.9099 34.3329 24.5861 34.5581 24.2828 34.8085C24.0514 34.9996 23.7877 35.1034 23.502 35.1404C23.1533 35.1863 22.7988 35.2189 22.4487 35.2189C22.122 35.2189 21.7953 35.1685 21.4686 35.1404C21.0906 35.1078 20.7141 35.0782 20.3362 35.0456C20.0593 35.0219 19.7795 35.0189 19.5084 34.967C18.9811 34.8663 18.7554 34.2825 19.0587 33.838C19.567 33.0942 20.0622 32.343 20.5911 31.6155C21.1141 30.894 21.8392 30.5932 22.7212 30.691C23.1636 30.7399 23.6075 30.7917 24.0484 30.8466C24.2242 30.8688 24.2814 30.9784 24.2008 31.1355C24.0411 31.4496 23.88 31.7637 23.71 32.0734C23.6236 32.2304 23.4786 32.3134 23.3013 32.306C23.0273 32.2956 22.7549 32.2749 22.4824 32.2541C22.2113 32.2334 22.0004 32.3401 21.8305 32.5475C21.6532 32.7638 21.4671 32.9727 21.2928 33.192C21.2547 33.2409 21.221 33.3313 21.2415 33.3802C21.2606 33.4306 21.3455 33.4765 21.4071 33.4839C21.9286 33.5476 22.4516 33.6113 22.9746 33.6573C23.2749 33.6839 23.5518 33.5921 23.7891 33.4024C24.4572 32.869 25.1193 32.3282 25.7874 31.7963C26.2401 31.4348 26.7499 31.2392 27.3359 31.2273C27.7593 31.2185 28.1621 31.3192 28.5709 31.3963C29.3473 31.5415 30.1223 31.7 30.8987 31.8467C31.4437 31.9489 31.7982 32.3504 31.7631 32.8838C31.7513 33.0498 31.6854 33.2291 31.5931 33.3683C31.2708 33.8528 30.9324 34.3255 30.5881 34.7937C30.1355 35.4086 29.5216 35.7138 28.6441 35.7242L28.6397 35.7212Z" fill="white"/>
<path d="M23.8534 28.4715C24.123 28.4715 24.394 28.4715 24.6635 28.4715C24.8232 28.4715 24.895 28.4196 24.9521 28.2729C25.0444 28.0359 25.1367 27.7973 25.229 27.5602C25.3037 27.3661 25.2642 27.2713 25.0781 27.1824C24.6899 26.9972 24.3017 26.812 23.9135 26.6238C23.7699 26.5542 23.7538 26.5186 23.7963 26.3631C23.9047 25.966 24.0145 25.5674 24.1259 25.1718C24.1772 24.9881 24.2607 24.954 24.4379 25.0325C26.3571 25.8845 28.2762 26.7379 30.1953 27.5899C31.1007 27.9929 32.006 28.3959 32.9129 28.7959C33.2235 28.9337 33.4271 29.236 33.2586 29.642C33.1268 29.959 33.0008 30.2806 32.8909 30.6065C32.7532 31.0095 32.4353 31.1547 32.0192 31.0984C31.4992 31.0288 30.9762 30.9651 30.4561 30.8984C29.8891 30.8258 29.3222 30.7488 28.7552 30.6762C28.2513 30.6124 27.7459 30.5532 27.2404 30.4895C26.6691 30.4169 26.0978 30.3413 25.5264 30.2687C25.0254 30.205 24.5258 30.1442 24.0248 30.0805C23.5164 30.0168 23.0066 29.9502 22.4983 29.8864C22.406 29.8746 22.3137 29.8672 22.2229 29.8494C22.1423 29.8331 22.1057 29.7901 22.154 29.7027C22.3489 29.3442 22.5408 28.9841 22.7327 28.6241C22.7971 28.5041 22.9056 28.4715 23.0315 28.4715C23.3055 28.4715 23.5794 28.4715 23.8534 28.4715ZM30.4121 29.3412L30.4209 29.3056C30.3931 29.2908 30.3653 29.2745 30.336 29.2627C30.1104 29.1708 29.8833 29.0789 29.6562 28.9871C28.7538 28.6226 27.8528 28.2566 26.9504 27.8921C26.8141 27.8373 26.779 27.8536 26.7204 27.9944C26.6413 28.1825 26.5622 28.3692 26.4845 28.5589C26.4244 28.707 26.4889 28.8285 26.6427 28.8493C27.2375 28.9293 27.8338 29.0049 28.43 29.0834C28.9252 29.1486 29.4203 29.2167 29.9155 29.2819C30.0811 29.3041 30.2451 29.3219 30.4107 29.3427L30.4121 29.3412Z" fill="white"/>
<path d="M33.7875 24.7703C33.7729 25.4978 33.7026 26.1423 33.5429 26.7779C33.3832 27.418 32.7122 27.6995 32.1541 27.4802C30.9616 27.0135 29.7705 26.5379 28.5883 26.046C28.0492 25.8222 27.7137 25.394 27.5745 24.8192C27.5525 24.7273 27.5599 24.6236 27.5701 24.5273C27.6067 24.1643 27.6536 23.8013 27.6903 23.4383C27.7064 23.2694 27.6551 23.2027 27.4896 23.1479C26.6091 22.8575 25.7301 22.5626 24.8496 22.2781C24.6709 22.2203 24.583 22.1166 24.5508 21.9299C24.4702 21.4691 24.3721 21.0128 24.2827 20.5535C24.2739 20.5076 24.2622 20.4601 24.2666 20.4157C24.2783 20.312 24.3691 20.2705 24.4893 20.3105C25.1368 20.5253 25.7843 20.7431 26.4318 20.958C27.8104 21.4173 29.1904 21.8751 30.569 22.3344C31.2282 22.5537 31.8918 22.7612 32.5452 22.9967C33.1708 23.2219 33.6103 23.6442 33.7494 24.3258C33.7846 24.4947 33.7802 24.6725 33.789 24.7718L33.7875 24.7703ZM29.3091 23.7702C29.3193 24.3302 29.5361 24.7466 30.0342 24.9777C30.4737 25.1822 30.9205 25.3703 31.3659 25.5615C31.5476 25.64 31.7673 25.5704 31.8699 25.4133C32.1013 25.0607 31.9958 24.674 31.6164 24.5021C30.944 24.1984 30.2686 23.902 29.5977 23.5953C29.3472 23.4812 29.2856 23.542 29.3105 23.7702H29.3091Z" fill="white"/>
<path d="M21.6343 51.1407C21.5991 51.1377 21.5625 51.1274 21.5288 51.1348C20.4037 51.3793 19.2771 51.6252 18.152 51.8712C17.9381 51.9171 17.7257 51.966 17.5118 52.0104C17.3873 52.0356 17.2803 52.0104 17.1953 51.9023C16.895 51.5289 16.5932 51.157 16.2914 50.7851C16.268 50.7555 16.2446 50.7244 16.2241 50.6933C16.142 50.5718 16.1772 50.4829 16.3222 50.4562C16.5288 50.4191 16.7368 50.3865 16.9434 50.351C17.7096 50.2191 18.4757 50.0873 19.2419 49.9539C20.0081 49.822 20.7743 49.6887 21.5405 49.5568C22.2569 49.4338 22.9732 49.3109 23.6896 49.1864C24.1042 49.1153 24.5173 49.0397 24.9319 48.9701C25.1341 48.936 25.2132 48.9864 25.2938 49.179C25.411 49.462 25.5282 49.7435 25.6454 50.0265C25.7142 50.1939 25.6805 50.2976 25.5296 50.3925C24.6609 50.9392 23.7922 51.4874 22.9234 52.0356C22.9059 52.0475 22.8795 52.0534 22.8707 52.0697C22.8473 52.1127 22.8311 52.1601 22.8106 52.206C22.8531 52.2194 22.9 52.2519 22.9396 52.2445C23.4259 52.1497 23.9123 52.0504 24.3987 51.9512C24.8309 51.8623 25.263 51.7719 25.6952 51.6845C25.827 51.6578 25.9398 51.7126 25.9955 51.84C26.0644 51.9956 26.1259 52.1542 26.183 52.3142C26.2343 52.4594 26.1728 52.6016 26.0321 52.6475C25.2352 52.9039 24.4426 53.1839 23.634 53.3973C23.1578 53.5232 22.6553 53.5469 22.1616 53.6017C21.6445 53.6595 21.1274 53.6269 20.6132 53.5514C20.1092 53.4773 19.6287 53.3336 19.1789 53.0861C19.0266 53.0017 19.0222 52.9276 19.1701 52.8298C19.9481 52.3112 20.726 51.7941 21.5039 51.277C21.5493 51.2474 21.5932 51.2148 21.6372 51.1837C21.6357 51.1689 21.6343 51.154 21.6328 51.1407H21.6343Z" fill="white"/>
<path d="M19.8013 43.2139C18.0302 43.2139 16.259 43.2095 14.4864 43.2183C14.2095 43.2183 14.0908 43.0628 14.1802 42.7916C14.2959 42.4405 14.3926 42.0834 14.5025 41.7308C14.5816 41.4759 14.7706 41.3396 15.0313 41.3426C15.5998 41.35 16.1696 41.3589 16.7381 41.3722C17.2098 41.3841 17.6815 41.4033 18.1532 41.4196C18.6821 41.4374 19.2109 41.4537 19.7398 41.47C20.3419 41.4893 20.9426 41.5056 21.5447 41.5248C22.075 41.5411 22.6053 41.5589 23.1356 41.5752C23.6015 41.59 24.0688 41.6078 24.5347 41.6226C24.8585 41.633 25.1822 41.6419 25.506 41.6508C25.7624 41.6582 25.84 41.7678 25.7624 42.0123C25.6628 42.3279 25.5646 42.645 25.465 42.9605C25.4005 43.1665 25.339 43.2109 25.128 43.2109C23.3525 43.2109 21.5769 43.2109 19.8013 43.2109V43.2139Z" fill="white"/>
<path d="M37.311 58.8764L37.3037 58.8927C37.3037 58.8927 37.2949 58.8868 37.2905 58.8838C37.2964 58.8809 37.3022 58.8764 37.3081 58.8735L37.311 58.8764Z" fill="#F6EB17"/>
</svg>
