<svg width="64" height="64" viewBox="0 0 64 64" fill="none" xmlns="http://www.w3.org/2000/svg">
<path d="M29.5847 4.00522C35.432 4.00522 41.2792 4.00522 47.1291 4C47.3554 4 47.5167 4.0678 47.6779 4.21644C49.1371 5.54378 50.6042 6.86591 52.0738 8.18282C52.2584 8.3471 52.3417 8.514 52.3365 8.76956C52.2663 11.1217 52.3131 13.4739 52.2845 15.8261C52.2819 16.0582 52.3443 16.1442 52.5758 16.1677C53.442 16.2486 54.3055 16.3424 55.1717 16.4415C56.3032 16.5719 57.432 16.7127 58.5609 16.8483C58.5921 16.8509 58.6233 16.8692 58.6519 16.8666C59.2762 16.7988 59.6404 17.1743 60.0123 17.6046C61.2322 19.0102 62.4469 20.4157 63.6461 21.8369C63.9114 22.1525 64.0206 22.4498 63.9972 22.867C63.9426 23.8214 63.9582 24.7811 63.9426 25.7381C63.9166 27.4227 63.888 29.1073 63.8619 30.7919C63.8411 31.9785 63.8203 33.1624 63.7995 34.3489C63.7657 36.1795 63.7319 38.0102 63.7033 39.8382C63.7033 39.9634 63.6591 40.0494 63.5732 40.1355C61.7889 41.9244 60.0071 43.7159 58.2332 45.5152C58.0901 45.6613 57.9653 45.6482 57.8014 45.5961C55.9546 45.0172 54.1182 44.4069 52.2454 43.9115C51.9931 43.8437 51.9749 43.9584 51.9151 44.1201C50.9787 46.6366 49.6808 48.947 47.9692 51.015C46.3253 52.9995 44.3979 54.6554 42.213 56.0114C39.8772 57.4613 37.3906 58.5722 34.7297 59.2711C33.1872 59.6753 31.6213 59.8917 30.0269 59.7952C28.0422 59.6753 26.1746 59.1798 24.6036 57.8733C24.3747 57.683 24.0886 57.7351 23.8311 57.696C21.5135 57.3283 19.3156 56.6372 17.3491 55.3177C15.1746 53.86 13.6348 51.9198 12.9585 49.3512C12.8726 49.0305 12.7296 48.7645 12.5397 48.5011C11.6683 47.2859 10.9296 45.9951 10.347 44.6156C10.2585 44.4017 10.1649 44.3548 9.9334 44.4304C8.88775 44.772 7.83171 45.085 6.78347 45.4187C6.58318 45.4813 6.42972 45.4735 6.24764 45.3457C4.35924 44.0158 2.46565 42.6937 0.564244 41.3794C0.376965 41.2516 0.31714 41.1108 0.314539 40.8943C0.298932 39.168 0.288528 37.4391 0.24691 35.7127C0.189686 33.2693 0.161074 30.8232 0.116855 28.3772C0.0960465 27.1593 0.0778388 25.9441 0.0596311 24.7263C0.0492267 23.9883 0.0258169 23.2503 0.00240698 22.5124C-0.00279521 22.3481 0.0362213 22.2151 0.145467 22.0873C1.56046 20.4001 2.99367 18.7285 4.45809 17.0856C4.53872 16.9944 4.62196 16.95 4.74421 16.9344C6.71584 16.6867 8.68747 16.4337 10.6669 16.246C11.2131 16.1938 11.7568 16.1234 12.3056 16.0738C12.4435 16.0608 12.4747 16.0191 12.4747 15.8887C12.4695 15.0985 12.4643 14.3058 12.4747 13.5156C12.4773 13.3253 12.3706 13.2158 12.2484 13.1401C11.7802 12.8481 11.6813 12.4152 11.6813 11.8988C11.6813 9.33805 11.6709 6.77724 11.6527 4.21644C11.6527 4.02608 11.723 4 11.8868 4.00261C12.3654 4.01304 12.8414 4.00522 13.32 4.00522C18.7407 4.00522 24.164 4.00522 29.5847 4.00522ZM37.7729 41.8201C37.0472 41.8201 36.3189 41.8201 35.5932 41.8201C35.2993 41.8148 35.008 41.8096 34.7141 41.8018C34.4904 41.7053 34.2589 41.7549 34.03 41.7601C29.2804 41.4446 24.5984 41.9139 19.9554 42.9414C20.8398 42.3547 21.8126 41.9739 22.8478 41.5775C18.1034 41.0482 13.6894 39.859 10.0661 36.555C10.0661 39.8199 11.2964 43.3847 13.0573 46.102C14.7584 48.7228 17.1358 50.4334 20.01 51.56C18.1086 51.7895 16.3945 51.4348 14.67 50.6838C16.561 53.4845 19.7343 55.3203 22.9883 56.027C23.8181 56.207 24.731 56.2148 25.4984 56.6086C26.3047 57.0206 26.955 57.4978 27.8498 57.7351C29.5769 58.1941 31.4133 58.1158 33.1638 57.8577C37.8172 56.8485 42.174 55.1065 45.4696 51.5209C47.0302 49.8232 48.3828 47.9769 49.3972 45.896C49.6131 45.4526 50.7628 43.3247 50.4663 43.017C50.253 42.7954 49.3894 42.8162 49.0877 42.7302C48.6091 42.5972 48.4036 42.339 48.0681 42.0026C47.8496 41.5541 47.5687 42.0522 47.319 42.1382C46.8924 42.2868 46.4086 42.1121 45.9664 42.0548C45.1158 41.9426 44.2445 41.8357 43.4069 41.6792C42.5356 41.5176 41.7266 41.3767 40.8292 41.515C39.8148 41.6688 38.8108 41.88 37.7755 41.8227L37.7729 41.8201ZM50.214 18.4234C49.9721 18.014 50.1672 17.0439 50.1672 16.5771C50.1672 15.9043 50.1672 15.2315 50.1672 14.5614C50.1672 13.1036 50.1698 11.6485 50.1724 10.1908C50.1724 9.36673 49.9409 9.2207 49.3296 8.67307C48.8302 8.22715 48.3334 7.77862 47.8366 7.33008C47.2461 6.79811 46.8482 6.27395 46.0236 6.2583C45.3343 6.24526 44.645 6.26091 43.9557 6.26091C42.5173 6.26091 41.0815 6.26091 39.6431 6.26091C33.7464 6.26091 27.8498 6.26091 21.9531 6.26091C20.4496 6.26091 18.9462 6.26091 17.4428 6.26091C16.691 6.26091 15.9393 6.26091 15.1876 6.26091C14.8053 6.26091 14.0171 6.08358 13.783 6.44606C13.5515 6.80593 13.783 7.99245 13.783 8.42534C13.7882 9.13203 13.7882 9.83612 13.7778 10.5428C13.77 11.0722 13.692 11.5963 14.0405 12.0344C14.3813 12.4621 14.5738 12.483 14.5868 13.0802C14.618 14.4544 14.592 15.8313 14.592 17.2056C14.592 17.4664 14.7714 18.7702 14.4307 18.7833C14.3501 18.7859 14.0639 18.4417 13.9677 18.3869C13.7596 18.2722 13.5333 18.2226 13.2966 18.22C12.0299 18.2044 10.6253 18.4573 9.36636 18.619C8.62244 18.7155 7.87853 18.8094 7.13462 18.9006C6.64301 18.9606 5.95112 18.9189 5.53494 19.1823C5.02773 19.5056 4.57514 20.2853 4.17717 20.7443C3.74278 21.2476 3.3058 21.7483 2.87142 22.2516C2.38761 22.8122 2.13791 23.133 2.16392 23.8866C2.18733 24.5073 2.18213 25.1305 2.18213 25.7538C2.18213 28.6066 2.29397 31.4595 2.31478 34.315C2.32519 35.6945 2.41883 37.0688 2.41883 38.4483C2.41883 38.9933 2.26016 39.7782 2.55668 40.258C2.85321 40.7352 3.71157 41.116 4.17717 41.4393C5.07195 42.0678 6.29706 43.3977 7.43634 43.0952C7.95656 42.957 8.81232 42.8371 9.25711 42.5424C9.52242 42.3651 9.46 42.4225 9.4626 42.12C9.4626 41.9635 9.32214 41.455 9.18428 41.3715C8.84094 41.1603 7.76668 41.8044 7.37912 41.8748C6.78607 41.9817 6.40631 41.5619 5.94331 41.2281C5.38668 40.8265 4.81444 40.4484 4.2552 40.052C3.69336 39.653 3.59192 39.4314 3.57892 38.7481C3.52949 35.9657 3.47227 33.1832 3.41765 30.4008C3.38904 28.9456 3.40204 27.4984 3.34742 26.0432C3.32141 25.3626 3.28499 24.6429 3.34222 23.9623C3.39164 23.3703 3.7844 23.0235 4.15896 22.5775C4.63236 22.0143 5.11877 21.464 5.60777 20.9112C6.13579 20.314 6.36989 20.1941 7.16063 20.0976C8.5314 19.9307 9.89958 19.7612 11.273 19.6204C11.8738 19.5604 12.7348 19.3048 13.32 19.4848C13.8012 19.6334 14.2564 20.168 14.6388 20.4861C14.9847 20.7756 15.4997 21.099 15.7677 20.4835C15.9289 20.1132 15.7729 19.3596 15.7703 18.958C15.7677 17.4742 15.7625 15.993 15.7651 14.5092C15.7651 13.8234 15.8665 13.0593 15.7651 12.3813C15.6818 11.8284 15.2656 11.7424 15.0498 11.2991C14.8131 10.8062 15.0159 9.81526 15.0159 9.27024C15.0159 8.92081 14.8131 7.75254 15.0732 7.52045C15.3853 7.24142 16.4986 7.45004 16.8991 7.45004C17.5832 7.45004 18.2647 7.45004 18.9488 7.45265C20.4288 7.45265 21.9088 7.45265 23.3889 7.44743C24.0313 7.44743 24.5776 7.35616 25.1004 7.75515C25.4697 8.03678 25.8079 8.48531 26.2449 8.66786C26.2449 8.1437 26.0524 7.61172 26.5752 7.43961C27.2307 7.22317 28.2841 7.43961 28.9916 7.44222C30.6017 7.44222 32.2118 7.44483 33.8219 7.44743C36.9276 7.44743 40.0333 7.44743 43.139 7.44222C43.9323 7.44222 44.7647 7.37181 45.5554 7.437C46.2993 7.49698 46.6609 7.87771 47.1993 8.37318C47.6987 8.83475 48.4036 9.27285 48.8042 9.81787C49.1657 10.3081 48.9863 11.0931 48.9863 11.685C48.9811 13.3148 48.9629 14.9395 48.9264 16.5693C48.9082 17.3803 48.9134 18.1939 48.9186 19.0049C48.9212 19.4039 48.7132 20.773 49.0071 20.9894C49.6001 20.494 50.3414 19.5734 51.1478 19.4822C51.9671 19.3909 52.9451 19.6647 53.7645 19.7534C54.7659 19.8603 55.7673 19.9594 56.7662 20.0845C57.0861 20.1237 57.5127 20.1028 57.7988 20.2697C58.1421 20.4679 58.4231 20.966 58.6806 21.2711C59.232 21.9256 60.2256 22.7105 60.5664 23.4955C60.8941 24.2491 60.6184 25.5791 60.608 26.3927C60.6028 26.8829 60.595 27.3732 60.5924 27.8634C60.5924 28.2311 60.7198 28.8309 60.5846 29.1621C60.4441 29.5089 60.5325 29.3864 60.1658 29.4255C59.7444 29.4698 59.167 29.2925 58.7482 29.2377C59.2736 30.0279 59.9681 30.8389 60.3583 31.7046C60.6886 32.4426 60.4805 33.4049 60.4779 34.1976C60.4753 35.259 60.4337 36.3177 60.4103 37.3791C60.4025 37.7494 60.5065 38.3831 60.3661 38.7299C60.2048 39.1289 59.6534 39.4966 59.3516 39.7965C59.0083 40.1381 58.6676 40.4823 58.3268 40.8265C58.0459 41.1108 57.6635 41.6688 57.3046 41.8592C56.7818 42.133 55.7829 41.6062 55.2315 41.4367C54.3107 41.1525 53.3821 40.8917 52.4483 40.6492C51.7382 40.464 50.7446 40.4093 50.1698 39.9216C49.8108 39.6165 49.5143 39.155 49.2074 38.7951C49.0409 38.5995 48.6637 37.9658 48.4192 37.898C47.886 37.7468 46.9834 38.9542 46.5048 39.1602C45.7765 39.4757 44.5852 38.9959 43.8153 38.8759C42.9439 38.7403 42.0674 38.6438 41.1934 38.5369C37.492 38.078 33.7464 37.9397 30.0191 38.0284C28.1307 38.0727 26.2293 38.1666 24.3513 38.3622C22.6111 38.5447 20.6915 38.6099 19.0112 39.1237C19.6901 39.3297 20.3794 39.4966 21.0635 39.6895C21.8074 39.8982 22.3979 39.7782 23.16 39.6921C24.549 39.5357 25.9405 39.4183 27.3347 39.3401C30.2922 39.1758 33.2314 39.1628 36.1889 39.3088C38.6521 39.4314 41.1127 39.7026 43.5526 40.0546C44.5514 40.198 46.1329 40.8578 47.0042 40.2737C47.3502 40.0416 47.8912 39.4131 48.284 39.5331C48.6533 39.6452 49.1111 40.5944 49.3972 40.8761C49.8524 41.3272 50.4143 41.3663 51.0151 41.5097C51.642 41.6584 52.2663 41.8305 52.8879 41.9974C54.0272 42.3051 55.1535 42.6389 56.2745 43.0014C56.7688 43.1604 57.1927 43.4264 57.6661 43.1917C58.1655 42.944 58.6832 42.1643 59.0811 41.7653C59.5545 41.2907 60.0279 40.8161 60.4987 40.3415C60.8057 40.0338 61.3649 39.6661 61.534 39.2671C61.7447 38.7716 61.6224 37.9006 61.6328 37.366C61.6432 36.8315 61.6354 36.2943 61.6406 35.7597C61.6484 34.4662 61.703 33.1728 61.7134 31.8794C61.7394 29.2221 61.6718 26.5152 61.8253 23.8658C61.8643 23.1747 61.703 22.9609 61.2582 22.4315C60.8369 21.9308 60.4129 21.4327 59.9863 20.9373C59.5597 20.4418 59.1305 19.9489 58.6988 19.4587C58.345 19.0571 58.2176 19.0623 57.6557 18.9867C56.3214 18.8094 54.9818 18.6738 53.6448 18.5382C52.9738 18.4704 52.3027 18.4052 51.6342 18.3348C51.2388 18.293 50.5183 18.0557 50.2088 18.4286L50.214 18.4234ZM55.2341 36.5263C54.7945 36.4168 54.3549 36.3073 53.9153 36.1978C53.6839 36.1404 53.0856 36.1091 52.9113 35.9526C52.4535 35.538 53.135 34.4506 52.8203 33.9786C52.5732 33.6109 51.2674 33.8951 50.8278 33.9186C50.3649 33.9447 49.353 33.7882 49.1761 34.2315C49.0097 34.6462 49.0825 35.8431 49.249 36.2447C49.4961 36.8367 50.2972 37.473 50.7186 37.9658C51.3195 38.6699 51.8189 38.7169 52.7006 38.9463C53.494 39.1523 54.2821 39.3688 55.0676 39.5983C55.7049 39.786 56.4436 40.2476 56.9977 39.8173C57.4971 39.4314 58.0225 38.8629 58.4387 38.3857C58.8548 37.9085 58.8314 37.473 58.8236 36.8732C58.8132 36.203 58.9693 35.9266 59.4219 35.4676C59.9031 34.98 59.4453 34.9148 59.1253 34.4323C58.7768 33.9082 58.9069 33.3397 58.8964 32.7425C58.886 32.0567 58.4647 31.616 58.0927 31.0527C57.7598 30.5494 57.3852 29.6497 56.9014 29.2847C56.4254 28.9248 55.4344 28.93 54.87 28.8257C54.4538 28.7501 53.2157 28.7344 52.9503 28.4293C52.6408 28.0721 52.8957 26.7917 52.8983 26.3144C52.8983 25.9181 52.685 24.5307 52.9269 24.27C53.1454 24.0327 54.4616 24.4056 54.8049 24.4551C55.541 24.5646 55.3538 24.9245 55.3512 25.613C55.3512 25.9233 55.2237 26.4787 55.4422 26.69C55.6009 26.8438 56.1159 26.8151 56.3292 26.8464C57.0289 26.9429 57.7286 27.0603 58.4283 27.1437C58.8236 27.1906 58.8808 27.2637 59.0161 26.9377C59.1175 26.69 59.0187 26.1788 59.0213 25.9076C59.0265 25.3339 59.2086 24.4577 58.9537 23.9388C58.665 23.3468 57.9262 22.747 57.4971 22.249C56.9898 21.6596 56.7922 21.6231 56.004 21.5292C55.2419 21.438 54.4824 21.3519 53.7203 21.2685C53.0674 21.1981 52.2428 20.966 51.5952 21.0546C50.9735 21.1407 50.4169 21.8422 49.9331 22.2385C49.2672 22.7809 49.2438 23 49.2412 23.8449C49.2412 25.3391 49.1866 26.8412 49.223 28.3328C49.2438 29.1204 49.699 29.5533 50.1594 30.1609C50.5027 30.6146 50.8903 31.41 51.4001 31.6812C51.9411 31.968 52.8541 31.9732 53.4472 32.0932C53.8685 32.1792 54.9454 32.2158 55.2185 32.5469C55.4838 32.8677 55.2445 34.1064 55.2393 34.5027C55.2289 35.1755 55.2263 35.8483 55.2263 36.5237L55.2341 36.5263ZM20.4444 8.97296C19.3234 8.97296 18.2023 8.97296 17.0812 8.97296C16.7725 8.97296 16.6234 9.12247 16.6338 9.42149C16.639 9.54666 16.652 9.67444 16.6338 9.79701C16.5454 10.3212 16.7197 10.7228 17.1696 11.0044C17.3699 11.1296 17.4037 11.3095 17.4037 11.5338C17.3959 12.7307 17.3855 13.9277 17.4168 15.1246C17.4272 15.5419 17.3101 15.8574 17.0032 16.1051C16.7977 16.272 16.8471 16.3894 17.011 16.538C17.3205 16.817 17.4402 17.1587 17.4298 17.5915C17.4063 18.6112 17.4063 19.6334 17.4584 20.6504C17.4844 21.1485 17.3595 21.4875 16.8965 21.6779C16.7275 21.7483 16.6858 21.8708 16.6936 22.0482C16.7067 22.3715 16.7119 22.6949 16.6936 23.0156C16.6806 23.2712 16.7613 23.3416 17.024 23.3181C18.3349 23.2008 19.6485 23.0991 20.962 23.0052C21.1337 22.9922 21.1701 22.927 21.1649 22.7783C21.1571 22.4967 21.1363 22.2125 21.1701 21.936C21.217 21.5527 21.0843 21.305 20.7436 21.1407C20.6109 21.0781 20.486 21.0025 20.4886 20.7965C20.4965 19.7038 20.486 18.6112 20.473 17.5185C20.473 17.3516 20.5251 17.3125 20.6837 17.3073C21.347 17.2917 22.0103 17.2682 22.6736 17.2291C22.9311 17.2134 23.0221 17.2656 23.0195 17.5576C23.0039 19.2449 23.0117 20.9295 23.0091 22.6167C23.0091 22.7757 23.0013 22.8905 23.2302 22.8774C24.1718 22.8227 25.116 22.7888 26.0576 22.7418C26.3151 22.7288 26.6532 22.7914 26.8041 22.6558C26.9628 22.5097 26.8145 22.1603 26.8587 21.9074C26.9472 21.4041 26.7495 21.0755 26.2995 20.8747C26.1044 20.7886 26.055 20.6374 26.0576 20.4236C26.0706 19.5082 26.0576 18.5903 26.0654 17.675C26.0654 17.4898 26.0108 17.3699 25.8677 17.2578C25.4515 16.9292 25.0536 16.5823 24.6374 16.2538C24.4787 16.1286 24.4449 16.0556 24.6322 15.9148C25.0302 15.6175 25.4073 15.2863 25.8027 14.9864C25.951 14.8743 26.0056 14.7543 26.003 14.5692C25.99 13.2992 25.9874 12.0292 25.9926 10.7593C25.9926 10.595 25.9353 10.4933 25.8157 10.3942C25.3371 9.9952 24.8637 9.5936 24.3955 9.17897C24.2394 9.04076 24.0834 8.97557 23.8701 8.97818C22.7282 8.98861 21.5863 8.98339 20.4444 8.98339V8.97296ZM37.9498 21.9908C37.9498 22.1681 37.9602 22.3455 37.9472 22.5228C37.9342 22.7027 38.0044 22.7444 38.1787 22.7497C40.5743 22.8201 42.9647 22.9687 45.3525 23.1669C45.4592 23.1747 45.5424 23.1591 45.6335 23.0834C46.1511 22.6506 46.6791 22.2281 47.2045 21.8057C47.3112 21.7196 47.3476 21.6231 47.3476 21.4849C47.3476 20.1523 47.3788 18.8198 47.3476 17.4872C47.3346 16.9839 47.4698 16.5954 47.8496 16.2877C48.0369 16.1338 48.0551 16.0243 47.8418 15.873C47.4854 15.6149 47.3372 15.2785 47.3554 14.8091C47.4022 13.5 47.3918 12.1857 47.4074 10.8766C47.4074 10.7097 47.3736 10.5845 47.2383 10.4672C46.7467 10.0369 46.2629 9.59621 45.7817 9.15029C45.6439 9.0199 45.5008 8.97035 45.3083 8.97035C43.1572 8.97557 41.0087 8.97035 38.8576 8.97035C38.5793 8.97035 38.2203 8.87908 38.0409 9.01729C37.8302 9.17897 38.0096 9.5597 37.9602 9.84134C37.877 10.2873 38.0461 10.5976 38.4518 10.7879C38.6885 10.9001 38.7431 11.0852 38.7405 11.3434C38.7249 14.3945 38.7223 17.4455 38.7223 20.4966C38.7223 20.6817 38.6885 20.8173 38.5117 20.8982C38.0513 21.1042 37.8458 21.4484 37.9524 21.9569C37.9524 21.9673 37.9524 21.9778 37.9524 21.9882L37.9498 21.9908ZM11.338 27.5323C11.9362 27.3132 12.5345 27.0942 13.1301 26.8777C13.6192 26.7004 14.3136 26.5778 14.748 26.2884C15.3307 25.9024 15.0341 24.0066 15.0107 23.2947C14.9899 22.6245 14.6752 22.5019 14.1732 22.0925C13.8246 21.8083 13.4085 21.3102 13.0027 21.125C12.5163 20.906 11.8426 21.1094 11.3224 21.1641C10.7605 21.2241 10.2013 21.2815 9.64207 21.3441C9.02561 21.4119 8.40915 21.4823 7.79529 21.5579C7.07479 21.6466 6.90572 21.8057 6.44533 22.3428C6.05516 22.7966 5.59997 23.2321 5.25142 23.7197C4.89247 24.2204 4.98611 24.7055 4.99651 25.3078C5.01472 26.5491 5.03553 27.7904 5.06934 29.0343C5.09275 29.8818 5.04073 30.6928 4.16156 31.0736C4.9679 31.5247 5.12137 31.6603 5.12917 32.6121C5.13957 33.4935 5.15518 34.375 5.17079 35.259C5.18639 36.1065 5.2072 36.9566 5.22021 37.8041C5.22541 38.2031 5.17339 38.4795 5.42569 38.7873C5.64159 39.0506 6.1592 39.2958 6.44012 39.5044C7.04878 39.9607 7.582 40.1303 8.31291 39.8095C8.98139 39.5148 8.70048 39.1028 8.58863 38.4509C8.43516 37.5564 8.32592 36.6541 8.27129 35.7466C8.22708 35.0373 8.00078 33.8299 8.30251 33.165C8.44557 33.2928 8.57822 33.4101 8.73949 33.5535C8.73949 30.8284 8.68227 28.1007 8.64325 25.3757C8.63025 24.5021 8.71348 24.5438 9.54063 24.4395C9.83455 24.403 11.0207 24.0509 11.2678 24.2309C11.455 24.3665 11.3302 25.5764 11.3328 25.7825C11.3406 26.364 11.3406 26.9481 11.3406 27.5296L11.338 27.5323ZM33.8375 12.9289C34.7843 12.7177 35.6817 12.5091 36.5842 12.3265C36.7871 12.2848 36.8313 12.2092 36.8287 12.0214C36.8209 11.1165 36.8105 10.209 36.8339 9.30414C36.8417 9.01469 36.7481 8.96514 36.4854 8.96775C33.8479 8.97818 31.2104 8.97296 28.5703 8.97296C27.8914 8.97296 27.9226 8.97296 27.881 9.65358C27.8472 10.1934 27.9512 10.6237 28.435 10.9209C28.5677 11.0044 28.6821 11.1139 28.6821 11.3199C28.6769 14.4231 28.6821 17.5264 28.6873 20.6296C28.6873 20.76 28.6613 20.8564 28.5312 20.8956C27.9538 21.0651 27.8341 21.4823 27.9148 22.0169C27.933 22.129 27.9304 22.2464 27.9148 22.3585C27.8784 22.6141 27.9668 22.6975 28.2321 22.6871C29.4234 22.6323 30.6173 22.6245 31.8112 22.6245C33.3901 22.6245 34.9664 22.6245 36.5452 22.6792C36.6753 22.6845 36.8157 22.7184 36.8131 22.4941C36.8053 21.2241 36.8053 19.9542 36.8105 18.6842C36.8105 18.5382 36.7741 18.5095 36.6311 18.5434C35.7649 18.739 34.8961 18.9293 34.0248 19.1093C33.8661 19.1432 33.8297 19.211 33.8349 19.357C33.8453 19.6282 33.8245 19.8994 33.8427 20.168C33.8557 20.3766 33.8089 20.4601 33.5774 20.4522C33.0389 20.434 32.4979 20.4366 31.9569 20.4522C31.7592 20.4575 31.7176 20.4001 31.7202 20.2097C31.7306 19.1588 31.7332 18.1053 31.7202 17.0544C31.7176 16.8275 31.8034 16.8092 31.9881 16.8118C33.13 16.8223 34.2719 16.817 35.4137 16.8327C35.6244 16.8327 35.6999 16.7858 35.6947 16.5615C35.6791 15.9695 35.6791 15.375 35.6947 14.7804C35.6999 14.5614 35.64 14.5066 35.4215 14.5066C34.2693 14.5144 33.117 14.4988 31.9647 14.5066C31.7722 14.5066 31.7176 14.457 31.7202 14.2641C31.7306 13.307 31.728 12.3474 31.7202 11.3903C31.7202 11.2104 31.7696 11.1635 31.9465 11.1661C32.4979 11.1765 33.0467 11.1765 33.5982 11.1661C33.7881 11.1609 33.8505 11.2182 33.8453 11.4112C33.8323 11.9093 33.8401 12.4074 33.8401 12.9315L33.8375 12.9289ZM28.4948 31.4986C28.5156 31.4934 28.5364 31.4908 28.5573 31.4856C29.3532 32.8547 30.0867 34.2628 30.8488 35.6502C31.0153 35.9526 31.0803 36.19 31.4003 36.3151C31.6812 36.4273 32.2586 36.3099 32.5681 36.3125C32.8257 36.3125 33.5253 36.4481 33.736 36.3203C33.9649 36.1821 33.9181 36.1873 33.9493 35.8483C33.9727 35.5823 33.9857 35.2772 33.8427 35.0452C33.7074 34.8287 33.4265 34.8313 33.3199 34.5601C33.0832 33.9655 33.2939 32.8938 33.2939 32.2497C33.2939 30.6694 33.2939 29.0917 33.2939 27.5114C33.2939 27.1646 33.195 26.6561 33.2939 26.3275C33.4005 25.965 33.606 26.025 33.7985 25.7433C33.9701 25.493 34.1106 24.7524 33.8895 24.5099C33.6268 24.223 32.2612 24.4525 31.8867 24.4499C31.5381 24.4499 30.5783 24.2517 30.3052 24.5099C30.1101 24.695 30.1153 25.3 30.2116 25.5243C30.3 25.7251 30.4587 25.759 30.5809 25.9128C30.8254 26.2206 30.8202 26.2858 30.8254 26.7186C30.8358 27.4749 30.8202 28.2337 30.8202 28.99C30.8202 29.5298 31.0257 30.4973 30.7682 30.9771C30.1647 29.5324 29.6081 28.0668 29.0333 26.6117C28.8486 26.1449 28.6171 24.9349 28.2191 24.5959C27.8628 24.2934 26.7053 24.549 26.2501 24.5646C25.553 24.5855 25.3891 24.5021 25.3865 25.2218C25.3839 25.9128 25.6518 25.7068 25.9562 26.2284C26.1955 26.6404 26.0238 27.587 26.0264 28.0747C26.029 28.9378 26.0264 29.801 26.0264 30.6641C26.0264 31.5273 26.0264 32.3905 26.0264 33.2536C26.0264 33.8065 26.1798 34.581 25.8365 35.0217C25.5738 35.3581 25.129 35.864 25.4047 36.3855C25.618 36.7897 26.7495 36.4872 27.1761 36.4612C27.9928 36.409 29.5795 36.7115 29.1347 35.3685C29.0333 35.0634 28.82 35.0634 28.6691 34.8444C28.474 34.5601 28.5104 34.6983 28.4974 34.242C28.4714 33.3319 28.4974 32.4139 28.4974 31.5038L28.4948 31.4986ZM23.8076 30.5285C23.8076 30.5285 23.8024 30.5285 23.7998 30.5285C23.7998 29.1021 23.7972 27.6757 23.805 26.2492C23.805 26.0667 23.7634 25.9415 23.6152 25.8268C23.2276 25.5321 22.853 25.2192 22.4759 24.9089C22.3666 24.8176 22.2574 24.7707 22.1091 24.7837C20.91 24.8854 19.7135 24.9819 18.5144 25.0758C18.3531 25.0888 18.2205 25.1279 18.1034 25.2531C17.7393 25.639 17.3699 26.0172 16.985 26.3848C16.8289 26.5335 16.7769 26.69 16.7795 26.9012C16.8029 29.8453 16.8185 32.7921 16.8393 35.7362C16.8393 35.8979 16.8393 36.0465 16.6806 36.143C16.2359 36.422 16.1474 36.8393 16.2176 37.3243C16.2333 37.426 16.2307 37.5329 16.2176 37.6372C16.1994 37.8041 16.2775 37.8328 16.4179 37.8041C17.5234 37.5799 18.6367 37.3895 19.7525 37.2304C19.8982 37.2096 19.971 37.1574 19.958 36.9931C19.9398 36.7454 19.9242 36.4924 19.9476 36.2447C19.971 35.9892 19.8852 35.8327 19.6485 35.7466C19.4378 35.671 19.3676 35.5276 19.3754 35.2929C19.3936 34.7218 19.3858 34.1481 19.3754 33.5744C19.3754 33.4231 19.4118 33.3553 19.5731 33.3397C20.0465 33.2928 20.5225 33.238 20.9933 33.165C21.1779 33.1363 21.2248 33.1832 21.2222 33.3632C21.2118 33.9551 21.217 34.5497 21.2222 35.1442C21.2222 35.2772 21.204 35.392 21.0817 35.465C20.7253 35.6762 20.6265 35.9944 20.6837 36.3881C20.7045 36.5316 20.7019 36.6802 20.6837 36.8236C20.6577 37.0349 20.7332 37.0818 20.9386 37.0557C21.875 36.9358 22.8114 36.8367 23.7478 36.7141C23.9715 36.6854 24.2863 36.7741 24.3955 36.6072C24.5073 36.4377 24.4163 36.143 24.4475 35.9083C24.4917 35.5771 24.3955 35.3503 24.0782 35.2225C23.8571 35.1364 23.7998 34.9774 23.8024 34.7348C23.8155 33.3293 23.8103 31.9237 23.8103 30.5181L23.8076 30.5285ZM47.4282 33.6578C47.4464 33.6578 47.4646 33.6578 47.4828 33.6578C47.4828 31.3787 47.4828 29.1021 47.488 26.8229C47.488 26.643 47.4048 26.5309 47.2956 26.4187C46.9236 26.0432 46.5438 25.6703 46.1745 25.2896C46.0678 25.1801 45.956 25.1227 45.7999 25.1071C44.0156 24.9323 42.226 24.7967 40.4365 24.6976C39.833 24.6637 39.8564 24.6794 39.8226 25.2792C39.7992 25.699 39.8798 26.0276 40.2752 26.2284C40.4209 26.3014 40.4573 26.4266 40.4573 26.5883C40.4495 29.3446 40.4443 32.1036 40.4443 34.8626C40.4443 35.0139 40.4131 35.1312 40.2674 35.186C39.8356 35.3477 39.729 35.6736 39.7888 36.0961C39.8044 36.2082 39.8018 36.3256 39.7888 36.4377C39.768 36.6228 39.8356 36.675 40.0255 36.6959C41.9529 36.8967 43.8777 37.1261 45.7843 37.4756C45.9092 37.499 45.995 37.4573 46.0939 37.3843C46.4762 37.0974 46.8586 36.8132 47.2539 36.5446C47.3918 36.4507 47.4308 36.3464 47.4308 36.1873C47.423 35.345 47.4282 34.5027 47.4282 33.6578ZM36.0796 24.5907V24.5047C35.9132 24.5047 35.7467 24.5099 35.5802 24.5047C34.9299 24.4864 34.9508 24.4864 34.9247 25.1383C34.9117 25.5008 34.969 25.7851 35.3253 25.952C35.5152 26.0406 35.5594 26.1997 35.5594 26.4109C35.5516 29.0552 35.549 31.6994 35.5594 34.3437C35.5594 34.641 35.484 34.8261 35.2239 34.9695C35.0938 35.0399 34.9039 35.0921 34.9117 35.3138C34.9195 35.6058 34.9195 35.8979 34.9117 36.1873C34.9091 36.3229 34.956 36.3621 35.0912 36.3673C36.2617 36.4273 37.4296 36.4977 38.6001 36.5629C38.6755 36.5681 38.803 36.6098 38.8082 36.5003C38.8264 36.1587 38.829 35.8118 38.8134 35.4702C38.8056 35.2799 38.6001 35.2329 38.483 35.1234C38.3348 34.9826 38.1839 34.8861 38.1865 34.6279C38.1995 31.9107 38.1943 29.1934 38.1943 26.4761C38.1943 26.3405 38.1735 26.1971 38.3348 26.1345C38.7874 25.9598 38.894 25.6103 38.8264 25.167C38.8134 25.0862 38.8108 24.9975 38.8264 24.9167C38.881 24.6377 38.7275 24.5881 38.5012 24.5881C37.6923 24.5881 36.8834 24.5881 36.0744 24.5881L36.0796 24.5907ZM15.081 31.8116C14.3813 32.0802 13.6868 32.3644 12.9949 32.6539C12.6047 32.8181 11.6501 33.0085 11.4264 33.3892C11.2261 33.7282 11.403 34.8209 11.4186 35.2068C11.4498 35.9813 11.9649 36.0987 12.6099 36.4638C12.9741 36.6698 13.77 37.3165 14.1836 37.1626C14.4957 37.0453 14.9977 36.2604 15.081 35.9683C15.2422 35.3972 15.081 34.4923 15.081 33.9056C15.081 33.2093 15.081 32.5104 15.081 31.8142V31.8116Z" fill="#060505"/>
<path d="M50.2142 18.4234C50.5237 18.0505 51.2442 18.2878 51.6396 18.3295C52.3107 18.3999 52.9818 18.4651 53.6502 18.5329C54.9898 18.6685 56.3268 18.8041 57.6611 18.9814C58.223 19.057 58.3504 19.0518 58.7042 19.4534C59.136 19.9437 59.5651 20.4365 59.9917 20.932C60.4183 21.4275 60.8423 21.9256 61.2637 22.4263C61.7084 22.9582 61.8697 23.1695 61.8307 23.8605C61.6772 26.5126 61.7449 29.2194 61.7188 31.8741C61.7058 33.1675 61.6512 34.461 61.646 35.7544C61.6434 36.289 61.6512 36.8262 61.6382 37.3608C61.6278 37.8954 61.7475 38.769 61.5394 39.2618C61.3703 39.6608 60.8137 40.0285 60.5041 40.3362C60.0307 40.8108 59.5573 41.2854 59.0865 41.76C58.6886 42.159 58.171 42.9387 57.6715 43.1865C57.1981 43.4212 56.7768 43.1552 56.28 42.9961C55.1589 42.6336 54.03 42.2972 52.8933 41.9921C52.2717 41.8252 51.6474 41.6531 51.0205 41.5045C50.4197 41.3611 49.8578 41.3219 49.4026 40.8708C49.1191 40.5892 48.6587 39.6399 48.2894 39.5278C47.8966 39.4079 47.3556 40.0389 47.0096 40.2684C46.1383 40.8525 44.5568 40.1928 43.558 40.0494C41.1182 39.6973 38.6575 39.4235 36.1943 39.3035C33.2368 39.1575 30.295 39.1706 27.3401 39.3348C25.946 39.4131 24.5544 39.5304 23.1654 39.6869C22.4033 39.7729 21.8128 39.8929 21.0689 39.6843C20.3848 39.4913 19.6955 39.3244 19.0166 39.1184C20.6969 38.6073 22.6166 38.5395 24.3567 38.3569C26.2347 38.1614 28.1387 38.0675 30.0245 38.0231C33.7544 37.9371 37.4974 38.0753 41.1988 38.5317C42.0728 38.6386 42.9493 38.7351 43.8207 38.8707C44.5906 38.9906 45.7819 39.4704 46.5102 39.1549C46.9888 38.9489 47.8914 37.7415 48.4246 37.8928C48.6691 37.9606 49.0437 38.5942 49.2128 38.7898C49.5197 39.1497 49.8162 39.6113 50.1752 39.9164C50.75 40.404 51.7436 40.4588 52.4537 40.6439C53.3875 40.8864 54.3135 41.1472 55.2369 41.4315C55.7883 41.601 56.7872 42.1277 57.31 41.8539C57.6715 41.6636 58.0513 41.1055 58.3322 40.8213C58.673 40.477 59.0163 40.1354 59.357 39.7912C59.6588 39.4913 60.2102 39.1236 60.3715 38.7246C60.5119 38.3778 60.4079 37.7441 60.4157 37.3738C60.4391 36.3125 60.4807 35.2537 60.4833 34.1924C60.4833 33.3996 60.694 32.4348 60.3637 31.6994C59.9735 30.831 59.279 30.0226 58.7536 29.2325C59.1724 29.2872 59.7472 29.4645 60.1712 29.4202C60.5353 29.3811 60.4469 29.5037 60.59 29.1568C60.7252 28.8256 60.5952 28.2233 60.5978 27.8582C60.6004 27.3679 60.6082 26.8777 60.6134 26.3874C60.6238 25.5738 60.8995 24.2438 60.5718 23.4902C60.231 22.7053 59.2374 21.9203 58.686 21.2658C58.4285 20.9607 58.1501 20.4626 57.8042 20.2644C57.5155 20.0975 57.0915 20.1184 56.7716 20.0793C55.7727 19.9541 54.7687 19.855 53.7699 19.7481C52.9505 19.6594 51.9725 19.3856 51.1532 19.4769C50.3442 19.5682 49.6055 20.4887 49.0125 20.9842C48.716 20.7677 48.9266 19.3987 48.924 18.9997C48.9188 18.1887 48.9136 17.3751 48.9319 16.564C48.9683 14.9342 48.9891 13.3096 48.9917 11.6798C48.9917 11.0878 49.1738 10.3055 48.8096 9.81261C48.409 9.26759 47.7041 8.82949 47.2047 8.36792C46.6663 7.87245 46.3047 7.49172 45.5608 7.43174C44.7701 7.36916 43.9377 7.43696 43.1444 7.43696C40.0387 7.44217 36.933 7.44478 33.8273 7.44217C32.2172 7.44217 30.6071 7.44217 28.997 7.43696C28.2895 7.43696 27.2361 7.21791 26.5806 7.43435C26.0578 7.60646 26.2503 8.13844 26.2503 8.66259C25.8133 8.47744 25.4752 8.03152 25.1058 7.74989C24.583 7.3509 24.0394 7.43956 23.3943 7.44217C21.9143 7.44478 20.4342 7.44739 18.9542 7.44739C18.2701 7.44739 17.5886 7.44739 16.9045 7.44478C16.504 7.44478 15.3907 7.23355 15.0786 7.51519C14.8185 7.74728 15.0213 8.91555 15.0213 9.26498C15.0213 9.81 14.8185 10.8009 15.0552 11.2938C15.2685 11.7371 15.6872 11.8232 15.7705 12.376C15.8719 13.054 15.7705 13.8181 15.7705 14.5039C15.7705 15.9877 15.7731 17.4689 15.7757 18.9527C15.7757 19.3543 15.9317 20.1054 15.7731 20.4783C15.5052 21.0963 14.9901 20.7703 14.6442 20.4809C14.2644 20.1627 13.8066 19.6281 13.3254 19.4795C12.7376 19.2996 11.8792 19.5525 11.2784 19.6151C9.90499 19.7559 8.53681 19.9254 7.16603 20.0923C6.3727 20.1888 6.1386 20.3088 5.61318 20.9059C5.12677 21.4562 4.64037 22.009 4.16437 22.5723C3.78721 23.0182 3.39444 23.365 3.34762 23.957C3.2904 24.6376 3.32681 25.3574 3.35282 26.038C3.41005 27.4905 3.39444 28.9404 3.42305 30.3955C3.47768 33.178 3.5349 35.9604 3.58432 38.7429C3.59733 39.4261 3.69617 39.6478 4.26061 40.0468C4.81984 40.4431 5.39208 40.8239 5.94872 41.2228C6.40911 41.554 6.79147 41.9765 7.38452 41.8696C7.77209 41.7992 8.84894 41.155 9.18969 41.3663C9.32755 41.4523 9.47061 41.9582 9.468 42.1147C9.4654 42.4172 9.52783 42.3598 9.26252 42.5371C8.81773 42.8344 7.96197 42.9518 7.44175 43.09C6.30247 43.3951 5.07735 42.0625 4.18257 41.4341C3.71958 41.1081 2.85862 40.73 2.56209 40.2528C2.26557 39.7729 2.42683 38.988 2.42423 38.443C2.42423 37.0635 2.33059 35.6892 2.32019 34.3097C2.29938 31.4569 2.18753 28.6014 2.18753 25.7485C2.18753 25.1279 2.19013 24.5046 2.16933 23.8814C2.14331 23.1277 2.39302 22.807 2.87682 22.2463C3.31121 21.743 3.74819 21.2423 4.18257 20.739C4.57794 20.2827 5.03053 19.5004 5.54035 19.177C5.95652 18.9136 6.64841 18.9553 7.14002 18.8954C7.88394 18.8041 8.62785 18.7102 9.37176 18.6137C10.6307 18.4521 12.0353 18.2017 13.302 18.2147C13.5387 18.2174 13.765 18.2669 13.9731 18.3816C14.0693 18.4338 14.3555 18.7806 14.4361 18.778C14.7768 18.7676 14.5974 17.4611 14.5974 17.2003C14.5974 15.8261 14.6208 14.4492 14.5922 13.0749C14.5792 12.4777 14.3893 12.4569 14.0459 12.0292C13.6974 11.5937 13.778 11.0669 13.7832 10.5376C13.791 9.83086 13.791 9.12677 13.7884 8.42007C13.7858 7.98719 13.5543 6.79806 13.7884 6.4408C14.0225 6.07832 14.8107 6.25565 15.193 6.25565C15.9447 6.25565 16.6965 6.25565 17.4482 6.25565C18.9516 6.25565 20.455 6.25565 21.9585 6.25565C27.8552 6.25565 33.7518 6.25565 39.6485 6.25565C41.0869 6.25565 42.5227 6.25565 43.9612 6.25565C44.6504 6.25565 45.3397 6.24 46.029 6.25304C46.8536 6.26869 47.2515 6.79284 47.842 7.32482C48.3388 7.77336 48.8382 8.21928 49.335 8.66781C49.9463 9.21544 50.1778 9.36408 50.1778 10.1855C50.1778 11.6432 50.1752 13.0984 50.1726 14.5561C50.1726 15.2289 50.1726 15.9017 50.1726 16.5719C50.1726 17.0387 49.9775 18.0087 50.2194 18.4182L50.2142 18.4234Z" fill="#9B242E"/>
<path d="M33.1588 57.8576C31.4082 58.1132 29.5719 58.1914 27.8447 57.7351C26.9526 57.4978 26.2997 57.0205 25.4933 56.6085C24.726 56.2148 23.813 56.2069 22.9833 56.027C19.7293 55.3229 16.556 53.4844 14.665 50.6837C16.3895 51.4374 18.1062 51.7894 20.005 51.5599C17.1308 50.4308 14.7534 48.7227 13.0523 46.1019C11.2914 43.3847 10.061 39.8225 10.061 36.555C13.6844 39.859 18.0958 41.0507 22.8428 41.5775C21.805 41.9739 20.8348 42.3546 19.9504 42.9414C24.5934 41.9139 29.2779 41.4471 34.0249 41.76C33.9781 41.8122 33.9339 41.8617 33.8871 41.9139C29.8918 42.751 25.3711 43.6063 22.0521 46.1541C22.1509 46.2923 22.2888 46.3601 22.4267 46.4305C25.7613 48.6706 29.2311 50.5951 33.3591 51.1479C30.9374 52.8612 28.43 54.2303 25.3997 54.4232C25.4673 54.5197 25.5011 54.5823 25.548 54.6371C27.1685 56.5616 29.2311 57.6203 31.736 57.8133C32.2094 57.8498 32.6854 57.7585 33.1562 57.855L33.1588 57.8576Z" fill="#FBFAFA"/>
<path d="M33.1587 57.8576C32.6879 57.7612 32.2119 57.8524 31.7385 57.8159C29.2337 57.6229 27.171 56.5642 25.5505 54.6397C25.5063 54.5849 25.4699 54.5223 25.4023 54.4259C28.4325 54.2329 30.94 52.8638 33.3616 51.1505C29.2363 50.5977 25.7638 48.6732 22.4292 46.4331C22.7075 46.2402 24.2422 47.059 24.5881 47.1711C25.3086 47.4058 26.0395 47.6092 26.773 47.7944C28.3155 48.1803 29.8787 48.4489 31.4628 48.5949C34.6492 48.887 37.6638 48.4228 40.6915 47.4397C38.9488 49.5755 36.8809 51.3305 34.5633 52.8038C35.8327 52.8038 37.3725 51.9094 38.478 51.3226C39.8149 50.6133 41.0791 49.771 42.2496 48.8114C44.6009 46.8843 46.4191 44.5477 48.0578 42.0052C48.396 42.339 48.5988 42.5971 49.0774 42.7327C49.3792 42.8162 50.2427 42.7979 50.456 43.0196C50.7525 43.3273 49.6029 45.4552 49.387 45.8985C48.3725 47.9821 47.02 49.8258 45.4593 51.5234C42.1637 55.1091 37.8069 56.8511 33.1535 57.8603L33.1587 57.8576Z" fill="#9B242E"/>
<path d="M48.0657 42.0026C46.427 44.5451 44.6088 46.8817 42.2574 48.8088C41.0869 49.7684 39.8228 50.6133 38.4858 51.32C37.3804 51.9068 35.8405 52.8012 34.5712 52.8012C36.8862 51.3279 38.9566 49.5728 40.6994 47.4371C37.6717 48.4202 34.657 48.8844 31.4707 48.5923C29.8866 48.4489 28.3233 48.1777 26.7809 47.7918C26.0474 47.6066 25.3165 47.4058 24.596 47.1685C24.25 47.0564 22.7154 46.2375 22.4371 46.4305C22.2992 46.3601 22.1613 46.2923 22.0625 46.1541C25.3815 43.6063 29.8996 42.751 33.8975 41.9139C34.1784 41.9269 34.4359 41.7705 34.7194 41.8018C35.0134 41.807 35.3047 41.8122 35.5986 41.82C35.6402 41.8409 35.6844 41.8591 35.7261 41.88C35.9394 41.9974 36.1709 41.9348 36.3919 41.9322C36.8315 41.9243 37.2737 42 37.7081 41.8826C37.7315 41.8618 37.7549 41.8409 37.7783 41.8226C38.811 41.8826 39.8176 41.6714 40.832 41.5149C41.7294 41.3767 42.5409 41.5149 43.4097 41.6792C44.2473 41.8357 45.1186 41.9426 45.9692 42.0547C46.4114 42.1121 46.8952 42.2868 47.3218 42.1382C47.5715 42.0521 47.8524 41.554 48.0709 42.0026H48.0657Z" fill="#E42644"/>
<path d="M55.2342 36.5263C55.2342 35.8535 55.2342 35.1807 55.2472 34.5053C55.2524 34.1089 55.4917 32.8703 55.2264 32.5495C54.9533 32.2157 53.8765 32.1818 53.4551 32.0958C52.862 31.9732 51.9464 31.9706 51.408 31.6837C50.8956 31.4125 50.5106 30.6172 50.1673 30.1634C49.7069 29.5558 49.2517 29.1229 49.2309 28.3354C49.1945 26.8412 49.2465 25.3417 49.2491 23.8475C49.2491 23.0026 49.2751 22.7861 49.941 22.2411C50.4248 21.8473 50.9814 21.1433 51.6031 21.0572C52.2482 20.9685 53.0727 21.2006 53.7282 21.271C54.4903 21.3545 55.2524 21.4405 56.012 21.5318C56.8001 21.6257 56.9978 21.6622 57.505 22.2515C57.9316 22.7496 58.6729 23.3494 58.9616 23.9414C59.2165 24.4603 59.0344 25.3365 59.0292 25.9102C59.0266 26.1814 59.1255 26.6925 59.024 26.9403C58.8888 27.2636 58.8315 27.1932 58.4362 27.1463C57.7339 27.0628 57.0368 26.9429 56.3371 26.849C56.1238 26.8203 55.6088 26.849 55.4501 26.6925C55.2316 26.4813 55.3565 25.9259 55.3591 25.6155C55.3617 24.9271 55.549 24.5672 54.8129 24.4577C54.4695 24.4055 53.1534 24.0352 52.9349 24.2725C52.693 24.5333 52.9088 25.9232 52.9062 26.317C52.9036 26.7942 52.6461 28.0746 52.9583 28.4319C53.2236 28.737 54.4617 28.75 54.8779 28.8283C55.4423 28.9326 56.4333 28.9248 56.9093 29.2872C57.3931 29.6523 57.7651 30.552 58.1006 31.0553C58.4726 31.6159 58.8914 32.0593 58.9044 32.7451C58.9148 33.3423 58.7847 33.9134 59.1333 34.4349C59.4532 34.9173 59.911 34.9825 59.4298 35.4702C58.9772 35.9291 58.8237 36.2056 58.8315 36.8758C58.8393 37.4755 58.8628 37.9136 58.4466 38.3882C58.0304 38.8655 57.5024 39.434 57.0056 39.8199C56.4515 40.2502 55.7102 39.7886 55.0756 39.6008C54.29 39.3714 53.5019 39.1549 52.7086 38.9489C51.8268 38.722 51.3274 38.6725 50.7265 37.9684C50.3026 37.4729 49.5014 36.8366 49.2569 36.2473C49.0904 35.8457 49.0176 34.6487 49.1841 34.2341C49.3636 33.7908 50.3728 33.9473 50.8358 33.9212C51.278 33.8977 52.5837 33.6135 52.8282 33.9812C53.143 34.4532 52.4615 35.5406 52.9193 35.9552C53.0909 36.1117 53.6892 36.143 53.9233 36.2003C54.3629 36.3099 54.8024 36.4194 55.242 36.5289L55.2342 36.5263Z" fill="#FBFAFA"/>
<path d="M20.4446 8.97296C21.5865 8.97296 22.7283 8.97817 23.8702 8.96774C24.0835 8.96774 24.2396 9.03033 24.3957 9.16854C24.8612 9.58056 25.3373 9.98215 25.8159 10.3837C25.9355 10.4828 25.9927 10.5845 25.9927 10.7488C25.9875 12.0188 25.9927 13.2888 26.0031 14.5587C26.0031 14.7439 25.9485 14.8638 25.8028 14.976C25.4075 15.2785 25.0329 15.607 24.6324 15.9043C24.4451 16.0425 24.4789 16.1182 24.6376 16.2433C25.0511 16.5719 25.4517 16.9213 25.8679 17.2473C26.0109 17.3621 26.0682 17.482 26.0656 17.6646C26.0578 18.5799 26.0682 19.4978 26.0578 20.4131C26.0552 20.6269 26.1046 20.7782 26.2997 20.8643C26.7496 21.065 26.9473 21.3936 26.8589 21.8969C26.8147 22.1499 26.9629 22.5019 26.8043 22.6453C26.6534 22.7836 26.3153 22.7184 26.0578 22.7314C25.1162 22.7783 24.172 22.8096 23.2304 22.867C23.0015 22.88 23.0093 22.7653 23.0093 22.6062C23.0119 20.919 23.0015 19.2344 23.0197 17.5472C23.0223 17.2551 22.9312 17.2056 22.6737 17.2186C22.0104 17.2577 21.3472 17.2812 20.6839 17.2969C20.5252 17.3021 20.4706 17.3412 20.4732 17.5081C20.4862 18.6007 20.494 19.6934 20.4888 20.786C20.4888 20.992 20.6137 21.0651 20.7437 21.1302C21.0845 21.2971 21.2171 21.5449 21.1703 21.9256C21.1365 22.202 21.1573 22.4863 21.1651 22.7679C21.1677 22.9165 21.1339 22.9843 20.9622 22.9948C19.6486 23.0887 18.3351 23.1904 17.0241 23.3077C16.7614 23.3312 16.6808 23.2608 16.6938 23.0052C16.7094 22.6845 16.7068 22.3585 16.6938 22.0377C16.686 21.863 16.7276 21.7378 16.8967 21.6674C17.3597 21.4771 17.4845 21.1381 17.4585 20.64C17.4065 19.623 17.4065 18.6007 17.4299 17.5811C17.4403 17.1482 17.3207 16.8092 17.0111 16.5276C16.8447 16.3789 16.7978 16.2616 17.0033 16.0947C17.3077 15.847 17.4273 15.5288 17.4169 15.1142C17.3831 13.9172 17.3961 12.7203 17.4039 11.5233C17.4039 11.2991 17.3701 11.1191 17.1698 10.994C16.7224 10.7123 16.5481 10.3107 16.634 9.78657C16.6548 9.66401 16.6392 9.53623 16.634 9.41106C16.6236 9.11204 16.7727 8.96252 17.0814 8.96252C18.2024 8.96252 19.3235 8.96252 20.4446 8.96252V8.97296ZM20.4498 13.2001C20.4498 13.5104 20.2755 14.6474 20.455 14.9004C20.6865 15.2237 21.2587 15.0542 21.6619 15.0412C22.0885 15.0281 22.6139 15.1585 22.8168 14.8013C22.9885 14.5014 22.8142 13.5521 22.8142 13.1949C22.8142 12.8428 22.9989 11.7841 22.8012 11.5077C22.6061 11.2339 21.7972 11.3851 21.459 11.3877C21.0454 11.3877 20.6033 11.2417 20.442 11.6094C20.2781 11.9797 20.4472 12.7907 20.4472 13.2001H20.4498Z" fill="#FBFAFA"/>
<path d="M37.9498 21.9881C37.9498 21.9881 37.9498 21.9673 37.9498 21.9568C37.8458 21.4483 38.0513 21.1041 38.5091 20.8981C38.686 20.8173 38.7198 20.6817 38.7198 20.4965C38.7198 17.4455 38.725 14.3944 38.738 11.3433C38.738 11.0878 38.686 10.9 38.4493 10.7879C38.0435 10.5975 37.877 10.2872 37.9577 9.84128C38.0097 9.55965 37.8302 9.17631 38.0383 9.01724C38.2178 8.87902 38.5767 8.9703 38.855 8.9703C41.0061 8.9703 43.1546 8.9729 45.3058 8.9703C45.4956 8.9703 45.6387 9.01984 45.7792 9.15023C46.2578 9.59615 46.7416 10.0369 47.2358 10.4671C47.3684 10.5845 47.4048 10.7097 47.4048 10.8766C47.3866 12.1882 47.3996 13.4999 47.3528 14.809C47.3346 15.2784 47.4829 15.6148 47.8392 15.873C48.0499 16.0268 48.0343 16.1364 47.847 16.2876C47.4673 16.5953 47.3346 16.9839 47.345 17.4872C47.3762 18.8197 47.345 20.1523 47.345 21.4848C47.345 21.6231 47.3086 21.7195 47.202 21.8056C46.6765 22.228 46.1485 22.6505 45.6309 23.0834C45.5398 23.159 45.4566 23.1747 45.35 23.1668C42.9622 22.9686 40.5718 22.82 38.1761 22.7496C38.0019 22.7444 37.9316 22.7027 37.9446 22.5227C37.9577 22.3454 37.9472 22.1681 37.9472 21.9907L37.9498 21.9881ZM44.1821 16.0373H44.2003C44.2003 14.6108 44.1951 13.1844 44.2055 11.758C44.2055 11.5102 44.1847 11.3929 43.883 11.4033C43.2613 11.4242 42.6396 11.3929 42.0154 11.372C41.8489 11.3668 41.7813 11.4007 41.7891 11.5911C41.8021 11.8701 41.7683 12.1517 41.7683 12.4334C41.7631 15.0463 41.7605 17.6593 41.7501 20.2722C41.7501 20.4522 41.7865 20.5278 41.9789 20.5356C42.611 20.5591 43.2405 20.593 43.8725 20.6399C44.1066 20.6582 44.1899 20.606 44.1873 20.3479C44.1743 18.911 44.1821 17.4741 44.1821 16.0373Z" fill="#FBFAFA"/>
<path d="M11.3382 27.5296C11.3382 26.9481 11.3382 26.364 11.3304 25.7824C11.3304 25.5764 11.4527 24.3664 11.2654 24.2308C11.0183 24.0509 9.83217 24.403 9.53825 24.4395C8.7085 24.5464 8.62787 24.5047 8.64087 25.3756C8.67989 28.1007 8.73711 30.8284 8.73711 33.5535C8.57584 33.4101 8.44319 33.2927 8.30013 33.165C7.9958 33.8299 8.22469 35.0373 8.26891 35.7466C8.32614 36.6541 8.43538 37.5564 8.58625 38.4509C8.69809 39.1028 8.97901 39.5174 8.31053 39.8095C7.57962 40.1302 7.0464 39.9607 6.43774 39.5044C6.15682 39.2932 5.6392 39.0506 5.42331 38.7872C5.17101 38.4795 5.22563 38.2031 5.21783 37.8041C5.20482 36.9566 5.18401 36.1065 5.16841 35.259C5.1528 34.3776 5.13719 33.4961 5.12679 32.6121C5.11638 31.6603 4.96292 31.5247 4.15918 31.0736C5.03835 30.6928 5.09037 29.8844 5.06696 29.0343C5.03315 27.793 5.01234 26.5517 4.99413 25.3078C4.98633 24.7054 4.89269 24.2204 5.24904 23.7197C5.59499 23.2347 6.05278 22.7966 6.44294 22.3428C6.90334 21.8056 7.07241 21.6466 7.79291 21.5579C8.40937 21.4823 9.02583 21.4119 9.63969 21.3441C10.1989 21.2815 10.7608 21.2241 11.32 21.1641C11.8402 21.1094 12.5165 20.906 13.0003 21.125C13.4061 21.3076 13.8249 21.8083 14.1708 22.0925C14.6728 22.5019 14.9875 22.6245 15.0084 23.2947C15.0318 24.004 15.3283 25.8998 14.7456 26.2883C14.3113 26.5752 13.6142 26.6978 13.1278 26.8777C12.5295 27.0967 11.9313 27.3132 11.3356 27.5322L11.3382 27.5296Z" fill="#FBFAFA"/>
<path d="M33.8377 12.9263C33.8377 12.4021 33.8299 11.9041 33.8429 11.406C33.8481 11.213 33.7883 11.1556 33.5958 11.1609C33.0444 11.1713 32.4955 11.1713 31.9441 11.1609C31.7672 11.1582 31.7178 11.2052 31.7178 11.3851C31.7256 12.3422 31.7282 13.3018 31.7178 14.2588C31.7178 14.4518 31.7698 14.5014 31.9623 14.5014C33.1146 14.4962 34.2669 14.5118 35.4192 14.5014C35.6377 14.5014 35.6975 14.5561 35.6923 14.7752C35.6767 15.3671 35.6767 15.9617 35.6923 16.5563C35.6975 16.7831 35.6221 16.8301 35.4114 16.8275C34.2695 16.8144 33.1276 16.817 31.9857 16.8066C31.8011 16.8066 31.7152 16.8249 31.7178 17.0491C31.7308 18.1 31.7282 19.1536 31.7178 20.2045C31.7178 20.3949 31.7594 20.4522 31.9545 20.447C32.4929 20.4314 33.034 20.4288 33.575 20.447C33.8065 20.4548 33.8533 20.3714 33.8403 20.1628C33.8221 19.8942 33.8403 19.6204 33.8325 19.3518C33.8273 19.2057 33.8637 19.1353 34.0224 19.104C34.8938 18.9241 35.7599 18.7337 36.6287 18.5381C36.7718 18.5069 36.8082 18.5329 36.8082 18.679C36.8056 19.9489 36.803 21.2189 36.8108 22.4889C36.8108 22.7131 36.6729 22.6766 36.5429 22.674C34.9666 22.6193 33.3877 22.6193 31.8089 22.6193C30.615 22.6193 29.4211 22.6271 28.2298 22.6819C27.9644 22.6949 27.876 22.6088 27.9124 22.3533C27.928 22.2411 27.9306 22.1212 27.9124 22.0117C27.8292 21.4771 27.9514 21.0598 28.5289 20.8903C28.6589 20.8512 28.6849 20.7547 28.6849 20.6243C28.6797 17.5211 28.6745 14.4179 28.6797 11.3147C28.6797 11.1087 28.5653 10.9992 28.4326 10.9157C27.9488 10.6184 27.8422 10.1882 27.8786 9.64836C27.9202 8.97035 27.889 8.96774 28.5679 8.96774C31.2054 8.96774 33.8429 8.97035 36.483 8.96252C36.7483 8.96252 36.8394 9.00946 36.8316 9.29892C36.8108 10.2038 36.8186 11.1113 36.8264 12.0162C36.8264 12.2039 36.7848 12.2796 36.5819 12.3213C35.6793 12.5038 34.7845 12.7125 33.8351 12.9237L33.8377 12.9263Z" fill="#FBFAFA"/>
<path d="M28.4948 31.4986C28.4948 32.4087 28.4662 33.3266 28.4948 34.2367C28.5078 34.6931 28.4714 34.5522 28.6665 34.8391C28.8173 35.0581 29.0332 35.0607 29.1321 35.3632C29.5769 36.7088 27.9902 36.4037 27.1735 36.4559C26.7495 36.482 25.6154 36.7871 25.4021 36.3803C25.1264 35.8587 25.5738 35.3554 25.8339 35.0164C26.1772 34.5757 26.0238 33.8012 26.0238 33.2484C26.0238 32.3852 26.0238 31.522 26.0238 30.6589C26.0238 29.7957 26.029 28.9326 26.0238 28.0694C26.0238 27.5817 26.1954 26.6351 25.9535 26.2231C25.6492 25.7016 25.3813 25.9076 25.3839 25.2165C25.3865 24.4968 25.5504 24.5828 26.2475 24.5594C26.7027 24.5437 27.8601 24.2882 28.2165 24.5907C28.6145 24.9271 28.846 26.1397 29.0306 26.6065C29.6055 28.0616 30.1621 29.5271 30.7656 30.9718C31.0231 30.492 30.8176 29.5245 30.8176 28.9847C30.8176 28.2285 30.8332 27.4696 30.8228 26.7134C30.8176 26.2805 30.8228 26.2179 30.5783 25.9076C30.456 25.7537 30.2974 25.7198 30.2089 25.519C30.1101 25.2974 30.1049 24.6898 30.3026 24.5046C30.5757 24.2491 31.5355 24.4446 31.884 24.4446C32.2586 24.4446 33.6242 24.2152 33.8869 24.5046C34.108 24.7445 33.9675 25.4851 33.7958 25.7381C33.6034 26.0197 33.3953 25.9597 33.2912 26.3222C33.195 26.6508 33.2912 27.1593 33.2912 27.5061C33.2912 29.0864 33.2938 30.6641 33.2912 32.2444C33.2912 32.8885 33.0805 33.9603 33.3172 34.5548C33.4239 34.8261 33.7048 34.8234 33.8401 35.0399C33.9831 35.272 33.9701 35.5771 33.9467 35.8431C33.9181 36.1821 33.9623 36.1769 33.7334 36.3151C33.5227 36.4429 32.823 36.3099 32.5655 36.3072C32.256 36.3072 31.6786 36.422 31.3976 36.3099C31.0777 36.1821 31.0127 35.9474 30.8462 35.6449C30.0867 34.255 29.3506 32.8494 28.5546 31.4803C28.5338 31.4855 28.513 31.4881 28.4922 31.4934L28.4948 31.4986Z" fill="#FBFAFA"/>
<path d="M23.808 30.5285C23.808 31.9341 23.8158 33.3397 23.8002 34.7453C23.8002 34.9852 23.8574 35.1442 24.0759 35.2329C24.3932 35.3581 24.4921 35.5876 24.4452 35.9187C24.414 36.1534 24.5051 36.4481 24.3932 36.6176C24.284 36.7819 23.9692 36.6932 23.7455 36.7245C22.8118 36.8471 21.8728 36.9462 20.9364 37.0661C20.7309 37.0922 20.6554 37.0453 20.6815 36.8341C20.6997 36.6906 20.7023 36.5394 20.6815 36.3986C20.6242 36.0048 20.7231 35.6867 21.0794 35.4754C21.2017 35.4024 21.2225 35.2877 21.2199 35.1547C21.2147 34.5601 21.2121 33.9681 21.2199 33.3736C21.2225 33.191 21.1757 33.1467 20.991 33.1754C20.5202 33.2484 20.0468 33.3032 19.5708 33.3501C19.4095 33.3658 19.3705 33.431 19.3731 33.5848C19.3809 34.1585 19.3887 34.7296 19.3731 35.3033C19.3653 35.5354 19.4355 35.6788 19.6462 35.7571C19.8829 35.8431 19.9688 35.9996 19.9453 36.2551C19.9219 36.5029 19.9375 36.7558 19.9557 37.0036C19.9688 37.1678 19.8959 37.22 19.7503 37.2409C18.6318 37.3999 17.5211 37.5903 16.4157 37.8146C16.2752 37.8433 16.1972 37.8146 16.2154 37.6477C16.2258 37.546 16.2284 37.4391 16.2154 37.3347C16.1451 36.8497 16.2336 36.4325 16.6784 36.1534C16.8344 36.0543 16.837 35.9083 16.837 35.7466C16.8162 32.8025 16.8006 29.8557 16.7772 26.9116C16.7772 26.6978 16.8266 26.5439 16.9827 26.3953C17.3651 26.0302 17.7344 25.6495 18.1012 25.2635C18.2182 25.1383 18.3509 25.0992 18.5121 25.0862C19.7112 24.9923 20.9103 24.8958 22.1069 24.7941C22.2551 24.7811 22.3644 24.8306 22.4736 24.9193C22.8508 25.2296 23.2253 25.5425 23.6129 25.8372C23.7638 25.952 23.8054 26.0771 23.8028 26.2597C23.795 27.6861 23.7976 29.1125 23.7976 30.539C23.8002 30.539 23.8028 30.539 23.8054 30.539L23.808 30.5285ZM19.3575 29.269C19.3575 29.269 19.3679 29.269 19.3757 29.269C19.3757 29.7645 19.1728 30.8467 19.3731 31.3004C19.5266 31.6447 19.7607 31.496 20.1534 31.4517C20.6867 31.3917 21.1132 31.5299 21.2069 30.9562C21.2953 30.4216 21.2017 29.7958 21.1991 29.2507C21.1991 28.6275 21.2199 27.999 21.1991 27.3758C21.1757 26.7343 21.0352 26.8568 20.4265 26.9142C19.8933 26.9638 19.4485 26.8099 19.3523 27.381C19.2561 27.9703 19.3523 28.6692 19.3523 29.269H19.3575Z" fill="#FBFAFA"/>
<path d="M47.4282 33.6578C47.4282 34.5001 47.423 35.3424 47.4308 36.1873C47.4308 36.349 47.3917 36.4507 47.2539 36.5446C46.8611 36.8158 46.4762 37.0974 46.0938 37.3843C45.995 37.4573 45.9091 37.499 45.7843 37.4756C43.8777 37.1261 41.9529 36.894 40.0254 36.6959C39.8356 36.675 39.7705 36.6228 39.7887 36.4377C39.8017 36.3256 39.8043 36.2082 39.7887 36.0961C39.7289 35.6736 39.8356 35.3476 40.2673 35.186C40.4156 35.1312 40.4442 35.0139 40.4442 34.8626C40.4442 32.1036 40.4468 29.3472 40.4572 26.5882C40.4572 26.424 40.4208 26.3014 40.2751 26.2284C39.8798 26.0276 39.7965 25.7016 39.8226 25.2792C39.8564 24.6794 39.833 24.6637 40.4364 24.6976C42.226 24.7967 44.0155 24.9323 45.7999 25.1071C45.9559 25.1227 46.0652 25.1801 46.1744 25.2896C46.5438 25.6703 46.921 26.0406 47.2955 26.4187C47.4048 26.5283 47.488 26.643 47.488 26.8229C47.4802 29.1021 47.4828 31.3787 47.4828 33.6578C47.4646 33.6578 47.4464 33.6578 47.4282 33.6578ZM44.8687 31.17C44.8687 31.17 44.8765 31.17 44.8791 31.17C44.8791 30.9614 44.8791 30.7528 44.8791 30.5468C44.8791 29.4542 44.8843 28.3615 44.8843 27.2689C44.8843 27.1567 44.9415 27.0159 44.7308 27.0003C44.2028 26.9638 43.6774 26.9168 43.152 26.8621C42.9803 26.8438 42.9257 26.8855 42.9283 27.0707C42.9361 27.9547 42.9283 28.8387 42.9231 29.7228C42.9127 31.4386 42.9023 33.1545 42.8867 34.8704C42.8867 35.0139 42.9283 35.0634 43.0739 35.0817C43.5785 35.139 44.0832 35.199 44.5826 35.2903C44.8297 35.3372 44.8765 35.2772 44.8739 35.0399C44.8635 33.7491 44.8687 32.4609 44.8687 31.17Z" fill="#FBFAFA"/>
<path d="M36.0798 24.5907C36.8887 24.5907 37.6977 24.5907 38.5066 24.5907C38.7303 24.5907 38.8864 24.6428 38.8317 24.9193C38.8161 25.0001 38.8187 25.0862 38.8317 25.1696C38.8994 25.6129 38.7927 25.9598 38.3401 26.1371C38.1763 26.1997 38.1997 26.3431 38.1997 26.4787C38.1997 29.196 38.2049 31.9132 38.1919 34.6305C38.1919 34.8913 38.3427 34.9877 38.4884 35.126C38.6055 35.2355 38.8109 35.2824 38.8187 35.4728C38.8344 35.8144 38.8317 36.1612 38.8135 36.5028C38.8083 36.615 38.6809 36.5706 38.6055 36.5654C37.435 36.5002 36.2671 36.4298 35.0966 36.3699C34.9639 36.362 34.9145 36.3255 34.9171 36.1899C34.9249 35.8979 34.9249 35.6058 34.9171 35.3163C34.9119 35.0947 35.0992 35.0425 35.2292 34.9721C35.4893 34.8313 35.5674 34.6435 35.5648 34.3462C35.5518 31.702 35.5544 29.0577 35.5648 26.4135C35.5648 26.2023 35.5206 26.0432 35.3307 25.9545C34.9743 25.7876 34.9145 25.5034 34.9301 25.1409C34.9561 24.489 34.9353 24.489 35.5856 24.5072C35.752 24.5125 35.9185 24.5072 36.085 24.5072V24.5933L36.0798 24.5907Z" fill="#FBFAFA"/>
<path d="M15.0814 31.8115C15.0814 32.5078 15.0814 33.2066 15.0814 33.9029C15.0814 34.4897 15.2426 35.3972 15.0814 35.9656C14.9981 36.2551 14.4961 37.0426 14.184 37.16C13.7704 37.3138 12.9745 36.6697 12.6103 36.4611C11.9653 36.096 11.4502 35.9787 11.419 35.2042C11.4034 34.8182 11.2265 33.7256 11.4268 33.3866C11.6505 33.0059 12.6051 32.8155 12.9953 32.6512C13.6872 32.3617 14.3817 32.0775 15.0814 31.8089V31.8115Z" fill="#FBFAFA"/>
<path d="M35.7207 41.88C35.6791 41.8591 35.6349 41.8409 35.5933 41.82C36.319 41.82 37.0473 41.82 37.773 41.82C37.7496 41.8409 37.7262 41.8617 37.7028 41.88C37.0421 41.88 36.3814 41.88 35.7207 41.88Z" fill="#ED606F"/>
<path d="M34.714 41.8044C34.4305 41.7731 34.173 41.9296 33.8921 41.9165C33.9363 41.8644 33.9831 41.8148 34.0299 41.7627C34.2588 41.7575 34.4903 41.7079 34.714 41.8044Z" fill="#BA999D"/>
<path d="M35.7207 41.88C36.3814 41.88 37.0421 41.88 37.7027 41.88C37.2684 41.9973 36.8262 41.9217 36.3866 41.9295C36.1655 41.9347 35.934 41.9947 35.7207 41.8774V41.88Z" fill="#C23543"/>
<path d="M20.4501 13.1975C20.4501 12.7881 20.2836 11.9771 20.4449 11.6068C20.6061 11.2391 21.0483 11.3851 21.4619 11.3851C21.8 11.3851 22.609 11.2313 22.8041 11.5051C23.0017 11.7815 22.8171 12.8428 22.8171 13.1923C22.8171 13.5495 22.9913 14.4962 22.8197 14.7987C22.6168 15.1533 22.0914 15.0255 21.6648 15.0386C21.2616 15.0516 20.6868 15.2211 20.4579 14.8977C20.2784 14.6448 20.4527 13.5078 20.4527 13.1975H20.4501Z" fill="#060505"/>
<path d="M44.182 16.0373C44.182 17.4742 44.1742 18.911 44.1872 20.3479C44.1872 20.6061 44.1066 20.6582 43.8725 20.64C43.243 20.593 42.611 20.5591 41.9789 20.5356C41.7864 20.5278 41.75 20.4548 41.75 20.2723C41.7604 17.6593 41.7604 15.0464 41.7682 12.4334C41.7682 12.1518 41.802 11.8727 41.789 11.5911C41.7812 11.4033 41.8488 11.3668 42.0153 11.372C42.637 11.3929 43.2612 11.4242 43.8829 11.4033C44.1872 11.3929 44.208 11.5103 44.2054 11.758C44.195 13.1844 44.2002 14.6109 44.2002 16.0373H44.182Z" fill="#060505"/>
<path d="M19.3576 29.269C19.3576 28.6692 19.2587 27.9703 19.3576 27.381C19.4512 26.8099 19.896 26.9663 20.4318 26.9142C21.0379 26.8568 21.1809 26.7343 21.2044 27.3758C21.2278 27.999 21.2044 28.6275 21.2044 29.2507C21.2044 29.7931 21.298 30.4216 21.2122 30.9562C21.1185 31.5325 20.6919 31.3943 20.1587 31.4517C19.7659 31.496 19.5292 31.6446 19.3784 31.3004C19.1781 30.8493 19.381 29.7644 19.381 29.269C19.3758 29.269 19.3706 29.269 19.3628 29.269H19.3576Z" fill="#060505"/>
<path d="M44.8689 31.17C44.8689 32.4608 44.8637 33.7491 44.8741 35.0399C44.8741 35.2772 44.8298 35.3372 44.5827 35.2902C44.0833 35.1964 43.5787 35.139 43.0741 35.0816C42.9284 35.066 42.8842 35.0164 42.8868 34.8704C42.9024 33.1545 42.9128 31.4386 42.9232 29.7227C42.9284 28.8387 42.9362 27.9547 42.9284 27.0706C42.9284 26.8855 42.9805 26.8464 43.1521 26.862C43.6776 26.9168 44.2056 26.9637 44.731 27.0002C44.9417 27.0133 44.8845 27.1567 44.8845 27.2688C44.8845 28.3615 44.8819 29.4541 44.8793 30.5468C44.8793 30.7554 44.8793 30.964 44.8793 31.17C44.8767 31.17 44.8715 31.17 44.8689 31.17Z" fill="#060505"/>
</svg>
