<svg width="64" height="64" viewBox="0 0 64 64" fill="none" xmlns="http://www.w3.org/2000/svg">
<path d="M10.957 21.2379V28.6041C9.66148 28.6041 7.07031 28.5666 7.07031 28.4185V24.1988L3.99805 23.7916V29.0484L10.957 33.1568V44.5943L0 46.6675V35.9703H3.84961V42.1519L7.07031 41.7818V35.6373H8.21777L0 30.8248V19.3502L10.957 21.2379ZM64 27.7525L60.1875 28.1597V23.7916L56.9297 24.1988V29.0484L64 33.1568V46.6675L52.9697 44.5943V35.6373H56.9297V41.5591L60.1875 42.1519V35.9703H61.2607L52.9697 31.232V21.2379L64 19.3502V27.7525ZM15.9912 25.0132V30.6392L18.4707 31.9351V25.272L21.5801 25.7535V40.6343L18.4707 41.189V35.1187L19.3965 34.8961L15.9912 33.3414V41.7818L13.0664 42.1519V24.6431L15.9912 25.0132ZM51.2666 31.9351L50.1191 32.6382L51.4521 33.3414V41.7818L48.4902 41.5591V35.3775H49.416L46.084 33.3414V41.189L43.1602 40.856V25.7535L45.8623 25.272L46.084 30.8248L48.4902 32.1207V25.0132L51.4521 24.6431L51.2666 31.9351ZM31.5371 27.0123V39.3384L28.5391 39.7457V34.7115L29.2793 34.4527L25.9482 33.3414V40.0787L23.1719 40.4488V25.939L31.5371 27.0123ZM41.3096 31.9351L40.1992 32.6382L41.3096 33.3414L41.4941 40.4488L38.4219 40.0787V34.8961L39.2363 34.7115L35.9053 33.3414V39.7457L33.0176 39.3384V27.0123L41.3096 25.939V31.9351ZM26.0586 31.3619L28.5391 32.3238V28.8072L26.0586 28.5484V31.3619ZM35.7939 31.3619L38.2744 32.3238V28.8072L35.7939 28.5484V31.3619ZM27.5215 17.3326C28.9899 17.4067 32.093 17.9621 34.0547 20.7935C35.387 22.7166 35.8311 24.3651 36.2197 25.272L35.3867 25.4947C35.1585 24.7298 34.591 23.3665 33.9062 22.1451C33.2601 20.9924 31.9998 19.6649 31.5371 19.4058C31.553 19.4281 33.3292 21.9178 33.6104 22.4966C34.2395 23.7921 34.5908 25.4947 34.5908 25.4947C34.5709 25.4979 33.5424 25.6618 32.3145 25.7535L28.3535 25.3834C28.5632 24.6865 28.9907 23.2079 29.0205 22.8668C29.0575 22.4412 29.0387 21.1272 28.9277 20.5533C28.8167 19.9795 28.0944 18.295 27.9834 18.0914C27.8945 17.9284 27.6202 17.5731 27.5215 17.3326Z" fill="#4564AF"/>
</svg>
