<svg width="64" height="64" viewBox="0 0 64 64" fill="none" xmlns="http://www.w3.org/2000/svg">
<path d="M41.6431 1.32769C40.3551 1.13053 35.6741 0.525423 31.974 0.543614C21.8082 0.778835 15.6206 2.60248 11.4483 3.80099C7.68753 4.88129 8.1169 5.90427 7.76369 7.338C7.48112 8.48499 7.44705 15.4945 7.38818 18.81C7.38784 25.5082 8.97282 38.8114 13.936 48.8048C19.5101 60.0282 27.5106 64 31.9368 64C35.8326 64 44.1224 60.963 50.4069 48.13C55.8643 36.986 56.6027 23.1919 56.6027 17.6698C56.6616 14.8919 56.4315 8.95977 56.2903 7.45435C56.0629 5.03212 55.4643 4.9931 52.8946 3.94061C51.0623 3.19014 43.6189 1.63011 41.6431 1.32769Z" fill="#EF4749"/>
<path d="M42.9909 39.0443L43.7087 26.2328L42.4077 26.6777L40.4336 57.2384L41.1066 56.3042L41.7347 52.7455L42.9909 39.0443Z" fill="white"/>
<path d="M41.2172 2.69429C39.9861 2.50584 35.5118 1.92745 31.9751 1.94484C22.2583 2.16967 16.3439 3.91278 12.3559 5.05836C8.76123 6.09095 9.17163 7.06875 8.83402 8.43916C8.56393 9.53549 8.53137 16.2355 8.4751 19.4045C8.47477 25.8069 9.98975 38.5225 14.7338 48.0746C20.0617 58.8024 27.7088 62.5987 31.9395 62.5987C35.6633 62.5987 43.587 59.6958 49.5939 47.4296C54.8103 36.7778 55.5161 23.5929 55.5161 18.3147C55.5724 15.6595 55.3525 9.9893 55.2175 8.55037C55.0002 6.23512 54.4279 6.19782 51.9718 5.19181C50.2204 4.47448 43.1057 2.98336 41.2172 2.69429Z" fill="#D9D9D9"/>
<path d="M41.2172 2.69429C39.9861 2.50584 35.5118 1.92745 31.9751 1.94484C22.2583 2.16967 16.3439 3.91278 12.3559 5.05836C8.76123 6.09095 9.17163 7.06875 8.83402 8.43916C8.56393 9.53549 8.53137 16.2355 8.4751 19.4045C8.47477 25.8069 9.98975 38.5225 14.7338 48.0746C20.0617 58.8024 27.7088 62.5987 31.9395 62.5987C35.6633 62.5987 43.587 59.6958 49.5939 47.4296C54.8103 36.7778 55.5161 23.5929 55.5161 18.3147C55.5724 15.6595 55.3525 9.9893 55.2175 8.55037C55.0002 6.23512 54.4279 6.19782 51.9718 5.19181C50.2204 4.47448 43.1057 2.98336 41.2172 2.69429Z" fill="black"/>
<path d="M40.425 4.41519C39.2938 4.25254 35.1823 3.75333 31.9324 3.76834C23.0035 3.96239 17.5687 5.46689 13.9041 6.45566C10.6008 7.34691 11.0745 9.16927 10.765 10.4255C10.5175 11.4304 10.4876 17.572 10.436 20.4769C10.4357 26.3457 11.8244 38.0016 16.1731 46.7576C21.057 56.5912 28.0617 60.7082 31.9398 60.7082C35.3532 60.7082 42.6216 57.4102 48.1279 46.1663C52.9095 36.4022 53.5565 24.3162 53.5565 19.4779C53.6081 17.044 53.4065 11.8464 53.2827 10.5274C53.0836 8.40511 52.5646 7.43915 50.3075 6.57085C48.6982 5.95171 42.1604 4.66469 40.425 4.41519Z" fill="#D9D9D9"/>
<path d="M40.425 4.41519C39.2938 4.25254 35.1823 3.75333 31.9324 3.76834C23.0035 3.96239 17.5687 5.46689 13.9041 6.45566C10.6008 7.34691 11.0745 9.16927 10.765 10.4255C10.5175 11.4304 10.4876 17.572 10.436 20.4769C10.4357 26.3457 11.8244 38.0016 16.1731 46.7576C21.057 56.5912 28.0617 60.7082 31.9398 60.7082C35.3532 60.7082 42.6216 57.4102 48.1279 46.1663C52.9095 36.4022 53.5565 24.3162 53.5565 19.4779C53.6081 17.044 53.4065 11.8464 53.2827 10.5274C53.0836 8.40511 52.5646 7.43915 50.3075 6.57085C48.6982 5.95171 42.1604 4.66469 40.425 4.41519Z" fill="#C7C8CA"/>
<path d="M41.3306 17.5584C41.223 17.9143 36.9488 22.1255 34.8252 24.1866C35.0405 24.1866 36.7095 23.3265 37.5171 22.8965C38.0854 23.5341 39.4194 24.9339 40.209 25.4321C40.9986 25.9303 41.2858 27.1522 41.3306 27.7008L41.0614 40.1564L39.8501 56.9715L39.536 58.217C39.8202 58.1577 40.4692 57.8256 40.7922 56.9715C41.1153 56.1174 41.7045 48.727 41.9587 45.1386C42.2578 39.9192 42.856 29.1955 42.856 28.0567C42.856 26.9179 43.3047 26.3366 43.529 26.1883C44.5759 25.1504 46.7683 22.9855 47.1631 22.6296C47.5579 22.2737 47.3276 21.7399 47.1631 21.5175C45.7723 20.1978 42.9637 17.4694 42.856 17.1136C42.7484 16.7577 42.3625 12.8727 42.1831 10.9747C41.9438 13.021 41.4383 17.2025 41.3306 17.5584Z" fill="#020202"/>
<path d="M22.8403 17.5584C22.9479 17.9143 27.2221 22.1255 29.3457 24.1866C29.1304 24.1866 27.4614 23.3265 26.6538 22.8965C26.0855 23.5341 24.7515 24.9339 23.9619 25.4321C23.1723 25.9303 22.8851 27.1522 22.8403 27.7008L23.1095 40.1564L24.3208 56.9715L24.6349 58.217C24.3507 58.1577 23.7017 57.8256 23.3787 56.9715C23.0556 56.1174 22.4664 48.727 22.2122 45.1386C21.9131 39.9192 21.3149 29.1955 21.3149 28.0567C21.3149 26.9179 20.8662 26.3366 20.6419 26.1883C19.595 25.1504 17.4026 22.9855 17.0078 22.6296C16.613 22.2737 16.8433 21.7399 17.0078 21.5175C18.3986 20.1978 21.2072 17.4694 21.3149 17.1136C21.4225 16.7577 21.8084 12.8727 21.9878 10.9747C22.2271 13.021 22.7326 17.2025 22.8403 17.5584Z" fill="#020202"/>
<path d="M20.917 22.5851L21.8143 3.90173H22.8013V17.6919C22.921 18.5222 23.1782 20.2897 23.25 20.7168C23.3218 21.1438 22.6817 22.7334 22.3527 23.4748L20.917 22.5851Z" fill="black"/>
<path d="M10.9571 29.4357L18.0458 32.1048C18.2049 35.7334 18.5615 42.7753 18.8405 45.0196C18.9607 45.5946 19.0062 45.8469 18.9431 45.628C18.9105 45.5151 18.8761 45.3065 18.8405 45.0196C18.4136 42.9778 17.0447 36.8677 16.2512 33.3503L10.2393 31.0372L10.9571 29.4357Z" fill="black"/>
<path d="M49.7652 16.2239L49.0698 5.61438L50.4382 5.94801L49.7652 16.2239Z" fill="black"/>
<path d="M32.8515 31.8823L32.5823 3.14551L31.5952 3.36793V7.72739L31.2363 30.3254L31.5952 60.3078V60.7526V61.6423C31.7897 61.8647 32.2593 61.9537 32.5823 60.5302C32.9053 59.1067 32.8963 40.8385 32.8515 31.8823Z" fill="black"/>
<path d="M52.2331 22.9855C52.5472 20.6278 52.592 14.1628 52.7715 10.0406C52.921 10.9303 53.274 12.8876 53.4893 13.5993C53.7585 14.489 53.2201 22.9855 53.2201 23.5193C53.2201 24.3645 51.9191 31.8824 51.8742 32.5496C51.8293 33.2169 50.3936 41.1796 48.7785 44.0266C48.5277 44.4686 48.285 44.338 48.285 44.0266C48.285 43.7152 48.1953 43.6262 48.285 43.0924C48.3747 42.5586 49.3348 40.1593 49.6309 38.9554C50.0796 37.1315 52.0863 24.088 52.2331 22.9855Z" fill="white"/>
<path d="M39.3117 43.6707C39.4553 36.9803 40.2389 30.3551 40.6128 27.8788V32.2827L39.9398 50.6992L39.5809 52.6565C39.4911 52.4044 39.3117 51.7224 39.3117 51.0106C39.3117 50.1209 39.1322 52.0337 39.3117 43.6707Z" fill="white"/>
<path d="M40.2093 17.6363C40.1375 17.5918 40.1046 17.2174 40.0972 17.0357V16.4241C40.0972 15.9904 41.0169 10.6189 41.0393 10.5633C41.0618 10.5077 41.2412 10.5077 41.331 10.6189C41.4207 10.7301 41.3534 11.364 41.4319 11.8756C41.5104 12.3871 41.3422 14.945 41.2412 15.6679C41.1605 16.2462 40.729 17.1173 40.5234 17.4806C40.4486 17.551 40.2811 17.6808 40.2093 17.6363Z" fill="white"/>
<path d="M48.0383 8.28347C48.0383 6.99342 48.1729 6.62643 48.2402 6.60419C48.2701 6.64126 48.3389 6.72429 48.3748 6.75988C48.4107 6.79547 48.5318 7.48646 48.5879 7.8275L48.9132 10.9414C48.9655 12.1499 49.0679 14.6002 49.059 14.7337C49.0477 14.9005 48.8683 15.59 48.8122 15.6679C48.7561 15.7457 48.7337 15.8792 48.5879 15.7346C48.4421 15.59 48.3299 14.7782 48.2402 14.2666C48.1504 13.755 48.0383 9.89602 48.0383 8.28347Z" fill="white"/>
<path d="M49.8776 15.8235L50.4608 6.48183L51.0665 6.70425L49.8776 15.8235Z" fill="white"/>
<path d="M29.8229 15.5344L29.9575 5.14731C29.9603 4.93378 30.1381 4.79143 30.2267 4.74695C30.3688 4.70246 30.6843 4.61794 30.8099 4.63574C30.9356 4.65353 30.9819 5.16213 30.9894 5.41421V9.75143L30.6529 17.1581L30.2267 21.0949C30.1893 21.1913 30.0831 21.3262 29.9575 21.0949C29.8319 20.8636 29.8154 19.6343 29.8229 19.0486V15.5344Z" fill="white"/>
<path d="M23.811 4.48004L22.9586 4.63574L23.1156 17.1581L23.9456 18.3146C23.9755 17.9291 24.0398 17.0958 24.0578 16.8467C24.0757 16.5976 23.9007 8.49845 23.811 4.48004Z" fill="white"/>
<path d="M19.9526 16.2684C19.8629 15.699 19.99 10.7078 20.0648 8.28345C20.0648 8.10551 20.1051 7.64732 20.2666 7.23807C20.4685 6.7265 20.491 7.06013 20.6256 7.23807C20.7602 7.416 20.9396 9.75143 20.9845 10.352C21.0293 10.9525 21.0742 13.199 21.1191 13.9107C21.155 14.4801 20.805 16.6094 20.6256 17.6029C20.5358 17.7067 20.3384 17.8787 20.2666 17.7364C20.1769 17.5584 20.0648 16.9801 19.9526 16.2684Z" fill="white"/>
<path d="M11.7647 25.4766C11.7647 24.4802 12.2433 12.9024 12.4826 7.23807C11.8993 7.416 10.688 7.87419 10.5085 8.28345C10.2842 8.79501 10.2393 8.57259 9.97011 13.9107C9.75476 18.1812 10.5982 26.0697 11.0469 29.4802L12.0788 29.8361C11.9741 28.7981 11.7647 26.4731 11.7647 25.4766Z" fill="white"/>
<path d="M12.3928 32.3717L15.7128 33.3058L11.4955 31.4375C11.4357 31.5858 11.352 32.0514 11.4955 32.7275C11.675 33.5727 13.1555 39.1778 14.2323 42.6031C15.0937 45.3433 17.7772 49.6167 18.6596 51.0551L16.4307 46.3842C15.668 44.16 14.1156 39.6048 14.008 39.1778C13.9003 38.7507 12.8863 34.4624 12.3928 32.3717Z" fill="white"/>
<path d="M20.6256 44.4714C20.2971 39.5559 20.499 35.1297 20.6256 30.7702H20.9845V34.151L21.4107 40.3788V46.8735H21.1191C20.9546 46.3249 20.6659 45.0751 20.6256 44.4714Z" fill="white"/>
<path d="M30.2419 58.6708C29.7932 57.959 30.2419 29.4001 30.2419 27.1759L30.9597 36.3397C30.87 44.0206 30.6008 59.2402 30.2419 58.6708Z" fill="#FFF5F5"/>
</svg>
