<svg width="64" height="64" viewBox="0 0 64 64" fill="none" xmlns="http://www.w3.org/2000/svg">
<path d="M19.2776 21.9054C18.7965 21.8044 18.2192 21.7035 17.7382 21.7035C16.0063 21.6025 14.2744 21.8044 12.6388 22.511C12.4464 22.612 12.4464 22.511 12.3502 22.4101C12.1577 22.1073 12.1577 22.1073 12.3502 21.8044C15.6215 17.8675 19.6625 15.4448 24.5694 14.4353C27.2634 13.9306 30.0536 14.0315 32.7476 14.6372C32.7476 14.6372 32.8438 14.6372 32.9401 14.6372C31.5931 9.7918 30.2461 4.94637 28.8991 0C32.9401 5.653 36.8849 11.306 40.9259 16.959C39.7713 12.7192 38.6167 8.37855 37.4621 4.1388C37.5584 4.23975 37.6546 4.44164 37.7508 4.54259C43.1388 12.1136 48.5268 19.7855 53.9148 27.3565C54.011 27.4574 54.011 27.6593 54.011 27.7603C53.4338 29.4763 52.8565 31.0915 52.2792 32.8076C52.2792 32.9085 52.2792 33.0095 52.2792 33.1104C53.0489 34.1199 53.8186 35.2303 54.4921 36.2397C54.5883 36.3407 54.5883 36.3407 54.6845 36.4416C55.8391 37.0473 56.8975 37.653 58.052 38.1577C58.1483 38.1577 58.1483 38.2587 58.2445 38.2587C58.1483 38.5615 58.052 38.8644 58.052 39.1672C57.3785 41.489 56.8013 43.9117 56.1278 46.2334C56.1278 46.3344 56.0315 46.4353 55.9353 46.5363C55.0694 47.142 54.1073 47.6467 53.2413 48.2524C53.2413 48.2524 53.1451 48.3533 53.1451 48.4543C52.7603 49.4637 52.3754 50.3722 52.0868 51.3817C52.0868 51.3817 52.0867 51.4826 51.9905 51.5836C51.6057 51.3817 51.2208 51.1798 50.836 50.9779C50.7397 50.9779 50.7397 50.877 50.7397 50.776C49.5852 47.7476 47.6609 45.224 45.0631 43.4069C42.9464 41.8927 40.6372 41.0852 38.1356 40.7823C36.5962 40.5804 35.0568 40.6814 33.5173 40.9842C33.3249 40.9842 33.2287 40.9842 33.2287 40.8833C33.0363 40.5804 32.8438 40.2776 32.6514 39.9748C33.5174 39.2681 34.4795 38.6625 35.3454 37.9558C35.153 37.9558 34.9606 37.8549 34.7681 37.8549C33.5173 37.653 32.2666 37.552 31.0158 37.653C30.9196 37.653 30.8233 37.653 30.8233 37.552C30.6309 37.2492 30.3423 36.9464 30.1498 36.5426C30.2461 36.5426 30.2461 36.4416 30.3423 36.4416C30.7271 36.1388 31.2082 35.836 31.5931 35.4322C31.8817 35.1293 32.1703 34.8265 32.459 34.5237C32.8438 34.0189 32.9401 33.5142 32.8438 32.9085C32.459 32.8076 31.9779 32.9085 31.5931 33.0095C30.6309 33.2114 29.8612 33.817 29.2839 34.6246C28.418 35.836 27.9369 37.2492 27.8407 38.7634C27.6483 41.388 28.3218 43.6088 29.8612 45.6278C29.9574 45.7287 30.0536 45.8296 30.1498 45.7287C30.6309 45.5268 31.2082 45.3249 31.6893 45.123C31.7855 45.123 31.8817 45.123 31.9779 45.224C33.5173 46.5363 34.9606 48.0505 36.1151 49.7666C36.1151 49.8675 36.2114 49.8675 36.2114 49.9685C36.5962 49.7666 36.9811 49.4637 37.2697 49.2618C37.5584 49.0599 37.7508 49.0599 38.0394 49.2618C42.0804 51.3817 45.2555 54.511 47.7571 58.4479C47.7571 58.4479 47.7571 58.4479 47.7571 58.5489C46.4101 59.8612 44.9669 61.0726 43.4274 62.082C43.4274 61.9811 43.3312 61.9811 43.3312 61.8801C42.0804 59.8612 40.7334 57.9432 39.194 56.2271C38.5205 55.5205 37.847 54.8139 37.1735 54.1073C37.0773 54.0063 36.9811 54.0063 36.8849 54.0063C34.1908 54.7129 31.5931 55.5205 28.8991 56.2271C28.8028 56.2271 28.7066 56.2271 28.7066 56.1262C28.5142 55.8233 28.3218 55.6214 28.1293 55.3186C29.5726 54.4101 30.9196 53.5016 32.2666 52.4921C32.2666 52.4921 32.2666 52.4921 32.2666 52.3912C31.7855 51.4826 31.3044 50.5741 30.7271 49.8675C30.1498 49.1609 30.1498 49.1609 29.2839 49.1609C27.2634 49.2618 25.1467 49.3628 23.1262 49.4637C22.9338 49.4637 22.9338 49.4637 22.8375 49.2618C22.7413 48.959 22.6451 48.6562 22.5489 48.3533C23.511 47.9495 24.4732 47.6467 25.5315 47.2429C25.5315 47.142 25.4353 47.142 25.4353 47.041C24.7618 45.5268 24.1845 44.0126 23.9921 42.2965C23.6073 39.6719 24.0883 37.1483 25.2429 34.8265C25.5315 34.3218 25.8202 33.918 26.0126 33.4132C25.9164 33.4132 25.9164 33.5142 25.8202 33.5142C23.511 34.8265 21.9716 36.8454 20.9132 39.2681C19.8549 41.6909 19.47 44.2145 19.6625 46.8391C20.1435 52.5931 22.8375 56.8328 27.2634 60.0631C28.7066 61.0726 30.3423 61.8801 31.9779 62.4858C32.0741 62.5867 32.1703 62.5867 32.1703 62.7886C32.1703 63.1924 32.1703 63.5962 32.1703 64C26.8785 63.7981 22.2603 61.9811 18.4117 58.1451C14.5631 54.4101 12.4464 49.6656 11.8691 44.2145C10.8107 45.0221 8.79022 47.142 8.40536 51.0789C8.21293 51.0789 8.0205 51.0789 7.82808 51.0789C7.82808 51.0789 7.73186 50.9779 7.73186 50.877C7.15457 49.4637 6.6735 47.9495 6.38486 46.4353C6 44.4164 5.90379 42.3975 6.09621 40.3785C6.57729 35.3312 8.40536 30.8896 11.7729 27.2555C13.7934 24.9338 16.295 23.3186 19.0852 22.1073C19.0852 22.0063 19.1814 22.0063 19.2776 21.9054ZM44.4858 25.7413C44.3896 26.8517 44.2934 27.8612 44.1009 28.8707C44.0047 30.082 44.4858 31.0915 45.5442 31.6972C45.8328 31.8991 46.1214 32 46.5063 32.2019C47.7571 32.8076 48.9117 33.4132 50.1625 34.1199C50.2587 34.1199 50.3549 34.2208 50.3549 34.0189C48.3344 31.1924 46.4101 28.4669 44.4858 25.7413Z" fill="white"/>
</svg>
