<svg width="65" height="64" viewBox="0 0 65 64" fill="none" xmlns="http://www.w3.org/2000/svg">
<path d="M0.452861 44.5896C1.51884 41.9043 1.42543 38.0361 3.23367 35.8543C4.03012 36.2079 4.65973 36.116 5.12177 35.579C5.18095 34.8054 5.30573 34.0418 5.4954 33.2888C5.76564 32.2585 6.16137 31.2609 6.7161 30.349C7.44268 29.1539 8.41739 28.1543 9.54326 27.3322C10.1843 26.8644 12.2656 26.2498 12.5366 25.7293C12.9351 24.9642 12.215 24.1884 12.0431 23.1916C11.7166 21.2999 12.9957 20.2033 13.035 18.6068C13.0656 17.3433 12.2528 16.3273 11.9262 15.1166C11.1996 12.4213 11.7893 13.4131 12.9915 11.57C13.2802 11.1272 13.1761 9.96136 13.6275 9.67758C14.3305 9.23621 16.9274 9.15706 17.7281 9.41162C18.6023 9.6897 18.9545 11.1279 19.8451 11.3354C21.2048 11.6527 21.2084 10.4327 22.4013 9.89505C25.2277 8.62015 29.8097 9.12355 32.8957 8.62229C32.835 8.69217 31.1373 10.3828 31.2272 10.6444C31.7962 12.3058 40.2677 10.6929 41.2402 10.4334C35.4832 5.24325 28.0435 5.05786 20.797 5.05786C20.7927 5.01936 20.7891 4.98086 20.7849 4.94235C25.7354 2.83036 31.7862 2.82395 36.9642 3.94126C39.9283 4.58085 42.2877 6.17732 45.0827 7.07716C46.5152 7.53778 46.0567 7.78805 47.4578 7.44009C48.3833 7.2105 49.8187 5.63613 50.332 4.89387L50.4533 4.95448C50.3306 7.24757 49.2119 9.13353 50.3435 11.0666C51.7652 13.4973 52.9503 14.5497 54.9888 12.6359C54.7899 14.1882 53.925 17.6642 56.221 18.2674C58.6346 18.9013 61.5223 13.416 63.3869 12.924C62.8892 14.554 62.3637 16.0984 61.5359 17.6022C60.8578 18.8336 58.3394 21.0447 58.1169 22.2754C57.4067 26.2056 62.8286 22.6176 64.3951 21.9424L64.4051 21.9531C63.8496 23.0754 58.3451 28.7989 59.3255 29.4491C60.2517 30.0638 62.994 27.6031 63.9958 27.4683C62.768 29.616 58.4905 32.1615 59.1971 34.9288C59.5109 36.1573 60.1291 36.1794 61.3769 37.1142C63.3562 38.5966 63.2835 38.7442 63.1238 40.9096C62.9591 43.1464 61.8539 45.632 61.2678 47.8189C60.8014 49.5587 60.6039 52.4693 59.6257 53.9623C57.7746 56.7881 51.0237 54.1862 47.8407 55.188C44.2685 56.3118 41.3821 59.0206 37.5375 59.9682C33.695 60.9151 29.5943 61.0491 25.6962 60.3889C21.7168 59.7151 18.2857 58.1043 14.8118 56.12C12.9052 55.0312 11.713 55.0718 9.46198 55.0683C8.57283 55.0668 2.7809 55.7007 2.22402 55.0191C1.44254 54.0629 4.1763 48.1105 4.42586 46.6374C4.93638 43.6234 3.47681 44.6666 0.452148 44.6587C0.452148 44.6352 0.452148 44.611 0.452148 44.5874L0.452861 44.5896ZM54.146 14.7558C50.5089 17.7248 47.0507 19.6158 42.3882 20.4429C42.3739 20.4108 42.3597 20.378 42.3461 20.3459C46.1608 16.651 48.2543 12.0512 49.5007 6.9424C48.4233 7.17841 47.2061 8.5189 46.2279 9.08006C44.6314 9.9963 42.9579 10.7207 41.1746 11.1856C39.6209 11.5913 31.0518 12.9596 30.0393 11.1493C29.9188 10.9339 31.6757 9.38737 31.8767 9.14851C29.5851 9.32177 27.2713 9.71323 24.9946 10.0384C23.975 10.1838 22.8655 10.1104 22.0213 10.7507C21.8922 10.8484 21.4002 11.7318 21.4173 11.7225C20.6301 12.1447 21.2098 12.6252 19.567 12.0277C17.6711 11.3382 17.2967 9.25903 14.8603 10.007C13.7929 10.335 13.1605 10.9282 12.7212 12.1311C11.7729 14.7294 13.4713 15.2884 13.5954 17.8838C13.6603 19.245 10.7675 25.1603 14.2706 25.6765C14.2706 21.9773 17.9905 22.7132 19.3217 25.4305C12.9116 26.7311 7.57316 27.3015 6.09006 34.8617C5.98953 35.5405 5.98525 36.2229 6.07794 36.9081C5.643 37.4828 5.01125 37.5784 4.18129 37.1955C3.5581 38.1887 2.66396 40.2943 2.68535 41.6077C2.69747 42.3471 1.98445 42.8612 2.56984 43.3183C3.30212 43.8901 6.03302 42.5967 6.62983 43.3667C8.02522 45.1671 2.6005 51.8454 3.98378 53.6557C4.94637 54.9149 12.4816 53.3292 14.235 53.9238C17.5342 55.0426 20.1945 57.5175 23.7796 58.4152C31.0218 60.2292 38.6591 59.1632 45.0022 55.1809C48.6079 52.9178 52.0733 54.0786 56.1953 53.7092C59.0617 53.4525 58.5404 52.8258 59.2934 49.9943C59.8938 47.7376 60.4963 45.4823 61.0995 43.2263C61.7341 40.8526 62.5034 40.1774 60.8585 38.4376C59.9287 37.4543 57.9037 37.5677 57.4131 36.8732C57.1679 36.5259 57.893 32.3055 58.1419 31.9426C58.7322 31.0827 60.236 30.6121 61.0382 29.8513C56.6088 31.3394 51.8537 32.2977 47.1691 32.3212C52.7278 31.2296 58.1383 28.4538 61.8788 24.1371C58.5661 25.1802 54.9888 25.812 51.5064 25.7086C55.6484 23.0183 58.6738 20.2718 61.4275 16.1241C61.4325 16.0991 61.4375 16.0742 61.4425 16.0492C61.4275 16.0635 61.4125 16.0784 61.3968 16.0927C57.8616 18.2703 54.7243 20.4279 50.6964 21.6964C52.0811 19.4503 53.3047 17.2599 54.1403 14.7472C54.1532 14.7387 54.166 14.7294 54.1788 14.7208C54.1567 14.7165 54.1453 14.7272 54.1453 14.7529L54.146 14.7558ZM26.8035 4.26498C26.7985 4.29492 26.7936 4.32558 26.7886 4.35553C30.3701 4.91312 33.6757 5.23683 37.0312 6.77983C38.3596 7.39089 40.8003 9.71822 42.16 9.92999C42.6035 9.99915 45.7159 8.9567 45.6696 8.51605C45.5163 7.06433 38.7382 5.19263 37.6016 4.89316C34.0486 3.95624 30.4386 3.81862 26.8028 4.26498H26.8035ZM48.7185 17.5679C49.3966 17.2507 52.2059 15.6542 52.3107 14.9668C52.357 14.6624 49.8957 11.3888 49.2689 11.4723C49.2383 11.4765 47.537 15.2278 47.5462 15.426C47.5819 16.1504 48.2215 17.0332 48.7185 17.5679ZM53.2305 19.3391L53.2669 19.4418C55.2284 18.7608 55.0815 19.2129 54.0869 17.4154C53.7767 18.1113 53.5036 18.7245 53.2298 19.3384L53.2305 19.3391Z" fill="#D33933"/>
<path d="M64.3955 21.9431C64.4076 21.926 64.4198 21.9096 64.4312 21.8925C64.4383 21.9017 64.4454 21.9103 64.4525 21.9195C64.4369 21.931 64.4205 21.9417 64.4048 21.9531L64.3955 21.9431Z" fill="#D33933"/>
<path d="M61.4288 16.1276C58.6743 20.2746 55.6497 23.0219 51.507 25.7114C54.9894 25.8155 58.5667 25.1831 61.8794 24.1399C58.1389 28.4559 52.7284 31.2317 47.1696 32.3241C51.8549 32.3005 56.6094 31.3422 61.0387 29.8541C60.2359 30.6149 58.7328 31.0848 58.1424 31.9455C57.8936 32.3084 57.1684 36.5288 57.4137 36.876C57.9043 37.5705 59.9293 37.4572 60.8591 38.4404C62.504 40.1802 61.7347 40.8555 61.1001 43.2291C60.4968 45.4844 59.8943 47.7405 59.294 49.9972C58.541 52.8286 59.0622 53.4554 56.1959 53.7121C52.0738 54.0807 48.6085 52.9199 45.0027 55.1838C38.6589 59.166 31.0224 60.232 23.7802 58.4181C20.1951 57.5196 17.534 55.0454 14.2356 53.9267C12.4822 53.332 4.94623 54.9178 3.98435 53.6586C2.60108 51.8482 8.0258 45.17 6.6304 43.3696C6.03288 42.5995 3.3027 43.8922 2.57042 43.3211C1.98502 42.8641 2.69805 42.35 2.68593 41.6106C2.66454 40.2972 3.55939 38.1923 4.18186 37.1983C5.01111 37.5819 5.64357 37.4857 6.07852 36.911C5.98582 36.2258 5.9901 35.5434 6.09064 34.8646C7.57374 27.3051 12.9122 26.7339 19.3223 25.4334C17.9911 22.716 14.2712 21.9802 14.2712 25.6794C10.7681 25.1631 13.6609 19.2478 13.596 17.8867C13.4719 15.2905 11.7728 14.7322 12.7218 12.134C13.161 10.9304 13.7935 10.3371 14.8609 10.0098C17.298 9.26188 17.6724 11.3411 19.5676 12.0306C21.2104 12.6281 20.6307 12.1475 21.4179 11.7254C21.4008 11.7347 21.8921 10.8512 22.0218 10.7535C22.8661 10.1132 23.9755 10.1867 24.9952 10.0412C27.2719 9.71608 29.5863 9.32463 31.8773 9.15136C31.6762 9.39094 29.9193 10.9375 30.0398 11.1521C31.0516 12.9618 39.6215 11.5935 41.1752 11.1885C42.9585 10.7236 44.632 9.99915 46.2284 9.08291C47.2074 8.52104 48.4238 7.18126 49.5012 6.94525C48.2556 12.0541 46.1621 16.6538 42.3467 20.3488C42.361 20.3808 42.3752 20.4136 42.3888 20.4457C47.0513 19.6186 50.5094 17.7277 54.1466 14.7586L54.1416 14.7529C53.3067 17.2656 52.0831 19.456 50.6977 21.7021C54.7263 20.4343 57.8629 18.276 61.3981 16.0984C61.4081 16.1091 61.4188 16.1198 61.4288 16.1298V16.1276ZM41.9688 16.4642C41.9574 16.4749 41.946 16.4849 41.9339 16.4956C41.956 16.497 41.9667 16.4856 41.9659 16.462C41.993 16.4414 42.0201 16.4214 42.0465 16.4007C44.5036 14.5889 46.4865 11.6142 48.1137 9.06794C48.1286 9.05582 48.1336 9.04084 48.1301 9.0223C48.2149 8.9125 48.3005 8.8034 48.3853 8.6936C48.3547 8.67078 48.324 8.64868 48.2934 8.62586C48.2249 8.71641 48.1572 8.80626 48.0887 8.89681C47.4641 9.32391 43.2223 11.4402 43.474 12.186C42.5456 11.0045 41.9096 12.812 41.8433 13.2634C41.4034 11.9272 39.7377 12.4855 40.0607 13.7689C39.0482 12.9982 37.7142 12.5532 38.0521 14.4007C37.153 13.2456 37.051 13.3247 35.4539 13.4916C36.7045 15.0203 36.1013 14.6959 38.2026 14.6431C40.2875 14.4763 42.0651 13.5964 43.7029 12.3015C43.5795 12.6908 43.4562 13.0794 43.3321 13.4687C43.089 14.0342 42.8522 14.6025 42.6013 15.1643C42.418 15.5729 42.2155 15.9729 42.0223 16.3772C42.0044 16.4064 41.9859 16.4357 41.9681 16.4642H41.9688ZM26.3806 11.3404C27.7795 11.0658 28.7008 10.9646 29.8102 9.99273C28.7842 10.1453 27.8316 10.2865 26.8783 10.4277C26.4312 10.4961 21.589 10.755 21.9548 12.0955C22.1502 12.3172 22.3919 12.407 22.6807 12.3657C23.7003 12.3614 24.7071 12.2808 25.7267 12.2808C25.731 12.3179 25.7346 12.3557 25.7388 12.3928C24.5887 12.5432 23.0821 12.5511 21.9776 12.991C23.3409 14.4285 26.3713 14.3401 27.572 15.918C25.7331 15.9722 22.1302 13.9764 23.035 16.8963C23.0115 16.907 22.9873 16.9177 22.9637 16.9284C22.6543 16.5583 22.3448 16.189 22.0361 15.8189C21.532 13.5828 19.8257 12.7336 18.9145 14.7907C18.8852 14.7843 18.856 14.7772 18.8268 14.7707C18.7882 14.0477 18.933 12.0384 17.6788 12.9775C17.6367 12.9768 17.5954 12.976 17.5533 12.9753C18.6364 11.4052 15.0092 9.72464 14.3539 11.4958C14.1422 12.0676 17.2609 12.2274 17.3529 12.2402C15.6474 13.3475 15.2588 11.8067 13.9368 12.1832C11.8776 12.77 12.9692 15.6741 13.5931 17.1394C13.6231 17.2121 13.653 17.2842 13.683 17.3569C14.2306 16.6695 14.6391 15.4888 15.067 14.7501C15.0933 14.7643 15.1197 14.7793 15.1461 14.7936V15.3162C15.3507 19.5124 21.5248 17.277 23.6632 17.7647C27.1549 18.5612 24.9531 23.2194 21.455 21.9581C20.168 21.1488 15.6816 17.7298 14.6876 20.1741C14.662 20.1691 14.637 20.1641 14.6113 20.1591V17.6457C13.812 18.7573 13.2837 19.8889 13.0712 21.1588C12.7546 22.2361 13.2509 23.2529 13.6744 24.2041C13.7051 24.1906 13.735 24.177 13.7657 24.1635C13.9589 20.5976 17.1846 22.0893 19.02 23.1773C21.7331 24.7866 23.3823 25.4662 26.5517 24.403C26.6808 24.3688 26.8098 24.3346 26.9396 24.2996C26.9603 24.336 26.9817 24.3724 27.0023 24.4087C22.588 27.3664 17.1732 25.3899 12.6099 27.852C10.6868 28.8894 9.16878 30.4303 8.44078 32.5259C8.22616 33.1433 7.42757 37.4251 8.64185 37.1884C8.3545 37.0621 13.8897 32.1294 14.8673 31.7137C17.6902 30.5137 20.9031 30.3604 23.8472 31.1219C30.6823 32.8909 36.2617 36.1423 43.5425 36.0917C46.6577 36.0432 49.7137 35.5491 52.7491 34.866C50.6314 35.7815 48.4588 36.5224 46.242 37.1449C47.986 37.1712 51.3031 37.798 52.9437 37.1755C54.2315 36.6871 53.8764 36.8882 54.2807 35.3245C54.332 35.1256 54.7912 33.6154 54.5709 33.4485C54.1316 33.1162 48.2413 34.5416 47.4762 34.5901C44.8295 34.7569 42.2005 34.5808 39.5859 34.1537C34.4193 33.3109 29.3368 31.5854 24.8126 28.9329C30.7422 30.0787 35.9986 32.3298 42.1884 32.3298C38.7359 31.6788 34.6025 31.0927 31.6912 28.9636C36.7166 30.4345 42.2291 30.8716 47.3835 29.8506C49.8349 29.365 54.9381 28.7026 56.7099 26.679C49.1682 27.9767 41.6686 27.6901 34.2075 26.0508C40.1213 25.4091 44.8551 24.7111 49.4442 20.604C49.4256 20.5848 49.4064 20.5648 49.3879 20.5456C48.242 20.8757 47.0962 21.2051 45.9503 21.5352C43.3514 22.1249 40.716 22.3702 38.0543 22.3588C35.8303 22.1741 33.7255 22.8351 31.4937 22.7502C30.0905 22.5007 29.0958 21.6921 28.3713 20.5149C28.3892 20.4885 28.407 20.4628 28.4248 20.4365C28.5025 20.4885 28.5795 20.5406 28.6573 20.5919C33.6492 24.9371 39.5951 19.429 41.5046 14.7444C39.1445 15.5308 37.2742 15.5066 34.8549 15.1444C33.0695 14.877 30.1461 14.1276 29.5272 16.6146C28.5931 18.5926 31.6791 21.3406 33.0895 19.2564C34.9341 16.5305 29.8159 16.2895 31.4773 18.9199L31.3725 19.0218C27.4294 15.5572 37.7769 14.9005 34.3123 19.8511C32.1062 23.0027 27.1428 19.5587 28.5232 16.2538C30.0869 13.6655 32.1005 13.6427 34.8528 14.2602C33.3861 12.2295 28.8797 11.5457 26.6601 11.4081C26.5674 11.4074 26.4747 11.406 26.382 11.4052C26.3806 11.3846 26.3806 11.3639 26.3827 11.3432L26.3806 11.3404ZM20.1252 43.878C20.009 42.8641 20.1943 39.4629 19.5576 38.7534C18.8317 37.9456 15.596 38.4739 14.5308 38.4739C11.8312 38.4747 5.99438 37.3851 4.56333 39.51C1.63136 43.8623 7.09672 40.854 8.26965 42.109C9.01405 42.9054 5.9409 51.0411 5.57155 52.4286C8.70246 52.4286 9.32351 53.2037 10.279 50.415C10.8765 48.671 11.2979 43.0936 12.7767 42.0369C13.074 41.8245 15.9183 41.8986 16.2748 42.325C16.5857 42.6965 16.6884 45.7754 16.7069 46.2773C16.739 47.1636 15.5597 52.1605 15.77 52.3908C16.1935 52.8529 19.4842 52.4935 19.9462 52.1448C20.5402 51.6956 20.9273 48.8114 21.4272 47.8674C23.1612 44.591 25.6355 41.6933 27.4808 38.4754C25.8166 38.4754 24.4205 38.1666 23.1983 39.1399C21.984 40.1068 20.9851 42.5525 20.1259 43.8787L20.1252 43.878ZM52.7113 52.4407C55.4664 52.4407 56.675 53.101 57.7987 50.6596C58.7114 48.6752 59.0316 46.0363 59.5899 43.9364C60.8398 39.2347 60.1581 38.4818 55.2832 38.4761C53.0885 38.4732 50.7262 37.7887 49.5568 39.5292C48.513 41.0836 48.2648 44.3657 47.7664 46.2324C47.2645 48.1127 45.966 50.1612 47.3229 51.6714C48.5615 53.0504 51.03 52.4415 52.712 52.4415L52.7113 52.4407ZM41.9132 38.4739C39.0874 38.4739 37.7812 37.6511 36.8157 40.4034C36.0877 42.479 35.4781 44.8377 35.0524 46.9961C34.179 51.419 38.8693 52.435 42.3781 52.4407C45.3578 52.445 44.96 51.901 45.6837 49.1922C46.2819 46.9511 46.8823 44.7115 47.4841 42.4719C48.6705 38.0597 45.6181 38.4739 41.9132 38.4739ZM36.9063 52.4243C36.2981 51.5808 34.0756 49.3961 33.1016 49.0075C32.3779 48.7187 29.9086 49.3519 29.4844 48.8136C28.2066 47.1921 33.5315 39.9606 32.1254 38.5488C31.8737 38.2964 28.628 38.29 28.3008 38.4682C27.3674 38.9759 27.212 41.4836 26.9431 42.4904C26.3057 44.8776 23.2746 50.6853 26.0897 52.2026C28.4327 53.4661 34.2381 52.542 36.907 52.4243H36.9063ZM31.6456 37.1805C31.6506 37.1605 31.6556 37.1413 31.6598 37.1213C26.0782 35.1434 19.6425 32.5437 14.6149 37.1092C14.6327 37.1327 14.6498 37.1563 14.6677 37.1805H31.6456ZM39.8896 53.7249H21.6639C27.7353 56.4009 33.811 56.0693 39.8896 53.7249ZM15.0734 18.7295C15.3942 18.4314 15.7565 18.2168 16.1607 18.0849C16.3497 18.1362 16.2898 18.8956 16.7903 19.0332C17.5404 19.2393 18.9708 19.9837 19.8435 19.6343C19.2239 21.2379 21.7352 19.7826 21.8949 19.6557C21.9505 23.3834 24.8853 17.7491 20.6977 19.953C20.5259 19.3505 18.9622 18.8485 18.1601 18.5904C15.8085 17.8339 15.6495 18.2931 15.0071 15.9722C14.9743 15.9672 14.9422 15.9622 14.9094 15.9572C14.5792 16.5355 14.2498 17.1137 13.9197 17.692L14.0045 17.7476C14.3069 17.4161 14.6092 17.0852 14.9714 16.6881C15.0085 17.4253 15.0406 18.0578 15.0741 18.7295H15.0734ZM21.9462 13.8074C21.932 14.8556 24.178 15.282 24.8682 15.0631C24.4939 14.5583 22.384 13.9821 21.9462 13.8074Z" fill="#181717"/>
<path d="M26.8033 4.26493C30.4391 3.81929 34.0491 3.9569 37.6021 4.89311C38.7387 5.19258 45.5168 7.06428 45.6701 8.516C45.7164 8.95594 42.604 9.9991 42.1605 9.92994C40.8008 9.71817 38.3594 7.39085 37.0317 6.77978C33.6769 5.23607 30.3706 4.91236 26.7891 4.35548C26.7941 4.32554 26.799 4.29488 26.804 4.26493H26.8033Z" fill="#191616"/>
<path d="M48.7191 17.5686C48.2222 17.0339 47.5826 16.1511 47.5469 15.4267C47.5369 15.2285 49.2389 11.4772 49.2696 11.4729C49.8963 11.3895 52.3577 14.663 52.3114 14.9675C52.2066 15.6549 49.3972 17.2513 48.7191 17.5686Z" fill="#181616"/>
<path d="M53.231 19.3391C53.5048 18.7251 53.7778 18.1112 54.088 17.416C55.082 19.2136 55.2289 18.7615 53.268 19.4424L53.2317 19.3398L53.231 19.3391Z" fill="#1E1717"/>
<path d="M61.3979 16.0962C61.4129 16.082 61.4279 16.067 61.4436 16.0527C61.4386 16.0777 61.4336 16.1026 61.4286 16.1276C61.4186 16.1176 61.4079 16.1069 61.3979 16.0962Z" fill="#181717"/>
<path d="M54.1456 14.7557C54.1456 14.7301 54.157 14.7194 54.1791 14.7236C54.1663 14.7322 54.1535 14.7415 54.1406 14.75L54.1456 14.7557Z" fill="#181717"/>
<path d="M24.8124 28.9314C29.3365 31.5832 34.419 33.3094 39.5856 34.1522C42.2003 34.5786 44.8292 34.7547 47.476 34.5886C48.2411 34.5401 54.1314 33.1148 54.5706 33.447C54.7909 33.6139 54.3317 35.1248 54.2804 35.323C53.8761 36.8867 54.2312 36.6856 52.9435 37.174C51.3028 37.7965 47.9851 37.1697 46.2417 37.1434C48.4585 36.5209 50.6311 35.7801 52.7488 34.8645C49.7135 35.5476 46.6574 36.0425 43.5422 36.0902C40.9404 34.7925 36.7856 35.0421 33.8985 34.0809C30.0831 32.8103 26.503 30.7696 22.5792 29.8334C16.1562 28.3004 10.4819 30.7347 8.64232 37.1861C7.42803 37.4236 8.22662 33.1411 8.44125 32.5237C9.16996 30.4281 10.6873 28.8872 12.6103 27.8498C17.1737 25.3884 22.5884 27.3642 27.0028 24.4065C26.9821 24.3702 26.9607 24.3338 26.9401 24.2974C26.811 24.3317 26.6819 24.3659 26.5522 24.4001C23.4683 24.7167 22.1371 24.3459 19.5681 22.7773C17.1844 21.3213 15.9009 20.4314 13.5037 22.2625C13.3476 21.8988 13.2036 21.5295 13.0717 21.1566C13.2841 19.8867 13.8125 18.7551 14.6118 17.6435V20.1569C14.6375 20.1619 14.6624 20.1669 14.6881 20.1719C15.682 17.7276 20.1691 21.1466 21.4554 21.9559C22.8237 25.4426 30.0018 19.2471 26.0352 16.9946C24.5429 16.1475 20.6383 17.908 18.731 17.6021C16.6981 17.2763 16.4785 16.5975 15.1466 15.314V14.7914C15.1202 14.7771 15.0938 14.7621 15.0674 14.7479C14.6396 15.4866 14.2317 16.6673 13.6834 17.3547C13.6535 17.282 13.6235 17.2099 13.5936 17.1372C13.6456 16.0848 12.9041 13.8131 13.7754 13.0722C14.0335 12.8526 17.2486 13.3689 17.3206 13.0109C17.2529 13.2833 17.1851 13.555 17.1181 13.8273C17.1402 13.8459 17.1623 13.8651 17.1851 13.8837C17.4539 13.5015 17.799 13.2327 18.2204 13.0765C18.5933 13.1763 18.6646 15.6135 18.6739 15.7026C19.4782 15.2477 19.2486 13.9293 20.1135 13.9478C20.6283 13.9585 21.5767 15.4723 22.0366 15.8174C22.346 16.1875 22.6555 16.5568 22.9642 16.9269C22.9877 16.9162 23.012 16.9055 23.0355 16.8948C22.1307 13.9749 25.7343 15.9707 27.5725 15.9165C26.3711 14.3386 23.3414 14.427 21.9781 12.9895C23.0826 12.5503 24.5892 12.5418 25.7393 12.3913C25.735 12.3542 25.7315 12.3164 25.7272 12.2794C24.7076 12.2794 23.7015 12.3606 22.6811 12.3649C21.556 11.264 26.2555 10.7242 26.8787 10.4276C27.8321 10.2864 28.7847 10.1446 29.8107 9.99268C28.7012 10.9638 27.78 11.0658 26.381 11.3403C26.3639 11.3503 26.3468 11.361 26.3297 11.371C26.3468 11.3817 26.3632 11.3916 26.3796 11.4023C26.4723 11.403 26.565 11.4045 26.6577 11.4052C28.1978 12.0719 29.8064 12.4583 31.3295 13.1956C30.2856 13.8787 28.2684 14.5382 28.5208 16.2509C27.1411 19.5558 32.1045 23.0005 34.3099 19.8482C37.7745 14.8976 27.4271 15.5543 31.3701 19.0189L31.4749 18.9169C29.8136 16.2866 34.9317 16.5276 33.0871 19.2535C31.6767 21.3377 28.5914 18.5897 29.5248 16.6117C30.9245 15.4117 31.728 15.1529 33.5577 15.3611C34.1445 15.4274 38.0077 15.945 38.2686 16.2474C39.5157 17.6948 35.4222 19.9387 34.3128 20.4478C34.3285 20.4899 34.3434 20.5319 34.3591 20.574C35.095 20.3516 35.8308 20.1284 36.6551 19.8788C34.2928 21.9095 31.3387 21.6728 28.6549 20.5883C28.5772 20.5362 28.5002 20.4842 28.4224 20.4328C28.4046 20.4592 28.3868 20.4849 28.369 20.5113C29.0934 21.6885 30.0881 22.4971 31.4913 22.7466C33.1655 23.8875 36.2907 22.8849 38.0519 22.3552C40.7136 22.3666 43.349 22.122 45.9487 21.5316C43.0666 24.9969 36.044 25.3057 31.9862 25.7071C37.6997 27.6922 44.0727 28.5057 50.1078 28.2847C41.7375 29.7657 33.5477 28.9086 25.4705 26.3973C27.201 27.9767 29.1397 29.2066 31.3188 30.0623C31.3002 30.1115 31.2817 30.1614 31.2624 30.2106C28.9715 29.6844 26.6805 29.1582 24.2719 28.6049C24.5022 28.7439 24.6569 28.8366 24.8117 28.9293L24.8124 28.9314ZM27.0598 24.2632L27.0363 24.249L27.0327 24.2704L27.0591 24.2632H27.0598Z" fill="#D33731"/>
<path d="M20.1249 43.878C20.9841 42.551 21.9831 40.106 23.1973 39.1392C24.4195 38.1659 25.8156 38.4746 27.4798 38.4746C25.6345 41.6925 23.1603 44.5903 21.4262 47.8666C20.9271 48.8107 20.5399 51.6949 19.9452 52.1441C19.4832 52.4928 16.1926 52.8521 15.769 52.3901C15.558 52.1598 16.7373 47.1629 16.7059 46.2766C16.6881 45.7746 16.5854 42.6958 16.2738 42.3243C15.9173 41.8979 13.0723 41.8244 12.7757 42.0362C11.2969 43.0922 10.8755 48.6702 10.278 50.4143C9.32253 53.2037 8.70077 52.4279 5.57058 52.4279C5.93992 51.041 9.01308 42.9047 8.26868 42.1082C7.09574 40.8533 1.63038 43.8623 4.56235 39.5092C5.9934 37.3837 11.831 38.4739 14.5298 38.4732C15.595 38.4732 18.8308 37.9441 19.5566 38.7527C20.1934 39.4622 20.0087 42.8633 20.1242 43.8772L20.1249 43.878ZM6.3328 51.8575C8.96388 51.8575 9.03803 52.353 9.93288 49.9087C10.6017 48.082 10.9653 46.0734 11.4695 44.1931C12.0976 41.8494 11.7383 41.9656 13.7747 41.4629C14.9954 41.1613 16.1926 42.0205 17.0325 40.9239C16.0749 40.6472 12.5397 40.3713 11.7675 40.9667C10.8035 41.7103 10.4926 45.1143 10.166 46.3229C9.9008 47.3069 9.67976 50.3473 8.79346 51.1352C8.17028 51.6892 7.10145 51.0639 6.33209 51.8575H6.3328ZM16.4165 51.8553C19.178 51.8553 18.629 52.1362 19.9003 50.3843C20.3267 49.7968 20.6632 48.1975 21.0212 47.5001C22.5642 44.4962 25.0063 41.9492 26.5571 38.9388C25.0805 38.496 21.0989 45.8666 20.4123 47.1778C19.921 48.1162 19.6999 50.1562 19.0197 50.9141C18.3751 51.6314 17.2165 51.0089 16.4172 51.8546L16.4165 51.8553ZM19.2693 45.9664C19.3021 45.9764 19.3349 45.9864 19.3677 45.9956C19.7092 45.0837 19.5545 38.7277 18.8957 38.901C17.8782 39.1684 19.1609 44.9803 19.2693 45.9664ZM9.70186 40.8091C8.55103 40.8091 5.6155 40.3199 4.89819 41.4686C6.24011 41.7681 8.73001 41.8943 9.70186 40.8091Z" fill="#FBFBFB"/>
<path d="M52.7113 52.4407C51.0293 52.4407 48.5608 53.0504 47.3222 51.6707C45.9653 50.1605 47.2638 48.1119 47.7657 46.2317C48.2641 44.365 48.5123 41.0829 49.5562 39.5285C50.7255 37.7873 53.0878 38.4725 55.2825 38.4754C60.1582 38.4818 60.8398 39.2347 59.5892 43.9357C59.0309 46.0356 58.7114 48.6745 57.798 50.6589C56.6743 53.1003 55.4657 52.44 52.7106 52.44L52.7113 52.4407ZM52.6992 48.8734C54.8718 48.8734 54.5031 47.3725 55.0201 45.4659C55.5149 43.642 56.9046 42.1068 54.5146 42.0426C52.3434 41.9842 52.6892 43.5856 52.1772 45.4402C51.6817 47.237 50.2499 48.8734 52.6992 48.8734ZM47.7558 51.2058C49.2724 52.4878 52.471 51.8553 54.3456 51.8568C57.3139 51.8589 57.1578 51.2821 57.8893 48.5134C58.2829 47.0224 61.9379 37.9548 57.9464 38.9659C59.371 40.6273 59.3182 40.5531 58.7093 42.8106C58.1867 44.7479 57.6669 46.6859 57.1499 48.6246C56.3449 51.6428 55.8222 51.2086 52.9181 51.205C51.1975 51.2029 49.4763 51.2058 47.7558 51.2058ZM57.3353 40.9289C55.4736 40.3991 52.8168 40.5332 51.8678 41.9179C50.6749 43.6569 50.3419 47.3761 49.8563 49.456C49.8841 49.471 49.9112 49.4867 49.9391 49.5016C51.7345 48.0463 51.1163 45.1871 52.1908 43.2762C53.4942 40.9574 51.7166 42.1653 54.4176 41.587C55.5827 41.3382 56.4754 41.972 57.336 40.9289H57.3353Z" fill="#FCFCFC"/>
<path d="M41.9129 38.4747C45.6178 38.4747 48.6703 38.0604 47.4838 42.4726C46.8813 44.7122 46.2809 46.9526 45.6834 49.1929C44.9604 51.9024 45.3583 52.4464 42.3778 52.4415C38.869 52.4357 34.1787 51.4197 35.0522 46.9968C35.4786 44.8384 36.0875 42.4797 36.8155 40.4041C37.7816 37.6511 39.0872 38.4747 41.9129 38.4747ZM40.1517 48.8742C42.4926 48.8742 42.5561 45.9115 42.9169 43.8987C43.1992 42.3229 43.7654 41.6847 41.7183 42.0448C39.7382 42.3927 39.915 44.4142 39.3895 46.3579C38.9096 48.1333 38.1082 48.8742 40.151 48.8742H40.1517ZM45.2349 38.9381C47.6321 41.1193 45.7897 43.888 45.0117 46.7943C44.6545 48.1305 44.5597 50.3673 43.4466 51.215C42.7386 51.7541 38.971 51.2072 38.0326 51.2072C38.0212 51.2521 38.0091 51.2963 37.9977 51.3412C39.269 52.0193 41.8224 52.3302 43.2085 51.8632C45.0638 51.2386 44.9048 49.8646 45.4467 47.8246C45.8125 46.4477 49.3127 38.091 45.2349 38.9381ZM42.1924 41.6006C43.2598 41.6006 44.1012 41.7974 44.8613 40.9596C44.0841 40.7735 42.4035 40.6993 41.5343 40.8904C39.212 41.4009 40.1268 40.6472 39.2419 42.5674C38.5153 44.1439 37.2405 47.7676 37.4251 49.4332C37.4444 49.6043 38.9168 46.4477 39.0102 46.0905C39.7189 43.3917 39.2883 41.6013 42.1924 41.6013V41.6006Z" fill="#FCFCFC"/>
<path d="M24.8127 28.9315C24.658 28.8388 24.504 28.7454 24.2729 28.6071C26.6808 29.1604 28.9725 29.6866 31.2635 30.2128C31.282 30.1636 31.3006 30.1137 31.3198 30.0645C29.1408 29.2088 27.2021 27.9789 25.4715 26.3995C33.5487 28.9108 41.7393 29.7679 50.1088 28.2869C44.0737 28.5079 37.7007 27.6944 31.9872 25.7093C36.045 25.3079 43.0677 24.9991 45.9497 21.5338C47.0956 21.2037 48.2414 20.8743 49.3872 20.5441C49.4058 20.5634 49.425 20.5833 49.4436 20.6026C44.8538 24.7104 40.1207 25.4084 34.2069 26.0494C41.6687 27.6894 49.1683 27.976 56.7093 26.6776C54.9374 28.7012 49.8343 29.3636 47.3829 29.8491C42.2284 30.8695 36.716 30.4331 31.6906 28.9621C34.6019 31.0912 38.736 31.6774 42.1878 32.3283C35.998 32.3283 30.7415 30.0773 24.812 28.9315H24.8127Z" fill="#A1242D"/>
<path d="M36.9061 52.4243C34.2372 52.5427 28.4325 53.466 26.0887 52.2026C23.2737 50.6852 26.3048 44.8776 26.9422 42.4904C27.211 41.4836 27.3665 38.9759 28.2998 38.4682C28.6271 38.2899 31.8728 38.2964 32.1245 38.5488C33.5306 39.9606 28.2057 47.1921 29.4835 48.8135C29.9077 49.3519 32.3776 48.7187 33.1007 49.0075C34.0747 49.3961 36.2972 51.5808 36.9054 52.4243H36.9061ZM31.2846 38.8996C30.7213 38.7905 28.0189 48.7857 28.0467 49.8988C30.5651 49.5772 30.2935 39.0978 31.2846 38.8996ZM35.1428 51.8589C33.445 50.2118 28.4039 51.2065 26.1465 51.2065C27.6453 52.8771 33.0151 51.8589 35.1428 51.8589Z" fill="#FBFBFB"/>
<path d="M8.6409 37.1862C10.4805 30.7347 16.1548 28.3004 22.5778 29.8334C26.5015 30.7697 30.0817 32.8111 33.8971 34.081C36.7841 35.0421 40.9389 34.7918 43.5408 36.0903C36.2601 36.1409 30.6813 32.8902 23.8455 31.1205C20.9014 30.3582 17.6885 30.5122 14.8656 31.7123C13.8881 32.128 8.35284 37.0607 8.64019 37.1869L8.6409 37.1862Z" fill="#A1242D"/>
<path d="M31.6449 37.1805H14.667C14.6492 37.1569 14.6321 37.1334 14.6143 37.1092C19.6418 32.5436 26.0776 35.1433 31.6592 37.1213C31.6542 37.1413 31.6492 37.1605 31.6449 37.1805Z" fill="#D33730"/>
<path d="M39.8888 53.7249C33.8102 56.0693 27.7352 56.4008 21.6631 53.7249H39.8888Z" fill="#D23730"/>
<path d="M28.6558 20.5898C31.3389 21.6743 34.2937 21.9103 36.6559 19.8803C35.8317 20.1298 35.0958 20.3523 34.36 20.5755C34.3443 20.5334 34.3293 20.4914 34.3136 20.4493C35.4231 19.9395 39.5166 17.6963 38.2695 16.2488C38.0086 15.9458 34.1447 15.4289 33.5585 15.3625C31.7289 15.1551 30.9253 15.4132 29.5257 16.6132C30.1446 14.1262 33.0673 14.8748 34.8534 15.1429C37.2727 15.5059 39.143 15.5294 41.5031 14.7429C39.5943 19.4275 33.6477 24.9357 28.6558 20.5905V20.5898Z" fill="#A1242D"/>
<path d="M15.146 15.3155C16.4779 16.5989 16.6975 17.2777 18.7304 17.6036C20.637 17.9095 24.5423 16.149 26.0347 16.9961C30.0012 19.2486 22.8232 25.4441 21.4549 21.9573C24.9537 23.2187 27.1548 18.5605 23.6631 17.764C21.5255 17.2763 15.3506 19.5124 15.146 15.3155Z" fill="#A1242D"/>
<path d="M43.3327 13.468C43.4561 13.0787 43.5794 12.6901 43.7035 12.3008C42.0657 13.5956 40.2881 14.4755 38.2032 14.6424C38.1775 14.6081 38.1518 14.5746 38.1262 14.5411C38.1005 14.4919 38.0748 14.4434 38.0492 14.3942L38.0527 14.3999C37.714 12.5525 39.0481 12.9974 40.0613 13.7682C39.739 12.4854 41.404 11.9264 41.8439 13.2626C41.9102 12.8106 42.5462 11.0031 43.4746 12.1853C43.2229 11.4394 47.4647 9.32316 48.0893 8.89606C48.1029 8.93813 48.1164 8.97948 48.1307 9.02155C48.135 9.04009 48.1293 9.05578 48.1143 9.06718C46.5898 10.5909 45.1032 12.233 43.3334 13.468H43.3327Z" fill="#CF3730"/>
<path d="M22.036 15.8174C21.5761 15.4723 20.6278 13.9593 20.113 13.9478C19.2481 13.9293 19.4777 15.2477 18.6734 15.7026C18.6634 15.6135 18.5921 13.1764 18.2199 13.0765C17.7992 13.2327 17.4541 13.5015 17.1846 13.8837C17.1625 13.8651 17.1404 13.8459 17.1176 13.8273C17.1853 13.555 17.253 13.2833 17.3201 13.0109C17.2481 13.3689 14.033 12.8526 13.7749 13.0722C12.9043 13.8131 13.6458 16.0848 13.5931 17.1372C12.9685 15.672 11.8768 12.7678 13.9368 12.181C15.258 11.8045 15.6473 13.3453 17.3529 12.238C17.2609 12.2252 14.1421 12.0655 14.3539 11.4936C15.0091 9.72316 18.637 11.4031 17.5532 12.9731C17.5953 12.9739 17.6367 12.9746 17.6787 12.9753C18.9329 12.0362 18.7882 14.0455 18.8267 14.7685C18.8559 14.775 18.8852 14.7821 18.9144 14.7885C19.8257 12.7314 21.5319 13.5806 22.036 15.8167V15.8174ZM15.3478 11.6177C15.8241 11.6376 16.1386 11.4644 16.2926 11.0979C16.1486 10.5203 14.9378 11.2234 14.7945 11.3325C14.9735 11.4244 15.1518 11.5164 15.3478 11.6177Z" fill="#9F242D"/>
<path d="M13.0703 21.158C13.2022 21.5316 13.3455 21.9003 13.5024 22.2639C15.8996 20.4322 17.183 21.3227 19.5667 22.7787C22.1357 24.3474 23.4669 24.7182 26.5508 24.4016C23.3814 25.4654 21.7321 24.7859 19.0191 23.1766C17.1837 22.0878 13.958 20.5969 13.7648 24.1627C13.7341 24.1763 13.7042 24.1898 13.6735 24.2034C13.25 23.2522 12.7544 22.2354 13.0703 21.158Z" fill="#A0242D"/>
<path d="M15.0733 18.7295C15.0398 18.0578 15.0077 17.4253 14.9707 16.6881C14.6084 17.0852 14.3061 17.4168 14.0038 17.7476L13.9189 17.692C14.2491 17.1137 14.5785 16.5355 14.9086 15.9572C14.9414 15.9622 14.9735 15.9672 15.0063 15.9722C15.6488 18.2931 15.8078 17.8332 18.1593 18.5904C18.9622 18.8485 20.5252 19.3512 20.697 19.953C24.8846 17.7491 21.9498 23.3834 21.8942 19.6557C21.7344 19.7826 19.2232 21.2379 19.8428 19.6343C18.9708 19.983 17.5404 19.2393 16.7896 19.0332C16.2898 18.8963 16.3489 18.1369 16.16 18.0849C15.7564 18.2168 15.3935 18.4314 15.0726 18.7295H15.0733Z" fill="#CD362F"/>
<path d="M28.5204 16.2517C28.268 14.539 30.2851 13.8794 31.329 13.1964C29.806 12.4584 28.1974 12.0719 26.6572 11.4059C28.8769 11.5436 33.3832 12.2274 34.8499 14.2581C32.0983 13.6413 30.084 13.6634 28.5204 16.2517Z" fill="#9F242D"/>
<path d="M43.3325 13.468C45.1023 12.2338 46.5889 10.5917 48.1134 9.0672C46.4862 11.6134 44.5033 14.5882 42.0462 16.4L42.022 16.3757C42.2159 15.9722 42.4184 15.5722 42.601 15.1629C42.8527 14.601 43.0894 14.0327 43.3318 13.4673L43.3325 13.468Z" fill="#9F242D"/>
<path d="M38.0533 22.3566C36.2921 22.8864 33.1669 23.8882 31.4927 22.7481C33.7245 22.8329 35.8293 22.1727 38.0533 22.3566Z" fill="#9D242C"/>
<path d="M38.1263 14.5411C38.152 14.5746 38.1776 14.6081 38.2033 14.6424C36.102 14.6951 36.7052 15.0195 35.4546 13.4908C37.0518 13.324 37.1537 13.2448 38.0529 14.3999L38.0493 14.3942C38.075 14.4434 38.1006 14.4919 38.1263 14.5411Z" fill="#CD362F"/>
<path d="M26.8782 10.4277C26.255 10.7243 21.5555 11.2647 22.6806 12.365C22.3919 12.4063 22.1494 12.3165 21.9548 12.0947C21.589 10.7542 26.4312 10.4954 26.8782 10.4269V10.4277Z" fill="#9D242C"/>
<path d="M21.9468 13.8074C22.3846 13.9821 24.4945 14.5583 24.8688 15.0631C24.1786 15.282 21.9333 14.8556 21.9468 13.8074Z" fill="#EEEEEE"/>
<path d="M48.1307 9.02157C48.1172 8.9795 48.1036 8.93814 48.0894 8.89607C48.1578 8.80552 48.2255 8.71496 48.294 8.62512C48.3247 8.64794 48.3553 8.67004 48.386 8.69286C48.3011 8.80267 48.2156 8.91176 48.1307 9.02157Z" fill="#9F242D"/>
<path d="M41.9657 16.4613C41.9657 16.4855 41.9557 16.497 41.9336 16.4948C41.945 16.4841 41.9564 16.4741 41.9685 16.4634L41.9664 16.4613H41.9657Z" fill="#9F242D"/>
<path d="M41.9689 16.4634C41.9868 16.4342 42.0053 16.405 42.0231 16.3757L42.0474 16.4C42.0203 16.4207 41.9939 16.4406 41.9668 16.4613L41.9689 16.4634Z" fill="#9F242D"/>
<path d="M26.379 11.4024C26.3626 11.3917 26.3455 11.3817 26.3291 11.371C26.3462 11.361 26.3633 11.3503 26.3804 11.3403C26.3783 11.361 26.3776 11.3817 26.3797 11.4024H26.379Z" fill="#9F242D"/>
<path d="M27.0601 24.2633L27.0337 24.2704L27.0373 24.2483L27.0601 24.2633Z" fill="#181717"/>
<path d="M6.33203 51.8575C7.10068 51.0646 8.16951 51.6892 8.79341 51.1352C9.6797 50.3473 9.90002 47.3076 10.166 46.3229C10.4918 45.1144 10.8034 41.7096 11.7674 40.9667C12.5397 40.3706 16.0749 40.6472 17.0324 40.9239C16.1925 42.0205 14.9953 41.162 13.7746 41.4629C11.7382 41.9656 12.0976 41.8487 11.4694 44.1931C10.9653 46.0734 10.6016 48.082 9.93282 49.9088C9.03797 52.353 8.96382 51.8575 6.33274 51.8575H6.33203Z" fill="#C9C9C9"/>
<path d="M16.4158 51.8546C17.2151 51.009 18.3737 51.6314 19.0183 50.9141C19.6992 50.1569 19.9196 48.1162 20.4109 47.1779C21.0975 45.8673 25.0783 38.496 26.5557 38.9388C25.0056 41.9485 22.5635 44.4955 21.0198 47.5002C20.6618 48.1975 20.3253 49.7961 19.8989 50.3844C18.6276 52.1363 19.1773 51.8553 16.415 51.8553L16.4158 51.8546Z" fill="#C9C9C9"/>
<path d="M19.269 45.9664C19.1606 44.9803 17.8778 39.1684 18.8953 38.901C19.5535 38.7277 19.7089 45.0837 19.3674 45.9956C19.3346 45.9856 19.3018 45.9757 19.269 45.9664Z" fill="#C9C9C9"/>
<path d="M9.70113 40.8091C8.72928 41.8943 6.24009 41.7681 4.89746 41.4687C5.61477 40.32 8.55031 40.8091 9.70113 40.8091Z" fill="#C9C9C9"/>
<path d="M52.6991 48.8734C50.2498 48.8734 51.6808 47.237 52.1771 45.4402C52.6891 43.5856 52.3433 41.9842 54.5144 42.0426C56.9052 42.1068 55.5148 43.642 55.02 45.4659C54.503 47.3725 54.8716 48.8734 52.6991 48.8734Z" fill="#191919"/>
<path d="M47.7559 51.2064C49.4764 51.2064 51.1976 51.2036 52.9182 51.2057C55.8216 51.2093 56.345 51.6435 57.15 48.6253C57.667 46.6865 58.1875 44.7485 58.7094 42.8112C59.3183 40.5538 59.3711 40.6279 57.9465 38.9666C61.938 37.9555 58.283 47.0231 57.8894 48.514C57.1579 51.2827 57.3147 51.8603 54.3457 51.8574C52.4711 51.856 49.2725 52.4885 47.7559 51.2064Z" fill="#C8C8C8"/>
<path d="M57.3361 40.9296C56.4748 41.9728 55.5821 41.3382 54.4177 41.5877C51.7167 42.1653 53.4943 40.9574 52.1909 43.2769C51.1164 45.1885 51.7346 48.047 49.9392 49.5023C49.9114 49.4874 49.8843 49.4717 49.8564 49.4567C50.342 47.3768 50.675 43.6576 51.8679 41.9186C52.8177 40.5346 55.4744 40.3998 57.3354 40.9296H57.3361Z" fill="#C9C9C9"/>
<path d="M40.151 48.8734C38.1082 48.8734 38.9097 48.1326 39.3895 46.3572C39.9143 44.4135 39.7382 42.392 41.7183 42.0441C43.7647 41.684 43.1985 42.3221 42.9169 43.8979C42.5568 45.9108 42.4926 48.8734 40.1518 48.8734H40.151Z" fill="#191919"/>
<path d="M45.2353 38.9374C49.3131 38.0896 45.8128 46.447 45.4471 47.8239C44.9052 49.8638 45.0642 51.2378 43.2089 51.8624C41.8227 52.3295 39.2694 52.0186 37.998 51.3405C38.0095 51.2956 38.0216 51.2514 38.033 51.2065C38.9713 51.2065 42.739 51.7534 43.447 51.2143C44.56 50.3665 44.6549 48.129 45.0121 46.7935C45.7893 43.8879 47.6318 41.1192 45.2353 38.9374Z" fill="#C9C9C9"/>
<path d="M42.1921 41.5998C39.2879 41.5998 39.7186 43.3902 39.0099 46.0891C38.9157 46.4463 37.4433 49.6029 37.4248 49.4317C37.2401 47.7661 38.5157 44.1432 39.2416 42.566C40.1257 40.6465 39.2116 41.3995 41.534 40.8889C42.4032 40.6979 44.0845 40.772 44.861 40.9581C44.1016 41.7959 43.2602 41.5991 42.1921 41.5991V41.5998Z" fill="#C9C9C9"/>
<path d="M31.2845 38.8996C30.2926 39.0985 30.5643 49.5772 28.0466 49.8988C28.0188 48.7857 30.7212 38.7898 31.2845 38.8996Z" fill="#C9C9C9"/>
<path d="M35.1428 51.8589C33.0151 51.8589 27.6453 52.8771 26.1465 51.2064C28.4046 51.2064 33.445 50.2118 35.1428 51.8589Z" fill="#C7C7C7"/>
<path d="M15.3477 11.6177C15.1517 11.5164 14.9727 11.4245 14.7944 11.3325C14.9378 11.2234 16.1485 10.5196 16.2925 11.0979C16.1392 11.4644 15.824 11.6377 15.3477 11.6177Z" fill="#D33731"/>
</svg>
