<svg width="64" height="64" viewBox="0 0 64 64" fill="none" xmlns="http://www.w3.org/2000/svg">
<path d="M44.9636 39.1139C44.6838 38.6166 44.4218 38.1525 44.1613 37.6877C42.477 34.6829 40.7936 31.6776 39.1062 28.6746C39.0427 28.5615 39.0381 28.4676 39.0798 28.3489C39.8567 26.1398 40.6301 23.9295 41.4044 21.7195C41.5461 21.315 41.6884 20.9106 41.8302 20.5061C42.4817 18.6476 43.1334 16.7891 43.7844 14.9304C44.062 14.1377 44.3375 13.3442 44.6149 12.5514C44.8009 12.0198 44.9893 11.4889 45.1753 10.9573C45.4526 10.1648 45.7318 9.3729 46.0027 8.5782C46.0498 8.4399 46.05 8.28619 46.091 8.14509C46.1175 8.05379 46.1888 7.9763 46.2228 7.8862C46.4098 7.3896 46.5951 6.8922 46.7742 6.3927C46.9795 5.8201 47.1849 5.2473 47.3755 4.6697C47.4589 4.4169 47.5042 4.1516 47.5701 3.8928C47.5823 3.845 47.6119 3.8018 47.63 3.7552C47.7039 3.5655 47.7762 3.3752 47.8495 3.1853C47.9325 2.9701 48.0133 2.754 48.0999 2.5402C48.1597 2.3922 48.2277 2.2476 48.3037 2.0752C48.5653 2.1749 48.8195 2.2826 49.0808 2.3688C49.4853 2.5022 49.8196 2.7535 50.165 2.9873C50.3316 3.1001 50.4922 3.2217 50.6581 3.3356C51.1943 3.704 51.5846 4.2273 52.0609 4.6599C52.2304 4.8139 52.3514 5.0221 52.49 5.2089C52.6421 5.4139 52.7864 5.6248 52.9394 5.8292C53.0018 5.9125 53.0784 5.9852 53.124 6.0717C53.2197 6.2417 53.2988 6.4245 53.4164 6.5777C53.5094 6.6988 53.6002 6.8087 53.6625 6.9552C53.7556 7.174 53.9157 7.3637 54.0157 7.5803C54.2017 7.9832 54.3674 8.3957 54.5369 8.8062C54.6406 9.0573 54.7211 9.31879 54.8374 9.56369C55.0557 10.0232 55.1258 10.5261 55.2871 11.001C55.3662 11.2339 55.4107 11.4722 55.4759 11.7034C55.5558 11.9865 55.5493 12.276 55.6254 12.5565C55.7028 12.8421 55.7313 13.1418 55.7707 13.4367C55.8106 13.7356 55.8617 14.0358 55.866 14.3361C55.8793 15.2636 55.9111 16.1935 55.861 17.1184C55.8231 17.819 55.6699 18.5133 55.5707 19.2108C55.557 19.3074 55.5823 19.4155 55.5485 19.5023C55.4534 19.7465 55.4722 20.0123 55.3365 20.2576C55.1939 20.5153 55.1418 20.827 55.0727 21.1203C55.0091 21.3902 54.9003 21.6398 54.7961 21.8938C54.7024 22.1222 54.6381 22.3625 54.5468 22.592C54.4962 22.7192 54.4148 22.8339 54.3509 22.956C54.2195 23.207 54.094 23.4611 53.9598 23.7106C53.7452 24.1094 53.5247 24.5051 53.3082 24.903C53.2146 25.0751 53.1302 25.2523 53.0327 25.4221C52.5753 26.2184 52.1152 27.0131 51.6554 27.808C51.1351 28.7076 50.6163 29.6081 50.0924 30.5056C49.7967 31.0122 49.4917 31.5133 49.1917 32.0174C48.8645 32.5671 48.5215 33.1083 48.2159 33.6699C47.8621 34.3201 47.448 34.9331 47.0847 35.5769C46.8564 35.9815 46.6313 36.3881 46.3927 36.7867C46.0956 37.2831 45.7838 37.7708 45.4829 38.265C45.353 38.4784 45.236 38.6997 45.1095 38.9153C45.0737 38.9767 45.0253 39.0308 44.9636 39.1139Z" fill="#FFFF00"/>
<path d="M19.0609 39.1089C19.015 39.0376 18.9832 38.992 18.955 38.9441C16.4257 34.644 13.8858 30.3501 11.375 26.0393C10.6985 24.8778 10.059 23.6887 9.49385 22.4699C8.66575 20.6842 8.25125 18.7812 8.13955 16.8156C7.96485 13.7416 8.53715 10.81 9.84465 8.02408C10.5249 6.57448 11.3919 5.24768 12.5243 4.10718C13.3628 3.26258 14.3058 2.56988 15.4451 2.17728C15.467 2.16968 15.4881 2.15958 15.51 2.15208C15.7435 2.07278 15.7448 2.07248 15.8251 2.30178C17.0331 5.75008 18.2404 9.19858 19.4486 12.6468C20.6722 16.1386 21.8968 19.6301 23.1207 23.1217C23.7364 24.8783 24.3532 26.6345 24.9619 28.3935C24.9888 28.4713 24.9652 28.5894 24.9229 28.6651C23.3642 31.4554 21.8004 34.2429 20.2374 37.0308C19.88 37.6683 19.5232 38.3062 19.1655 38.9436C19.1385 38.9919 19.1065 39.0374 19.0609 39.1089Z" fill="#FFFF00"/>
<path d="M15.8066 52.2562C15.831 51.8615 15.8533 51.487 15.8776 51.1126C15.9527 49.9545 16.029 48.7966 16.1042 47.6385C16.1918 46.2893 16.2802 44.9403 16.3636 43.5908C16.3729 43.44 16.4207 43.343 16.5565 43.2563C17.8135 42.4542 19.0655 41.6442 20.3153 40.8311C20.4076 40.771 20.4923 40.6797 20.5467 40.5837C22.3191 37.4534 24.0874 34.3207 25.8566 31.1886C25.8926 31.1249 25.9324 31.0635 25.99 30.969C28.0054 33.9968 30.0019 36.9963 32.0163 40.0227C34.0314 36.9949 36.026 33.9978 38.039 30.9732C38.084 31.0409 38.1169 31.0841 38.1434 31.131C39.924 34.2823 41.7036 37.4342 43.4873 40.5837C43.5416 40.6797 43.6261 40.771 43.7182 40.8313C44.8489 41.5711 45.9835 42.305 47.1176 43.0397C47.2547 43.1285 47.4012 43.2047 47.5296 43.3044C47.5887 43.3503 47.646 43.4366 47.6509 43.5083C47.7665 45.1754 47.8753 46.843 47.9844 48.5106C48.0613 49.686 48.1367 50.8615 48.2128 52.037C48.2169 52.0999 48.2212 52.1629 48.2274 52.2563C47.9805 52.2563 47.7451 52.2563 47.5097 52.2563C47.0723 52.2563 47.0818 52.2543 46.9874 51.8191C46.8406 51.1418 46.6706 50.4695 46.5268 49.7916C46.3874 49.1344 46.2732 48.4718 46.1397 47.8133C46.0049 47.1484 45.8617 46.4852 45.7186 45.8221C45.6517 45.5121 45.5635 45.2061 45.5101 44.894C45.4838 44.7399 45.3792 44.6818 45.2723 44.6379C44.6332 44.3756 43.9959 44.106 43.3435 43.8808C43.1523 43.8148 42.9114 43.8675 42.6974 43.8962C41.0304 44.1201 39.3643 44.3509 37.698 44.5808C36.434 44.7552 35.1702 44.9316 33.9063 45.1069C33.2916 45.1922 32.6787 45.2987 32.0612 45.352C31.7845 45.3759 31.4981 45.296 31.2169 45.2577C30.1537 45.1128 29.0908 44.966 28.0279 44.8191C27.0167 44.6793 26.0058 44.5377 24.9946 44.3984C23.9718 44.2575 22.9488 44.1185 21.9259 43.9786C21.6386 43.9393 21.3502 43.9063 21.0643 43.8583C20.8851 43.8282 20.7229 43.8313 20.5488 43.9082C20.2012 44.0618 19.8409 44.1862 19.4874 44.3268C19.2262 44.4307 18.9702 44.548 18.7068 44.6455C18.5875 44.6896 18.5371 44.7598 18.5121 44.8798C18.2443 46.1632 17.9721 47.4457 17.7009 48.7284C17.4621 49.8579 17.2238 50.9874 16.9809 52.116C16.9698 52.1674 16.9171 52.2488 16.8818 52.2499C16.5299 52.2601 16.1774 52.2562 15.8066 52.2562Z" fill="#FFFF00"/>
<path d="M40.1384 46.2346C37.4277 50.9054 34.733 55.5488 32.0153 60.2317C29.269 55.5435 26.5433 50.8903 23.7954 46.1993C24.1036 46.2454 24.3661 46.2826 24.6278 46.3243C25.6245 46.4831 26.6209 46.6442 27.6176 46.8029C28.5924 46.9581 29.5674 47.1117 30.5424 47.2655C30.989 47.3359 31.4341 47.4228 31.8833 47.4675C32.1083 47.4899 32.3429 47.4465 32.57 47.412C33.5213 47.2672 34.4715 47.1152 35.4218 46.9646C36.4262 46.8054 37.4304 46.645 38.4347 46.485C38.9575 46.4017 39.4801 46.3179 40.003 46.2354C40.0356 46.2301 40.0698 46.2346 40.1384 46.2346Z" fill="#FFFF00"/>
<path d="M32.0154 21.2236C32.2171 21.5344 32.3967 21.8097 32.5748 22.086C33.9795 24.2657 35.3815 26.4473 36.793 28.6226C36.9088 28.801 36.9101 28.9195 36.7933 29.0968C35.6667 30.807 34.55 32.5236 33.4307 34.2386C32.9972 34.9029 32.5644 35.5677 32.1309 36.232C32.1001 36.2791 32.0653 36.3236 32.018 36.3893C31.9734 36.3291 31.9384 36.2865 31.9085 36.2405C30.3328 33.8259 28.7583 31.4105 27.1795 28.998C27.1093 28.8907 27.1201 28.8191 27.1849 28.7188C28.6545 26.4427 30.121 24.1646 31.5881 21.8869C31.7228 21.678 31.8573 21.4691 32.0154 21.2236Z" fill="#FFFF00"/>
<path d="M9.71143 30.3666C10.0843 30.3666 10.4313 30.3607 10.7776 30.3735C10.8255 30.3753 10.8899 30.4623 10.9129 30.5227C11.233 31.3625 11.5471 32.2045 11.8629 33.0459C12.0422 33.5235 12.2182 34.0025 12.4055 34.477C12.4388 34.5613 12.5073 34.6467 12.5826 34.6972C13.3576 35.2178 14.138 35.7304 14.9144 36.2488C14.9843 36.2955 15.0532 36.3578 15.0959 36.4289C15.8069 37.6119 16.5136 38.7974 17.2211 39.9824C17.2357 40.0069 17.2473 40.0331 17.2838 40.1041C17.0765 39.999 16.902 39.9233 16.7403 39.8264C15.414 39.0313 14.091 38.2308 12.7652 37.4349C11.9898 36.9693 11.2121 36.5076 10.433 36.0482C10.3297 35.9873 10.2746 35.9204 10.2618 35.7935C10.0859 34.0449 9.90393 32.2969 9.72373 30.5487C9.71873 30.4978 9.71683 30.4467 9.71143 30.3666Z" fill="#FFFF00"/>
<path d="M54.3203 30.3665C54.3004 30.593 54.285 30.7995 54.2637 31.0053C54.1329 32.2689 54.0007 33.5323 53.8692 34.7958C53.8344 35.1304 53.7953 35.4647 53.7687 35.8C53.7592 35.9193 53.7056 35.9839 53.607 36.0424C51.7871 37.122 49.9689 38.2045 48.1504 39.2866C47.7304 39.5365 47.3109 39.7873 46.8908 40.0371C46.8677 40.0508 46.8416 40.0594 46.7734 40.0897C46.8078 40.0096 46.8213 39.9646 46.8447 39.9254C47.5368 38.7651 48.2287 37.6047 48.9254 36.4472C48.9739 36.3665 49.0498 36.294 49.1287 36.2412C49.9047 35.7218 50.6849 35.2089 51.4606 34.6891C51.5277 34.6441 51.5932 34.5715 51.6214 34.4973C52.0591 33.3438 52.4906 32.1879 52.9235 31.0325C52.9927 30.8479 53.0579 30.6617 53.1339 30.4799C53.1529 30.4346 53.2059 30.3722 53.2446 30.3713C53.5967 30.363 53.9492 30.3665 54.3203 30.3665Z" fill="#FFFF00"/>
</svg>
