<svg width="64" height="64" viewBox="0 0 64 64" fill="none" xmlns="http://www.w3.org/2000/svg">
<path d="M31.9609 61.7327C28.7401 56.1868 25.5385 50.674 22.3378 45.1626C21.7279 45.4207 21.1377 45.6819 20.539 45.9214C19.1462 46.4784 17.7223 46.9277 16.2369 47.1719C13.8013 47.5724 11.493 47.2075 9.30551 46.0628C7.79915 45.2744 6.43386 44.2802 5.17772 43.1464C3.83111 41.9309 2.535 40.6594 1.21384 39.4155C1.13121 39.3377 1.13682 39.2785 1.17862 39.185C2.38948 36.475 3.79327 33.8673 5.3397 31.3355C6.27043 29.8117 7.25623 28.3249 8.33742 26.9026C8.35871 26.8745 8.37923 26.846 8.41135 26.8025C8.347 26.7702 8.29214 26.7408 8.23563 26.7147C7.58637 26.4142 7.02042 25.9995 6.52549 25.4833C6.43763 25.3917 6.43309 25.3289 6.50295 25.2256C7.23707 24.1395 7.96393 23.0485 8.70115 21.9646C8.78068 21.8477 8.78707 21.7735 8.71595 21.651C6.16748 17.2598 3.62327 12.866 1.07876 8.47249C1.05264 8.42701 1.02971 8.37969 1 8.32328C5.89413 5.50717 11.0653 3.40418 16.5323 2.0029C18.2126 5.15013 19.8863 8.28516 21.5593 11.4187C22.1216 11.1893 22.6659 10.9576 23.2172 10.744C25.3181 9.93037 27.4817 9.34526 29.7061 8.98744C30.1493 8.91613 30.5957 8.86456 31.0387 8.79228C31.1237 8.77844 31.2154 8.72609 31.2772 8.66455C31.4937 8.44926 31.6974 8.2213 31.9077 7.99991C32.5913 7.2804 33.433 6.88581 34.4128 6.75325C35.8842 6.55412 37.3405 6.58053 38.7716 7.01257C39.0276 7.08988 39.2735 7.20667 39.5159 7.3223C40.0929 7.59768 40.4213 8.07054 40.5512 8.68574C40.5749 8.79808 40.6131 8.83863 40.7297 8.85595C41.6119 8.98725 42.4934 9.12446 43.3734 9.27047C43.5059 9.29243 43.5379 9.22605 43.5846 9.13849C44.6576 7.12568 45.7321 5.11365 46.8062 3.10132C47.0002 2.73789 47.1939 2.37427 47.3935 2C52.8611 3.40399 58.0311 5.50969 62.9265 8.32754C52.6047 26.1291 42.2901 43.9183 31.9609 61.7327ZM21.0053 42.1294C21.03 42.1149 21.0576 42.1037 21.079 42.0854C24.2658 39.3573 27.9193 37.6034 32.0434 36.8314C32.2118 36.7998 32.3801 36.7678 32.5562 36.7346C32.1296 34.9914 31.3878 33.4237 30.2894 31.9731C30.3813 33.3618 30.4698 34.6983 30.5589 36.0444C30.5034 36.0488 30.4629 36.054 30.4223 36.055C29.4104 36.0799 28.3984 36.1071 27.3863 36.1258C27.2589 36.1281 27.1972 36.1694 27.1454 36.284C26.968 36.6767 26.7751 37.0623 26.5957 37.4542C26.5482 37.5579 26.4922 37.6068 26.3721 37.6163C25.793 37.662 25.2151 37.7232 24.636 37.769C24.5211 37.7781 24.4531 37.8199 24.3899 37.9119C24.1052 38.3265 23.8145 38.7371 23.5237 39.1474C23.4919 39.1922 23.446 39.2269 23.4066 39.2662C23.4056 39.1695 23.435 39.1007 23.4574 39.0298C23.625 38.499 23.7946 37.9689 23.9552 37.4361C23.9893 37.3231 24.0455 37.2739 24.16 37.2507C24.6292 37.1557 25.0957 37.0468 25.5649 36.9518C25.6829 36.9279 25.7346 36.8812 25.749 36.7574C25.7753 36.5317 25.8227 36.3085 25.8617 36.0843C25.9497 35.5783 26.038 35.0723 26.1285 34.5526C27.0361 34.592 27.9308 34.631 28.845 34.6708C28.5711 33.6121 28.3023 32.5736 28.0309 31.5253C27.9899 31.5458 27.9683 31.5547 27.9486 31.5667C26.9092 32.1931 25.9924 32.9661 25.1899 33.8753C24.0037 35.2192 23.1268 36.7541 22.4448 38.4009C21.9387 39.6226 21.4756 40.862 20.9945 42.0941C20.9907 42.1041 21.0034 42.1207 21.0084 42.1341C20.9999 42.1331 20.9913 42.1321 20.9828 42.1311C20.9849 42.1387 20.9868 42.1462 20.9888 42.1538C20.9943 42.1455 20.9999 42.1375 21.0053 42.1294ZM38.6942 32.3474C38.8216 32.4553 38.9584 32.5541 39.0751 32.6725C40.4501 34.0669 40.9887 35.7624 40.7767 37.6815C40.5412 39.8139 39.4094 41.3038 37.4037 42.1061C36.4423 42.4908 35.4366 42.676 34.4074 42.7118C33.2884 42.7507 32.1672 42.7303 31.0487 42.7772C29.326 42.8495 27.6275 43.1062 25.9662 43.5761C25.4268 43.7287 24.898 43.9183 24.3469 44.0966C25.6293 46.3081 26.8923 48.4857 28.1655 50.6815C28.5842 49.9614 28.9875 49.2676 29.4039 48.5514C30.7433 50.8637 32.0654 53.1463 33.4032 55.4555C40.8491 42.6159 48.2816 29.7998 55.7246 16.9655C54.4104 16.1407 53.0139 15.5035 51.5866 14.9288C50.1555 14.3527 48.6958 13.8596 47.1884 13.459C47.3948 13.1026 47.5888 12.7675 47.7921 12.4162C45.4533 11.6836 43.0861 11.1478 40.6612 10.8057C40.5639 12.2683 40.2519 13.6576 39.7321 14.9938C41.8769 16.5362 43.1608 18.9092 43.3257 20.1005C41.7485 17.919 39.5225 16.6821 37.1081 15.7062C37.6038 14.7395 37.9464 13.733 38.2059 12.697C38.4073 11.8933 38.5609 11.0813 38.5448 10.248C38.527 9.32049 38.2479 8.96635 37.353 8.73413C36.5353 8.52193 35.7064 8.51883 34.8734 8.62537C34.1732 8.71497 33.5078 8.91323 32.9438 9.34758C32.423 9.74875 31.9084 10.1638 31.4322 10.616C30.3703 11.6243 29.4399 12.7534 28.5185 13.8888C28.4822 13.9335 28.4431 13.9761 28.4054 14.0197C28.3836 14.008 28.3619 13.9965 28.3401 13.9849C28.5234 13.4737 28.6846 12.9532 28.8965 12.4541C29.1107 11.9491 29.375 11.4654 29.6347 10.9373C20.7616 12.6682 13.9302 17.4519 8.6785 24.6944C9.16095 24.9666 9.62617 25.1413 10.0888 25.226C10.269 24.9086 10.4065 24.5906 10.6105 24.3233C10.9511 23.8769 11.3138 23.4432 11.7039 23.0398C12.3539 22.3675 13.0622 21.7581 13.8382 21.2315C13.8451 21.2385 13.8521 21.2455 13.8591 21.2524C13.8403 21.2821 13.8229 21.3129 13.8022 21.3413C13.1001 22.3116 12.5671 23.3633 12.296 24.5351C12.2383 24.7844 12.2401 25.0476 12.2125 25.3245C12.4172 25.3124 12.569 25.3192 12.7144 25.2918C13.0667 25.2255 13.4229 25.1664 13.765 25.0628C14.6917 24.7819 15.5038 24.2706 16.3131 23.7558C17.3027 23.1261 18.2763 22.4675 19.2934 21.8853C21.027 20.8928 22.9055 20.4371 24.9092 20.5362C25.023 20.5418 25.1368 20.5517 25.2506 20.5597C24.9263 20.8149 24.5999 21.0349 24.269 21.2478C24.1745 21.3087 24.1367 21.3629 24.1571 21.4892C24.4312 23.1844 23.583 24.5689 21.9488 25.0989C21.7099 25.1764 21.4624 25.2272 21.2161 25.291C21.4559 25.3799 21.696 25.4543 21.9232 25.5574C22.1459 25.6586 22.3628 25.7771 22.5681 25.9099C22.772 26.0419 22.9583 26.2012 23.1522 26.3485C23.1094 26.38 23.0914 26.381 23.0744 26.3772C21.3135 25.9932 19.5357 25.8856 17.7556 26.1741C16.5697 26.3664 15.3968 26.6427 14.2228 26.903C12.9655 27.1817 11.7066 27.3939 10.4124 27.2204C10.3571 27.2129 10.2708 27.2682 10.2336 27.3193C7.96461 30.4441 5.89829 33.6954 4.13116 37.1323C3.86323 37.6533 3.60837 38.1811 3.3475 38.7057C3.34208 38.7179 3.33676 38.7301 3.33134 38.7423C3.34402 38.7373 3.3566 38.7324 3.36927 38.7275C3.60353 38.6376 3.83401 38.5354 4.07281 38.4598C5.34966 38.0562 6.6656 37.9471 7.99528 37.9688C9.02287 37.9856 10.0386 38.0982 11.0244 38.4124C11.1608 38.4559 11.2238 38.5132 11.2283 38.6695C11.2429 39.1723 11.2777 39.6745 11.3049 40.1768C11.3208 40.4718 11.3206 40.4711 11.0577 40.5784C10.9746 40.6123 10.8918 40.6475 10.8118 40.688C9.94442 41.1269 9.53532 42.012 9.80083 42.8885C9.93639 43.3361 10.2007 43.7031 10.55 44.009C11.3024 44.6682 12.2006 45.016 13.1666 45.2011C14.4082 45.4391 15.6262 45.3657 16.7896 44.8358C18.1311 44.2248 19.0063 43.1654 19.5595 41.8324C19.8619 41.1037 20.0915 40.3451 20.3633 39.6034C21.131 37.509 22.0896 35.5116 23.3987 33.6952C25.1893 31.2108 27.4618 29.3335 30.3271 28.2053C30.5579 28.1143 30.792 28.0314 31.0753 27.9258C30.7758 28.4866 30.5022 28.9992 30.2404 29.4894C32.7082 31.9522 34.1147 34.9172 34.7142 38.3138C29.4332 38.5028 24.9082 40.4085 21.1269 44.0636C21.2002 44.0604 21.2657 44.0377 21.3255 44.0047C22.3646 43.4316 23.4316 42.9183 24.5381 42.4872C27.1969 41.4514 29.963 40.9797 32.8054 40.903C33.912 40.8732 35.0023 40.7452 36.0534 40.37C38.0984 39.64 39.2385 38.0703 39.2957 35.9024C39.3266 34.7303 39.0787 33.6069 38.7183 32.5018C38.7019 32.4516 38.7035 32.3956 38.6967 32.3423L38.6942 32.3474ZM3.58292 9.03273C5.72074 12.7198 7.84317 16.3804 9.97151 20.051C10.0096 20.0187 10.0339 20.0023 10.053 19.9813C11.4803 18.4064 13.0339 16.9675 14.713 15.6646C14.7992 15.5977 14.8297 15.5324 14.8136 15.4234C14.7093 14.721 14.7014 14.0178 14.784 13.311C14.9067 12.2597 15.3711 11.4194 16.2399 10.7974C16.8915 10.331 17.601 10 18.3688 9.78484C18.4118 9.77275 18.4528 9.75378 18.5068 9.73346C17.5182 7.88225 16.538 6.04651 15.5564 4.20836C11.3847 5.38903 7.40717 6.98983 3.58292 9.03273ZM56.675 15.3242C57.8935 13.2229 59.1024 11.1381 60.3151 9.04666C60.258 9.01318 60.2231 8.99093 60.1866 8.97157C56.4662 6.99708 52.5837 5.42396 48.5338 4.26467C48.3949 4.2249 48.3273 4.23913 48.2549 4.37566C47.3292 6.12141 46.3963 7.86348 45.4657 9.60661C45.4392 9.65635 45.4176 9.70879 45.3862 9.77604C47.1612 10.1726 48.881 10.6673 50.5742 11.3055C50.3736 11.6552 50.1865 11.9811 49.991 12.3218C52.3096 13.1281 54.5665 14.0357 56.675 15.3242ZM18.674 23.6722C18.7431 23.7171 18.7841 23.7537 18.8321 23.7734C19.8109 24.1739 20.8045 24.2699 21.7979 23.8499C22.5997 23.5109 22.9125 22.6676 22.8152 21.8566C21.2507 22.0201 19.8814 22.6182 18.674 23.6722Z" fill="#111921"/>
<path d="M13.8383 21.2313C13.0624 21.7579 12.354 22.3674 11.704 23.0396C11.3138 23.4431 10.9512 23.8768 10.6106 24.3231C10.4066 24.5904 10.2689 24.9083 10.0888 25.2258C9.62623 25.1411 9.16101 24.9664 8.67856 24.6942C13.9302 17.4517 20.7617 12.6681 29.6348 10.9371C29.3751 11.4653 29.1107 11.949 28.8965 12.4539C28.6847 12.953 28.5236 13.4735 28.3401 13.9847C28.3619 13.9963 28.3837 14.0078 28.4055 14.0195C28.4432 13.9759 28.4823 13.9334 28.5186 13.8886C29.4399 12.7532 30.3704 11.6241 31.4322 10.6158C31.9085 10.1636 32.423 9.74855 32.9439 9.34739C33.5078 8.91313 34.1732 8.71477 34.8735 8.62517C35.7065 8.51864 36.5353 8.52173 37.3531 8.73393C38.248 8.96615 38.5271 9.32029 38.5449 10.2478C38.5609 11.0811 38.4074 11.8931 38.206 12.6968C37.9465 13.7328 37.6039 14.7393 37.1082 15.706C39.5225 16.6819 41.7487 17.9188 43.3258 20.1003C43.1609 18.9089 41.8769 16.5359 39.7321 14.9936C40.252 13.6574 40.564 12.2681 40.6613 10.8055C43.0861 11.1475 45.4533 11.6834 47.7921 12.416C47.5888 12.7673 47.3948 13.1024 47.1885 13.4588C48.6959 13.8594 50.1555 14.3524 51.5867 14.9286C53.014 15.5032 54.4105 16.1404 55.7246 16.9653C48.2817 29.7995 40.8493 42.6157 33.4032 55.4553C32.0656 53.1461 30.7434 50.8635 29.4039 48.5512C28.9876 49.2675 28.5842 49.9612 28.1656 50.6813C26.8922 48.4856 25.6294 46.3079 24.3469 44.0964C24.8981 43.9181 25.4269 43.7285 25.9662 43.5759C27.6275 43.1059 29.326 42.8493 31.0488 42.777C32.1673 42.7301 33.2885 42.7504 34.4075 42.7116C35.4366 42.6758 36.4424 42.4906 37.4038 42.1059C39.4094 41.3036 40.5412 39.8138 40.7767 37.6813C40.9886 35.7622 40.4501 34.0667 39.0752 32.6723C38.9584 32.5539 38.8218 32.4551 38.6942 32.3476C38.6852 32.3459 38.6764 32.344 38.6676 32.3421C38.6696 32.3467 38.6716 32.3515 38.6736 32.3561C38.6812 32.3515 38.6888 32.3467 38.6965 32.3421C38.7033 32.3954 38.7017 32.4514 38.7181 32.5016C39.0785 33.6067 39.3264 34.7301 39.2954 35.9022C39.2382 38.07 38.0981 39.6398 36.0532 40.3698C35.0021 40.745 33.9119 40.8729 32.8051 40.9028C29.9627 40.9795 27.1966 41.4512 24.5379 42.487C23.4314 42.9181 22.3643 43.4314 21.3252 44.0045C21.2654 44.0375 21.2 44.0603 21.1267 44.0634C24.908 40.4083 29.433 38.5026 34.7139 38.3136C34.1145 34.917 32.708 31.952 30.2401 29.4892C30.5019 28.999 30.7756 28.4864 31.0751 27.9256C30.7918 28.0312 30.5578 28.1141 30.3268 28.2051C27.4616 29.3333 25.189 31.2106 23.3985 33.695C22.0893 35.5114 21.1308 37.5088 20.363 39.6032C20.0911 40.3449 19.8616 41.1035 19.5592 41.8322C19.0062 43.1652 18.131 44.2246 16.7894 44.8356C15.6259 45.3654 14.4079 45.4389 13.1664 45.2009C12.2003 45.0157 11.3022 44.668 10.5498 44.0088C10.2006 43.7029 9.93615 43.3359 9.80059 42.8884C9.53508 42.0118 9.94428 41.1267 10.8115 40.6878C10.8916 40.6474 10.9745 40.6121 11.0575 40.5782C11.3204 40.471 11.3206 40.4717 11.3046 40.1766C11.2775 39.6743 11.2427 39.1721 11.2281 38.6693C11.2235 38.513 11.1606 38.4558 11.0241 38.4122C10.0383 38.098 9.02274 37.9853 7.99505 37.9686C6.66537 37.9468 5.34943 38.056 4.07258 38.4596C3.83378 38.5351 3.60339 38.6374 3.36904 38.7273C3.36168 38.72 3.35442 38.7128 3.34717 38.7054C3.60803 38.1808 3.863 37.653 4.13083 37.1321C5.89806 33.6953 7.96428 30.4439 10.2333 27.3191C10.2705 27.268 10.3568 27.2127 10.412 27.2202C11.7062 27.3937 12.9651 27.1816 14.2224 26.9028C15.3964 26.6426 16.5694 26.3662 17.7553 26.1739C19.5353 25.8854 21.3131 25.993 23.0741 26.377C23.0911 26.3807 23.1092 26.3797 23.1519 26.3483C22.9579 26.201 22.7717 26.0417 22.5678 25.9097C22.3626 25.7769 22.1456 25.6584 21.9229 25.5572C21.6957 25.4541 21.4555 25.3797 21.2158 25.2908C21.462 25.2269 21.7096 25.1761 21.9485 25.0987C23.5826 24.5688 24.4308 23.1842 24.1568 21.489C24.1364 21.3627 24.1741 21.3085 24.2687 21.2476C24.5996 21.0347 24.9261 20.8147 25.2503 20.5595C25.1365 20.5515 25.0228 20.5416 24.9088 20.536C22.9051 20.4368 21.0267 20.8925 19.2931 21.8851C18.276 22.4673 17.3025 23.1259 16.3127 23.7556C15.5033 24.2704 14.6913 24.7817 13.7647 25.0626C13.4226 25.1663 13.0662 25.2253 12.714 25.2916C12.5687 25.319 12.417 25.3122 12.2121 25.3243C12.2397 25.0474 12.238 24.7842 12.2957 24.5349C12.5668 23.3632 13.0997 22.3114 13.8019 21.3411C13.8225 21.3127 13.8399 21.2819 13.8588 21.2522C13.8679 21.2417 13.877 21.2312 13.886 21.2207C13.8704 21.2242 13.8544 21.2278 13.8383 21.2313ZM33.8371 14.6947C34.2474 13.0191 35.0858 11.5992 36.4771 10.5119C35.9924 10.4011 35.5384 10.471 35.1001 10.625C33.5366 11.1744 32.3137 12.1798 31.3268 13.4897C31.1559 13.7167 31.0144 13.9659 30.8603 14.2035C31.8652 14.3692 32.8422 14.5305 33.8371 14.6947Z" fill="#FEFEFE"/>
<path d="M3.58301 9.03265C7.40726 6.98975 11.3847 5.38885 15.5565 4.20837C16.538 6.04653 17.5183 7.88217 18.5069 9.73348C18.4529 9.7538 18.4119 9.77286 18.3689 9.78486C17.601 10.0001 16.8916 10.331 16.24 10.7975C15.3712 11.4194 14.9069 12.2598 14.7841 13.311C14.7015 14.0178 14.7094 14.721 14.8137 15.4235C14.8298 15.5324 14.7993 15.5976 14.713 15.6646C13.0339 16.9675 11.4803 18.4063 10.0531 19.9814C10.034 20.0024 10.0097 20.0187 9.9716 20.051C7.84336 16.3803 5.72083 12.7197 3.58301 9.03265Z" fill="#FC5000"/>
<path d="M56.6754 15.3241C54.5669 14.0356 52.3101 13.1281 49.9914 12.3219C50.187 11.9812 50.3739 11.6553 50.5747 11.3056C48.8815 10.6674 47.1617 10.1725 45.3867 9.77611C45.4181 9.70886 45.4396 9.65642 45.4662 9.60668C46.3968 7.86345 47.3297 6.12148 48.2554 4.37573C48.3277 4.2392 48.3954 4.22498 48.5343 4.26475C52.5843 5.42403 56.4666 6.99716 60.1871 8.97165C60.2235 8.991 60.2585 9.01325 60.3156 9.04673C59.1029 11.1381 57.8939 13.2229 56.6754 15.3241Z" fill="#FC5000"/>
<path d="M21.0082 42.1339C21.0032 42.1205 20.9904 42.1039 20.9944 42.0939C21.4755 40.8618 21.9386 39.6224 22.4446 38.4007C23.1268 36.754 24.0036 35.2191 25.1897 33.8752C25.9923 32.9659 26.9091 32.1929 27.9485 31.5666C27.9683 31.5547 27.9899 31.5457 28.0308 31.5251C28.302 32.5734 28.5708 33.6119 28.8449 34.6706C27.9307 34.6309 27.036 34.5919 26.1284 34.5524C26.0378 35.0721 25.9496 35.578 25.8615 36.0841C25.8225 36.3083 25.7751 36.5316 25.7489 36.7573C25.7345 36.881 25.6827 36.9278 25.5648 36.9517C25.0956 37.0468 24.6291 37.1556 24.1599 37.2505C24.0454 37.2738 23.9891 37.3229 23.9551 37.4359C23.7945 37.9688 23.6249 38.4989 23.4572 39.0296C23.4348 39.1005 23.4054 39.1693 23.4064 39.2661C23.4458 39.2267 23.4918 39.192 23.5235 39.1472C23.8143 38.7368 24.1051 38.3263 24.3898 37.9117C24.453 37.8197 24.5209 37.7779 24.6359 37.7688C25.215 37.723 25.7928 37.6619 26.372 37.6161C26.492 37.6066 26.5481 37.5578 26.5956 37.454C26.7749 37.0622 26.9679 36.6766 27.1453 36.2838C27.1969 36.1693 27.2588 36.128 27.3862 36.1256C28.3983 36.1069 29.4102 36.0797 30.4221 36.0548C30.4628 36.0538 30.5033 36.0486 30.5588 36.0442C30.4696 34.6982 30.3812 33.3617 30.2893 31.973C31.3877 33.4236 32.1295 34.9912 32.5561 36.7344C32.38 36.7677 32.2117 36.7996 32.0433 36.8312C27.9191 37.6032 24.2657 39.3571 21.0789 42.0853C21.0574 42.1037 21.0298 42.1148 21.0051 42.1292L21.0082 42.1339Z" fill="#FEFEFE"/>
<path d="M18.6738 23.6722C19.8813 22.6183 21.2506 22.0202 22.815 21.8566C22.9123 22.6676 22.5995 23.5109 21.7977 23.8499C20.8043 24.27 19.8107 24.1739 18.8319 23.7734C18.7839 23.7537 18.7429 23.717 18.6738 23.6722Z" fill="#FC5000"/>
<path d="M3.36903 38.7273C3.35634 38.7323 3.34375 38.7372 3.33105 38.7422C3.33648 38.73 3.34181 38.7177 3.34714 38.7054C3.3544 38.7128 3.36167 38.7201 3.36903 38.7273Z" fill="#FEFEFE"/>
<path d="M21.0062 42.1294C21.0005 42.1377 20.9948 42.146 20.9891 42.1544C20.987 42.1466 20.985 42.1388 20.9829 42.131C20.9917 42.132 21.0005 42.1331 21.0093 42.1341C21.0095 42.1341 21.0062 42.1294 21.0062 42.1294Z" fill="#FEFEFE"/>
<path d="M33.8372 14.6947C32.8424 14.5305 31.8653 14.3692 30.8604 14.2034C31.0145 13.9658 31.156 13.7166 31.3269 13.4896C32.3138 12.1796 33.5367 11.1743 35.1002 10.6249C35.5385 10.4709 35.9925 10.401 36.4772 10.5118C35.0859 11.5992 34.2474 13.0189 33.8372 14.6947Z" fill="#111921"/>
<path d="M13.8384 21.2313C13.8545 21.2278 13.8704 21.2243 13.8865 21.2207C13.8774 21.2312 13.8683 21.2417 13.8593 21.2522C13.8522 21.2453 13.8453 21.2383 13.8384 21.2313Z" fill="#111921"/>
<path d="M38.6973 32.3422C38.6894 32.347 38.6815 32.3519 38.6736 32.3567C38.6716 32.3519 38.6695 32.347 38.6675 32.3422C38.6766 32.3442 38.6857 32.3463 38.6949 32.3479C38.6951 32.3475 38.6973 32.3422 38.6973 32.3422Z" fill="#111921"/>
</svg>
