<svg width="64" height="64" viewBox="0 0 64 64" fill="none" xmlns="http://www.w3.org/2000/svg">
<path d="M16.6544 32.9054C20.5657 27.9432 25.0197 23.4881 29.5472 19.1006C30.3119 18.3585 31.0921 17.633 31.8674 16.9015C31.9209 16.8505 31.9921 16.8184 32.055 16.778C32.0515 16.8232 32.0444 16.8683 32.0444 16.9134C32.0444 23.1022 32.0467 29.2909 32.0467 35.4797C31.2785 36.3275 30.4853 37.1527 29.7479 38.0267C27.6985 40.4561 25.8342 43.0209 24.3998 45.8671C23.8073 47.0438 23.3561 48.2906 22.8408 49.5065C22.8063 49.5885 22.7755 49.6728 22.7268 49.7986C21.1535 49.3593 19.5837 48.9413 18.027 48.4806C15.8375 47.8347 13.6704 47.1222 11.5949 46.158C11.2766 46.0108 11.0391 45.8078 10.8468 45.5073C8.71896 42.2004 7.09458 38.6786 6.26103 34.8207C5.71719 32.3022 5.52365 29.7611 5.80506 27.1916C5.94755 25.8843 6.18147 24.5995 6.61725 23.3551C6.65049 23.2613 6.69443 23.1699 6.73361 23.0784C6.74311 23.0844 6.75499 23.0879 6.76211 23.0962C6.76924 23.1045 6.77161 23.1164 6.77636 23.1271C6.8013 23.7826 6.77636 24.4451 6.85948 25.0923C7.08034 26.8069 7.57073 28.4562 8.21312 30.0592C9.18442 32.4803 10.4775 34.7257 11.9641 36.863C12.3619 37.433 12.7965 37.978 13.2157 38.5373C13.7025 37.6491 14.1312 36.787 14.6346 35.9701C15.2758 34.9299 15.9776 33.9254 16.6532 32.9066L16.6544 32.9054Z" fill="#45A7DD"/>
<path d="M32.0479 35.4785C32.0479 29.2897 32.0455 23.101 32.0455 16.9122C32.0455 16.8671 32.0527 16.822 32.0562 16.7769C33.265 17.9239 34.4857 19.0602 35.6814 20.2215C38.5074 22.9656 41.2812 25.7608 43.8923 28.7115C45.0417 30.0105 46.1294 31.3641 47.2455 32.6929C47.3097 32.77 47.3833 32.8401 47.4521 32.9125C47.4806 32.9719 47.502 33.036 47.5376 33.0906C48.2833 34.2389 49.0492 35.3752 49.7711 36.5377C50.1618 37.167 50.4765 37.8438 50.841 38.5301C50.9396 38.415 51.0357 38.32 51.1117 38.2119C51.8562 37.1444 52.6423 36.1019 53.3322 35C55.0836 32.1977 56.4657 29.2328 57.0796 25.9567C57.2554 25.0222 57.3812 24.0818 57.3005 23.1259C57.3563 23.209 57.4335 23.285 57.4655 23.3777C57.9773 24.8417 58.2374 26.3569 58.3359 27.8981C58.7408 34.2495 56.7317 39.9158 53.42 45.2176C53.0971 45.7341 52.6969 46.0749 52.146 46.316C49.3888 47.52 46.5153 48.3761 43.6216 49.1717C42.8699 49.3783 42.1148 49.5718 41.3619 49.7713C41.0971 49.0826 40.862 48.4105 40.5842 47.7563C39.2412 44.6025 37.3616 41.7753 35.2195 39.1203C34.209 37.8688 33.1071 36.6908 32.0467 35.4797L32.0479 35.4785Z" fill="#EE3342"/>
<path d="M24.1612 5.72805H30.1789C30.7905 3.84363 31.3972 1.97584 32.0396 0C32.6796 1.96516 33.29 3.84126 33.9062 5.73398H39.9228C39.6497 5.93466 39.4478 6.08546 39.2436 6.23388C37.9244 7.19449 36.6076 8.15986 35.2812 9.11097C35.1019 9.23921 35.0675 9.34489 35.1352 9.5515C35.7123 11.2994 36.2775 13.052 36.8462 14.8022C36.8593 14.8438 36.8688 14.8865 36.8937 14.9827C36.7584 14.8936 36.661 14.8355 36.5684 14.769C35.1376 13.73 33.7044 12.6934 32.283 11.6437C32.0871 11.4988 31.9731 11.5167 31.7867 11.6532C30.2811 12.7611 28.7659 13.8558 27.1807 15.0076C27.2377 14.8165 27.2698 14.6965 27.3078 14.5778C27.8469 12.9119 28.3788 11.2447 28.9322 9.58355C29.0129 9.34132 28.9654 9.22971 28.7683 9.08722C27.3137 8.0423 25.8687 6.98432 24.4212 5.92991C24.3583 5.88478 24.2989 5.8361 24.1612 5.72923V5.72805Z" fill="#FDFCFC"/>
<path d="M57.3017 23.1247C57.3812 24.0806 57.2554 25.021 57.0808 25.9555C56.4657 29.2328 55.0848 32.1965 53.3334 34.9988C52.6447 36.1007 51.8586 37.1432 51.1129 38.2107C51.0369 38.3188 50.9419 38.4138 50.8422 38.529C50.4765 37.8426 50.1618 37.167 49.7723 36.5365C49.0504 35.3728 48.2845 34.2377 47.5388 33.0894C47.5032 33.0348 47.4818 32.9707 47.4533 32.9113C49.7878 31.5981 51.9251 30.0271 53.7822 28.0893C55.1311 26.6822 56.2817 25.1338 57.1509 23.3836C57.1948 23.2933 57.2518 23.2102 57.3017 23.1235V23.1247Z" fill="#A82023"/>
<path d="M16.6544 32.9054C15.9788 33.9254 15.277 34.9287 14.6358 35.9689C14.1323 36.7858 13.7037 37.6491 13.2168 38.5361C12.7965 37.9768 12.3619 37.4318 11.9653 36.8618C10.4775 34.7257 9.18442 32.4791 8.21431 30.058C7.57192 28.455 7.08152 26.8069 6.86067 25.0911C6.77755 24.4428 6.80248 23.7814 6.77755 23.1259C7.34631 24.0592 7.85809 25.0353 8.49572 25.9199C10.5072 28.7103 13.1171 30.8405 16.0631 32.58C16.2566 32.694 16.4585 32.7973 16.6556 32.9054H16.6544Z" fill="#1782C5"/>
<path d="M27.1119 59.5579C25.0054 60.192 22.9049 60.3226 20.6738 60.1623C20.8649 61.4411 21.0514 62.6855 21.2473 64C21.0122 63.6842 20.7878 63.4194 20.6037 63.1284C20.0456 62.2426 19.6657 61.2761 19.3747 60.2739C19.3106 60.0531 19.2168 59.9414 18.9686 59.9141C18.61 59.8761 18.2562 59.7859 17.9059 59.698C17.7931 59.6695 17.6732 59.5995 17.5948 59.5152C15.7876 57.5571 14.7379 55.2476 14.4078 52.608C14.4054 52.5867 14.4149 52.5653 14.428 52.4988C16.2934 53.0486 17.938 54.0187 19.5707 55.0921C19.8651 54.2573 20.1537 53.4357 20.4434 52.614C20.4767 52.6163 20.5099 52.6187 20.5431 52.6199C20.6061 53.4748 20.7236 54.331 20.7141 55.1847C20.7082 55.7333 20.9053 56.0266 21.3435 56.3187C23.0296 57.4443 24.6991 58.5902 26.5965 59.3477C26.7521 59.4095 26.9076 59.4748 27.1119 59.5579Z" fill="#FCFCFB"/>
<path d="M36.0293 59.5496C38.7247 58.5783 40.9155 56.8969 43.1917 55.3592C44.8161 54.2609 46.482 53.2397 48.3569 52.6104C48.4531 52.5783 48.5505 52.5475 48.6479 52.5178C48.668 52.5118 48.6918 52.5202 48.7927 52.5297C48.6621 53.153 48.5552 53.7729 48.3985 54.3808C47.9176 56.2439 47.0081 57.8801 45.7458 59.3276C45.5416 59.5615 45.3136 59.6933 45.0097 59.7586C42.1171 60.3855 39.2341 60.4223 36.3606 59.6505C36.2739 59.6268 36.1884 59.5971 36.0305 59.5484L36.0293 59.5496Z" fill="#FCFCFC"/>
<path d="M5 18.362C5 16.8897 6.18622 15.7034 7.65385 15.707C9.12149 15.7106 10.3113 16.9015 10.3101 18.3668C10.3101 19.8261 9.10368 21.0313 7.64792 21.0278C6.18503 21.0242 5 19.8309 5 18.362Z" fill="#FDFCFC"/>
<path d="M59.0887 18.3751C59.0863 19.8392 57.8859 21.0373 56.4277 21.029C54.9684 21.0207 53.7751 19.8166 53.7786 18.3549C53.7822 16.892 54.9827 15.7011 56.4479 15.707C57.9191 15.7141 59.0911 16.8968 59.0899 18.3739L59.0887 18.3751Z" fill="#FDFCFC"/>
</svg>
