<svg width="688" height="233" viewBox="0 0 688 233" fill="none" xmlns="http://www.w3.org/2000/svg">
<path d="M39.8125 129.801L74.6623 96.4709L77.1014 107.737C78.0149 110.149 77.1473 113.553 75.128 115.484L38.2289 150.774L45.9603 148.243L57.6703 179.597L94.582 144.295L97.0983 155.762C98.0104 158.173 97.1444 161.575 95.1219 163.509L64.7612 192.546C60.576 196.548 55.704 198.278 51.3898 197.296C47.5359 196.416 44.501 193.501 42.8452 189.09L31.9168 159.979C28.4696 150.799 32.0108 137.262 39.8125 129.801Z" fill="white"/>
<path d="M111.066 72.0004L155.589 44.343L157.144 54.8899C157.543 57.4554 155.985 60.6272 153.59 62.1149L109.47 89.522L109.474 89.5197L104.468 92.6295L112.281 91.8039L112.273 91.7494L113.515 98.6798L141.765 81.1307C146.721 78.0521 151.885 77.3508 155.931 79.2086C159.544 80.8631 161.932 84.3533 162.659 89.0276L163.302 93.9867C164.822 103.765 158.515 116.405 149.243 122.165L106.69 148.598L104.847 138.145C104.448 135.58 106.008 132.407 108.401 130.92L147.571 106.588C148.212 106.19 148.634 105.258 148.556 104.754L147.292 94.7213L118.667 112.503C113.713 115.581 108.551 116.281 104.502 114.427C100.889 112.773 98.5013 109.283 97.7718 104.605L96.4322 97.1716C94.9169 87.3958 101.796 77.7589 111.066 72.0004Z" fill="white"/>
<path d="M238.912 29.0438L239.012 33.8933C239.224 44.1497 232.41 55.605 223.79 59.4809C224.226 59.2846 190.603 74.402 189.457 74.9171L189.574 79.3284L189.757 85.8242L235 65.4827C236.842 64.6542 238.373 65.7604 238.419 67.9523L237.804 79.6991L172.802 108.925L172.308 85.0641C172.096 74.8077 178.91 63.3524 187.53 59.4765C187.032 59.7007 220.871 44.486 221.951 44.0006C222.33 43.8304 222.633 43.3262 222.622 42.874L222.559 33.9309C222.55 33.4807 222.235 33.2518 221.854 33.4229L174.28 54.8126L174.121 52.9746L173.692 39.6239L222.919 17.4912C231.54 13.6152 238.698 18.7883 238.912 29.0438Z" fill="white"/>
<path d="M412.053 12.4917C410.63 12.4064 409.124 12.5431 407.528 12.8915C405.931 13.2399 404.324 13.76 402.706 14.4416C401.078 15.1232 399.59 16.2192 398.243 17.7499L379.143 38.26L363.625 14.723C362.48 12.9825 361.171 11.6353 359.69 10.6815C358.208 9.72758 356.726 8.94537 355.254 8.32477C353.781 7.70416 352.349 7.31594 350.966 7.15003C349.583 6.98412 348.452 6.8695 347.584 6.79609L344.343 6.51327L339.062 67.7624L354.084 69.0819L357.71 27.004L377.872 53.9587L401.968 30.8892L400.155 51.9282L398.342 72.9671L413.364 74.2866L416 43.6519L418.635 13.0172L415.496 12.7448C414.617 12.6714 413.467 12.587 412.053 12.5018L412.053 12.4917ZM458.587 21.5543C456.883 20.9834 455.157 20.6852 453.42 20.6696C451.683 20.6642 450.036 20.9721 448.489 21.6337C446.932 22.2953 445.545 23.3108 444.319 24.6905C443.093 26.0701 442.087 27.8947 441.323 30.1745L433.515 53.184L425.708 76.1934L426.566 76.4789C428.381 77.0905 430.228 77.379 432.107 77.3546C433.985 77.3302 435.693 77.0124 437.229 76.3911C438.908 75.7299 440.325 74.7245 441.49 73.3649C442.646 72.0053 443.723 69.878 444.701 66.9728L447.698 58.1462L476.044 67.6466L468.298 90.4543L482.703 95.3365L502.7 36.4258L458.598 21.5543L458.587 21.5543ZM480.508 54.4724L452.162 44.9619L455.638 34.7232L483.974 44.2437L480.498 54.4724L480.508 54.4724ZM556.03 65.0397L533.975 107.009L510.475 94.4946C510.475 94.4946 500.404 89.0908 495.636 86.6321C492.822 91.9652 493.432 93.7747 494.743 97.4242C496.045 101.074 498.782 104.001 502.936 106.215L527.091 119.075C528.925 120.05 530.812 120.733 532.749 121.092C534.687 121.462 536.535 121.448 538.293 121.059C540.052 120.671 541.69 119.909 543.198 118.782C544.706 117.656 546.024 116.014 547.162 113.857L569.136 71.998L556.04 65.0296L556.03 65.0397ZM607.878 163.478L631.444 135.65C634.15 132.458 635.1 129.088 634.283 125.551C633.466 122.014 631.295 118.735 627.75 115.735L598.794 91.217C597.173 89.8486 595.48 88.783 593.695 88.0302C591.91 87.2773 590.134 86.8678 588.346 86.8117C586.559 86.7556 584.852 87.0835 583.213 87.7953C581.575 88.5071 580.179 89.553 579.013 90.9328L555.447 118.76C554.17 120.261 553.347 121.854 552.968 123.519C552.59 125.184 552.574 126.9 552.922 128.648C553.27 130.397 553.961 132.105 554.966 133.775C555.981 135.434 557.289 136.953 558.91 138.321L587.866 162.839C589.538 164.248 591.261 165.395 593.035 166.249C594.81 167.113 596.565 167.603 598.302 167.719C600.038 167.846 601.705 167.589 603.313 166.957C604.921 166.326 606.439 165.17 607.878 163.478ZM597.124 153.568L566.83 127.915L589.969 100.591L620.264 126.244L597.124 153.568ZM682.253 172.587C677.071 166.674 650.809 136.67 650.809 136.67L604.361 177.342L614.353 188.754L650.837 156.806C650.837 156.806 668.657 177.16 670.196 178.921C671.062 179.904 671.915 181.492 671.789 183.006C671.684 184.197 670.822 185.346 669.86 186.181L665.506 189.995C664.544 190.84 663.3 191.543 662.098 191.488C660.584 191.413 659.123 190.358 658.268 189.376C656.728 187.614 643.959 173.033 643.959 173.033C643.959 173.033 637.758 208.7 637.224 211.779C636.699 214.857 636.501 216.896 638.342 219.012C640.193 221.129 650.185 232.531 650.185 232.531C650.185 232.531 654.047 205.308 654.358 202.754C656.776 204.61 660.366 206.045 664.062 206.198C668.192 206.372 671.265 205.362 679.122 198.479C683.973 194.233 686.844 190.041 687.21 185.922C687.733 180.208 684.286 174.936 682.243 172.607L682.253 172.587Z" fill="white"/>
</svg>
