<svg width="981" height="977" viewBox="0 0 981 977" fill="none" xmlns="http://www.w3.org/2000/svg">
<path d="M333 850.987C322.376 842.411 304 837.82 294 838.487C297.5 859.653 305.5 904.386 309.5 913.986C314.5 925.986 322 929.986 333 933.486C344 936.986 373 934.986 366.5 929.986C354.715 920.921 348.5 863.499 333 850.987Z" fill="black"/>
<path d="M391.582 870.435C379.755 863.615 360.888 861.937 351.113 864.15C357.861 884.515 372.719 927.461 378.162 936.322C384.967 947.399 392.998 950.184 404.408 951.931C415.819 953.679 444.155 947.195 436.957 943.266C423.906 936.143 408.839 880.385 391.582 870.435Z" fill="black"/>
<path d="M452.974 882.608C440.217 877.742 421.322 879.065 412.02 882.795C421.9 901.838 443.355 941.898 450.13 949.788C458.599 959.651 466.969 961.132 478.512 961.055C490.055 960.978 517.012 950.099 509.283 947.357C495.271 942.385 471.585 889.707 452.974 882.608Z" fill="black"/>
<path d="M514.918 883.365C501.512 880.785 483.132 885.365 474.618 890.652C487.652 907.693 515.729 943.424 523.77 950.019C533.822 958.264 542.322 958.271 553.677 956.193C565.031 954.115 589.692 938.725 581.605 937.365C566.943 934.899 534.48 887.128 514.918 883.365Z" fill="black"/>
<path d="M576.116 874.859C562.497 873.893 544.793 880.626 536.968 886.887C551.935 902.258 584.062 934.396 592.831 939.989C603.791 946.979 612.232 945.976 623.259 942.563C634.286 939.149 656.942 920.936 648.751 920.548C633.899 919.842 595.986 876.27 576.116 874.859Z" fill="black"/>
<path d="M636.253 856.946C622.686 858.473 606.503 868.316 599.947 875.896C617.461 888.287 654.9 914.043 664.54 917.947C676.589 922.827 684.706 920.305 694.928 914.942C705.15 909.579 724.114 887.548 715.989 888.656C701.257 890.664 656.048 854.718 636.253 856.946Z" fill="black"/>
<path d="M693.066 829.717C679.833 833.078 665.142 845.033 659.68 853.437C678.719 863.325 719.318 883.741 729.399 886.295C742.001 889.487 749.699 885.883 759.095 879.177C768.491 872.471 784.277 848.062 776.378 850.267C762.057 854.264 712.372 824.812 693.066 829.717Z" fill="black"/>
<path d="M742.986 795.163C730.506 800.698 718.03 814.95 714.057 824.151C734.486 830.703 777.936 844.012 788.303 844.837C801.262 845.869 808.246 841.023 816.382 832.835C824.519 824.647 835.982 797.934 828.566 801.433C815.12 807.778 761.195 787.086 742.986 795.163Z" fill="black"/>
<path d="M788.383 749.695C776.981 757.205 767.016 773.313 764.609 783.042C785.836 786.148 830.883 792.139 841.245 791.25C854.197 790.139 860.289 784.212 866.971 774.798C873.652 765.385 880.571 737.151 873.83 741.822C861.609 750.289 805.018 738.737 788.383 749.695Z" fill="black"/>
<path d="M825.101 701.091C814.822 710.076 807.131 727.386 806.063 737.351C827.516 737.553 872.958 737.387 883.104 735.102C895.787 732.246 901.02 725.549 906.365 715.317C911.709 705.085 914.74 676.175 908.694 681.715C897.732 691.76 840.098 687.98 825.101 701.091Z" fill="black"/>
<path d="M856.131 645.985C847.778 656.785 843.571 675.253 844.446 685.237C865.535 681.297 910.092 672.367 919.606 668.168C931.5 662.919 935.343 655.337 938.613 644.267C941.883 633.196 939.279 604.244 934.416 610.847C925.598 622.818 868.317 630.228 856.131 645.985Z" fill="black"/>
<path d="M875.206 588.191C868.55 600.112 867.133 619 869.481 628.743C889.751 621.714 932.487 606.266 941.272 600.7C952.254 593.743 954.928 585.675 956.518 574.241C958.107 562.808 951.233 534.563 947.404 541.815C940.462 554.963 884.917 570.799 875.206 588.191Z" fill="black"/>
<path d="M886.582 524.77C881.704 537.522 883.011 556.418 886.732 565.723C905.784 555.86 945.863 534.441 953.759 527.673C963.629 519.213 965.119 510.844 965.052 499.301C964.985 487.758 954.13 460.792 951.381 468.518C946.397 482.526 893.697 506.164 886.582 524.77Z" fill="black"/>
<path d="M887.984 463.12C884.757 476.386 888.439 494.966 893.306 503.727C910.96 491.536 948.012 465.226 954.99 457.515C963.713 447.876 964.133 439.386 962.609 427.944C961.085 416.501 946.911 391.122 945.159 399.134C941.984 413.659 892.693 443.764 887.984 463.12Z" fill="black"/>
<path d="M879.823 403.69C878.933 417.314 885.766 434.98 892.071 442.77C907.357 427.716 939.314 395.408 944.857 386.608C951.785 375.608 950.735 367.174 947.259 356.166C943.783 345.158 925.443 322.605 925.1 330.799C924.479 345.654 881.121 383.813 879.823 403.69Z" fill="black"/>
<path d="M860.923 340.22C862.102 353.822 871.526 370.252 878.936 377C891.771 359.809 918.479 323.042 922.629 313.506C927.816 301.586 925.502 293.407 920.403 283.05C915.304 272.694 893.766 253.172 894.665 261.323C896.296 276.102 859.203 320.374 860.923 340.22Z" fill="black"/>
<path d="M833.975 284.572C837.477 297.768 849.588 312.332 858.049 317.703C867.734 298.56 887.716 257.746 890.163 247.638C893.221 235.003 889.535 227.344 882.73 218.02C875.924 208.696 851.348 193.171 853.637 201.046C857.786 215.323 828.865 265.319 833.975 284.572Z" fill="black"/>
<path d="M799.522 234.549C804.851 247.119 818.896 259.827 828.03 263.952C834.917 243.633 848.94 200.408 849.936 190.056C851.18 177.115 846.45 170.053 838.397 161.783C830.344 153.512 803.823 141.611 807.2 149.084C813.323 162.633 791.746 216.209 799.522 234.549Z" fill="black"/>
<path d="M278.187 821.468C269.024 811.347 251.583 803.958 241.601 803.064C241.772 824.517 242.729 869.95 245.19 880.055C248.266 892.686 255.054 897.802 265.378 902.967C275.701 908.132 304.66 910.659 299.015 904.711C288.78 893.926 291.556 836.235 278.187 821.468Z" fill="black"/>
<path d="M229.261 782.921C222.128 771.28 206.354 760.794 196.709 758.07C192.91 779.185 185.451 824.011 186.001 834.397C186.689 847.379 192.414 853.661 201.604 860.647C210.794 867.632 238.786 875.47 234.338 868.58C226.275 856.089 239.67 799.905 229.261 782.921Z" fill="black"/>
<path d="M185.164 738.477C179.412 726.095 164.944 713.87 155.675 710.058C149.481 730.599 136.932 774.274 136.288 784.654C135.483 797.63 140.45 804.527 148.779 812.52C157.108 820.512 184.017 831.508 180.388 824.153C173.81 810.82 193.557 756.543 185.164 738.477Z" fill="black"/>
<path d="M149.081 687.703C145.527 674.521 133.359 660.005 124.877 654.666C115.267 673.847 95.4441 714.738 93.037 724.856C90.0283 737.503 93.7445 745.148 100.586 754.445C107.428 763.742 132.064 779.171 129.745 771.305C125.54 757.044 154.265 706.936 149.081 687.703Z" fill="black"/>
<path d="M122.246 630.951C120.835 617.372 111.131 601.105 103.607 594.484C91.0672 611.892 64.9912 649.109 61.0052 658.715C56.0226 670.722 58.4753 678.861 63.7506 689.128C69.0259 699.396 90.894 718.547 89.8555 710.413C87.9728 695.664 124.305 650.765 122.246 630.951Z" fill="black"/>
<path d="M104.361 570.604C105.239 556.979 98.3904 539.319 92.0779 531.535C76.8058 546.603 44.8777 578.939 39.3427 587.744C32.4239 598.75 33.4822 607.184 36.9677 618.188C40.4532 629.193 58.8137 651.729 59.1491 643.535C59.7572 628.68 103.081 590.482 104.361 570.604Z" fill="black"/>
<path d="M93.6293 511.375C96.2903 497.984 91.8219 479.577 86.5874 471.031C69.4673 483.96 33.5661 511.82 26.9218 519.821C18.6165 529.822 18.5571 538.322 20.566 549.689C22.5749 561.056 37.8141 585.81 39.2235 577.732C41.7788 563.085 89.7468 530.913 93.6293 511.375Z" fill="black"/>
<path d="M347.091 118.322C360.665 116.864 376.899 107.104 383.493 99.5565C366.041 87.0774 328.734 61.1308 319.114 57.1782C307.09 52.2374 298.96 54.7183 288.711 60.0293C278.462 65.3402 259.386 87.2747 267.517 86.208C282.259 84.274 327.285 120.45 347.091 118.322Z" fill="black"/>
<path d="M291.935 146.035C305.118 142.484 319.637 130.319 324.977 121.839C305.798 112.224 264.911 92.3931 254.793 89.9841C242.147 86.9727 234.502 90.6874 225.203 97.5272C215.904 104.367 200.47 129 208.337 126.683C222.598 122.48 272.701 151.216 291.935 146.035Z" fill="black"/>
<path d="M239.943 180.876C252.4 175.288 264.814 160.982 268.748 151.764C248.291 145.3 204.784 132.177 194.414 131.396C181.45 130.421 174.488 135.296 166.386 143.519C158.285 151.742 146.936 178.504 154.337 174.973C167.756 168.57 221.769 189.031 239.943 180.876Z" fill="black"/>
<path d="M195.639 224.175C206.937 216.51 216.682 200.268 218.958 190.508C197.689 187.69 152.566 182.312 142.217 183.342C129.281 184.629 123.27 190.639 116.717 200.142C110.164 209.646 103.63 237.971 110.306 233.209C122.411 224.576 179.154 235.358 195.639 224.175Z" fill="black"/>
<path d="M158.417 273.49C168.723 264.536 176.468 247.25 177.567 237.289C156.114 237.02 110.672 237.045 100.519 239.299C87.8274 242.115 82.5733 248.797 77.1972 259.012C71.8211 269.227 68.7009 298.128 74.764 292.606C85.7566 282.595 143.379 286.554 158.417 273.49Z" fill="black"/>
<path d="M128.601 328.702C137.106 318.022 141.577 299.616 140.844 289.621C119.701 293.26 75.0214 301.553 65.4479 305.616C53.481 310.695 49.5304 318.221 46.1027 329.244C42.675 340.267 44.8655 369.253 49.8227 362.72C58.8103 350.876 116.191 344.284 128.601 328.702Z" fill="black"/>
<path d="M107.726 388.144C114.698 376.405 116.619 357.562 114.531 347.759C94.081 354.245 50.9479 368.549 42.0172 373.878C30.8539 380.54 27.9655 388.534 26.0716 399.921C24.1777 411.308 30.2969 439.725 34.3179 432.578C41.6079 419.62 97.5552 405.271 107.726 388.144Z" fill="black"/>
<path d="M96.9052 447.885C101.807 435.142 100.536 416.244 96.8329 406.931C77.7619 416.758 37.6427 438.1 29.7335 444.854C19.8471 453.295 18.3419 461.661 18.3867 473.204C18.4315 484.747 29.2351 511.734 31.9989 504.013C37.0099 490.015 89.754 466.477 96.9052 447.885Z" fill="black"/>
<path d="M406.709 100.391C420.346 101.058 437.897 93.9372 445.583 87.5052C430.281 72.4677 397.455 41.0433 388.566 35.645C377.454 28.8971 369.038 30.0856 358.088 33.7408C347.139 37.396 324.889 56.1027 333.087 56.3114C347.95 56.6897 386.813 99.4176 406.709 100.391Z" fill="black"/>
<path d="M468.555 93.0062C481.833 96.1832 500.399 92.4303 509.142 87.5304C496.884 69.9229 470.434 32.9707 462.696 26.0219C453.024 17.3358 444.533 16.9477 433.097 18.5153C421.66 20.0829 396.335 34.353 404.353 36.0739C418.89 39.194 449.182 88.3708 468.555 93.0062Z" fill="black"/>
<path d="M531.164 93.2044C543.99 97.8826 562.863 96.2827 572.11 92.4172C561.952 73.5207 539.912 33.7801 533.022 25.99C524.409 16.2525 516.019 14.8935 504.478 15.1398C492.937 15.386 466.143 26.659 473.911 29.2877C487.994 34.0536 512.45 86.3787 531.164 93.2044Z" fill="black"/>
<path d="M592.589 103.547C604.428 110.347 623.298 111.993 633.069 109.763C626.286 89.4096 611.356 46.4892 605.897 37.637C599.074 26.5718 591.039 23.8 579.625 22.0719C568.212 20.3439 539.886 26.876 547.091 30.7925C560.154 37.8933 575.315 93.6259 592.589 103.547Z" fill="black"/>
<path d="M651.709 124.657C662.316 133.253 680.683 137.881 690.684 137.234C687.226 116.061 679.315 71.3116 675.334 61.7037C670.358 49.6938 662.866 45.6789 651.873 42.1571C640.88 38.6353 611.876 40.5777 618.366 45.5906C630.133 54.6792 636.234 112.114 651.709 124.657Z" fill="black"/>
<path d="M707.05 154.642C716.071 164.89 733.407 172.522 743.376 173.555C743.504 152.102 743.181 106.66 740.862 96.5219C737.962 83.8494 731.247 78.6391 720.997 73.3299C710.747 68.0207 681.826 65.0895 687.387 71.1164C697.47 82.0433 693.888 139.69 707.05 154.642Z" fill="black"/>
<path d="M756.545 188.897C764.141 200.242 780.323 210.086 790.07 212.421C793.017 191.17 798.67 146.08 797.703 135.725C796.494 122.781 790.521 116.734 781.058 110.123C771.595 103.513 743.31 96.806 748.031 103.511C756.59 115.669 745.463 172.345 756.545 188.897Z" fill="black"/>
</svg>
