<svg width="257" height="79" viewBox="0 0 257 79" fill="none" xmlns="http://www.w3.org/2000/svg">
<path d="M94.9866 21.922C94.9866 13.7208 101.635 7.07302 109.836 7.07302H146.074V21.9337H111.97V32.222H143.835V45.4111H111.97V56.0497H146.074V70.9104H109.847C101.64 70.9104 94.9866 64.2563 94.9866 56.0506V21.922V21.922ZM203.047 51.5576C203.042 40.8774 194.382 32.2211 183.702 32.2211H168.332V21.9337H199.974V7.07302H170.518C159.931 7.07302 151.349 15.6553 151.349 26.2416C151.349 36.8279 159.931 45.4111 170.518 45.4111H186.064V56.0497H154.42V70.9104H183.702C194.39 70.9104 203.051 62.2442 203.047 51.5576ZM223.981 70.9104H256.158V56.0497H226.104V7.07392H209.121V56.0506C209.121 64.2563 215.774 70.9104 223.981 70.9104ZM78.1101 39.1335C78.1101 60.6592 60.6602 78.1092 39.1336 78.1092C17.6079 78.1092 0.157959 60.6592 0.157959 39.1335C0.157959 17.6078 17.6079 0.156982 39.1336 0.156982C60.6602 0.156982 78.1101 17.6078 78.1101 39.1335ZM14.3982 59.4138L59.4139 14.3982C54.2499 10.159 47.7339 7.50832 40.6111 7.1841L10.9538 54.2769C11.9373 56.1021 13.0914 57.8216 14.3982 59.4138ZM24.1528 67.3955L71.0884 37.8376C70.804 30.7021 68.1849 24.1689 63.9692 18.9806L18.9806 63.9682C20.5837 65.2705 22.3149 66.4202 24.1528 67.3955ZM70.3949 45.9105L31.7416 70.2521C52.1456 74.792 67.5121 60.3621 70.3949 45.9105Z" fill="white"/>
</svg>
