<svg width="32" height="32" viewBox="0 0 32 32" fill="none" xmlns="http://www.w3.org/2000/svg">
<g clip-path="url(#clip0_260_131)">
<path d="M23.71 2.58H8.28999C7.18999 2.58 6.29999 3.51 6.29999 4.67V27.33C6.29999 28.48 7.18999 29.42 8.28999 29.42H23.71C24.81 29.42 25.7 28.49 25.7 27.33V4.67C25.7 3.52 24.81 2.58 23.71 2.58ZM15.78 6.38C15.11 6.38 14.57 5.81 14.57 5.11C14.57 4.41 15.11 3.84 15.78 3.84C16.45 3.84 16.99 4.41 16.99 5.11C16.99 5.81 16.45 6.38 15.78 6.38Z" fill="url(#paint0_linear_260_131)"/>
<path d="M23.67 2.66H8.39998C7.30998 2.66 6.41998 3.59 6.41998 4.73V27.24C6.41998 28.38 7.29998 29.31 8.38998 29.31H23.66C24.75 29.31 25.63 28.38 25.63 27.24V4.73C25.63 3.59 24.75 2.66 23.66 2.66H23.67ZM15.81 6.44C15.15 6.44 14.61 5.88 14.61 5.18C14.61 4.48 15.15 3.92 15.81 3.92C16.47 3.92 17.01 4.48 17.01 5.18C17.01 5.88 16.47 6.44 15.81 6.44Z" fill="url(#paint1_linear_260_131)"/>
<path d="M6.37 27.36C6.37 28.45 7.22 29.33 8.28 29.33H23.69C24.74 29.33 25.6 28.45 25.6 27.36V17.6H6.37V27.36Z" fill="#44CCDB"/>
<path d="M23.65 2.71H8.38C7.29 2.71 6.41 3.59 6.41 4.68V5.58H14.64C14.57 5.41 14.54 5.25 14.54 5.07C14.54 4.38 15.1 3.82 15.79 3.82C16.48 3.82 17.04 4.38 17.04 5.07C17.04 5.25 17 5.41 16.94 5.56H25.63V4.68C25.63 3.59 24.75 2.71 23.66 2.71H23.65Z" fill="#44CCDB"/>
<path d="M20.54 29.12H22.03L22.92 27.26H21.44L20.54 29.12Z" fill="#ECE2CC"/>
<path d="M9.17001 29.12H9.56001L10.45 27.26H10.06L9.17001 29.12Z" fill="#ECE2CC"/>
<path d="M14.23 29.12H14.42L15.32 27.26H15.13L14.23 29.12Z" fill="#ECE2CC"/>
<path d="M13.86 29.12H14.05L14.94 27.26H14.75L13.86 29.12Z" fill="#ECE2CC"/>
<path d="M12.55 29.12H12.75L13.64 27.26H13.45L12.55 29.12Z" fill="#ECE2CC"/>
<path d="M25.42 27.26H24.65L23.76 29.1C24.66 28.98 25.36 28.21 25.42 27.26Z" fill="#ECE2CC"/>
<path d="M7.86 29.04L8.72 27.26H7.23L6.78 28.19C7.02 28.59 7.4 28.9 7.85 29.04H7.86Z" fill="#ECE2CC"/>
<path d="M17.92 29.12H19.4L20.3 27.26H18.81L17.92 29.12Z" fill="#ECE2CC"/>
<path d="M15.07 29.12H17.57L18.47 27.26H15.96L15.07 29.12Z" fill="#ECE2CC"/>
<path d="M24.53 15.47H24.36V17.35H24.53V15.47Z" fill="#444549"/>
<path d="M24.12 15.47H23.95V17.35H24.12V15.47Z" fill="#444549"/>
<path d="M23.67 15.47H23.5V17.35H23.67V15.47Z" fill="#444549"/>
<path d="M13.01 4.01C13.01 4.01 12.99 3.99 12.99 3.98C12.99 3.98 12.97 3.96 12.96 3.96C12.96 3.96 12.94 3.95 12.93 3.94C12.93 3.94 12.98 3.92 13 3.91C13.02 3.9 13.04 3.88 13.05 3.87C13.06 3.85 13.07 3.84 13.08 3.81C13.08 3.79 13.09 3.77 13.09 3.74C13.09 3.71 13.09 3.68 13.07 3.66C13.06 3.64 13.04 3.62 13.02 3.6C13 3.58 12.98 3.57 12.95 3.56C12.92 3.56 12.89 3.55 12.86 3.55H12.65V4.27H12.73V3.97H12.8C12.8 3.97 12.83 3.97 12.84 3.97C12.85 3.97 12.86 3.97 12.87 3.99C12.88 3.99 12.89 4.01 12.9 4.02C12.91 4.03 12.92 4.05 12.93 4.07L13.05 4.27H13.15L13.02 4.05C13.02 4.05 13 4.02 12.99 4.01H13.01ZM12.92 3.87C12.92 3.87 12.88 3.87 12.86 3.87H12.75V3.61H12.86C12.86 3.61 12.94 3.62 12.97 3.64C12.99 3.66 13.01 3.69 13.01 3.73C13.01 3.75 13.01 3.77 13 3.79C13 3.81 12.98 3.82 12.97 3.83C12.96 3.84 12.94 3.85 12.92 3.86V3.87Z" fill="#515153"/>
<path d="M11.34 3.94H11.6V3.86H11.34V3.62H11.62V3.55H11.25V4.26H11.63V4.19H11.34V3.94Z" fill="#515153"/>
<path d="M9.74997 3.62H9.95997V4.26H10.04V3.62H10.25V3.55H9.74997V3.62Z" fill="#515153"/>
<path d="M8.66998 4.05C8.66998 4.05 8.66998 4.13 8.66998 4.16C8.66998 4.16 8.65998 4.14 8.63998 4.11L8.27998 3.55H8.16998V4.27H8.24998V3.75C8.24998 3.7 8.24998 3.67 8.24998 3.65C8.24998 3.65 8.25998 3.68 8.26998 3.69L8.63998 4.26H8.73998V3.54H8.65998V4.04L8.66998 4.05Z" fill="#515153"/>
<path d="M15.98 3.83L16.03 3.68C16.03 3.68 16.03 3.65 16.04 3.63C16.04 3.63 16.04 3.67 16.05 3.68L16.12 3.87C16.12 3.87 16.19 3.9 16.23 3.91L16.09 3.54H16L15.9 3.81C15.9 3.81 15.95 3.81 15.98 3.83Z" fill="#515153"/>
<path d="M7.08998 3.55H7.00998V4.27H7.08998V3.55Z" fill="#515153"/>
<path d="M20.18 3.53C20.07 3.53 19.99 3.56 19.93 3.63C19.87 3.7 19.84 3.79 19.84 3.91C19.84 4.02 19.87 4.1 19.93 4.17C19.99 4.24 20.07 4.27 20.17 4.27C20.27 4.27 20.36 4.24 20.42 4.17C20.48 4.1 20.51 4.01 20.51 3.89C20.51 3.78 20.48 3.7 20.42 3.63C20.36 3.56 20.28 3.53 20.18 3.53ZM20.35 4.12C20.3 4.17 20.24 4.2 20.16 4.2C20.09 4.2 20.03 4.17 19.98 4.12C19.93 4.07 19.91 4 19.91 3.91C19.91 3.82 19.93 3.75 19.98 3.7C20.03 3.65 20.09 3.62 20.16 3.62C20.23 3.62 20.3 3.65 20.34 3.7C20.38 3.75 20.41 3.82 20.41 3.92C20.41 4.02 20.39 4.08 20.34 4.14L20.35 4.12Z" fill="#515153"/>
<path d="M23.38 3.55L23.11 4.27H23.2L23.27 4.07H23.57L23.65 4.27H23.74L23.46 3.55H23.37H23.38ZM23.3 3.99L23.41 3.68C23.41 3.68 23.41 3.65 23.42 3.63C23.42 3.63 23.42 3.67 23.43 3.68L23.54 3.99H23.29H23.3Z" fill="#515153"/>
<path d="M24.83 4.19V3.55H24.74V4.26H25.11V4.19H24.83Z" fill="#515153"/>
<path d="M22.03 4.05C22.03 4.05 22.03 4.13 22.03 4.16C22.03 4.16 22.02 4.14 22 4.11L21.64 3.55H21.53V4.27H21.61V3.75C21.61 3.7 21.61 3.67 21.61 3.65C21.61 3.65 21.62 3.68 21.63 3.69L22 4.26H22.1V3.54H22.02V4.04L22.03 4.05Z" fill="#515153"/>
<path d="M18.8 3.55H18.72V4.27H18.8V3.55Z" fill="#515153"/>
<path d="M14.27 3.69L14.64 4.26H14.74V3.54H14.66V4.04C14.66 4.04 14.66 4.12 14.66 4.15C14.66 4.15 14.65 4.13 14.63 4.1L14.27 3.54H14.16V4.26H14.24V3.74C14.24 3.69 14.24 3.66 14.24 3.64C14.24 3.64 14.25 3.67 14.26 3.68L14.27 3.69Z" fill="#515153"/>
<path d="M17.22 3.62H17.42V4.26H17.51V3.62H17.71V3.55H17.22V3.62Z" fill="#515153"/>
<path d="M15.78 3.89C15.09 3.89 14.53 4.46 14.53 5.15C14.53 5.84 15.09 6.41 15.78 6.41C16.47 6.41 17.03 5.84 17.03 5.15C17.03 4.46 16.47 3.89 15.78 3.89ZM15.78 6.36C15.12 6.36 14.59 5.82 14.59 5.15C14.59 4.48 15.12 3.94 15.78 3.94C16.44 3.94 16.97 4.48 16.97 5.15C16.97 5.82 16.44 6.36 15.78 6.36Z" fill="url(#paint2_linear_260_131)"/>
<path opacity="0.31" d="M6.53998 21.46V15.6C7.14998 15.87 7.86998 16.2 8.68998 16.6C9.99998 17.23 10.58 17.67 11.93 19.77C13.66 22.47 18.91 22.87 19.62 22.17C20.06 21.75 20.36 20.28 21.54 20.7C23.81 21.49 24.83 19.57 25.34 19.85V23.95C25.34 25.26 24.48 26.28 23.41 26.21L8.46998 23.96C7.39998 23.89 6.53998 22.77 6.53998 21.46Z" fill="url(#paint3_linear_260_131)"/>
<path d="M10.74 24.43L10.23 22.38L10.25 26.48H9.09998V19.63H10.41L11.17 22.36L11.92 19.63H13.19V26.48L12.09 26.51L12.05 22.49L11.56 24.43H10.73H10.74Z" fill="#ECE2CC"/>
<path d="M17.19 26.48L16.95 24.85H15.65L15.37 26.48H14.13L15.43 19.63H17.19L18.5 26.48H17.2H17.19ZM16.77 23.67L16.34 20.79L15.85 23.67H16.77Z" fill="#ECE2CC"/>
<path d="M19.36 26.48V19.63H21.3C21.89 19.63 22.35 19.78 22.68 20.09C23.01 20.4 23.18 20.86 23.18 21.49V22.57C23.18 23.19 23.02 23.64 22.7 23.92C22.38 24.21 21.92 24.35 21.31 24.35H20.71V26.48H19.37H19.36ZM20.7 23.18H21.21C21.4 23.18 21.54 23.13 21.63 23.02C21.72 22.91 21.77 22.71 21.77 22.41V21.61C21.77 21.3 21.72 21.09 21.63 20.98C21.54 20.87 21.4 20.81 21.21 20.81H20.7V23.18Z" fill="#ECE2CC"/>
<path d="M9.41 19.33C9.29 19.33 9.21 19.3 9.15 19.24C9.09 19.18 9.06 19.1 9.06 18.98V18.63C9.06 18.51 9.09 18.43 9.15 18.37C9.21 18.31 9.29 18.28 9.41 18.28C9.53 18.28 9.6 18.31 9.66 18.37C9.72 18.43 9.74 18.52 9.75 18.65H9.51C9.51 18.58 9.5 18.53 9.49 18.5C9.48 18.47 9.45 18.46 9.41 18.46C9.37 18.46 9.34 18.47 9.33 18.5C9.31 18.53 9.31 18.58 9.31 18.65V18.95C9.31 19.02 9.31 19.07 9.33 19.1C9.34 19.13 9.37 19.14 9.41 19.14C9.45 19.14 9.47 19.13 9.48 19.1C9.49 19.08 9.5 19.02 9.51 18.94H9.75C9.75 19.08 9.72 19.17 9.66 19.23C9.61 19.29 9.52 19.32 9.41 19.32V19.33Z" fill="#ECE2CC"/>
<path d="M11.01 19.33C10.91 19.33 10.82 19.3 10.77 19.24C10.71 19.18 10.69 19.1 10.69 19V18.63C10.69 18.52 10.72 18.44 10.77 18.38C10.83 18.32 10.91 18.29 11.01 18.29C11.11 18.29 11.2 18.32 11.25 18.38C11.31 18.44 11.33 18.52 11.33 18.63V19C11.33 19.1 11.3 19.19 11.25 19.24C11.19 19.3 11.11 19.33 11.01 19.33ZM11.01 19.15C11.01 19.15 11.07 19.14 11.08 19.11C11.09 19.08 11.1 19.04 11.1 18.97V18.64C11.1 18.57 11.1 18.52 11.08 18.49C11.07 18.46 11.04 18.45 11.01 18.45C10.98 18.45 10.95 18.46 10.94 18.49C10.93 18.52 10.92 18.56 10.92 18.64V18.97C10.92 19.04 10.92 19.09 10.94 19.11C10.96 19.13 10.98 19.15 11.01 19.15Z" fill="#ECE2CC"/>
<path d="M12.58 19.01L12.49 18.66L12.52 19.32H12.31V18.3H12.52L12.65 18.77L12.78 18.3H12.98V19.32H12.77L12.8 18.68L12.72 19.02H12.58V19.01Z" fill="#ECE2CC"/>
<path d="M14.21 19.01L14.12 18.66L14.15 19.32H13.94V18.3H14.15L14.28 18.77L14.41 18.3H14.61V19.32H14.4L14.43 18.68L14.35 19.02H14.21V19.01Z" fill="#ECE2CC"/>
<path d="M15.9 19.33C15.79 19.33 15.7 19.3 15.65 19.24C15.6 19.18 15.57 19.09 15.57 18.96V18.3H15.81V18.96C15.81 19.03 15.81 19.08 15.83 19.1C15.84 19.13 15.87 19.14 15.9 19.14C15.93 19.14 15.96 19.13 15.97 19.1C15.98 19.07 15.99 19.03 15.99 18.96V18.3H16.23V18.96C16.23 19.08 16.2 19.18 16.15 19.24C16.1 19.3 16.01 19.33 15.9 19.33Z" fill="#ECE2CC"/>
<path d="M17.59 19.32L17.4 18.63V19.32H17.2V18.3H17.45L17.66 19.02V18.3H17.86V19.32H17.59Z" fill="#ECE2CC"/>
<path d="M18.83 19.32V19.14H19.04V18.47H18.83V18.29H19.49V18.47H19.28V19.14H19.49V19.32H18.83Z" fill="#ECE2CC"/>
<path d="M20.67 19.32V18.48H20.44V18.3H21.14V18.48H20.91V19.32H20.67Z" fill="#ECE2CC"/>
<path d="M22.54 19.32H22.3V18.94L22.05 18.31H22.28L22.41 18.71L22.55 18.31H22.78L22.53 18.94V19.32H22.54Z" fill="#ECE2CC"/>
<path d="M21.935 6.03L21.675 6.56H21.595L21.835 6.07H21.505V6.01H21.925V6.03H21.935Z" fill="#444549"/>
<path d="M22.045 6.53001V6.46001C22.045 6.46001 22.135 6.50001 22.195 6.50001C22.245 6.50001 22.275 6.50001 22.305 6.47001C22.335 6.45001 22.345 6.43001 22.345 6.39001C22.345 6.32001 22.285 6.28001 22.165 6.28001H22.115V6.23001H22.165C22.275 6.23001 22.325 6.20001 22.325 6.13001C22.325 6.07001 22.285 6.04001 22.205 6.04001C22.155 6.04001 22.115 6.05001 22.075 6.08001V6.02001C22.075 6.02001 22.165 5.99001 22.225 5.99001C22.285 5.99001 22.325 6.00001 22.355 6.03001C22.385 6.06001 22.405 6.09001 22.405 6.12001C22.405 6.19001 22.365 6.24001 22.275 6.26001C22.275 6.26001 22.355 6.28001 22.385 6.30001C22.415 6.32001 22.425 6.35001 22.425 6.39001C22.425 6.44001 22.405 6.48001 22.365 6.51001C22.325 6.54001 22.265 6.56001 22.195 6.56001C22.135 6.56001 22.085 6.56001 22.045 6.53001Z" fill="#444549"/>
<path d="M22.555 6.54V6.47C22.555 6.47 22.645 6.51 22.695 6.51C22.745 6.51 22.775 6.5 22.805 6.48C22.835 6.46 22.845 6.43 22.845 6.39C22.845 6.35 22.835 6.33 22.805 6.31C22.775 6.29 22.735 6.28 22.685 6.28C22.665 6.28 22.635 6.28 22.585 6.28V6.01H22.905V6.07H22.655V6.23C22.655 6.23 22.695 6.23 22.715 6.23C22.785 6.23 22.835 6.24 22.875 6.27C22.915 6.3 22.935 6.34 22.935 6.39C22.935 6.44 22.915 6.49 22.875 6.52C22.835 6.55 22.775 6.57 22.705 6.57C22.645 6.57 22.595 6.57 22.565 6.55L22.555 6.54Z" fill="#444549"/>
<path d="M23.065 6.54V6.47C23.065 6.47 23.155 6.51 23.205 6.51C23.255 6.51 23.285 6.5 23.315 6.48C23.345 6.46 23.355 6.43 23.355 6.39C23.355 6.35 23.345 6.33 23.315 6.31C23.285 6.29 23.245 6.28 23.195 6.28C23.175 6.28 23.145 6.28 23.095 6.28V6.01H23.415V6.07H23.165V6.23C23.165 6.23 23.205 6.23 23.225 6.23C23.295 6.23 23.345 6.24 23.385 6.27C23.425 6.3 23.445 6.34 23.445 6.39C23.445 6.44 23.425 6.49 23.385 6.52C23.345 6.55 23.285 6.57 23.215 6.57C23.155 6.57 23.105 6.57 23.075 6.55L23.065 6.54Z" fill="#444549"/>
<path d="M23.915 6.01V6.07C23.915 6.07 23.845 6.05 23.805 6.05C23.745 6.05 23.705 6.07 23.665 6.11C23.625 6.15 23.615 6.21 23.615 6.28C23.645 6.23 23.695 6.2 23.765 6.2C23.825 6.2 23.865 6.22 23.905 6.25C23.935 6.28 23.955 6.32 23.955 6.37C23.955 6.42 23.935 6.47 23.895 6.5C23.855 6.53 23.805 6.55 23.745 6.55C23.675 6.55 23.625 6.53 23.595 6.48C23.565 6.43 23.535 6.38 23.535 6.3C23.535 6.2 23.555 6.13 23.605 6.07C23.655 6.01 23.715 5.98 23.795 5.98C23.845 5.98 23.875 5.98 23.905 6L23.915 6.01ZM23.755 6.26C23.755 6.26 23.685 6.27 23.665 6.29C23.645 6.31 23.625 6.34 23.625 6.37C23.625 6.41 23.635 6.44 23.665 6.47C23.685 6.5 23.725 6.51 23.755 6.51C23.785 6.51 23.825 6.5 23.845 6.48C23.865 6.46 23.875 6.43 23.875 6.39C23.875 6.35 23.865 6.32 23.845 6.3C23.825 6.28 23.795 6.27 23.755 6.27V6.26Z" fill="#444549"/>
<path d="M24.235 6.56C24.175 6.56 24.115 6.54 24.085 6.49C24.045 6.44 24.035 6.38 24.035 6.29C24.035 6.19 24.055 6.12 24.095 6.07C24.135 6.02 24.185 6 24.255 6C24.395 6 24.455 6.09 24.455 6.28C24.455 6.37 24.435 6.44 24.395 6.49C24.355 6.54 24.305 6.56 24.235 6.56ZM24.245 6.05C24.155 6.05 24.105 6.13 24.105 6.29C24.105 6.44 24.155 6.51 24.245 6.51C24.335 6.51 24.385 6.43 24.385 6.28C24.385 6.13 24.345 6.05 24.255 6.05H24.245Z" fill="#444549"/>
<path d="M24.675 6.27C24.595 6.24 24.555 6.19 24.555 6.14C24.555 6.1 24.575 6.07 24.605 6.04C24.645 6.01 24.685 6 24.745 6C24.795 6 24.835 6.01 24.875 6.04C24.905 6.06 24.925 6.09 24.925 6.13C24.925 6.19 24.885 6.24 24.805 6.27C24.905 6.3 24.945 6.35 24.945 6.42C24.945 6.47 24.925 6.5 24.885 6.53C24.845 6.56 24.795 6.57 24.725 6.57C24.665 6.57 24.625 6.56 24.585 6.53C24.545 6.5 24.535 6.47 24.535 6.43C24.535 6.36 24.585 6.31 24.675 6.28V6.27ZM24.735 6.3C24.655 6.33 24.615 6.37 24.615 6.42C24.615 6.45 24.625 6.47 24.655 6.49C24.685 6.51 24.715 6.52 24.755 6.52C24.795 6.52 24.825 6.52 24.845 6.49C24.865 6.46 24.885 6.45 24.885 6.43C24.885 6.38 24.845 6.33 24.755 6.31L24.735 6.3ZM24.855 6.13C24.855 6.13 24.855 6.09 24.825 6.07C24.805 6.06 24.785 6.05 24.745 6.05C24.715 6.05 24.685 6.05 24.665 6.07C24.645 6.09 24.635 6.1 24.635 6.13C24.635 6.18 24.675 6.21 24.745 6.24C24.815 6.22 24.855 6.18 24.855 6.13Z" fill="#444549"/>
<path d="M18.5243 13.8942C18.3288 13.5959 18.4457 13.0687 18.605 13.0488C18.9326 13.0083 18.8218 13.4471 19.0023 13.7001C19.6219 14.5681 20.8768 14.4783 21.6673 13.9257C21.9155 13.7522 22.0249 13.4465 21.8294 13.1907C21.123 12.2651 19.68 12.128 19.652 11.2778C19.639 10.8706 20.4596 10.0718 21.2351 10.4887C21.3315 10.5401 21.3958 10.7293 21.363 10.8267C21.2508 11.1537 20.861 10.7766 20.5417 10.933C20.435 10.9851 20.2551 11.1661 20.2729 11.2998C20.8337 11.9888 21.8287 12.0937 22.4325 12.996C22.7122 13.4142 22.5043 13.914 22.1303 14.2143C21.0525 15.0796 19.3258 15.1159 18.5243 13.8942Z" fill="black"/>
<path d="M19.5597 12.5037C19.5556 12.6779 19.2766 12.7375 19.1747 12.6683C18.9251 12.4989 18.7979 11.8304 19.0023 11.5274C19.1179 11.356 19.3942 11.2813 19.4749 11.5555C19.5439 11.7914 19.5686 12.1616 19.5604 12.5037H19.5597Z" fill="black"/>
<path d="M19.4735 10.2933C19.3279 10.3234 19.161 10.2405 19.1446 10.1472C19.1213 10.0142 19.1774 9.88259 19.2916 9.78797C19.4304 9.67279 19.7512 9.52743 19.8722 9.66182C20.0172 9.91138 19.7436 10.2377 19.4735 10.2933Z" fill="black"/>
<path d="M19.2417 10.573C18.8649 10.1856 18.2043 10.7451 17.876 11.3347L17.807 11.4595C17.8159 11.3279 17.8193 11.2065 17.8145 11.103C17.7974 10.7273 17.5081 10.7787 17.3556 10.9858C17.2715 11.0996 17.2107 11.2662 17.1737 11.4492C17.0411 11.2915 16.864 11.1812 16.641 11.1092C16.308 11.0015 16.0536 11.1174 15.7021 11.3793L15.7363 8.69166C15.7377 8.5847 15.4716 8.53054 15.3807 8.58059C15.2891 8.63132 15.2234 8.77188 15.2138 8.91448L15.1345 10.139L15.1564 12.4132C14.8835 12.4029 14.6818 12.4496 14.556 12.5963C14.4548 12.7142 14.4801 12.9418 14.5245 13.1578C14.0335 13.3176 13.3845 13.395 13.2252 13.0323C13.1685 12.9027 13.176 12.623 13.2738 12.5469C13.9364 12.7416 14.5156 12.4955 14.7714 11.8873C14.8842 11.6186 14.783 11.2991 14.5717 11.114C14.0834 10.6875 13.4748 11.1599 13.0372 11.7365C13.0372 11.7365 12.7486 12.1438 12.6911 12.3426C12.6337 12.5414 12.5291 12.9507 12.6686 13.2366C13.0543 14.0279 14.3495 13.8846 15.1496 13.358C15.8471 13.4526 16.5289 13.3045 17.0684 12.8493C17.1389 13.0172 17.1751 13.1242 17.2421 13.1715C17.3085 13.2188 17.5697 13.1708 17.6073 13.0968L18.1496 12.0306C18.3329 11.6707 18.5086 11.3025 18.817 11.0653C18.9572 11.1674 19.1569 11.2381 19.2663 11.1071C19.3983 10.9487 19.373 10.706 19.2431 10.5723L19.2417 10.573ZM13.9925 11.5397C14.0274 11.5055 14.1484 11.4972 14.1915 11.5082C14.2353 11.5192 14.2742 11.7022 14.2565 11.7543C14.1429 12.0855 13.7538 12.2055 13.4461 12.0752L13.9918 11.5397H13.9925ZM16.5925 12.5627C16.3347 12.7115 16.1124 12.7978 15.7602 12.8458C15.791 12.3351 16.016 11.7105 16.3285 11.6193C16.4646 11.5795 16.7928 11.8791 16.801 12.0944C16.8072 12.2589 16.7046 12.4221 16.5932 12.562L16.5925 12.5627Z" fill="black"/>
<path d="M12.8696 11.7488C12.8696 11.7488 13.0522 11.5137 13.299 11.0331C13.7941 10.0698 13.2676 8.78901 12.2124 8.32485C11.5757 8.04511 10.9404 7.92856 10.2641 8.17744L10.2251 7.9121C10.2183 7.86274 10.0535 7.8072 10.0063 7.82571C9.88938 7.87234 9.7697 8.05677 9.6808 8.15276C9.59259 8.24806 9.47702 8.34953 9.45855 8.48117C9.44693 8.56413 9.55977 8.66903 9.65345 8.74102L9.62062 11.2881L9.54199 13.1948C9.41889 13.3333 9.25819 13.5109 9.34093 13.7447C9.37718 13.8475 9.62405 13.9175 9.75124 13.8846C10.9165 13.5829 12.0476 12.7793 12.7841 11.8709C12.8156 11.8318 12.8436 11.7914 12.8696 11.7482V11.7488ZM13.2471 9.69609C13.0187 9.28472 12.754 8.96727 12.41 8.57373C12.8313 8.7993 13.1657 9.21273 13.2471 9.69609ZM10.1985 13.2764L10.327 13.0138C10.3592 12.9473 10.3134 12.8692 10.2395 12.8664L10.0467 12.9514L10.1445 8.72594C10.8618 8.32553 11.8725 8.6368 12.4511 9.20176C12.966 9.70432 13.0768 10.4441 12.7109 11.0852C12.1454 12.0745 11.266 12.8321 10.1985 13.2771V13.2764Z" fill="black"/>
</g>
<defs>
<linearGradient id="paint0_linear_260_131" x1="25.06" y1="3.11" x2="6.93999" y2="28.89" gradientUnits="userSpaceOnUse">
<stop stop-color="#FDFAF1"/>
<stop offset="1" stop-color="#A29885"/>
</linearGradient>
<linearGradient id="paint1_linear_260_131" x1="25.02" y1="3.2" x2="7.03998" y2="28.78" gradientUnits="userSpaceOnUse">
<stop stop-color="#FFFBEC"/>
<stop offset="1" stop-color="#E1D1B7"/>
</linearGradient>
<linearGradient id="paint2_linear_260_131" x1="14.99" y1="6.46" x2="16.58" y2="3.84" gradientUnits="userSpaceOnUse">
<stop stop-color="#FDFAF1"/>
<stop offset="1" stop-color="#A29885"/>
</linearGradient>
<linearGradient id="paint3_linear_260_131" x1="32.2372" y1="19.0603" x2="31.8898" y2="26.6524" gradientUnits="userSpaceOnUse">
<stop offset="0.12" stop-color="#FFFBEC" stop-opacity="0.5"/>
<stop offset="0.68" stop-color="#FFEDD0" stop-opacity="0"/>
</linearGradient>
<clipPath id="clip0_260_131">
<rect width="19.4" height="26.84" fill="white" transform="translate(6.29999 2.58)"/>
</clipPath>
</defs>
</svg>
