<svg width="32" height="32" viewBox="0 0 32 32" fill="none" xmlns="http://www.w3.org/2000/svg">
<g clip-path="url(#clip0_260_252)">
<path d="M23.71 2.58H8.28999C7.18999 2.58 6.29999 3.51 6.29999 4.67V27.33C6.29999 28.48 7.18999 29.42 8.28999 29.42H23.71C24.81 29.42 25.7 28.49 25.7 27.33V4.67C25.7 3.52 24.81 2.58 23.71 2.58ZM15.78 6.38C15.11 6.38 14.57 5.81 14.57 5.11C14.57 4.41 15.11 3.84 15.78 3.84C16.45 3.84 16.99 4.41 16.99 5.11C16.99 5.81 16.45 6.38 15.78 6.38Z" fill="url(#paint0_linear_260_252)"/>
<path d="M23.65 2.64H8.37997C7.28997 2.64 6.40997 3.57 6.40997 4.72V27.23C6.40997 28.37 7.28997 29.3 8.37997 29.3H23.65C24.74 29.3 25.62 28.37 25.62 27.23V4.72C25.62 3.58 24.74 2.65 23.65 2.65V2.64ZM15.79 6.42C15.13 6.42 14.59 5.86 14.59 5.16C14.59 4.46 15.13 3.9 15.79 3.9C16.45 3.9 16.99 4.46 16.99 5.16C16.99 5.86 16.45 6.42 15.79 6.42Z" fill="url(#paint1_linear_260_252)"/>
<path d="M6.37 27.36C6.37 28.45 7.22 29.33 8.28 29.33H23.69C24.74 29.33 25.6 28.45 25.6 27.36V17.6H6.37V27.36Z" fill="#E1BF52"/>
<path d="M23.65 2.71H8.38C7.29 2.71 6.41 3.59 6.41 4.68V5.58H14.64C14.57 5.41 14.54 5.25 14.54 5.07C14.54 4.38 15.1 3.82 15.79 3.82C16.48 3.82 17.04 4.38 17.04 5.07C17.04 5.25 17 5.41 16.94 5.56H25.63V4.68C25.63 3.59 24.75 2.71 23.66 2.71H23.65Z" fill="#E1BF52"/>
<path d="M20.66 29.08H22.14L23.03 27.22H21.55L20.66 29.08Z" fill="url(#paint2_linear_260_252)"/>
<path d="M9.28 29.08H9.67L10.56 27.22H10.18L9.28 29.08Z" fill="url(#paint3_linear_260_252)"/>
<path d="M14.35 29.08H14.54L15.43 27.22H15.24L14.35 29.08Z" fill="url(#paint4_linear_260_252)"/>
<path d="M13.97 29.08H14.16L15.06 27.22H14.87L13.97 29.08Z" fill="url(#paint5_linear_260_252)"/>
<path d="M12.67 29.08H12.86L13.75 27.22H13.56L12.67 29.08Z" fill="url(#paint6_linear_260_252)"/>
<path d="M25.53 27.22H24.76L23.87 29.06C24.77 28.94 25.47 28.17 25.53 27.22Z" fill="url(#paint7_linear_260_252)"/>
<path d="M7.96999 29L8.82999 27.22H7.34999L6.89999 28.15C7.13999 28.55 7.51999 28.86 7.96999 29Z" fill="url(#paint8_linear_260_252)"/>
<path d="M18.03 29.08H19.52L20.41 27.22H18.93L18.03 29.08Z" fill="url(#paint9_linear_260_252)"/>
<path d="M15.18 29.08H17.69L18.58 27.22H16.07L15.18 29.08Z" fill="url(#paint10_linear_260_252)"/>
<path d="M24.53 15.47H24.36V17.35H24.53V15.47Z" fill="#444549"/>
<path d="M24.12 15.47H23.95V17.35H24.12V15.47Z" fill="#444549"/>
<path d="M23.67 15.47H23.5V17.35H23.67V15.47Z" fill="#444549"/>
<g opacity="0.71">
<path d="M13.01 4.01C13.01 4.01 12.99 3.99 12.99 3.98C12.99 3.98 12.97 3.96 12.96 3.96C12.96 3.96 12.94 3.95 12.93 3.94C12.93 3.94 12.98 3.92 13 3.91C13.02 3.9 13.04 3.88 13.05 3.87C13.06 3.85 13.07 3.84 13.08 3.81C13.08 3.79 13.09 3.77 13.09 3.74C13.09 3.71 13.09 3.68 13.07 3.66C13.06 3.64 13.04 3.62 13.02 3.6C13 3.58 12.98 3.57 12.95 3.56C12.92 3.56 12.89 3.55 12.86 3.55H12.65V4.27H12.73V3.97H12.8C12.8 3.97 12.83 3.97 12.84 3.97C12.85 3.97 12.86 3.97 12.87 3.99C12.88 3.99 12.89 4.01 12.9 4.02C12.91 4.03 12.92 4.05 12.93 4.07L13.05 4.27H13.15L13.02 4.05C13.02 4.05 13 4.02 12.99 4.01H13.01ZM12.92 3.87C12.92 3.87 12.88 3.87 12.86 3.87H12.75V3.61H12.86C12.86 3.61 12.94 3.62 12.97 3.64C12.99 3.66 13.01 3.69 13.01 3.73C13.01 3.75 13.01 3.77 13 3.79C13 3.81 12.98 3.82 12.97 3.83C12.96 3.84 12.94 3.85 12.92 3.86V3.87Z" fill="#88806D"/>
<path d="M11.34 3.94H11.6V3.86H11.34V3.62H11.62V3.55H11.25V4.26H11.63V4.19H11.34V3.94Z" fill="#88806D"/>
<path d="M9.74997 3.62H9.95997V4.26H10.04V3.62H10.25V3.55H9.74997V3.62Z" fill="#88806D"/>
<path d="M8.66998 4.05C8.66998 4.05 8.66998 4.13 8.66998 4.16C8.66998 4.16 8.65998 4.14 8.63998 4.11L8.27998 3.55H8.16998V4.27H8.24998V3.75C8.24998 3.7 8.24998 3.67 8.24998 3.65C8.24998 3.65 8.25998 3.68 8.26998 3.69L8.63998 4.26H8.73998V3.54H8.65998V4.04L8.66998 4.05Z" fill="#88806D"/>
<path d="M15.98 3.83L16.03 3.68C16.03 3.68 16.03 3.65 16.04 3.63C16.04 3.63 16.04 3.67 16.05 3.68L16.12 3.87C16.12 3.87 16.19 3.9 16.23 3.91L16.09 3.54H16L15.9 3.81C15.9 3.81 15.95 3.81 15.98 3.83Z" fill="#88806D"/>
<path d="M7.08998 3.55H7.00998V4.27H7.08998V3.55Z" fill="#88806D"/>
<path d="M20.18 3.53C20.07 3.53 19.99 3.56 19.93 3.63C19.87 3.7 19.84 3.79 19.84 3.91C19.84 4.02 19.87 4.1 19.93 4.17C19.99 4.24 20.07 4.27 20.17 4.27C20.27 4.27 20.36 4.24 20.42 4.17C20.48 4.1 20.51 4.01 20.51 3.89C20.51 3.78 20.48 3.7 20.42 3.63C20.36 3.56 20.28 3.53 20.18 3.53ZM20.35 4.12C20.3 4.17 20.24 4.2 20.16 4.2C20.09 4.2 20.03 4.17 19.98 4.12C19.93 4.07 19.91 4 19.91 3.91C19.91 3.82 19.93 3.75 19.98 3.7C20.03 3.65 20.09 3.62 20.16 3.62C20.23 3.62 20.3 3.65 20.34 3.7C20.38 3.75 20.41 3.82 20.41 3.92C20.41 4.02 20.39 4.08 20.34 4.14L20.35 4.12Z" fill="#88806D"/>
<path d="M23.38 3.55L23.11 4.27H23.2L23.27 4.07H23.57L23.65 4.27H23.74L23.46 3.55H23.37H23.38ZM23.3 3.99L23.41 3.68C23.41 3.68 23.41 3.65 23.42 3.63C23.42 3.63 23.42 3.67 23.43 3.68L23.54 3.99H23.29H23.3Z" fill="#88806D"/>
<path d="M24.83 4.19V3.55H24.74V4.26H25.11V4.19H24.83Z" fill="#88806D"/>
<path d="M22.03 4.05C22.03 4.05 22.03 4.13 22.03 4.16C22.03 4.16 22.02 4.14 22 4.11L21.64 3.55H21.53V4.27H21.61V3.75C21.61 3.7 21.61 3.67 21.61 3.65C21.61 3.65 21.62 3.68 21.63 3.69L22 4.26H22.1V3.54H22.02V4.04L22.03 4.05Z" fill="#88806D"/>
<path d="M18.8 3.55H18.72V4.27H18.8V3.55Z" fill="#88806D"/>
<path d="M14.27 3.69L14.64 4.26H14.74V3.54H14.66V4.04C14.66 4.04 14.66 4.12 14.66 4.15C14.66 4.15 14.65 4.13 14.63 4.1L14.27 3.54H14.16V4.26H14.24V3.74C14.24 3.69 14.24 3.66 14.24 3.64C14.24 3.64 14.25 3.67 14.26 3.68L14.27 3.69Z" fill="#88806D"/>
<path d="M17.22 3.62H17.42V4.26H17.51V3.62H17.71V3.55H17.22V3.62Z" fill="#88806D"/>
</g>
<path d="M15.78 3.89C15.09 3.89 14.53 4.46 14.53 5.15C14.53 5.84 15.09 6.41 15.78 6.41C16.47 6.41 17.03 5.84 17.03 5.15C17.03 4.46 16.47 3.89 15.78 3.89ZM15.78 6.36C15.12 6.36 14.59 5.82 14.59 5.15C14.59 4.48 15.12 3.94 15.78 3.94C16.44 3.94 16.97 4.48 16.97 5.15C16.97 5.82 16.44 6.36 15.78 6.36Z" fill="url(#paint11_linear_260_252)"/>
<path d="M10.74 24.43L10.23 22.38L10.25 26.48H9.09998V19.63H10.41L11.17 22.36L11.92 19.63H13.19V26.48L12.09 26.51L12.05 22.49L11.56 24.43H10.73H10.74Z" fill="#ECE2CC"/>
<path d="M17.19 26.48L16.95 24.85H15.65L15.37 26.48H14.13L15.43 19.63H17.19L18.5 26.48H17.2H17.19ZM16.77 23.67L16.34 20.79L15.85 23.67H16.77Z" fill="#ECE2CC"/>
<path d="M19.36 26.48V19.63H21.3C21.89 19.63 22.35 19.78 22.68 20.09C23.01 20.4 23.18 20.86 23.18 21.49V22.57C23.18 23.19 23.02 23.64 22.7 23.92C22.38 24.21 21.92 24.35 21.31 24.35H20.71V26.48H19.37H19.36ZM20.7 23.18H21.21C21.4 23.18 21.54 23.13 21.63 23.02C21.72 22.91 21.77 22.71 21.77 22.41V21.61C21.77 21.3 21.72 21.09 21.63 20.98C21.54 20.87 21.4 20.81 21.21 20.81H20.7V23.18Z" fill="#ECE2CC"/>
<path d="M9.41 19.33C9.29 19.33 9.21 19.3 9.15 19.24C9.09 19.18 9.06 19.1 9.06 18.98V18.63C9.06 18.51 9.09 18.43 9.15 18.37C9.21 18.31 9.29 18.28 9.41 18.28C9.53 18.28 9.61 18.31 9.66 18.37C9.71 18.43 9.74 18.52 9.75 18.65H9.51C9.51 18.58 9.5 18.53 9.49 18.5C9.48 18.47 9.45 18.46 9.41 18.46C9.37 18.46 9.34 18.47 9.33 18.5C9.32 18.53 9.31 18.58 9.31 18.65V18.95C9.31 19.02 9.31 19.07 9.33 19.1C9.35 19.13 9.37 19.14 9.41 19.14C9.45 19.14 9.47 19.13 9.48 19.1C9.49 19.08 9.5 19.02 9.51 18.94H9.75C9.75 19.08 9.72 19.17 9.66 19.23C9.61 19.29 9.52 19.32 9.41 19.32V19.33Z" fill="#ECE2CC"/>
<path d="M11.01 19.33C10.91 19.33 10.82 19.3 10.77 19.24C10.71 19.18 10.69 19.1 10.69 19V18.63C10.69 18.52 10.72 18.44 10.77 18.38C10.83 18.32 10.91 18.29 11.01 18.29C11.11 18.29 11.2 18.32 11.25 18.38C11.31 18.44 11.33 18.52 11.33 18.63V19C11.33 19.1 11.3 19.19 11.25 19.24C11.19 19.3 11.11 19.33 11.01 19.33ZM11.01 19.15C11.01 19.15 11.07 19.14 11.08 19.11C11.09 19.09 11.1 19.04 11.1 18.97V18.64C11.1 18.57 11.1 18.52 11.08 18.49C11.07 18.46 11.04 18.45 11.01 18.45C10.98 18.45 10.95 18.46 10.94 18.49C10.93 18.52 10.92 18.56 10.92 18.64V18.97C10.92 19.04 10.92 19.09 10.94 19.11C10.95 19.13 10.98 19.15 11.01 19.15Z" fill="#ECE2CC"/>
<path d="M12.58 19.01L12.49 18.66L12.52 19.32H12.31V18.3H12.52L12.65 18.77L12.78 18.3H12.98V19.32H12.77L12.8 18.68L12.72 19.02H12.58V19.01Z" fill="#ECE2CC"/>
<path d="M14.21 19.01L14.12 18.66L14.15 19.32H13.94V18.3H14.15L14.28 18.77L14.41 18.3H14.61V19.32H14.4L14.43 18.68L14.35 19.02H14.21V19.01Z" fill="#ECE2CC"/>
<path d="M15.9 19.33C15.79 19.33 15.7 19.3 15.65 19.24C15.6 19.18 15.57 19.09 15.57 18.96V18.3H15.81V18.96C15.81 19.03 15.81 19.08 15.83 19.1C15.84 19.13 15.87 19.14 15.9 19.14C15.93 19.14 15.96 19.13 15.97 19.1C15.98 19.07 15.99 19.03 15.99 18.96V18.3H16.23V18.96C16.23 19.08 16.2 19.18 16.15 19.24C16.1 19.3 16.01 19.33 15.9 19.33Z" fill="#ECE2CC"/>
<path d="M17.59 19.32L17.4 18.63V19.32H17.2V18.3H17.45L17.66 19.02V18.3H17.86V19.32H17.59Z" fill="#ECE2CC"/>
<path d="M18.83 19.32V19.14H19.04V18.47H18.83V18.29H19.49V18.47H19.28V19.14H19.49V19.32H18.83Z" fill="#ECE2CC"/>
<path d="M20.67 19.32V18.48H20.44V18.3H21.14V18.48H20.91V19.32H20.67Z" fill="#ECE2CC"/>
<path d="M22.54 19.32H22.3V18.94L22.05 18.31H22.28L22.41 18.71L22.55 18.31H22.78L22.53 18.94V19.32H22.54Z" fill="#ECE2CC"/>
<path opacity="0.71" d="M23.5 3.27501H8.52998C7.45998 3.27501 6.59998 4.18501 6.59998 5.30501V18.895C8.95998 18.875 9.00998 19.795 11.34 20.055C17.53 20.725 12.98 18.525 16.64 18.425L17.76 20.475C17.94 20.475 18.1 20.605 18.13 20.785L18.41 19.895C18.54 19.475 19.18 19.615 19.12 20.055C18.95 21.345 20.62 22.415 20.66 22.415L21.36 22.245C21.44 22.245 21.5 22.305 21.5 22.385V23.055C24.29 22.575 21.4 21.245 23.77 21.935L23.88 21.965L24.58 21.715C24.58 21.315 24.91 20.955 25.3 20.915L25.38 18.815L25.44 5.30501C25.44 4.18501 24.57 3.27501 23.51 3.27501H23.5ZM15.8 6.98501C15.15 6.98501 14.63 6.43501 14.63 5.75501C14.63 5.07501 15.16 4.52501 15.8 4.52501C16.44 4.52501 16.97 5.07501 16.97 5.75501C16.97 6.43501 16.44 6.98501 15.8 6.98501Z" fill="url(#paint12_radial_260_252)"/>
<path d="M21.935 6.03L21.675 6.56H21.595L21.835 6.07H21.505V6.01H21.925V6.03H21.935Z" fill="#444549"/>
<path d="M22.045 6.53001V6.46001C22.045 6.46001 22.135 6.50001 22.195 6.50001C22.245 6.50001 22.275 6.50001 22.305 6.47001C22.335 6.45001 22.345 6.43001 22.345 6.39001C22.345 6.32001 22.285 6.28001 22.165 6.28001H22.115V6.23001H22.165C22.275 6.23001 22.325 6.20001 22.325 6.13001C22.325 6.07001 22.285 6.04001 22.205 6.04001C22.155 6.04001 22.115 6.05001 22.075 6.08001V6.02001C22.075 6.02001 22.165 5.99001 22.225 5.99001C22.285 5.99001 22.325 6.00001 22.355 6.03001C22.385 6.06001 22.405 6.09001 22.405 6.12001C22.405 6.19001 22.365 6.24001 22.275 6.26001C22.275 6.26001 22.355 6.28001 22.385 6.30001C22.415 6.32001 22.425 6.35001 22.425 6.39001C22.425 6.44001 22.405 6.48001 22.365 6.51001C22.325 6.54001 22.265 6.56001 22.195 6.56001C22.135 6.56001 22.085 6.56001 22.045 6.53001Z" fill="#444549"/>
<path d="M22.555 6.54V6.47C22.555 6.47 22.645 6.51 22.695 6.51C22.745 6.51 22.775 6.5 22.805 6.48C22.835 6.46 22.845 6.43 22.845 6.39C22.845 6.35 22.835 6.33 22.805 6.31C22.775 6.29 22.735 6.28 22.685 6.28C22.665 6.28 22.635 6.28 22.585 6.28V6.01H22.905V6.07H22.655V6.23C22.655 6.23 22.695 6.23 22.715 6.23C22.785 6.23 22.835 6.24 22.875 6.27C22.915 6.3 22.935 6.34 22.935 6.39C22.935 6.44 22.915 6.49 22.875 6.52C22.835 6.55 22.775 6.57 22.705 6.57C22.645 6.57 22.595 6.57 22.565 6.55L22.555 6.54Z" fill="#444549"/>
<path d="M23.065 6.54V6.47C23.065 6.47 23.155 6.51 23.205 6.51C23.255 6.51 23.285 6.5 23.315 6.48C23.345 6.46 23.355 6.43 23.355 6.39C23.355 6.35 23.345 6.33 23.315 6.31C23.285 6.29 23.245 6.28 23.195 6.28C23.175 6.28 23.145 6.28 23.095 6.28V6.01H23.415V6.07H23.165V6.23C23.165 6.23 23.205 6.23 23.225 6.23C23.295 6.23 23.345 6.24 23.385 6.27C23.425 6.3 23.445 6.34 23.445 6.39C23.445 6.44 23.425 6.49 23.385 6.52C23.345 6.55 23.285 6.57 23.215 6.57C23.155 6.57 23.105 6.57 23.075 6.55L23.065 6.54Z" fill="#444549"/>
<path d="M23.915 6.01V6.07C23.915 6.07 23.845 6.05 23.805 6.05C23.745 6.05 23.705 6.07 23.665 6.11C23.625 6.15 23.615 6.21 23.615 6.28C23.645 6.23 23.695 6.2 23.765 6.2C23.825 6.2 23.865 6.22 23.905 6.25C23.935 6.28 23.955 6.32 23.955 6.37C23.955 6.42 23.935 6.47 23.895 6.5C23.855 6.53 23.805 6.55 23.745 6.55C23.675 6.55 23.625 6.53 23.595 6.48C23.565 6.43 23.535 6.38 23.535 6.3C23.535 6.2 23.555 6.13 23.605 6.07C23.655 6.01 23.715 5.98 23.795 5.98C23.845 5.98 23.875 5.98 23.905 6L23.915 6.01ZM23.755 6.26C23.755 6.26 23.685 6.27 23.665 6.29C23.645 6.31 23.625 6.34 23.625 6.37C23.625 6.41 23.635 6.44 23.665 6.47C23.685 6.5 23.725 6.51 23.755 6.51C23.785 6.51 23.825 6.5 23.845 6.48C23.865 6.46 23.875 6.43 23.875 6.39C23.875 6.35 23.865 6.32 23.845 6.3C23.825 6.28 23.795 6.27 23.755 6.27V6.26Z" fill="#444549"/>
<path d="M24.235 6.56C24.175 6.56 24.115 6.54 24.085 6.49C24.045 6.44 24.035 6.38 24.035 6.29C24.035 6.19 24.055 6.12 24.095 6.07C24.135 6.02 24.185 6 24.255 6C24.395 6 24.455 6.09 24.455 6.28C24.455 6.37 24.435 6.44 24.395 6.49C24.355 6.54 24.305 6.56 24.235 6.56ZM24.245 6.05C24.155 6.05 24.105 6.13 24.105 6.29C24.105 6.44 24.155 6.51 24.245 6.51C24.335 6.51 24.385 6.43 24.385 6.28C24.385 6.13 24.345 6.05 24.255 6.05H24.245Z" fill="#444549"/>
<path d="M24.675 6.27C24.595 6.24 24.555 6.19 24.555 6.14C24.555 6.1 24.575 6.07 24.605 6.04C24.645 6.01 24.685 6 24.745 6C24.795 6 24.835 6.01 24.875 6.04C24.905 6.06 24.925 6.09 24.925 6.13C24.925 6.19 24.885 6.24 24.805 6.27C24.905 6.3 24.945 6.35 24.945 6.42C24.945 6.47 24.925 6.5 24.885 6.53C24.845 6.56 24.795 6.57 24.725 6.57C24.665 6.57 24.625 6.56 24.585 6.53C24.545 6.5 24.535 6.47 24.535 6.43C24.535 6.36 24.585 6.31 24.675 6.28V6.27ZM24.735 6.3C24.655 6.33 24.615 6.37 24.615 6.42C24.615 6.45 24.625 6.47 24.655 6.49C24.685 6.51 24.715 6.52 24.755 6.52C24.795 6.52 24.825 6.52 24.845 6.49C24.865 6.46 24.885 6.45 24.885 6.43C24.885 6.38 24.845 6.33 24.755 6.31L24.735 6.3ZM24.855 6.13C24.855 6.13 24.855 6.09 24.825 6.07C24.805 6.06 24.785 6.05 24.745 6.05C24.715 6.05 24.685 6.05 24.665 6.07C24.645 6.09 24.635 6.1 24.635 6.13C24.635 6.18 24.675 6.21 24.745 6.24C24.815 6.22 24.855 6.18 24.855 6.13Z" fill="#444549"/>
<path d="M18.4104 11.4128C18.9653 11.3947 19.0702 11.0685 19.2832 11.0825C19.3491 11.0865 19.4358 11.2605 19.4139 11.3378C19.3592 11.5254 19.207 11.6816 19.0438 11.7219L18.4772 11.8638C18.5272 12.0153 18.6008 12.215 18.6889 12.3352C18.9325 12.6676 19.3084 12.6902 19.5969 12.456L20.1559 12.003C20.2048 11.9635 20.3776 12.0097 20.3875 12.0533C20.3481 12.2036 20.2738 12.3452 20.1744 12.4705C19.7976 12.9458 19.1564 13.0528 18.628 12.7604L18.5762 12.7317C18.1599 12.4089 18.044 11.5516 17.9661 10.9707C17.9239 10.9168 17.8373 10.8051 17.8366 10.7464C17.8352 10.639 18.0216 10.4358 18.2155 10.3314L19.5221 9.62543C19.7026 9.52799 19.9866 9.54517 20.1486 9.70624C20.2242 9.78094 20.2677 10.0171 20.3066 10.1516C20.3701 9.91948 20.4422 9.71413 20.6183 9.55685C20.7511 9.43818 20.9533 9.39937 21.126 9.47565C21.2531 9.53211 21.397 9.71451 21.4339 9.89528C21.5297 10.3613 21.326 10.7445 20.9201 10.9742C21.5688 11.5577 22.1265 11.2685 22.3759 11.3334C22.4447 11.351 22.4703 11.5037 22.4613 11.5988C22.4275 11.9694 21.413 11.7615 20.878 11.5126L21.2094 12.4454C21.2319 12.5086 21.1928 12.6806 21.1449 12.7194C21.0897 12.7636 20.9315 12.7513 20.8765 12.6907C20.4993 12.2742 20.5539 11.7406 20.3988 11.4625C20.1355 10.9911 19.9311 10.5731 19.8149 10.0047C19.2989 10.2262 18.8486 10.4746 18.3835 10.8044C18.3419 10.9898 18.3689 11.2087 18.4105 11.4134L18.4104 11.4128ZM21.0511 9.96918C21.044 9.92803 20.9478 9.86334 20.9154 9.87949C20.8829 9.89564 20.7952 9.96246 20.791 10.0026L20.727 10.6113C21.0067 10.5386 21.1092 10.3187 21.0506 9.96985L21.0511 9.96918Z" fill="black"/>
<path d="M17.1597 10.6384C17.1438 10.5458 17.2923 10.4021 17.362 10.4013C17.5721 10.3982 17.7724 10.5633 17.7732 10.6673C17.7738 10.729 17.6999 10.8493 17.664 10.9308L18.0704 12.2189C18.147 12.4088 18.1729 12.7379 18.0325 12.8567C17.6558 13.1749 17.2327 12.898 16.8879 12.5094L16.788 13.2955C16.7673 13.3973 16.6736 13.4975 16.5781 13.5086C16.2507 13.5465 16.0889 12.8765 15.9681 12.3671L15.6326 10.9521C15.6149 10.8763 15.6866 10.7328 15.7363 10.6872C15.7929 10.6345 16.0116 10.657 16.0263 10.7392L16.1828 11.6072L16.4594 12.6488L16.5771 12.045C16.5845 12.0061 16.608 11.972 16.6416 11.9557C17.0754 11.7413 17.1393 12.634 17.701 12.6071C17.761 12.6044 17.8027 12.5431 17.7909 12.4781C17.6725 11.8424 17.2823 11.3498 17.1602 10.6377L17.1597 10.6384Z" fill="black"/>
<path d="M14.4262 12.5468L14.6702 13.2028C14.6975 13.2763 14.6872 13.4146 14.6321 13.4564C14.4356 13.6072 14.2503 13.2554 14.1159 12.8931C13.8634 12.211 13.4869 10.9159 13.8839 10.6884C13.9656 10.6414 14.1229 10.6962 14.2003 10.7918C14.2472 10.8496 14.1241 11.0043 14.1099 11.072C14.0664 11.3178 14.1426 11.6836 14.209 11.951L14.7948 11.4899L14.5322 10.6225C14.5497 10.543 14.6566 10.4311 14.722 10.4323C14.8019 10.4332 14.9464 10.5226 14.9724 10.6029L15.1755 11.2323C15.3611 11.1716 15.5661 11.1047 15.722 11.1685C15.8684 11.2281 15.8234 11.5371 15.7013 11.568C15.5551 11.6049 15.4247 11.652 15.2934 11.7251L15.5428 12.7342C15.5633 12.816 15.5012 12.9673 15.44 12.9937C15.3788 13.02 15.1934 12.9553 15.171 12.8792L14.9182 12.0212C14.7222 12.1513 14.5605 12.3167 14.4263 12.5474L14.4262 12.5468Z" fill="black"/>
<path d="M11.4519 12.5104C11.1934 12.5395 10.9597 12.6272 10.727 12.7724L10.9016 14.1704C10.9179 14.2999 10.7497 14.4206 10.6594 14.4108C10.2636 14.368 10.5357 13.676 10.3352 12.9414C10.276 12.8839 10.1871 12.6768 10.202 12.6301L10.2634 12.5025C10.2631 12.2578 10.2061 11.9016 10.2613 11.6792C10.3192 11.4457 10.5324 11.3403 10.7155 11.4089C10.9883 11.5109 11.2148 11.6821 11.4272 11.8975C11.6579 12.1309 11.8634 12.0492 11.9703 12.2038C12.0076 12.2574 11.9768 12.4263 11.9626 12.5117L12.4844 13.4806C12.5402 13.5834 12.4993 13.7281 12.4437 13.8006C12.3944 13.8655 12.2063 13.826 12.1599 13.7304C11.9508 13.2944 11.7516 12.9097 11.4513 12.5105L11.4519 12.5104ZM11.0849 12.1015L10.6269 11.8641L10.643 12.2967L11.0849 12.1015Z" fill="black"/>
<path d="M10.2179 12.8356C10.2262 12.8842 10.2101 12.934 10.1744 12.9619C9.97704 13.1181 9.75962 13.2396 9.51885 13.3138C9.49265 13.3218 9.47844 13.3519 9.48857 13.3802C9.48857 13.3802 9.91283 14.4476 9.92373 14.5522C9.93463 14.6569 9.71686 14.7454 9.65429 14.7091C9.58858 14.6715 9.50969 14.5674 9.47713 14.4665C9.25074 13.7657 8.31927 11.8281 8.2074 11.5967C8.2 11.5809 8.19316 11.565 8.18737 11.5483C8.1699 11.4978 8.13277 11.3771 8.11836 11.2931C8.10395 11.209 8.16763 11.1287 8.24835 11.0896C8.35459 11.0384 8.46125 11.0889 8.53967 11.2314C8.55167 11.2534 8.5772 11.262 8.59845 11.2525C9.06604 11.0364 9.56525 10.9225 10.0895 10.9308C10.1301 10.9315 10.1688 10.9584 10.1863 10.999C10.4201 11.5407 9.61809 11.3059 8.88005 11.649C8.85994 11.6583 8.84827 11.6827 8.85353 11.7065C8.93824 12.1114 9.15853 12.6225 9.29196 12.9968C9.31434 13.0588 9.59188 12.9424 9.70743 12.8908L10.0541 12.736C10.1234 12.7053 10.2031 12.7529 10.2178 12.8351L10.2179 12.8356Z" fill="black"/>
<path d="M24.5206 11.1515L22.9315 11.134C22.9551 11.5112 23.2735 11.7666 23.0538 11.9531C22.9139 12.0718 22.6443 11.7521 22.5276 11.2633C22.4835 11.0778 22.4174 10.9492 22.2972 10.8162C22.2508 10.7648 22.2334 10.6907 22.2544 10.6247L22.3107 10.4503L22.1257 9.22773C22.1147 9.15371 22.2472 9.02979 22.3078 9.00646C22.3683 8.98313 22.5255 9.0509 22.5359 9.12206L22.6821 10.1042L23.1182 9.57464C23.1532 9.53216 23.2615 9.51006 23.3101 9.50995C23.3671 9.51018 23.4689 9.68275 23.4248 9.73385L22.8718 10.3688C22.8483 10.3958 22.7794 10.5176 22.7684 10.553C22.715 10.724 22.7455 10.7752 22.9052 10.7825L24.4379 10.7891C24.5903 10.7983 24.6056 10.8774 24.6375 10.9261C24.6693 10.9748 24.576 11.1426 24.5199 11.151L24.5206 11.1515Z" fill="black"/>
<path d="M13.0711 13.2093C13.565 13.3211 13.8336 12.5673 14.1125 12.8354C14.2615 12.9787 14.0845 13.2091 13.9809 13.3133C13.5597 13.7386 13.0049 13.7608 12.5442 13.3703C12.4054 13.2523 12.2831 13.1174 12.2518 12.901C12.1014 11.8701 12.4883 10.5777 13.1451 10.7292C13.3344 10.7726 13.449 10.9512 13.5172 11.1913C13.5545 11.3232 13.5429 11.437 13.4516 11.5379C13.391 11.6054 13.2144 11.6157 13.1712 11.5007L13.0586 11.2035C12.6464 11.356 12.5305 12.3566 12.6537 12.8832C12.702 13.0897 12.927 13.1764 13.071 13.2088L13.0711 13.2093Z" fill="black"/>
</g>
<defs>
<linearGradient id="paint0_linear_260_252" x1="25.06" y1="3.11" x2="6.93999" y2="28.89" gradientUnits="userSpaceOnUse">
<stop stop-color="#FDFAF1"/>
<stop offset="1" stop-color="#A29885"/>
</linearGradient>
<linearGradient id="paint1_linear_260_252" x1="25.01" y1="3.18" x2="7.01997" y2="28.77" gradientUnits="userSpaceOnUse">
<stop stop-color="#FFFBEC"/>
<stop offset="1" stop-color="#E1D1B7"/>
</linearGradient>
<linearGradient id="paint2_linear_260_252" x1="20.66" y1="28.15" x2="23.03" y2="28.15" gradientUnits="userSpaceOnUse">
<stop stop-color="#FFFBEC"/>
<stop offset="1" stop-color="#EFE6D2"/>
</linearGradient>
<linearGradient id="paint3_linear_260_252" x1="9.28" y1="2.57999" x2="10.56" y2="2.57999" gradientUnits="userSpaceOnUse">
<stop stop-color="#FFFBEC"/>
<stop offset="1" stop-color="#EFE6D2"/>
</linearGradient>
<linearGradient id="paint4_linear_260_252" x1="14.35" y1="2.57999" x2="15.43" y2="2.57999" gradientUnits="userSpaceOnUse">
<stop stop-color="#FFFBEC"/>
<stop offset="1" stop-color="#EFE6D2"/>
</linearGradient>
<linearGradient id="paint5_linear_260_252" x1="13.97" y1="2.57999" x2="15.06" y2="2.57999" gradientUnits="userSpaceOnUse">
<stop stop-color="#FFFBEC"/>
<stop offset="1" stop-color="#EFE6D2"/>
</linearGradient>
<linearGradient id="paint6_linear_260_252" x1="12.67" y1="2.57999" x2="13.75" y2="2.57999" gradientUnits="userSpaceOnUse">
<stop stop-color="#FFFBEC"/>
<stop offset="1" stop-color="#EFE6D2"/>
</linearGradient>
<linearGradient id="paint7_linear_260_252" x1="23.87" y1="28.14" x2="25.53" y2="28.14" gradientUnits="userSpaceOnUse">
<stop stop-color="#FFFBEC"/>
<stop offset="1" stop-color="#EFE6D2"/>
</linearGradient>
<linearGradient id="paint8_linear_260_252" x1="6.89999" y1="28.11" x2="8.82999" y2="28.11" gradientUnits="userSpaceOnUse">
<stop stop-color="#FFFBEC"/>
<stop offset="1" stop-color="#EFE6D2"/>
</linearGradient>
<linearGradient id="paint9_linear_260_252" x1="18.03" y1="2.57999" x2="20.41" y2="2.57999" gradientUnits="userSpaceOnUse">
<stop stop-color="#FFFBEC"/>
<stop offset="1" stop-color="#EFE6D2"/>
</linearGradient>
<linearGradient id="paint10_linear_260_252" x1="15.18" y1="2.57999" x2="18.58" y2="2.57999" gradientUnits="userSpaceOnUse">
<stop stop-color="#FFFBEC"/>
<stop offset="1" stop-color="#EFE6D2"/>
</linearGradient>
<linearGradient id="paint11_linear_260_252" x1="14.99" y1="6.46" x2="16.58" y2="3.84" gradientUnits="userSpaceOnUse">
<stop stop-color="#FDFAF1"/>
<stop offset="1" stop-color="#A29885"/>
</linearGradient>
<radialGradient id="paint12_radial_260_252" cx="0" cy="0" r="1" gradientUnits="userSpaceOnUse" gradientTransform="translate(17.05 19.455) scale(15.72)">
<stop stop-color="#C9C6B9" stop-opacity="0.2"/>
<stop offset="0.98" stop-color="#D3C4AB" stop-opacity="0"/>
</radialGradient>
<clipPath id="clip0_260_252">
<rect width="19.4" height="26.84" fill="white" transform="translate(6.29999 2.58)"/>
</clipPath>
</defs>
</svg>
