<svg width="32" height="32" viewBox="0 0 32 32" fill="none" xmlns="http://www.w3.org/2000/svg">
<g clip-path="url(#clip0_260_66)">
<path d="M23.71 2.58H8.28999C7.18999 2.58 6.29999 3.51 6.29999 4.67V27.33C6.29999 28.48 7.18999 29.42 8.28999 29.42H23.71C24.81 29.42 25.7 28.49 25.7 27.33V4.67C25.7 3.52 24.81 2.58 23.71 2.58ZM15.78 6.38C15.11 6.38 14.57 5.81 14.57 5.11C14.57 4.41 15.11 3.84 15.78 3.84C16.45 3.84 16.99 4.41 16.99 5.11C16.99 5.81 16.45 6.38 15.78 6.38Z" fill="url(#paint0_linear_260_66)"/>
<path d="M23.65 2.64H8.37997C7.28997 2.64 6.40997 3.57 6.40997 4.72V27.23C6.40997 28.37 7.28997 29.3 8.37997 29.3H23.65C24.74 29.3 25.62 28.37 25.62 27.23V4.72C25.62 3.58 24.74 2.65 23.65 2.65V2.64ZM15.79 6.42C15.13 6.42 14.59 5.86 14.59 5.16C14.59 4.46 15.13 3.9 15.79 3.9C16.45 3.9 16.99 4.46 16.99 5.16C16.99 5.86 16.45 6.42 15.79 6.42Z" fill="url(#paint1_linear_260_66)"/>
<path d="M6.37 27.36C6.37 28.45 7.22 29.33 8.28 29.33H23.69C24.74 29.33 25.6 28.45 25.6 27.36V17.6H6.37V27.36Z" fill="#932541"/>
<path d="M23.65 2.71H8.38C7.29 2.71 6.41 3.59 6.41 4.68V5.58H14.64C14.57 5.41 14.54 5.25 14.54 5.07C14.54 4.38 15.1 3.82 15.79 3.82C16.48 3.82 17.04 4.38 17.04 5.07C17.04 5.25 17 5.41 16.94 5.56H25.63V4.68C25.63 3.59 24.75 2.71 23.66 2.71H23.65Z" fill="#932541"/>
<path d="M20.54 29.12H22.03L22.92 27.26H21.44L20.54 29.12Z" fill="url(#paint2_linear_260_66)"/>
<path d="M9.17001 29.12H9.56001L10.45 27.26H10.06L9.17001 29.12Z" fill="url(#paint3_linear_260_66)"/>
<path d="M14.23 29.12H14.42L15.32 27.26H15.13L14.23 29.12Z" fill="url(#paint4_linear_260_66)"/>
<path d="M13.86 29.12H14.05L14.94 27.26H14.75L13.86 29.12Z" fill="url(#paint5_linear_260_66)"/>
<path d="M12.55 29.12H12.75L13.64 27.26H13.45L12.55 29.12Z" fill="url(#paint6_linear_260_66)"/>
<path d="M25.42 27.26H24.65L23.76 29.1C24.66 28.98 25.36 28.21 25.42 27.26Z" fill="url(#paint7_linear_260_66)"/>
<path d="M7.86 29.04L8.72 27.26H7.23L6.78 28.19C7.02 28.59 7.4 28.9 7.85 29.04H7.86Z" fill="url(#paint8_linear_260_66)"/>
<path d="M17.92 29.12H19.4L20.3 27.26H18.81L17.92 29.12Z" fill="url(#paint9_linear_260_66)"/>
<path d="M15.07 29.12H17.57L18.47 27.26H15.96L15.07 29.12Z" fill="url(#paint10_linear_260_66)"/>
<path d="M24.53 15.47H24.36V17.35H24.53V15.47Z" fill="#444549"/>
<path d="M24.12 15.47H23.95V17.35H24.12V15.47Z" fill="#444549"/>
<path d="M23.67 15.47H23.5V17.35H23.67V15.47Z" fill="#444549"/>
<path d="M13.01 4.01C13.01 4.01 12.99 3.99 12.99 3.98C12.99 3.98 12.97 3.96 12.96 3.96C12.96 3.96 12.94 3.95 12.93 3.94C12.93 3.94 12.98 3.92 13 3.91C13.02 3.9 13.04 3.88 13.05 3.87C13.06 3.85 13.07 3.84 13.08 3.81C13.08 3.79 13.09 3.77 13.09 3.74C13.09 3.71 13.09 3.68 13.07 3.66C13.06 3.64 13.04 3.62 13.02 3.6C13 3.58 12.98 3.57 12.95 3.56C12.92 3.56 12.89 3.55 12.86 3.55H12.65V4.27H12.73V3.97H12.8C12.8 3.97 12.83 3.97 12.84 3.97C12.85 3.97 12.86 3.97 12.87 3.99C12.88 3.99 12.89 4.01 12.9 4.02C12.91 4.03 12.92 4.05 12.93 4.07L13.05 4.27H13.15L13.02 4.05C13.02 4.05 13 4.02 12.99 4.01H13.01ZM12.92 3.87C12.92 3.87 12.88 3.87 12.86 3.87H12.75V3.61H12.86C12.86 3.61 12.94 3.62 12.97 3.64C12.99 3.66 13.01 3.69 13.01 3.73C13.01 3.75 13.01 3.77 13 3.79C13 3.81 12.98 3.82 12.97 3.83C12.96 3.84 12.94 3.85 12.92 3.86V3.87Z" fill="#CBC4B5"/>
<path d="M11.34 3.94H11.6V3.86H11.34V3.62H11.62V3.55H11.25V4.26H11.63V4.19H11.34V3.94Z" fill="#CBC4B5"/>
<path d="M9.74997 3.62H9.95997V4.26H10.04V3.62H10.25V3.55H9.74997V3.62Z" fill="#CBC4B5"/>
<path d="M8.66998 4.05C8.66998 4.05 8.66998 4.13 8.66998 4.16C8.66998 4.16 8.65998 4.14 8.63998 4.11L8.27998 3.55H8.16998V4.27H8.24998V3.75C8.24998 3.7 8.24998 3.67 8.24998 3.65C8.24998 3.65 8.25998 3.68 8.26998 3.69L8.63998 4.26H8.73998V3.54H8.65998V4.04L8.66998 4.05Z" fill="#CBC4B5"/>
<path d="M15.98 3.83L16.03 3.68C16.03 3.68 16.03 3.65 16.04 3.63C16.04 3.63 16.04 3.67 16.05 3.68L16.12 3.87C16.12 3.87 16.19 3.9 16.23 3.91L16.09 3.54H16L15.9 3.81C15.9 3.81 15.95 3.81 15.98 3.83Z" fill="#CBC4B5"/>
<path d="M7.08998 3.55H7.00998V4.27H7.08998V3.55Z" fill="#CBC4B5"/>
<path d="M20.18 3.53C20.07 3.53 19.99 3.56 19.93 3.63C19.87 3.7 19.84 3.79 19.84 3.91C19.84 4.02 19.87 4.1 19.93 4.17C19.99 4.24 20.07 4.27 20.17 4.27C20.27 4.27 20.36 4.24 20.42 4.17C20.48 4.1 20.51 4.01 20.51 3.89C20.51 3.78 20.48 3.7 20.42 3.63C20.36 3.56 20.28 3.53 20.18 3.53ZM20.35 4.12C20.3 4.17 20.24 4.2 20.16 4.2C20.09 4.2 20.03 4.17 19.98 4.12C19.93 4.07 19.91 4 19.91 3.91C19.91 3.82 19.93 3.75 19.98 3.7C20.03 3.65 20.09 3.62 20.16 3.62C20.23 3.62 20.3 3.65 20.34 3.7C20.38 3.75 20.41 3.82 20.41 3.92C20.41 4.02 20.39 4.08 20.34 4.14L20.35 4.12Z" fill="#CBC4B5"/>
<path d="M23.38 3.55L23.11 4.27H23.2L23.27 4.07H23.57L23.65 4.27H23.74L23.46 3.55H23.37H23.38ZM23.3 3.99L23.41 3.68C23.41 3.68 23.41 3.65 23.42 3.63C23.42 3.63 23.42 3.67 23.43 3.68L23.54 3.99H23.29H23.3Z" fill="#CBC4B5"/>
<path d="M24.83 4.19V3.55H24.74V4.26H25.11V4.19H24.83Z" fill="#CBC4B5"/>
<path d="M22.03 4.05C22.03 4.05 22.03 4.13 22.03 4.16C22.03 4.16 22.02 4.14 22 4.11L21.64 3.55H21.53V4.27H21.61V3.75C21.61 3.7 21.61 3.67 21.61 3.65C21.61 3.65 21.62 3.68 21.63 3.69L22 4.26H22.1V3.54H22.02V4.04L22.03 4.05Z" fill="#CBC4B5"/>
<path d="M18.8 3.55H18.72V4.27H18.8V3.55Z" fill="#CBC4B5"/>
<path d="M14.27 3.69L14.64 4.26H14.74V3.54H14.66V4.04C14.66 4.04 14.66 4.12 14.66 4.15C14.66 4.15 14.65 4.13 14.63 4.1L14.27 3.54H14.16V4.26H14.24V3.74C14.24 3.69 14.24 3.66 14.24 3.64C14.24 3.64 14.25 3.67 14.26 3.68L14.27 3.69Z" fill="#CBC4B5"/>
<path d="M17.22 3.62H17.42V4.26H17.51V3.62H17.71V3.55H17.22V3.62Z" fill="#CBC4B5"/>
<path d="M15.78 3.89C15.09 3.89 14.53 4.46 14.53 5.15C14.53 5.84 15.09 6.41 15.78 6.41C16.47 6.41 17.03 5.84 17.03 5.15C17.03 4.46 16.47 3.89 15.78 3.89ZM15.78 6.36C15.12 6.36 14.59 5.82 14.59 5.15C14.59 4.48 15.12 3.94 15.78 3.94C16.44 3.94 16.97 4.48 16.97 5.15C16.97 5.82 16.44 6.36 15.78 6.36Z" fill="url(#paint11_linear_260_66)"/>
<path opacity="0.31" d="M6.39999 25.19V21.92C7.00999 21.96 8.38999 23.74 9.21999 23.83C10.53 23.97 12.39 19.15 13.73 20.75C15.46 22.81 17.4 22.39 18.4 22.02C19.23 21.71 20.69 24.02 21.88 23.99C24.15 23.94 24.49 21.41 24.99 21.5L25.54 25.65C25.54 26.96 24.68 28.3 23.61 28.63L8.32999 26.97C7.25999 27.3 6.39999 26.5 6.39999 25.19Z" fill="url(#paint12_linear_260_66)"/>
<path d="M10.74 24.43L10.23 22.38L10.25 26.48H9.09998V19.63H10.41L11.17 22.36L11.92 19.63H13.19V26.48L12.09 26.51L12.05 22.49L11.56 24.43H10.73H10.74Z" fill="#ECE2CC"/>
<path d="M17.19 26.48L16.95 24.85H15.65L15.37 26.48H14.13L15.43 19.63H17.19L18.5 26.48H17.2H17.19ZM16.77 23.67L16.34 20.79L15.85 23.67H16.77Z" fill="#ECE2CC"/>
<path d="M19.36 26.48V19.63H21.3C21.89 19.63 22.35 19.78 22.68 20.09C23.01 20.4 23.18 20.86 23.18 21.49V22.57C23.18 23.19 23.02 23.64 22.7 23.92C22.38 24.21 21.92 24.35 21.31 24.35H20.71V26.48H19.37H19.36ZM20.7 23.18H21.21C21.4 23.18 21.54 23.13 21.63 23.02C21.72 22.91 21.77 22.71 21.77 22.41V21.61C21.77 21.3 21.72 21.09 21.63 20.98C21.54 20.87 21.4 20.81 21.21 20.81H20.7V23.18Z" fill="#ECE2CC"/>
<path d="M9.41 19.33C9.29 19.33 9.21 19.3 9.15 19.24C9.09 19.18 9.06 19.1 9.06 18.98V18.63C9.06 18.51 9.09 18.43 9.15 18.37C9.21 18.31 9.29 18.28 9.41 18.28C9.53 18.28 9.61 18.31 9.66 18.37C9.71 18.43 9.74 18.52 9.75 18.65H9.51C9.51 18.58 9.5 18.53 9.49 18.5C9.48 18.47 9.45 18.46 9.41 18.46C9.37 18.46 9.34 18.47 9.33 18.5C9.32 18.53 9.31 18.58 9.31 18.65V18.95C9.31 19.02 9.31 19.07 9.33 19.1C9.35 19.13 9.37 19.14 9.41 19.14C9.45 19.14 9.47 19.13 9.48 19.1C9.49 19.08 9.5 19.02 9.51 18.94H9.75C9.75 19.08 9.72 19.17 9.66 19.23C9.61 19.29 9.52 19.32 9.41 19.32V19.33Z" fill="#ECE2CC"/>
<path d="M11.02 19.33C10.92 19.33 10.83 19.3 10.78 19.24C10.72 19.18 10.7 19.1 10.7 19V18.63C10.7 18.52 10.73 18.44 10.78 18.38C10.84 18.32 10.92 18.29 11.02 18.29C11.12 18.29 11.21 18.32 11.26 18.38C11.32 18.44 11.34 18.52 11.34 18.63V19C11.34 19.1 11.31 19.19 11.26 19.24C11.2 19.3 11.12 19.33 11.02 19.33ZM11.02 19.15C11.02 19.15 11.08 19.14 11.09 19.11C11.1 19.09 11.11 19.04 11.11 18.97V18.64C11.11 18.57 11.11 18.52 11.09 18.49C11.08 18.46 11.05 18.45 11.02 18.45C10.99 18.45 10.96 18.46 10.95 18.49C10.94 18.52 10.93 18.56 10.93 18.64V18.97C10.93 19.04 10.93 19.09 10.95 19.11C10.96 19.13 10.99 19.15 11.02 19.15Z" fill="#ECE2CC"/>
<path d="M12.58 19.01L12.49 18.66L12.52 19.32H12.31V18.3H12.52L12.65 18.77L12.78 18.3H12.98V19.32H12.77L12.8 18.68L12.72 19.02H12.58V19.01Z" fill="#ECE2CC"/>
<path d="M14.21 19.01L14.12 18.66L14.15 19.32H13.94V18.3H14.15L14.28 18.77L14.41 18.3H14.61V19.32H14.4L14.43 18.68L14.35 19.02H14.21V19.01Z" fill="#ECE2CC"/>
<path d="M15.9 19.33C15.79 19.33 15.7 19.3 15.65 19.24C15.6 19.18 15.57 19.09 15.57 18.96V18.3H15.81V18.96C15.81 19.03 15.81 19.08 15.83 19.1C15.84 19.13 15.87 19.14 15.9 19.14C15.93 19.14 15.96 19.13 15.97 19.1C15.98 19.07 15.99 19.03 15.99 18.96V18.3H16.23V18.96C16.23 19.08 16.2 19.18 16.15 19.24C16.1 19.3 16.01 19.33 15.9 19.33Z" fill="#ECE2CC"/>
<path d="M17.59 19.32L17.4 18.63V19.32H17.2V18.3H17.45L17.66 19.02V18.3H17.86V19.32H17.59Z" fill="#ECE2CC"/>
<path d="M18.83 19.32V19.14H19.04V18.47H18.83V18.29H19.49V18.47H19.28V19.14H19.49V19.32H18.83Z" fill="#ECE2CC"/>
<path d="M20.67 19.32V18.48H20.44V18.3H21.14V18.48H20.91V19.32H20.67Z" fill="#ECE2CC"/>
<path d="M22.54 19.32H22.3V18.94L22.05 18.31H22.28L22.41 18.71L22.55 18.31H22.78L22.53 18.94V19.32H22.54Z" fill="#ECE2CC"/>
<path d="M21.935 6.03L21.675 6.56H21.595L21.835 6.07H21.505V6.01H21.925V6.03H21.935Z" fill="#444549"/>
<path d="M22.045 6.53001V6.46001C22.045 6.46001 22.135 6.50001 22.195 6.50001C22.245 6.50001 22.275 6.50001 22.305 6.47001C22.335 6.45001 22.345 6.43001 22.345 6.39001C22.345 6.32001 22.285 6.28001 22.165 6.28001H22.115V6.23001H22.165C22.275 6.23001 22.325 6.20001 22.325 6.13001C22.325 6.07001 22.285 6.04001 22.205 6.04001C22.155 6.04001 22.115 6.05001 22.075 6.08001V6.02001C22.075 6.02001 22.165 5.99001 22.225 5.99001C22.285 5.99001 22.325 6.00001 22.355 6.03001C22.385 6.06001 22.405 6.09001 22.405 6.12001C22.405 6.19001 22.365 6.24001 22.275 6.26001C22.275 6.26001 22.355 6.28001 22.385 6.30001C22.415 6.32001 22.425 6.35001 22.425 6.39001C22.425 6.44001 22.405 6.48001 22.365 6.51001C22.325 6.54001 22.265 6.56001 22.195 6.56001C22.135 6.56001 22.085 6.56001 22.045 6.53001Z" fill="#444549"/>
<path d="M22.555 6.54V6.47C22.555 6.47 22.645 6.51 22.695 6.51C22.745 6.51 22.775 6.5 22.805 6.48C22.835 6.46 22.845 6.43 22.845 6.39C22.845 6.35 22.835 6.33 22.805 6.31C22.775 6.29 22.735 6.28 22.685 6.28C22.665 6.28 22.635 6.28 22.585 6.28V6.01H22.905V6.07H22.655V6.23C22.655 6.23 22.695 6.23 22.715 6.23C22.785 6.23 22.835 6.24 22.875 6.27C22.915 6.3 22.935 6.34 22.935 6.39C22.935 6.44 22.915 6.49 22.875 6.52C22.835 6.55 22.775 6.57 22.705 6.57C22.645 6.57 22.595 6.57 22.565 6.55L22.555 6.54Z" fill="#444549"/>
<path d="M23.065 6.54V6.47C23.065 6.47 23.155 6.51 23.205 6.51C23.255 6.51 23.285 6.5 23.315 6.48C23.345 6.46 23.355 6.43 23.355 6.39C23.355 6.35 23.345 6.33 23.315 6.31C23.285 6.29 23.245 6.28 23.195 6.28C23.175 6.28 23.145 6.28 23.095 6.28V6.01H23.415V6.07H23.165V6.23C23.165 6.23 23.205 6.23 23.225 6.23C23.295 6.23 23.345 6.24 23.385 6.27C23.425 6.3 23.445 6.34 23.445 6.39C23.445 6.44 23.425 6.49 23.385 6.52C23.345 6.55 23.285 6.57 23.215 6.57C23.155 6.57 23.105 6.57 23.075 6.55L23.065 6.54Z" fill="#444549"/>
<path d="M23.915 6.01V6.07C23.915 6.07 23.845 6.05 23.805 6.05C23.745 6.05 23.705 6.07 23.665 6.11C23.625 6.15 23.615 6.21 23.615 6.28C23.645 6.23 23.695 6.2 23.765 6.2C23.825 6.2 23.865 6.22 23.905 6.25C23.935 6.28 23.955 6.32 23.955 6.37C23.955 6.42 23.935 6.47 23.895 6.5C23.855 6.53 23.805 6.55 23.745 6.55C23.675 6.55 23.625 6.53 23.595 6.48C23.565 6.43 23.535 6.38 23.535 6.3C23.535 6.2 23.555 6.13 23.605 6.07C23.655 6.01 23.715 5.98 23.795 5.98C23.845 5.98 23.875 5.98 23.905 6L23.915 6.01ZM23.755 6.26C23.755 6.26 23.685 6.27 23.665 6.29C23.645 6.31 23.625 6.34 23.625 6.37C23.625 6.41 23.635 6.44 23.665 6.47C23.685 6.5 23.725 6.51 23.755 6.51C23.785 6.51 23.825 6.5 23.845 6.48C23.865 6.46 23.875 6.43 23.875 6.39C23.875 6.35 23.865 6.32 23.845 6.3C23.825 6.28 23.795 6.27 23.755 6.27V6.26Z" fill="#444549"/>
<path d="M24.235 6.56C24.175 6.56 24.115 6.54 24.085 6.49C24.045 6.44 24.035 6.38 24.035 6.29C24.035 6.19 24.055 6.12 24.095 6.07C24.135 6.02 24.185 6 24.255 6C24.395 6 24.455 6.09 24.455 6.28C24.455 6.37 24.435 6.44 24.395 6.49C24.355 6.54 24.305 6.56 24.235 6.56ZM24.245 6.05C24.155 6.05 24.105 6.13 24.105 6.29C24.105 6.44 24.155 6.51 24.245 6.51C24.335 6.51 24.385 6.43 24.385 6.28C24.385 6.13 24.345 6.05 24.255 6.05H24.245Z" fill="#444549"/>
<path d="M24.675 6.27C24.595 6.24 24.555 6.19 24.555 6.14C24.555 6.1 24.575 6.07 24.605 6.04C24.645 6.01 24.685 6 24.745 6C24.795 6 24.835 6.01 24.875 6.04C24.905 6.06 24.925 6.09 24.925 6.13C24.925 6.19 24.885 6.24 24.805 6.27C24.905 6.3 24.945 6.35 24.945 6.42C24.945 6.47 24.925 6.5 24.885 6.53C24.845 6.56 24.795 6.57 24.725 6.57C24.665 6.57 24.625 6.56 24.585 6.53C24.545 6.5 24.535 6.47 24.535 6.43C24.535 6.36 24.585 6.31 24.675 6.28V6.27ZM24.735 6.3C24.655 6.33 24.615 6.37 24.615 6.42C24.615 6.45 24.625 6.47 24.655 6.49C24.685 6.51 24.715 6.52 24.755 6.52C24.795 6.52 24.825 6.52 24.845 6.49C24.865 6.46 24.885 6.45 24.885 6.43C24.885 6.38 24.845 6.33 24.755 6.31L24.735 6.3ZM24.855 6.13C24.855 6.13 24.855 6.09 24.825 6.07C24.805 6.06 24.785 6.05 24.745 6.05C24.715 6.05 24.685 6.05 24.665 6.07C24.645 6.09 24.635 6.1 24.635 6.13C24.635 6.18 24.675 6.21 24.745 6.24C24.815 6.22 24.855 6.18 24.855 6.13Z" fill="#444549"/>
<path d="M9.08866 12.7462L9.67955 12.1756C10.0272 11.8403 10.3112 11.4854 10.5465 11.0571C10.5709 11.013 10.6387 10.9557 10.6774 10.9349C10.7161 10.9142 10.8571 10.9615 10.855 11.0056C10.8295 11.4891 10.723 11.716 10.3536 12.0847L9.92438 12.5135L9.54759 12.8142C9.3107 13.0034 9.08548 13.2154 8.75055 13.2329C8.60269 13.2409 8.35945 13.0629 8.3303 12.9141C8.26671 12.5858 8.33136 12.2701 8.38277 11.9694C8.29692 11.9062 8.20258 11.7946 8.19146 11.7149C8.18139 11.6432 8.27466 11.5247 8.34143 11.4785L8.58998 11.3058C8.86078 10.5625 9.46863 9.20495 10.1289 8.97276C10.4612 8.85587 10.9058 9.13959 10.9101 9.4892L10.9191 10.241C10.9196 10.2952 10.8767 10.3399 10.8226 10.3399C10.7352 10.3399 10.634 10.3133 10.5773 10.2628C10.3982 10.1039 10.5614 9.825 10.4729 9.60981C10.0224 9.73892 9.58151 10.3903 9.33137 10.8691L10.077 10.597C10.1173 10.5821 10.2471 10.63 10.2429 10.6693L10.1925 10.9482C10.1809 11.013 10.1422 11.0699 10.086 11.105L9.64404 11.3786C9.38172 11.5406 9.0505 11.6405 8.8417 11.8839C8.66258 12.0922 8.51843 12.8063 8.73518 12.8573C8.82474 12.8785 9.01658 12.8164 9.08972 12.7457L9.08866 12.7462Z" fill="black"/>
<path d="M12.3139 11.7585C12.1687 11.8222 12.0558 11.9014 11.9398 12.0055L10.9472 12.8976C11.2334 12.2941 11.4623 11.7633 11.6154 11.1443C11.7267 10.6942 11.865 10.2883 12.0728 9.87122C12.0919 9.83244 12.0982 9.78834 12.0892 9.74636L12.0489 9.55721C12.0187 9.41588 11.8492 9.35903 11.74 9.45254C11.483 9.67304 11.3335 10.2458 11.2466 10.6337C11.1093 11.2468 10.9376 11.8201 10.7198 12.4104C10.616 12.6926 10.457 12.9715 10.4819 13.2855C10.5057 13.4332 10.8592 13.5815 10.9896 13.498C11.342 13.2717 11.6186 12.9853 11.8862 12.675L12.1502 12.369L12.315 12.0491V11.7585H12.3139Z" fill="black"/>
<path d="M19.4877 11.0953L19.4151 9.58636C19.4109 9.49816 19.2408 9.41314 19.1677 9.46787C18.9933 9.59858 18.8863 9.75904 18.7803 9.94341C18.6064 10.3961 18.474 10.8185 18.3796 11.3073C18.2667 11.4922 17.9461 11.3913 17.9716 11.683C17.9822 11.8057 18.0627 11.8716 18.2493 11.912L18.112 12.5549C17.9917 12.617 17.7601 12.6383 17.6441 12.5719C17.5508 12.5182 17.4527 12.3561 17.4204 12.2233L17.1645 11.1771C17.4798 10.8923 17.7898 10.6081 18.0198 10.2675C18.1809 10.0284 18.1979 9.8026 18.192 9.52897C18.1899 9.42005 18.1968 9.26172 18.1343 9.18042C18.0829 9.11401 17.9074 9.08213 17.8041 9.10126C17.3611 9.18255 17.0669 9.50825 16.8232 9.87221L16.7431 9.54969C16.6366 9.54969 16.4994 9.55448 16.4861 9.60761L16.4612 9.70803L16.405 10.9641L16.1348 11.9991L16.0653 12.6516C16.0574 12.7238 16.1888 12.8349 16.2503 12.8381C16.316 12.8412 16.3865 12.752 16.4109 12.667L16.7643 11.4311C17.0532 12.0087 16.944 12.7461 17.483 12.9629C17.7018 13.0511 17.909 13.0543 18.0961 12.9008L18.1894 13.2945C18.2053 13.3625 18.4496 13.3439 18.449 13.2759C18.4469 12.7685 18.5243 12.3019 18.669 11.8291L18.9758 11.7557C18.8454 12.3301 18.5296 13.4911 18.856 13.5219C18.917 13.5277 19.0458 13.44 19.0527 13.371C19.1163 12.7376 19.2339 12.1441 19.4316 11.5634C19.6594 11.4237 19.81 11.311 19.9779 11.0943L19.4888 11.0953H19.4877ZM17.7363 9.69103C17.6112 10.1171 17.2954 10.3972 16.9843 10.6809C17.1194 10.2755 17.333 9.90037 17.7363 9.69103ZM18.8105 11.2521C18.8672 10.972 18.9334 10.7441 19.0786 10.4662C19.1205 10.9386 19.1475 11.3084 18.8105 11.2521Z" fill="black"/>
<path d="M14.7459 9.83253C14.7258 9.57058 14.624 9.29164 14.4651 9.11896C14.314 8.95425 14.1381 8.91387 13.9743 8.96966C13.7793 9.03554 13.6675 9.32777 13.5631 9.53126L13.4242 9.48557C13.3707 9.46804 13.3262 9.49779 13.313 9.56102C13.252 9.84103 13.1413 10.1216 13.1328 10.4372L13.1004 11.2586C13.0967 11.2586 13.1004 11.3898 13.0973 11.3898L13.092 11.6018C13.0914 11.6311 13.0893 11.6597 13.0856 11.6874L13.0777 11.7522C13.0347 11.9392 12.818 12.1167 12.9335 12.3988C13.0061 12.5763 13.0416 12.6724 13.0686 12.8717C13.0824 12.9737 13.2478 13.1352 13.3183 13.1262L13.4407 12.478L13.7608 12.0513C13.9775 11.6311 14.49 11.2751 14.6368 10.6938C14.6818 10.5163 14.738 10.316 14.7555 10.0822L14.7465 9.83359L14.7459 9.83253ZM13.5308 11.5067C13.4953 11.0137 13.6341 10.6662 13.7316 10.2687C13.9367 9.43297 14.3522 9.41756 14.4094 9.66782C14.544 10.2565 13.9611 11.1194 13.5302 11.5067H13.5308Z" fill="black"/>
<path d="M16.1377 10.4918C16.1316 10.2974 16.0376 9.92117 16.0111 9.84732L15.9407 9.65232C15.8582 9.54872 15.7047 9.52959 15.598 9.60982C15.5446 9.64967 15.4901 9.69749 15.4362 9.74796C15.2233 9.94615 15.0604 10.1884 14.9603 10.4567L14.4893 11.7218C14.447 11.8355 14.4233 11.9545 14.4184 12.0752C14.409 12.3036 14.4074 12.5204 14.5064 12.7483C14.606 12.9784 15.0016 13.0804 15.2035 12.9232C15.6502 12.5757 15.8587 12.1203 16.053 11.6002L16.1173 11.1188C16.1437 10.9206 16.1432 10.6863 16.1377 10.4918ZM15.2172 12.4179C15.1644 12.4992 15.083 12.5544 14.9746 12.5921C14.9042 12.6171 14.8277 12.5751 14.8095 12.505C14.7435 12.251 14.7859 12.0279 14.8635 11.7861L15.1292 10.9551C15.28 10.9381 15.3581 10.8807 15.4032 10.7389L15.544 10.2974C15.5578 10.2538 15.7074 10.2357 15.7454 10.2633C15.7834 10.291 15.8301 10.3877 15.8318 10.4488C15.8505 11.1608 15.6046 11.8228 15.2172 12.4179Z" fill="black"/>
<path d="M23.1066 10.5212C23.1008 10.3268 23.0102 9.9506 22.9848 9.87675L22.9169 9.68175C22.8374 9.57814 22.6896 9.55901 22.5868 9.63924C22.5354 9.67909 22.4829 9.72691 22.431 9.77739C22.2259 9.97557 22.069 10.2179 21.9726 10.4862L21.5189 11.7513C21.4781 11.865 21.4553 11.984 21.4506 12.1046C21.4416 12.3331 21.44 12.5498 21.5354 12.7778C21.6313 13.0078 22.0123 13.1098 22.2068 12.9526C22.6371 12.6051 22.838 12.1497 23.025 11.6296L23.087 11.1482C23.1125 10.95 23.1125 10.7157 23.1072 10.5212H23.1066ZM22.22 12.4468C22.1692 12.528 22.0907 12.5833 21.9863 12.621C21.9185 12.646 21.8448 12.604 21.8274 12.5339C21.7638 12.2799 21.8046 12.0568 21.8793 11.815L22.1353 10.984C22.3207 10.4968 22.5348 10.3268 22.5348 10.3268C22.5481 10.2832 22.6922 10.2651 22.7288 10.2928C22.7654 10.3204 22.8104 10.4171 22.812 10.4782C22.83 11.1902 22.5931 11.8522 22.22 12.4473V12.4468Z" fill="black"/>
<path d="M21.0465 11.7756C21.225 11.5307 21.357 11.2411 21.4434 11.0179C21.5494 10.4781 21.5229 9.83626 21.2176 9.48134C21.0957 9.34001 20.9325 9.30228 20.7709 9.43511C20.6421 9.54085 20.4307 9.70662 20.3713 9.85433C20.172 10.3538 20.0655 10.8203 19.9855 11.3351L19.7968 12.5508C19.7576 12.8048 19.4736 12.8393 19.5356 13.0401C19.5891 13.2134 19.914 13.259 20.0141 13.1384C20.056 12.9891 20.2033 12.8813 20.3575 12.8404C20.4662 12.6576 20.7682 12.1566 21.0465 11.7756ZM20.5891 10.7836C20.6442 10.4691 20.7052 10.1869 20.9696 9.94147C21.3257 10.3293 20.9521 11.2172 20.5896 11.6954L20.3814 11.9695L20.5891 10.7836Z" fill="black"/>
</g>
<defs>
<linearGradient id="paint0_linear_260_66" x1="25.06" y1="3.11" x2="6.93999" y2="28.89" gradientUnits="userSpaceOnUse">
<stop stop-color="#FDFAF1"/>
<stop offset="1" stop-color="#A29885"/>
</linearGradient>
<linearGradient id="paint1_linear_260_66" x1="25.01" y1="3.18" x2="7.01997" y2="28.77" gradientUnits="userSpaceOnUse">
<stop stop-color="#FFFBEC"/>
<stop offset="1" stop-color="#E1D1B7"/>
</linearGradient>
<linearGradient id="paint2_linear_260_66" x1="20.54" y1="28.19" x2="22.92" y2="28.19" gradientUnits="userSpaceOnUse">
<stop stop-color="#FFFBEC"/>
<stop offset="1" stop-color="#EFE6D2"/>
</linearGradient>
<linearGradient id="paint3_linear_260_66" x1="9.17001" y1="2.57999" x2="10.45" y2="2.57999" gradientUnits="userSpaceOnUse">
<stop stop-color="#FFFBEC"/>
<stop offset="1" stop-color="#EFE6D2"/>
</linearGradient>
<linearGradient id="paint4_linear_260_66" x1="14.23" y1="2.57999" x2="15.32" y2="2.57999" gradientUnits="userSpaceOnUse">
<stop stop-color="#FFFBEC"/>
<stop offset="1" stop-color="#EFE6D2"/>
</linearGradient>
<linearGradient id="paint5_linear_260_66" x1="13.86" y1="2.57999" x2="14.94" y2="2.57999" gradientUnits="userSpaceOnUse">
<stop stop-color="#FFFBEC"/>
<stop offset="1" stop-color="#EFE6D2"/>
</linearGradient>
<linearGradient id="paint6_linear_260_66" x1="12.55" y1="2.57999" x2="13.64" y2="2.57999" gradientUnits="userSpaceOnUse">
<stop stop-color="#FFFBEC"/>
<stop offset="1" stop-color="#EFE6D2"/>
</linearGradient>
<linearGradient id="paint7_linear_260_66" x1="23.76" y1="28.18" x2="25.42" y2="28.18" gradientUnits="userSpaceOnUse">
<stop stop-color="#FFFBEC"/>
<stop offset="1" stop-color="#EFE6D2"/>
</linearGradient>
<linearGradient id="paint8_linear_260_66" x1="6.78" y1="28.15" x2="8.71" y2="28.15" gradientUnits="userSpaceOnUse">
<stop stop-color="#FFFBEC"/>
<stop offset="1" stop-color="#EFE6D2"/>
</linearGradient>
<linearGradient id="paint9_linear_260_66" x1="17.92" y1="2.57999" x2="20.3" y2="2.57999" gradientUnits="userSpaceOnUse">
<stop stop-color="#FFFBEC"/>
<stop offset="1" stop-color="#EFE6D2"/>
</linearGradient>
<linearGradient id="paint10_linear_260_66" x1="15.07" y1="2.57999" x2="18.47" y2="2.57999" gradientUnits="userSpaceOnUse">
<stop stop-color="#FFFBEC"/>
<stop offset="1" stop-color="#EFE6D2"/>
</linearGradient>
<linearGradient id="paint11_linear_260_66" x1="14.99" y1="6.46" x2="16.58" y2="3.84" gradientUnits="userSpaceOnUse">
<stop stop-color="#FDFAF1"/>
<stop offset="1" stop-color="#A29885"/>
</linearGradient>
<linearGradient id="paint12_linear_260_66" x1="-40.5612" y1="40.6875" x2="-37.7485" y2="49.293" gradientUnits="userSpaceOnUse">
<stop offset="0.12" stop-color="#FFFBEC" stop-opacity="0.5"/>
<stop offset="0.68" stop-color="#FFEDD0" stop-opacity="0"/>
</linearGradient>
<clipPath id="clip0_260_66">
<rect width="19.4" height="26.84" fill="white" transform="translate(6.29999 2.58)"/>
</clipPath>
</defs>
</svg>
