<svg width="32" height="32" viewBox="0 0 32 32" fill="none" xmlns="http://www.w3.org/2000/svg">
<g clip-path="url(#clip0_260_2)">
<path d="M23.74 2.52H8.26001C7.16001 2.52 6.26001 3.46 6.26001 4.62V27.38C6.26001 28.54 7.16001 29.48 8.26001 29.48H23.74C24.84 29.48 25.74 28.54 25.74 27.38V4.62C25.74 3.46 24.84 2.52 23.74 2.52ZM15.78 6.34C15.11 6.34 14.57 5.77 14.57 5.07C14.57 4.37 15.11 3.8 15.78 3.8C16.45 3.8 16.99 4.37 16.99 5.07C16.99 5.77 16.45 6.34 15.78 6.34Z" fill="url(#paint0_linear_260_2)"/>
<path d="M23.7 2.60001H8.36C7.27 2.60001 6.38 3.53001 6.38 4.68001V27.29C6.38 28.44 7.27 29.37 8.36 29.37H23.7C24.79 29.37 25.68 28.44 25.68 27.29V4.68001C25.68 3.53001 24.79 2.60001 23.7 2.60001ZM15.81 6.40001C15.15 6.40001 14.61 5.83001 14.61 5.14001C14.61 4.45001 15.15 3.88001 15.81 3.88001C16.47 3.88001 17.01 4.45001 17.01 5.14001C17.01 5.83001 16.47 6.40001 15.81 6.40001Z" fill="url(#paint1_linear_260_2)"/>
<path d="M6.33002 27.41C6.33002 28.5 7.19002 29.39 8.24002 29.39H23.71C24.77 29.39 25.62 28.5 25.62 27.41V17.61H6.33002V27.41Z" fill="#228F47"/>
<path d="M23.69 2.65H8.35003C7.25003 2.65 6.37003 3.54 6.37003 4.63V5.53H14.63C14.56 5.36 14.53 5.2 14.53 5.02C14.53 4.33 15.09 3.76 15.79 3.76C16.49 3.76 17.05 4.32 17.05 5.02C17.05 5.2 17.01 5.36 16.95 5.52H25.67V4.63C25.67 3.54 24.78 2.65 23.69 2.65Z" fill="#228F47"/>
<path d="M20.56 29.18H22.05L22.95 27.31H21.46L20.56 29.18Z" fill="#ECE2CC"/>
<path d="M9.14001 29.18H9.53001L10.43 27.31H10.04L9.14001 29.18Z" fill="#ECE2CC"/>
<path d="M14.23 29.18H14.42L15.32 27.31H15.13L14.23 29.18Z" fill="#ECE2CC"/>
<path d="M13.85 29.18H14.04L14.94 27.31H14.75L13.85 29.18Z" fill="#ECE2CC"/>
<path d="M12.54 29.18H12.73L13.63 27.31H13.44L12.54 29.18Z" fill="#ECE2CC"/>
<path d="M25.46 27.31H24.69L23.8 29.16C24.7 29.04 25.41 28.27 25.46 27.31Z" fill="#ECE2CC"/>
<path d="M7.83002 29.09L8.69002 27.31H7.19002L6.74002 28.24C6.98002 28.65 7.37002 28.95 7.82002 29.09H7.83002Z" fill="#ECE2CC"/>
<path d="M17.93 29.18H19.42L20.32 27.31H18.83L17.93 29.18Z" fill="#ECE2CC"/>
<path d="M15.07 29.18H17.58L18.48 27.31H15.96L15.07 29.18Z" fill="#ECE2CC"/>
<path d="M24.57 15.47H24.4V17.36H24.57V15.47Z" fill="#444549"/>
<path d="M24.15 15.47H23.98V17.36H24.15V15.47Z" fill="#444549"/>
<path d="M23.71 15.47H23.54V17.36H23.71V15.47Z" fill="#444549"/>
<path d="M13 3.95001C13 3.95001 12.98 3.93001 12.98 3.92001C12.98 3.92001 12.96 3.90001 12.95 3.90001C12.95 3.90001 12.93 3.89001 12.92 3.88001C12.92 3.88001 12.97 3.86001 12.99 3.85001C13.01 3.84001 13.03 3.82001 13.04 3.81001C13.05 3.79001 13.06 3.77001 13.07 3.75001C13.07 3.73001 13.08 3.71001 13.08 3.68001C13.08 3.65001 13.08 3.62001 13.06 3.60001C13.05 3.58001 13.03 3.56001 13.01 3.54001C12.99 3.52001 12.97 3.51001 12.94 3.50001C12.91 3.50001 12.88 3.49001 12.85 3.49001H12.64V4.21001H12.72V3.90001H12.79C12.79 3.90001 12.82 3.90001 12.83 3.90001C12.84 3.90001 12.85 3.90001 12.87 3.92001C12.88 3.92001 12.89 3.94001 12.9 3.95001C12.91 3.96001 12.92 3.98001 12.93 4.00001L13.05 4.20001H13.15L13.02 3.98001C13.02 3.98001 13 3.95001 12.99 3.94001L13 3.95001ZM12.9 3.82001C12.9 3.82001 12.86 3.82001 12.84 3.82001H12.73V3.56001H12.85C12.85 3.56001 12.93 3.57001 12.96 3.59001C12.98 3.61001 13 3.64001 13 3.68001C13 3.70001 13 3.72001 12.99 3.74001C12.99 3.76001 12.97 3.77001 12.96 3.78001C12.95 3.79001 12.93 3.80001 12.91 3.81001L12.9 3.82001Z" fill="#CAC4B6"/>
<path d="M11.32 3.88001H11.58V3.81001H11.32V3.57001H11.6V3.49001H11.23V4.21001H11.62V4.13001H11.32V3.88001Z" fill="#CAC4B6"/>
<path d="M9.73001 3.57001H9.94001V4.21001H10.02V3.57001H10.23V3.49001H9.73001V3.57001Z" fill="#CAC4B6"/>
<path d="M8.64001 4C8.64001 4 8.64001 4.09 8.64001 4.11C8.64001 4.11 8.63001 4.09 8.61001 4.06L8.25001 3.5H8.14001V4.22H8.22001V3.7C8.22001 3.65 8.22001 3.62 8.22001 3.6C8.22001 3.6 8.23001 3.63 8.24001 3.65L8.61001 4.22H8.71001V3.5H8.63001V4.01L8.64001 4Z" fill="#CAC4B6"/>
<path d="M15.98 3.78001L16.03 3.63001C16.03 3.63001 16.03 3.60001 16.04 3.58001C16.04 3.58001 16.04 3.62001 16.05 3.63001L16.12 3.82001C16.12 3.82001 16.19 3.85001 16.23 3.86001L16.09 3.49001H16L15.9 3.76001C15.9 3.76001 15.95 3.76001 15.98 3.78001Z" fill="#CAC4B6"/>
<path d="M7.05 3.49001H6.97V4.21001H7.05V3.49001Z" fill="#CAC4B6"/>
<path d="M20.2 3.48C20.09 3.48 20.01 3.51 19.94 3.58C19.88 3.65 19.85 3.74 19.85 3.86C19.85 3.97 19.88 4.06 19.94 4.12C20 4.19 20.08 4.22 20.18 4.22C20.28 4.22 20.37 4.19 20.43 4.12C20.49 4.05 20.52 3.96 20.52 3.84C20.52 3.73 20.49 3.64 20.43 3.58C20.37 3.51 20.29 3.48 20.19 3.48H20.2ZM20.37 4.07C20.32 4.12 20.26 4.15 20.18 4.15C20.11 4.15 20.05 4.12 20 4.07C19.95 4.02 19.93 3.94 19.93 3.86C19.93 3.78 19.95 3.7 20 3.65C20.05 3.6 20.11 3.57 20.18 3.57C20.25 3.57 20.32 3.6 20.36 3.65C20.4 3.7 20.43 3.78 20.43 3.87C20.43 3.96 20.41 4.03 20.36 4.09L20.37 4.07Z" fill="#CAC4B6"/>
<path d="M23.42 3.49001L23.14 4.21001H23.23L23.3 4.01001H23.6L23.68 4.21001H23.77L23.49 3.49001H23.4H23.42ZM23.34 3.93001L23.45 3.62001C23.45 3.62001 23.45 3.59001 23.46 3.57001C23.46 3.57001 23.46 3.61001 23.47 3.62001L23.58 3.93001H23.33H23.34Z" fill="#CAC4B6"/>
<path d="M24.87 4.13001V3.49001H24.78V4.21001H25.16V4.13001H24.87Z" fill="#CAC4B6"/>
<path d="M22.06 4C22.06 4 22.06 4.09 22.06 4.11C22.06 4.11 22.05 4.09 22.03 4.06L21.67 3.5H21.56V4.22H21.64V3.7C21.64 3.65 21.64 3.62 21.64 3.6C21.64 3.6 21.65 3.63 21.66 3.65L22.03 4.22H22.13V3.5H22.05V4.01L22.06 4Z" fill="#CAC4B6"/>
<path d="M18.81 3.49001H18.73V4.21001H18.81V3.49001Z" fill="#CAC4B6"/>
<path d="M14.26 3.64001L14.63 4.21001H14.73V3.49001H14.65V4.00001C14.65 4.00001 14.65 4.09001 14.65 4.11001C14.65 4.11001 14.64 4.09001 14.62 4.06001L14.26 3.50001H14.15V4.22001H14.23V3.70001C14.23 3.65001 14.23 3.62001 14.23 3.60001C14.23 3.60001 14.24 3.63001 14.25 3.65001L14.26 3.64001Z" fill="#CAC4B6"/>
<path d="M17.23 3.57001H17.43V4.21001H17.52V3.57001H17.72V3.49001H17.23V3.57001Z" fill="#CAC4B6"/>
<path d="M15.79 3.83C15.1 3.83 14.53 4.4 14.53 5.1C14.53 5.8 15.09 6.37 15.79 6.37C16.49 6.37 17.05 5.8 17.05 5.1C17.05 4.4 16.49 3.83 15.79 3.83ZM15.79 6.31C15.13 6.31 14.59 5.77 14.59 5.1C14.59 4.43 15.13 3.89 15.79 3.89C16.45 3.89 16.99 4.43 16.99 5.1C16.99 5.77 16.45 6.31 15.79 6.31Z" fill="url(#paint2_linear_260_2)"/>
<path opacity="0.31" d="M6.50002 19.41V13.52C7.11002 13.79 7.83002 14.12 8.66002 14.52C9.98002 15.15 10.56 15.59 11.91 17.71C13.65 20.42 18.92 20.82 19.64 20.12C20.08 19.69 20.38 18.23 21.57 18.64C23.85 19.44 24.88 17.51 25.38 17.79V21.91C25.38 23.23 24.51 24.25 23.44 24.18L8.43002 21.92C7.36002 21.85 6.49002 20.73 6.49002 19.41H6.50002Z" fill="url(#paint3_linear_260_2)"/>
<path d="M10.72 24.46L10.21 22.4L10.23 26.52H9.07001V19.64H10.38L11.14 22.39L11.9 19.64H13.18V26.52L12.07 26.55L12.03 22.51L11.54 24.45H10.71L10.72 24.46Z" fill="#ECE2CC"/>
<path d="M17.2 26.52L16.96 24.89H15.65L15.37 26.52H14.12L15.43 19.64H17.19L18.51 26.52H17.2ZM16.77 23.7L16.34 20.8L15.85 23.7H16.77Z" fill="#ECE2CC"/>
<path d="M19.37 26.52V19.64H21.32C21.91 19.64 22.37 19.79 22.71 20.1C23.04 20.41 23.21 20.88 23.21 21.51V22.59C23.21 23.21 23.05 23.66 22.73 23.95C22.41 24.24 21.94 24.38 21.34 24.38H20.73V26.52H19.38H19.37ZM20.72 23.21H21.24C21.43 23.21 21.57 23.16 21.66 23.05C21.75 22.94 21.8 22.74 21.8 22.44V21.63C21.8 21.32 21.75 21.11 21.66 21C21.57 20.89 21.43 20.83 21.24 20.83H20.72V23.21Z" fill="#ECE2CC"/>
<path d="M9.38 19.34C9.26 19.34 9.18 19.31 9.12 19.25C9.06 19.19 9.03 19.11 9.03 18.99V18.64C9.03 18.52 9.06 18.44 9.12 18.38C9.18 18.32 9.26 18.29 9.38 18.29C9.5 18.29 9.58 18.32 9.63 18.38C9.68 18.44 9.71 18.53 9.72 18.66H9.48C9.48 18.59 9.47 18.53 9.46 18.51C9.45 18.48 9.42 18.47 9.38 18.47C9.34 18.47 9.31 18.48 9.3 18.51C9.28 18.54 9.28 18.59 9.28 18.66V18.96C9.28 19.03 9.28 19.08 9.3 19.11C9.31 19.14 9.34 19.15 9.38 19.15C9.42 19.15 9.44 19.14 9.46 19.11C9.48 19.08 9.48 19.03 9.49 18.95H9.73C9.73 19.09 9.7 19.18 9.64 19.24C9.59 19.3 9.5 19.33 9.39 19.33L9.38 19.34Z" fill="#ECE2CC"/>
<path d="M11 19.34C10.89 19.34 10.81 19.31 10.76 19.25C10.7 19.19 10.68 19.11 10.68 19V18.63C10.68 18.52 10.71 18.44 10.76 18.38C10.82 18.32 10.9 18.29 11 18.29C11.1 18.29 11.19 18.32 11.24 18.38C11.3 18.44 11.32 18.52 11.32 18.63V19C11.32 19.1 11.29 19.19 11.24 19.25C11.18 19.31 11.1 19.34 11 19.34ZM11 19.17C11 19.17 11.06 19.16 11.07 19.13C11.08 19.1 11.09 19.06 11.09 18.99V18.66C11.09 18.59 11.09 18.54 11.07 18.51C11.06 18.48 11.03 18.47 11 18.47C10.97 18.47 10.94 18.48 10.93 18.51C10.92 18.54 10.91 18.58 10.91 18.66V18.99C10.91 19.06 10.91 19.11 10.93 19.13C10.94 19.16 10.97 19.17 11 19.17Z" fill="#ECE2CC"/>
<path d="M12.56 19.02L12.47 18.67L12.5 19.33H12.29V18.31H12.5L12.63 18.78L12.76 18.31H12.96V19.33H12.75L12.78 18.69L12.7 19.03H12.56V19.02Z" fill="#ECE2CC"/>
<path d="M14.2 19.02L14.11 18.67L14.14 19.33H13.93V18.31H14.14L14.27 18.78L14.4 18.31H14.6V19.33H14.39L14.42 18.69L14.34 19.03H14.2V19.02Z" fill="#ECE2CC"/>
<path d="M15.91 19.34C15.8 19.34 15.71 19.31 15.66 19.25C15.61 19.19 15.58 19.1 15.58 18.97V18.3H15.82V18.96C15.82 19.03 15.82 19.08 15.84 19.11C15.85 19.14 15.88 19.15 15.91 19.15C15.94 19.15 15.97 19.14 15.98 19.11C15.99 19.08 16 19.04 16 18.96V18.3H16.24V18.97C16.24 19.09 16.21 19.19 16.16 19.25C16.11 19.31 16.02 19.34 15.91 19.34Z" fill="#ECE2CC"/>
<path d="M17.6 19.33L17.41 18.64V19.33H17.21V18.31H17.46L17.67 19.04V18.31H17.87V19.33H17.6Z" fill="#ECE2CC"/>
<path d="M18.85 19.33V19.15H19.06V18.48H18.85V18.3H19.51V18.48H19.3V19.15H19.51V19.33H18.85Z" fill="#ECE2CC"/>
<path d="M20.7 19.33V18.49H20.47V18.31H21.18V18.49H20.95V19.33H20.71H20.7Z" fill="#ECE2CC"/>
<path d="M22.57 19.33H22.33V18.95L22.08 18.31H22.31L22.45 18.71L22.59 18.31H22.82L22.57 18.95V19.33Z" fill="#ECE2CC"/>
<path d="M21.935 6.03L21.675 6.56H21.595L21.835 6.07H21.505V6.01H21.925V6.03H21.935Z" fill="#444549"/>
<path d="M22.045 6.53001V6.46001C22.045 6.46001 22.135 6.50001 22.195 6.50001C22.245 6.50001 22.275 6.50001 22.305 6.47001C22.335 6.45001 22.345 6.43001 22.345 6.39001C22.345 6.32001 22.285 6.28001 22.165 6.28001H22.115V6.23001H22.165C22.275 6.23001 22.325 6.20001 22.325 6.13001C22.325 6.07001 22.285 6.04001 22.205 6.04001C22.155 6.04001 22.115 6.05001 22.075 6.08001V6.02001C22.075 6.02001 22.165 5.99001 22.225 5.99001C22.285 5.99001 22.325 6.00001 22.355 6.03001C22.385 6.06001 22.405 6.09001 22.405 6.12001C22.405 6.19001 22.365 6.24001 22.275 6.26001C22.275 6.26001 22.355 6.28001 22.385 6.30001C22.415 6.32001 22.425 6.35001 22.425 6.39001C22.425 6.44001 22.405 6.48001 22.365 6.51001C22.325 6.54001 22.265 6.56001 22.195 6.56001C22.135 6.56001 22.085 6.56001 22.045 6.53001Z" fill="#444549"/>
<path d="M22.555 6.54V6.47C22.555 6.47 22.645 6.51 22.695 6.51C22.745 6.51 22.775 6.5 22.805 6.48C22.835 6.46 22.845 6.43 22.845 6.39C22.845 6.35 22.835 6.33 22.805 6.31C22.775 6.29 22.735 6.28 22.685 6.28C22.665 6.28 22.635 6.28 22.585 6.28V6.01H22.905V6.07H22.655V6.23C22.655 6.23 22.695 6.23 22.715 6.23C22.785 6.23 22.835 6.24 22.875 6.27C22.915 6.3 22.935 6.34 22.935 6.39C22.935 6.44 22.915 6.49 22.875 6.52C22.835 6.55 22.775 6.57 22.705 6.57C22.645 6.57 22.595 6.57 22.565 6.55L22.555 6.54Z" fill="#444549"/>
<path d="M23.065 6.54V6.47C23.065 6.47 23.155 6.51 23.205 6.51C23.255 6.51 23.285 6.5 23.315 6.48C23.345 6.46 23.355 6.43 23.355 6.39C23.355 6.35 23.345 6.33 23.315 6.31C23.285 6.29 23.245 6.28 23.195 6.28C23.175 6.28 23.145 6.28 23.095 6.28V6.01H23.415V6.07H23.165V6.23C23.165 6.23 23.205 6.23 23.225 6.23C23.295 6.23 23.345 6.24 23.385 6.27C23.425 6.3 23.445 6.34 23.445 6.39C23.445 6.44 23.425 6.49 23.385 6.52C23.345 6.55 23.285 6.57 23.215 6.57C23.155 6.57 23.105 6.57 23.075 6.55L23.065 6.54Z" fill="#444549"/>
<path d="M23.915 6.01V6.07C23.915 6.07 23.845 6.05 23.805 6.05C23.745 6.05 23.705 6.07 23.665 6.11C23.625 6.15 23.615 6.21 23.615 6.28C23.645 6.23 23.695 6.2 23.765 6.2C23.825 6.2 23.865 6.22 23.905 6.25C23.935 6.28 23.955 6.32 23.955 6.37C23.955 6.42 23.935 6.47 23.895 6.5C23.855 6.53 23.805 6.55 23.745 6.55C23.675 6.55 23.625 6.53 23.595 6.48C23.565 6.43 23.535 6.38 23.535 6.3C23.535 6.2 23.555 6.13 23.605 6.07C23.655 6.01 23.715 5.98 23.795 5.98C23.845 5.98 23.875 5.98 23.905 6L23.915 6.01ZM23.755 6.26C23.755 6.26 23.685 6.27 23.665 6.29C23.645 6.31 23.625 6.34 23.625 6.37C23.625 6.41 23.635 6.44 23.665 6.47C23.685 6.5 23.725 6.51 23.755 6.51C23.785 6.51 23.825 6.5 23.845 6.48C23.865 6.46 23.875 6.43 23.875 6.39C23.875 6.35 23.865 6.32 23.845 6.3C23.825 6.28 23.795 6.27 23.755 6.27V6.26Z" fill="#444549"/>
<path d="M24.235 6.56C24.175 6.56 24.115 6.54 24.085 6.49C24.045 6.44 24.035 6.38 24.035 6.29C24.035 6.19 24.055 6.12 24.095 6.07C24.135 6.02 24.185 6 24.255 6C24.395 6 24.455 6.09 24.455 6.28C24.455 6.37 24.435 6.44 24.395 6.49C24.355 6.54 24.305 6.56 24.235 6.56ZM24.245 6.05C24.155 6.05 24.105 6.13 24.105 6.29C24.105 6.44 24.155 6.51 24.245 6.51C24.335 6.51 24.385 6.43 24.385 6.28C24.385 6.13 24.345 6.05 24.255 6.05H24.245Z" fill="#444549"/>
<path d="M24.675 6.27C24.595 6.24 24.555 6.19 24.555 6.14C24.555 6.1 24.575 6.07 24.605 6.04C24.645 6.01 24.685 6 24.745 6C24.795 6 24.835 6.01 24.875 6.04C24.905 6.06 24.925 6.09 24.925 6.13C24.925 6.19 24.885 6.24 24.805 6.27C24.905 6.3 24.945 6.35 24.945 6.42C24.945 6.47 24.925 6.5 24.885 6.53C24.845 6.56 24.795 6.57 24.725 6.57C24.665 6.57 24.625 6.56 24.585 6.53C24.545 6.5 24.535 6.47 24.535 6.43C24.535 6.36 24.585 6.31 24.675 6.28V6.27ZM24.735 6.3C24.655 6.33 24.615 6.37 24.615 6.42C24.615 6.45 24.625 6.47 24.655 6.49C24.685 6.51 24.715 6.52 24.755 6.52C24.795 6.52 24.825 6.52 24.845 6.49C24.865 6.46 24.885 6.45 24.885 6.43C24.885 6.38 24.845 6.33 24.755 6.31L24.735 6.3ZM24.855 6.13C24.855 6.13 24.855 6.09 24.825 6.07C24.805 6.06 24.785 6.05 24.745 6.05C24.715 6.05 24.685 6.05 24.665 6.07C24.645 6.09 24.635 6.1 24.635 6.13C24.635 6.18 24.675 6.21 24.745 6.24C24.815 6.22 24.855 6.18 24.855 6.13Z" fill="#444549"/>
<path d="M24.3037 12.5389L23.2837 11.5889L22.8437 11.0889C23.3137 10.6789 24.0037 10.7589 24.3337 10.2589C24.4237 10.1289 24.3737 9.92891 24.3137 9.78891C24.0837 9.22891 23.5337 8.86891 23.0137 9.05891C22.8937 9.09891 22.8337 9.12891 22.6937 9.14891L22.6337 9.51891L22.4737 10.1489L22.3537 10.8789L22.1637 10.5189C22.0037 10.4289 21.8137 10.3889 21.6237 10.3689L20.6637 10.2689L20.6937 9.73891C20.6937 9.63891 20.6637 9.55891 20.5737 9.46891C20.9037 9.31891 21.2537 9.32891 21.6037 9.37891C21.9137 9.41891 22.0337 9.55891 22.0837 9.48891C22.1937 9.34891 21.9837 9.01891 21.7837 8.94891C21.3137 8.76891 20.8037 8.76891 20.3437 8.96891L20.3137 9.20891C20.3337 9.33891 20.3337 9.42891 20.3137 9.53891L20.1437 10.3589C20.0737 10.6989 20.0237 11.0489 19.9337 11.3889C19.8937 11.5389 19.7037 11.6489 19.7637 11.8589C19.7837 11.9289 19.8137 12.0789 19.7937 12.1589C19.7237 12.4389 19.8637 12.6589 20.0937 12.6889L20.2137 12.5389C20.5837 12.6689 21.4737 12.9089 21.6137 12.8089C21.7937 12.6689 21.7137 12.3289 21.5537 12.2389C21.4937 12.2089 21.3537 12.2589 21.2937 12.2389C20.9537 12.1889 20.6237 12.1089 20.2937 11.9989L20.4837 11.0289C20.5037 10.9089 20.5537 10.8189 20.6737 10.8289L21.5737 10.9289C21.6537 11.2189 22.0437 11.2089 22.3037 11.0589L22.2237 12.0789C22.1937 12.3989 22.3837 12.7989 22.6037 12.8189C22.6337 12.8189 22.6937 12.7089 22.6937 12.6789L22.6537 12.1489C22.6437 11.9789 22.6637 11.7989 22.6937 11.5989L23.1637 12.1189L24.2337 13.1189L24.2937 13.2689C24.3437 13.3789 24.3837 13.4689 24.4637 13.5089C24.5237 13.5389 24.7037 13.5089 24.7137 13.4089C24.7437 12.9789 24.5137 12.7989 24.2737 12.5789L24.3037 12.5389ZM22.9637 9.97891L23.0637 9.88891V9.63891C23.3737 9.40891 23.7837 9.45891 24.0037 9.83891C23.9037 9.94891 23.7837 10.0389 23.6737 10.0789L22.8837 10.3489L22.9637 9.96891V9.97891Z" fill="black"/>
<path d="M8.61369 9.60891C8.68369 9.46891 8.74369 9.37891 8.83369 9.31891L9.20369 9.05891L9.49369 8.86891C9.63369 8.77891 9.77369 8.61891 9.85369 8.38891C9.93369 8.16891 9.65369 7.65891 9.34369 7.50891C8.95369 7.31891 8.54369 7.33891 8.15369 7.50891C8.10369 7.49891 8.04369 7.48891 7.99369 7.50891C7.95369 7.78891 7.91369 8.02891 7.88369 8.29891L7.82369 8.76891L7.65369 9.89891L7.59369 10.3589L7.51369 11.0189C7.48369 11.2689 7.69369 11.4789 7.83369 11.4089L7.87369 11.0889L7.91369 10.7189L8.24369 8.16891L8.28369 7.87891L8.46369 7.94891C8.80369 7.82891 9.16369 7.81891 9.50369 8.03891C9.38369 8.23891 9.25369 8.33891 9.11369 8.42891C8.87369 8.58891 8.64369 8.73891 8.41369 8.93891C8.34369 9.00891 8.27369 9.13891 8.26369 9.24891C8.22369 9.52891 8.36369 9.78891 8.52369 10.0089L9.22369 10.9289C9.30369 11.0289 9.35369 11.1589 9.40369 11.3089C9.31369 11.3889 9.23369 11.4489 9.13369 11.4789C8.61369 11.6289 8.09369 11.6889 7.57369 11.5989L7.34369 11.5589L7.38369 11.7889C7.64369 12.1589 8.10369 12.1889 8.46369 12.1789C8.46369 12.1289 8.46369 12.1089 8.47369 12.1089H8.54369H8.85369L9.15369 12.0789C9.34369 12.0589 9.53369 11.9589 9.69369 11.7889C9.76369 11.5489 9.72369 11.2989 9.61369 11.1089C9.33369 10.4589 8.92369 10.1689 8.58369 9.60891H8.61369Z" fill="black"/>
<path d="M19.8637 10.4389C19.5837 9.53891 18.8537 8.98891 18.0237 8.98891C17.8237 8.98891 17.6937 9.03891 17.5537 9.16891L17.3437 9.12891L17.1937 11.2189L17.1637 11.8689L16.8337 11.9889C16.8337 11.8789 16.8137 11.7289 16.7637 11.6489C16.7037 11.5589 16.5737 11.5389 16.4737 11.5489C16.1537 11.5989 15.8437 11.5589 15.5437 11.3889C15.4237 10.7089 15.6337 10.0089 15.8937 9.40891L15.9337 9.54891C15.9837 9.45891 15.9737 9.35891 15.9537 9.22891C15.9237 9.00891 15.8137 8.75891 15.5637 8.78891L15.2537 9.61891C15.0437 10.1989 14.9237 11.1389 15.2937 11.6089C15.4437 11.7989 15.6137 11.9889 15.8237 12.0689C16.0937 12.1689 16.3737 12.1989 16.6537 12.1189C16.6837 12.1189 16.7737 12.0589 16.7837 12.0889L16.8137 12.2289C16.8337 12.3189 16.9637 12.3989 17.0537 12.4289L17.4537 12.5389C17.4537 12.5389 17.5637 12.4489 17.5937 12.3789L18.3337 12.1689C18.6937 12.0689 19.0437 11.9689 19.3737 11.7689C19.7937 11.4989 20.0137 10.9689 19.8537 10.4389H19.8637ZM19.2737 11.0989C18.9937 11.3089 18.6837 11.4389 18.3537 11.5389L17.6037 11.7589L17.6737 11.0589L17.7337 10.0489C17.8237 9.88891 17.7837 9.70891 17.7137 9.51891C17.8537 9.56891 17.9137 9.57891 18.0137 9.54891C18.4537 9.44891 18.9037 9.61891 19.2537 9.92891C19.4237 10.0789 19.5037 10.2789 19.5137 10.5089C19.5137 10.7189 19.4537 10.9789 19.2837 11.1089L19.2737 11.0989Z" fill="black"/>
<path d="M11.9737 9.6689C12.2037 10.2189 11.9837 10.8789 11.6637 11.1189C11.1737 11.4889 10.1837 11.5889 10.1937 10.8989C10.1937 10.0289 10.3637 9.6289 10.8037 9.2289C10.7337 9.2089 10.6637 9.2089 10.6037 9.1489C11.0937 9.1289 11.5837 9.2689 12.0437 9.5989C12.1237 9.6589 12.1937 9.73891 12.2737 9.77891C12.1637 9.46891 11.9937 9.2689 11.8037 9.1389C11.3837 8.8389 10.8037 8.6289 10.3537 8.7489L10.2437 8.9289L10.2837 9.0189C10.2837 9.0189 10.2637 9.0789 10.2537 9.0889C10.0137 9.4189 9.88369 9.8589 9.85369 10.3789C9.79369 10.8489 9.94369 11.2689 10.1637 11.5489C10.3137 11.7389 10.4637 11.8989 10.6637 11.9489C11.1137 12.0589 11.5737 11.9289 11.9837 11.5889C12.1737 11.4389 12.3237 10.9789 12.3837 10.6089C12.4337 10.2689 12.1837 9.7889 11.9837 9.6889L11.9737 9.6689ZM11.4437 9.15891C11.2137 9.13891 11.0137 9.0889 10.7937 9.0389C10.9837 9.0189 11.2637 9.05891 11.4437 9.15891Z" fill="black"/>
<path d="M14.6737 9.21891C14.5937 9.14891 14.4837 9.10891 14.3937 9.13891C14.6937 9.69891 14.5437 10.2689 14.3037 10.8289C14.1637 11.1489 13.9437 11.3989 13.6437 11.4589C13.4237 11.4989 13.2937 11.3489 13.2437 11.1189C13.1937 10.8989 13.1637 10.6589 13.2337 10.4489C13.2137 10.4289 13.1837 10.3789 13.1937 10.3589L13.2437 10.2789C13.1937 10.0389 13.2537 9.77891 13.2737 9.77891H13.3537L13.5037 9.11891L13.4237 9.08891C13.4237 8.93891 13.4037 8.83891 13.3237 8.72891C13.2637 8.64891 13.1337 8.61891 13.0337 8.66891C12.7737 9.59891 12.5237 10.7289 13.0537 11.5089L13.2937 11.7789C13.6137 12.1389 14.0137 12.1289 14.3237 11.8089C14.6037 11.5189 14.7837 11.1989 14.8937 10.7689C14.9837 10.4289 15.0337 10.0889 14.9537 9.73891C14.9037 9.51891 14.8437 9.35891 14.6737 9.21891Z" fill="black"/>
</g>
<defs>
<linearGradient id="paint0_linear_260_2" x1="25.1" y1="3.05" x2="6.90001" y2="28.95" gradientUnits="userSpaceOnUse">
<stop stop-color="#FDFAF1"/>
<stop offset="1" stop-color="#A29885"/>
</linearGradient>
<linearGradient id="paint1_linear_260_2" x1="25.07" y1="3.14001" x2="7" y2="28.84" gradientUnits="userSpaceOnUse">
<stop stop-color="#FFFBEC"/>
<stop offset="1" stop-color="#E1D1B7"/>
</linearGradient>
<linearGradient id="paint2_linear_260_2" x1="14.99" y1="6.41" x2="16.59" y2="3.79" gradientUnits="userSpaceOnUse">
<stop stop-color="#FDFAF1"/>
<stop offset="1" stop-color="#A29885"/>
</linearGradient>
<linearGradient id="paint3_linear_260_2" x1="32.2878" y1="17.8974" x2="31.939" y2="25.5195" gradientUnits="userSpaceOnUse">
<stop offset="0.12" stop-color="#FFFBEC" stop-opacity="0.5"/>
<stop offset="0.68" stop-color="#FFEDD0" stop-opacity="0"/>
</linearGradient>
<clipPath id="clip0_260_2">
<rect width="19.48" height="26.96" fill="white" transform="translate(6.26001 2.52)"/>
</clipPath>
</defs>
</svg>
