<svg width="169" height="89" viewBox="0 0 169 89" fill="none" xmlns="http://www.w3.org/2000/svg">
<g clip-path="url(#clip0_1026_86)">
<path d="M71.7283 0C71.7283 1.08958 71.722 2.17599 71.7283 3.26556C71.7315 4.26645 71.7537 5.26734 71.76 6.26506C71.7759 10.3795 71.7854 14.4971 71.8108 18.6115C71.8108 18.9219 71.7061 19.0803 71.4459 19.2291C62.2451 24.525 53.0507 29.8303 43.853 35.1325C41.3053 36.6022 38.7577 38.0655 36.2163 39.5415C35.9911 39.6713 35.8324 39.6872 35.6008 39.5541C24.9247 33.3904 14.2486 27.2331 3.56928 21.0757C2.49374 20.4549 1.42137 19.8278 0.339479 19.2228C0.0983536 19.0866 0.0158635 18.9314 0.0158635 18.6558C0.0222089 12.5618 0.0190362 6.47094 0.0190362 0.376917C0.0190362 0.250222 0.00634539 0.126695 0 0C0.101526 0 0.203053 0 0.304579 0C0.796347 0.332574 1.26908 0.696822 1.78306 0.997722C4.37515 2.50856 6.97993 4.00673 9.58154 5.50489C18.132 10.4302 26.6855 15.3491 35.2264 20.2902C35.7436 20.5879 36.1148 20.5562 36.5971 20.2775C47.8094 13.8097 59.0312 7.35464 70.2435 0.883697C70.6655 0.639809 71.0303 0.297733 71.4237 0C71.5253 0 71.6268 0 71.7283 0Z" fill="white"/>
<path d="M97.6936 -6.45585e-06C97.7285 1.89725 97.792 3.79767 97.7952 5.69493C97.8205 21.0503 97.8364 36.4026 97.8523 51.758C97.8523 51.872 97.8523 51.9829 97.8523 52.1254H95.184C95.184 51.9702 95.184 51.8245 95.184 51.6757C95.1809 35.9528 95.1777 20.23 95.1713 4.51033C95.1713 4.0669 95.1523 3.62347 95.1523 3.18004C95.1523 2.94565 95.0698 2.84746 94.7874 2.93932C93.1313 19.3178 91.4751 35.7121 89.8158 52.1223H87.3316C85.7008 35.7216 84.0701 19.3241 82.4393 2.91081C82.3695 2.89814 82.3092 2.87597 82.2521 2.87597C82.1918 2.87597 82.1316 2.8918 82.0015 2.91398C82.0015 3.42076 82.0015 3.92437 82.0015 4.42798C81.9888 7.06323 81.9634 9.69532 81.9602 12.3306C81.9602 14.9785 81.9856 17.6264 81.9824 20.2712C81.9824 24.1987 81.9571 28.1263 81.9571 32.0506C81.9571 38.5754 81.9729 45.1002 81.9824 51.6218C81.9824 51.7834 81.9824 51.9449 81.9824 52.1286H79.3301C79.3237 51.9892 79.3079 51.8562 79.3079 51.7232C79.3079 34.6194 79.3079 17.5156 79.3079 0.411752C79.3079 0.272388 79.3269 0.136191 79.3364 -0.00317383C81.1131 -0.00317383 82.8898 -0.00317383 84.6665 -0.00317383C84.6983 0.769665 84.6919 1.5425 84.7649 2.30901C84.9743 4.48816 85.2122 6.66731 85.4407 8.8433C85.7611 11.903 86.0911 14.9595 86.3957 18.0223C86.6749 20.8318 86.9192 23.6444 87.192 26.4539C87.4871 29.5041 87.7853 32.5511 88.0962 35.5981C88.2041 36.637 88.3596 37.6727 88.496 38.7116C88.5658 38.6514 88.6007 38.5849 88.6102 38.5152C88.8228 36.808 89.0417 35.1008 89.2352 33.3904C89.4192 31.7561 89.5684 30.1154 89.7333 28.4778C89.9015 26.777 90.0665 25.0761 90.2315 23.3752C90.3647 22.0006 90.498 20.6291 90.6376 19.2544C90.8311 17.3287 91.0246 15.3998 91.2213 13.474C91.3863 11.8491 91.5513 10.2243 91.7226 8.60258C91.9066 6.84152 92.097 5.07729 92.2905 3.31623C92.4111 2.21082 92.5412 1.10224 92.6649 -0.00317383C94.3401 -0.00317383 96.0153 -0.00317383 97.6905 -0.00317383L97.6936 -6.45585e-06Z" fill="white"/>
<path d="M146.883 0C147.331 0.234386 147.794 0.440265 148.219 0.709491C149.669 1.62486 150.453 2.97733 150.767 4.63703C150.97 5.71711 150.925 6.80668 150.925 7.89626C150.922 11.0256 150.913 14.155 150.9 17.2844C150.894 19.0454 150.871 20.8065 150.874 22.5644C150.878 27.4421 150.894 32.3199 150.9 37.1945C150.906 40.2985 150.928 43.4025 150.906 46.5065C150.894 48.4038 150.227 50.0255 148.654 51.1816C147.648 51.9196 146.502 52.2395 145.259 52.211C144.424 52.192 143.587 52.1983 142.752 52.1476C139.989 51.9703 137.965 49.9906 137.746 47.2445C137.686 46.4749 137.679 45.702 137.676 44.9292C137.67 41.8632 137.673 38.7971 137.676 35.7311C137.679 30.9421 137.682 26.153 137.692 21.3639C137.695 19.3241 137.72 17.2844 137.717 15.2477C137.711 12.2704 137.686 9.29624 137.667 6.31891C137.66 5.46689 137.762 4.62436 138.012 3.80718C138.539 2.08096 139.694 0.92804 141.328 0.215381C141.461 0.158369 141.582 0.0728496 141.712 0.00316737C143.438 0.00316737 145.164 0.00316737 146.89 0.00316737L146.883 0ZM148.149 25.9978C148.149 25.9978 148.165 25.9978 148.171 25.9978C148.171 25.9725 148.171 25.9471 148.171 25.9218C148.165 19.5744 148.159 13.2269 148.146 6.87953C148.146 6.34741 148.146 5.8153 148.098 5.28635C148.013 4.26012 147.664 3.37642 146.62 2.95516C145.053 2.32485 143.479 2.33119 141.918 2.97733C141.242 3.25923 140.804 3.78501 140.655 4.4945C140.541 5.03612 140.462 5.59358 140.449 6.1447C140.414 7.67771 140.417 9.21072 140.417 10.7437C140.417 22.615 140.417 34.4864 140.417 46.3577C140.417 46.6617 140.439 46.9658 140.478 47.2667C140.62 48.3658 141.287 49.0974 142.365 49.3255C143.571 49.5821 144.783 49.5821 145.995 49.3952C147.118 49.221 147.829 48.578 148.063 47.4599C148.136 47.102 148.162 46.7314 148.165 46.3672C148.165 44.4161 148.149 42.465 148.149 40.5139C148.149 35.6741 148.149 30.8344 148.149 25.9946V25.9978Z" fill="white"/>
<path d="M112.009 0C112.091 0.665148 112.177 1.32713 112.253 1.99228C112.402 3.28773 112.545 4.58319 112.685 5.87864C112.885 7.72839 113.078 9.57813 113.272 11.431C113.462 13.2555 113.646 15.083 113.833 16.9074C114.027 18.7952 114.224 20.6861 114.411 22.5739C114.579 24.2494 114.734 25.9249 114.896 27.6005C115.09 29.6023 115.283 31.6072 115.477 33.609C115.642 35.3099 115.804 37.0107 115.968 38.7116C116.133 40.3872 116.302 42.0627 116.467 43.7382C116.628 45.3758 116.79 47.0133 116.949 48.6508C117.035 49.5187 117.12 50.3897 117.193 51.2608C117.215 51.5078 117.196 51.758 117.196 52.0304H114.845C114.795 51.5775 114.737 51.1182 114.693 50.659C114.503 48.7585 114.322 46.8549 114.132 44.9514C113.941 43.0383 113.744 41.122 113.554 39.2089C113.338 37.0424 113.129 34.8759 112.913 32.7095C112.723 30.809 112.526 28.9054 112.336 27.005C112.145 25.1046 111.965 23.201 111.774 21.2974C111.584 19.3843 111.387 17.4681 111.197 15.555C111.032 13.9174 110.876 12.2799 110.711 10.6424C110.518 8.71661 110.324 6.78768 110.131 4.86192C110.074 4.28229 110.007 3.70266 109.963 3.12303C109.947 2.93299 109.899 2.81896 109.687 2.79362C109.461 2.76828 109.242 2.7081 108.973 2.65426C107.412 18.2409 105.854 33.8022 104.29 49.4173H112.247C112.374 50.3074 112.494 51.1562 112.618 52.0368H101.669C101.669 51.8594 101.653 51.6725 101.669 51.4888C101.936 48.6033 102.199 45.7179 102.472 42.8324C102.729 40.1369 102.992 37.4383 103.259 34.7429C103.576 31.5565 103.903 28.3702 104.22 25.1838C104.512 22.2603 104.785 19.3368 105.089 16.4165C105.473 12.7392 105.876 9.06502 106.279 5.39404C106.476 3.59497 106.692 1.79907 106.898 0C108.598 0 110.299 0 111.999 0L112.009 0Z" fill="white"/>
<path d="M164.32 -6.45555e-06C164.565 0.155195 164.793 0.332568 165.05 0.46243C167.071 1.47282 168.099 3.10719 168.105 5.35919C168.121 10.1102 168.131 14.8613 168.131 19.6092C168.131 22.3965 168.124 25.1838 168.099 27.9711C168.093 28.5982 168.071 29.2507 167.912 29.8525C167.373 31.8859 165.977 33.061 163.956 33.5108C163.476 33.6185 162.975 33.6407 162.483 33.6502C161.544 33.6723 160.605 33.6565 159.666 33.6565H159.19C162.147 39.8044 165.075 45.9016 168.026 52.0368H165.028C161.674 45.0654 158.318 38.0813 154.926 31.0307H155.383C157.629 31.0307 159.872 31.0307 162.119 31.0307C162.448 31.0307 162.782 31.0212 163.102 30.9642C164.489 30.7172 165.282 29.8683 165.377 28.4683C165.434 27.6385 165.399 26.7991 165.405 25.9661C165.405 25.8268 165.399 25.6874 165.399 25.548C165.399 20.8223 165.399 16.0966 165.399 11.3709C165.399 9.53379 165.386 7.69671 165.371 5.85963C165.371 5.53023 165.339 5.20082 165.285 4.87775C165.066 3.53478 164.377 2.88547 163.01 2.7366C162.594 2.69226 162.176 2.67009 161.757 2.66692C160.551 2.65742 159.346 2.66375 158.14 2.66375C158.004 2.66375 157.867 2.66375 157.693 2.66375V23.3815H155.094C155.053 23.0965 154.967 22.7924 154.967 22.4852C154.958 17.8481 154.958 13.2111 154.964 8.57407C154.964 6.1542 154.977 3.73433 154.996 1.31762C154.999 0.877356 155.062 0.437091 155.097 -0.00317383C158.169 -0.00317383 161.24 -0.00317383 164.311 -0.00317383L164.32 -6.45555e-06Z" fill="white"/>
<path d="M133.862 0C133.831 2.0873 133.777 4.17776 133.77 6.26506C133.751 12.6346 133.742 19.0074 133.742 25.3802C133.742 31.4742 133.758 37.565 133.767 43.6591C133.767 44.5839 133.786 45.5088 133.761 46.4337C133.739 47.2699 133.618 48.0966 133.329 48.8916C132.879 50.1205 132.07 51.0264 130.864 51.5363C128.399 52.5816 125.915 52.6544 123.453 51.5363C121.629 50.7096 120.651 49.2558 120.62 47.2635C120.562 43.7953 120.566 40.3238 120.562 36.8524C120.562 35.1547 120.591 33.4601 120.613 31.7624C120.613 31.6262 120.629 31.4805 120.683 31.3602C120.721 31.2778 120.839 31.1796 120.921 31.1796C121.667 31.1669 122.412 31.1701 123.209 31.1701C123.243 31.8638 123.307 32.5289 123.31 33.1941C123.32 37.489 123.31 41.784 123.32 46.0758C123.32 46.5034 123.354 46.9373 123.424 47.3586C123.627 48.5622 124.249 49.202 125.467 49.3825C126.651 49.5567 127.847 49.544 129.027 49.3382C130.109 49.1481 130.721 48.4956 130.899 47.4187C130.947 47.121 130.978 46.8138 130.978 46.5129C130.988 32.0601 130.991 17.6074 130.997 3.15154C130.997 3.01534 130.997 2.87597 130.997 2.69227H120.547V0H133.872H133.862Z" fill="white"/>
<path d="M71.7252 49.354V49.7816C71.7252 55.8629 71.7252 61.9443 71.7315 68.0257C71.7315 68.3107 71.6617 68.4723 71.3984 68.6243C62.1278 73.955 52.8635 79.2983 43.5992 84.6385C41.1404 86.0575 38.6784 87.4702 36.2259 88.8955C35.9879 89.0348 35.8229 89.0348 35.5818 88.8955C28.0562 84.5498 20.521 80.2105 12.9922 75.8712C8.79791 73.4545 4.60678 71.0378 0.406128 68.6306C0.152312 68.4849 0.0634766 68.3297 0.0634766 68.0383C0.0729947 61.957 0.069822 55.8756 0.069822 49.7943C0.069822 49.6739 0.07934 49.5535 0.0888581 49.3667C12.0531 56.2589 23.9729 63.1257 35.8991 69.9958C47.8284 63.1194 59.7482 56.2525 71.7252 49.3508V49.354Z" fill="white"/>
<path d="M17.1389 53.5572C16.9962 53.4844 16.8978 53.4368 16.8026 53.383C11.3265 50.2283 5.85047 47.0704 0.371227 43.9189C0.149138 43.789 0.0603027 43.6497 0.0603027 43.3868C0.0698208 37.2832 0.0666481 31.1797 0.0666481 25.073C0.0666481 24.9717 0.0666481 24.8703 0.0666481 24.7278C0.184038 24.7816 0.272873 24.8133 0.352191 24.8608C5.84096 28.0187 11.3297 31.1797 16.8217 34.3344C17.0628 34.4738 17.1421 34.6258 17.1421 34.9014C17.1326 40.9796 17.1358 47.0578 17.1358 53.1391C17.1358 53.2626 17.1358 53.3893 17.1358 53.5635L17.1389 53.5572Z" fill="white"/>
<path d="M71.6807 24.7371V25.2058C71.6807 31.2587 71.6807 37.3147 71.6839 43.3675C71.6839 43.6304 71.6299 43.8015 71.3761 43.944C65.9286 47.0734 60.4843 50.2122 55.0431 53.3479C54.9384 53.4081 54.8273 53.4588 54.6655 53.5443V53.085C54.6655 47.0322 54.6655 40.9762 54.6592 34.9233C54.6592 34.6193 54.7512 34.4546 55.0177 34.3025C60.4462 31.189 65.8683 28.0628 71.2905 24.9429C71.3952 24.8828 71.5062 24.8289 71.6807 24.7371Z" fill="white"/>
<path d="M169 55.4575V67.351H79.0889V55.4575H169ZM168.267 56.1892H102.012V66.7112H168.267V56.1892ZM88.0803 58.0579V64.6936C89.7713 64.89 91.4307 64.985 93.0963 64.6366V60.728H90.7803C90.7612 61.162 90.9389 61.4945 91.1039 61.8366C91.2181 62.0742 91.3355 62.3149 91.4148 62.5683C91.5131 62.8977 91.3989 63.1986 91.1895 63.452C91.0087 63.6705 90.7898 63.49 90.5867 63.4773C90.4757 63.471 90.3678 63.4393 90.2441 63.4171V58.4349C91.1356 58.362 92.0144 58.2923 92.8933 58.2226C92.8933 58.1688 92.8869 58.1118 92.8869 58.0579C91.2942 58.0579 89.6984 58.0579 88.0835 58.0579H88.0803ZM86.9286 58.1403H82.0649V64.7062H83.8955C83.9939 64.1615 84.089 63.642 84.1842 63.1226C85.1202 63.0782 86.0149 63.0339 86.9286 62.9927V58.1435V58.1403ZM96.0818 58.0579H94.2004V64.7126H98.9658C98.9277 64.2153 98.8897 63.7434 98.8516 63.2588C97.9125 63.1922 97.0114 63.1257 96.085 63.0592V58.0579H96.0818Z" fill="white"/>
<path d="M118.323 59.8633V58.7769H125.29C125.48 59.4547 125.67 60.1325 125.861 60.8103C125.915 61.0035 125.953 61.2062 126.029 61.3931C126.073 61.5008 126.175 61.5831 126.251 61.6782C126.286 61.6687 126.321 61.656 126.356 61.6465C126.635 60.709 126.914 59.7682 127.2 58.8054H128.961C129.256 59.9139 129.551 61.0225 129.846 62.1311C129.865 62.1311 129.884 62.1374 129.903 62.1406C129.954 61.9664 130.011 61.7954 130.058 61.618C130.277 60.7881 130.506 59.9583 130.706 59.1221C130.766 58.8782 130.871 58.7927 131.118 58.8022C131.508 58.818 131.898 58.8054 132.343 58.8054C131.905 60.5538 131.477 62.2515 131.048 63.965H128.869C128.602 63.0591 128.332 62.1438 128.063 61.2252L127.999 61.2189C127.768 62.1089 127.536 62.999 127.298 63.908H125.087C124.706 62.5872 124.328 61.2791 123.938 59.9203C123.259 59.9614 122.583 60.0026 121.86 60.0438V63.8763C121.292 63.9397 120.769 63.9999 120.198 64.0664V60.161C119.566 60.0565 118.973 59.9583 118.329 59.8538L118.323 59.8633Z" fill="white"/>
<path d="M140.633 62.5143C140.525 62.9736 140.417 63.436 140.303 63.927C139.872 63.9776 139.446 64.0252 138.999 64.0758V58.7705C140.769 58.7008 142.537 58.4157 144.278 59.1094C144.323 59.8664 144.374 60.6234 144.408 61.3804C144.412 61.4659 144.332 61.5641 144.272 61.637C144.034 61.9315 143.787 62.2229 143.52 62.5428C143.863 62.9926 144.205 63.4392 144.612 63.9681C144.278 63.9871 144.012 63.9618 143.764 64.022C143.108 64.1772 142.673 63.8604 142.286 63.4043C142.121 63.2111 141.953 63.0211 141.769 62.8469C141.458 62.5523 141.093 62.413 140.63 62.5175L140.633 62.5143ZM140.582 60.1103V60.9496H142.762C142.724 60.6551 142.692 60.3953 142.657 60.1103H140.582Z" fill="white"/>
<path d="M160.008 61.1366C161.43 61.0068 162.813 60.8832 164.203 60.7565C164.044 60.1484 163.597 59.819 163.007 59.8697C162.22 59.9362 161.449 60.0692 160.741 60.4493C160.535 60.5602 160.307 60.6393 160.047 60.7502C160.088 60.1421 160.123 59.5909 160.161 59.024C161.224 58.7199 162.283 58.5647 163.365 58.6692C163.981 58.7294 164.587 58.8656 165.199 58.9638C165.386 58.9923 165.488 59.0715 165.497 59.2805C165.532 59.9108 165.592 60.5443 165.615 61.1746C165.618 61.3013 165.523 61.4597 165.424 61.5579C164.983 62.0171 164.406 62.1502 163.794 62.1628C163.311 62.1723 162.829 62.1628 162.347 62.1819C162.007 62.1945 161.684 62.2895 161.385 62.4479C161.385 62.4828 161.379 62.5176 161.376 62.5493C161.7 62.6284 162.017 62.7425 162.344 62.7742C162.794 62.8185 163.254 62.8122 163.708 62.8122C164.292 62.8122 164.872 62.8027 165.475 62.9642C165.5 63.2778 165.523 63.5882 165.548 63.9302H159.847C159.897 62.9959 159.948 62.09 160.002 61.1398L160.008 61.1366Z" fill="white"/>
<path d="M159.104 63.9397H153.666C153.654 63.8257 153.632 63.7275 153.632 63.6324C153.632 63.0116 153.638 62.3908 153.625 61.77C153.619 61.5515 153.705 61.4185 153.876 61.3044C154.291 61.0225 154.752 60.918 155.243 60.9117C155.738 60.9053 156.233 60.9243 156.725 60.9022C156.985 60.8895 157.242 60.8166 157.493 60.7723C157.426 60.1135 157.296 59.9773 156.703 59.9298C156.246 59.8918 155.799 59.9203 155.358 60.0913C154.78 60.313 154.19 60.4967 153.533 60.7216C153.593 60.199 153.641 59.7271 153.714 59.2615C153.727 59.1823 153.857 59.0968 153.952 59.0619C155.047 58.6692 156.182 58.59 157.325 58.7389C157.835 58.8054 158.333 58.9701 158.838 59.0904C159.035 59.1379 159.123 59.2488 159.13 59.4642C159.152 60.0216 159.193 60.5759 159.241 61.1302C159.257 61.3171 159.187 61.4375 159.057 61.5578C158.502 62.0709 157.816 62.1469 157.109 62.166C156.655 62.1755 156.195 62.1564 155.745 62.1881C155.465 62.2103 155.189 62.3053 154.92 62.4067C155.396 62.7551 155.929 62.8279 156.474 62.8374C157.093 62.8501 157.721 62.7963 158.333 62.8723C159.365 63.0053 159.231 62.9578 159.098 63.9397H159.104Z" fill="white"/>
<path d="M113.351 60.6994C113.345 60.8356 113.335 60.9687 113.335 61.1049C113.335 61.9157 113.325 62.7266 113.338 63.5342C113.341 63.8003 113.275 63.927 112.986 63.9397C112.672 63.9555 112.364 64.022 112.031 64.0695V58.7357C112.7 58.7357 113.357 58.7262 114.011 58.7483C114.109 58.7515 114.233 58.894 114.293 59.0017C114.826 59.9488 115.35 60.9021 115.876 61.8555C115.908 61.9094 115.94 61.9632 116.038 62.0202C116.111 60.9655 116.181 59.9139 116.254 58.8529H117.555V63.9618C117.32 63.9618 117.095 63.9618 116.873 63.9618C116.454 63.9618 116.035 63.9428 115.616 63.9682C115.343 63.984 115.207 63.87 115.093 63.6419C114.642 62.7519 114.179 61.865 113.713 60.9813C113.649 60.861 113.551 60.7565 113.471 60.6456C113.43 60.6646 113.392 60.6836 113.351 60.7026V60.6994Z" fill="white"/>
<path d="M138.05 59.8665C136.778 59.9615 135.554 60.0534 134.281 60.1484C134.354 60.2339 134.392 60.3067 134.453 60.3511C134.941 60.7343 135.522 60.7787 136.112 60.7819C136.531 60.785 136.953 60.7597 137.346 60.9877V61.8999C136.451 61.9728 135.554 62.0456 134.595 62.1217C134.865 62.4289 135.154 62.5778 135.477 62.6284C135.839 62.6854 136.207 62.6854 136.572 62.714C137.022 62.7488 137.476 62.7868 137.952 62.8248C137.996 63.2144 138.035 63.547 138.073 63.9017H132.949V58.8022H137.946C137.981 59.1475 138.012 59.4832 138.05 59.8633V59.8665Z" fill="white"/>
<path d="M145.31 58.7801C146.978 58.4729 149.628 58.6376 150.579 59.1127V62.2896C150.065 62.3276 149.567 62.3656 149.066 62.3973C148.498 62.4321 147.927 62.4733 147.359 62.4891C147.086 62.4955 146.95 62.6031 146.896 62.8692C146.832 63.1638 146.744 63.4583 146.642 63.7434C146.61 63.8289 146.503 63.9461 146.426 63.9493C146.065 63.9714 145.7 63.9588 145.313 63.9588V58.7833L145.31 58.7801ZM149.006 60.1231H146.912V61.0321H149.006V60.1231Z" fill="white"/>
<path d="M104.991 63.9808C105.721 62.2166 106.435 60.4935 107.152 58.7642C107.805 58.7642 108.44 58.7642 109.071 58.7642C109.214 58.7642 109.299 58.8053 109.36 58.9479C110.051 60.5886 110.749 62.2261 111.444 63.8668C111.454 63.8858 111.444 63.9143 111.444 63.9872C110.994 63.9872 110.543 63.9998 110.096 63.9777C109.991 63.9713 109.858 63.8763 109.798 63.7813C109.455 63.2365 108.97 63.1415 108.351 63.1256C107.589 63.1066 106.961 63.2112 106.533 63.8953C106.488 63.9682 106.371 64.0315 106.285 64.0315C105.873 64.0283 105.457 63.9998 104.991 63.9808ZM107.472 61.8555C107.961 61.8143 108.367 61.7795 108.811 61.7415C108.617 61.184 108.443 60.6836 108.243 60.1008C107.973 60.7184 107.742 61.2442 107.472 61.8523V61.8555Z" fill="white"/>
<path d="M152.629 58.8372C152.949 60.0439 152.899 60.4937 151.572 61.1367C151.503 60.7439 151.436 60.3638 151.366 59.9869C151.3 59.6163 151.23 59.2426 151.157 58.8403H152.632L152.629 58.8372Z" fill="white"/>
<path d="M84.381 62.7234C83.9336 61.2791 83.9432 59.8696 84.1145 58.457C84.7649 58.3176 85.0219 58.5456 85.0092 59.1664C84.9965 59.7081 85.0124 60.2497 85.0314 60.7913C85.0536 61.4913 84.9743 62.1501 84.381 62.7234Z" fill="white"/>
</g>
<defs>
<clipPath id="clip0_1026_86">
<rect width="169" height="89" fill="white"/>
</clipPath>
</defs>
</svg>
