<svg width="64" height="64" viewBox="0 0 64 64" fill="none" xmlns="http://www.w3.org/2000/svg">
<g clip-path="url(#clip0_1732_25850)">
<path d="M8.86179 34.2589H3C3.10042 34.0775 3.16644 33.9493 3.2399 33.8258C3.97263 32.5977 4.71558 31.3761 5.43343 30.1386C5.55803 29.9235 5.63706 29.6485 5.64078 29.4006C5.68914 26.1904 5.72354 22.9793 5.74679 19.7691C5.74865 19.5371 5.67519 19.2771 5.55803 19.076C4.84855 17.8525 4.11582 16.6421 3.3924 15.4271C3.31429 15.2961 3.24176 15.1633 3.13483 14.9744H11.4375C12.173 9.98603 12.9039 5.0323 13.6412 0.0271258C13.7956 0.111309 13.9128 0.168367 14.0225 0.236649C15.9054 1.4068 17.7856 2.58256 19.6741 3.74336C19.9401 3.90611 20.0563 4.04548 20.0061 4.39812C19.7736 6.01631 19.5877 7.64105 19.3859 9.26392C19.3766 9.33688 19.3729 9.41077 19.3645 9.51367C27.4691 7.59241 35.5411 7.59054 43.6588 9.51741C43.5295 8.4754 43.4049 7.45959 43.2757 6.44378C43.1817 5.70203 43.072 4.96308 42.9958 4.21946C42.9837 4.10348 43.0785 3.92014 43.1799 3.85654C45.2135 2.57788 47.2554 1.31233 49.3681 0C50.1073 5.00985 50.8382 9.96826 51.5755 14.9622H59.8763C59.7722 15.153 59.7034 15.2877 59.6271 15.4168C58.9037 16.6328 58.1719 17.8432 57.4606 19.0657C57.3499 19.2556 57.2681 19.4969 57.27 19.7139C57.2951 23.0027 57.3341 26.2914 57.3815 29.5793C57.3843 29.7523 57.4634 29.9394 57.5526 30.0918C58.2779 31.3247 59.0144 32.55 59.7462 33.7791C59.8243 33.91 59.8959 34.0438 60.0019 34.2327H54.1094C54.2572 35.1064 54.3948 35.9276 54.5362 36.7489C55.135 40.2144 55.732 43.6791 56.341 47.1427C56.3959 47.4523 56.2555 47.5824 56.0305 47.732C49.5233 52.0647 43.02 56.4029 36.5166 60.7412C34.9553 61.7822 33.3923 62.8205 31.8394 63.8737C31.5995 64.0365 31.4331 64.0458 31.1876 63.8821C23.1276 58.4944 15.0648 53.1123 6.99372 47.7414C6.69431 47.5421 6.63852 47.3466 6.6971 47.0165C7.43261 42.8176 8.15697 38.6159 8.88318 34.4151C8.88783 34.3861 8.87667 34.3543 8.86365 34.2599L8.86179 34.2589ZM9.2263 33.9755C9.20491 34.1691 9.19747 34.2926 9.17608 34.4151C8.45917 38.586 7.74783 42.7577 7.01139 46.9248C6.95095 47.2681 7.03928 47.4215 7.30429 47.5973C15.2443 52.884 23.1806 58.1754 31.1095 63.4799C31.4191 63.6876 31.6107 63.6754 31.911 63.4743C37.5952 59.6692 43.2887 55.8782 48.9794 52.0834C51.238 50.5774 53.4957 49.0715 55.745 47.5524C55.8798 47.4617 56.0379 47.2391 56.0156 47.1063C55.4419 43.6688 54.8458 40.2341 54.2544 36.7994C54.0945 35.8724 53.9364 34.9445 53.77 33.9708H59.5072C59.3993 33.7847 59.3259 33.6537 59.2487 33.5256C58.5885 32.4172 57.9246 31.3106 57.2718 30.1985C57.1816 30.0451 57.097 29.858 57.0951 29.6859C57.0459 26.3204 57.0059 22.954 56.977 19.5876C56.9752 19.3996 57.0486 19.191 57.1453 19.0255C57.7962 17.9114 58.4639 16.8068 59.1241 15.6983C59.1994 15.5711 59.2645 15.4383 59.364 15.254H51.3273C50.602 10.3387 49.8813 5.45135 49.1561 0.535033C49.0612 0.5659 48.9989 0.573383 48.9506 0.603315C47.1336 1.73231 45.3148 2.85943 43.5091 4.0062C43.3956 4.07822 43.311 4.31206 43.3268 4.45705C43.4505 5.60288 43.602 6.74497 43.7452 7.88799C43.8289 8.56146 43.9126 9.23492 43.9963 9.90559C35.6499 7.84496 27.3649 7.84403 19.0288 9.90371C19.0474 9.70916 19.0595 9.51179 19.0846 9.31537C19.2864 7.7243 19.4854 6.13323 19.7002 4.54404C19.7411 4.24098 19.6639 4.07354 19.3933 3.90798C17.6601 2.85008 15.9408 1.76879 14.215 0.696852C14.1145 0.635117 14.0048 0.589284 13.8607 0.517261C13.1326 5.45041 12.412 10.3387 11.6858 15.2587H3.65648C3.7569 15.4458 3.82292 15.5795 3.89917 15.7077C4.55936 16.8161 5.22607 17.9208 5.87883 19.0329C5.96902 19.1854 6.04527 19.3762 6.04434 19.5493C6.0183 22.4789 5.93276 25.4094 5.96716 28.338C5.98018 29.4689 5.71052 30.4211 5.08473 31.3378C4.52031 32.1646 4.04423 33.0542 3.49282 33.9755H9.22723H9.2263Z" fill="#DFDEDE"/>
<path d="M9.2261 33.9746H3.4917C4.04217 33.0533 4.51826 32.1637 5.08361 31.3369C5.7094 30.4202 5.97906 29.468 5.96604 28.3371C5.93163 25.4085 6.01718 22.4779 6.04322 19.5484C6.04508 19.3763 5.9679 19.1854 5.8777 19.032C5.22495 17.9199 4.55824 16.8143 3.89805 15.7068C3.8218 15.5786 3.75671 15.4449 3.65535 15.2578H11.6846C12.4109 10.3378 13.1315 5.44951 13.8596 0.516357C14.0028 0.588381 14.1134 0.633279 14.2138 0.695949C15.9387 1.76788 17.658 2.84917 19.3922 3.90708C19.6628 4.07264 19.74 4.24007 19.699 4.54313C19.4842 6.13233 19.2862 7.7234 19.0835 9.31446C19.0584 9.50996 19.0463 9.70732 19.0277 9.90281C27.3638 7.84312 35.6488 7.84406 43.9952 9.90468C43.9115 9.23309 43.8287 8.55962 43.7441 7.88709C43.6009 6.74406 43.4493 5.60104 43.3257 4.45614C43.3099 4.31022 43.3945 4.07732 43.5079 4.00529C45.3137 2.85853 47.1325 1.73234 48.9494 0.602412C48.9978 0.57248 49.0601 0.564997 49.1549 0.534129C49.8802 5.45044 50.6018 10.3378 51.3261 15.2531H59.3629C59.2634 15.4383 59.1983 15.5712 59.123 15.6974C58.4628 16.8059 57.7961 17.9105 57.1442 19.0246C57.0475 19.1892 56.9741 19.3987 56.9759 19.5867C57.0047 22.9531 57.0447 26.3186 57.094 29.685C57.0968 29.8571 57.1805 30.0442 57.2707 30.1976C57.9234 31.3107 58.5874 32.4163 59.2476 33.5247C59.3247 33.6538 59.3982 33.7847 59.5061 33.9699H53.7689C53.9362 34.9436 54.0943 35.8715 54.2533 36.7985C54.8447 40.2332 55.4407 43.6669 56.0145 47.1054C56.0368 47.2382 55.8778 47.4608 55.7439 47.5515C53.4946 49.0706 51.2359 50.5765 48.9783 52.0825C43.2876 55.8782 37.595 59.6693 31.9099 63.4734C31.6086 63.6745 31.418 63.6867 31.1083 63.479C23.1795 58.1755 15.2432 52.8831 7.30317 47.5964C7.03816 47.4206 6.94982 47.2672 7.01026 46.9239C7.74578 42.7568 8.45805 38.5851 9.17496 34.4142C9.19542 34.2926 9.20286 34.1682 9.22517 33.9746H9.2261ZM10.2592 34.0055C10.235 34.085 10.2155 34.128 10.209 34.1729C9.59711 38.2539 8.98248 42.335 8.39017 46.4188C8.36785 46.5713 8.52127 46.821 8.66447 46.9164C16.1721 51.9412 23.6872 56.952 31.1976 61.9721C31.4263 62.1255 31.5798 62.1312 31.8122 61.9759C39.3217 56.9557 46.8359 51.9412 54.3547 46.936C54.6215 46.7583 54.6643 46.589 54.6178 46.286C54.125 43.0533 53.6517 39.8169 53.171 36.5824C53.0436 35.7256 52.9097 34.8688 52.7786 34.0176H48.6426C48.7114 34.5452 48.7458 35.0447 48.8509 35.5283C48.9187 35.8388 48.8034 35.9744 48.5682 36.1222C42.9965 39.6224 37.4276 43.1263 31.8643 46.6386C31.6058 46.8014 31.4217 46.8229 31.1595 46.648C30.424 46.1569 29.6671 45.6976 28.9185 45.2262C24.1121 42.2003 19.3076 39.1725 14.4956 36.155C14.2055 35.9735 14.0883 35.8079 14.1711 35.4487C14.278 34.9857 14.3022 34.504 14.3645 34.0045H10.2573L10.2592 34.0055ZM17.5427 18.816C17.0676 18.816 16.6119 18.8721 16.1758 18.8047C15.2627 18.6635 14.7848 18.9984 14.4426 19.8879C13.8875 21.3331 13.1659 22.7137 12.489 24.1747C12.3923 23.9652 12.3179 23.8127 12.25 23.6575C11.5926 22.1646 10.9389 20.6699 10.2731 19.1808C10.2117 19.0423 10.0778 18.8375 9.97278 18.8337C9.11173 18.8057 8.24976 18.8178 7.37756 18.8178V30.3238H10.115V25.0633C10.5948 25.9772 11.0505 26.8807 11.3862 27.8273C11.614 28.4709 11.9562 28.6851 12.6089 28.6074C12.912 28.5719 13.0673 28.498 13.1956 28.2155C13.5871 27.3522 14.0121 26.5047 14.4268 25.6517C14.5309 25.4375 14.6444 25.2289 14.7541 25.0175C14.7838 25.025 14.8136 25.0334 14.8433 25.0409V30.3435H17.5436V18.8169L17.5427 18.816ZM45.8558 24.5825C45.8558 23.3207 45.8614 22.0589 45.8539 20.7971C45.8465 19.4539 45.2142 18.8197 43.8873 18.8178C42.3847 18.815 40.882 18.816 39.3794 18.8178C37.9325 18.8178 37.304 19.4436 37.304 20.8859C37.303 23.3628 37.3021 25.8406 37.304 28.3175C37.3049 29.7205 37.9242 30.3566 39.305 30.3622C40.8234 30.3678 42.341 30.3678 43.8594 30.3622C45.2347 30.3575 45.8484 29.7439 45.8539 28.3699C45.8595 27.108 45.8549 25.8462 45.8549 24.5844L45.8558 24.5825ZM47.7295 18.8206V30.3435H50.4855V26.1409C50.5274 26.1165 50.5692 26.0922 50.612 26.067C50.7134 26.1858 50.8398 26.2905 50.9114 26.4243C51.5447 27.6178 52.1649 28.8179 52.8 30.0096C52.8725 30.1452 53.0101 30.3416 53.1217 30.3444C54.1194 30.3706 55.1181 30.3594 56.1846 30.3594C55.3794 28.9096 54.6141 27.5327 53.8442 26.1474C55.1144 25.8097 55.4928 25.4833 55.5393 24.4058C55.597 23.07 55.5904 21.7268 55.5207 20.3911C55.4696 19.4146 54.8494 18.844 53.8804 18.8291C51.8385 18.7973 49.7956 18.8197 47.7276 18.8197L47.7295 18.8206ZM5.20728 32.9401H57.7914C57.5562 32.6623 57.3469 32.4565 57.187 32.217C56.8839 31.7624 56.498 31.6231 55.9438 31.6231C41.2633 31.6408 26.5827 31.6371 11.9022 31.6371C10.1811 31.6371 8.46083 31.6343 6.73968 31.6408C6.57881 31.6408 6.36216 31.6427 6.26638 31.7391C5.91025 32.0964 5.5941 32.493 5.20821 32.9391L5.20728 32.9401ZM56.7816 16.1558H6.2357C6.48955 16.4476 6.71085 16.6599 6.88194 16.9078C7.16648 17.3175 7.52633 17.4297 8.02194 17.4288C19.2267 17.4138 30.4314 17.4176 41.6361 17.4176C46.1766 17.4176 50.718 17.4185 55.2585 17.4129C55.4314 17.4129 55.6574 17.3942 55.768 17.2876C56.1102 16.9583 56.4078 16.5823 56.7825 16.1567L56.7816 16.1558ZM21.6824 28.4587C22.55 28.4587 23.385 28.4475 24.2191 28.4718C24.3306 28.4746 24.4971 28.6318 24.5371 28.7515C24.6858 29.192 24.7807 29.6504 24.922 30.0947C24.9555 30.2004 25.0866 30.3491 25.1759 30.351C26.0667 30.3697 26.9584 30.3622 27.892 30.3622C26.7501 26.4701 25.6287 22.6482 24.5045 18.8169C23.7076 18.8169 22.9489 18.8347 22.1929 18.8085C21.8823 18.7982 21.7754 18.9104 21.6936 19.1967C20.8502 22.1534 19.9919 25.1054 19.1383 28.0584C18.9217 28.8095 18.706 29.5606 18.4744 30.3622C19.3476 30.3622 20.1509 30.3744 20.9525 30.3482C21.0613 30.3444 21.2194 30.1676 21.2593 30.0414C21.4193 29.5269 21.542 29.0003 21.6843 28.4587H21.6824ZM32.6835 18.8375V27.8891H30.9475V25.1625C30.0743 25.3318 29.2542 25.4833 28.4397 25.6601C28.3495 25.6797 28.2258 25.8387 28.2258 25.9341C28.223 26.9303 28.2063 27.9284 28.2686 28.9217C28.3113 29.6008 28.713 30.2022 29.3853 30.2369C31.0312 30.322 32.69 30.3426 34.3331 30.2312C35.1439 30.1761 35.514 29.4446 35.5158 28.4232C35.5224 25.3234 35.5186 22.2235 35.5177 19.1246C35.5177 19.0358 35.5103 18.946 35.5056 18.8384H32.6844L32.6835 18.8375ZM13.0246 15.2457C14.2994 15.2457 15.5035 15.2531 16.7077 15.2326C16.8081 15.2307 16.9755 15.0511 16.9922 14.936C17.2219 13.3992 17.4311 11.8596 17.6441 10.32C17.7138 9.81115 17.778 9.3023 17.8561 8.70834C16.4399 9.5296 15.1149 10.2947 13.7963 11.0711C13.7033 11.1253 13.6141 11.2544 13.5973 11.3601C13.4011 12.6322 13.2198 13.9062 13.0246 15.2447V15.2457ZM49.9546 15.2288C49.9472 15.0904 49.95 14.9978 49.9369 14.908C49.7705 13.7519 49.6124 12.5948 49.4218 11.4424C49.3939 11.2769 49.2349 11.087 49.0843 10.9963C47.9126 10.2957 46.7289 9.61659 45.548 8.93283C45.4457 8.8739 45.3323 8.83275 45.1547 8.75137C45.4588 10.9514 45.7535 13.0849 46.0492 15.2279H49.9555L49.9546 15.2288ZM13.8558 9.63623C15.2869 8.80656 16.598 8.05171 17.8998 7.27909C18.0067 7.21549 18.0857 7.03964 18.1081 6.90495C18.1983 6.36898 18.2382 5.82366 18.3424 5.29143C18.3982 5.00708 18.3163 4.87519 18.0802 4.73863C17.1159 4.17927 16.1656 3.59841 15.2069 3.02877C15.1102 2.97171 15.0005 2.9371 14.8601 2.87536C14.5263 5.12026 14.2008 7.3137 13.8558 9.63623ZM48.146 2.82579C46.9735 3.52638 45.8707 4.17834 44.7809 4.85274C44.6944 4.90606 44.6619 5.11932 44.6758 5.25027C44.7325 5.77502 44.8395 6.29508 44.8832 6.82076C44.9074 7.10979 45.0375 7.25665 45.2719 7.38947C46.4286 8.04797 47.576 8.72144 48.7291 9.38742C48.8397 9.45103 48.9578 9.5006 49.1512 9.59414C48.8118 7.30903 48.4864 5.11464 48.146 2.82579ZM30.3691 9.66336C30.0251 10.2442 29.7312 10.6979 29.483 11.1749C29.3249 11.478 29.1287 11.5837 28.7893 11.5743C27.8799 11.55 26.9696 11.5659 26.0397 11.5659C25.8268 12.5219 25.6231 13.4357 25.413 14.3814H26.0788C26.3583 13.7266 26.5545 13.3949 26.6674 13.3861C26.6088 13.7145 26.5511 14.0381 26.4786 14.4459C26.7687 14.3889 27.1444 14.3917 27.1713 14.2953C27.2885 13.8753 27.6 13.4292 27.2504 13.0606C27.4438 12.694 27.6149 12.3675 27.8008 12.0149C28.0389 12.231 28.2965 12.4648 28.5652 12.7089C28.1942 13.345 27.8408 13.9502 27.4884 14.5544C27.5117 14.5722 27.534 14.59 27.5572 14.6087C28.1728 14.2345 28.7893 13.8604 29.4086 13.4844C29.8168 13.8491 30.2036 14.1943 30.6592 14.6012C30.6285 14.0184 30.5746 13.5414 30.5848 13.0653C30.5997 12.418 31.2515 12.4929 31.59 12.1945C31.5277 12.7127 31.4217 13.1963 31.3203 13.6798C31.2106 14.2037 31.3622 14.3926 31.8903 14.3963C32.0298 14.3973 32.1693 14.3963 32.3088 14.3963C32.7687 14.3963 33.0114 14.151 33.0369 13.6602H32.0401C32.1953 12.9446 32.3404 12.274 32.4966 11.5537H30.5021C30.4593 10.9495 30.4193 10.3799 30.3682 9.66242L30.3691 9.66336ZM32.7858 40.2276C33.75 40.2276 34.7069 40.2276 35.6637 40.2276C36.7247 40.2276 36.9924 40.047 37.4072 39.0471C37.6963 38.3512 37.4471 37.9574 36.7023 37.949C36.07 37.9424 35.4368 37.9481 34.8157 37.9481C34.8008 37.7488 34.7896 37.5861 34.7747 37.3887C35.646 37.3887 36.5582 37.3887 37.4704 37.3887C38.1734 37.3887 38.2273 37.3419 38.4002 36.5385C37.4351 36.5385 36.482 36.5385 35.5279 36.5385C34.4791 36.5394 34.1787 36.7442 33.7779 37.7236C33.4971 38.4101 33.7631 38.8067 34.5125 38.8105C35.1439 38.8142 35.7753 38.8105 36.4169 38.8105C36.3146 39.194 36.0911 39.3857 35.7464 39.3857C35.0807 39.3857 34.4149 39.3857 33.7491 39.3857C33.0006 39.3857 32.9587 39.4222 32.7858 40.2266V40.2276ZM31.5881 38.991C31.4152 39.6289 31.2608 40.1986 31.086 40.8402C31.5017 40.8131 31.8132 40.7935 32.1237 40.7729C32.1228 40.7336 32.1219 40.6934 32.1209 40.6541C31.9963 40.5765 31.8717 40.4998 31.7537 40.4268C31.8764 40.163 31.9731 39.9198 32.0986 39.6925C32.3664 39.2071 32.4483 38.7441 32.0568 38.2745C31.7769 37.9387 31.683 37.5833 32.0205 37.2072C32.1061 37.1118 32.1247 36.9556 32.1386 36.9192C32.5292 36.8116 32.8639 36.7199 33.2396 36.617C33.0136 36.0193 33.3549 35.9903 33.7696 36.0156C34.0076 36.0296 34.307 36.0783 34.1713 35.6508H32.598C32.5989 35.1971 32.3357 34.8838 31.9675 34.9212C31.5221 34.9652 31.5407 35.286 31.5993 35.6106C31.2088 35.7415 30.4723 36.6797 30.4491 37.0651C30.4491 37.08 30.4351 37.1025 30.4407 37.11C30.6694 37.3943 30.3914 37.5805 30.3115 37.8068C30.211 38.0902 30.1255 38.3793 30.0306 38.6646C29.9981 38.7637 29.9786 38.8797 29.9144 38.9536C29.4458 39.4924 29.2486 40.1443 29.0859 40.8131C29.5973 41.031 29.548 40.6307 29.7117 40.366C30.1366 39.6776 30.6527 39.0453 31.1334 38.3886C31.2655 38.5635 31.4394 38.7955 31.5872 38.9919L31.5881 38.991ZM29.6736 36.5712C28.568 36.5712 27.5052 36.5497 26.4433 36.5805C25.9542 36.5946 25.6269 36.9163 25.4334 37.3644C25.1694 37.9771 24.9016 38.5888 24.6477 39.2061C24.4013 39.8066 24.6793 40.2201 25.3312 40.2257C26.0434 40.2322 26.7557 40.2276 27.468 40.2276C28.2184 40.2276 28.2518 40.2004 28.4508 39.3848H25.6975C25.8147 38.673 26.3642 38.1342 26.3308 37.3887C27.0588 37.3887 27.8473 37.3887 28.6359 37.3887C29.1448 37.3887 29.4907 37.1162 29.6736 36.5712ZM42.2573 13.3122C42.3121 13.3366 42.367 13.3599 42.4219 13.3843C42.393 13.5461 42.3651 13.707 42.3363 13.8688C42.3075 14.0297 42.2796 14.1915 42.247 14.3739H43.0151C43.0384 13.8894 43.0607 13.4236 43.0839 12.9577C43.0616 12.8633 43.1657 12.7922 43.2466 12.7005C43.4745 12.4423 43.5284 11.7539 43.3052 11.7071C42.8263 11.6061 42.3205 11.6361 41.8258 11.6192C41.8044 11.6192 41.77 11.6903 41.7607 11.7324C41.5645 12.6042 41.3721 13.4759 41.1777 14.3524C41.8779 14.4394 41.8695 14.4375 42.0248 13.823C42.0704 13.6443 42.1792 13.4815 42.2591 13.3122H42.2573ZM24.4841 14.3711H25.1684C25.3302 13.6499 25.4995 12.9287 25.651 12.2038C25.7449 11.7548 25.5878 11.5762 25.1257 11.5687C24.9406 11.5659 24.7361 11.5191 24.5733 11.5799C24.3418 11.6669 24.0033 11.7951 23.9494 11.9775C23.7188 12.7538 23.5765 13.5573 23.4017 14.3496C23.8759 14.4702 24.1902 14.4347 24.2302 13.8997C24.2367 13.8099 24.3855 13.7313 24.4692 13.648C24.5027 13.6733 24.5352 13.6986 24.5687 13.7238C24.5417 13.9315 24.5147 14.1382 24.485 14.372L24.4841 14.3711ZM35.1439 14.3963C35.5707 14.3963 35.925 14.3963 36.2793 14.3963C36.7144 14.3963 36.9683 14.1644 37.065 13.7565C37.1914 13.2281 37.2984 12.6958 37.4183 12.1655C37.502 11.796 37.3514 11.5902 36.9869 11.5715C36.6019 11.5519 36.216 11.5668 35.8283 11.5668C35.7939 11.6389 35.7557 11.6912 35.7427 11.7502C35.5465 12.6088 35.3531 13.4694 35.1439 14.3954V14.3963ZM34.9421 14.3758C35.0742 13.7818 35.1737 13.1991 35.3345 12.6332C35.6479 11.5313 35.2917 11.5304 34.4549 11.5668C34.3935 11.5696 34.3135 11.5444 34.2717 11.5734C34.0662 11.7193 33.7501 11.8446 33.6933 12.0411C33.4757 12.795 33.3418 13.5732 33.1735 14.3571C33.6031 14.4366 33.9546 14.4805 34.0011 13.9165C34.0095 13.8192 34.1638 13.7341 34.2503 13.6424C34.2838 13.6714 34.3163 13.7014 34.3498 13.7304C34.3182 13.9361 34.2866 14.1429 34.2512 14.3739H34.9412L34.9421 14.3758ZM37.1654 14.3954C37.6275 14.3954 38.0302 14.4637 38.3928 14.372C38.6429 14.3093 38.9498 14.0662 39.0353 13.8323C39.2343 13.2823 39.3329 12.693 39.4305 12.1122C39.4547 11.9662 39.3394 11.6641 39.2622 11.6548C38.7954 11.6005 38.3212 11.6071 37.8488 11.6043C37.8182 11.6043 37.7717 11.6959 37.7596 11.752C37.5643 12.6116 37.3728 13.4713 37.1663 14.3954H37.1654ZM39.9791 13.6705C40.325 13.1111 40.803 13.4713 41.1833 13.2795C41.2224 13.1037 41.2707 12.8848 41.3321 12.6042H40.313C40.3334 12.4891 40.3353 12.3834 40.3557 12.3797C40.7054 12.3179 41.0578 12.2684 41.4278 12.2132C41.465 12.0121 41.5032 11.8063 41.5469 11.5687C41.1508 11.5687 40.7965 11.5715 40.4422 11.5687C40.0117 11.564 39.7485 11.767 39.6537 12.1907C39.5458 12.6743 39.4333 13.1579 39.3273 13.6424C39.2008 14.2196 39.3468 14.3954 39.9401 14.3973C40.0638 14.3973 40.1874 14.3973 40.3111 14.3973C40.7686 14.3973 41.0082 14.1556 41.0299 13.6724C40.8764 13.6724 40.723 13.6724 40.5696 13.6724C40.4162 13.6724 40.2665 13.6724 39.9791 13.6724V13.6705ZM21.5569 12.6341C21.9251 11.8362 21.6564 11.478 20.9664 11.565C20.9209 11.5706 20.8734 11.565 20.827 11.565C20.1602 11.5678 19.6191 12.2674 19.8301 12.9054C19.8785 13.0522 20.0989 13.1673 20.2644 13.2412C20.3918 13.2973 20.5582 13.2645 20.7888 13.2758C20.6931 13.4441 20.6373 13.5592 20.5601 13.6574C20.5508 13.6696 20.4308 13.5779 20.3555 13.5564C20.1686 13.5021 19.9473 13.3805 19.8004 13.4385C19.6721 13.49 19.5605 13.75 19.5614 13.9174C19.5624 14.0699 19.7139 14.3393 19.8199 14.3505C20.1928 14.3889 20.5926 14.401 20.9488 14.3009C21.2835 14.2065 21.5736 13.4198 21.476 13.0578C21.3579 12.6191 20.9822 12.7295 20.6735 12.7014C20.6475 12.6986 20.6224 12.6753 20.4671 12.5901C20.6484 12.4835 20.7879 12.3329 20.8939 12.3535C21.1189 12.3974 21.3263 12.5303 21.5569 12.6341ZM21.9549 14.3449C22.4765 14.4992 22.7452 14.3758 22.7843 13.8463C22.8057 13.5545 22.9052 13.2692 22.9703 12.9811C23.0577 12.5976 23.0474 12.1243 23.6621 12.2787C23.7123 12.0121 23.7504 11.8072 23.7932 11.5809H22.0395C21.9902 11.7979 21.9409 12.0177 21.887 12.259C22.0748 12.2815 22.2227 12.2983 22.4031 12.3198C22.2515 13.0073 22.1046 13.6686 21.9558 14.3449H21.9549Z" fill="#0D0C08"/>
<path d="M10.2595 34.0063H14.3666C14.3034 34.5058 14.2801 34.9876 14.1732 35.4506C14.0905 35.8097 14.2076 35.9744 14.4977 36.1568C19.3097 39.1733 24.1143 42.2021 28.9207 45.228C29.6692 45.6994 30.4252 46.1587 31.1616 46.6498C31.4238 46.8247 31.6089 46.8041 31.8665 46.6404C37.4298 43.1281 42.9987 39.6242 48.5703 36.124C48.8056 35.9762 48.9209 35.8415 48.853 35.5301C48.7479 35.0465 48.7135 34.547 48.6447 34.0194H52.7807C52.9109 34.8706 53.0457 35.7265 53.1731 36.5842C53.6538 39.8187 54.1281 43.0551 54.62 46.2878C54.6665 46.5908 54.6228 46.7611 54.3568 46.9379C46.8371 51.944 39.3239 56.9576 31.8144 61.9777C31.5819 62.133 31.4285 62.1274 31.1998 61.974C23.6893 56.9538 16.1743 51.9421 8.66662 46.9182C8.52342 46.8219 8.37 46.5731 8.39231 46.4206C8.98463 42.3368 9.59926 38.2557 10.2111 34.1747C10.2176 34.1298 10.2371 34.0868 10.2613 34.0073L10.2595 34.0063ZM41.1603 52.7203L41.1231 52.6006H21.8845C21.8743 52.6408 21.864 52.681 21.8538 52.7222C22.0593 52.7821 22.2648 52.8943 22.4703 52.8943C28.4939 52.9037 34.5184 52.9037 40.542 52.8943C40.7475 52.8943 40.9539 52.7811 41.1594 52.7203H41.1603ZM18.2236 51.2004C18.5863 51.2004 18.895 51.2004 19.2046 51.2004C20.0294 51.1975 20.4228 50.5802 20.035 49.8431C19.929 49.642 19.9197 49.5382 20.0201 49.3362C20.2768 48.818 20.0685 48.1286 19.6547 48.0902C19.1842 48.0463 18.7072 48.08 18.2246 48.08V51.2004H18.2236ZM41.006 48.8806C41.0283 48.9433 41.0506 49.005 41.0739 49.0677C41.2105 48.9283 41.4663 48.7777 41.4551 48.6515C41.4384 48.4541 41.2756 48.1529 41.112 48.1033C40.0073 47.7703 39.5889 48.1146 39.6307 49.2576C39.6326 49.3193 39.6112 49.4035 39.6428 49.44C39.7739 49.5924 39.9013 49.7655 40.0696 49.8618C40.1896 49.9301 40.3718 49.8974 40.5262 49.8946C40.8925 49.889 40.9037 50.1275 40.886 50.3987C40.8637 50.7336 40.5931 50.6672 40.4378 50.6195C40.29 50.5737 40.1849 50.3903 40.0055 50.2135C39.8855 50.2865 39.6131 50.3669 39.5991 50.4801C39.5731 50.6803 39.6465 50.9656 39.7879 51.0928C39.9199 51.2116 40.1933 51.1957 40.4044 51.1975C41.5035 51.2106 41.5574 51.1508 41.5276 50.0508C41.5118 49.4615 41.3816 49.3352 40.7661 49.3146C40.223 49.2959 40.1775 49.2267 40.37 48.5579C40.595 48.672 40.8005 48.7768 41.0069 48.8816L41.006 48.8806ZM23.164 50.5867H22.4694V48.0977H21.8408C21.8408 48.962 21.838 49.7861 21.8426 50.6111C21.8445 50.8992 21.9328 51.1583 22.2639 51.1798C22.6488 51.205 23.0403 51.2153 23.4206 51.1667C23.5573 51.1489 23.773 50.9441 23.7767 50.8178C23.8074 49.9086 23.7935 48.9985 23.7935 48.0912H23.164V50.5867ZM25.6615 48.0472V51.2041C26.2632 51.1115 27.0033 51.4856 27.3808 50.8318C27.7956 50.1125 27.7667 49.237 27.4227 48.4999C27.0786 47.7629 26.2966 48.1651 25.6615 48.0472ZM31.2648 51.1564C30.9952 50.1705 30.7395 49.2108 30.4605 48.2567C30.4345 48.1679 30.2597 48.0706 30.1555 48.0725C30.03 48.0753 29.8226 48.1548 29.7957 48.2446C29.513 49.2061 29.2582 50.1771 28.9913 51.1629C29.3791 51.2434 29.645 51.2415 29.7073 50.7888C29.7185 50.7065 29.9621 50.6064 30.0997 50.6045C30.2346 50.6026 30.4745 50.6999 30.4884 50.7832C30.5647 51.2499 30.8483 51.2481 31.2658 51.1555L31.2648 51.1564ZM38.0026 48.0837H36.4069V51.1676H38.0686C38.0556 50.9712 38.0453 50.8112 38.0314 50.6064H37.0429V49.9123C37.2559 49.8974 37.4363 49.8852 37.6241 49.8721V49.3474C37.4149 49.3305 37.2354 49.3156 37.0429 49.3006V48.6505C37.3814 48.6356 37.6855 48.6215 38.0026 48.6075V48.0837ZM33.4602 49.9965C33.7429 49.9965 33.9568 49.9965 34.1716 49.9965C34.5137 49.9975 34.7378 49.8216 34.6765 49.4849C34.5909 49.0125 35.0326 48.3288 34.3092 48.1099C33.861 47.9743 33.3403 48.0846 32.8391 48.0846V51.1639H33.4602V49.9965ZM43.0331 48.6038C43.2265 48.6225 43.392 48.6384 43.6003 48.658V51.1629H44.2447V48.6636C44.4418 48.6374 44.6045 48.6159 44.7775 48.5925V48.0809H43.0321V48.6038H43.0331ZM36.3558 55.2973C36.3948 55.2533 36.3604 55.2739 36.3576 55.2973C36.2833 55.9595 36.7872 55.6929 37.082 55.7406C37.4186 55.7958 37.5934 55.6658 37.5953 55.2823C37.5971 54.9091 37.4595 54.781 37.1006 54.8109C36.9435 54.824 36.7807 54.7688 36.6208 54.7445C36.6282 54.694 36.6357 54.6435 36.644 54.5929C36.9462 54.548 37.2484 54.5022 37.5506 54.4573C37.5413 54.4021 37.5311 54.3479 37.5218 54.2927H36.3753V55.0859C36.5464 55.0859 36.6831 55.0859 36.8198 55.0859C36.9565 55.0859 37.0922 55.0859 37.3089 55.0859C37.2512 55.2477 37.2094 55.4348 37.1824 55.4329C36.9369 55.4114 36.6952 55.3571 36.3567 55.2954L36.3558 55.2973ZM30.3238 54.968C30.3238 54.4941 30.0898 54.2578 29.6218 54.259C29.513 54.259 29.393 54.231 29.3001 54.2693C29.2052 54.3086 29.075 54.4087 29.0685 54.491C29.0425 54.8156 29.0425 55.1458 29.0704 55.4703C29.0778 55.562 29.1959 55.6901 29.2898 55.7219C29.9956 55.9576 30.3238 55.7116 30.3238 54.969V54.968ZM25.9405 55.4366C26.1953 55.214 26.4045 55.0775 26.5468 54.8895C26.6351 54.7725 26.6649 54.5696 26.636 54.4218C26.6221 54.3479 26.424 54.2824 26.3013 54.2628C26.1348 54.2356 25.961 54.259 25.7908 54.2553C25.4235 54.2478 25.3993 54.4395 25.4737 54.7043C25.7713 54.6313 26.0326 54.5677 26.4017 54.477C26.1506 55.0625 25.5063 55.142 25.4198 55.7659C25.8968 55.7388 26.2892 55.7163 26.6816 55.6939C26.6797 55.6265 26.6769 55.5601 26.6751 55.4928C26.4631 55.4769 26.2511 55.46 25.9386 55.4357L25.9405 55.4366ZM33.2008 55.4301C33.4519 55.2187 33.6564 55.0971 33.7866 54.9194C33.8824 54.7884 33.9251 54.5789 33.9028 54.4171C33.8926 54.3469 33.662 54.2843 33.5253 54.2618C33.3598 54.2356 33.1859 54.2469 33.0167 54.2581C32.6261 54.2833 32.7033 54.4966 32.7396 54.6696C33.0808 54.6079 33.3393 54.5621 33.5978 54.5153C33.6099 54.5621 33.622 54.6079 33.6341 54.6547C33.3049 54.9624 32.9758 55.2702 32.6457 55.5779C32.681 55.6293 32.7154 55.6808 32.7507 55.7322C33.1478 55.6948 33.5662 55.8716 33.9382 55.5003C33.7345 55.4806 33.5309 55.461 33.1999 55.4292L33.2008 55.4301Z" fill="#F6B51A"/>
<path d="M17.543 18.8159V30.3425H14.8427V25.0399C14.813 25.0324 14.7832 25.024 14.7535 25.0165C14.6438 25.2279 14.5303 25.4374 14.4262 25.6507C14.0115 26.5028 13.5865 27.3512 13.195 28.2145C13.0667 28.497 12.9114 28.5709 12.6083 28.6064C11.9556 28.6841 11.6134 28.4699 11.3856 27.8263C11.0499 26.8797 10.5942 25.9771 10.1144 25.0623V30.3228H7.37695V18.8168C8.24916 18.8168 9.11113 18.8047 9.97217 18.8327C10.0782 18.8365 10.2111 19.0413 10.2725 19.1798C10.9383 20.6689 11.592 22.1636 12.2494 23.6565C12.3173 23.8117 12.3917 23.9642 12.4884 24.1737C13.1644 22.7127 13.8859 21.3321 14.442 19.8869C14.7842 18.9964 15.2621 18.6616 16.1752 18.8037C16.6113 18.8711 17.067 18.815 17.5421 18.815L17.543 18.8159Z" fill="#FAF9F9"/>
<path d="M45.856 24.5825C45.856 25.8443 45.8607 27.1061 45.8551 28.368C45.8495 29.743 45.2358 30.3556 43.8606 30.3603C42.3421 30.3659 40.8246 30.3659 39.3062 30.3603C37.9253 30.3547 37.306 29.7186 37.3051 28.3156C37.3032 25.8387 37.3032 23.3609 37.3051 20.8841C37.3051 19.4417 37.9337 18.8169 39.3805 18.8159C40.8832 18.8159 42.3858 18.8131 43.8885 18.8159C45.2154 18.8188 45.8477 19.4529 45.8551 20.7952C45.8616 22.057 45.857 23.3188 45.857 24.5806L45.856 24.5825ZM43.0432 21.275H40.1672V27.8769H43.0432V21.275Z" fill="#F9F9F9"/>
<path d="M47.7295 18.8207C49.7975 18.8207 51.8404 18.7982 53.8823 18.83C54.8503 18.845 55.4705 19.4156 55.5226 20.3921C55.5923 21.7269 55.5988 23.071 55.5412 24.4067C55.4947 25.4843 55.1162 25.8107 53.8461 26.1484C54.616 27.5327 55.3803 28.9105 56.1865 30.3604C55.12 30.3604 54.1213 30.3716 53.1236 30.3454C53.012 30.3426 52.8734 30.1462 52.8018 30.0105C52.1668 28.8179 51.5465 27.6179 50.9133 26.4253C50.8417 26.2906 50.7152 26.1858 50.6139 26.0679C50.5721 26.0923 50.5302 26.1166 50.4874 26.1418V30.3445H47.7314V18.8216L47.7295 18.8207ZM50.5293 21.2555V23.6584C51.1049 23.6584 51.6432 23.665 52.1816 23.6556C52.5247 23.65 52.7358 23.4742 52.7433 23.115C52.7526 22.681 52.7488 22.246 52.7442 21.812C52.7414 21.4781 52.5545 21.2751 52.2374 21.2611C51.6721 21.2367 51.1049 21.2545 50.5293 21.2545V21.2555Z" fill="#FBFBFB"/>
<path d="M5.20752 32.9401C5.59434 32.4939 5.91049 32.0973 6.26569 31.74C6.36147 31.6437 6.57812 31.6418 6.73899 31.6418C8.46015 31.6352 10.1804 31.6381 11.9015 31.6381C26.5821 31.6381 41.2626 31.6418 55.9431 31.624C56.4982 31.624 56.8832 31.7625 57.1863 32.218C57.3462 32.4574 57.5555 32.6632 57.7907 32.941H5.20752V32.9401Z" fill="#F5B41B"/>
<path d="M56.7817 16.1557C56.407 16.5813 56.1094 16.9573 55.7672 17.2866C55.6575 17.3923 55.4306 17.411 55.2577 17.4119C50.7172 17.4185 46.1758 17.4166 41.6353 17.4166C30.4306 17.4166 19.2258 17.4129 8.02111 17.4278C7.5255 17.4278 7.16565 17.3165 6.88111 16.9068C6.70909 16.6599 6.48871 16.4466 6.23486 16.1548H56.7817V16.1557Z" fill="#EEAF1D"/>
<path d="M21.6825 28.4578C21.5412 28.9993 21.4184 29.526 21.2576 30.0404C21.2185 30.1667 21.0595 30.3435 20.9507 30.3472C20.1492 30.3734 19.3458 30.3612 18.4727 30.3612C18.7033 29.5596 18.919 28.8085 19.1366 28.0574C19.9902 25.1045 20.8484 22.1524 21.6918 19.1957C21.7736 18.9095 21.8806 18.7972 22.1911 18.8075C22.948 18.8337 23.7059 18.8159 24.5028 18.8159C25.6269 22.6472 26.7483 26.4682 27.8902 30.3612C26.9566 30.3612 26.0649 30.3687 25.1741 30.35C25.0848 30.3481 24.9537 30.1994 24.9203 30.0937C24.7799 29.6504 24.6841 29.1911 24.5353 28.7505C24.4953 28.6308 24.3289 28.4746 24.2173 28.4709C23.3832 28.4475 22.5482 28.4578 21.6806 28.4578H21.6825ZM23.8342 26.0277C23.5859 24.9847 23.3497 23.9951 23.0875 22.8932C22.8197 24.0035 22.5798 25.0034 22.3325 26.0277H23.8342Z" fill="#FBFAFA"/>
<path d="M32.6835 18.8366H35.5046C35.5093 18.9442 35.5167 19.0331 35.5167 19.1229C35.5167 22.2227 35.5214 25.3225 35.5149 28.4214C35.513 29.4428 35.1429 30.1752 34.3321 30.2295C32.689 30.3408 31.0302 30.3193 29.3844 30.2351C28.7121 30.2005 28.3104 29.6 28.2676 28.9199C28.2053 27.9266 28.222 26.9285 28.2248 25.9324C28.2248 25.8379 28.3485 25.6779 28.4387 25.6583C29.2532 25.4824 30.0743 25.3309 30.9465 25.1607V27.8873H32.6825V18.8357L32.6835 18.8366Z" fill="#FCFCFC"/>
<path d="M13.0259 15.2446C13.2211 13.9061 13.4025 12.6312 13.5987 11.36C13.6154 11.2543 13.7047 11.1253 13.7977 11.071C15.1162 10.2946 16.4412 9.52951 17.8574 8.70825C17.7793 9.30128 17.7161 9.81106 17.6454 10.3199C17.4334 11.8595 17.2232 13.3991 16.9936 14.936C16.9759 15.051 16.8085 15.2315 16.709 15.2325C15.5049 15.253 14.3007 15.2456 13.0259 15.2456V15.2446Z" fill="#F4B31B"/>
<path d="M49.9546 15.2277H46.0483C45.7526 13.0848 45.4579 10.9512 45.1538 8.75122C45.3314 8.8326 45.4449 8.87375 45.5471 8.93268C46.729 9.61644 47.9127 10.2955 49.0834 10.9961C49.234 11.0859 49.3939 11.2767 49.4209 11.4423C49.6115 12.5937 49.7696 13.7517 49.936 14.9078C49.9491 14.9976 49.9463 15.0902 49.9537 15.2287L49.9546 15.2277Z" fill="#F4B31B"/>
<path d="M13.856 9.63611C14.2009 7.31358 14.5264 5.12014 14.8602 2.87524C15.0006 2.93604 15.1103 2.97065 15.207 3.02865C16.1648 3.59829 17.116 4.17915 18.0803 4.7385C18.3165 4.876 18.3992 5.00696 18.3425 5.29131C18.2374 5.82354 18.1974 6.36886 18.1082 6.90483C18.0859 7.04045 18.0068 7.21537 17.8999 7.27897C16.5981 8.05159 15.287 8.8055 13.856 9.63611Z" fill="#F4B31B"/>
<path d="M48.1461 2.82568C48.4864 5.11454 48.8119 7.30892 49.1513 9.59403C48.9579 9.49956 48.8389 9.45092 48.7291 9.38732C47.5771 8.72133 46.4287 8.04786 45.2719 7.38936C45.0376 7.2556 44.9074 7.10875 44.8833 6.82066C44.8396 6.29498 44.7326 5.77491 44.6759 5.25017C44.662 5.11922 44.6954 4.90595 44.781 4.85263C45.8708 4.17823 46.9736 3.52721 48.1461 2.82568Z" fill="#F4B31B"/>
<path d="M30.3692 9.66333C30.4204 10.3808 30.4604 10.9504 30.5031 11.5547H32.4977C32.3415 12.2749 32.1964 12.9456 32.0411 13.6611H33.0379C33.0125 14.1519 32.7698 14.3972 32.3099 14.3972C32.1704 14.3972 32.0309 14.3972 31.8914 14.3972C31.3623 14.3935 31.2108 14.2046 31.3214 13.6808C31.4228 13.1962 31.5288 12.7126 31.5911 12.1954C31.2517 12.4938 30.5999 12.418 30.5859 13.0662C30.5747 13.5423 30.6296 14.0194 30.6603 14.6021C30.2047 14.1952 29.8178 13.8501 29.4096 13.4853C28.7904 13.8613 28.1739 14.2354 27.5583 14.6096C27.5351 14.5918 27.5127 14.574 27.4895 14.5553C27.8419 13.9511 28.1953 13.3459 28.5663 12.7098C28.2975 12.4657 28.039 12.2309 27.8019 12.0158C27.616 12.3684 27.4439 12.6949 27.2515 13.0615C27.6011 13.4301 27.2896 13.8762 27.1724 14.2962C27.1454 14.3916 26.7698 14.3888 26.4797 14.4468C26.5522 14.039 26.6099 13.7163 26.6684 13.387C26.5556 13.3958 26.3594 13.7275 26.0798 14.3823H25.4141C25.6242 13.4366 25.8278 12.5228 26.0408 11.5668C26.9706 11.5668 27.881 11.5509 28.7904 11.5752C29.1298 11.5846 29.3269 11.4789 29.484 11.1758C29.7323 10.6988 30.0261 10.2451 30.3702 9.66427L30.3692 9.66333ZM28.4631 13.691C28.7848 13.5114 29.1065 13.3328 29.4468 13.1438C29.7202 13.3786 29.9936 13.6134 30.267 13.8482C30.3107 13.851 30.3544 13.8547 30.3981 13.8575C29.9834 12.8109 30.518 12.2814 31.4144 11.9503C31.3856 11.9157 31.3568 11.8811 31.327 11.8465H30.2335C30.2065 11.4433 30.1824 11.0954 30.1498 10.6146C29.8597 11.0842 29.7174 11.5593 29.4041 11.752C29.087 11.9466 28.5997 11.8624 28.1199 11.9064C28.4203 12.1888 28.6658 12.4199 28.915 12.6537C28.7253 12.9961 28.5532 13.3057 28.3812 13.6162C28.3636 13.663 28.3459 13.7097 28.3282 13.7565C28.3729 13.7341 28.4175 13.7126 28.4612 13.6901L28.4631 13.691Z" fill="#EFE8E7"/>
<path d="M32.7861 40.2276C32.9582 39.4223 33.0009 39.3867 33.7495 39.3867C34.4152 39.3867 35.081 39.3867 35.7468 39.3867C36.0915 39.3867 36.3149 39.195 36.4172 38.8115C35.7756 38.8115 35.1442 38.8143 34.5129 38.8115C33.7634 38.8078 33.4975 38.4112 33.7783 37.7246C34.1791 36.7453 34.4794 36.5413 35.5283 36.5395C36.4823 36.5385 37.4363 36.5395 38.4006 36.5395C38.2276 37.342 38.1737 37.3897 37.4707 37.3897C36.5585 37.3897 35.6473 37.3897 34.7751 37.3897C34.789 37.5862 34.8011 37.7498 34.816 37.9491C35.4371 37.9491 36.0694 37.9435 36.7027 37.95C37.4466 37.9575 37.6967 38.3513 37.4075 39.0481C36.9919 40.0481 36.725 40.2286 35.664 40.2286C34.7072 40.2286 33.7504 40.2286 32.7861 40.2286V40.2276Z" fill="#ECEBEA"/>
<path d="M31.5882 38.9909C31.4404 38.7944 31.2656 38.5625 31.1345 38.3876C30.6537 39.0442 30.1376 39.6756 29.7127 40.3649C29.5491 40.6296 29.5983 41.03 29.0869 40.812C29.2506 40.1432 29.4477 39.4904 29.9154 38.9525C29.9796 38.8786 29.9991 38.7626 30.0316 38.6635C30.1265 38.3782 30.212 38.0892 30.3125 37.8057C30.3924 37.5794 30.6705 37.3933 30.4417 37.1089C30.4352 37.1014 30.4491 37.0799 30.4501 37.064C30.4733 36.6786 31.2098 35.7405 31.6003 35.6095C31.5417 35.2849 31.5231 34.965 31.9685 34.9201C32.3377 34.8836 32.5999 35.1961 32.599 35.6497H34.1723C34.3071 36.0772 34.0077 36.0285 33.7706 36.0145C33.3559 35.9893 33.0146 36.0183 33.2406 36.616C32.8649 36.7188 32.5302 36.8105 32.1396 36.9181C32.1257 36.9546 32.1071 37.1108 32.0215 37.2062C31.684 37.5822 31.777 37.9376 32.0578 38.2734C32.4493 38.743 32.3684 39.206 32.0996 39.6915C31.9741 39.9188 31.8774 40.162 31.7547 40.4257C31.8718 40.4987 31.9974 40.5754 32.122 40.653C32.1229 40.6923 32.1238 40.7325 32.1247 40.7718C31.8132 40.7924 31.5017 40.812 31.087 40.8392C31.2609 40.1975 31.4162 39.6279 31.5891 38.9899L31.5882 38.9909Z" fill="#F1F0F0"/>
<path d="M29.6738 36.5713C29.4903 37.1163 29.1444 37.3888 28.6361 37.3888C27.8476 37.3888 27.0591 37.3888 26.331 37.3888C26.3654 38.1343 25.8149 38.673 25.6978 39.3849H28.4511C28.2521 40.2005 28.2186 40.2276 27.4682 40.2276C26.756 40.2276 26.0437 40.2323 25.3314 40.2258C24.6796 40.2192 24.4016 39.8067 24.648 39.2062C24.9018 38.5889 25.1696 37.9781 25.4337 37.3645C25.6262 36.9164 25.9544 36.5946 26.4435 36.5806C27.5054 36.5497 28.5682 36.5713 29.6738 36.5713Z" fill="#ECEBEA"/>
<path d="M42.2577 13.3122C42.1777 13.4824 42.0689 13.6442 42.0234 13.8229C41.8681 14.4374 41.8764 14.4393 41.1763 14.3523C41.3706 13.4759 41.564 12.6041 41.7593 11.7323C41.7686 11.6902 41.8039 11.6182 41.8244 11.6191C42.3191 11.636 42.8249 11.6061 43.3038 11.7071C43.5279 11.7538 43.473 12.4423 43.2452 12.7004C43.1643 12.7921 43.0602 12.8632 43.0825 12.9577C43.0602 13.4235 43.0378 13.8893 43.0137 14.3738H42.2456C42.2781 14.1914 42.306 14.0305 42.3349 13.8687C42.3637 13.7069 42.3916 13.546 42.4204 13.3842C42.3656 13.3599 42.3107 13.3365 42.2558 13.3122H42.2577Z" fill="#F0EFEF"/>
<path d="M24.4842 14.3712C24.5148 14.1373 24.5409 13.9297 24.5678 13.7229C24.5344 13.6977 24.5018 13.6724 24.4684 13.6472C24.3856 13.7304 24.2359 13.809 24.2294 13.8988C24.1885 14.4338 23.8751 14.4684 23.4009 14.3487C23.5757 13.5564 23.718 12.7539 23.9486 11.9766C24.0025 11.7942 24.341 11.667 24.5725 11.5791C24.7352 11.5173 24.9389 11.5641 25.1248 11.5678C25.5879 11.5763 25.7441 11.754 25.6502 12.203C25.4986 12.9279 25.3294 13.649 25.1676 14.3702H24.4832L24.4842 14.3712ZM24.8673 12.3395C24.5214 12.3199 24.4897 12.3723 24.4897 12.9653C24.7135 12.9491 24.8394 12.7405 24.8673 12.3395Z" fill="#F0EFEF"/>
<path d="M35.1431 14.3963C35.3523 13.4693 35.5448 12.6097 35.7419 11.751C35.7549 11.6931 35.793 11.6407 35.8274 11.5677C36.2152 11.5677 36.602 11.5527 36.986 11.5724C37.3505 11.5911 37.5012 11.7969 37.4175 12.1664C37.2975 12.6958 37.1906 13.2289 37.0641 13.7574C36.9665 14.1652 36.7127 14.3981 36.2784 14.3972C35.9241 14.3972 35.5708 14.3972 35.1431 14.3972V14.3963ZM36.6466 12.3076C36.2905 12.3244 36.0887 12.8342 36.0887 13.6386C36.4328 13.619 36.5378 13.3748 36.6466 12.3076Z" fill="#F0EFEF"/>
<path d="M34.9415 14.3757H34.2515C34.2869 14.1447 34.3185 13.9389 34.3501 13.7322C34.3166 13.7032 34.2841 13.6732 34.2506 13.6442C34.1641 13.735 34.0088 13.8201 34.0014 13.9183C33.9549 14.4814 33.6034 14.4374 33.1738 14.3589C33.3421 13.575 33.4751 12.7968 33.6936 12.0429C33.7503 11.8465 34.0665 11.7211 34.272 11.5752C34.3138 11.5453 34.3929 11.5705 34.4552 11.5687C35.292 11.5322 35.6482 11.5331 35.3348 12.635C35.1739 13.1999 35.0735 13.7827 34.9424 14.3776L34.9415 14.3757ZM34.6588 12.2627C34.166 12.3357 34.3083 12.6995 34.2181 12.953C34.4592 12.9536 34.6061 12.7235 34.6588 12.2627Z" fill="#F1F0F0"/>
<path d="M37.1655 14.3954C37.3719 13.4712 37.5635 12.6116 37.7587 11.752C37.7717 11.6969 37.8182 11.6042 37.848 11.6042C38.3204 11.6071 38.7946 11.5996 39.2614 11.6548C39.3385 11.6641 39.4538 11.9662 39.4297 12.1122C39.332 12.693 39.2335 13.2823 39.0345 13.8323C38.9499 14.0671 38.6421 14.3093 38.392 14.372C38.0293 14.4637 37.6276 14.3954 37.1646 14.3954H37.1655ZM38.0981 13.6275C38.4347 13.6415 38.6077 13.2318 38.6532 12.317C38.3111 12.3105 38.1548 12.679 38.0981 13.6275Z" fill="#F0EFEF"/>
<path d="M39.9782 13.6704C40.2655 13.6704 40.4171 13.6704 40.5686 13.6704C40.7202 13.6704 40.8745 13.6704 41.0289 13.6704C41.0072 14.1537 40.7676 14.3953 40.3101 14.3953C40.1864 14.3953 40.0628 14.3953 39.9391 14.3953C39.3449 14.3934 39.1999 14.2176 39.3263 13.6404C39.4323 13.1559 39.5448 12.6733 39.6527 12.1888C39.7476 11.765 40.0107 11.5621 40.4412 11.5667C40.7955 11.5705 41.1498 11.5667 41.5459 11.5667C41.5022 11.8043 41.4641 12.0101 41.4269 12.2112C41.0568 12.2664 40.7044 12.316 40.3548 12.3777C40.3352 12.3814 40.3324 12.4862 40.312 12.6022H41.3311C41.2688 12.8828 41.2204 13.1026 41.1823 13.2775C40.8011 13.4702 40.3241 13.1092 39.9782 13.6685V13.6704Z" fill="#F1F0F0"/>
<path d="M21.557 12.6351C21.3264 12.5313 21.1191 12.3985 20.894 12.3545C20.788 12.3339 20.6485 12.4845 20.4672 12.5911C20.6225 12.6763 20.6476 12.7006 20.6737 12.7025C20.9814 12.7305 21.3571 12.6201 21.4761 13.0588C21.5737 13.4208 21.2836 14.2075 20.9489 14.3019C20.5928 14.402 20.1938 14.3889 19.82 14.3515C19.714 14.3403 19.5625 14.0709 19.5615 13.9184C19.5597 13.751 19.6713 13.491 19.8005 13.4395C19.9484 13.3806 20.1697 13.5031 20.3556 13.5574C20.431 13.5789 20.5509 13.6706 20.5602 13.6584C20.6374 13.5602 20.6932 13.4451 20.789 13.2768C20.5583 13.2665 20.3919 13.2983 20.2645 13.2422C20.099 13.1692 19.8786 13.0532 19.8303 12.9064C19.6192 12.2684 20.1604 11.5688 20.8271 11.566C20.8736 11.566 20.9201 11.5707 20.9666 11.566C21.6565 11.479 21.9252 11.8372 21.557 12.6351Z" fill="#ECEBEA"/>
<path d="M21.955 14.3448C22.1047 13.6686 22.2507 13.0073 22.4023 12.3198C22.2219 12.2982 22.0741 12.2814 21.8862 12.259C21.9411 12.0167 21.9904 11.7978 22.0387 11.5808H23.7924C23.7497 11.8072 23.7115 12.012 23.6613 12.2786C23.0467 12.1243 23.0569 12.5976 22.9695 12.9811C22.9044 13.2692 22.8049 13.5554 22.7835 13.8463C22.7445 14.3766 22.4748 14.4992 21.9541 14.3448H21.955Z" fill="#F1F0F0"/>
<path d="M41.1601 52.7193C40.9546 52.7801 40.7491 52.8924 40.5427 52.8933C34.5191 52.9027 28.4946 52.9027 22.471 52.8933C22.2655 52.8933 22.06 52.7811 21.8545 52.7212C21.8647 52.681 21.8749 52.6408 21.8852 52.5996H41.1238L41.161 52.7193H41.1601Z" fill="#120F08"/>
<path d="M18.2236 51.2004V48.08C18.7062 48.08 19.1832 48.0463 19.6537 48.0902C20.0684 48.1286 20.2758 48.818 20.0191 49.3362C19.9187 49.5391 19.928 49.642 20.034 49.8431C20.4227 50.5793 20.0294 51.1975 19.2037 51.2004C18.8949 51.2004 18.5862 51.2004 18.2227 51.2004H18.2236ZM18.8726 48.5504V49.3904C19.0939 49.3062 19.3022 49.2819 19.4138 49.165C19.49 49.0855 19.4928 48.8095 19.4184 48.7403C19.3004 48.63 19.0902 48.6187 18.8726 48.5504ZM18.8466 49.802C18.8466 50.0686 18.8438 50.2051 18.8475 50.3417C18.8503 50.4315 18.8624 50.5203 18.8754 50.6803C19.0772 50.6373 19.3227 50.6541 19.3933 50.5503C19.478 50.4259 19.4752 50.1612 19.3952 50.0265C19.3273 49.9123 19.0958 49.8955 18.8466 49.802Z" fill="#1F1703"/>
<path d="M41.006 48.8806C40.8005 48.7758 40.594 48.6711 40.369 48.5569C40.1765 49.2267 40.2221 49.295 40.7651 49.3137C41.3798 49.3342 41.5099 49.4605 41.5267 50.0498C41.5564 51.1498 41.5025 51.2097 40.4034 51.1966C40.1923 51.1938 39.919 51.2106 39.7869 51.0918C39.6456 50.9646 39.5731 50.6793 39.5982 50.4791C39.613 50.366 39.8846 50.2855 40.0045 50.2126C40.183 50.3893 40.289 50.5727 40.4369 50.6185C40.5922 50.6662 40.8628 50.7326 40.8851 50.3978C40.9037 50.1265 40.8916 49.888 40.5252 49.8936C40.3709 49.8964 40.1886 49.9291 40.0687 49.8609C39.9004 49.7645 39.773 49.5915 39.6419 49.439C39.6103 49.4025 39.6326 49.3183 39.6298 49.2566C39.5879 48.1136 40.0064 47.7703 41.111 48.1024C41.2738 48.1519 41.4365 48.4531 41.4542 48.6505C41.4653 48.7777 41.2087 48.9274 41.0729 49.0667C41.0506 49.0041 41.0283 48.9423 41.005 48.8796L41.006 48.8806Z" fill="#211904"/>
<path d="M23.1639 50.5869V48.0913H23.7934C23.7934 48.9986 23.8073 49.9097 23.7766 50.8179C23.772 50.9433 23.5572 51.149 23.4205 51.1668C23.0402 51.2155 22.6487 51.2061 22.2638 51.1799C21.9327 51.1584 21.8435 50.8993 21.8425 50.6112C21.8379 49.7871 21.8407 48.9631 21.8407 48.0979H22.4693V50.5869H23.1639Z" fill="#211904"/>
<path d="M25.6616 48.0473C26.2967 48.1651 27.0796 47.7629 27.4228 48.5C27.7668 49.238 27.7956 50.1126 27.3809 50.8319C27.0034 51.4857 26.2632 51.1115 25.6616 51.2041V48.0473ZM26.2586 50.5905C26.8007 50.6691 26.9457 50.5653 26.9662 50.077C26.9792 49.7674 26.9811 49.4559 26.9634 49.1473C26.9364 48.674 26.743 48.5589 26.2586 48.7011V50.5905Z" fill="#181202"/>
<path d="M31.2647 51.1565C30.8481 51.25 30.5635 51.251 30.4873 50.7842C30.4733 50.701 30.2334 50.6037 30.0986 50.6056C29.961 50.6074 29.7183 50.7075 29.7062 50.7898C29.6439 51.2416 29.378 51.2444 28.9902 51.164C29.2571 50.1781 29.511 49.2072 29.7946 48.2456C29.8206 48.1558 30.0289 48.0763 30.1544 48.0735C30.2586 48.0716 30.4334 48.1689 30.4594 48.2578C30.7384 49.2109 30.9941 50.1715 31.2637 51.1574L31.2647 51.1565ZM29.8745 50.0715C30.081 50.0369 30.1953 50.0181 30.3376 49.9948C30.2623 49.7048 30.2037 49.4794 30.1451 49.254C30.1154 49.2586 30.0847 49.2633 30.0549 49.2689C30.0019 49.5037 29.9489 49.7385 29.8745 50.0715Z" fill="#1F1703"/>
<path d="M38.0024 48.0837V48.6075C37.6853 48.6216 37.3812 48.6356 37.0428 48.6506V49.3007C37.2343 49.3166 37.4147 49.3306 37.6239 49.3474V49.8722C37.4361 49.8853 37.2557 49.8974 37.0428 49.9124V50.6064H38.0312C38.0442 50.8113 38.0554 50.9703 38.0684 51.1677H36.4067V48.0837H38.0024Z" fill="#271D04"/>
<path d="M33.46 49.9975V51.1648H32.8389V48.0856C33.3391 48.0856 33.8608 47.9752 34.309 48.1108C35.0324 48.3297 34.5907 49.0135 34.6763 49.4858C34.7367 49.8225 34.5126 49.9984 34.1713 49.9975C33.9566 49.9975 33.7427 49.9975 33.46 49.9975ZM33.4758 49.5391C33.7222 49.4465 33.9751 49.4288 34.0402 49.3081C34.123 49.1556 34.1202 48.8741 34.0263 48.7338C33.9519 48.6215 33.6869 48.6374 33.4749 48.5897V49.5401L33.4758 49.5391Z" fill="#181202"/>
<path d="M43.0332 48.6037V48.0808H44.7785V48.5925C44.6056 48.6158 44.4429 48.6374 44.2457 48.6635V51.1629H43.6013V48.6579C43.3931 48.6383 43.2275 48.6224 43.0341 48.6037H43.0332Z" fill="#1F1703"/>
<path d="M36.3559 55.2981C36.6934 55.3599 36.9361 55.4141 37.1816 55.4356C37.2077 55.4375 37.2504 55.2504 37.3081 55.0886C37.0914 55.0886 36.9547 55.0886 36.819 55.0886C36.6832 55.0886 36.5456 55.0886 36.3745 55.0886V54.2954H37.521C37.5303 54.3506 37.5405 54.4048 37.5498 54.46C37.2476 54.5049 36.9454 54.5508 36.6432 54.5957C36.6358 54.6462 36.6284 54.6967 36.62 54.7472C36.7799 54.7715 36.9426 54.8267 37.0998 54.8136C37.4578 54.7827 37.5963 54.9118 37.5945 55.285C37.5917 55.6685 37.4178 55.7986 37.0812 55.7434C36.7874 55.6957 36.2834 55.9622 36.3568 55.3C36.3596 55.2757 36.394 55.2551 36.355 55.3L36.3559 55.2981Z" fill="#392C0E"/>
<path d="M30.3236 54.9689C30.3236 55.7116 29.9953 55.9576 29.2896 55.7218C29.1957 55.691 29.0776 55.5619 29.0701 55.4702C29.0432 55.1457 29.0422 54.8164 29.0683 54.4909C29.0748 54.4086 29.205 54.3085 29.2998 54.2692C29.3928 54.2309 29.5137 54.2589 29.6215 54.2589C30.0889 54.2577 30.323 54.494 30.3236 54.9679V54.9689ZM29.9991 55.4235V54.5639H29.3835V55.4235H29.9991Z" fill="#30250A"/>
<path d="M25.9412 55.4377C26.2527 55.462 26.4647 55.4779 26.6777 55.4948C26.6795 55.5621 26.6823 55.6285 26.6842 55.6959C26.2918 55.7183 25.8984 55.7408 25.4224 55.7679C25.5098 55.144 26.1532 55.0645 26.4043 54.479C26.0351 54.5697 25.7738 54.6333 25.4763 54.7063C25.4019 54.4416 25.4261 54.2498 25.7934 54.2573C25.9635 54.261 26.1374 54.2376 26.3039 54.2648C26.4266 54.2844 26.6247 54.3499 26.6386 54.4238C26.6665 54.5716 26.6377 54.7745 26.5493 54.8915C26.4071 55.0795 26.1969 55.216 25.9431 55.4387L25.9412 55.4377Z" fill="#392C0E"/>
<path d="M33.2007 55.4309C33.5317 55.4627 33.7353 55.4824 33.939 55.502C33.567 55.8734 33.1477 55.6966 32.7516 55.734C32.7162 55.6826 32.6818 55.6311 32.6465 55.5797C32.9757 55.2719 33.3048 54.9642 33.6349 54.6565C33.6228 54.6097 33.6107 54.5639 33.5987 54.5171C33.3402 54.5639 33.0817 54.6097 32.7404 54.6714C32.7041 54.4984 32.627 54.2851 33.0175 54.2599C33.1867 54.2486 33.3606 54.2374 33.5261 54.2636C33.6637 54.2851 33.8943 54.3478 33.9036 54.4189C33.9269 54.5807 33.8832 54.7902 33.7874 54.9212C33.6572 55.0989 33.4517 55.2205 33.2016 55.4319L33.2007 55.4309Z" fill="#392C0E"/>
<path d="M43.043 21.2751V27.877H40.167V21.2751H43.043Z" fill="#020202"/>
<path d="M50.5293 21.2553C51.1049 21.2553 51.6721 21.2375 52.2374 21.2618C52.5536 21.2749 52.7414 21.4779 52.7442 21.8128C52.7479 22.2468 52.7516 22.6817 52.7433 23.1157C52.7358 23.4749 52.5248 23.6508 52.1816 23.6564C51.6433 23.6648 51.1058 23.6592 50.5293 23.6592V21.2562V21.2553Z" fill="#121212"/>
<path d="M23.8352 26.0277H22.3335C22.5799 25.0026 22.8207 24.0036 23.0885 22.8933C23.3508 23.9952 23.5869 24.9848 23.8352 26.0277Z" fill="#161616"/>
<path d="M28.3834 13.6171C28.5554 13.3065 28.7274 12.996 28.9171 12.6546C28.6679 12.4198 28.4224 12.1897 28.1221 11.9072C28.6009 11.8633 29.0882 11.9484 29.4062 11.7529C29.7196 11.5602 29.8618 11.085 30.1519 10.6155C30.1845 11.0953 30.2087 11.4442 30.2356 11.8474H31.3291C31.358 11.882 31.3868 11.9166 31.4165 11.9512C30.5202 12.2832 29.9855 12.8117 30.4002 13.8584C30.3565 13.8556 30.3128 13.8519 30.2691 13.8491C29.9957 13.6143 29.7223 13.3795 29.449 13.1447C29.1096 13.3337 28.7878 13.5133 28.4652 13.6919C28.4382 13.6667 28.4113 13.6423 28.3843 13.6171H28.3834Z" fill="#E52C31"/>
<path d="M28.463 13.6911C28.4184 13.7135 28.3738 13.735 28.3301 13.7575C28.3477 13.7107 28.3654 13.664 28.3831 13.6172C28.41 13.6424 28.437 13.6668 28.464 13.692L28.463 13.6911Z" fill="#E52C31"/>
<path d="M24.8663 12.3394C24.8384 12.7404 24.7126 12.949 24.4888 12.9652C24.4888 12.3722 24.5204 12.3198 24.8663 12.3394Z" fill="#373838"/>
<path d="M36.6468 12.3076C36.538 13.3749 36.4329 13.619 36.0889 13.6387C36.0889 12.8342 36.2916 12.3245 36.6468 12.3076Z" fill="#2C2C2C"/>
<path d="M34.6585 12.2627C34.6058 12.7235 34.4589 12.9536 34.2178 12.953C34.308 12.7004 34.1657 12.3357 34.6585 12.2627Z" fill="#373838"/>
<path d="M38.0981 13.6274C38.1549 12.679 38.3111 12.3104 38.6533 12.317C38.6086 13.2318 38.4348 13.6415 38.0981 13.6274Z" fill="#2C2C2C"/>
<path d="M18.8726 48.5505C19.0911 48.6188 19.3003 48.63 19.4184 48.7404C19.4928 48.8096 19.49 49.0865 19.4137 49.1651C19.3012 49.282 19.0939 49.3063 18.8726 49.3905V48.5505Z" fill="#E8AB1F"/>
<path d="M18.8467 49.802C19.0959 49.8955 19.3274 49.9124 19.3953 50.0265C19.4753 50.1612 19.479 50.425 19.3935 50.5503C19.3228 50.6541 19.0773 50.6364 18.8755 50.6803C18.8616 50.5213 18.8495 50.4315 18.8476 50.3417C18.8439 50.2051 18.8467 50.0686 18.8467 49.802Z" fill="#F4B31B"/>
<path d="M26.2583 50.5905C26.2583 49.9629 26.2583 49.3315 26.2583 48.7001C26.7428 48.5579 26.9362 48.6739 26.9631 49.1472C26.9808 49.4559 26.9789 49.7674 26.9659 50.077C26.9455 50.5652 26.8004 50.6691 26.2583 50.5905Z" fill="#E8AB1F"/>
<path d="M29.8745 50.0704C29.9498 49.7375 30.0028 49.5027 30.0549 49.2679C30.0847 49.2632 30.1153 49.2585 30.1451 49.2529C30.2037 49.4784 30.2623 49.7028 30.3376 49.9937C30.1953 50.0171 30.0809 50.0368 29.8745 50.0704Z" fill="#D69E26"/>
<path d="M33.4761 49.5382V48.5879C33.6881 48.6365 33.9531 48.6206 34.0275 48.7319C34.1205 48.8722 34.1242 49.1538 34.0414 49.3063C33.9754 49.4269 33.7225 49.4456 33.477 49.5373L33.4761 49.5382Z" fill="#E8AB1F"/>
<path d="M29.9994 55.4236H29.3838V54.564H29.9994V55.4236Z" fill="#E8AB1F"/>
</g>
<defs>
<clipPath id="clip0_1732_25850">
<rect width="57" height="64" fill="white" transform="translate(3)"/>
</clipPath>
</defs>
</svg>
