<svg width="256" height="78" viewBox="0 0 256 78" fill="none" xmlns="http://www.w3.org/2000/svg">
<path d="M94.8287 21.765C94.8287 13.5639 101.477 6.91604 109.679 6.91604H145.916V21.7768H111.812V32.065H143.677V45.2541H111.812V55.8927H145.916V70.7535H109.689C101.482 70.7535 94.8287 64.0993 94.8287 55.8937V21.765ZM202.889 51.4007C202.884 40.7205 194.224 32.0641 183.544 32.0641H168.174V21.7768H199.816V6.91604H170.36C159.773 6.91604 151.191 15.4983 151.191 26.0846C151.191 36.6709 159.773 45.2541 170.36 45.2541H185.906V55.8927H154.263V70.7535H183.544C194.232 70.7535 202.893 62.0872 202.889 51.4007ZM223.823 70.7535H256V55.8927H225.946V6.91694H208.963V55.8937C208.963 64.0993 215.616 70.7535 223.823 70.7535ZM77.9522 38.9765C77.9522 60.5022 60.5022 77.9522 38.9756 77.9522C17.4499 77.9522 0 60.5022 0 38.9765C0 17.4509 17.4499 0 38.9756 0C60.5022 0 77.9522 17.4509 77.9522 38.9765ZM14.2403 59.2568L59.2559 14.2412C54.0919 10.002 47.576 7.35134 40.4531 7.02712L10.7958 54.1199C11.7793 55.9451 12.9335 57.6647 14.2403 59.2568ZM23.9948 67.2386L70.9305 37.6806C70.646 30.5451 68.027 24.012 63.8112 18.8236L18.8227 63.8112C20.4257 65.1135 22.157 66.2632 23.9948 67.2386ZM70.2369 45.7535L31.5837 70.0951C51.9877 74.6351 67.3542 60.2051 70.2369 45.7535Z" fill="white"/>
</svg>
