<svg width="136" height="88" viewBox="0 0 136 88" fill="none" xmlns="http://www.w3.org/2000/svg">
<g clip-path="url(#clip0_1054_102)">
<path d="M0 28.9006C0.900215 26.7577 1.82747 24.6262 2.69871 22.4699C5.61572 15.2514 8.51727 8.02525 11.4053 0.793341C11.6371 0.212565 11.9172 -0.00402774 12.5837 -0.000194233C17.8227 0.0400576 23.0637 0.0189733 28.3046 0.0515581C28.6427 0.0534748 29.1527 0.24515 29.2898 0.501995C30.6749 3.09728 32.0001 5.72706 33.3968 8.45077C31.7181 8.45077 30.134 8.44118 28.548 8.4546C27.3368 8.46418 25.857 8.09233 24.9935 8.64819C24.1764 9.17338 23.9948 10.6819 23.5524 11.7667C22.4455 14.4905 21.3502 17.218 20.2085 20.0452C20.504 20.0663 20.7378 20.097 20.9715 20.097C23.9619 20.1008 26.9523 20.0739 29.9408 20.118C30.6112 20.1276 30.8565 19.8957 31.0825 19.3092C32.0793 16.71 33.1379 14.132 34.1772 11.5482C34.268 11.3221 34.3859 11.1055 34.5675 10.724C37.695 16.8136 40.7511 22.767 43.8652 28.8297C43.4981 28.8508 43.2315 28.8814 42.965 28.8814C34.5752 28.8699 26.1835 28.8757 17.7937 28.8105C16.8761 28.8028 16.5303 29.1344 16.2251 29.8896C14.0016 35.408 11.7472 40.9148 9.50055 46.4235C9.41941 46.6229 9.32089 46.8146 9.19726 47.0772C6.23196 41.3001 3.31109 35.6054 0.386358 29.9126C0.274314 29.6922 0.12943 29.489 0 29.2782C0 29.1498 0 29.0233 0 28.8948L0 28.9006Z" fill="white"/>
<path d="M-4.26687e-05 64.0923C0.264613 63.4022 0.465519 62.6777 0.809378 62.0279C1.33482 61.0351 2.16936 60.4639 3.36127 60.4639C10.8837 60.4715 18.4061 60.4677 25.9285 60.4677C26.0424 60.4677 26.1583 60.4811 26.4288 60.4964C25.6986 61.4625 25.0901 62.35 24.3811 63.1531C24.184 63.3773 23.6972 63.4272 23.3437 63.4272C16.7853 63.4425 10.2269 63.4367 3.66843 63.4406C2.5731 63.4406 2.21765 63.8009 2.28527 64.7651C2.34901 65.6544 2.91117 65.8078 3.68195 65.8078C10.08 65.7924 16.4762 65.8001 22.8743 65.8001C25.772 65.8001 27.3927 67.621 26.9716 70.5038C26.6838 72.4723 25.7546 74.1073 22.9863 74.0651C15.433 73.952 7.8778 74.0268 0.135183 74.0268C0.878922 73.0301 1.51834 72.1005 2.24856 71.2494C2.41856 71.052 2.89378 71.0635 3.22991 71.0635C9.94868 71.0539 16.6674 71.052 23.3862 71.0635C24.072 71.0635 24.6824 71.0213 24.8582 70.201C25.0495 69.3116 24.524 68.7021 23.5311 68.7002C17.0693 68.6963 10.6074 68.6982 4.14558 68.6982C1.67289 68.6982 0.793923 68.0101 0.191205 65.618C0.158364 65.4858 0.0637064 65.3669 -0.00390625 65.2423C-0.00390625 64.859 -0.00390625 64.4775 -0.00390625 64.0942L-4.26687e-05 64.0923Z" fill="white"/>
<path d="M16.5901 88.0001C16.5283 87.6647 16.4182 87.3312 16.4105 86.9957C16.3873 85.9147 16.5109 84.8183 16.3757 83.7526C16.1748 82.1444 16.7621 81.0078 17.9617 79.9613C18.7054 79.3134 19.3738 78.9741 20.3842 78.9856C25.1016 79.0393 29.821 79.024 34.5403 78.9952C35.2338 78.9914 35.6897 79.2406 36.2287 79.6565C37.7007 80.795 38.3131 82.1732 38.0543 84.0209C37.919 84.9889 37.9982 85.9914 38.0427 86.9766C38.0678 87.496 37.9383 87.841 37.4245 87.9982H35.6878C35.5893 87.2641 35.4908 86.53 35.3922 85.7997C35.2647 85.7671 35.1739 85.7249 35.0832 85.7249C29.9504 85.7211 24.8176 85.7307 19.6868 85.7077C18.9778 85.7039 18.9102 86.0508 18.9237 86.5971C18.9372 87.1395 19.1266 87.7854 18.3268 87.9982H16.5901V88.0001ZM35.4116 83.9711C35.6241 82.2326 34.3645 80.8066 32.7631 80.8046C29.3631 80.8046 25.9593 80.8909 22.5652 80.7644C21.1105 80.7088 20.0731 81.1631 19.3082 82.2748C19.0532 82.6447 19.001 83.1987 19.0087 83.6663C19.0087 83.7718 19.6404 83.9577 19.9823 83.9577C24.7925 83.9769 29.6046 83.9711 34.4148 83.9711C34.7296 83.9711 35.0426 83.9711 35.4116 83.9711Z" fill="white"/>
<path d="M0.164224 79.1944C1.76181 78.9874 3.38066 78.4833 4.67109 80.0723C5.46506 81.0517 6.43289 81.8932 7.42389 82.9014C8.54433 81.7667 9.57784 80.7738 10.5437 79.7215C11.0363 79.1848 11.5541 78.9375 12.2881 78.997C13.0454 79.0564 13.8123 79.0104 14.6797 79.0104C14.6797 81.3986 14.6797 83.7102 14.6797 86.0219C14.6797 86.34 14.6469 86.662 14.6874 86.9745C14.7531 87.4863 14.6063 87.8428 14.0828 87.9999H12.3461C12.2823 87.6032 12.1722 87.2064 12.1664 86.8077C12.1452 85.2398 12.1587 83.67 12.1587 82.1021C12.0718 82.0657 11.9829 82.0273 11.896 81.9909C10.4182 83.4496 8.93842 84.9082 7.4181 86.4071C5.85335 84.8603 4.38519 83.4112 2.91896 81.9622C2.68907 83.7486 2.66976 85.3395 2.70066 86.9285C2.71032 87.4287 2.62919 87.8083 2.12306 87.9999C1.41602 87.9367 0.708989 87.8715 0.00195312 87.8083C0.0657022 87.6511 0.185473 87.4958 0.185473 87.3387C0.187405 84.6226 0.175814 81.9085 0.166155 79.1925L0.164224 79.1944Z" fill="white"/>
<path d="M84.8791 88C84.8327 87.8946 84.8173 87.7451 84.7361 87.6934C83.3955 86.8423 83.4998 85.5178 83.5693 84.2125C83.608 83.4823 84.8308 82.4204 85.6112 82.4146C87.827 82.4012 90.0447 82.3935 92.2604 82.3801C92.2875 82.3801 92.3126 82.3456 92.3995 82.2881C92.415 82.0236 92.4304 81.7131 92.4536 81.3029H86.1714C84.3208 81.3029 84.0523 81.0748 83.5712 79.0488C86.7278 79.0488 89.8727 78.9932 93.01 79.1044C93.5335 79.1236 94.3313 79.7791 94.4781 80.287C94.7447 81.2186 94.878 82.3456 94.5767 83.2273C94.3197 83.9825 93.5683 84.6668 92.4053 84.6074C90.261 84.4981 88.1071 84.5767 85.8817 84.5767C85.8624 84.9543 85.845 85.284 85.8237 85.7172C88.0549 85.7172 90.234 85.7862 92.4053 85.6884C93.462 85.6405 94.1072 85.9069 94.3893 86.9343C94.4723 87.2333 94.6269 87.5151 94.7486 87.8045C91.9204 87.8084 89.0904 87.8045 86.2622 87.8218C85.93 87.8237 85.5977 87.9387 85.2654 88.002H84.8791V88Z" fill="white"/>
<path d="M101.467 88.0001C100.559 87.4749 99.4177 87.2659 98.9386 86.1619C98.929 86.1389 98.8884 86.1121 98.8633 86.1121C97.1556 86.1657 97.5033 84.824 97.8143 84.1263C98.6044 82.3533 98.9058 80.2391 100.857 79.1389C103.233 77.7991 106.324 78.9683 107.211 81.5694C107.419 82.1846 107.41 82.8248 108.091 83.3079C108.428 83.5475 108.29 84.4387 108.375 85.0329C108.495 85.8667 108.043 86.1121 107.301 86.0871C107.228 86.0852 107.106 86.1542 107.083 86.2194C106.616 87.4768 105.399 87.6033 104.363 88.002H101.469L101.467 88.0001ZM103.113 83.0778C102.182 83.0778 101.251 83.0874 100.322 83.074C99.7732 83.0663 99.5027 83.2465 99.5201 83.8484C99.5472 84.7128 100.088 85.2725 101.154 85.307C102.404 85.3473 103.658 85.3492 104.908 85.2974C105.298 85.2821 105.827 85.146 106.028 84.8738C106.314 84.4905 106.409 83.9308 106.451 83.4363C106.459 83.3443 105.851 83.1143 105.516 83.0932C104.717 83.0414 103.913 83.0759 103.111 83.0759L103.113 83.0778Z" fill="white"/>
<path d="M74.654 88C73.7924 87.1087 72.9965 86.1426 72.0519 85.351C71.1381 84.5824 70.9739 83.7084 71.2502 82.5104H75.4344C74.598 81.5156 74.0802 80.7144 72.7821 80.7834C70.7363 80.8927 68.6809 80.8122 66.5347 80.8122V79.0085H69.3956C71.2251 79.0085 73.0545 78.974 74.8819 79.0334C75.332 79.0487 75.7937 79.3324 76.2071 79.5663C76.4757 79.7177 76.636 80.0531 76.9007 80.2199C78.5214 81.2358 78.2065 82.7749 78.1061 84.3754H74.8278C76.0893 85.4392 77.1421 86.3247 78.3051 87.3042C77.712 87.7393 77.5324 87.8716 77.3527 88.0019H74.6521L74.654 88Z" fill="white"/>
<path d="M133.684 87.9999V85.3337C131.54 85.3337 129.432 85.3337 127.324 85.3337C125.848 85.3337 124.973 84.4731 124.973 83.0202C124.973 81.7206 124.973 80.4211 124.973 79.0659H127.1V83.1007H133.684V79.0812H136V79.94C136 82.2937 136.008 84.6494 135.992 87.0032C135.99 87.3367 135.873 87.6683 135.807 87.9999H133.686H133.684Z" fill="#F29224"/>
<path d="M66.5521 88.0001C66.5115 86.3478 66.4536 84.6956 66.4594 83.0453C66.4594 82.8632 66.8245 82.5488 67.0467 82.522C68.9881 82.2882 69.0113 82.3227 69.0113 84.2854C69.0113 85.1767 69.0615 86.0737 68.9862 86.9593C68.9572 87.3177 68.6558 87.6531 68.48 88.0001H66.5502H66.5521Z" fill="white"/>
<path d="M85.2634 87.9999C85.5957 87.9367 85.928 87.8217 86.2602 87.8197C89.0884 87.8025 91.9184 87.8044 94.7466 87.8025C94.8007 87.8677 94.8548 87.9347 94.9089 87.9999H85.2634Z" fill="white"/>
<path d="M112.656 88C112.652 87.9463 112.65 87.8946 112.648 87.8409C115.869 87.8332 119.087 87.8275 122.307 87.8198C122.313 87.8792 122.311 87.9387 122.302 87.9981H112.656V88Z" fill="#FDE5CB"/>
<path d="M63.357 47.3554C63.1541 47.0046 63.0034 46.7689 62.8779 46.5216C59.9242 40.779 56.9801 35.0326 54.009 29.2996C53.7192 28.7399 53.727 28.3009 53.9665 27.7163C57.6118 18.7804 61.232 9.83496 64.8348 0.881808C65.0956 0.232029 65.422 -0.00564866 66.1581 0.000101598C71.2367 0.0384366 76.3154 0.0211859 81.3941 0.0211859H82.4817C76.0913 15.8401 69.7493 31.5364 63.3589 47.3554H63.357Z" fill="#F29322"/>
<path d="M89.8881 47.2115C88.6343 44.7523 87.5004 42.5231 86.3625 40.2958C84.4964 36.6406 82.6149 32.993 80.7777 29.3244C80.6077 28.9851 80.5594 28.458 80.6966 28.1149C84.338 18.9739 88.0046 9.84249 91.6962 0.720666C91.816 0.425487 92.241 0.05172 92.5269 0.0498033C97.99 0.00955147 103.453 0.021052 109.136 0.021052C102.729 15.7327 96.3634 31.3369 89.8881 47.2115Z" fill="#F29322"/>
<path d="M100.105 45.5459C101.234 42.7647 102.333 40.0448 103.438 37.3288C103.998 35.9506 104.545 34.5667 105.155 33.2116C105.275 32.9433 105.663 32.6193 105.928 32.6174C111.352 32.5829 116.775 32.5906 122.321 32.5906C121.716 34.0703 121.143 35.4657 120.575 36.8649C119.477 39.5599 118.394 42.2625 117.264 44.944C117.154 45.2047 116.758 45.5191 116.493 45.521C111.063 45.5555 105.632 45.5459 100.107 45.5459H100.105Z" fill="white"/>
<path d="M39.0261 0.0458984H55.6743C53.248 6.07983 50.8545 12.0371 48.3856 18.1803C45.2272 12.0601 42.1634 6.12392 39.0261 0.0458984Z" fill="#F29323"/>
<path d="M115.162 8.4375C116.284 5.59496 117.383 2.81183 118.481 0.036377H135.606C134.47 2.75625 133.363 5.43778 132.216 8.10207C132.14 8.27649 131.775 8.42217 131.545 8.42408C126.115 8.44133 120.687 8.4375 115.162 8.4375Z" fill="white"/>
<path d="M112.131 15.9109H129.069C127.952 18.7381 126.855 21.5193 125.759 24.2928H108.823C109.938 21.4676 111.035 18.6863 112.131 15.9109Z" fill="white"/>
<path d="M97.1924 63.3544C93.9064 63.3544 90.6977 63.3544 87.489 63.3544C84.9023 63.3544 83.5423 64.721 83.6293 67.3029C83.6505 67.9278 83.7741 68.5718 83.9712 69.166C84.4657 70.6553 85.0742 71.0521 86.668 71.054C89.4536 71.0578 92.2412 71.054 95.0693 71.054V68.7232H88.7562C89.5657 67.6709 90.2379 66.7739 90.943 65.9018C91.0357 65.7867 91.2927 65.7618 91.4723 65.7618C93.3616 65.7522 95.249 65.7561 97.2155 65.7561C97.2155 68.0677 97.26 70.3218 97.1943 72.572C97.1672 73.5228 96.4931 74.0192 95.5117 74.023C92.3957 74.0307 89.2797 74.0249 86.1638 74.0269C84.769 74.0269 83.7123 73.3963 82.9222 72.2941C80.9827 69.5896 80.9885 65.1082 82.9377 62.4209C83.8746 61.1271 85.0936 60.4218 86.7626 60.4428C90.2244 60.4869 93.6862 60.4563 97.1904 60.4563V63.3563L97.1924 63.3544Z" fill="white"/>
<path d="M100.95 68.7385V73.9635H98.8979V60.4888H100.942V65.6851H112.422V60.5271H114.524V73.9597H112.511V68.7385H100.95Z" fill="white"/>
<path d="M43.079 68.7155H31.4864V73.977H29.3884V60.5214H31.4342V65.687H43.0018V60.5022H45.0939V73.9827H43.079V68.7155Z" fill="white"/>
<path d="M77.8184 71.0309C77.8184 68.6752 77.8822 66.5725 77.7953 64.4756C77.7431 63.2297 77.9904 62.1717 78.8365 61.2401C79.1707 60.874 79.4296 60.4389 79.8121 59.9099V73.9693C78.6626 74.1322 77.7315 74.0057 76.7946 73.1087C73.7694 70.2086 70.6264 67.4312 67.5278 64.6079C67.1318 64.2475 66.7222 63.8987 66.2026 63.4406V73.9712H64.1703C64.1549 73.6933 64.124 73.4134 64.124 73.1355C64.1201 69.4074 64.1047 65.6793 64.1433 61.9532C64.1491 61.4663 64.3346 60.6536 64.6243 60.5616C65.3024 60.3431 66.0654 60.2856 66.7493 60.922C70.1898 64.1287 73.6786 67.2837 77.1501 70.4559C77.3065 70.5996 77.4707 70.7319 77.8184 71.029V71.0309Z" fill="white"/>
<path d="M122.308 87.8216C119.087 87.8293 115.869 87.8351 112.649 87.8427C111.105 86.9687 111.053 85.533 111.215 84.0341C111.294 83.3115 112.488 82.311 113.247 82.3091C115.173 82.3014 117.099 82.3071 119.025 82.3071H119.955C120.233 81.4619 120.053 81.1207 119.165 81.1437C117.208 81.1935 115.247 81.113 113.29 81.1801C112.407 81.2088 111.824 81.0095 111.565 80.1201C111.462 79.7694 111.267 79.4454 111.07 79.0122C114.322 79.0122 117.461 78.9662 120.596 79.0602C121.071 79.0736 121.801 79.6601 121.935 80.1163C122.215 81.0766 122.462 82.217 122.174 83.1122C121.95 83.8118 121.22 84.6207 120.049 84.5727C117.876 84.4846 115.697 84.5478 113.468 84.5478V85.6998C115.643 85.6998 117.789 85.7745 119.928 85.6691C121.067 85.6135 121.743 85.949 122.047 87.0281C122.122 87.2964 122.219 87.559 122.306 87.8236L122.308 87.8216Z" fill="#F29224"/>
<path d="M54.6233 64.4107C53.0586 67.372 51.5557 70.1245 50.1532 72.9249C49.7243 73.7836 49.2356 74.1938 48.2639 74.0385C47.8254 73.9676 47.3675 74.027 46.8247 74.027C46.9116 73.7797 46.9561 73.5747 47.0507 73.3945C49.1487 69.4115 51.235 65.4208 53.3831 61.4627C53.6169 61.0314 54.1926 60.558 54.6369 60.5292C55.0252 60.5043 55.6182 60.9912 55.8384 61.4014C58.0407 65.4745 60.185 69.5782 62.3447 73.6724C62.3872 73.751 62.4065 73.843 62.4374 73.9312C62.3718 73.9676 62.3293 74.0098 62.279 74.0193C60.3414 74.4199 59.2403 73.6628 58.4522 71.8266C57.3819 69.3348 55.9737 66.9868 54.6253 64.4126L54.6233 64.4107Z" fill="white"/>
<path d="M116.191 74.027C117.857 70.8681 119.435 67.8742 121.013 64.8821C121.649 63.6765 122.265 62.4613 122.931 61.271C123.532 60.1976 124.612 60.1075 125.186 61.1617C127.481 65.3882 129.71 69.6491 132.03 74.027C131.261 74.027 130.63 73.981 130.008 74.0404C129.374 74.1017 129.055 73.8698 128.767 73.3063C127.264 70.3736 125.711 67.4697 124.125 64.4604C123.893 64.861 123.685 65.1965 123.501 65.5434C122.166 68.0639 120.808 70.573 119.52 73.1165C119.174 73.8008 118.795 74.1439 118.002 74.0404C117.468 73.9714 116.92 74.027 116.193 74.027H116.191Z" fill="white"/>
<path d="M62.1225 87.8427C59.9318 87.8408 57.7431 87.8389 55.5524 87.8351C54.8222 87.1259 54.0727 86.4339 53.3714 85.696C53.1783 85.4928 53.0875 85.1612 53.0353 84.8737C52.9793 84.567 53.0682 84.2335 53.0141 83.9249C52.7108 82.1615 53.3444 80.8389 54.7469 79.7291C55.3322 79.2672 55.8248 78.9643 56.5956 78.9931C58.1642 79.0506 59.7367 79.0468 61.3053 78.9931C61.9795 78.9701 62.3755 79.3017 62.8913 79.6429C64.8868 80.9654 64.9525 82.8899 64.7516 84.9293C64.7284 85.1574 64.6145 85.4238 64.4541 85.5867C63.6949 86.3553 62.9048 87.0952 62.1244 87.8447L62.1225 87.8427ZM58.8809 80.8773C57.3799 80.3617 56.5087 81.391 55.8171 82.38C55.4829 82.8592 55.4307 83.9172 55.7495 84.3773C56.4217 85.351 57.2408 86.4205 58.765 86.0774C59.0084 86.0218 59.275 86.0697 59.5319 86.0697C60.3413 86.0697 62.0123 84.935 62.136 84.1664C62.2248 83.6029 62.2693 82.8362 61.964 82.4471C61.2203 81.506 60.4553 80.3597 58.8809 80.8753V80.8773Z" fill="white"/>
<path d="M48.6194 87.8446C46.4307 87.8389 44.24 87.8312 42.0513 87.8255C41.4814 87.2677 40.9463 86.6677 40.3301 86.1655C39.6404 85.6001 39.3448 84.9522 39.6443 83.967C40.2702 83.967 40.9656 83.9383 41.6572 83.9862C41.8446 83.9996 42.0687 84.2162 42.1846 84.3983C43.2644 86.1061 44.9123 86.2844 46.7011 86.0601C47.3579 85.9777 48.7546 84.3312 48.7623 83.6661C48.772 82.9665 48.7333 82.265 48.7739 81.5673C48.8087 80.9616 48.5344 80.7833 47.9742 80.8044C47.3115 80.8293 46.647 80.8101 45.9535 80.8101V79.0103C47.5917 79.0103 49.1873 78.9911 50.7791 79.0371C50.9568 79.0429 51.2698 79.4128 51.2737 79.6218C51.3142 81.3698 51.3046 83.1198 51.2852 84.8698C51.2833 85.0998 51.1925 85.3893 51.036 85.5445C50.2479 86.3304 49.4249 87.0817 48.6155 87.8446H48.6194Z" fill="white"/>
<path d="M135.741 59.8391V73.9617H133.626V72.9804C133.626 69.9615 133.661 66.9407 133.607 63.9218C133.587 62.9117 133.773 62.0664 134.509 61.3399C134.926 60.9278 135.26 60.4333 135.743 59.841L135.741 59.8391Z" fill="white"/>
<path d="M103.113 83.0777C103.915 83.0777 104.72 83.0432 105.518 83.0949C105.852 83.116 106.463 83.346 106.453 83.438C106.409 83.9325 106.314 84.4922 106.03 84.8756C105.827 85.1478 105.3 85.2819 104.91 85.2992C103.66 85.3509 102.406 85.349 101.156 85.3088C100.09 85.2743 99.5471 84.7146 99.522 83.8501C99.5026 83.2463 99.775 83.0662 100.324 83.0758C101.255 83.0892 102.184 83.0796 103.115 83.0796L103.113 83.0777Z" fill="#F0EFEF"/>
</g>
<defs>
<clipPath id="clip0_1054_102">
<rect width="136" height="88" fill="white"/>
</clipPath>
</defs>
</svg>
