<svg width="74" height="128" viewBox="0 0 74 128" fill="none" xmlns="http://www.w3.org/2000/svg">
<path d="M53.5716 0C53.6808 1.12161 53.1949 2.20468 53.3576 3.32843C53.0215 3.98341 53.1971 4.69191 53.1371 5.37472C53.1007 5.81137 52.9723 6.23947 52.9381 6.67612C52.9017 7.13632 52.9638 7.60508 52.9188 8.06314C52.8846 8.41418 52.7518 8.75666 52.8417 9.16763C52.891 9.04776 52.9402 8.92789 53.028 8.71599C53.5995 8.81445 54.2138 8.85084 54.781 9.02849C56.2344 9.48656 57.6899 9.91893 59.169 10.2935C60.1193 10.5354 61.0526 10.8971 62.0158 11.1347C62.3968 11.2289 62.7542 11.4151 63.1288 11.5328C63.4756 11.642 63.8395 11.7062 64.1884 11.809C64.5672 11.9203 64.9354 12.0722 65.3164 12.1728C65.6717 12.267 66.0441 12.297 66.3995 12.3976C67.1615 12.6138 67.9128 12.8685 68.6726 13.0868C69.8478 13.425 70.9908 13.8702 72.198 14.11C72.6132 14.1934 73.0071 14.3711 73.4181 14.5081C73.4181 14.9469 73.4181 15.2979 73.4181 15.649C73.4181 34.3716 73.4095 53.0965 73.4373 71.8191C73.4395 73.1912 72.9771 74.3898 72.487 75.5971C71.8769 77.0997 70.9415 78.4032 69.7022 79.4563C68.9102 80.1284 68.0712 80.7299 67.1379 81.2308C66.0613 81.8087 64.9975 82.438 63.9358 83.0523C62.9983 83.5938 62.0265 84.1011 61.0761 84.6298C60.1215 85.1607 59.1497 85.6615 58.2143 86.233C57.4288 86.7146 56.6025 87.147 55.7892 87.588C54.7981 88.1252 53.8435 88.731 52.8482 89.2468C51.7351 89.8248 50.6542 90.4605 49.5433 91.0448C48.5779 91.5521 47.589 92.0251 46.6858 92.6609C46.1506 93.0376 45.5213 93.2773 44.9434 93.5941C43.261 94.5145 41.5529 95.3921 39.9197 96.3917C39.0978 96.8947 38.1817 97.2243 37.4154 97.8451C37.0772 98.1169 36.6041 98.2154 36.1054 97.8815C35.1979 97.2757 34.1854 96.8455 33.2607 96.2504C32.4581 95.7346 31.5698 95.3514 30.7435 94.8677C29.1724 93.9451 27.5435 93.1275 25.9831 92.1814C25.1955 91.7041 24.3671 91.276 23.558 90.8308C22.4278 90.2079 21.3105 89.555 20.1761 88.9493C19.2171 88.4356 18.2668 87.9005 17.3121 87.3803C16.3532 86.8581 15.3857 86.3465 14.4503 85.7728C13.6969 85.3084 12.8771 84.9359 12.1129 84.4693C11.124 83.8657 10.0795 83.3563 9.08629 82.7526C8.32856 82.2946 7.54729 81.828 6.74248 81.4684C5.10716 80.7363 3.76294 79.6575 2.60923 78.3347C2.13191 77.7868 1.70595 77.181 1.36776 76.5089C0.980334 75.7405 0.661403 74.9485 0.299664 74.1758C0.160534 73.8804 0.490167 73.4352 0 73.2918C0 52.4928 0 31.6939 0 10.895C0.316789 10.9357 0.618595 10.6916 0.86903 10.7109C1.85365 10.7815 2.70983 10.1629 3.6816 10.255C4.76682 9.80549 5.98261 9.87826 7.0614 9.40094C8.40134 9.43946 9.61926 8.73525 10.9571 8.76094C11.276 8.30716 11.8004 8.67746 12.2135 8.43559C12.5967 8.21084 13.1125 8.2087 13.5727 8.12308C14.0029 8.04174 14.4888 8.07599 14.857 7.8812C15.2915 7.65217 15.7303 7.76776 16.152 7.65217C17.021 7.41458 17.8943 7.19839 18.7826 7.04642C19.0416 7.00147 19.2899 6.87947 19.5489 6.84522C19.8272 6.80669 20.1611 6.92227 20.3858 6.80669C21.1179 6.43211 21.9355 6.36147 22.7018 6.24161C23.5687 6.10462 24.3821 5.64656 25.2918 5.76856C25.829 5.44107 26.4626 5.52027 27.0384 5.34903C27.6441 5.16923 28.2756 5.05151 28.892 4.95518C29.2944 4.89097 29.669 4.69191 30.0779 4.70903C30.4953 4.72615 30.8441 4.48428 31.2658 4.44789C31.6511 4.41579 32.0792 4.36656 32.4538 4.25525C33.1023 4.06261 33.7595 3.96843 34.4166 3.84642C35.0716 3.72441 35.7458 3.63237 36.3666 3.40334C36.876 3.21498 37.4411 3.37338 37.8692 3.17431C38.5841 2.8404 39.3568 2.80401 40.0867 2.61779C40.8551 2.42301 41.6749 2.32883 42.454 2.12763C42.9934 1.9885 43.5928 2.07411 44.0573 1.88361C44.7807 1.58609 45.547 1.52187 46.2769 1.33565C47.0454 1.14087 47.863 1.04241 48.6443 0.845485C49.1473 0.719197 49.676 0.738462 50.1512 0.612174C50.834 0.432375 51.5018 0.22475 52.2103 0.177659C52.2403 0.175519 52.2617 0.0642145 52.2852 0.00214093C52.7197 4.57301e-07 53.1457 0 53.5716 0ZM7.08281 28.8342C8.05458 29.0055 8.58542 29.3865 10.0431 30.9169C10.0431 35.3905 10.0431 39.8769 10.0431 44.3548C11.5521 45.8317 12.9777 47.3664 14.2833 49.0167C14.9876 49.9093 15.741 50.7612 16.4666 51.6388C17.3977 52.7668 18.2882 53.9248 19.1058 55.1385C19.7972 56.1659 20.51 57.1826 21.1157 58.2593C21.5823 59.0855 21.8478 60.0251 22.3015 60.8599C22.4899 61.2067 22.1945 61.6669 22.6269 61.9023C22.751 62.7007 22.8688 63.4991 23.0421 64.2911C23.1492 64.7856 23.0207 65.2928 23.2326 65.8173C23.406 66.2475 23.2391 66.8019 23.2755 67.2985C23.3097 67.7694 23.4488 68.236 23.4724 68.7069C23.5066 69.4175 23.4809 70.1303 23.4809 70.8409C23.436 70.7981 23.391 70.7553 23.3461 70.7125C23.2819 70.888 23.2177 71.0635 23.1663 71.207C21.4903 70.7831 20.1675 69.7985 18.5728 69.1757C18.5728 69.4239 18.5022 69.6637 18.5857 69.7493C18.9346 70.1003 18.6627 70.6397 19.0009 70.9736C19.3006 73.0285 20.1204 74.9271 20.9595 76.785C21.8092 78.6665 22.8474 80.4602 24.2001 82.0784C25.3068 83.4033 26.4797 84.6491 27.8582 85.638C29.3373 86.6975 30.964 87.558 32.5565 88.4527C33.676 89.082 34.8532 89.6086 35.9877 90.2122C36.1504 90.2978 36.2167 90.5611 36.2574 90.6253C36.7347 90.5718 37.0066 90.6702 37.2527 90.4112C37.4496 90.2036 37.7514 90.088 38.0211 89.9639C39.01 89.5037 39.939 88.9236 40.8915 88.3992C41.9061 87.8405 42.9314 87.2947 43.9245 86.6911C44.6887 86.2266 45.5064 85.8499 46.2619 85.3876C47.1973 84.8139 48.1605 84.2895 49.1259 83.7801C50.2368 83.1957 51.3327 82.5793 52.4286 81.9778C53.3555 81.4684 54.2737 80.9183 55.1834 80.3639C55.9968 79.8694 56.9322 79.5676 57.7263 79.0454C59.3659 77.9666 61.1553 77.1575 62.8185 76.1258C63.4071 75.7619 64.0578 75.4965 64.6421 75.1262C65.0745 74.8522 65.5262 74.5439 65.828 74.1415C66.5857 73.1312 67.0395 72.0096 67.0373 70.6911C67.0202 53.989 67.0266 37.2848 67.0266 20.5827C67.0266 20.2296 67.0266 19.8764 67.0266 19.6324C66.667 19.2364 66.2025 19.337 65.8622 19.1872C65.3571 18.9645 64.8369 18.9025 64.3339 18.7441C63.8566 18.5942 63.3771 18.4722 62.8998 18.3374C62.3904 18.194 61.8702 18.0613 61.3758 17.8965C60.8685 17.7295 60.3526 17.6182 59.8496 17.4598C59.3723 17.31 58.8886 17.1922 58.4155 17.0531C57.9061 16.9033 57.371 16.8027 56.8894 16.6207C55.3439 16.0364 53.7001 15.7988 52.1803 15.1288C52.069 15.6104 51.87 16.0385 51.8914 16.4559C51.9534 17.7209 51.4975 18.9496 51.6581 20.2146C51.6709 20.3195 51.703 20.4607 51.6516 20.5292C51.3177 20.968 51.4183 21.4753 51.4654 21.9398C51.5147 22.4492 51.2813 22.8752 51.2278 23.3482C51.1486 24.0674 51.337 24.7823 51.0694 25.5229C50.834 26.1822 51.1593 26.972 50.804 27.6591C50.9667 28.785 50.4808 29.8681 50.5857 30.9897C50.5921 31.0454 50.5343 31.1096 50.5001 31.1845C50.4102 31.1781 50.3138 31.1695 50.164 31.1567C50.164 30.7928 50.2817 30.3797 50.1383 30.1057C49.8858 29.6284 50.087 29.1232 49.9264 28.693C49.7359 28.1814 49.7466 27.6827 49.7381 27.169C49.7359 27.0619 49.783 26.91 49.7295 26.8565C49.4106 26.5311 49.6075 26.118 49.5112 25.7648C49.402 25.3688 49.3078 24.9857 49.2971 24.5683C49.2886 24.2044 49.1409 23.847 49.1023 23.4809C49.0146 22.6569 48.9547 21.8306 48.884 21.0066C48.8776 20.9381 48.8947 20.8375 48.8583 20.8075C48.5394 20.5613 48.7299 20.2146 48.67 19.9192C48.61 19.626 48.4966 19.3413 48.4645 19.0459C48.3746 18.2218 48.3147 17.3956 48.2462 16.5715C48.2397 16.5009 48.274 16.3896 48.2397 16.3639C47.9251 16.1241 48.0728 15.7838 48.0257 15.4863C47.9743 15.1567 47.8587 14.8356 47.8223 14.506C47.7324 13.6819 47.6746 12.8557 47.6019 12.0316C47.5955 11.9631 47.5976 11.8924 47.5762 11.8282C47.3193 11.1219 47.2059 10.3791 47.1973 9.64281C47.1909 9.01779 46.9084 8.48482 46.8955 7.76562C46.6708 7.92829 46.5702 8.061 46.4589 8.07171C45.6519 8.14662 44.8706 8.33284 44.0851 8.52977C43.4986 8.67746 42.8864 8.72027 42.2914 8.84227C41.7006 8.96428 41.1398 9.24468 40.5105 9.18047C40.1723 9.64709 39.5302 9.13766 39.1877 9.59358C38.6975 9.52508 38.2523 9.73485 37.7878 9.81833C37.3212 9.90395 36.8161 9.8804 36.3922 10.0581C35.9577 10.24 35.5039 10.1458 35.0973 10.285C33.8536 10.713 32.5501 10.8372 31.2808 11.124C30.8463 11.2225 30.4161 11.2717 29.9858 11.3445C29.6027 11.4087 29.2452 11.7126 28.8749 11.7169C28.4126 11.7191 28.008 11.8775 27.5757 11.9567C27.1797 12.0294 26.7815 12.1022 26.3834 12.1707C25.951 12.2456 25.4908 12.2478 25.0927 12.404C24.6603 12.571 24.2001 12.4982 23.7999 12.633C22.5541 13.0547 21.2613 13.2217 19.9791 13.4593C19.6559 13.5192 19.3477 13.6498 19.0202 13.7504C19.0095 13.9858 18.9967 14.2256 18.986 14.4268C15.7774 16.8926 12.4704 19.1551 9.41806 21.6123C9.41806 22.0104 9.41806 22.2908 9.41806 22.552C9.81405 22.948 10.1908 23.3247 10.606 23.7399C10.8072 23.7399 11.0448 23.7399 11.3252 23.7399C11.3081 24.3971 11.3488 25.0178 11.2974 25.6342C10.4969 25.6342 9.78622 25.6342 9.19117 25.6342C8.60468 25.951 8.07385 26.1694 7.62221 26.499C7.1513 26.8415 6.53699 27.0833 6.40856 27.8625C6.61191 28.1728 6.86448 28.5282 7.08281 28.8342Z" fill="white"/>
<path d="M11.5885 110.063C13.9472 108.194 15.8501 105.91 18.0484 103.873C19.5917 103.873 21.1799 103.873 22.8045 103.873C22.8045 105.553 22.8045 107.216 22.8045 108.746C22.0018 110.27 21.2655 111.713 20.48 113.132C20.2638 113.524 20.1161 114.046 19.459 114.138C19.384 113.565 19.4375 113.006 19.4268 112.449C19.4161 111.916 19.4247 111.381 19.4247 110.848C19.4247 110.279 19.4247 109.71 19.4247 109.14C19.4247 108.612 19.4247 108.083 19.4247 107.381C18.7141 108.091 18.119 108.71 17.4983 109.305C15.5933 111.131 13.6797 112.948 11.7768 114.761C11.6955 114.733 11.6184 114.727 11.5713 114.688C9.54002 112.931 7.6821 110.994 5.7728 109.108C5.19487 108.537 4.56771 108.014 3.86992 107.385C3.86992 110.121 3.86992 112.708 3.86992 115.345C2.79113 115.345 1.74444 115.345 0.669922 115.345C0.669922 111.546 0.669922 107.747 0.669922 103.903C2.24103 103.903 3.82711 103.903 5.43246 103.903C7.45949 105.93 9.51862 107.991 11.5885 110.063Z" fill="white"/>
<path d="M43.0235 113.07C42.5997 111.343 42.6896 109.797 42.6939 108.258C42.6939 107.991 42.7838 107.725 42.8181 107.458C42.8545 107.186 42.8395 106.901 42.9101 106.64C42.9807 106.386 43.0471 106.103 43.1477 105.887C43.5779 104.949 44.3571 104.365 45.3417 104.07C45.6606 103.973 45.9902 103.894 46.3199 103.86C46.6709 103.823 47.0305 103.851 47.3858 103.851C49.8388 103.851 52.2918 103.838 54.7448 103.862C55.2478 103.866 55.7914 103.905 56.2431 104.1C57.0779 104.459 57.7628 105.076 58.0282 105.972C58.1481 106.377 58.3215 106.792 58.2894 107.267C58.2573 107.766 58.4371 108.273 58.4713 108.781C58.5077 109.312 58.527 109.853 58.4692 110.382C58.3621 111.36 58.3086 112.366 58.0111 113.289C57.827 113.854 57.3904 114.417 56.791 114.759C56.2046 115.097 55.5539 115.305 54.916 115.369C53.4241 115.519 51.9193 115.542 50.421 115.607C48.9505 115.669 47.5057 115.273 46.0288 115.38C45.4209 115.423 44.2179 114.845 43.762 114.436C43.6657 114.35 43.6036 114.22 43.5415 114.102C43.3446 113.717 43.1541 113.331 43.0235 113.07ZM54.6591 107.837C54.4665 107.563 54.3423 107.212 54.1048 107.094C53.758 106.923 53.3278 106.863 52.9318 106.856C51.3714 106.831 49.811 106.856 48.2506 106.839C47.7797 106.835 47.3987 106.976 47.0455 107.28C46.6773 107.597 46.6067 108.064 46.5575 108.458C46.4611 109.226 46.4633 110.024 46.5575 110.793C46.6067 111.187 46.6859 111.647 47.0476 111.97C47.4029 112.287 47.7861 112.409 48.2549 112.407C49.9929 112.392 51.7288 112.4 53.3877 112.4C53.773 112.203 54.0962 112.036 54.3852 111.889C54.8603 110.538 54.535 109.162 54.6591 107.837Z" fill="white"/>
<path d="M73.4373 115.378C71.9283 115.378 70.7253 115.378 69.4175 115.378C68.9423 114.956 68.4072 114.47 67.8614 113.997C67.3113 113.522 66.7505 113.06 66.1918 112.591C66.1918 111.613 66.1918 110.662 66.1918 109.624C66.7355 109.624 67.2963 109.592 67.8507 109.633C68.5699 109.686 69.1285 109.44 69.5802 108.849C69.5802 108.71 69.5609 108.532 69.5844 108.359C69.6401 107.92 69.4881 107.509 69.197 107.25C68.9444 107.026 68.542 106.874 68.1996 106.865C66.5407 106.826 64.8797 106.848 63.1823 106.848C63.1823 107.862 63.1823 108.813 63.1823 109.802C61.9151 109.802 60.6822 109.802 59.4065 109.802C59.4236 109.817 59.3937 109.797 59.3723 109.77C59.353 109.744 59.3359 109.71 59.3359 109.68C59.3337 107.764 59.3337 105.848 59.3337 103.858C59.7062 103.858 60.0529 103.858 60.3997 103.858C63.4905 103.858 66.5792 103.858 69.6701 103.858C70.2565 103.858 71.1791 104.168 71.8598 104.491C72.8144 104.943 73.0927 105.805 73.1868 106.717C73.2789 107.597 73.2682 108.498 73.1933 109.38C73.067 110.827 72.7395 111.994 70.9351 112.443C70.781 112.482 70.6461 112.599 70.4278 112.721C70.9115 113.134 71.3931 113.535 71.8619 113.948C72.3392 114.361 72.8016 114.795 73.4373 115.378Z" fill="white"/>
<path d="M31.2573 103.888C31.8716 104.842 32.1605 105.876 32.8305 106.73C33.1858 107.184 33.3292 107.798 33.6054 108.32C34.1426 109.341 34.7056 110.35 35.2407 111.332C35.2064 111.416 35.2 111.448 35.1807 111.473C35.1615 111.501 35.1294 111.54 35.1037 111.54C33.8258 111.544 32.548 111.542 31.1759 111.542C30.4396 110.078 29.6862 108.575 28.937 107.085C28.1193 108.603 27.2846 110.129 26.4733 111.668C25.874 112.805 25.3089 113.958 24.7224 115.101C24.6753 115.191 24.5747 115.253 24.487 115.343C23.1706 115.343 21.8413 115.343 20.4351 115.343C20.769 114.628 20.9959 113.926 21.394 113.338C22.1774 112.178 22.7553 110.908 23.4724 109.714C24.0525 108.751 24.5041 107.719 25.1227 106.771C25.6428 105.974 26.0238 105.086 26.4712 104.241C26.5333 104.121 26.6253 104.018 26.7216 103.881C28.2328 103.888 29.7504 103.888 31.2573 103.888Z" fill="white"/>
<path d="M31.5591 112.458C33.6781 112.227 35.7587 112.693 37.6894 112.165C38.1624 111.728 38.2159 111.27 38.2138 110.771C38.201 108.496 38.2074 106.221 38.2074 103.9C39.4082 103.9 40.5961 103.9 41.8098 103.9C41.8098 106.852 41.8098 109.795 41.8098 112.668C41.6578 112.993 41.5294 113.261 41.4095 113.53C40.9301 114.598 40.0054 114.967 38.9416 115.189C36.8824 115.619 34.8105 115.256 32.762 115.418C32.3018 114.429 31.7881 113.513 31.5591 112.458Z" fill="white"/>
<path d="M27.9973 124.618C27.931 124.896 27.871 125.14 27.809 125.397C18.667 125.397 9.61927 125.397 0.507292 125.397C0.267559 125.256 0.12843 125.008 0.261139 124.618C9.46729 124.618 18.6863 124.618 27.9973 124.618Z" fill="white"/>
<path d="M45.6241 125.406C45.5556 125.149 45.4914 124.905 45.4165 124.614C54.7297 124.614 63.9508 124.614 73.2683 124.614C73.1805 124.916 73.1077 125.16 73.035 125.406C63.8952 125.406 54.8453 125.406 45.6241 125.406Z" fill="white"/>
<path d="M33.8687 122.054C33.98 122.165 34.055 122.24 34.1256 122.311C34.1256 123.623 34.1256 124.928 34.1256 126.208C34.025 126.309 33.9501 126.386 33.8366 126.497C33.2095 126.497 32.5438 126.497 31.8417 126.497C31.8417 126.84 31.8417 127.152 31.8417 127.428C31.7047 127.565 31.6041 127.666 31.5099 127.758C30.9085 127.758 30.3156 127.758 29.6948 127.758C29.6948 125.926 29.6948 124.121 29.6948 122.311C29.7633 122.242 29.8382 122.165 29.9517 122.054C31.2188 122.054 32.5224 122.054 33.8687 122.054ZM31.8396 125.83C31.8995 125.827 32.1913 125.832 32.2513 125.83C32.2513 125.307 32.2684 123.222 32.2513 122.7C32.0172 122.542 32.0172 122.7 31.8396 122.7C31.8396 123.743 31.8396 124.785 31.8396 125.83Z" fill="white"/>
<path d="M34.6135 122.302C34.7248 122.191 34.7997 122.116 34.8768 122.039C36.2488 122.039 37.623 122.039 39.0293 122.039C39.0293 122.227 39.0293 122.396 39.0293 122.636C38.2202 122.636 37.3854 122.636 36.5271 122.636C36.5271 123.942 36.5271 125.177 36.5271 126.457C36.7754 126.457 37.0365 126.457 37.3276 126.457C37.3276 126.138 37.3276 125.83 37.3276 125.541C37.12 125.414 36.921 125.294 36.7454 125.19C36.6876 124.794 36.6298 124.443 37.0194 124.177C37.5759 124.177 38.1688 124.177 38.7639 124.177C38.8388 124.252 38.9137 124.329 39.025 124.438C39.025 125.494 39.025 126.585 39.025 127.752C37.5909 127.825 36.1204 127.762 34.6135 127.79C34.6135 125.949 34.6135 124.147 34.6135 122.302Z" fill="white"/>
<path d="M41.1248 122.054C41.2382 122.167 41.3131 122.242 41.4266 122.356C41.4266 123.554 41.4266 124.792 41.4266 125.988C41.54 126.102 41.6149 126.176 41.7284 126.29C42.3555 126.29 43.0212 126.29 43.7212 126.29C43.7212 126.778 43.7212 127.232 43.7212 127.735C42.3491 127.735 40.9471 127.735 39.5151 127.735C39.5151 125.928 39.5151 124.124 39.5151 122.306C39.5815 122.24 39.6564 122.165 39.7699 122.052C40.1808 122.054 40.6346 122.054 41.1248 122.054Z" fill="white"/>
<path d="M72.1636 120.485C71.804 120.038 71.3952 119.528 70.8986 118.91C70.8986 119.5 70.8986 119.978 70.8986 120.487C70.5198 120.487 70.2094 120.487 69.8477 120.487C69.8477 119.404 69.8477 118.289 69.8477 117.137C70.1409 117.137 70.4513 117.137 70.7702 117.137C70.9393 117.674 71.4744 117.944 71.879 118.503C71.9089 117.983 71.9325 117.58 71.956 117.141C72.2642 117.141 72.5746 117.141 72.9257 117.141C72.9107 117.129 72.9578 117.152 72.9578 117.176C72.962 118.267 72.9599 119.357 72.9599 120.485C72.7244 120.485 72.4868 120.485 72.1636 120.485Z" fill="white"/>
<path d="M34.1341 117.139C34.1341 118.267 34.1341 119.359 34.1341 120.485C33.8794 120.485 33.6418 120.485 33.3229 120.485C32.9612 120.033 32.5502 119.524 32.0515 118.901C32.0515 119.498 32.0515 119.975 32.0515 120.487C31.6705 120.487 31.3622 120.487 31.0005 120.487C31.0005 119.4 31.0005 118.284 31.0005 117.135C31.3002 117.135 31.6084 117.135 31.8866 117.135C32.2591 117.612 32.6315 118.09 33.0446 118.618C33.0446 118.122 33.0446 117.649 33.0446 117.139C33.4214 117.139 33.7317 117.139 34.1341 117.139Z" fill="white"/>
<path d="M10.2251 120.511C9.73711 120.511 9.31544 120.511 8.89591 120.511C8.68614 120.354 8.47423 120.196 8.12962 119.937C7.53671 119.295 7.5624 118.428 8.14032 117.634C8.69042 116.876 9.57872 117.133 10.3536 117.103C10.6532 117.405 10.955 117.704 11.2526 118.004C11.3232 118.259 11.3938 118.509 11.4902 118.85C11.4388 118.995 11.351 119.243 11.1926 119.695C10.9679 119.883 10.5805 120.211 10.2251 120.511ZM10.0111 117.993C9.68574 117.993 9.45029 117.993 9.2127 117.993C9.24052 118.034 9.27049 118.075 9.29831 118.115C9.09069 118.244 8.88306 118.372 8.77818 118.436C8.77818 118.783 8.77818 118.984 8.77818 119.211C9.07142 119.378 9.35611 119.541 9.62153 119.691C10.0068 119.449 10.3771 119.246 10.4584 118.777C10.3172 118.524 10.1695 118.269 10.0111 117.993Z" fill="white"/>
<path d="M42.0132 120.495C41.6429 120.502 41.2747 120.654 41.0029 120.147C41.0029 119.95 41.0029 119.639 41.0029 119.284C40.7053 119.284 40.4421 119.284 40.1424 119.284C40.1424 119.603 40.1424 119.911 40.1424 120.179C40.0054 120.32 39.9069 120.421 39.8106 120.519C39.5944 120.519 39.3804 120.519 39.1663 120.519C39.1428 120.496 39.0957 120.47 39.0957 120.444C39.0914 119.355 39.0936 118.263 39.0936 117.137C39.3311 117.137 39.5687 117.137 39.847 117.137C39.9091 117.199 40.0075 117.3 40.1445 117.439C40.1445 117.709 40.1445 118.019 40.1445 118.355C40.4185 118.355 40.6561 118.355 40.9686 118.355C40.9686 118.032 40.9686 117.698 40.9686 117.46C41.294 117.028 41.6343 117.071 42.0153 117.139C42.0132 118.227 42.0132 119.318 42.0132 120.495Z" fill="white"/>
<path d="M57.8933 118.971C57.8184 119.361 57.7349 119.791 57.6557 120.194C57.4395 120.305 57.2661 120.395 57.0221 120.519C56.6026 120.519 56.106 120.519 55.6415 120.519C55.4082 120.344 55.1963 120.183 54.8774 119.941C54.2481 119.22 54.2845 118.37 55.1064 117.441C55.6651 117.105 55.6651 117.105 57.0457 117.105C57.2854 117.351 57.7863 117.3 57.8505 117.771C57.3325 118.498 56.6861 117.888 56.0097 117.97C55.8898 118.126 55.7186 118.346 55.5024 118.627C55.5024 118.723 55.5024 118.935 55.5024 119.23C55.862 119.395 56.2494 119.573 56.7524 119.802C56.7524 119.329 56.7524 118.989 56.7524 118.627C57.0649 118.627 57.3025 118.627 57.553 118.627C57.6407 118.717 57.7413 118.817 57.8933 118.971Z" fill="white"/>
<path d="M63.5847 118.263C63.9507 118.539 64.4302 118.274 64.854 118.441C64.854 118.667 64.854 118.905 64.854 119.22C64.4665 119.22 64.0599 119.22 63.6382 119.22C63.6275 119.391 63.6189 119.487 63.6104 119.624C64.0791 119.624 64.5308 119.624 65.0573 119.624C65.0744 119.922 65.0894 120.185 65.1065 120.485C64.2546 120.485 63.4477 120.485 62.5894 120.485C62.5894 119.395 62.5894 118.276 62.5894 117.128C63.3963 117.128 64.2033 117.128 65.0573 117.128C65.0573 117.381 65.0573 117.646 65.0573 117.987C64.5607 117.987 64.0813 117.987 63.6039 117.987C63.5954 118.079 63.589 118.171 63.5847 118.263Z" fill="white"/>
<path d="M18.9967 117.85C18.9967 118.203 18.9967 118.522 18.9967 118.845C18.5794 119.545 17.9308 119.742 17.0896 119.648C17.0896 119.948 17.0896 120.211 17.0896 120.498C16.7064 120.498 16.3982 120.498 16.0493 120.498C16.0493 119.38 16.0493 118.265 16.0493 117.124C16.8006 117.124 17.5348 117.124 18.2733 117.124C18.4959 117.347 18.7206 117.574 18.9967 117.85ZM17.1088 118.77C17.8794 118.742 17.8965 118.723 17.8559 117.953C17.5947 117.963 17.3336 117.976 17.1088 117.987C17.1088 118.297 17.1088 118.533 17.1088 118.77Z" fill="white"/>
<path d="M23.7314 117.124C24.5769 117.124 25.3838 117.124 26.2229 117.124C26.2229 117.385 26.2229 117.623 26.2229 117.938C25.7691 117.938 25.2875 117.938 24.7952 117.938C24.7824 118.109 24.7759 118.205 24.7652 118.344C25.1612 118.344 25.5422 118.344 25.9981 118.344C26.0153 118.642 26.0303 118.905 26.0474 119.209C25.6236 119.209 25.2426 119.209 24.8487 119.209C24.8059 119.333 24.7738 119.425 24.7203 119.582C25.2062 119.761 25.6985 119.614 26.2079 119.695C26.2079 119.952 26.2079 120.215 26.2079 120.502C25.3817 120.502 24.5747 120.502 23.7292 120.502C23.7314 119.397 23.7314 118.304 23.7314 117.124Z" fill="white"/>
<path d="M47.8287 119.918C47.7195 120.112 47.6232 120.286 47.5183 120.474C47.2079 120.474 46.874 120.474 46.4417 120.474C46.9875 119.297 47.4969 118.199 47.9956 117.122C48.3317 117.122 48.5693 117.122 48.8582 117.122C49.3677 118.214 49.8814 119.312 50.4229 120.474C50.0548 120.474 49.7487 120.474 49.3548 120.474C49.2756 120.361 49.1429 120.174 48.9631 119.92C48.6827 119.918 48.3017 119.918 47.8287 119.918ZM48.2546 119.055C48.4408 119.021 48.535 119.004 48.6699 118.978C48.4986 118.864 48.3681 118.779 48.2546 118.704C48.2546 118.766 48.2546 118.86 48.2546 119.055Z" fill="white"/>
<path d="M3.49536 119.843C2.92171 120.679 2.15329 120.498 1.39128 120.525C1.01884 120.243 0.614288 119.932 0.229004 119.639C0.229004 119.085 0.229004 118.59 0.229004 118.053C0.537231 117.768 0.875425 117.456 1.25857 117.103C1.96278 117.161 2.84894 116.865 3.49108 117.756C3.36265 117.895 3.2492 118.017 3.14004 118.134C2.78686 118.207 2.49148 118.13 2.15756 117.987C1.94566 117.897 1.60104 118.115 1.3078 118.197C1.3078 118.511 1.3078 118.789 1.3078 119.179C1.43837 119.26 1.65027 119.391 1.86432 119.521C2.24961 119.881 2.43155 119.389 2.79757 119.179C3.01161 119.389 3.22994 119.594 3.49536 119.843Z" fill="white"/>
<path d="M48.2549 119.055C48.2549 118.86 48.2549 118.766 48.2549 118.704C48.3683 118.779 48.4989 118.867 48.6701 118.978C48.5353 119.004 48.4411 119.021 48.2549 119.055Z" fill="white"/>
<path d="M7.50439 28.0443C8.40339 27.3016 9.24674 26.7857 10.2378 26.2699C11.1389 26.2699 12.1599 26.2699 13.2087 26.2699C13.2087 25.069 13.2087 23.9046 13.2087 22.6953C12.7699 22.6953 12.3162 22.6953 11.8859 22.6953C11.612 22.402 11.3701 22.143 11.0961 21.8476C11.0447 21.6015 11.1282 21.3446 11.4 21.1798C11.9116 20.8716 12.4318 20.5783 12.9433 20.2701C14.0264 19.6194 15.1073 18.9666 16.184 18.3052C16.7812 17.9392 17.3548 17.5303 17.9606 17.1836C18.3052 16.9845 18.6712 16.7619 18.8874 16.8347C21.4688 18.3886 23.8619 19.827 26.3277 21.3104C26.1714 21.6678 26.0152 22.0296 25.8525 22.3999C25.4843 22.3999 25.174 22.3999 24.8101 22.3999C24.8101 23.697 24.8101 24.9577 24.8101 26.257C25.8932 26.257 26.9848 26.257 28.0443 26.257C28.6779 26.9441 29.5726 27.2416 30.2041 28.0315C28.4746 28.6757 26.9848 29.5383 26.0344 31.1951C26.0344 37.7278 26.0344 44.3482 26.0344 50.9751C25.6256 51.2876 25.2895 50.9452 25.0263 50.7739C24.2172 50.2474 23.3546 49.8236 22.5198 49.3484C20.9037 48.4258 19.3305 47.4348 17.7251 46.4951C16.9845 46.0628 16.1754 45.7396 15.4627 45.2687C14.2683 44.4788 12.9369 43.9287 11.7596 43.1046C11.7596 39.6478 11.7596 36.2038 11.7596 32.7041C12.7978 32.0941 14.0392 32.0448 15.1544 31.4691C14.6065 31.3535 14.0692 31.4262 13.5384 31.4134C12.9712 31.4006 12.4039 31.4113 11.841 31.4113C10.972 29.6539 9.47791 28.6971 7.50439 28.0443Z" fill="white"/>
<path d="M59.9395 72.0375C57.5464 70.5199 55.0485 69.287 52.7368 67.7416C52.7368 63.602 52.7368 59.5201 52.7368 55.2948C50.9559 56.3351 49.2607 57.3261 47.5719 58.3129C46.8741 57.8997 46.1463 57.4973 45.4464 57.0521C44.2969 56.3201 43.1068 55.6458 41.9274 54.9716C40.8101 54.3316 39.7121 53.6488 38.5776 53.0345C37.6444 52.5272 36.7625 51.9257 35.8442 51.3884C35.247 51.0395 34.607 50.7591 34.0184 50.3974C33.0317 49.7874 32.0321 49.1987 31.0046 48.6615C30.8248 48.5673 30.6985 48.3682 30.5444 48.212C30.5444 45.4872 30.5444 42.7559 30.5444 39.9155C30.7371 40.0033 30.8805 40.0525 31.0046 40.1296C31.4884 40.425 31.955 40.7482 32.4452 41.0286C34.1169 41.9811 35.8014 42.9143 37.4175 43.9653C38.3015 44.5411 39.2882 44.9606 40.1765 45.5321C41.296 46.2513 42.4604 46.8999 43.6056 47.5698C44.5174 48.1007 45.4314 48.6401 46.3561 49.1559C46.705 49.3507 47.0346 49.5776 47.4327 49.828C47.7859 49.6803 48.2204 49.5733 48.5672 49.3379C49.8322 48.4753 51.1893 47.7753 52.5099 47.009C53.8905 46.2085 55.209 45.2988 56.6089 44.5368C57.6299 43.9803 58.6317 43.4023 59.6163 42.788C59.689 42.7431 59.8046 42.7602 59.9395 42.7452C59.9395 52.5036 59.9395 62.2342 59.9395 72.0375Z" fill="white"/>
<path d="M40.4207 41.5487C41.1227 41.1056 41.6814 40.7353 42.2572 40.3907C44.2778 39.1792 46.3883 38.1196 48.3382 36.7818C49.0125 36.3195 49.8088 36.0412 50.5237 35.6303C51.6174 35.001 52.6813 34.316 53.7708 33.6782C54.7404 33.1088 55.7336 32.5758 56.7053 32.0129C57.767 31.3964 58.8158 30.7628 59.9225 30.1057C59.9225 32.9632 59.9225 35.7908 59.9225 38.567C59.1305 39.0186 58.3514 39.4531 57.5808 39.9026C56.9494 40.2708 56.3286 40.6582 55.7015 41.0307C54.5884 41.6878 53.4711 42.3406 52.3559 42.9956C51.8978 43.2653 51.4462 43.5436 50.986 43.8069C50.1769 44.2671 49.3421 44.6802 48.593 45.2495C48.3104 45.4636 47.9465 45.5685 47.5762 45.7418C45.2624 44.3826 42.9143 43.0085 40.4207 41.5487Z" fill="white"/>
<path d="M36.8589 64.5866C34.6392 63.2787 32.5779 62.0651 30.5466 60.8664C30.5466 58.0838 30.5466 55.3547 30.5466 52.5208C30.8591 52.6577 31.131 52.7455 31.3707 52.8868C32.4559 53.5311 33.5262 54.1989 34.6114 54.8389C35.5232 55.3761 36.4565 55.8749 37.3662 56.4164C38.8773 57.3133 40.4356 58.1331 41.8954 59.1262C42.5482 59.5715 43.2888 59.8882 44.1193 60.3313C41.5957 61.8104 39.2091 63.2102 36.8589 64.5866Z" fill="white"/>
<path d="M36.9018 81.2371C35.8359 81.8236 35.1102 82.7226 33.9651 83.202C33.9544 81.9649 34.7956 81.0231 34.8042 79.7901C33.9522 79.1373 33.0597 78.4523 31.9595 77.609C32.7729 77.5491 33.3272 77.579 33.8795 77.5726C34.4446 77.5662 35.0096 77.5705 35.5576 77.5705C36.0371 76.5516 36.2104 75.4578 36.7113 74.4861C36.7477 74.4133 36.8761 74.3876 37.0174 74.3105C37.3791 75.4 37.728 76.4532 38.0919 77.5534C39.2114 77.5534 40.3737 77.5534 41.5959 77.5534C41.3411 78.2212 40.6648 78.3453 40.2666 78.7798C39.892 79.1908 39.3398 79.4391 38.8218 79.7901C39.1643 80.8882 39.5025 81.9756 39.8514 83.1014C39.2328 83.2791 38.9267 82.6862 38.4986 82.4315C37.9207 82.0847 37.4112 81.6245 36.9018 81.2371Z" fill="white"/>
</svg>
