<svg width="256" height="85" viewBox="0 0 256 85" fill="none" xmlns="http://www.w3.org/2000/svg">
<path fill-rule="evenodd" clip-rule="evenodd" d="M131.478 0C134.301 6.28531 137.073 12.595 139.961 18.8504C142.657 24.6918 145.477 30.4762 147.73 36.7601C139.345 30.2173 130.96 23.6739 122.667 17.2029C125.186 11.36 127.637 5.67932 130.087 0C130.55 0 131.014 0 131.478 0Z" fill="#FDFC5E"/>
<path fill-rule="evenodd" clip-rule="evenodd" d="M0.512939 82.267C0.512939 77.0691 0.512939 72.4432 0.512939 67.8165C0.512939 54.1501 0.512939 40.4844 0.512939 26.6621C1.34643 26.5035 1.99417 26.2732 2.6419 26.2746C11.1028 26.2934 19.5943 25.9413 28.0106 26.5717C31.8282 26.8576 36.0165 28.3862 39.1327 30.6153C47.1163 36.3246 46.5896 46.2639 38.3083 52.6689C38.7563 53.0299 39.1292 53.4091 39.571 53.6721C49.5653 59.6249 50.4705 70.8269 41.2352 77.9214C38.6735 79.8882 35.2714 80.8171 32.1684 81.9943C31.0322 82.4256 29.6456 82.2559 28.3724 82.258C19.2415 82.276 10.1107 82.267 0.512939 82.267ZM15.6501 70.2112C19.5157 70.2112 22.9804 70.3385 26.432 70.1743C29.6094 70.0234 31.8678 67.8102 31.9395 65.0106C32.0195 61.8526 30.1813 59.7717 27.3107 59.4509C23.4932 59.0251 19.5922 59.3459 15.6508 59.3459C15.6501 63.0883 15.6501 66.3993 15.6501 70.2112ZM15.726 47.9949C18.6516 47.9949 21.4102 48.0408 24.1674 47.9824C27.0936 47.9197 29.0814 46.6542 29.1948 43.4747C29.3082 40.3 27.3156 38.8828 24.5131 38.473C16.0258 37.2311 15.2396 37.9533 15.4845 46.4309C15.4943 46.769 15.5854 47.1036 15.726 47.9949Z" fill="white"/>
<path fill-rule="evenodd" clip-rule="evenodd" d="M204.348 32.8757C201.43 35.9286 198.591 38.898 195.984 41.6253C193.166 40.277 190.791 38.8124 188.209 38.0297C186.703 37.5733 184.632 37.7549 183.247 38.4785C181.932 39.1645 180.532 40.86 180.384 42.2417C180.264 43.3626 181.699 45.0713 182.886 45.8109C184.608 46.8837 186.727 47.3151 188.676 48.024C191.057 48.8895 193.492 49.6347 195.807 50.6518C201.419 53.1175 205.435 56.8689 206.059 63.4471C206.765 70.8915 204.09 76.8248 197.71 80.4768C188.344 85.8374 178.497 85.4179 169.288 80.2687C166.829 78.8926 165.864 74.803 164.318 71.9025C164.179 71.643 164.747 70.8978 165.115 70.4957C166.744 68.7125 168.42 66.9731 169.664 65.6575C173.396 67.4546 176.549 69.402 179.975 70.4532C181.843 71.0265 184.429 70.5771 186.218 69.6615C187.585 68.9616 188.889 66.834 188.948 65.2923C188.994 64.0455 187.409 62.1579 186.087 61.5422C181.292 59.3082 176.103 57.875 171.434 55.4301C163.348 51.1966 160.877 41.6573 165.983 34.0988C167.901 31.2609 170.863 28.7618 173.895 27.1136C182.611 22.3784 195.814 24.4955 203.02 31.2873C203.427 31.6672 203.741 32.141 204.348 32.8757Z" fill="white"/>
<path fill-rule="evenodd" clip-rule="evenodd" d="M162.709 82.141C139.285 82.141 116.497 82.141 93.156 82.141C93.8357 80.6056 94.3763 79.3025 94.9802 78.0292C98.0909 71.4663 101.15 64.8777 104.412 58.3899C104.901 57.4166 106.293 56.4516 107.381 56.302C112.285 55.6271 117.228 55.2479 122.966 54.683C120.928 59.0808 119.181 62.8503 117.242 67.0317C124.469 67.0317 131.217 67.0317 138.462 67.0317C136.476 62.7404 134.53 58.5325 132.387 53.9003C137.748 53.375 142.629 52.8483 147.521 52.4886C148.048 52.4497 148.878 53.2672 149.175 53.878C153.638 63.0973 158.035 72.3499 162.709 82.141Z" fill="#FDFC5E"/>
<path fill-rule="evenodd" clip-rule="evenodd" d="M240.187 82.1056C234.802 82.1056 229.979 82.1056 224.741 82.1056C224.741 68.0781 224.741 54.1383 224.741 39.907C219.508 39.907 214.68 39.907 209.6 39.907C209.6 35.297 209.6 30.9806 209.6 26.4548C224.804 26.4548 239.911 26.4548 255.254 26.4548C255.254 30.8296 255.254 35.0542 255.254 39.7247C250.327 39.7247 245.418 39.7247 240.187 39.7247C240.187 53.9991 240.187 67.8388 240.187 82.1056Z" fill="white"/>
<path fill-rule="evenodd" clip-rule="evenodd" d="M53.7146 26.407C58.783 26.407 63.6038 26.407 68.8323 26.407C68.8323 40.2306 68.8323 53.936 68.8323 67.9837C76.7039 67.9837 84.1754 67.9837 92.2648 67.9837C90.0447 72.746 88.1126 77.013 86.0317 81.2055C85.7631 81.7461 84.7244 82.1907 84.0398 82.1948C73.9968 82.2575 63.9538 82.238 53.7139 82.238C53.7146 63.547 53.7146 45.1878 53.7146 26.407Z" fill="white"/>
<path fill-rule="evenodd" clip-rule="evenodd" d="M122.759 38.0644C121.637 40.4313 120.558 42.1268 120.012 43.9782C118.955 47.5612 116.481 48.6 113.077 48.7231C109.065 48.8685 105.063 49.2846 100.305 49.6394C105.166 39.3995 109.736 29.7726 114.483 19.7727C122.279 25.8368 129.923 31.5905 137.322 37.6448C139.782 39.659 141.611 42.4434 143.73 44.8764C143.502 45.1762 143.276 45.4747 143.049 45.7746C138.287 46.2706 133.532 46.8613 128.758 47.1674C127.977 47.2175 126.826 46.1823 126.348 45.3571C125.083 43.1781 124.096 40.8383 122.759 38.0644Z" fill="#FDFC5E"/>
</svg>
