<svg width="36" height="36" viewBox="0 0 36 36" fill="none" xmlns="http://www.w3.org/2000/svg">
<g clip-path="url(#clip0_2305_9581)">
<path fill-rule="evenodd" clip-rule="evenodd" d="M18 0C8.05888 0 0 8.05888 0 18C0 27.9411 8.05888 36 18 36C27.9411 36 36 27.9411 36 18C36 8.05888 27.9411 0 18 0ZM18 0.75C8.47309 0.75 0.75 8.47309 0.75 18C0.75 27.5269 8.47309 35.25 18 35.25C27.5269 35.25 35.25 27.5269 35.25 18C35.25 8.47309 27.5269 0.75 18 0.75Z" fill="black" fill-opacity="0.4"/>
<path d="M18.3817 20.0597H16.5617V18.6597C16.5617 17.6397 16.8417 17.2597 17.7617 16.7797L19.2417 15.9997C19.8017 15.6997 19.9217 15.5397 19.9217 15.0197V13.1997C19.9217 12.7197 19.5617 12.3597 19.0817 12.3597H16.9217C16.4417 12.3597 16.0617 12.7197 16.0617 13.1997V14.4197H14.2217V12.7997C14.2217 11.6197 15.1617 10.6797 16.3417 10.6797H19.6217C20.8217 10.6797 21.7617 11.6197 21.7617 12.7997V15.4997C21.7617 16.5997 21.3017 16.8397 20.4217 17.3597C19.8817 17.6797 19.5017 17.8997 18.9817 18.1797C18.6017 18.3797 18.3817 18.6597 18.3817 19.0997V20.0597ZM18.5217 23.9997H16.4617V21.5397H18.5217V23.9997Z" fill="#FFFEFE" fill-opacity="0.2"/>
</g>
<defs>
<clipPath id="clip0_2305_9581">
<rect width="36" height="36" fill="white"/>
</clipPath>
</defs>
</svg>
