<svg width="37" height="36" viewBox="0 0 37 36" fill="none" xmlns="http://www.w3.org/2000/svg">
<path fill-rule="evenodd" clip-rule="evenodd" d="M18.5 0C8.55888 0 0.5 8.05888 0.5 18C0.5 27.9411 8.55888 36 18.5 36C28.4411 36 36.5 27.9411 36.5 18C36.5 8.05888 28.4411 0 18.5 0ZM18.5 1.375C9.31827 1.375 1.875 8.81827 1.875 18C1.875 27.1817 9.31827 34.625 18.5 34.625C27.6817 34.625 35.125 27.1817 35.125 18C35.125 8.81827 27.6817 1.375 18.5 1.375Z" fill="black" fill-opacity="0.5"/>
<path d="M18.8819 20.0599H17.0619V18.6599C17.0619 17.6399 17.3419 17.2599 18.2619 16.7799L19.7419 15.9999C20.3019 15.6999 20.4219 15.5399 20.4219 15.0199V13.1999C20.4219 12.7199 20.0619 12.3599 19.5819 12.3599H17.4219C16.9419 12.3599 16.5619 12.7199 16.5619 13.1999V14.4199H14.7219V12.7999C14.7219 11.6199 15.6619 10.6799 16.8419 10.6799H20.1219C21.3219 10.6799 22.2619 11.6199 22.2619 12.7999V15.4999C22.2619 16.5999 21.8019 16.8399 20.9219 17.3599C20.3819 17.6799 20.0019 17.8999 19.4819 18.1799C19.1019 18.3799 18.8819 18.6599 18.8819 19.0999V20.0599ZM19.0219 23.9999H16.9619V21.5399H19.0219V23.9999Z" fill="black" fill-opacity="0.5"/>
</svg>
