<svg width="32" height="32" viewBox="0 0 32 32" fill="none" xmlns="http://www.w3.org/2000/svg">
<path d="M28.2329 13.2979V25.4863C28.2326 26.2187 27.5988 26.8125 26.8169 26.8125H2.34619C1.56469 26.8124 0.931417 26.219 0.931152 25.4863V11.1602L28.2329 13.2979ZM3.9917 23.7607C3.72179 23.7609 3.50244 23.9671 3.50244 24.2197C3.50261 24.4726 3.72189 24.6786 3.9917 24.6787H6.41064C6.67983 24.6787 6.89973 24.4726 6.8999 24.2197C6.8999 23.967 6.67994 23.7608 6.41064 23.7607H3.9917ZM8.79834 23.7607C8.52845 23.7609 8.3091 23.9671 8.30908 24.2197C8.30908 24.4724 8.52844 24.6786 8.79834 24.6787H11.2173C11.4873 24.6787 11.7065 24.4724 11.7065 24.2197C11.7065 23.967 11.4873 23.7608 11.2173 23.7607H8.79834ZM4.20361 17.5596V23.2939H6.19775V17.5596H4.20361ZM9.01025 17.5596V23.2939H11.0054V17.5596H9.01025ZM30.8472 10.1719C31.323 10.1719 31.7095 10.5342 31.7095 10.9805V18.3535C31.7095 18.8001 31.323 19.1621 30.8472 19.1621H29.1226V13.4736L29.7632 13.3496V10.1719H30.8472ZM5.20068 15.0664C4.52608 15.0667 4.26933 16.4293 4.2124 17.0918H6.18994C6.13336 16.429 5.87582 15.0664 5.20068 15.0664ZM10.0083 15.0664C9.33317 15.0664 9.07597 16.4293 9.01904 17.0918H10.9966C10.94 16.4291 10.6831 15.0669 10.0083 15.0664ZM17.8931 3.9375C19.2174 3.93753 20.2952 4.94714 20.2954 6.18848V7.24805H27.3911C28.2093 7.24805 28.8733 7.86876 28.8735 8.63574V12.4746L0.290527 10.2363V8.63672C0.290527 7.86956 0.95431 7.24805 1.77295 7.24805H8.86865V6.18848C8.8689 4.94712 9.94663 3.9375 11.271 3.9375H17.8931ZM11.271 5.10547C10.6339 5.10553 10.116 5.59153 10.1157 6.18848V7.24805H19.0493V6.18848C19.0491 5.59116 18.5302 5.10547 17.8931 5.10547H11.271Z" fill="white"/>
</svg>
