<svg width="32" height="32" viewBox="0 0 32 32" fill="none" xmlns="http://www.w3.org/2000/svg">
<g clip-path="url(#clip0_5295_1459)">
<circle cx="16" cy="16" r="15" stroke="white" stroke-width="2"/>
<circle cx="16" cy="16" r="4.6875" fill="white"/>
<path d="M19.3576 6.23256C19.3576 8.08689 17.8543 9.59012 16 9.59012C14.1457 9.59012 12.6424 8.08689 12.6424 6.23256C12.6424 4.37823 14.1457 2.875 16 2.875C17.8543 2.875 19.3576 4.37823 19.3576 6.23256Z" fill="white"/>
<path d="M25.2808 11.4675C23.9696 12.7787 21.8437 12.7787 20.5325 11.4675C19.2213 10.1563 19.2213 8.03043 20.5325 6.71922C21.8437 5.40801 23.9696 5.40801 25.2808 6.71922C26.592 8.03043 26.592 10.1563 25.2808 11.4675Z" fill="white"/>
<path d="M25.7674 19.3576C23.9131 19.3576 22.4099 17.8543 22.4099 16C22.4099 14.1457 23.9131 12.6424 25.7674 12.6424C27.6218 12.6424 29.125 14.1457 29.125 16C29.125 17.8543 27.6218 19.3576 25.7674 19.3576Z" fill="white"/>
<path d="M20.5325 25.2808C19.2212 23.9696 19.2212 21.8437 20.5325 20.5325C21.8437 19.2213 23.9696 19.2213 25.2808 20.5325C26.592 21.8437 26.592 23.9696 25.2808 25.2808C23.9696 26.592 21.8437 26.592 20.5325 25.2808Z" fill="white"/>
<path d="M12.6424 25.7674C12.6424 23.9131 14.1457 22.4099 16 22.4099C17.8543 22.4099 19.3576 23.9131 19.3576 25.7674C19.3576 27.6218 17.8543 29.125 16 29.125C14.1457 29.125 12.6424 27.6218 12.6424 25.7674Z" fill="white"/>
<path d="M6.71922 20.5325C8.03042 19.2213 10.1563 19.2213 11.4675 20.5325C12.7787 21.8437 12.7787 23.9696 11.4675 25.2808C10.1563 26.592 8.03042 26.592 6.71922 25.2808C5.40801 23.9696 5.40801 21.8437 6.71922 20.5325Z" fill="white"/>
<path d="M6.23256 12.6424C8.08689 12.6424 9.59012 14.1457 9.59012 16C9.59012 17.8543 8.08689 19.3576 6.23256 19.3576C4.37823 19.3576 2.875 17.8543 2.875 16C2.875 14.1457 4.37823 12.6424 6.23256 12.6424Z" fill="white"/>
<path d="M11.4675 6.71922C12.7788 8.03042 12.7788 10.1563 11.4675 11.4675C10.1563 12.7787 8.03045 12.7787 6.71924 11.4675C5.40803 10.1563 5.40803 8.03042 6.71924 6.71922C8.03045 5.40801 10.1563 5.40801 11.4675 6.71922Z" fill="white"/>
</g>
<defs>
<clipPath id="clip0_5295_1459">
<rect width="32" height="32" fill="white"/>
</clipPath>
</defs>
</svg>
