<svg width="32" height="32" viewBox="0 0 32 32" fill="none" xmlns="http://www.w3.org/2000/svg">
<path fill-rule="evenodd" clip-rule="evenodd" d="M31.6307 24.9376L25.2841 31.2841L1.71362 7.71362L4.43356 4.99368L6.2911 6.85123L7.19775 5.94458L5.34021 4.08704L8.06015 1.3671L31.6307 24.9376ZM23.7245 27.911L24.9864 29.1728L29.5196 24.6396L28.2577 23.3778L23.7245 27.911ZM20.2842 24.4707L21.5461 25.7326L26.0793 21.1993L24.8175 19.9375L20.2842 24.4707ZM16.8432 21.0297L18.1051 22.2916L22.6383 17.7583L21.3765 16.4965L16.8432 21.0297ZM13.4029 17.5894L14.6648 18.8513L19.198 14.3181L17.9362 13.0562L13.4029 17.5894ZM9.96194 14.1484L11.2238 15.4103L15.757 10.877L14.4952 9.61519L9.96194 14.1484ZM6.52167 10.7082L7.78353 11.97L12.3168 7.43678L11.0549 6.17492L6.52167 10.7082Z" fill="white"/>
<path fill-rule="evenodd" clip-rule="evenodd" d="M2.17326 1.82674C3.92581 0.0741931 6.54036 -0.152689 8.01303 1.31998C9.4857 2.79265 9.25882 5.40721 7.50628 7.15975C5.75373 8.9123 3.13918 9.13918 1.66651 7.66651C0.193836 6.19384 0.420718 3.57928 2.17326 1.82674ZM2.4818 3.04192L6.29109 6.85122L7.19774 5.94457L3.38844 2.13527L2.4818 3.04192Z" fill="white"/>
</svg>
