<svg width="50" height="4" viewBox="0 0 50 4" fill="none" xmlns="http://www.w3.org/2000/svg">
<path d="M4 2C4 1.5 8 0 12 0V2V4C8 4 4 2.5 4 2Z" fill="white"/>
<path d="M13 2C13 1.5 17 0 21 0V2V4C17 4 13 2.5 13 2Z" fill="white"/>
<path d="M22 2C22 1.5 26 0 30 0V2V4C26 4 22 2.5 22 2Z" fill="white"/>
<path d="M31 2C31 1.5 35 0 39 0V2V4C35 4 31 2.5 31 2Z" fill="url(#paint0_linear_5306_1394)"/>
<path d="M40 2C40 1.5 44 0 48 0V2V4C44 4 40 2.5 40 2Z" fill="url(#paint1_linear_5306_1394)"/>
<defs>
<linearGradient id="paint0_linear_5306_1394" x1="31" y1="2" x2="39" y2="2" gradientUnits="userSpaceOnUse">
<stop stop-color="white"/>
<stop offset="1" stop-color="white" stop-opacity="0.5"/>
</linearGradient>
<linearGradient id="paint1_linear_5306_1394" x1="40" y1="2" x2="48" y2="2" gradientUnits="userSpaceOnUse">
<stop stop-color="white" stop-opacity="0.5"/>
<stop offset="1" stop-color="white" stop-opacity="0"/>
</linearGradient>
</defs>
</svg>
