<svg width="32" height="32" viewBox="0 0 32 32" fill="none" xmlns="http://www.w3.org/2000/svg">
<g clip-path="url(#clip0_5297_1443)">
<path fill-rule="evenodd" clip-rule="evenodd" d="M12.8455 0C12.923 0 12.9917 0.05 13.0142 0.125L21.7516 29.1101C21.7678 29.1638 21.7578 29.2213 21.7253 29.2663C21.6916 29.3126 21.6391 29.3388 21.5828 29.3388H8.90015C8.82266 29.3388 8.75391 29.2876 8.73141 29.2138L0.00767136 0.228752C-0.00857925 0.175003 0.00142097 0.116251 0.0351696 0.0712537C0.0676708 0.0262537 0.12142 2.86102e-06 0.177671 2.86102e-06L12.8455 0ZM16.9405 28.0997C17.563 28.0997 18.143 27.8022 18.5255 27.2935C18.893 26.7835 19.0067 26.1473 18.8367 25.5522L12.1093 2.82371C11.8543 1.97371 11.0905 1.40747 10.213 1.40747C9.59053 1.40747 9.00928 1.70496 8.62803 2.20123C8.25928 2.70997 8.14677 3.34747 8.31677 3.95621L15.0429 26.6847C15.2979 27.5197 16.063 28.0997 16.9405 28.0997ZM9.73541 26.6847C9.99041 27.5197 10.7542 28.0997 11.6316 28.0997C12.2554 28.0997 12.8354 27.8022 13.2179 27.2935C13.5854 26.7835 13.6991 26.1473 13.5291 25.5522L6.80168 2.82371C6.54668 1.97371 5.78293 1.40747 4.90544 1.40747C4.28168 1.40747 3.70168 1.70496 3.3192 2.20123C2.9517 2.70997 2.83794 3.34747 3.00794 3.95621L9.73541 26.6847ZM22.5303 32.1759H8.37674C7.90925 32.1759 7.49925 31.7797 7.49925 31.2985C7.49925 30.8172 7.89549 30.421 8.37674 30.421H22.5303C23.0266 30.421 23.4078 30.8172 23.4078 31.2985C23.4078 31.7797 23.0116 32.1759 22.5303 32.1759ZM17.5341 26.5722C17.3928 26.7422 17.1803 26.841 16.9541 26.841L16.9678 26.8272C16.9403 26.8272 16.9116 26.8235 16.8828 26.821C16.8553 26.8172 16.8266 26.8135 16.7978 26.8135C16.5153 26.7572 16.3028 26.5585 16.2316 26.3185L9.50545 3.58861C9.44796 3.36236 9.49045 3.12237 9.61796 2.93735C9.78796 2.7261 10.0717 2.6261 10.368 2.6836C10.638 2.73986 10.8492 2.9236 10.9205 3.16486L17.6479 25.9073C17.7042 26.1335 17.6616 26.361 17.5341 26.5722ZM12.2266 26.5722C12.0854 26.7422 11.8729 26.841 11.6466 26.841L11.6604 26.8272C11.6316 26.8272 11.6041 26.8235 11.5754 26.821C11.5466 26.8172 11.5191 26.8135 11.4904 26.8135C11.2079 26.7572 10.9954 26.5585 10.9241 26.3185L4.19665 3.58861C4.1404 3.36236 4.1829 3.12237 4.3104 2.93735C4.4804 2.7261 4.77789 2.6261 5.0604 2.6836C5.32915 2.73986 5.54166 2.9236 5.61291 3.16486L12.3404 25.9073C12.3966 26.1335 12.3541 26.361 12.2266 26.5722Z" fill="white"/>
</g>
<defs>
<clipPath id="clip0_5297_1443">
<rect width="32" height="32" fill="white"/>
</clipPath>
</defs>
</svg>
