<svg width="32" height="32" viewBox="0 0 32 32" fill="none" xmlns="http://www.w3.org/2000/svg">
<g clip-path="url(#clip0_5297_1438)">
<path d="M24.937 10.1211C25.9675 10.1211 26.9195 10.7762 27.6479 11.8369C29.399 14.385 29.399 18.736 27.6479 21.2842C26.9195 22.3449 25.9675 22.9999 24.937 23L6.89404 23C9.95365 19.7803 9.9537 13.3407 6.89404 10.1211L24.937 10.1211ZM24.7495 16.5605C24.7495 17.2844 25.3372 17.8711 26.061 17.8711C26.7847 17.8708 27.3716 17.2843 27.3716 16.5605C27.3715 15.8369 26.7846 15.2503 26.061 15.25C25.3372 15.25 24.7496 15.8368 24.7495 16.5605ZM20.1284 16.5605C20.1284 17.2844 20.7152 17.871 21.439 17.8711C22.1628 17.8711 22.7495 17.2844 22.7495 16.5605C22.7494 15.8368 22.1628 15.25 21.439 15.25C20.7152 15.2501 20.1285 15.8368 20.1284 16.5605ZM15.5073 16.5605C15.5073 17.2844 16.094 17.8711 16.8179 17.8711C17.5417 17.871 18.1284 17.2844 18.1284 16.5605C18.1283 15.8368 17.5416 15.2501 16.8179 15.25C16.0941 15.25 15.5074 15.8368 15.5073 16.5605ZM10.8853 16.5605C10.8853 17.2844 11.4729 17.8711 12.1968 17.8711C12.9204 17.8708 13.5073 17.2843 13.5073 16.5605C13.5072 15.8369 12.9204 15.2503 12.1968 15.25C11.473 15.25 10.8854 15.8368 10.8853 16.5605Z" fill="white"/>
<ellipse cx="4.31297" cy="16.5126" rx="3.81297" ry="6.48734" fill="white"/>
<rect x="3.5" y="8" width="2" height="6" fill="white"/>
<rect x="24" y="8" width="2" height="3" fill="white"/>
</g>
<defs>
<clipPath id="clip0_5297_1438">
<rect width="32" height="32" fill="white" transform="translate(0 32) rotate(-90)"/>
</clipPath>
</defs>
</svg>
