<svg width="32" height="32" viewBox="0 0 32 32" fill="none" xmlns="http://www.w3.org/2000/svg">
<path d="M9.7554 0.0011072H0.578643C0.422768 0.000102742 0.273183 0.061933 0.164022 0.172536C0.0555393 0.281242 -0.00364399 0.429233 0.000173908 0.582251C0.578643 18.6797 12.1266 29.9223 15.7047 31.9251C15.8114 31.9855 15.9348 32.0104 16.0569 31.996C16.1789 31.9816 16.293 31.9287 16.3826 31.8451L22.8144 25.84C22.9386 25.7254 23.0062 25.5626 22.9996 25.3943C22.9955 25.2299 22.9197 25.0753 22.792 24.9709C19.9884 22.6674 10.1527 14.394 10.3309 0.543431C10.3238 0.396668 10.2599 0.258385 10.1527 0.157145C10.0455 0.0559159 9.90319 -0.000332805 9.75541 1.4815e-06L9.7554 0.0011072ZM8.03045 1.14397C8.18374 1.1356 8.33378 1.18961 8.44596 1.29374C8.55826 1.39776 8.62284 1.54285 8.62497 1.69543C8.63182 1.88338 8.63935 2.07089 8.64968 2.2566C8.65799 2.40783 8.60554 2.55614 8.50391 2.669C8.40228 2.78184 8.25965 2.84992 8.10749 2.85829H8.07649C7.92904 2.85851 7.7873 2.80249 7.6803 2.70181C7.57327 2.60103 7.50926 2.46342 7.50151 2.3171C7.49118 2.12458 7.48366 1.93027 7.47681 1.73541C7.47142 1.58418 7.52644 1.43687 7.63021 1.32604C7.73386 1.2151 7.87818 1.14966 8.03045 1.14397ZM5.15552 1.14397C5.30938 1.13336 5.46064 1.18671 5.57339 1.29129C5.68615 1.39575 5.75004 1.54218 5.75004 1.69543C5.75689 1.88338 5.76442 2.07032 5.77475 2.2566C5.78306 2.40783 5.73061 2.55614 5.62898 2.669C5.52735 2.78184 5.38473 2.84992 5.23256 2.85829H5.20156C5.05411 2.85851 4.91238 2.80249 4.80537 2.70181C4.69835 2.60103 4.63434 2.46342 4.62659 2.3171C4.61625 2.12391 4.60873 1.93027 4.60188 1.73541C4.59649 1.58418 4.65152 1.43687 4.75528 1.32604C4.85894 1.2151 5.00325 1.14966 5.15552 1.14397ZM1.74989 2.3154C1.74012 2.12287 1.73259 1.92968 1.72574 1.73537C1.72035 1.58391 1.77572 1.43648 1.8796 1.32554C1.98359 1.2146 2.12767 1.14931 2.28007 1.14395C2.43348 1.13525 2.58372 1.18915 2.69616 1.29328C2.80858 1.39741 2.87326 1.54273 2.87517 1.6954C2.88202 1.88402 2.88955 2.0714 2.89932 2.25823C2.90718 2.40979 2.85395 2.55834 2.75142 2.67083C2.649 2.78344 2.5057 2.85085 2.3531 2.85822H2.32379C2.17633 2.85811 2.0346 2.80174 1.92782 2.70063C1.82102 2.59962 1.7573 2.4617 1.74989 2.3154ZM21.1188 24.7829C21.2232 24.8933 21.2792 25.0403 21.2744 25.1918C21.2697 25.3432 21.2046 25.4865 21.0936 25.5903L15.9187 30.4223C15.8079 30.5276 15.6594 30.5844 15.5061 30.5802C15.3529 30.5762 15.2076 30.5115 15.1026 30.4006C14.9976 30.2895 14.9416 30.1415 14.9469 29.9893C14.9522 29.8369 15.0185 29.6932 15.131 29.5897L20.3059 24.7577C20.417 24.6538 20.5651 24.5981 20.7176 24.6028C20.8701 24.6076 21.0145 24.6724 21.1188 24.7829ZM18.3014 23.2748L18.5808 23.0131C18.7305 22.8733 18.9441 22.8235 19.1409 22.8824C19.3376 22.9415 19.4878 23.1003 19.5347 23.299C19.5816 23.4978 19.5184 23.7064 19.3686 23.8462L18.7033 24.4668L16.9387 26.1154C16.9387 26.1183 16.9358 26.1223 16.933 26.1252C16.9301 26.1281 16.9215 26.1314 16.9169 26.1365L14.8924 28.0246L14.1955 28.6761C14.0847 28.7813 13.9361 28.8381 13.7829 28.8341C13.6296 28.83 13.4844 28.7652 13.3794 28.6543C13.2744 28.5434 13.2184 28.3953 13.2237 28.243C13.2289 28.0908 13.2952 27.9469 13.4077 27.8435L13.6377 27.6281C9.64216 23.8023 3.25637 16.0486 1.94253 4.63488C1.9267 4.436 2.01643 4.24337 2.17915 4.12663C2.34188 4.00978 2.55413 3.98578 2.7391 4.06323C2.92408 4.14069 3.055 4.30843 3.08455 4.50575C4.36211 15.6092 10.6002 23.1469 14.4762 26.8469L15.6773 25.7251C11.9831 22.1646 6.10383 15.0126 4.83024 4.64169C4.80912 4.44091 4.89616 4.24403 5.05911 4.12372C5.22217 4.00341 5.4369 3.97729 5.6242 4.0553C5.81141 4.13321 5.94346 4.30352 5.97155 4.5033C7.20719 14.5662 12.9375 21.5045 16.5162 24.941L17.4632 24.0582C14.1553 20.7577 8.91263 14.1662 7.70516 4.64393C7.67944 4.44137 7.76457 4.24048 7.9283 4.11705C8.09193 3.99361 8.30957 3.96638 8.49892 4.04562C8.68837 4.12486 8.82088 4.29852 8.8465 4.50108C10.0126 13.7154 15.1045 20.0925 18.3014 23.2748Z" fill="white"/>
</svg>
