<svg width="50" height="5" viewBox="0 0 50 5" fill="none" xmlns="http://www.w3.org/2000/svg">
<path d="M4 2.5C4 2 8 0.5 12 0.5V2.5V4.5C8 4.5 4 3 4 2.5Z" fill="white"/>
<path d="M13 2.5C13 2 17 0.5 21 0.5V2.5V4.5C17 4.5 13 3 13 2.5Z" fill="white"/>
<path d="M22 2.5C22 2 26 0.5 30 0.5V2.5V4.5C26 4.5 22 3 22 2.5Z" fill="white"/>
<path d="M31 2.5C31 2 35 0.5 39 0.5V2.5V4.5C35 4.5 31 3 31 2.5Z" fill="url(#paint0_linear_5306_1394)"/>
<path d="M40 2.5C40 2 44 0.5 48 0.5V2.5V4.5C44 4.5 40 3 40 2.5Z" fill="url(#paint1_linear_5306_1394)"/>
<defs>
<linearGradient id="paint0_linear_5306_1394" x1="31" y1="2.5" x2="39" y2="2.5" gradientUnits="userSpaceOnUse">
<stop stop-color="white"/>
<stop offset="1" stop-color="white" stop-opacity="0.5"/>
</linearGradient>
<linearGradient id="paint1_linear_5306_1394" x1="40" y1="2.5" x2="48" y2="2.5" gradientUnits="userSpaceOnUse">
<stop stop-color="white" stop-opacity="0.5"/>
<stop offset="1" stop-color="white" stop-opacity="0"/>
</linearGradient>
</defs>
</svg>
