<svg width="32" height="32" viewBox="0 0 32 32" fill="none" xmlns="http://www.w3.org/2000/svg">
<path d="M1.59621 1.59617C2.96305 0.229336 5.17912 0.229336 6.54596 1.59617C7.91279 2.96301 7.91279 5.17908 6.54596 6.54592C5.17912 7.91275 2.96305 7.91275 1.59621 6.54592C0.229377 5.17908 0.229377 2.96301 1.59621 1.59617ZM1.94976 2.65683L5.4853 6.19237L6.19241 5.48526L2.65687 1.94972L1.94976 2.65683Z" fill="white"/>
<mask id="mask0_5351_1446" style="mask-type:alpha" maskUnits="userSpaceOnUse" x="-1" y="-1" width="33" height="33">
<path d="M31.6482 22.4558L22.4558 31.6482L-0.171631 9.02081L1.26261 7.58657C3.02945 9.00161 5.61516 8.89088 7.25299 7.25305C8.89082 5.61521 9.00156 3.02951 7.58652 1.26266L9.02076 -0.171575L31.6482 22.4558Z" fill="#D9D9D9"/>
</mask>
<g mask="url(#mask0_5351_1446)">
<path d="M30.9412 25.9914L25.9914 30.9411L1.24268 6.19238L6.19242 1.24264L30.9412 25.9914ZM22.7521 26.2876L23.4592 26.9947L26.9948 23.4592L26.2877 22.7521L22.7521 26.2876ZM21.1556 24.6911L21.8627 25.3982L25.3982 21.8627L24.6911 21.1556L21.1556 24.6911ZM19.5591 23.0946L20.2662 23.8017L23.8017 20.2662L23.0946 19.559L19.5591 23.0946ZM17.9619 21.4974L18.669 22.2045L22.2045 18.669L21.4974 17.9618L17.9619 21.4974ZM16.3654 19.9009L17.0725 20.608L20.608 17.0724L19.9009 16.3653L16.3654 19.9009ZM14.7689 18.3043L15.476 19.0115L19.0115 15.4759L18.3044 14.7688L14.7689 18.3043ZM13.1723 16.7078L13.8794 17.4149L17.415 13.8794L16.7079 13.1723L13.1723 16.7078ZM11.5751 15.1106L12.2822 15.8177L15.8178 12.2822L15.1107 11.5751L11.5751 15.1106ZM9.97862 13.5141L10.6857 14.2212L14.2213 10.6857L13.5142 9.97858L9.97862 13.5141ZM8.38211 11.9176L9.08921 12.6247L12.6247 9.08917L11.9176 8.38207L8.38211 11.9176ZM6.78559 10.3211L7.4927 11.0282L11.0282 7.49266L10.3211 6.78555L6.78559 10.3211ZM5.18839 8.72388L5.89549 9.43099L9.43103 5.89545L8.72392 5.18835L5.18839 8.72388ZM3.59187 7.12737L4.29898 7.83447L7.83451 4.29894L7.12741 3.59183L3.59187 7.12737Z" fill="white"/>
</g>
</svg>
