<svg width="32" height="32" viewBox="0 0 32 32" fill="none" xmlns="http://www.w3.org/2000/svg">
<g clip-path="url(#clip0_34_97)">
<path d="M16 32C24.8366 32 32 24.8366 32 16C32 7.16344 24.8366 0 16 0C7.16344 0 0 7.16344 0 16C0 24.8366 7.16344 32 16 32Z" fill="url(#paint0_linear_34_97)"/>
<path d="M31.8283 14.6263L31.5051 14.9495L31.8485 15.2929H31.8586C31.8687 15.5152 31.8889 15.7475 31.8889 15.9798L30.899 14.9899L31.7677 14.1212C31.7879 14.2828 31.8081 14.4444 31.8182 14.6162L31.8283 14.6263ZM16.6465 31.8788C16.6465 31.8788 16.5455 31.8788 16.495 31.8788H16.0101L15.303 31.1717C15.1414 31.0101 15.1616 30.7374 15.3333 30.5657L16.1313 29.7677C16.303 29.596 16.5859 29.5758 16.7374 29.7374L17.8889 30.8889L17.5657 31.2121L17.1212 30.7677L16.3232 31.5657L16.6263 31.8687L16.6465 31.8788ZM16.0707 31.2929L16.8687 30.4949L16.4141 30.0404L15.6162 30.8384L16.0707 31.2929ZM31.4444 19.7172C31.2929 19.8283 31.1414 19.9495 31.0101 20.0808C31.1313 20.0101 31.2626 19.9495 31.3939 19.8889C31.3838 19.9495 31.3636 20.0101 31.3434 20.0707C31.0909 20.1919 30.8485 20.3333 30.6364 20.505C30.5758 20.5859 30.5253 20.6566 30.4747 20.7374C30.7172 20.6162 30.9798 20.5151 31.2626 20.4343C31.2424 20.4949 31.2323 20.5657 31.2121 20.6263C30.899 20.7172 30.596 20.8384 30.3232 20.9899C30.2626 21.101 30.202 21.2121 30.1515 21.3333C30.4343 21.2222 30.7374 21.1414 31.0606 21.0808C31.0404 21.1313 31.0202 21.1818 31 21.2424C30.6667 21.3131 30.3535 21.404 30.0606 21.5252C29.8182 22.1111 29.6768 22.7778 29.6263 23.5152C29.6566 23.4646 29.6869 23.4242 29.7273 23.3838L30.404 22.7071C30.1313 23.2929 29.8283 23.8586 29.4849 24.404C29.4343 23.3535 29.5657 22.4141 29.8687 21.6162C29.7576 21.6667 29.6364 21.7273 29.5354 21.7879C29.0909 22.5758 28.8485 23.5354 28.8283 24.6465C28.9899 24.6465 29.1515 24.6465 29.3232 24.6667C29.2929 24.7172 29.2626 24.7677 29.2323 24.8081C29.0909 24.8081 28.9596 24.7879 28.8283 24.7879C28.8283 24.9697 28.8384 25.1515 28.8485 25.3434C28.7879 25.4343 28.7172 25.5151 28.6566 25.6061C28.4444 25.596 28.2323 25.5859 28.0303 25.5859C28.0303 25.8081 28.0303 26.0404 28.0606 26.2727H28.1414C28.0707 26.3535 28 26.4242 27.9293 26.505V26.4141C27.6869 26.3939 27.4646 26.3838 27.2424 26.3838C27.2424 26.6061 27.2424 26.8283 27.2727 27.0606H27.4242C27.4242 27.0606 27.3434 27.1616 27.2929 27.202H27.2727V27.2222C27.2323 27.2626 27.1818 27.3131 27.1313 27.3535V27.1919C26.9192 27.1818 26.7273 27.1717 26.5354 27.1616L25.4747 28.2222L25.697 28.1414L25.7778 28.3333L26.5758 27.5354C26.6869 27.4242 26.8485 27.4141 26.9697 27.4848C26.495 27.9394 25.9798 28.3636 25.4545 28.7677C25.4343 28.7374 25.404 28.7172 25.3939 28.6869L25.3434 28.5657L25.2727 28.3939C25.1717 28.1414 25.2323 27.8586 25.4242 27.6667L25.9192 27.1717C25.202 27.2222 24.5455 27.3636 23.9697 27.596C23.7273 28.1717 23.5859 28.8283 23.5354 29.5556C23.5455 29.5455 23.5556 29.5252 23.5657 29.5151L24.697 28.3838L24.8283 28.7071C24.8485 28.7677 24.8384 28.8384 24.7879 28.8889L23.899 29.7778C23.7273 29.8788 23.5556 29.9798 23.3737 30.0707C23.3737 30.0404 23.3737 30.0202 23.3737 29.9899C23.3737 29.9697 23.3737 29.9495 23.3737 29.9293C23.3838 29.0909 23.5152 28.3333 23.7778 27.6667C23.6566 27.7172 23.5455 27.7778 23.4343 27.8384C23.0303 28.5455 22.8081 29.3939 22.7576 30.3636C22.7071 30.3838 22.6566 30.4141 22.6061 30.4343C22.6465 29.5151 22.8384 28.6869 23.1919 27.9899C23.1111 28.0404 23.0303 28.101 22.9596 28.1515C22.4343 28.8384 22.1212 29.7071 22 30.7071C21.9495 30.7273 21.899 30.7475 21.8485 30.7677C21.9394 29.9192 22.1717 29.1616 22.5455 28.5252C21.9192 29.1515 21.5051 29.9798 21.303 30.9697C21.2525 30.9899 21.1919 31.0101 21.1414 31.0303C21.3434 29.9697 21.7778 29.0909 22.4444 28.4242C22.5758 28.2929 22.7172 28.1717 22.8586 28.0606C22.9697 27.9091 23.0909 27.7778 23.2222 27.6465C23.3535 27.5152 23.495 27.3939 23.6465 27.2727C23.7576 27.1212 23.8889 26.9798 24.0202 26.8485C24.1515 26.7172 24.2929 26.596 24.4444 26.4848C24.5556 26.3333 24.6768 26.1919 24.8081 26.0606C25.4444 25.4242 26.2626 25 27.2424 24.7879C27.4545 23.8081 27.8788 22.9798 28.5152 22.3535C28.6465 22.2222 28.7879 22.101 28.9394 21.9899C29.0505 21.8384 29.1717 21.697 29.303 21.5657C29.4343 21.4343 29.5758 21.3131 29.7273 21.1919C29.8384 21.0404 29.9697 20.899 30.101 20.7677C30.2323 20.6364 30.3737 20.5152 30.5152 20.404C30.6263 20.2525 30.7475 20.1212 30.8788 19.9899C31.0606 19.8081 31.2626 19.6566 31.4747 19.505C31.4545 19.5758 31.4343 19.6465 31.4242 19.7172H31.4444ZM24 27.2121C23.9192 27.2626 23.8485 27.3232 23.7677 27.3737C23.7071 27.4444 23.6566 27.5252 23.6061 27.596C23.697 27.5556 23.7778 27.5151 23.8788 27.4747C23.9192 27.3838 23.9596 27.2929 24 27.2121ZM24.1313 26.9596C24.1313 26.9596 24.1313 26.9596 24.1212 26.9697L24.1313 26.9596ZM27.1414 27.0202C27.1212 26.798 27.1111 26.5758 27.1111 26.3535C26 26.3737 25.0303 26.6061 24.2525 27.0606C24.1919 27.1717 24.1313 27.2828 24.0808 27.3939C24.6869 27.1616 25.3636 27.0303 26.101 27L26.6768 26.4242L26.8081 26.7475C26.8283 26.8081 26.8182 26.8788 26.7677 26.9293L26.7071 26.9899C26.8485 26.9899 26.9899 27 27.1414 27.0101V27.0202ZM27.1414 25.6162C26.1212 25.7374 25.2525 26.0606 24.5657 26.5859C24.5051 26.6667 24.4545 26.7374 24.3939 26.8182C25.1616 26.4343 26.0707 26.2323 27.1111 26.2121C27.1111 26.0101 27.1212 25.8081 27.1414 25.6061V25.6162ZM27.2323 24.9394C26.303 25.1515 25.5253 25.5556 24.9293 26.1616C25.5657 25.7879 26.3131 25.5556 27.1616 25.4646C27.1818 25.2828 27.2121 25.1111 27.2424 24.9394H27.2323ZM27.9293 26.2424C27.9091 26.0101 27.899 25.7879 27.899 25.5657C27.6869 25.5657 27.4849 25.5758 27.2929 25.596C27.2727 25.798 27.2626 26 27.2626 26.2121C27.4848 26.2121 27.7071 26.2121 27.9293 26.2424ZM27.9293 24.8283C27.7475 24.8485 27.5657 24.8788 27.3838 24.9091C27.3535 25.0808 27.3232 25.2626 27.303 25.4545C27.495 25.4343 27.697 25.4242 27.899 25.4242C27.899 25.2222 27.9091 25.0202 27.9293 24.8283ZM28.6465 22.4444C28.0505 23.0404 27.6364 23.8182 27.4242 24.7475C27.596 24.7172 27.7677 24.6869 27.9495 24.6667C28.0404 23.8182 28.2828 23.0707 28.6465 22.4343V22.4444ZM28.7273 25.4444C28.7071 25.2121 28.697 24.9899 28.697 24.7778C28.4848 24.7778 28.2828 24.7879 28.0808 24.8081C28.0606 25.0101 28.0505 25.2121 28.0505 25.4141C28.2727 25.4141 28.495 25.4141 28.7273 25.4444ZM29.303 21.9192C29.2222 21.9697 29.1414 22.0303 29.0707 22.0808C28.5455 22.7677 28.2222 23.6465 28.101 24.6566C28.2929 24.6364 28.495 24.6263 28.7071 24.6263C28.7172 23.596 28.9293 22.6768 29.3131 21.9091L29.303 21.9192ZM29.4444 21.6465C29.4444 21.6465 29.4444 21.6465 29.4343 21.6566L29.4444 21.6465ZM30.0808 21.1313C30 21.1818 29.9293 21.2323 29.8586 21.2929C29.798 21.3636 29.7475 21.4444 29.697 21.5252C29.7879 21.4848 29.8687 21.4444 29.9596 21.404C30 21.3131 30.0404 21.2222 30.0808 21.1313ZM19.9697 28.2424L19.101 27.3737C18.9394 27.2121 18.9596 26.9394 19.1313 26.7677L19.9293 25.9697C20.101 25.798 20.3838 25.7778 20.5354 25.9394L21.404 26.8081C21.5657 26.9697 21.5455 27.2424 21.3737 27.4141L20.5758 28.2121C20.404 28.3838 20.1212 28.404 19.9697 28.2424ZM19.404 27.0404L20.303 27.9394L21.101 27.1414L20.202 26.2424L19.404 27.0404ZM22.7778 10.505L21.9091 9.63636C21.7475 9.47475 21.7677 9.20202 21.9394 9.0303L22.7374 8.23232C22.9091 8.06061 23.1919 8.0404 23.3434 8.20202L24.2121 9.07071C24.3737 9.23232 24.3535 9.50505 24.1818 9.67677L23.3838 10.4747C23.2121 10.6465 22.9293 10.6667 22.7778 10.505ZM22.2222 9.30303L23.1212 10.202L23.9192 9.40404L23.0202 8.50505L22.2222 9.30303ZM12.0505 21.8182L11.7778 21.5455L10.899 22.4242L9.72727 21.2525L9.40404 21.5758L10.8485 23.0202L12.0505 21.8182ZM12.5051 20.7879L11.6364 19.9192C11.4748 19.7576 11.495 19.4848 11.6667 19.3131L12.4646 18.5151C12.6364 18.3434 12.9192 18.3232 13.0707 18.4848L13.9394 19.3535C14.101 19.5151 14.0808 19.7879 13.9091 19.9596L13.1111 20.7576C12.9394 20.9293 12.6566 20.9495 12.5051 20.7879ZM11.9495 19.5859L12.8485 20.4848L13.6465 19.6869L12.7475 18.7879L11.9495 19.5859ZM21.3636 11.404L20.5657 12.202L21.1111 12.7475L20.7879 13.0707L19.3434 11.6263L20.4646 10.505C20.6364 10.3333 20.9192 10.3131 21.0707 10.4747L21.3333 10.7374C21.4141 10.8182 21.4545 10.9293 21.4242 11.0606C21.5455 11.0303 21.6465 11.0606 21.7273 11.1313L22.2323 11.6364L21.9091 11.9596L21.3636 11.4141V11.404ZM21.0909 11.1313L20.7475 10.7879L19.9495 11.5859L20.2929 11.9293L21.0909 11.1313ZM14.9192 18.9495L15.5354 18.3333C15.6263 18.2424 15.6768 18.1313 15.6869 18.0303C15.798 18.0303 15.9091 17.9697 15.9899 17.8788L16.6061 17.2626C16.7778 17.0909 16.798 16.8081 16.6364 16.6566L15.4849 15.5051L15.1616 15.8283L16.3333 17L15.6465 17.6869L14.4747 16.5152L14.1515 16.8384L15.3232 18.0101L14.6364 18.697L13.4646 17.5253L13.1414 17.8485L14.2929 19C14.4545 19.1616 14.7273 19.1414 14.899 18.9697L14.9192 18.9495ZM18.4545 15.4141L18.7778 15.0909L17.6263 13.9394C17.4646 13.7778 17.1919 13.798 17.0202 13.9697L15.899 15.0909L17.3434 16.5354L17.6667 16.2121L16.495 15.0404L17.2929 14.2424L18.4646 15.4141H18.4545ZM4.9899 26L6.43435 27.4444L6.75758 27.1212L5.31313 25.6768L4.9899 26ZM9.67677 23.303L8.87879 24.101L9.32323 24.5455L9 24.8687L7.84849 23.7172C7.68687 23.5556 7.70707 23.2828 7.87879 23.1111L8.67677 22.3131C8.84849 22.1414 9.13131 22.1212 9.28283 22.2828L10.4343 23.4343L10.1111 23.7576L9.66667 23.3131L9.67677 23.303ZM9.40404 23.0303L8.9495 22.5758L8.15152 23.3737L8.60606 23.8283L9.40404 23.0303ZM8.28283 25.5859L8.60606 25.2626L7.45455 24.1111C7.29293 23.9495 7.0202 23.9697 6.84849 24.1414L5.72728 25.2626L7.17172 26.7071L7.49495 26.3838L6.32323 25.2121L7.12121 24.4141L8.29293 25.5859H8.28283ZM20.4343 13.4343L20.1616 13.1616L19.2222 14.101L18.9091 13.7879L19.8182 12.8788L19.5455 12.6061L18.6364 13.5152L18.3232 13.202L19.2626 12.2626L18.9899 11.9899L17.7374 13.2424L19.1818 14.6869L20.4343 13.4343ZM14.9091 31.5758C14.7475 31.4141 14.4747 31.4343 14.303 31.6061L14.1212 31.7879C14.4747 31.8283 14.8384 31.8485 15.202 31.8687L14.9091 31.5758ZM22.3838 26.404L23 25.7879C23.0909 25.697 23.1414 25.5859 23.1515 25.4848C23.2626 25.4848 23.3737 25.4242 23.4545 25.3333L24.0707 24.7172C24.2424 24.5455 24.2626 24.2626 24.101 24.1111L22.9495 22.9596L22.6263 23.2828L23.798 24.4545L23.1111 25.1414L21.9394 23.9697L21.6162 24.2929L22.7879 25.4646L22.101 26.1515L20.9293 24.9798L20.6061 25.303L21.7576 26.4545C21.9192 26.6162 22.1919 26.596 22.3636 26.4242L22.3838 26.404ZM17.1919 28.7172L16.8687 29.0404L18.3131 30.4848L19.5152 29.2828L19.2424 29.0101L18.3636 29.8889L17.1919 28.7172ZM27.8889 20.899L27.6162 20.6263L26.6768 21.5657L26.3636 21.2525L27.2727 20.3434L27 20.0707L26.0909 20.9798L25.7778 20.6667L26.7172 19.7273L26.4444 19.4545L25.1919 20.7071L26.6364 22.1515L27.8889 20.899ZM27.0404 6.82828L25.596 5.38384L25.2727 5.70707L26.7172 7.15151L27.0404 6.82828ZM31.6869 16.5354C31.8485 16.697 31.8283 16.9697 31.6566 17.1414L30.8586 17.9394C30.6869 18.1111 30.404 18.1313 30.2525 17.9697L29.3838 17.101C29.2222 16.9394 29.2424 16.6667 29.4141 16.4949L30.2121 15.697C30.3838 15.5253 30.6667 15.505 30.8182 15.6667L31.6869 16.5354ZM31.3838 16.8687L30.4848 15.9697L29.6869 16.7677L30.5859 17.6667L31.3838 16.8687ZM25.9192 22.8788L26.2424 22.5556L25.0909 21.404C24.9293 21.2424 24.6566 21.2626 24.4848 21.4343L23.3636 22.5556L24.8081 24L25.1313 23.6768L23.9596 22.505L24.7576 21.7071L25.9293 22.8788H25.9192ZM4.56566 26.9697L4.72727 27.1313L5.05051 26.8081L4.90909 26.6667C4.74748 26.505 4.47475 26.5253 4.30303 26.697L4.28283 26.7172C4.37374 26.8081 4.45455 26.9091 4.54546 27L4.57576 26.9697H4.56566ZM28.8283 18.8687L28.0303 19.6667L28.5758 20.2121L28.2525 20.5354L26.8081 19.0909L27.9293 17.9697C28.101 17.798 28.3838 17.7778 28.5354 17.9394L28.798 18.202C28.8788 18.2828 28.9192 18.3939 28.8889 18.5253C29.0101 18.4949 29.1111 18.5253 29.1919 18.596L29.697 19.101L29.3737 19.4242L28.8283 18.8788V18.8687ZM28.5556 18.596L28.2121 18.2525L27.4141 19.0505L27.7576 19.3939L28.5556 18.596ZM12.7273 5.0303L11.9293 5.82828L12.3737 6.27273L12.0505 6.59596L10.899 5.44444C10.7374 5.28283 10.7576 5.0101 10.9293 4.83838L11.7273 4.0404C11.899 3.86869 12.1818 3.84848 12.3333 4.0101L13.4849 5.16162L13.1616 5.48485L12.7172 5.0404L12.7273 5.0303ZM12.4646 4.75758L12.0101 4.30303L11.2121 5.10101L11.6667 5.55556L12.4646 4.75758ZM11.798 31.3232C12.2222 30.7576 12.5051 30.0707 12.6566 29.2727C12.4849 29.303 12.303 29.3232 12.1111 29.3333C12.0505 30.0505 11.899 30.7071 11.6465 31.2828C11.596 31.2727 11.5455 31.2626 11.495 31.2424C11.7475 30.6869 11.9091 30.0505 11.9697 29.3434C11.7677 29.3535 11.5556 29.3636 11.3434 29.3535C11.3434 30 11.2828 30.5859 11.1515 31.1313C11.101 31.1212 11.0606 31.101 11.0202 31.0808C11.1414 30.5455 11.2121 29.9697 11.202 29.3434C11.0303 29.3434 10.8485 29.3232 10.6768 29.3131H10.5152L10.5253 29.4646C10.5657 29.9697 10.5556 30.4444 10.5253 30.899C10.4849 30.8788 10.4343 30.8687 10.3939 30.8485C10.3939 30.8081 10.404 30.7677 10.404 30.7273C10.3838 30.7576 10.3636 30.7778 10.3434 30.798L10.3232 30.8182C10.1717 30.7576 10.0202 30.7172 9.87879 30.6566L10.1111 30.4242L9.9899 30.1212L9.58586 30.5252C9.44445 30.4646 9.30303 30.3939 9.17172 30.3232L9.82828 29.6667C10 29.4949 10.2929 29.5556 10.3737 29.7778L10.4141 29.8788C10.4141 29.7475 10.404 29.6162 10.3838 29.4747V29.2929C10.1717 29.2828 9.9798 29.2727 9.79798 29.2727L8.87879 30.1919C8.75758 30.1313 8.63637 30.0808 8.52525 30.0202C8.55556 29.9394 8.60606 29.8687 8.66667 29.798L9.18182 29.2828C8.66667 29.3131 8.19192 29.4141 7.74748 29.5556C7.68687 29.5253 7.63637 29.4848 7.57576 29.4545C8.11111 29.2828 8.69697 29.1616 9.33334 29.1313L9.88889 28.5758L10.0202 28.899C10.0505 28.9596 10.0303 29.0303 9.9798 29.0808L9.9394 29.1212C10.0808 29.1212 10.2222 29.1313 10.3636 29.1414C10.3434 28.9192 10.3434 28.697 10.3333 28.4747C9.22222 28.4949 8.26263 28.7273 7.47475 29.1818C7.44445 29.2323 7.42424 29.2828 7.39394 29.3434C7.29293 29.2828 7.19192 29.2323 7.10101 29.1616C7.16162 29.101 7.21212 29.0303 7.27273 28.9697C7.40404 28.8384 7.54546 28.7172 7.69697 28.6061C7.80808 28.4545 7.9293 28.3131 8.06061 28.1818C8.68687 27.5556 9.51515 27.1212 10.495 26.9091C10.7071 25.9293 11.1313 25.1111 11.7677 24.4747C11.899 24.3434 12.0404 24.2222 12.1919 24.1111C12.303 23.9596 12.4242 23.8182 12.5556 23.6869C12.6869 23.5556 12.8283 23.4343 12.9798 23.3131C13.0909 23.1616 13.2222 23.0202 13.3535 22.8889C13.4849 22.7576 13.6263 22.6364 13.7677 22.5252C13.8788 22.3737 14 22.2424 14.1313 22.1111C14.8081 21.4343 15.7071 20.9899 16.7879 20.798C16.9798 19.7172 17.4242 18.8182 18.101 18.1414C18.2323 18.0101 18.3737 17.8889 18.5152 17.7778C18.6263 17.6263 18.7475 17.4949 18.8788 17.3636C19.0101 17.2323 19.1515 17.1111 19.303 16.9899C19.4141 16.8384 19.5455 16.697 19.6768 16.5657C19.8081 16.4343 19.9495 16.3131 20.101 16.202C20.2121 16.0505 20.3333 15.9091 20.4646 15.7778C21.101 15.1414 21.9192 14.7172 22.899 14.505C23.1111 13.5253 23.5354 12.697 24.1717 12.0707C24.303 11.9394 24.4444 11.8182 24.596 11.7071C24.7071 11.5556 24.8283 11.4141 24.9596 11.2828C25.0909 11.1515 25.2323 11.0303 25.3838 10.9091C25.495 10.7576 25.6263 10.6162 25.7576 10.4848C25.8889 10.3535 26.0303 10.2323 26.1717 10.1212C26.2828 9.9697 26.404 9.83838 26.5354 9.70707C27.2121 9.0303 28.1111 8.58586 29.1919 8.39394C29.2424 8.09091 29.3232 7.79798 29.4242 7.52525C29.4545 7.57576 29.4848 7.63636 29.5253 7.68687C29.4545 7.90909 29.3939 8.13131 29.3535 8.36364C29.5253 8.33333 29.7071 8.31313 29.899 8.30303C29.9394 8.38384 29.9899 8.46465 30.0303 8.54545C30.0303 8.71717 30.0202 8.89899 30.0202 9.08081C30.1111 9.08081 30.202 9.09091 30.2929 9.10101C30.3131 9.15151 30.3434 9.20202 30.3636 9.25252C30.2525 9.25252 30.1313 9.23232 30.0202 9.23232C30.0202 9.40404 30.0404 9.57576 30.0505 9.75758V9.93939C30.2727 9.9596 30.4848 9.9596 30.697 9.9596C30.7172 10.0101 30.7273 10.0606 30.7475 10.1111C30.5253 10.1111 30.303 10.1111 30.0707 10.0808C30.0909 10.3131 30.101 10.5354 30.101 10.7475C30.3131 10.7475 30.5152 10.7374 30.7172 10.7172C30.7374 10.5253 30.7475 10.3232 30.7475 10.1111C30.798 10.2222 30.8283 10.3434 30.8788 10.4545C30.8788 10.5354 30.8788 10.6162 30.8687 10.697C30.899 10.697 30.9293 10.6869 30.9596 10.6869C30.9798 10.7374 30.9899 10.7778 31.0101 10.8283C30.9596 10.8283 30.899 10.8485 30.8485 10.8485C30.7576 11.6869 30.5152 12.4343 30.1515 13.0707C30.6162 12.6061 30.9697 12.0303 31.202 11.3636C31.2222 11.4444 31.2424 11.5253 31.2626 11.6061C31.0202 12.2121 30.697 12.7475 30.2626 13.1818C30.1313 13.3131 29.9899 13.4343 29.8384 13.5455C29.7273 13.697 29.6061 13.8384 29.4747 13.9697C29.3434 14.101 29.202 14.2222 29.0505 14.3434C28.9394 14.4949 28.8081 14.6364 28.6768 14.7677C28.5455 14.899 28.404 15.0202 28.2626 15.1313C28.1515 15.2828 28.0303 15.4141 27.899 15.5455C27.2222 16.2222 26.3232 16.6667 25.2424 16.8586C25.0505 17.9394 24.6061 18.8384 23.9293 19.5151C23.798 19.6465 23.6566 19.7677 23.5152 19.8788C23.404 20.0303 23.2828 20.1616 23.1515 20.2929C23.0202 20.4242 22.8788 20.5455 22.7273 20.6667C22.6162 20.8182 22.4848 20.9596 22.3535 21.0909C22.2222 21.2222 22.0808 21.3434 21.9293 21.4545C21.8182 21.6061 21.697 21.7475 21.5657 21.8788C20.9293 22.5151 20.1111 22.9394 19.1313 23.1515C18.9192 24.1313 18.495 24.9596 17.8586 25.5859C17.7273 25.7172 17.5859 25.8384 17.4343 25.9495C17.3232 26.101 17.202 26.2424 17.0707 26.3737C16.9394 26.505 16.798 26.6263 16.6465 26.7475C16.5354 26.899 16.404 27.0404 16.2727 27.1717C16.1414 27.303 16 27.4242 15.8586 27.5354C15.7475 27.6869 15.6263 27.8182 15.495 27.9495C14.8182 28.6263 13.9192 29.0707 12.8384 29.2626C12.6869 30.0707 12.404 30.7879 11.9798 31.3737C11.9293 31.3636 11.8788 31.3535 11.8283 31.3333L11.798 31.3232ZM7.37374 29.0909C7.37374 29.0909 7.37374 29.0909 7.36364 29.101L7.37374 29.0909ZM15.3636 27.8384C14.6768 28.2424 13.8485 28.4848 12.899 28.5657C12.8889 28.7475 12.8586 28.9293 12.8384 29.1111C13.8586 28.9192 14.7172 28.4949 15.3636 27.8485V27.8384ZM12.8687 26.8081H13.0202L12.8485 26.3939C12.8485 26.5252 12.8586 26.6667 12.8687 26.8081ZM15.899 27.1818C15.0707 27.596 14.0707 27.798 12.9293 27.7879C12.9293 28 12.9293 28.2121 12.9192 28.4141C14.0404 28.3232 14.9899 27.9899 15.7374 27.4141C15.798 27.3333 15.8485 27.2626 15.899 27.1818ZM16.2222 26.596C15.6162 26.8283 14.9192 26.9596 14.1616 26.9899L13.7576 27.3939C13.5859 27.5657 13.303 27.505 13.2121 27.2828L13.0808 26.9596C13.0808 26.9596 13.0505 26.9596 13.0404 26.9596H12.8788L12.8889 27.1111C12.9091 27.2929 12.9192 27.4646 12.9192 27.6364C14.1414 27.6566 15.202 27.4141 16.0404 26.9293C16.101 26.8182 16.1616 26.7071 16.2121 26.5859L16.2222 26.596ZM16.6768 26.3939C16.5859 26.4343 16.5051 26.4747 16.4141 26.5151C16.3737 26.6061 16.3333 26.697 16.2929 26.7879C16.3737 26.7374 16.4444 26.6869 16.5152 26.6263C16.5758 26.5556 16.6263 26.4747 16.6768 26.3939ZM16.9495 26.2525C16.9495 26.2525 16.9495 26.2525 16.9596 26.2424L16.9495 26.2525ZM18.2828 23.2525C18.0909 23.2727 17.8889 23.2828 17.6768 23.2828C17.6667 24.3131 17.4545 25.2323 17.0707 26C17.1515 25.9495 17.2323 25.8889 17.303 25.8384C17.8283 25.1515 18.1515 24.2727 18.2727 23.2626L18.2828 23.2525ZM18.3333 22.3535C18.3333 22.1313 18.3333 21.899 18.303 21.6667H18.1313C17.9495 21.6465 17.7778 21.6364 17.596 21.6364C17.596 21.8081 17.6162 21.9798 17.6263 22.1616V22.3333C17.8687 22.3535 18.101 22.3636 18.3232 22.3636L18.3333 22.3535ZM17.6566 22.4747C17.6768 22.7071 17.6869 22.9293 17.6869 23.1414C17.899 23.1414 18.101 23.1313 18.303 23.1111C18.3232 22.9091 18.3333 22.7071 18.3333 22.505C18.1111 22.505 17.8889 22.505 17.6566 22.4747ZM18.2929 21.5252V21.3737C18.2626 21.1919 18.2626 21.0202 18.2525 20.8485C18.0303 20.8485 17.8182 20.8485 17.6162 20.8586C17.6061 21.0606 17.596 21.2727 17.6061 21.4848C17.7879 21.4848 17.9596 21.505 18.1515 21.5151H18.303L18.2929 21.5252ZM18.9495 23.1616C18.7778 23.1919 18.6061 23.2222 18.4242 23.2424C18.3333 24.0909 18.0909 24.8384 17.7273 25.4747C18.3232 24.8788 18.7374 24.101 18.9495 23.1717V23.1616ZM19.0707 22.4646C18.8788 22.4848 18.6768 22.4949 18.4748 22.4949C18.4748 22.697 18.4646 22.899 18.4444 23.0909C18.6263 23.0707 18.8081 23.0404 18.9899 23.0101C19.0202 22.8384 19.0505 22.6566 19.0707 22.4646ZM19.1212 21.7071C18.899 21.7071 18.6768 21.7071 18.4545 21.6768C18.4747 21.9091 18.4848 22.1313 18.4848 22.3535C18.697 22.3535 18.899 22.3434 19.0909 22.3232C19.1111 22.1212 19.1212 21.9192 19.1212 21.7071ZM19.1212 21.5556C19.1212 21.3333 19.1212 21.1111 19.0909 20.8788H18.9091C18.7374 20.8586 18.5657 20.8485 18.3939 20.8485C18.3939 21.0202 18.4141 21.1818 18.4242 21.3636V21.5354C18.6667 21.5556 18.899 21.5657 19.1212 21.5657V21.5556ZM21.4444 21.7576C20.8081 22.1313 20.0606 22.3636 19.2121 22.4545C19.1919 22.6364 19.1616 22.8081 19.1313 22.9798C20.0606 22.7677 20.8384 22.3636 21.4343 21.7576H21.4444ZM19.2121 20.5758V20.7475C19.2828 20.7475 19.3434 20.7475 19.3939 20.7576L19.1818 20.2424C19.1818 20.3535 19.1919 20.4646 19.202 20.5758H19.2121ZM21.9798 21.101C21.2121 21.4848 20.303 21.6869 19.2626 21.7071C19.2626 21.9091 19.2525 22.1111 19.2323 22.3131C20.2525 22.1919 21.1212 21.8687 21.8081 21.3434C21.8687 21.2626 21.9192 21.1919 21.9697 21.1111L21.9798 21.101ZM22.2424 20.9596C22.2424 20.9596 22.2424 20.9596 22.2525 20.9495L22.2424 20.9596ZM22.303 20.5151C21.697 20.7475 21 20.8788 20.2424 20.9091L20.0505 21.101C19.8788 21.2727 19.596 21.2121 19.5051 20.9899L19.4646 20.899C19.3939 20.899 19.3131 20.899 19.2424 20.8889C19.2626 21.1111 19.2727 21.3333 19.2727 21.5556C20.3838 21.5354 21.3535 21.303 22.1313 20.8485C22.1919 20.7374 22.2525 20.6263 22.303 20.5151ZM22.7677 20.3131C22.6768 20.3535 22.596 20.3939 22.495 20.4343C22.4545 20.5253 22.4141 20.6162 22.3737 20.697C22.4545 20.6465 22.5253 20.5859 22.6061 20.5354C22.6667 20.4646 22.7172 20.3838 22.7677 20.3131ZM23.6162 16.9495C23.4444 16.9495 23.2626 16.9293 23.0909 16.9192H22.9293L22.9394 17.0707C23.0404 18.2828 22.9192 19.3535 22.5758 20.2525C22.697 20.202 22.8081 20.1414 22.9192 20.0808C23.404 19.2323 23.6465 18.1818 23.6263 16.9596L23.6162 16.9495ZM24.3939 16.9394C24.1919 16.9495 23.9798 16.9596 23.7677 16.9495C23.7879 18.0909 23.5758 19.0909 23.1616 19.9192C23.2424 19.8687 23.3232 19.8081 23.3939 19.7576C23.9596 19.0101 24.2929 18.0606 24.3939 16.9394ZM23.6768 15.2929C23.6768 15.5152 23.6768 15.7475 23.7071 15.9798H23.8788C24.0606 16 24.2323 16.0101 24.4141 16.0101C24.4141 15.8384 24.3939 15.6667 24.3838 15.4848V15.3131C24.1414 15.2929 23.9091 15.2828 23.6869 15.2828L23.6768 15.2929ZM24.3636 15.1818C24.3434 14.9495 24.3333 14.7273 24.3333 14.5152C24.1212 14.5152 23.9192 14.5253 23.7172 14.5455C23.697 14.7475 23.6869 14.9495 23.6869 15.1515C23.9091 15.1515 24.1313 15.1515 24.3636 15.1818ZM23.8687 16.1313H23.7172V16.2727C23.7374 16.4545 23.7475 16.6263 23.7475 16.798C23.9697 16.798 24.1818 16.798 24.3838 16.7879C24.3939 16.5859 24.404 16.3737 24.3939 16.1616C24.2121 16.1616 24.0404 16.1414 23.8485 16.1313H23.8687ZM25.0808 16.8586C24.9091 16.8889 24.7273 16.9091 24.5354 16.9192C24.4646 17.8586 24.2121 18.6869 23.8081 19.3838C24.4545 18.7374 24.8788 17.8788 25.0707 16.8586H25.0808ZM24.5051 15.1919H24.6768C24.8485 15.2121 25.0202 15.2222 25.1919 15.2222C25.1919 15.0505 25.1717 14.8889 25.1616 14.7071V14.5354C24.9192 14.5152 24.697 14.505 24.4747 14.505C24.4747 14.7273 24.4747 14.9495 24.5051 15.1818V15.1919ZM25.1717 16.1515C24.9697 16.1616 24.7677 16.1717 24.5556 16.1616C24.5556 16.3737 24.5556 16.5758 24.5455 16.7778C24.7374 16.7576 24.9192 16.7374 25.101 16.7071C25.1313 16.5253 25.1515 16.3434 25.1717 16.1515ZM25.202 15.3636C25.0303 15.3636 24.8485 15.3434 24.6768 15.3333H24.5253V15.4747C24.5455 15.6566 24.5556 15.8384 24.5556 16.0101C24.7677 16.0101 24.9798 16.0101 25.1818 16C25.1919 15.7879 25.202 15.5758 25.1919 15.3636H25.202ZM27.7778 15.4242C27.0909 15.8283 26.2626 16.0707 25.3131 16.1515C25.303 16.3333 25.2727 16.5152 25.2525 16.697C26.2727 16.505 27.1313 16.0808 27.7778 15.4343V15.4242ZM25.2929 14.3939H25.4646L25.2626 13.9091C25.2626 14.0707 25.2727 14.2323 25.2828 14.3939H25.2929ZM28.3131 14.7677C27.4849 15.1818 26.4848 15.3838 25.3434 15.3737C25.3434 15.5859 25.3434 15.798 25.3333 16C26.4545 15.9091 27.404 15.5758 28.1515 15C28.2121 14.9192 28.2626 14.8485 28.3131 14.7677ZM28.6364 14.1818C28.0303 14.4141 27.3333 14.5455 26.5758 14.5758L26.1919 14.9596C26.0202 15.1313 25.7374 15.0707 25.6465 14.8485L25.5253 14.5455C25.5253 14.5455 25.4848 14.5455 25.4646 14.5455H25.303L25.3131 14.697C25.3333 14.8788 25.3434 15.0505 25.3434 15.2222C26.5657 15.2424 27.6263 15 28.4646 14.5152C28.5253 14.404 28.5859 14.2929 28.6364 14.1717V14.1818ZM29.101 13.9798C29.0101 14.0202 28.9293 14.0606 28.8384 14.101C28.798 14.1919 28.7576 14.2828 28.7172 14.3737C28.798 14.3232 28.8687 14.2727 28.9394 14.2121C29 14.1414 29.0505 14.0606 29.101 13.9798ZM29.3636 13.8384C29.3636 13.8384 29.3636 13.8384 29.3737 13.8283L29.3636 13.8384ZM29.495 13.5859C29.5758 13.5354 29.6566 13.4747 29.7273 13.4242C30.2525 12.7374 30.5758 11.8687 30.697 10.8586C30.5051 10.8788 30.303 10.8889 30.0909 10.8889C30.0707 11.9192 29.8687 12.8283 29.4849 13.596L29.495 13.5859ZM29.9293 10.0505H29.7576C29.5859 10.0202 29.4141 10.0101 29.2424 10.0101C29.2424 10.1818 29.2626 10.3434 29.2727 10.5253V10.7071C29.5152 10.7273 29.7374 10.7374 29.9596 10.7374C29.9596 10.5152 29.9596 10.2929 29.9293 10.0606V10.0505ZM29.2525 9.08081C29.4545 9.07071 29.6566 9.06061 29.8687 9.07071C29.8687 8.85858 29.8687 8.65657 29.8788 8.45454C29.6869 8.47475 29.5051 8.49495 29.3232 8.52525C29.2929 8.70707 29.2727 8.88889 29.2525 9.08081ZM29.2323 9.86869C29.404 9.86869 29.5859 9.88889 29.7576 9.89899H29.9091L29.899 9.75758C29.8788 9.57576 29.8687 9.39394 29.8687 9.22222C29.6566 9.22222 29.4444 9.22222 29.2424 9.23232C29.2323 9.44444 29.2222 9.65657 29.2323 9.86869ZM28.9091 13.9091C29.0202 13.8586 29.1414 13.798 29.2424 13.7374C29.6869 12.9495 29.9293 11.9899 29.9495 10.8788C29.7374 10.8788 29.5152 10.8788 29.2828 10.8485C29.3636 12 29.2424 13.0303 28.9091 13.899V13.9091ZM26.6465 9.81818C27.3333 9.41414 28.1616 9.17172 29.1111 9.09091C29.1212 8.90909 29.1515 8.72727 29.1717 8.54545C28.1515 8.73737 27.2929 9.16162 26.6465 9.80808V9.81818ZM28.5455 10.5253L28.4141 10.6566C28.596 10.6566 28.7778 10.6667 28.9596 10.6869H29.1212L29.1111 10.5354C29.0909 10.3535 29.0808 10.1818 29.0808 10.0101C28.8687 10.0101 28.6566 10.0101 28.4444 10.0202L28.5758 10.3434C28.596 10.404 28.5859 10.4747 28.5354 10.5253H28.5455ZM26.1212 10.4646C26.9495 10.0505 27.9495 9.84848 29.0909 9.85859C29.0909 9.64646 29.0909 9.43434 29.101 9.23232C27.9798 9.32323 27.0303 9.65657 26.2828 10.2323C26.2222 10.3131 26.1717 10.3838 26.1212 10.4646ZM25.7879 11.0505C26.3939 10.8182 27.0707 10.6869 27.8081 10.6566L28.4444 10.0202C27.495 10.0808 26.6566 10.3131 25.9596 10.7071C25.899 10.8182 25.8384 10.9293 25.7879 11.0505ZM25.7071 11.2424C25.4646 11.8283 25.3232 12.4949 25.2727 13.2323C25.303 13.1818 25.3333 13.1414 25.3737 13.101L26.5051 11.9697L26.6364 12.2929C26.6566 12.3535 26.6465 12.4242 26.596 12.4747L25.4343 13.6364L25.6566 13.5556L26.0101 14.4343C26.0101 14.4343 26.0707 14.4343 26.101 14.4343L27.0909 13.4444L27.2222 13.7778C27.2424 13.8384 27.2323 13.9091 27.1818 13.9596L26.7172 14.4242C27.4545 14.3838 28.1212 14.2323 28.7071 13.9899C29.0707 13.1111 29.2121 12.0505 29.1212 10.8384H28.9394C28.7071 10.8081 28.4848 10.798 28.2626 10.7879L27.2727 11.7778L27.495 11.697L27.5758 11.8889L28.3737 11.0909C28.5455 10.9192 28.8384 10.9798 28.9192 11.202L29.0404 11.5051C29.1414 11.7576 29.0808 12.0404 28.8889 12.2323L27.6667 13.4545L27.5354 13.1212C27.5152 13.0606 27.5253 12.9899 27.5758 12.9394L28.6566 11.8586L28.5354 11.5556L27.8182 12.2727L27.7273 12.3636C27.5556 12.5354 27.2727 12.4747 27.1818 12.2525L27.1313 12.1313L27.0606 11.9596C26.9596 11.7071 27.0202 11.4242 27.2121 11.2323L27.6364 10.8081C26.9192 10.8586 26.2626 11 25.6768 11.2424H25.7071ZM25.3333 11.2525C25.4242 11.2121 25.5051 11.1717 25.596 11.1313C25.6364 11.0404 25.6768 10.9495 25.7172 10.8586C25.6364 10.9091 25.5657 10.9596 25.495 11.0202C25.4343 11.0909 25.3838 11.1717 25.3333 11.2525ZM25.0606 11.3939C25.0606 11.3939 25.0606 11.3939 25.0505 11.404L25.0606 11.3939ZM24.4747 14.3636C24.6869 14.3636 24.9091 14.3636 25.1414 14.3939C25.0505 13.2323 25.1818 12.202 25.5152 11.3333C25.404 11.3838 25.2828 11.4444 25.1818 11.5051C24.7374 12.2929 24.495 13.2525 24.4747 14.3636ZM23.7273 14.3939C23.9192 14.3737 24.1212 14.3636 24.3333 14.3636C24.3434 13.3333 24.5556 12.4141 24.9394 11.6465C24.8586 11.697 24.7778 11.7576 24.7071 11.8081C24.1818 12.4949 23.8586 13.3737 23.7374 14.3838L23.7273 14.3939ZM23.0606 14.4848C23.2323 14.4545 23.404 14.4242 23.5859 14.404C23.6768 13.5556 23.9192 12.8081 24.2828 12.1717C23.6869 12.7677 23.2727 13.5455 23.0606 14.4747V14.4848ZM22.9394 15.1818C23.1313 15.1616 23.3333 15.1515 23.5354 15.1515C23.5354 14.9495 23.5455 14.7475 23.5657 14.5556C23.3838 14.5758 23.202 14.6061 23.0202 14.6364C22.9899 14.8081 22.9596 14.9899 22.9394 15.1818ZM22.8889 15.9495C23.1111 15.9495 23.3333 15.9495 23.5556 15.9798C23.5354 15.7475 23.5253 15.5253 23.5253 15.303C23.3131 15.303 23.1111 15.3131 22.9192 15.3333C22.899 15.5354 22.8889 15.7374 22.8889 15.9495ZM22.8889 16.0909C22.8889 16.3131 22.8889 16.5354 22.9192 16.7677H23.101C23.2727 16.7879 23.4444 16.798 23.6162 16.798C23.6162 16.6263 23.6061 16.4646 23.5859 16.2828V16.1111C23.3434 16.0909 23.1111 16.0808 22.8889 16.0808V16.0909ZM20.5657 15.899C21.202 15.5253 21.9495 15.2929 22.798 15.202C22.8182 15.0202 22.8485 14.8485 22.8788 14.6768C21.9495 14.8889 21.1717 15.2929 20.5758 15.899H20.5657ZM22.798 17.0808V16.9091C22.5859 16.899 22.3939 16.8889 22.202 16.8788L21.1414 17.9394L21.3636 17.8586L21.4444 18.0505L22.2424 17.2525C22.4141 17.0808 22.697 17.1414 22.7879 17.3636L22.8182 17.4343C22.8182 17.3131 22.8081 17.202 22.798 17.0808ZM20.0303 16.5556C20.798 16.1717 21.7071 15.9697 22.7475 15.9495C22.7475 15.7475 22.7576 15.5455 22.7778 15.3434C21.7576 15.4646 20.8889 15.7879 20.202 16.3131C20.1414 16.3939 20.0909 16.4646 20.0404 16.5455L20.0303 16.5556ZM19.7677 16.697C19.7677 16.697 19.7677 16.697 19.7576 16.7071L19.7677 16.697ZM19.7071 17.1313C20.3131 16.899 20.9899 16.7677 21.7273 16.7374L22.303 16.1616L22.4343 16.4848C22.4545 16.5455 22.4444 16.6162 22.3939 16.6667L22.3333 16.7273C22.4747 16.7273 22.6162 16.7374 22.7677 16.7475C22.7475 16.5253 22.7374 16.303 22.7374 16.0808C21.6263 16.101 20.6566 16.3333 19.8788 16.7879C19.8182 16.899 19.7576 17.0101 19.7071 17.1212V17.1313ZM19.6263 17.3232C19.3838 17.899 19.2424 18.5556 19.1919 19.2828C19.202 19.2727 19.2121 19.2525 19.2222 19.2424L20.3535 18.1111L20.4849 18.4343C20.5051 18.4949 20.495 18.5657 20.4444 18.6162L19.2828 19.7778L19.5051 19.697L19.8889 20.6364L20.9394 19.5859L21.0707 19.9192C21.0909 19.9798 21.0808 20.0505 21.0303 20.101L20.3737 20.7576C21.1111 20.7172 21.7778 20.5657 22.3636 20.3232C22.6061 19.7374 22.7576 19.0606 22.798 18.3232C22.7778 18.3434 22.7677 18.3636 22.7475 18.3838L21.5253 19.6061L21.3939 19.2727C21.3737 19.2121 21.3838 19.1414 21.4343 19.0909L22.5152 18.0101L22.3939 17.7071L21.6768 18.4242L21.5859 18.5151C21.4141 18.6869 21.1313 18.6263 21.0404 18.404L20.9899 18.2828L20.9192 18.1111C20.8182 17.8586 20.8788 17.5758 21.0707 17.3838L21.5657 16.8889C20.8485 16.9394 20.1919 17.0808 19.6162 17.3131L19.6263 17.3232ZM19.2525 17.3333C19.3434 17.2929 19.4242 17.2525 19.5152 17.2121C19.5556 17.1212 19.596 17.0303 19.6364 16.9495C19.5556 17 19.4848 17.0606 19.404 17.1111C19.3434 17.1818 19.2929 17.2626 19.2424 17.3333H19.2525ZM18.3939 20.7071C18.5657 20.7071 18.7475 20.7273 18.9192 20.7374H19.0808L19.0707 20.5859C19.0505 20.2929 19.0303 20.0101 19.0404 19.7273C19.0404 19.7071 19.0404 19.6869 19.0404 19.6667C19.0505 18.8283 19.1818 18.0707 19.4444 17.404C19.3232 17.4545 19.2121 17.5151 19.101 17.5758C18.6162 18.4242 18.3737 19.4747 18.3939 20.697V20.7071ZM17.6263 20.7172C17.8283 20.7071 18.0404 20.697 18.2525 20.7071C18.2323 19.5657 18.4444 18.5657 18.8586 17.7374C18.7778 17.7879 18.697 17.8485 18.6263 17.899C18.0606 18.6465 17.7273 19.596 17.6263 20.7172ZM16.9293 20.7879C17.101 20.7576 17.2828 20.7374 17.4747 20.7273C17.5455 19.7879 17.798 18.9596 18.202 18.2626C17.5556 18.9091 17.1313 19.7677 16.9394 20.7879H16.9293ZM17.5051 22.4646H17.3333C17.1616 22.4444 16.9899 22.4343 16.8182 22.4343C16.8182 22.6061 16.8384 22.7677 16.8485 22.9495V23.1212C17.0909 23.1414 17.3131 23.1515 17.5354 23.1515C17.5354 22.9293 17.5354 22.7071 17.5051 22.4747V22.4646ZM16.8384 21.4949C17.0404 21.4848 17.2424 21.4747 17.4545 21.4848C17.4545 21.2727 17.4545 21.0707 17.4646 20.8687C17.2727 20.8889 17.0909 20.9091 16.9091 20.9394C16.8788 21.1212 16.8586 21.303 16.8384 21.4949ZM16.8182 22.2828C16.9899 22.2828 17.1717 22.303 17.3434 22.3131H17.495V22.1717C17.4747 21.9899 17.4646 21.8081 17.4646 21.6364C17.2525 21.6364 17.0404 21.6364 16.8384 21.6465C16.8283 21.8586 16.8182 22.0707 16.8283 22.2828H16.8182ZM16.495 26.3232C16.6061 26.2727 16.7273 26.2121 16.8283 26.1515C17.2727 25.3636 17.5152 24.404 17.5354 23.2929C17.3232 23.2929 17.101 23.2929 16.8687 23.2626C16.9596 24.4242 16.8283 25.4545 16.495 26.3232ZM14.2323 22.2323C14.9192 21.8283 15.7475 21.5859 16.697 21.505C16.7071 21.3232 16.7374 21.1414 16.7576 20.9596C15.7374 21.1515 14.8788 21.5758 14.2323 22.2222V22.2323ZM13.697 22.8889C14.5253 22.4747 15.5253 22.2727 16.6667 22.2828C16.6667 22.0707 16.6667 21.8586 16.6768 21.6566C15.5556 21.7475 14.6061 22.0808 13.8586 22.6566C13.798 22.7374 13.7475 22.8081 13.697 22.8889ZM13.3737 23.4747C13.9798 23.2424 14.6566 23.1111 15.3939 23.0808L16.0202 22.4545L16.1515 22.7778C16.1717 22.8384 16.1616 22.9091 16.1111 22.9596L16 23.0707C16.1818 23.0707 16.3636 23.0808 16.5455 23.101H16.7071L16.697 22.9495C16.6768 22.7677 16.6667 22.596 16.6667 22.4242C15.4444 22.404 14.3838 22.6465 13.5455 23.1313C13.4849 23.2424 13.4242 23.3535 13.3737 23.4747ZM13.2828 23.6566C13.0404 24.2424 12.899 24.899 12.8485 25.6364C12.8687 25.596 12.899 25.5657 12.9293 25.5354L14.0606 24.404L14.1919 24.7273C14.2121 24.7879 14.202 24.8586 14.1515 24.9091L12.9899 26.0707L13.2121 25.9899L13.5556 26.8485C13.5556 26.8485 13.6364 26.8485 13.6768 26.8485L14.6465 25.8788L14.7778 26.2121C14.798 26.2727 14.7879 26.3434 14.7374 26.3939L14.2929 26.8384C15.0303 26.798 15.697 26.6465 16.2828 26.404C16.6465 25.5252 16.798 24.4545 16.697 23.2424H16.5152C16.2828 23.2222 16.0505 23.2121 15.8283 23.202L14.8182 24.2121L15.0404 24.1313L15.1212 24.3232L15.9192 23.5253C16.0909 23.3535 16.3838 23.4141 16.4646 23.6364L16.5859 23.9394C16.6869 24.1919 16.6263 24.4747 16.4343 24.6667L15.2121 25.8889L15.0808 25.5556C15.0606 25.4949 15.0707 25.4242 15.1212 25.3737L16.202 24.2929L16.0808 23.9899L15.3636 24.7071L15.2727 24.798C15.101 24.9697 14.8182 24.9091 14.7273 24.6869L14.6768 24.5657L14.6061 24.3939C14.5051 24.1414 14.5657 23.8586 14.7576 23.6667L15.202 23.2222C14.4747 23.2727 13.8283 23.4141 13.2424 23.6566H13.2828ZM12.9091 23.6768C13 23.6364 13.0808 23.596 13.1717 23.5556C13.2121 23.4646 13.2525 23.3737 13.2929 23.2828C13.2121 23.3333 13.1414 23.3838 13.0707 23.4444C13.0101 23.5151 12.9596 23.596 12.9091 23.6768ZM12.6465 23.8182C12.6465 23.8182 12.6465 23.8182 12.6364 23.8283L12.6465 23.8182ZM12.0606 26.7677C12.2727 26.7677 12.495 26.7677 12.7273 26.7879C12.6465 25.6364 12.7677 24.6061 13.101 23.7374C12.9899 23.7879 12.8687 23.8485 12.7677 23.9091C12.3232 24.697 12.0808 25.6566 12.0606 26.7677ZM11.3131 26.8081C11.5051 26.7879 11.7071 26.7778 11.9192 26.7778C11.9394 25.7475 12.1414 24.8384 12.5253 24.0707C12.4444 24.1212 12.3636 24.1818 12.2929 24.2323C11.7677 24.9192 11.4444 25.7879 11.3232 26.798L11.3131 26.8081ZM11.9091 26.9192C11.697 26.9192 11.495 26.9293 11.2929 26.9495C11.2727 27.1515 11.2626 27.3535 11.2626 27.5556C11.4849 27.5556 11.7071 27.5556 11.9394 27.5859C11.9192 27.3535 11.9091 27.1313 11.9091 26.9192ZM10.5253 27.596C10.7172 27.5758 10.9192 27.5657 11.1212 27.5657C11.1212 27.3636 11.1313 27.1616 11.1515 26.9697C10.9697 26.9899 10.7879 27.0202 10.6162 27.0505C10.5758 27.2222 10.5556 27.404 10.5354 27.596H10.5253ZM10.4747 28.3535C10.697 28.3535 10.9192 28.3535 11.1414 28.3838C11.1212 28.1515 11.1111 27.9293 11.1111 27.7071C10.899 27.7071 10.697 27.7172 10.5051 27.7374C10.4849 27.9394 10.4747 28.1414 10.4747 28.3535ZM10.3636 27.7576C9.35354 27.8788 8.48485 28.202 7.79798 28.7273C7.73738 28.8081 7.68687 28.8788 7.63637 28.9596C8.39394 28.5758 9.31313 28.3737 10.3434 28.3535C10.3434 28.1515 10.3535 27.9495 10.3737 27.7475L10.3636 27.7576ZM10.4545 27.0909C9.53536 27.303 8.75758 27.7071 8.16162 28.3131C8.79798 27.9394 9.53536 27.7071 10.3838 27.6162C10.404 27.4343 10.4343 27.2626 10.4646 27.0909H10.4545ZM11.1919 29.2222C11.1919 29.0505 11.1818 28.8889 11.1616 28.7071V28.5252C10.9192 28.505 10.6869 28.4949 10.4646 28.4949C10.4646 28.7172 10.4646 28.9394 10.495 29.1717H10.6768C10.8485 29.202 11.0202 29.2121 11.1919 29.2121V29.2222ZM11.8687 24.596C11.2727 25.1919 10.8586 25.9697 10.6465 26.8889C10.8182 26.8586 10.9899 26.8283 11.1717 26.8081C11.2626 25.9697 11.5051 25.2222 11.8687 24.5859V24.596ZM11.2929 28.3939H11.4646C11.6465 28.4242 11.8182 28.4343 11.9899 28.4343C11.9899 28.2626 11.9697 28.0909 11.9596 27.9091V27.7273C11.7172 27.7071 11.4849 27.697 11.2626 27.697C11.2626 27.9192 11.2626 28.1515 11.2929 28.3838V28.3939ZM12 28.5859C11.8182 28.5859 11.6465 28.5657 11.4545 28.5556H11.303L11.3131 28.697C11.3333 28.8788 11.3434 29.0505 11.3434 29.2222C11.5657 29.2222 11.7778 29.2222 11.9798 29.2121C11.9899 29.0101 12 28.798 11.9899 28.5859H12ZM12.0909 27.596H12.2626C12.4343 27.6263 12.6061 27.6364 12.7778 27.6364C12.7778 27.4646 12.7576 27.303 12.7475 27.1212V26.9394C12.5051 26.9192 12.2828 26.9091 12.0606 26.9091C12.0606 27.1313 12.0606 27.3535 12.0909 27.5859V27.596ZM12.1414 28.4444C12.3535 28.4444 12.5657 28.4444 12.7677 28.4343C12.7778 28.2222 12.7879 28.0101 12.7778 27.798C12.6061 27.798 12.4242 27.7778 12.2525 27.7677H12.101L12.1111 27.9091C12.1313 28.0909 12.1414 28.2727 12.1414 28.4444ZM12.6869 29.1313C12.7172 28.9495 12.7374 28.7677 12.7576 28.5758C12.5556 28.5859 12.3535 28.596 12.1414 28.5859C12.1414 28.798 12.1414 29 12.1313 29.202C12.3232 29.1818 12.5051 29.1616 12.6869 29.1313ZM17.3636 0.707071C17.5253 0.868687 17.798 0.848485 17.9697 0.676768L18.3333 0.313131C18.1717 0.292929 18.0202 0.262626 17.8586 0.242424L17.697 0.40404L17.4848 0.191919C17.2626 0.171717 17.0404 0.171717 16.8081 0.161616L17.3535 0.707071H17.3636ZM15.9899 0.121212C16.0404 0.141414 16.0909 0.171717 16.1313 0.212121L17 1.08081C17.1616 1.24242 17.1414 1.51515 16.9697 1.68687L16.1717 2.48485C16 2.65657 15.7172 2.67677 15.5657 2.51515L14.697 1.64646C14.5354 1.48485 14.5556 1.21212 14.7273 1.0404L15.5253 0.242424C15.5253 0.242424 15.6263 0.161616 15.6768 0.141414C15.7778 0.141414 15.8889 0.121212 15.9899 0.121212ZM16.697 1.40404L15.798 0.50505L15 1.30303L15.899 2.20202L16.697 1.40404ZM11.3333 7.31313L11.6566 6.9899L10.5051 5.83838C10.3434 5.67677 10.0707 5.69697 9.89899 5.86869L8.77778 6.9899L10.2222 8.43434L10.5455 8.11111L9.37374 6.93939L10.1717 6.14141L11.3434 7.31313H11.3333ZM5.73738 28.1313C5.90909 27.9596 5.9293 27.6768 5.76768 27.5253L5.19192 26.9495L4.82829 27.3131C4.91919 27.404 5.0202 27.4848 5.11111 27.5758L5.14142 27.5455L5.46465 27.8687H5.45455C5.54546 27.9697 5.64647 28.0606 5.73738 28.1414V28.1313ZM0.606063 12.1212C0.757578 11.798 0.878791 11.4545 0.959599 11.0808C0.939397 11.0808 0.909094 11.0808 0.888892 11.0909C0.909094 11.0404 0.929296 10.9899 0.949498 10.9293C0.959599 10.9293 0.979801 10.9293 0.989902 10.9293C1 10.8687 1.0101 10.798 1.0202 10.7273C1.09091 10.5253 1.16162 10.3232 1.24243 10.1212C1.24243 10.1515 1.24243 10.1919 1.24243 10.2222C2.26263 10.101 3.13132 9.77778 3.81818 9.25252C3.87879 9.17172 3.9293 9.10101 3.9798 9.0202C3.26263 9.38384 2.41414 9.57576 1.45455 9.61616C1.47475 9.56566 1.50505 9.51515 1.52526 9.46465C2.52526 9.41414 3.40404 9.19192 4.13132 8.77778C4.19192 8.66667 4.25253 8.55555 4.30303 8.44444C3.69697 8.67677 3 8.80808 2.24243 8.83838L2.05051 9.0303C1.9495 9.13131 1.81818 9.14141 1.69697 9.10101C1.79798 8.88889 1.88889 8.66667 2.0101 8.46465L2.9596 7.51515L3.09091 7.84848C3.11111 7.90909 3.10101 7.9798 3.05051 8.0303L2.39394 8.68687C3.13132 8.64646 3.79798 8.49495 4.38384 8.25252C4.62627 7.66667 4.77778 6.9899 4.81818 6.25253C4.79798 6.27273 4.78788 6.29293 4.76768 6.31313L3.54546 7.53535L3.41414 7.20202C3.39394 7.14141 3.40404 7.07071 3.45455 7.0202L4.53536 5.93939L4.41414 5.63636L3.69697 6.35354L3.60606 6.44444C3.51515 6.53535 3.38384 6.55556 3.27273 6.52525C3.64647 6.0303 4.04041 5.55556 4.47475 5.10101C4.60606 5.10101 4.73738 5.16162 4.79798 5.30303L4.82829 5.37374C4.82829 5.25253 4.81818 5.14141 4.80808 5.0202V4.84848C4.80808 4.84848 4.74748 4.84848 4.72727 4.84848C4.79798 4.77778 4.86869 4.71717 4.9293 4.65657C4.9293 4.67677 4.9293 4.69697 4.9293 4.71717H5.11111C5.28283 4.73737 5.45455 4.74747 5.62627 4.74747C5.62627 4.57576 5.60606 4.41414 5.59596 4.23232V4.06061H5.57576C5.62626 4.0202 5.67677 3.9697 5.72728 3.91919H5.89899C6.08081 3.93939 6.25253 3.94949 6.43435 3.94949C6.43435 3.77778 6.41414 3.60606 6.40404 3.42424V3.39394C6.40404 3.39394 6.49495 3.32323 6.53536 3.29293V3.41414C6.55556 3.59596 6.56566 3.77778 6.57576 3.94949C6.78788 3.94949 7 3.94949 7.20202 3.93939C7.21212 3.72727 7.22222 3.51515 7.21212 3.30303C7.04041 3.30303 6.85859 3.28283 6.68687 3.27273H6.56566C6.62626 3.22222 6.68687 3.17172 6.74748 3.13131C6.89899 3.14141 7.06061 3.15152 7.21212 3.16162C7.21212 3.05051 7.20202 2.92929 7.19192 2.81818C7.23233 2.78788 7.28283 2.76768 7.33334 2.73737C7.34344 2.88889 7.35354 3.0303 7.36364 3.17172C8.58586 3.19192 9.64647 2.94949 10.4849 2.46465C10.5455 2.35354 10.6061 2.24242 10.6566 2.12121C10.0505 2.35354 9.35354 2.48485 8.59596 2.51515L8.21212 2.89899C8.04041 3.07071 7.75758 3.0101 7.66667 2.78788L7.58586 2.57576C7.72728 2.48485 7.87879 2.39394 8.0202 2.31313L8.04041 2.37374C8.04041 2.37374 8.10101 2.37374 8.13132 2.37374L8.45455 2.0505C8.70707 1.90909 8.9697 1.79798 9.23233 1.67677L9.25253 1.71717C9.27273 1.77778 9.26263 1.84848 9.21212 1.89899L8.74748 2.36364C9.48485 2.32323 10.1515 2.17172 10.7374 1.92929C10.8586 1.62626 10.9495 1.29293 11.0202 0.949495C11.0707 0.929293 11.1313 0.909091 11.1818 0.888889C11.1212 1.22222 11.0404 1.54545 10.9293 1.83838C11.0404 1.78788 11.1616 1.72727 11.2626 1.66667C11.4242 1.39394 11.5354 1.08081 11.6465 0.757576C11.7071 0.737374 11.7576 0.727273 11.8182 0.717172C11.7374 1 11.6364 1.27273 11.5152 1.52525C11.596 1.47475 11.6768 1.41414 11.7475 1.36364C11.9192 1.14141 12.0606 0.888889 12.1818 0.636363C12.2424 0.626262 12.2929 0.60606 12.3535 0.595959C12.2929 0.727273 12.2424 0.878788 12.1717 1.0101C12.3131 0.868687 12.4444 0.717172 12.5657 0.545454C12.6364 0.525252 12.7071 0.50505 12.7677 0.494949C12.6162 0.717172 12.4545 0.929293 12.2626 1.11111C12.1313 1.24242 11.9899 1.36364 11.8384 1.47475C11.7273 1.62626 11.6061 1.76768 11.4747 1.89899C11.3434 2.0303 11.202 2.15152 11.0505 2.27273C10.9394 2.42424 10.8081 2.56566 10.6768 2.69697C10.5455 2.82828 10.404 2.94949 10.2626 3.06061C10.1515 3.21212 10.0303 3.34343 9.89899 3.47475C9.22222 4.15152 8.32323 4.59596 7.24243 4.78788C7.05051 5.86869 6.60606 6.76768 5.9293 7.44444C5.79798 7.57576 5.65657 7.69697 5.51515 7.80808C5.40404 7.9596 5.28283 8.09091 5.15152 8.22222C5.0202 8.35354 4.87879 8.47475 4.72727 8.59596C4.61616 8.74747 4.48485 8.88889 4.35354 9.0202C4.22222 9.15152 4.08081 9.27273 3.9293 9.38384C3.81818 9.53535 3.69697 9.67677 3.56566 9.80808C2.9293 10.4444 2.11111 10.8687 1.13132 11.0808C1 11.6869 0.777781 12.2222 0.47475 12.7071C0.515154 12.5152 0.565659 12.3333 0.616164 12.1515L0.606063 12.1212ZM11.3636 1.76768C11.3636 1.76768 11.3636 1.76768 11.3737 1.75758L11.3636 1.76768ZM10.7172 2.28283C10.798 2.23232 10.8687 2.18182 10.9394 2.12121C11 2.0505 11.0505 1.9697 11.101 1.88889C11.0101 1.92929 10.9293 1.9697 10.8384 2.0101C10.798 2.10101 10.7576 2.19192 10.7172 2.28283ZM7.34344 3.90909C8.46465 3.81818 9.41414 3.48485 10.1616 2.90909C10.2222 2.82828 10.2727 2.75758 10.3232 2.67677C9.49495 3.09091 8.49495 3.29293 7.35354 3.28283C7.35354 3.49495 7.35354 3.70707 7.34344 3.90909ZM7.27273 4.59596C8.29293 4.40404 9.15152 3.9798 9.79798 3.33333C9.11111 3.73737 8.28283 3.9798 7.33334 4.06061C7.32323 4.24242 7.29293 4.42424 7.27273 4.60606V4.59596ZM6.40404 4.84848C6.20202 4.85859 5.9899 4.86869 5.77778 4.85859C5.79798 6 5.58586 7 5.17172 7.82828C5.25253 7.77778 5.33334 7.71717 5.40404 7.66667C5.9697 6.91919 6.30303 5.9697 6.40404 4.84848ZM6.55556 4.69697C6.74748 4.67677 6.9293 4.65657 7.11111 4.62626C7.14142 4.44444 7.16162 4.26263 7.18182 4.07071C6.9798 4.08081 6.77778 4.09091 6.56566 4.08081C6.56566 4.29293 6.56566 4.49495 6.55556 4.69697ZM5.82829 7.30303C6.47475 6.65657 6.89899 5.79798 7.09091 4.77778C6.91919 4.80808 6.73738 4.82828 6.54546 4.83838C6.47475 5.77778 6.22222 6.60606 5.81818 7.30303H5.82829ZM5.72728 4.05051V4.20202C5.74748 4.38384 5.75758 4.55556 5.76768 4.72727C5.9899 4.72727 6.20202 4.72727 6.40404 4.71717C6.41414 4.51515 6.42424 4.30303 6.41414 4.09091C6.23233 4.09091 6.06061 4.07071 5.86869 4.06061H5.71717L5.72728 4.05051ZM4.58586 8.16162C4.70707 8.11111 4.81818 8.0505 4.9293 7.9899C5.41414 7.14141 5.65657 6.09091 5.63637 4.86869C5.46465 4.86869 5.28283 4.84848 5.11111 4.83838H4.9495L4.9596 4.9899C5.06061 6.20202 4.9394 7.27273 4.59596 8.17172L4.58586 8.16162ZM4.38384 8.62626C4.46465 8.57576 4.53536 8.51515 4.61616 8.46465C4.67677 8.39394 4.72728 8.31313 4.77778 8.24242C4.68687 8.28283 4.60606 8.32323 4.51515 8.36364C4.47475 8.45454 4.43435 8.54545 4.39394 8.62626H4.38384ZM4.24243 8.88889C4.24243 8.88889 4.24243 8.88889 4.25253 8.87879L4.24243 8.88889ZM1.15152 10.8889C2.08081 10.6768 2.85859 10.2727 3.45455 9.66667C2.81818 10.0404 2.07071 10.2727 1.22222 10.3636C1.20202 10.5455 1.17172 10.7172 1.14142 10.8889H1.15152ZM3.25253 25.2323C3.25253 25.2323 3.18182 25.2929 3.14142 25.3232C3.08081 25.2323 3.0101 25.1515 2.9495 25.0707C2.9798 25.0606 3.0101 25.0404 3.03031 25.0303C3.51515 24.1818 3.75758 23.1313 3.73738 21.9091C3.56566 21.9091 3.38384 21.8889 3.21212 21.8788H3.05051L3.06061 22.0303C3.15152 23.0909 3.06061 24.0404 2.79798 24.8687C2.75758 24.8081 2.72728 24.7475 2.68687 24.6869C2.80808 24.2525 2.89899 23.7879 2.9293 23.2929C2.90909 23.3232 2.88889 23.3434 2.86869 23.3636L2.25253 23.9798C2.18182 23.8485 2.09091 23.7273 2.0202 23.596L2.62627 22.9899L2.50505 22.6869L1.87879 23.3131C1.80808 23.1717 1.74748 23.0303 1.67677 22.899L2.34344 22.2323C2.51515 22.0606 2.80808 22.1212 2.88889 22.3434L2.9293 22.4444C2.9293 22.3131 2.91919 22.1818 2.89899 22.0404V21.8586C2.68687 21.8485 2.49495 21.8384 2.31313 21.8384L1.53536 22.6162C1.47475 22.4747 1.39394 22.3434 1.34344 22.2121L1.69697 21.8586C1.53536 21.8687 1.39394 21.9091 1.24243 21.9293C1.22222 21.8788 1.20202 21.8182 1.18182 21.7677C1.39394 21.7374 1.62627 21.7172 1.84849 21.7071L2.40404 21.1515L2.53536 21.4747C2.55556 21.5354 2.54546 21.6061 2.49495 21.6566L2.45455 21.697C2.59596 21.697 2.73738 21.7071 2.87879 21.7172C2.85859 21.4949 2.85859 21.2727 2.84849 21.0505C2.18182 21.0606 1.56566 21.1515 1.0101 21.3232C0.989902 21.2727 0.979801 21.2323 0.959599 21.1818C1.52526 21.0101 2.16162 20.9091 2.84849 20.899C2.84849 20.697 2.85859 20.4949 2.87879 20.2929C2.12121 20.3838 1.44445 20.5859 0.858589 20.9091C0.848488 20.8687 0.828286 20.8283 0.808084 20.7879C1.41414 20.4646 2.10101 20.2424 2.88889 20.1515C2.90909 19.9697 2.9394 19.798 2.9697 19.6263C2.11111 19.8283 1.37374 20.202 0.797983 20.7374C0.777781 20.6869 0.77778 20.6364 0.757578 20.5859C1.36364 20.0505 2.11111 19.6667 3 19.4747C3.21212 18.4949 3.63637 17.6768 4.27273 17.0404C4.40404 16.9091 4.54546 16.7879 4.69697 16.6768C4.80808 16.5253 4.9293 16.3838 5.06061 16.2525C5.19192 16.1212 5.33334 16 5.48485 15.8788C5.59596 15.7273 5.72728 15.5859 5.85859 15.4545C5.9899 15.3232 6.13132 15.202 6.27273 15.0909C6.38384 14.9394 6.50505 14.8081 6.63637 14.6768C7.31313 14 8.21212 13.5556 9.29293 13.3636C9.48485 12.2828 9.9293 11.3838 10.6061 10.7071C10.7374 10.5758 10.8788 10.4545 11.0202 10.3434C11.1313 10.1919 11.2525 10.0606 11.3838 9.92929C11.5152 9.79798 11.6566 9.67677 11.8081 9.55556C11.9192 9.40404 12.0505 9.26263 12.1818 9.13131C12.3131 9 12.4545 8.87879 12.6061 8.76768C12.7172 8.61616 12.8384 8.47475 12.9697 8.34343C13.6061 7.70707 14.4242 7.28283 15.404 7.07071C15.6162 6.09091 16.0404 5.26263 16.6768 4.63636C16.8081 4.50505 16.9495 4.38384 17.101 4.27273C17.2121 4.12121 17.3333 3.9798 17.4646 3.84848C17.596 3.71717 17.7374 3.59596 17.8889 3.47475C18 3.32323 18.1313 3.18182 18.2626 3.0505C18.3939 2.91919 18.5354 2.79798 18.6768 2.68687C18.7879 2.53535 18.9091 2.40404 19.0404 2.27273C19.6263 1.68687 20.3737 1.29293 21.2525 1.06061C21.3333 1.09091 21.4141 1.12121 21.495 1.15151C20.5455 1.36364 19.7475 1.76768 19.1414 2.37374C19.8283 1.9697 20.6566 1.72727 21.6061 1.64646C21.6162 1.49495 21.6364 1.35354 21.6566 1.21212C21.7071 1.23232 21.7475 1.24242 21.798 1.26263C21.7778 1.38384 21.7576 1.51515 21.7475 1.63636C21.9495 1.62626 22.1515 1.61616 22.3636 1.62626C22.3636 1.58586 22.3636 1.54545 22.3636 1.49495C22.4141 1.51515 22.4545 1.54545 22.5051 1.56566C22.5051 1.58586 22.5051 1.60606 22.5051 1.62626C22.5556 1.62626 22.6061 1.62626 22.6566 1.62626C22.7677 1.67677 22.8889 1.73737 23 1.78788C22.8384 1.77778 22.6667 1.76768 22.5152 1.75758C22.5152 1.92929 22.5354 2.10101 22.5455 2.28283V2.46465C22.7879 2.48485 23.0202 2.49495 23.2424 2.49495C23.2424 2.30303 23.2424 2.10101 23.2222 1.89899C23.2727 1.91919 23.3232 1.94949 23.3737 1.9697C23.3838 2.15151 23.3939 2.32323 23.3939 2.49495C23.6061 2.49495 23.8081 2.48485 24 2.46465C24 2.42424 24 2.38384 24 2.33333C24.0505 2.36364 24.0909 2.39394 24.1414 2.42424V2.44444C24.1515 2.44444 24.1616 2.44444 24.1717 2.44444C24.2323 2.48485 24.2929 2.51515 24.3535 2.55556C24.2727 2.56566 24.202 2.58586 24.1212 2.59596C24.101 2.77778 24.0707 2.94949 24.0404 3.12121C24.3232 3.0505 24.596 2.9697 24.8485 2.85859C24.8889 2.88889 24.9293 2.92929 24.9798 2.9596C24.6768 3.09091 24.3535 3.20202 24.0101 3.27273C23.798 4.25253 23.3737 5.07071 22.7374 5.70707C22.6061 5.83838 22.4646 5.9596 22.3131 6.07071C22.202 6.22222 22.0808 6.36364 21.9495 6.49495C21.8182 6.62626 21.6768 6.74747 21.5253 6.86869C21.4141 7.0202 21.2828 7.16162 21.1515 7.29293C21.0202 7.42424 20.8788 7.54545 20.7374 7.65657C20.6263 7.80808 20.5051 7.93939 20.3737 8.07071C19.697 8.74747 18.798 9.19192 17.7172 9.38384C17.5253 10.4646 17.0808 11.3636 16.404 12.0404C16.2727 12.1717 16.1313 12.2929 15.9899 12.404C15.8788 12.5556 15.7576 12.6869 15.6263 12.8182C15.495 12.9495 15.3535 13.0707 15.202 13.1919C15.0909 13.3434 14.9596 13.4848 14.8283 13.6162C14.697 13.7475 14.5556 13.8687 14.404 13.9798C14.2929 14.1313 14.1717 14.2727 14.0404 14.404C13.404 15.0404 12.5859 15.4646 11.6061 15.6768C11.3939 16.6566 10.9697 17.4848 10.3333 18.1111C10.202 18.2424 10.0606 18.3636 9.90909 18.4747C9.79798 18.6263 9.67677 18.7677 9.54546 18.899C9.41414 19.0303 9.27273 19.1515 9.12121 19.2727C9.0101 19.4242 8.87879 19.5657 8.74748 19.697C8.61616 19.8283 8.47475 19.9495 8.33334 20.0606C8.22222 20.2121 8.10101 20.3434 7.9697 20.4747C7.29293 21.1515 6.39394 21.596 5.31313 21.7879C5.12121 22.8687 4.67677 23.7677 4 24.4444C3.86869 24.5758 3.72728 24.697 3.58586 24.8081C3.47475 24.9596 3.35354 25.0909 3.22222 25.2222L3.25253 25.2323ZM5.19192 21.8182C5.0202 21.8485 4.83839 21.8687 4.64647 21.8788C4.57576 22.8182 4.32324 23.6465 3.91919 24.3434C4.56566 23.697 4.9899 22.8384 5.18182 21.8182H5.19192ZM3.79798 20.2424C3.79798 20.4646 3.79798 20.697 3.82829 20.9293H4C4.18182 20.9596 4.35354 20.9697 4.52525 20.9697C4.52525 20.798 4.50505 20.6263 4.49495 20.4444V20.2626C4.25253 20.2424 4.0202 20.2323 3.79798 20.2323V20.2424ZM4.47475 20.1212C4.45455 19.8889 4.44445 19.6667 4.44445 19.4545C4.23233 19.4545 4.03031 19.4646 3.82829 19.4848C3.80808 19.6869 3.79798 19.8889 3.79798 20.0909C4.0202 20.0909 4.24243 20.0909 4.47475 20.1212ZM3.83839 21.0808V21.2424C3.86869 21.4242 3.87879 21.596 3.87879 21.7677C4.10101 21.7677 4.31313 21.7677 4.51515 21.7576C4.52525 21.5556 4.53536 21.3434 4.52525 21.1313C4.34344 21.1313 4.17172 21.1111 3.9798 21.101H3.82829L3.83839 21.0808ZM4.62626 20.1313H4.79798C4.9697 20.1616 5.14142 20.1717 5.31313 20.1717C5.31313 20 5.29293 19.8384 5.28283 19.6566V19.4747C5.04041 19.4545 4.81818 19.4444 4.59596 19.4444C4.59596 19.6667 4.59596 19.8889 4.62626 20.1212V20.1313ZM5.29293 21.1111C5.09091 21.1212 4.88889 21.1313 4.67677 21.1212C4.67677 21.3333 4.67677 21.5354 4.66667 21.7374C4.85859 21.7172 5.04041 21.697 5.22222 21.6667C5.25253 21.4848 5.27273 21.303 5.29293 21.1111ZM5.31313 20.3232C5.14142 20.3232 4.9596 20.303 4.78788 20.2929H4.63637L4.64647 20.4343C4.66667 20.6162 4.67677 20.798 4.67677 20.9697C4.88889 20.9697 5.10101 20.9697 5.30303 20.9596C5.31313 20.7475 5.32323 20.5354 5.31313 20.3232ZM7.89899 20.3737C7.21212 20.7778 6.38384 21.0202 5.43435 21.101C5.42424 21.2828 5.39394 21.4646 5.37374 21.6465C6.39394 21.4545 7.25253 21.0303 7.89899 20.3838V20.3737ZM5.40404 19.3434H5.55556L5.38384 18.9293C5.38384 19.0606 5.39394 19.202 5.40404 19.3434ZM8.43435 19.7172C7.60606 20.1313 6.60606 20.3333 5.46465 20.3232C5.46465 20.5354 5.46465 20.7475 5.45455 20.9495C6.57576 20.8586 7.52525 20.5253 8.27273 19.9495C8.33334 19.8687 8.38384 19.798 8.43435 19.7172ZM8.75758 19.1414C8.15152 19.3737 7.45455 19.505 6.69697 19.5354L6.29293 19.9394C6.12121 20.1111 5.83839 20.0505 5.74748 19.8283L5.61616 19.505C5.61616 19.505 5.59596 19.505 5.57576 19.505H5.41414L5.42424 19.6566C5.44445 19.8384 5.45455 20.0101 5.45455 20.1818C6.67677 20.202 7.73738 19.9596 8.57576 19.4747C8.63637 19.3636 8.69697 19.2525 8.74748 19.1313L8.75758 19.1414ZM9.21212 18.9293C9.12121 18.9697 9.04041 19.0101 8.9495 19.0505C8.90909 19.1414 8.86869 19.2323 8.82828 19.3232C8.90909 19.2727 8.9798 19.2222 9.05051 19.1616C9.11111 19.0909 9.16162 19.0101 9.21212 18.9293ZM9.48485 18.7879C9.48485 18.7879 9.48485 18.7879 9.49495 18.7778L9.48485 18.7879ZM10.8182 15.798C10.6263 15.8182 10.4242 15.8283 10.2121 15.8283C10.202 16.8586 9.9899 17.7778 9.60606 18.5455C9.68687 18.4949 9.76768 18.4343 9.83839 18.3838C10.3636 17.697 10.6869 16.8182 10.8081 15.8081L10.8182 15.798ZM10.8687 14.8889C10.8687 14.6667 10.8687 14.4343 10.8384 14.202H10.6667C10.4849 14.1818 10.3131 14.1717 10.1313 14.1717C10.1313 14.3434 10.1515 14.5152 10.1616 14.697V14.8687C10.404 14.8889 10.6364 14.899 10.8586 14.899L10.8687 14.8889ZM10.1919 15.0101C10.2121 15.2424 10.2222 15.4646 10.2222 15.6768C10.4343 15.6768 10.6364 15.6667 10.8384 15.6465C10.8586 15.4444 10.8687 15.2424 10.8687 15.0404C10.6465 15.0404 10.4242 15.0404 10.1919 15.0101ZM10.8283 14.0606V13.9091C10.8081 13.7273 10.798 13.5556 10.7879 13.3838C10.5657 13.3838 10.3535 13.3838 10.1515 13.3939C10.1414 13.596 10.1313 13.8081 10.1414 14.0202C10.3232 14.0202 10.495 14.0404 10.6869 14.0505H10.8384L10.8283 14.0606ZM11.4849 15.697C11.3131 15.7273 11.1414 15.7576 10.9596 15.7778C10.8687 16.6263 10.6263 17.3737 10.2626 18.0101C10.8586 17.4141 11.2727 16.6364 11.4849 15.7071V15.697ZM11.6061 15.0101C11.4141 15.0303 11.2121 15.0404 11.0101 15.0404C11.0101 15.2424 11 15.4444 10.9798 15.6364C11.1616 15.6162 11.3434 15.5859 11.5253 15.5556C11.5556 15.3838 11.5859 15.202 11.6061 15.0101ZM11.6566 14.2424C11.4343 14.2424 11.2121 14.2424 10.9899 14.2121C11.0101 14.4444 11.0202 14.6667 11.0202 14.8889C11.2323 14.8889 11.4343 14.8788 11.6263 14.8586C11.6465 14.6566 11.6566 14.4545 11.6566 14.2424ZM11.6566 14.0909C11.6566 13.8687 11.6566 13.6465 11.6263 13.4141H11.4444C11.2727 13.3939 11.101 13.3838 10.9293 13.3838C10.9293 13.5556 10.9394 13.7172 10.9596 13.899V14.0707C11.202 14.0909 11.4343 14.101 11.6566 14.101V14.0909ZM13.9798 14.2929C13.3434 14.6667 12.596 14.899 11.7475 14.9899C11.7273 15.1717 11.697 15.3434 11.6667 15.5152C12.596 15.303 13.3737 14.899 13.9697 14.2929H13.9798ZM11.7475 13.1111V13.2828C11.8182 13.2828 11.8788 13.2828 11.9293 13.2929L11.7172 12.7778C11.7172 12.8889 11.7273 13 11.7374 13.1111H11.7475ZM14.5152 13.6364C13.7475 14.0202 12.8384 14.2222 11.798 14.2424C11.798 14.4444 11.7879 14.6465 11.7677 14.8485C12.7879 14.7273 13.6566 14.404 14.3434 13.8788C14.404 13.798 14.4545 13.7273 14.5051 13.6465L14.5152 13.6364ZM14.7778 13.4949C14.7778 13.4949 14.7778 13.4949 14.7879 13.4848L14.7778 13.4949ZM14.8384 13.0606C14.2323 13.2929 13.5354 13.4242 12.7778 13.4545L12.5859 13.6465C12.4141 13.8182 12.1313 13.7576 12.0404 13.5354L12 13.4444C11.9293 13.4444 11.8485 13.4444 11.7778 13.4343C11.798 13.6566 11.8081 13.8788 11.8081 14.101C12.9192 14.0808 13.8889 13.8485 14.6667 13.3939C14.7273 13.2828 14.7879 13.1717 14.8384 13.0606ZM15.303 12.8485C15.2121 12.8889 15.1313 12.9293 15.0303 12.9697C14.9899 13.0606 14.9495 13.1515 14.9091 13.2323C14.9899 13.1818 15.0606 13.1212 15.1414 13.0707C15.202 13 15.2525 12.9192 15.303 12.8485ZM16.1515 9.48485C15.9798 9.48485 15.798 9.46465 15.6263 9.45454H15.4646L15.4747 9.60606C15.5758 10.8182 15.4545 11.8889 15.1111 12.7879C15.2323 12.7374 15.3434 12.6768 15.4545 12.6162C15.9394 11.7677 16.1818 10.7172 16.1616 9.49495L16.1515 9.48485ZM16.9293 9.47475C16.7273 9.48485 16.5152 9.49495 16.303 9.48485C16.3232 10.6263 16.1111 11.6263 15.697 12.4545C15.7778 12.404 15.8586 12.3434 15.9293 12.2929C16.495 11.5455 16.8283 10.596 16.9293 9.47475ZM16.2222 7.83838C16.2222 8.06061 16.2222 8.29293 16.2525 8.52525H16.4242C16.6061 8.54545 16.7778 8.55556 16.9596 8.55556C16.9596 8.38384 16.9394 8.21212 16.9293 8.0303V7.85859C16.6869 7.83838 16.4545 7.82828 16.2323 7.82828L16.2222 7.83838ZM16.899 7.71717C16.8788 7.48485 16.8687 7.26263 16.8687 7.0505C16.6566 7.0505 16.4545 7.06061 16.2525 7.08081C16.2323 7.28283 16.2222 7.48485 16.2222 7.68687C16.4444 7.68687 16.6667 7.68687 16.899 7.71717ZM16.4141 8.66667H16.2626V8.80808C16.2828 8.9899 16.2929 9.16162 16.2929 9.33333C16.5152 9.33333 16.7273 9.33333 16.9293 9.32323C16.9394 9.12121 16.9495 8.90909 16.9394 8.69697C16.7576 8.69697 16.5859 8.67677 16.3939 8.66667H16.4141ZM17.6162 9.39394C17.4444 9.42424 17.2626 9.44444 17.0707 9.45454C17 10.3939 16.7475 11.2222 16.3434 11.9192C16.9899 11.2727 17.4141 10.4141 17.6061 9.39394H17.6162ZM17.0404 7.72727H17.2121C17.3838 7.74747 17.5556 7.75758 17.7273 7.75758C17.7273 7.58586 17.7172 7.42424 17.697 7.24242V7.07071C17.4545 7.0505 17.2323 7.0404 17.0101 7.0404C17.0101 7.26263 17.0101 7.48485 17.0404 7.71717V7.72727ZM17.7071 8.68687C17.5051 8.69697 17.303 8.70707 17.0909 8.69697C17.0909 8.90909 17.0909 9.11111 17.0808 9.31313C17.2727 9.29293 17.4545 9.27273 17.6364 9.24242C17.6667 9.06061 17.6869 8.87879 17.7071 8.68687ZM17.7374 7.89899C17.5657 7.89899 17.3838 7.87879 17.2121 7.86869H17.0606V8.0101C17.0808 8.19192 17.0909 8.37374 17.0909 8.54545C17.303 8.54545 17.5152 8.54545 17.7172 8.53535C17.7273 8.32323 17.7374 8.11111 17.7273 7.89899H17.7374ZM20.3131 7.9596C19.6263 8.36364 18.798 8.60606 17.8485 8.68687C17.8384 8.86869 17.8081 9.0505 17.7879 9.23232C18.8081 9.0404 19.6667 8.61616 20.3131 7.9697V7.9596ZM17.8283 6.93939H18L17.798 6.45455C17.798 6.61616 17.8081 6.77778 17.8182 6.93939H17.8283ZM20.8485 7.30303C20.0202 7.71717 19.0202 7.91919 17.8788 7.90909C17.8788 8.12121 17.8788 8.33333 17.8687 8.53535C18.9899 8.44444 19.9394 8.11111 20.6869 7.53535C20.7475 7.45455 20.798 7.38384 20.8485 7.30303ZM21.1717 6.71717C20.5657 6.94949 19.8687 7.08081 19.1111 7.11111L18.7273 7.49495C18.5556 7.66667 18.2727 7.60606 18.1818 7.38384L18.0606 7.08081C18.0606 7.08081 18.0202 7.08081 18 7.08081H17.8384L17.8485 7.23232C17.8687 7.41414 17.8788 7.58586 17.8788 7.75758C19.101 7.77778 20.1616 7.53535 21 7.0505C21.0606 6.93939 21.1212 6.82828 21.1717 6.70707V6.71717ZM21.6364 6.51515C21.5455 6.55556 21.4646 6.59596 21.3737 6.63636C21.3333 6.72727 21.2929 6.81818 21.2525 6.89899C21.3333 6.84848 21.404 6.79798 21.4747 6.73737C21.5354 6.66667 21.5859 6.58586 21.6364 6.50505V6.51515ZM21.899 6.37374C21.899 6.37374 21.899 6.37374 21.9091 6.36364L21.899 6.37374ZM22.4849 3.41414C22.2727 3.41414 22.0505 3.41414 21.8182 3.38384C21.899 4.53535 21.7778 5.56566 21.4444 6.43434C21.5556 6.38384 21.6768 6.32323 21.7778 6.26263C22.2222 5.47475 22.4646 4.51515 22.4849 3.40404V3.41414ZM23.3939 3.22222C23.5758 3.20202 23.7576 3.17172 23.9293 3.14141C23.9697 2.9697 23.9899 2.78788 24.0101 2.59596C23.8182 2.61616 23.6162 2.62626 23.4141 2.62626C23.4141 2.82828 23.404 3.0303 23.3838 3.22222H23.3939ZM22.6869 5.58586C23.2828 4.9899 23.697 4.21212 23.9091 3.29293C23.7374 3.32323 23.5657 3.35354 23.3838 3.37374C23.2929 4.21212 23.0505 4.9596 22.6869 5.59596V5.58586ZM22.6061 2.60606C22.6263 2.83838 22.6364 3.06061 22.6364 3.27273C22.8485 3.27273 23.0505 3.26263 23.2525 3.24242C23.2727 3.0404 23.2828 2.83838 23.2828 2.63636C23.0606 2.63636 22.8384 2.63636 22.6061 2.60606ZM22.0303 6.12121C22.1111 6.07071 22.1919 6.0101 22.2626 5.94949C22.7879 5.26263 23.1111 4.39394 23.2323 3.38384C23.0404 3.40404 22.8384 3.41414 22.6263 3.41414C22.6061 4.44444 22.404 5.35354 22.0202 6.12121H22.0303ZM22.4646 2.59596H22.2929C22.1212 2.56566 21.9495 2.55556 21.7778 2.55556C21.7778 2.72727 21.798 2.88889 21.8081 3.07071V3.25253C22.0505 3.27273 22.2727 3.28283 22.495 3.28283C22.495 3.06061 22.495 2.83838 22.4646 2.60606V2.59596ZM21.7677 2.40404C21.9394 2.40404 22.1212 2.42424 22.2929 2.43434H22.4444L22.4343 2.29293C22.4141 2.11111 22.404 1.92929 22.404 1.75758C22.1919 1.75758 21.9798 1.75758 21.7778 1.76768C21.7677 1.9798 21.7576 2.19192 21.7677 2.40404ZM21.6263 2.54545C21.4141 2.54545 21.202 2.54545 20.9899 2.55556L21.1212 2.87879C21.1515 2.93939 21.1313 3.0101 21.0808 3.06061L20.9495 3.19192C21.1313 3.19192 21.3131 3.20202 21.495 3.22222H21.6566L21.6465 3.07071C21.6263 2.88889 21.6162 2.71717 21.6162 2.54545H21.6263ZM18.6566 3C19.4848 2.58586 20.4848 2.38384 21.6263 2.39394C21.6263 2.18182 21.6263 1.9697 21.6364 1.76768C20.5152 1.85859 19.5657 2.19192 18.8182 2.76768C18.7576 2.84848 18.7071 2.91919 18.6566 3ZM18.3232 3.58586C18.9293 3.35354 19.6061 3.22222 20.3434 3.19192L20.9798 2.55556C20.0303 2.61616 19.1919 2.84848 18.495 3.24242C18.4343 3.35354 18.3737 3.46465 18.3232 3.58586ZM18.2424 3.77778C18 4.36364 17.8586 5.0303 17.8081 5.76768C17.8384 5.71717 17.8687 5.67677 17.9091 5.63636L19.0404 4.50505L19.1717 4.82828C19.1919 4.88889 19.1818 4.9596 19.1313 5.0101L17.9697 6.17172L18.1919 6.09091L18.5455 6.9697C18.5455 6.9697 18.6061 6.9697 18.6364 6.9697L19.6263 5.9798L19.7576 6.31313C19.7778 6.37374 19.7677 6.44444 19.7172 6.49495L19.2525 6.9596C19.9899 6.91919 20.6566 6.76768 21.2424 6.52525C21.6061 5.64646 21.7475 4.58586 21.6566 3.37374H21.4747C21.2424 3.34343 21.0202 3.33333 20.798 3.32323L19.8081 4.31313L20.0303 4.23232L20.1111 4.42424L20.9091 3.62626C21.0808 3.45455 21.3636 3.51515 21.4545 3.73737L21.5758 4.0404C21.6768 4.29293 21.6162 4.57576 21.4242 4.76768L20.202 5.9899L20.0707 5.65657C20.0505 5.59596 20.0606 5.52525 20.1111 5.47475L21.1919 4.39394L21.0707 4.09091L20.3535 4.80808L20.2626 4.89899C20.0909 5.07071 19.8081 5.0101 19.7172 4.78788L19.6667 4.66667L19.596 4.49495C19.495 4.24242 19.5556 3.9596 19.7475 3.76768L20.1717 3.34343C19.4545 3.39394 18.798 3.53535 18.2121 3.77778H18.2424ZM17.8687 3.78788C17.9596 3.74747 18.0404 3.70707 18.1313 3.66667C18.1717 3.57576 18.2121 3.48485 18.2525 3.39394C18.1717 3.44444 18.101 3.49495 18.0303 3.55556C17.9697 3.62626 17.9192 3.70707 17.8687 3.78788ZM17.6061 3.93939C17.6061 3.93939 17.6061 3.93939 17.596 3.94949L17.6061 3.93939ZM17.0101 6.89899C17.2222 6.89899 17.4444 6.89899 17.6768 6.92929C17.5859 5.76768 17.7172 4.73737 18.0505 3.86869C17.9394 3.91919 17.8182 3.9798 17.7172 4.0404C17.2727 4.82828 17.0303 5.78788 17.0101 6.89899ZM16.2626 6.92929C16.4545 6.90909 16.6566 6.89899 16.8687 6.89899C16.8788 5.86869 17.0909 4.94949 17.4747 4.18182C17.3939 4.23232 17.3131 4.29293 17.2424 4.34343C16.7172 5.0303 16.3939 5.90909 16.2727 6.91919L16.2626 6.92929ZM15.596 7.0202C15.7677 6.9899 15.9394 6.9596 16.1212 6.93939C16.2121 6.09091 16.4545 5.34343 16.8182 4.70707C16.2222 5.30303 15.8081 6.08081 15.596 7.0101V7.0202ZM15.4747 7.71717C15.6667 7.69697 15.8687 7.68687 16.0707 7.68687C16.0707 7.48485 16.0808 7.28283 16.101 7.09091C15.9192 7.11111 15.7374 7.14141 15.5556 7.17172C15.5253 7.34343 15.495 7.52525 15.4747 7.71717ZM15.4343 8.48485C15.6566 8.48485 15.8788 8.48485 16.101 8.51515C16.0808 8.28283 16.0707 8.06061 16.0707 7.83838C15.8586 7.83838 15.6566 7.84848 15.4646 7.86869C15.4444 8.07071 15.4343 8.27273 15.4343 8.48485ZM15.4242 8.62626C15.4242 8.84848 15.4242 9.07071 15.4545 9.30303H15.6364C15.8081 9.32323 15.9798 9.33333 16.1515 9.33333C16.1515 9.16162 16.1313 9 16.1212 8.81818V8.64646C15.8788 8.62626 15.6465 8.61616 15.4242 8.61616V8.62626ZM13.101 8.43434C13.7374 8.06061 14.4849 7.82828 15.3333 7.73737C15.3535 7.55556 15.3838 7.38384 15.4141 7.21212C14.4849 7.42424 13.7071 7.82828 13.1111 8.43434H13.101ZM15.3333 9.61616V9.44444C15.1212 9.42424 14.9293 9.42424 14.7374 9.41414L13.6768 10.4747L13.899 10.3939L13.9798 10.5859L14.7778 9.78788C14.9495 9.61616 15.2424 9.67677 15.3232 9.89899L15.3535 9.9697C15.3535 9.84848 15.3434 9.73737 15.3333 9.61616ZM12.5758 9.09091C13.3434 8.70707 14.2525 8.50505 15.2929 8.48485C15.2929 8.28283 15.303 8.08081 15.3232 7.87879C14.303 8 13.4343 8.32323 12.7475 8.84848C12.6869 8.92929 12.6364 9 12.5859 9.08081L12.5758 9.09091ZM12.303 9.23232C12.303 9.23232 12.303 9.23232 12.2929 9.24242L12.303 9.23232ZM12.2424 9.66667C12.8485 9.43434 13.5253 9.30303 14.2626 9.27273L14.8384 8.69697L14.9697 9.0202C15 9.08081 14.9798 9.15151 14.9293 9.20202L14.8687 9.26263C15.0101 9.26263 15.1515 9.27273 15.303 9.28283C15.2828 9.06061 15.2727 8.83838 15.2727 8.61616C14.1616 8.63636 13.1919 8.86869 12.4141 9.32323C12.3535 9.43434 12.2929 9.54545 12.2424 9.65657V9.66667ZM12.1616 9.85859C11.9192 10.4343 11.7778 11.0909 11.7273 11.8182C11.7374 11.8081 11.7475 11.7879 11.7576 11.7778L12.8889 10.6465L13.0202 10.9697C13.0404 11.0303 13.0303 11.101 12.9798 11.1515L11.8182 12.3131L12.0404 12.2323L12.4242 13.1717L13.4747 12.1212L13.6061 12.4545C13.6263 12.5152 13.6162 12.5859 13.5657 12.6364L12.9091 13.2929C13.6465 13.2525 14.3131 13.101 14.899 12.8586C15.1414 12.2727 15.2929 11.596 15.3333 10.8586C15.3131 10.8788 15.303 10.899 15.2828 10.9192L14.0606 12.1414L13.9293 11.8081C13.9091 11.7475 13.9192 11.6768 13.9697 11.6263L15.0505 10.5455L14.9293 10.2424L14.2121 10.9596L14.1212 11.0505C13.9495 11.2222 13.6667 11.1616 13.5758 10.9394L13.5253 10.8182L13.4545 10.6465C13.3535 10.3939 13.4141 10.1111 13.6061 9.91919L14.101 9.42424C13.3838 9.47475 12.7273 9.61616 12.1515 9.84848L12.1616 9.85859ZM11.7879 9.86869C11.8788 9.82828 11.9596 9.78788 12.0505 9.74747C12.0909 9.65656 12.1313 9.56566 12.1717 9.48485C12.0909 9.53535 12.0202 9.59596 11.9394 9.64646C11.8788 9.71717 11.8283 9.79798 11.7778 9.86869H11.7879ZM10.9293 13.2424C11.101 13.2424 11.2828 13.2626 11.4545 13.2727H11.6162L11.6061 13.1212C11.5758 12.8283 11.5657 12.5455 11.5758 12.2626C11.5758 12.2424 11.5758 12.2222 11.5758 12.202C11.5859 11.3636 11.7172 10.6061 11.9798 9.93939C11.8586 9.9899 11.7475 10.0505 11.6364 10.1111C11.1515 10.9596 10.9091 12.0101 10.9293 13.2323V13.2424ZM10.1616 13.2525C10.3636 13.2424 10.5758 13.2323 10.7879 13.2424C10.7677 12.101 10.9798 11.101 11.3939 10.2727C11.3131 10.3232 11.2323 10.3838 11.1616 10.4343C10.596 11.1818 10.2626 12.1313 10.1616 13.2525ZM9.47475 13.3232C9.64647 13.2929 9.82829 13.2727 10.0202 13.2626C10.0909 12.3232 10.3434 11.4949 10.7475 10.798C10.101 11.4444 9.67677 12.303 9.48485 13.3232H9.47475ZM10.0404 15H9.86869C9.69697 14.9798 9.52525 14.9697 9.35354 14.9697C9.35354 15.1414 9.37374 15.303 9.38384 15.4848V15.6566C9.62626 15.6768 9.84849 15.6869 10.0707 15.6869C10.0707 15.4646 10.0707 15.2424 10.0404 15.0101V15ZM9.37374 14.0404C9.57576 14.0303 9.77778 14.0202 9.9899 14.0303C9.9899 13.8182 9.9899 13.6162 10 13.4141C9.80808 13.4343 9.62627 13.4545 9.44445 13.4848C9.41414 13.6667 9.39394 13.8485 9.37374 14.0404ZM9.35354 14.8182C9.52525 14.8182 9.70707 14.8384 9.87879 14.8485H10.0303V14.7071C10.0101 14.5253 10 14.3434 10 14.1717C9.78788 14.1717 9.57576 14.1717 9.37374 14.1818C9.36364 14.3939 9.35354 14.6061 9.36364 14.8182H9.35354ZM9.0303 18.8586C9.14142 18.8081 9.26263 18.7475 9.36364 18.6869C9.80808 17.899 10.0505 16.9394 10.0707 15.8283C9.85859 15.8283 9.63637 15.8283 9.40404 15.798C9.49495 16.9596 9.36364 17.9899 9.0303 18.8586ZM6.76768 14.7677C7.45455 14.3636 8.28283 14.1212 9.23233 14.0404C9.24243 13.8586 9.27273 13.6768 9.29293 13.4949C8.27273 13.6869 7.41414 14.1111 6.76768 14.7576V14.7677ZM6.23233 15.4242C7.06061 15.0101 8.06061 14.8081 9.20202 14.8182C9.20202 14.6061 9.20202 14.3939 9.21212 14.1919C8.09091 14.2828 7.14142 14.6162 6.39394 15.1919C6.33334 15.2727 6.28283 15.3434 6.23233 15.4242ZM5.90909 16.0101C6.51515 15.7778 7.19192 15.6465 7.9293 15.6162L8.55556 14.9899L8.68687 15.3131C8.71717 15.3737 8.69697 15.4444 8.64647 15.4949L8.53536 15.6061C8.71717 15.6061 8.89899 15.6162 9.08081 15.6364H9.24243L9.23233 15.4848C9.21212 15.303 9.20202 15.1313 9.20202 14.9596C7.9798 14.9394 6.91919 15.1818 6.08081 15.6667C6.0202 15.7778 5.9596 15.8889 5.90909 16.0101ZM5.82829 16.202C5.58586 16.7879 5.44445 17.4444 5.39394 18.1818C5.41414 18.1414 5.44445 18.1111 5.47475 18.0808L6.60606 16.9495L6.73738 17.2727C6.75758 17.3333 6.74748 17.404 6.69697 17.4545L5.53536 18.6162L5.75758 18.5354L6.10101 19.3939C6.10101 19.3939 6.18182 19.3939 6.22222 19.3939L7.19192 18.4242L7.32323 18.7576C7.34344 18.8182 7.33334 18.8889 7.28283 18.9394L6.83839 19.3838C7.57576 19.3434 8.24243 19.1919 8.82828 18.9495C9.19192 18.0707 9.34344 17 9.24243 15.7879H9.06061C8.82829 15.7677 8.59596 15.7576 8.37374 15.7475L7.36364 16.7576L7.58586 16.6768L7.66667 16.8687L8.46465 16.0707C8.63637 15.899 8.91919 15.9596 9.0101 16.1818L9.13132 16.4848C9.23233 16.7374 9.17172 17.0202 8.9798 17.2121L7.75758 18.4343L7.62627 18.101C7.60606 18.0404 7.61616 17.9697 7.66667 17.9192L8.74748 16.8384L8.62626 16.5354L7.90909 17.2525L7.81818 17.3434C7.64647 17.5151 7.36364 17.4545 7.27273 17.2323L7.22222 17.1111L7.15152 16.9394C7.05051 16.6869 7.11111 16.404 7.30303 16.2121L7.74748 15.7677C7.0202 15.8182 6.37374 15.9596 5.78788 16.202H5.82829ZM5.44445 16.2121C5.53536 16.1717 5.61616 16.1313 5.70707 16.0909C5.74748 16 5.78788 15.9091 5.82829 15.8182C5.74748 15.8687 5.67677 15.9192 5.60606 15.9798C5.54546 16.0505 5.49495 16.1313 5.44445 16.2121ZM5.18182 16.3535C5.18182 16.3535 5.18182 16.3535 5.17172 16.3636L5.18182 16.3535ZM4.59596 19.3131C4.80808 19.3131 5.03031 19.3131 5.26263 19.3434C5.18182 18.1919 5.30303 17.1616 5.63637 16.2929C5.52525 16.3434 5.40404 16.404 5.30303 16.4646C4.85859 17.2525 4.61616 18.2121 4.59596 19.3232V19.3131ZM3.84849 19.3434C4.04041 19.3232 4.24243 19.3131 4.45455 19.3131C4.47475 18.2828 4.67677 17.3737 5.06061 16.6061C4.9798 16.6566 4.89899 16.7172 4.82829 16.7677C4.30303 17.4545 3.9798 18.3232 3.85859 19.3333L3.84849 19.3434ZM3.06061 20.1313C3.25253 20.1111 3.45455 20.101 3.65657 20.101C3.65657 19.899 3.66667 19.697 3.68687 19.505C3.50505 19.5253 3.32323 19.5556 3.15152 19.5859C3.11111 19.7576 3.09091 19.9394 3.07071 20.1313H3.06061ZM3.0101 20.899C3.23233 20.899 3.45455 20.899 3.67677 20.9293C3.65657 20.697 3.64647 20.4747 3.64647 20.2525C3.43435 20.2525 3.23233 20.2626 3.04041 20.2828C3.0202 20.4848 3.0101 20.6869 3.0101 20.899ZM3.73738 21.7576C3.73738 21.5859 3.71717 21.4242 3.70707 21.2424V21.0606C3.46465 21.0404 3.23233 21.0303 3.0101 21.0303C3.0101 21.2525 3.0101 21.4747 3.04041 21.7071H3.22222C3.39394 21.7374 3.56566 21.7475 3.73738 21.7475V21.7576ZM4.40404 17.1313C3.80808 17.7273 3.39394 18.505 3.18182 19.4242C3.35354 19.3939 3.52526 19.3636 3.70707 19.3434C3.79798 18.505 4.04041 17.7576 4.40404 17.1212V17.1313ZM3.27273 24.8788C3.35354 24.8283 3.43435 24.7677 3.50505 24.7172C4.07071 23.9697 4.40404 23.0202 4.50505 21.899C4.30303 21.9091 4.09091 21.9192 3.87879 21.9091C3.89899 23.0505 3.68687 24.0505 3.27273 24.8788ZM5.70707 11.8384L4.90909 12.6364L5.45455 13.1818L5.13132 13.505L3.68687 12.0606L4.80808 10.9394C4.9798 10.7677 5.26263 10.7475 5.41414 10.9091L5.67677 11.1717C5.75758 11.2525 5.79798 11.3636 5.76768 11.4949C5.88889 11.4646 5.9899 11.4949 6.07071 11.5657L6.57576 12.0707L6.25253 12.3939L5.70707 11.8485V11.8384ZM5.43435 11.5657L5.09091 11.2222L4.29293 12.0202L4.63637 12.3636L5.43435 11.5657ZM0.131316 16.5859C0.131316 16.8081 0.151518 17.0404 0.161619 17.2626L0.767679 17.8687L1.09091 17.5455L0.545457 17L1.34344 16.202L1.88889 16.7475L2.21212 16.4242L1.70707 15.9192C1.62627 15.8586 1.52526 15.8182 1.40404 15.8485C1.43435 15.7172 1.40404 15.6061 1.31313 15.5253L1.05051 15.2626C0.888892 15.101 0.616164 15.1212 0.444447 15.2929L0.111114 15.6263C0.111114 15.7576 0.0909119 15.8788 0.0909119 16C0.0909119 16.0606 0.0909119 16.1212 0.0909119 16.1818L0.707073 15.5657L1.05051 15.9091L0.252528 16.7071L0.111114 16.5657L0.131316 16.5859ZM25.4545 7.31313L24.6566 8.11111L25.202 8.65656L24.8788 8.9798L23.4343 7.53535L24.5556 6.41414C24.7273 6.24242 25.0101 6.22222 25.1616 6.38384L25.4242 6.64646C25.5051 6.72727 25.5455 6.83838 25.5152 6.9697C25.6364 6.93939 25.7374 6.9697 25.8182 7.0404L26.3232 7.54545L26 7.86869L25.4545 7.32323V7.31313ZM25.1818 7.0404L24.8384 6.69697L24.0404 7.49495L24.3838 7.83838L25.1818 7.0404ZM27.5556 5.12121C27.4646 5.0303 27.3838 4.92929 27.2929 4.83838L27.2626 4.86869L27.5354 5.14141L27.5556 5.12121ZM3.60606 12.7374L4.47475 13.6061C4.63637 13.7677 4.61616 14.0404 4.44445 14.2121L3.64647 15.0101C3.47475 15.1818 3.19192 15.202 3.04041 15.0404L2.17172 14.1717C2.0101 14.0101 2.03031 13.7374 2.20202 13.5657L3 12.7677C3.17172 12.596 3.45455 12.5758 3.60606 12.7374ZM4.17172 13.9394L3.27273 13.0404L2.47475 13.8384L3.37374 14.7374L4.17172 13.9394ZM26.697 4.28283L26.2929 4.68687C26.1212 4.85859 26.101 5.14141 26.2626 5.29293L27.1313 6.16162C27.2929 6.32323 27.5657 6.30303 27.7374 6.13131L28.1212 5.74747C28.0404 5.64646 27.9495 5.55556 27.8586 5.46465L27.4545 5.86869L26.5556 4.9697L26.9798 4.54545C26.8889 4.45455 26.7879 4.37374 26.697 4.28283ZM15.101 3.54545L14.8283 3.27273L13.9495 4.15152L12.7778 2.9798L12.4545 3.30303L13.899 4.74747L15.101 3.54545ZM0.252528 18.0707C0.262629 18.1616 0.282831 18.2525 0.292932 18.3434L0.414144 18.2222L0.252528 18.0606V18.0707ZM9.79798 8.84848L8.35354 7.40404L8.03031 7.72727L9.47475 9.17172L9.79798 8.84848ZM7.28283 11.3636L5.83839 9.91919L5.51515 10.2424L6.9596 11.6869L7.28283 11.3636ZM7.9798 10.6667L8.77778 9.86869C8.9495 9.69697 8.9697 9.41414 8.80808 9.26263L8.23233 8.68687L7.51515 9.40404L7.78788 9.67677L8.19192 9.27273L8.51515 9.59596L7.71717 10.3939L6.81818 9.49495L7.61616 8.69697L7.77778 8.85859L8.10101 8.53535L7.9596 8.39394C7.79798 8.23232 7.52525 8.25253 7.35354 8.42424L6.55556 9.22222C6.38384 9.39394 6.36364 9.67677 6.52525 9.82828L7.39394 10.697C7.55556 10.8586 7.82829 10.8384 8 10.6667H7.9798Z" fill="url(#paint1_radial_34_97)"/>
<path d="M14.4142 22.3939C13.8889 22.3939 13.4142 22.1313 13.1212 21.697C13.101 21.6768 13.0909 21.6465 13.0707 21.6263C12.6162 22.1111 11.9798 22.3939 11.3131 22.3939H4.06062C2.95961 22.3939 1.9495 21.8485 1.34344 20.9293C0.737384 20.0101 0.636374 18.8586 1.06062 17.8485C2.54883 14.3535 3.29294 12.6027 3.29294 12.596C4.08082 10.7778 5.8687 9.59596 7.8586 9.59596H16.0202C16.5354 9.59596 17.0202 9.85858 17.303 10.2929C17.4141 10.4545 17.4849 10.6364 17.5253 10.8384C18.4243 10.0505 19.6061 9.60606 20.8081 9.60606H29.6364C30.1515 9.60606 30.6364 9.86869 30.9192 10.2929C31.202 10.7172 31.2525 11.2727 31.0505 11.7475L30.3434 13.404C29.9798 14.2626 29.1515 14.8283 28.2323 14.8687C28.7879 15.7677 28.8687 16.8788 28.4546 17.8485L27.8081 19.3636C27.0202 21.202 25.2222 22.3939 23.2222 22.3939H14.3939H14.4142Z" fill="url(#paint2_linear_34_97)"/>
<path d="M5.42425 18.4949H12.6162L11.9394 20.0909C11.8081 20.3939 11.5152 20.5859 11.1919 20.5859H4.35354C3.19193 20.5859 2.40405 19.404 2.85859 18.3333L4.9596 13.404C5.47475 12.2121 6.64647 11.4444 7.9394 11.4444H15.6263L14.9596 13.0101C14.8283 13.3131 14.5354 13.5051 14.2121 13.5051H6.29294L7.33334 14L5.41415 18.5152L5.42425 18.4949ZM20.4343 11.1515C19.0505 11.1515 17.8081 11.9798 17.2727 13.2525L16.9091 14.101L16.6566 14.7071C16.1717 15.8384 17.0101 17.101 18.2424 17.101H24.0303L23.3636 18.6566H15.5455C15.202 18.6566 14.8889 18.8586 14.7576 19.1717L14.0303 20.8586H22.8586C24.2323 20.8586 25.4849 20.0404 26.0202 18.7677L26.6667 17.2525C27.1515 16.1212 26.3232 14.8586 25.0808 14.8586H19.2929L19.7172 13.8586L18.6364 13.3333H27.7576C28.101 13.3333 28.4141 13.1313 28.5455 12.8081L29.2525 11.1515H20.4242H20.4343Z" fill="url(#paint3_linear_34_97)"/>
</g>
<defs>
<linearGradient id="paint0_linear_34_97" x1="10.4545" y1="38.1515" x2="25.3434" y2="-21.2424" gradientUnits="userSpaceOnUse">
<stop offset="0.04" stop-color="#525252"/>
<stop offset="0.13" stop-color="#535454"/>
<stop offset="0.19" stop-color="#585C5C"/>
<stop offset="0.24" stop-color="#616A6B"/>
<stop offset="0.25" stop-color="#677273"/>
<stop offset="0.28" stop-color="#6A7576"/>
<stop offset="0.3" stop-color="#768180"/>
<stop offset="0.33" stop-color="#899491"/>
<stop offset="0.35" stop-color="#A4AFA9"/>
<stop offset="0.37" stop-color="#C6D1C8"/>
<stop offset="0.38" stop-color="#CED9CF"/>
<stop offset="0.41" stop-color="#C5CFC4"/>
<stop offset="0.46" stop-color="#ADB4A8"/>
<stop offset="0.53" stop-color="#87897C"/>
<stop offset="0.55" stop-color="#7A7A6C"/>
<stop offset="0.58" stop-color="#877979"/>
<stop offset="0.63" stop-color="#A9769D"/>
<stop offset="0.71" stop-color="#E072D7"/>
<stop offset="0.73" stop-color="#EF72E7"/>
<stop offset="0.75" stop-color="#EB7BCB"/>
<stop offset="0.79" stop-color="#E29190"/>
<stop offset="0.81" stop-color="#DF9A79"/>
<stop offset="0.82" stop-color="#D47588"/>
<stop offset="0.83" stop-color="#CC5695"/>
<stop offset="0.84" stop-color="#C74C99"/>
<stop offset="0.88" stop-color="#AE6894"/>
<stop offset="0.91" stop-color="#9C7D90"/>
<stop offset="0.95" stop-color="#91898E"/>
<stop offset="0.98" stop-color="#8E8E8E"/>
<stop offset="0.99" stop-color="#8B8797"/>
<stop offset="1" stop-color="#8474B4"/>
</linearGradient>
<radialGradient id="paint1_radial_34_97" cx="0" cy="0" r="1" gradientUnits="userSpaceOnUse" gradientTransform="translate(-6.80808 34.5455) scale(62.8182 62.8182)">
<stop offset="0.02" stop-color="#8E8E8E"/>
<stop offset="0.06" stop-color="#93898F"/>
<stop offset="0.08" stop-color="#97848F"/>
<stop offset="0.11" stop-color="#A27692"/>
<stop offset="0.14" stop-color="#B66096"/>
<stop offset="0.16" stop-color="#C94B9A"/>
<stop offset="0.19" stop-color="#CC569C"/>
<stop offset="0.24" stop-color="#D475A4"/>
<stop offset="0.31" stop-color="#E1A7B0"/>
<stop offset="0.39" stop-color="#F3ECC1"/>
<stop offset="0.4" stop-color="#F6F5C4"/>
<stop offset="0.41" stop-color="#D7F0CF"/>
<stop offset="0.43" stop-color="#B5ECDD"/>
<stop offset="0.45" stop-color="#9AE8E7"/>
<stop offset="0.48" stop-color="#87E6EF"/>
<stop offset="0.5" stop-color="#7BE4F3"/>
<stop offset="0.52" stop-color="#79E0F3"/>
<stop offset="0.58" stop-color="#95ABD3"/>
<stop offset="0.64" stop-color="#AB81BA"/>
<stop offset="0.69" stop-color="#BB63A8"/>
<stop offset="0.74" stop-color="#C5519D"/>
<stop offset="0.77" stop-color="#C94B9A"/>
<stop offset="0.78" stop-color="#BD4A9E"/>
<stop offset="0.79" stop-color="#9E4AAA"/>
<stop offset="0.82" stop-color="#6D4ABE"/>
<stop offset="0.83" stop-color="#514AC9"/>
<stop offset="0.84" stop-color="#7671D4"/>
<stop offset="0.85" stop-color="#9B97DF"/>
<stop offset="0.86" stop-color="#BAB7E9"/>
<stop offset="0.88" stop-color="#D3D1F1"/>
<stop offset="0.89" stop-color="#E6E5F7"/>
<stop offset="0.91" stop-color="#F4F4FB"/>
<stop offset="0.93" stop-color="#FCFCFE"/>
<stop offset="0.97" stop-color="white"/>
</radialGradient>
<linearGradient id="paint2_linear_34_97" x1="-0.0706966" y1="30.4747" x2="34.4647" y2="-1.50505" gradientUnits="userSpaceOnUse">
<stop offset="0.03" stop-color="#696969"/>
<stop offset="0.06" stop-color="#69696B"/>
<stop offset="0.08" stop-color="#696973"/>
<stop offset="0.1" stop-color="#6A6982"/>
<stop offset="0.11" stop-color="#6B6996"/>
<stop offset="0.12" stop-color="#6D69AE"/>
<stop offset="0.18" stop-color="#6F6FB0"/>
<stop offset="0.25" stop-color="#7781B9"/>
<stop offset="0.35" stop-color="#849FC7"/>
<stop offset="0.45" stop-color="#95C9DA"/>
<stop offset="0.48" stop-color="#9CD8E1"/>
<stop offset="0.51" stop-color="#9FD9DF"/>
<stop offset="0.53" stop-color="#ABDCDC"/>
<stop offset="0.56" stop-color="#BEE3D5"/>
<stop offset="0.58" stop-color="#D9EBCD"/>
<stop offset="0.6" stop-color="#F6F5C4"/>
<stop offset="0.62" stop-color="#F4F3B6"/>
<stop offset="0.65" stop-color="#F1EE92"/>
<stop offset="0.67" stop-color="#EFEB72"/>
<stop offset="0.71" stop-color="#E3B176"/>
<stop offset="0.73" stop-color="#DF9A79"/>
<stop offset="0.77" stop-color="#D47588"/>
<stop offset="0.82" stop-color="#CC5695"/>
<stop offset="0.84" stop-color="#C74C99"/>
<stop offset="0.88" stop-color="#AE6894"/>
<stop offset="0.91" stop-color="#9C7D90"/>
<stop offset="0.95" stop-color="#91898E"/>
<stop offset="0.98" stop-color="#8E8E8E"/>
<stop offset="0.99" stop-color="#8B8797"/>
<stop offset="1" stop-color="#8474B4"/>
</linearGradient>
<linearGradient id="paint3_linear_34_97" x1="25.3939" y1="7.61616" x2="-0.515144" y2="29.798" gradientUnits="userSpaceOnUse">
<stop stop-color="#878787"/>
<stop offset="1" stop-color="#333333"/>
</linearGradient>
<clipPath id="clip0_34_97">
<rect width="32" height="32" fill="white"/>
</clipPath>
</defs>
</svg>
