<svg width="64" height="59" viewBox="0 0 64 59" fill="none" xmlns="http://www.w3.org/2000/svg">
<g clip-path="url(#clip0_5653_1408)">
<path d="M63.4384 10.2976C63.9215 10.2098 64.1569 9.64119 63.8802 9.21474L63.1535 8.11098C61.2294 5.18433 58.7891 3.00608 55.9195 1.6431C53.632 0.5477 51.1133 0 48.4418 0C46.0428 0 43.9494 0.45572 42.6116 0.953249C41.4637 0.656404 38.7716 0.0710756 35.2413 0.0710756C31.967 0.0710756 28.7835 0.568605 25.7775 1.56366C22.0531 2.78449 18.6508 4.62827 15.6531 7.02394C13.2666 8.94716 11.1401 11.2258 9.3316 13.8012C6.24721 18.1995 5.17366 21.9331 5.12824 22.092L5.01676 22.4682C4.88876 22.9072 5.05805 23.3755 5.42966 23.6222L5.75586 23.8438C9.24489 26.2185 13.7249 27.5857 18.0604 27.5857C20.8516 27.5857 23.5933 27.038 26.1904 25.9718C32.2519 23.4633 35.6624 19.2364 37.442 16.1383C37.6126 15.8486 37.7711 15.5601 37.9169 15.2729C37.9623 16.7487 37.8467 18.4671 37.3925 20.3611C36.4717 24.1991 34.5352 27.4059 31.6242 29.9019C29.4317 31.7917 27.4663 32.5401 27.4457 32.5484L26.8965 32.7575L26.6199 33.2843C26.306 33.8821 24.8031 37.0053 25.9716 39.9612C26.335 40.8768 27.1814 41.4245 28.2426 41.4245C29.2459 41.4245 30.3649 40.9479 31.2691 40.4295C31.7522 40.9981 32.1239 41.3576 32.45 41.6336C32.3427 42.9087 31.5871 43.5651 30.7117 44.3219C30.0139 44.9281 29.1262 45.1079 28.2426 45.1079C26.6405 42.5492 24.3035 41.9011 21.4008 41.9011C20.2116 41.9011 19.0637 42.1603 17.9819 42.6704C16.7432 43.2557 16.801 45.0786 18.081 45.5762C18.1099 45.5845 21.7848 47.0687 23.9566 50.1124C26.0624 53.0475 24.8444 56.0535 24.7535 56.2542L23.9484 57.9851C23.7213 58.4617 24.1342 58.9885 24.6379 58.8673L26.4836 58.4534C27.231 58.282 29.1881 57.705 31.0833 56.0452C32.735 54.5902 33.8952 52.6795 34.4857 50.4595C38.21 49.8532 41.6413 48.4819 44.705 46.3789C47.8307 44.2299 50.5146 41.3158 52.4511 37.9543C54.4165 34.5176 55.6346 30.6085 55.9608 26.6366C56.2663 22.8362 55.7543 18.9646 54.4743 15.3858C57.8271 11.4139 62.113 10.5484 62.1502 10.5359L63.4384 10.2976Z" fill="#231815"/>
<path d="M33.218 49.0672C49.6392 47.0478 58.5455 29.8016 52.7153 15.114C56.5677 9.99239 61.8776 9.01405 61.8776 9.01405C55.6263 -0.505891 45.5019 1.39224 42.7024 2.63816C41.3935 2.24097 34.2792 0.426453 26.2482 3.07297C10.6694 8.21968 6.60229 22.5477 6.60229 22.5477C11.0616 25.583 18.337 27.523 25.6082 24.5294C36.5873 19.9931 38.4082 9.58266 38.4082 9.58266C38.4082 9.58266 40.4397 14.2778 38.8872 20.7457C36.4511 30.9262 27.9783 34.0536 27.9783 34.0536C27.5654 34.8396 26.5538 37.2645 27.4002 39.3842C27.809 40.442 29.8653 39.6225 31.6036 38.3892C33.0281 40.2497 33.6186 40.6009 33.9943 40.8768C34.0727 42.9464 33.2841 44.3804 31.8885 45.5929C30.4764 46.8179 29.0023 47.328 27.9783 47.537C26.2895 43.8453 22.0531 42.499 18.6302 44.1212C18.6302 44.1212 22.7097 45.7225 25.1953 49.1968C27.9205 52.9973 26.1615 56.9273 26.1615 56.9273C28.1352 56.48 32.2931 54.4815 33.218 49.0672Z" fill="#F0F1F2"/>
<path d="M27.8214 2.61724C35.1917 0.66475 41.4844 2.25768 42.7024 2.63814C43.8008 2.14897 46.0139 1.56365 48.6689 1.59291C46.2286 1.82286 44.8165 2.50853 43.7636 2.92662C43.7112 2.94628 43.6616 2.96551 43.615 2.98516V3.02697C45.8446 4.48611 47.2526 6.57656 47.2526 6.57656C42.7396 0.765092 30.8397 2.95589 28.9404 3.50359C28.6348 3.20257 28.1765 2.85555 27.8214 2.61724Z" fill="#BCBCBC"/>
<path d="M60.7876 9.30255C59.0369 9.87952 55.4983 11.4223 52.7154 15.114C54.4743 19.5416 54.8872 24.2117 54.1729 28.61C54.0602 28.9809 53.9347 29.3459 53.7972 29.7054C54.7799 20.8879 51.84 15.4527 49.0983 10.4189C51.1546 12.8563 51.5262 13.634 51.5262 13.634C55.0565 9.9924 61.1097 9.08514 61.1097 9.08514C60.9994 9.15747 60.8921 9.23022 60.7876 9.30255Z" fill="#BCBCBC"/>
<path d="M38.6023 20.9547C39.969 16.3014 38.2183 13.0946 38.2183 13.0946C36.8929 18.1786 34.4155 21.9331 29.1179 24.7761C25.2862 26.8373 18.6219 27.2052 18.6219 27.2052L27.6645 32.2516C33.2057 30.9555 36.9012 26.7369 38.6023 20.9547Z" fill="#231815"/>
<path d="M37.6898 13.8304C38.4083 16.8574 37.9623 19.0273 37.6981 19.5332C37.3347 20.2314 35.968 19.2656 35.968 19.2656C35.968 19.2656 36.5295 23.8939 35.9886 24.45C35.4395 25.006 32.6978 22.9156 32.6978 22.9156C32.6978 22.9156 33.9737 27.824 33.0612 28.4386C32.1569 29.0657 27.8421 25.6332 27.8421 25.6332C27.8421 25.6332 29.2748 31.2356 28.383 31.4864C27.5861 31.7122 26.335 31.3359 24.9889 30.7004L22.8955 29.5758C21.4132 28.6894 20.0258 27.7236 19.2206 27.1341C20.9424 27.038 25.1004 26.5279 28.7628 24.1322C33.631 20.9464 36.7566 17.0665 37.6898 13.8304Z" fill="white"/>
<path d="M28.1352 29.1451C33.6888 32.6488 35.2702 38.778 32.1156 43.2265C28.961 47.675 22.7799 48.0345 17.8044 43.7031C13.3326 39.8232 11.297 33.347 13.9024 29.6845C16.5079 26.0095 23.1432 25.9927 28.1352 29.1451Z" fill="#2D0A03"/>
<path d="M34.6136 35.9517C33.6103 32.5108 30.8975 29.396 27.3589 27.6149C21.6278 24.7384 15.1122 26.0094 12.5275 30.529C9.99223 34.9482 12.1146 41.3241 17.3543 45.0577C20.4304 47.2485 24.1135 48.2017 27.3589 47.7042C27.5955 47.6653 27.8255 47.6219 28.0485 47.5746C30.6126 46.9976 32.6276 45.5469 33.8663 43.377C35.1133 41.2071 35.3775 38.5606 34.6136 35.9517Z" fill="#231815"/>
<path d="M26.7025 28.4804C32.5492 31.4154 35.4271 37.9042 32.7061 42.6495C29.9933 47.3865 23.1433 47.8046 17.7879 43.9916C12.9693 40.5716 11.0617 34.8772 13.312 30.968C15.5541 27.0547 21.4338 25.8339 26.7025 28.4804Z" fill="#F8C100"/>
<path d="M25.1954 27.5857C25.1954 27.5857 15.7234 29.7514 15.2114 41.713L15.5954 42.2398C15.5954 42.2398 15.1618 38.5397 19.3074 33.1045C22.6023 28.7898 25.3853 27.7529 25.3853 27.7529L25.1954 27.5857Z" fill="#231815"/>
<path d="M11.1029 40.5716C4.95895 37.415 1.00746 33.2341 2.03972 30.759C3.19998 28.0121 10.0624 28.401 17.3626 31.6119C17.96 31.8795 18.5364 32.1525 19.0926 32.4314C19.2784 32.1596 19.4684 31.892 19.6748 31.6328C19.0059 31.2954 18.3176 30.971 17.6103 30.6587C9.31508 26.9962 1.51946 26.5572 0.202303 29.672C-0.722601 31.8711 1.82501 35.2577 6.30501 38.339C8.07637 39.5556 10.0211 40.0824 11.1029 40.5716Z" fill="#231815"/>
<path d="M35.4973 30.3409C33.0488 33.6647 29.1592 35.8012 24.7824 35.8012C24.4492 35.8012 24.1189 35.7915 23.7915 35.7719L23.7832 35.7635C25.9427 38.4811 29.2377 40.212 32.9208 40.212C38.5527 40.212 43.2722 36.1524 44.4201 30.7172L35.4973 30.3409Z" fill="#F0F1F2"/>
<path d="M25.728 36.5495V36.5579C26.0418 36.8309 26.3668 37.0834 26.7025 37.3146C27.1236 37.6157 27.5572 37.8833 28.0155 38.1132C28.4697 38.339 28.9404 38.5397 29.4235 38.6985C29.9066 38.8699 30.398 39.0079 30.8976 39.1083C31.3972 39.217 31.9009 39.2755 32.4088 39.3048L32.9125 39.3257C32.9043 39.3257 32.9497 39.3257 32.8836 39.3257H32.9497L33.1562 39.3173L33.9737 39.288C34.4651 39.2379 34.9564 39.1877 35.456 39.0665C35.712 39.0288 35.9598 38.9577 36.2034 38.8783C36.4511 38.8072 36.7071 38.7487 36.9425 38.64C37.1778 38.5397 37.4214 38.4686 37.6609 38.3599L38.367 38.0212C38.8171 37.7745 39.2795 37.5153 39.6924 37.1976C39.9195 37.0554 40.126 36.8882 40.3242 36.7168C40.5389 36.5579 40.7453 36.3907 40.9311 36.2025C41.3234 35.8513 41.6785 35.4458 42.0336 35.0486C42.368 34.618 42.7107 34.1915 42.9874 33.7232C43.1443 33.5058 43.2723 33.255 43.4085 33.0167C43.5448 32.7784 43.6852 32.54 43.7843 32.2808C44.0279 31.7833 44.2261 31.2565 44.4202 30.7172C44.3417 31.2774 44.2756 31.8544 44.1063 32.3979C44.0485 32.6906 43.9577 32.9581 43.8627 33.2257C43.7636 33.5058 43.6728 33.7734 43.5448 34.0326C43.3218 34.5678 43.0369 35.0653 42.7396 35.5754C42.4176 36.0604 42.0831 36.5412 41.6991 36.976C41.5216 37.2059 41.3151 37.415 41.1087 37.624C40.9022 37.8331 40.6958 38.0421 40.4604 38.2219C40.0269 38.6107 39.5479 38.9368 39.0565 39.2755C38.5528 39.5765 38.0408 39.8734 37.504 40.1033C37.2356 40.2329 36.9507 40.3207 36.6782 40.4211C36.4016 40.5214 36.1167 40.6176 35.8318 40.6803C35.5469 40.7472 35.2702 40.8392 34.9647 40.8768L34.0604 41.0273C33.7755 41.0566 33.5113 41.0691 33.2346 41.0775L32.9703 41.0984H32.7763L32.3303 41.0858C31.744 41.0566 31.1536 40.998 30.5714 40.8893C29.9851 40.7806 29.4111 40.6301 28.8537 40.442C27.7223 40.0531 26.6694 39.4762 25.6991 38.7905C25.2243 38.431 24.7536 38.063 24.3407 37.6324C24.1136 37.415 23.8989 37.1767 23.6924 36.9384C23.4571 36.7502 23.1515 36.3698 23.1143 36.2192C22.8666 35.8722 22.9244 35.3956 23.2506 35.1155C23.4653 34.9273 23.742 34.8772 23.998 34.9483C24.0116 34.9483 24.0281 34.9512 24.0475 34.9566L24.6545 34.9984C24.8816 35.0068 25.1789 34.9984 25.4225 34.9984C25.9551 34.9859 26.4836 34.9566 27.0039 34.8897L27.7925 34.7601L28.5688 34.5678C29.0808 34.4298 29.6011 34.2793 30.0924 34.0703C30.3484 33.9741 30.6044 33.8821 30.8398 33.7525C31.0834 33.6438 31.3311 33.5226 31.5665 33.3971C32.0454 33.1463 32.5203 32.8578 32.9703 32.54C33.1974 32.3895 33.4122 32.2097 33.6393 32.0509C33.8663 31.8836 34.0604 31.6955 34.2793 31.5157C34.7004 31.1478 35.1133 30.759 35.4973 30.3409C35.2042 30.8259 34.8986 31.315 34.5353 31.7624C34.3453 31.984 34.1719 32.2223 33.9737 32.4313C33.7755 32.6404 33.5814 32.8578 33.3626 33.0459C32.9414 33.4431 32.4996 33.8236 32.0289 34.1622C31.7936 34.342 31.5458 34.4883 31.3022 34.6472C31.0545 34.8061 30.7985 34.9357 30.5425 35.0862C30.0222 35.3663 29.4937 35.6047 28.9404 35.8137L28.1063 36.0813L27.2516 36.2987C26.7479 36.4116 26.24 36.4994 25.728 36.5495Z" fill="#231815"/>
<path fill-rule="evenodd" clip-rule="evenodd" d="M24.7494 15.8122C20.8723 15.8122 17.7383 12.526 17.7383 8.45799C17.7383 4.38996 20.8723 1.10376 24.7494 1.10376C28.6266 1.10376 31.7605 4.38996 31.7605 8.45799C31.7605 12.526 28.6266 15.8122 24.7494 15.8122Z" fill="#231815"/>
<path fill-rule="evenodd" clip-rule="evenodd" d="M25.6124 15.8122C22.2142 15.8122 19.4684 12.9316 19.4684 9.36943C19.4684 5.80729 22.2142 2.92664 25.6124 2.92664C29.0106 2.92664 31.7605 5.80729 31.7605 9.36943C31.7605 12.9316 29.0147 15.8122 25.6124 15.8122Z" fill="#E9E9E9"/>
<path fill-rule="evenodd" clip-rule="evenodd" d="M25.8808 15.0053C22.7468 15.0053 20.2116 12.4466 20.2116 9.28581C20.2116 6.12504 22.7468 3.56213 25.8808 3.56213C29.0147 3.56213 31.5458 6.12085 31.5458 9.28581C31.5458 12.4508 29.0147 15.0053 25.8808 15.0053Z" fill="white"/>
<path fill-rule="evenodd" clip-rule="evenodd" d="M25.8808 14.0395C23.2753 14.0395 21.1654 11.9156 21.1654 9.28584C21.1654 6.65604 23.2753 4.52795 25.8808 4.52795C28.4862 4.52795 30.592 6.65186 30.592 9.28584C30.592 11.9198 28.4862 14.0395 25.8808 14.0395Z" fill="#231815"/>
<path fill-rule="evenodd" clip-rule="evenodd" d="M28.8248 12.1581C27.4539 12.1581 26.3474 11.0418 26.3474 9.65793C26.3474 8.27405 27.4539 7.15356 28.8248 7.15356C30.1956 7.15356 31.3022 8.27405 31.3022 9.65793C31.3022 11.0418 30.1915 12.1581 28.8248 12.1581Z" fill="white"/>
<path fill-rule="evenodd" clip-rule="evenodd" d="M22.1894 9.22309C21.4214 9.22309 20.8021 8.60013 20.8021 7.82666C20.8021 7.05319 21.4214 6.43024 22.1894 6.43024C22.9574 6.43024 23.5768 7.05319 23.5768 7.82666C23.5768 8.60013 22.9574 9.22309 22.1894 9.22309Z" fill="white"/>
</g>
<defs>
<clipPath id="clip0_5653_1408">
<rect width="64" height="58.9091" fill="white"/>
</clipPath>
</defs>
</svg>
