<svg width="120" height="42" viewBox="0 0 120 42" fill="none" xmlns="http://www.w3.org/2000/svg">
<path d="M8.06641 16.002C9.85709 11.8438 13.9493 9.14978 18.4749 9.15051L45.3705 9.1538L43.0369 14.6232C42.5914 15.6673 41.5661 16.3447 40.4312 16.3447H12.7388L16.3918 18.0734L9.66357 33.8592H34.8288L32.452 39.4291C32.0065 40.4732 30.9812 41.1505 29.8467 41.1505H5.93615C1.87426 41.1505 -0.867998 37.0003 0.722947 33.2611L8.06641 16.002Z" fill="white"/>
<path d="M68.752 28.7418L66.5672 33.8591H40.7704C39.6373 33.8591 38.6134 34.5335 38.1658 35.5744L35.7688 41.1505H64.8996C69.4415 41.1505 73.5453 38.4408 75.3284 34.2642L77.4638 29.2628C79.0606 25.5232 76.3165 21.3685 72.2496 21.3685H53.1702L54.5712 18.0739L51.0063 16.3448H81.1043C82.2414 16.3448 83.2686 15.6656 83.7133 14.6193L86.0383 9.15051H56.9097C52.3572 9.15051 48.2465 11.8726 46.4695 16.0631L45.2827 18.8627L44.4354 20.8585C42.8481 24.597 45.5922 28.7425 49.6543 28.7425H68.7523H51.7382" fill="white"/>
<rect x="86.0383" y="9.15051" width="33.6547" height="32" rx="4" fill="white"/>
<path d="M88.1674 20.6372V17.1268H102.115V20.6372H97.2881V33.1742H92.9941V20.6372H88.1674Z" fill="black"/>
<path d="M105.936 17.1268L109.227 28.4415H109.352L112.643 17.1268H117.564L112.267 33.1742H106.312L101.015 17.1268H105.936Z" fill="black"/>
<rect x="112.826" y="0.581299" width="2.96118" height="16" rx="1.48059" transform="rotate(48.228 112.826 0.581299)" fill="#FFFCFC"/>
<rect x="93.9102" y="5.09857" width="2.96118" height="16" rx="1.48059" transform="rotate(-48.6407 93.9102 5.09857)" fill="#FFFCFC"/>
</svg>
